<?xml version="1.0" encoding="UTF-8" standalone="no"?>
<svg
   width="100mm"
   height="100mm"
   viewBox="-938 0 100 100"
   version="1.2"
   id="svg37"
   sodipodi:docname="Sandfang.svg"
   xml:space="preserve"
   inkscape:version="1.3.2 (091e20e, 2023-11-25, custom)"
   xmlns:inkscape="http://www.inkscape.org/namespaces/inkscape"
   xmlns:sodipodi="http://sodipodi.sourceforge.net/DTD/sodipodi-0.dtd"
   xmlns="http://www.w3.org/2000/svg"
   xmlns:svg="http://www.w3.org/2000/svg"
   xmlns:rdf="http://www.w3.org/1999/02/22-rdf-syntax-ns#"
   xmlns:cc="http://creativecommons.org/ns#"
   xmlns:dc="http://purl.org/dc/elements/1.1/"
   xmlns:inkstitch="http://inkstitch.org/namespace"><sodipodi:namedview
   id="namedview37"
   pagecolor="#505050"
   bordercolor="#eeeeee"
   borderopacity="1"
   inkscape:showpageshadow="0"
   inkscape:pageopacity="0"
   inkscape:pagecheckerboard="0"
   inkscape:deskcolor="#505050"
   inkscape:zoom="1.7672316"
   inkscape:cx="-44.702686"
   inkscape:cy="252.65506"
   inkscape:window-width="2560"
   inkscape:window-height="1369"
   inkscape:window-x="1072"
   inkscape:window-y="193"
   inkscape:window-maximized="1"
   inkscape:current-layer="layer1"
   inkscape:document-units="mm" /><defs
   id="defs37"><symbol
   id="inkstitch_ignore_layer">
      <title
   id="title9694">Ignore entire layer when generating stitch plan</title>
      <path
   inkscape:connector-curvature="0"
   style="opacity:1;vector-effect:none;fill:#fafafa;fill-opacity:1;fill-rule:evenodd;stroke:#ff0000;stroke-width:1.06501234;stroke-linecap:round;stroke-linejoin:miter;stroke-miterlimit:4;stroke-dasharray:3.19503705, 3.19503705;stroke-dashoffset:0;stroke-opacity:1"
   d="M 9.2465269,-4.9265995e-6 C 9.246525,5.1067241 5.1067028,9.2465451 -2.615882e-5,9.2465451 -5.1067554,9.2465451 -9.2465782,5.1067241 -9.2465801,-4.9265995e-6 -9.24658,-2.4523429 -8.2723922,-4.8042399 -6.538327,-6.5383059 c 1.7340653,-1.734065 4.0859624,-2.708252 6.53830084118,-2.708252 5.10673015882,0 9.24655285882,4.139823 9.24655305882,9.2465529734005 0,0 0,0 0,0"
   id="inkstitch_path25368-7" />
      <path
   sodipodi:nodetypes="ccccc"
   inkscape:connector-curvature="0"
   style="color:#000000;fill:#d5d5d5;fill-opacity:1;fill-rule:evenodd;stroke:#5a5a5a;stroke-width:0.63330007;stroke-linecap:square;stroke-linejoin:round;stroke-miterlimit:0;stroke-opacity:1"
   d="M 4,4.452769 1.46667,1.286102 H -5.5 l 2.53333,3.166667 z"
   id="use5800" />
      <path
   sodipodi:nodetypes="ccccc"
   inkscape:connector-curvature="0"
   style="color:#000000;opacity:0.5;fill:#d5d5d5;fill-opacity:1;fill-rule:evenodd;stroke:#858585;stroke-width:0.63339424;stroke-linecap:square;stroke-linejoin:round;stroke-miterlimit:0;stroke-opacity:1"
   d="M 4,2.552769 1.46667,-0.613898 H -5.5 l 2.53333,3.166667 z"
   id="use5864" />
      <g
   id="g5771">
        <path
   sodipodi:nodetypes="ccccccccc"
   inkscape:connector-curvature="0"
   style="fill:#aa0000;fill-rule:evenodd;stroke:#aa0000;stroke-width:1px"
   d="m -1.0666699,-5.0472339 h 4.4333333 l 0.6333333,0.6333333 V 0.01943274 L 3.3666634,0.65276607 H -1.0666699 L -1.7000032,0.01943274 V -4.4139006 Z"
   id="path8011" />
        <path
   inkscape:connector-curvature="0"
   id="path8023"
   d="m -0.43333658,-3.8755672 c 0,0 3.16666668,3.16666661 3.16666668,3.16666661"
   style="fill:none;stroke:#ffffff;stroke-width:1.70000005" />
        <path
   inkscape:connector-curvature="0"
   id="path8025"
   d="m 2.7333301,-3.8755672 c 0,0 -3.16666668,3.16666661 -3.16666668,3.16666661"
   style="fill:none;stroke:#ffffff;stroke-width:1.79999995;stroke-linejoin:round" />
      </g>
    </symbol>
    </defs><title
   id="title1">Zwischenablage01</title>\n<metadata
   id="metadata37"><rdf:RDF><cc:Work
       rdf:about=""><dc:title>Zwischenablage01</dc:title></cc:Work></rdf:RDF><inkstitch:min_stitch_len_mm>0</inkstitch:min_stitch_len_mm><inkstitch:collapse_len_mm>3</inkstitch:collapse_len_mm><inkstitch:inkstitch_svg_version>1</inkstitch:inkstitch_svg_version></metadata><g
   inkscape:groupmode="layer"
   id="layer2"
   inkscape:label="Füllung"
   style="display:inline"><g
     id="g40"
     transform="translate(1.3125e-05, 0)"><g
       id="g4"><path
         style="display:inline;fill:#008000;fill-rule:evenodd"
         d="m -2299.5785,165.90466 v 14.784 h 19.0559 19.056 v -14.784 -14.784 h -19.056 -19.0559 z"
         id="path41_13"
         transform="matrix(0.264583 0 0 0.264583 -248.179 0)"
         inkstitch:row_spacing_mm="0.3" /><path
         style="display:inline;fill:#008000;fill-rule:evenodd"
         d="m -2326.7167,183.18487 -0.116,-6.06651 0.2309,-0.23074 0.2309,-0.23074 h 9.8008 v -5.92895 l -9.814,-0.0772 -0.181,-0.2236 -0.1527,-0.52367 -0.028,-3.95064 -111.36,0.23983 v 8.44785 8.44797 z"
         id="path41_16"
         transform="matrix(0.264583,0,0,0.264583,-248.179,0)"
         inkstitch:row_spacing_mm="0.3"
         sodipodi:nodetypes="cccccccccccccc" /><path
         style="display:inline;fill:#008000;fill-rule:evenodd"
         d="m -2542.5546,183.37666 h 92.7361 v -16.992 h -92.7361 z"
         id="path41_14"
         transform="matrix(0.264583,0,0,0.264583,-248.179,0)"
         inkstitch:row_spacing_mm="0.3"
         sodipodi:nodetypes="ccccc" /><path
         style="display:inline;fill:#008000;fill-rule:evenodd"
         d="m -2569.7224,192.49666 h 26.016 v -26.112 l -15.4603,-0.14926 -0.078,-6.37879 h -10.4776 z"
         id="path41_11"
         transform="matrix(0.264583,0,0,0.264583,-248.179,0)"
         inkstitch:row_spacing_mm="0.3"
         sodipodi:nodetypes="ccccccc" /></g><g
       id="g2"><path
         style="display:inline;fill:#55d400;fill-rule:evenodd"
         d="m -2447.9634,198.16066 7.9369,-0.127 V 155.7982 l -7.813,0.131 z"
         id="path41_7"
         transform="matrix(0.264583,0,0,0.264583,-248.179,0)"
         inkstitch:row_spacing_mm="0.3"
         inkstitch:angle="90"
         sodipodi:nodetypes="ccccc" /><path
         style="display:inline;fill:#55d400;fill-rule:evenodd;stroke-width:0.292598"
         d="m -860.79938,42.356864 h 3.88619 v -2.360832 h -3.88619 z"
         id="path41_3"
         inkstitch:row_spacing_mm="0.3"
         inkstitch:angle="90"
         sodipodi:nodetypes="ccccc" /><path
         style="display:inline;fill:#55d400;fill-rule:evenodd;stroke-width:0.291103"
         d="m -860.79938,45.263125 h 3.88619 v -2.582746 h -3.88619 z"
         id="path41_5"
         inkstitch:row_spacing_mm="0.3"
         inkstitch:angle="90"
         sodipodi:nodetypes="ccccc" /><path
         style="display:inline;fill:#55d400;fill-rule:evenodd;stroke-width:0.281327"
         d="m -860.79938,47.817811 h 3.88619 v -2.268602 h -3.88619 z"
         id="path41_4"
         inkstitch:row_spacing_mm="0.3"
         inkstitch:angle="90"
         sodipodi:nodetypes="ccccc" /></g><g
       id="g1"><path
         style="display:inline;fill:#484537;fill-rule:evenodd"
         d="m -2316.5938,169.62547 c 0.023,-3.09631 0.016,-6.19262 0.011,-9.28897 h -121.5242 v 4.704 c 15.9185,0.004 58.1793,-0.0963 112.1568,-0.22539 l 0.1776,0.21932 0.1498,0.52818 c 0.032,1.32918 0.028,2.65855 0.028,3.98799 3.0004,0.008 6.0005,0.0424 9.0007,0.0749 z"
         id="path41_9"
         transform="matrix(0.264583 0 0 0.264583 -248.179 0)"
         sodipodi:nodetypes="ccccccccc"
         inkstitch:row_spacing_mm="0.3" /><path
         style="display:inline;fill:#484537;fill-rule:evenodd"
         d="m -2558.1402,165.25583 -1e-4,1e-5 11.7849,0.0405 54.1288,-0.0635 42.408,-2e-4 v -2.688 -2.688 h -54.1286 -54.1286 l -0.064,2.64768 z"
         id="path41_8"
         transform="matrix(0.264583 0 0 0.264583 -248.179 0)"
         inkstitch:row_spacing_mm="0.3" /></g><g
       id="g3"><path
         style="display:inline;fill:#d45500;fill-rule:evenodd"
         d="m -2449.8185,192.59263 v -8.064 h -92.7361 v 7.96781 z"
         id="path41_10"
         transform="matrix(0.264583,0,0,0.264583,-248.179,0)"
         inkstitch:row_spacing_mm="0.3"
         sodipodi:nodetypes="ccccc" /><path
         style="display:inline;fill:#d45500;fill-rule:evenodd"
         d="m -2438.1065,192.52057 94.416,-0.26388 0.052,-7.88824 -94.466,-0.12774 z"
         id="path41_12"
         transform="matrix(0.264583,0,0,0.264583,-248.179,0)"
         inkstitch:row_spacing_mm="0.3"
         sodipodi:nodetypes="ccccc" /><path
         style="display:inline;fill:#d45500;fill-rule:evenodd"
         d="m -2342.4914,192.3349 24.791,-0.12619 -0.068,-10.03201 0.2415,-0.432 0.5908,-0.65811 0.3492,-0.22613 v -3.05177 h -9.1418 l 0.095,5.65543 -0.1661,0.61688 -0.2011,0.25569 h -16.498 z"
         id="path41_6"
         transform="matrix(0.264583,0,0,0.264583,-248.179,0)"
         inkstitch:row_spacing_mm="0.3"
         sodipodi:nodetypes="ccccccccccccc" /></g><g
       id="g5"><path
         style="display:inline;fill:#ffe680;fill-rule:evenodd"
         d="m -2438.1091,159.18467 h 121.5385 l -0.015,-8.03211 c -65.8818,-0.12717 -149.0434,-0.1279 -253.1387,-0.1279 v 7.68 h 119.8935 l 0.025,-4.6746 c 4.2976,-0.012 8.1817,-0.10151 11.5967,-0.0608 0.1386,2.10237 0.1019,3.56577 0.1,5.21543 z"
         id="path41_15"
         transform="matrix(0.264583 0 0 0.264583 -248.179 0)"
         sodipodi:nodetypes="ccccccccc"
         inkstitch:row_spacing_mm="0.3" /></g></g></g><g
   inkscape:groupmode="layer"
   id="layer1"
   inkscape:label="Pfade"><g
     id="g39"
     style="display:inline;stroke-width:0.3;stroke-dasharray:none"><path
       fill="none"
       stroke="#ffffff"
       stroke-width="0.207469"
       stroke-linecap="round"
       stroke-linejoin="round"
       d="m -856.75062,39.481651 v 8.803881"
       id="path12"
       style="fill:none;stroke:#000000;stroke-width:0.3;stroke-dasharray:none;stroke-opacity:1"
       sodipodi:nodetypes="cc"
       inkstitch:satin_column="False" /><path
       fill="none"
       stroke="#ffffff"
       stroke-width="0.207469"
       stroke-linecap="round"
       stroke-linejoin="round"
       d="M -860.93607,48.283594 V 39.44557"
       id="path13"
       style="fill:none;stroke:#000000;stroke-width:0.3;stroke-dasharray:none;stroke-opacity:1"
       sodipodi:nodetypes="cc"
       inkstitch:satin_column="False" /><path
       fill="none"
       stroke="#ffffff"
       stroke-width="0.207469"
       stroke-linecap="round"
       stroke-linejoin="round"
       d="m -860.92997,42.526235 h 4.10853"
       id="path15"
       style="fill:none;stroke:#000000;stroke-width:0.3;stroke-dasharray:none;stroke-opacity:1"
       sodipodi:nodetypes="cc"
       inkstitch:satin_column="False" /><path
       fill="none"
       stroke="#ffffff"
       stroke-width="0.207469"
       stroke-linecap="round"
       stroke-linejoin="round"
       d="m -856.8415,45.391494 h -4.09903"
       id="path16"
       style="fill:none;stroke:#000000;stroke-width:0.3;stroke-dasharray:none;stroke-opacity:1"
       sodipodi:nodetypes="cc"
       inkstitch:satin_column="False" /><path
       fill="none"
       stroke="#ffffff"
       stroke-width="0.207469"
       stroke-linecap="round"
       stroke-linejoin="round"
       d="m -860.91197,42.281749 h -32.5696"
       id="path19"
       style="fill:none;stroke:#000000;stroke-width:0.3;stroke-dasharray:none;stroke-opacity:1"
       inkstitch:satin_column="False"
       sodipodi:nodetypes="cc" /><path
       fill="none"
       stroke="#ffffff"
       stroke-width="0.207469"
       stroke-linecap="round"
       stroke-linejoin="round"
       d="m -896.22376,42.137424 h -32.38692"
       id="path18"
       style="fill:none;stroke:#000000;stroke-width:0.3;stroke-dasharray:none;stroke-opacity:1"
       sodipodi:nodetypes="cc"
       inkstitch:satin_column="False" /><path
       fill="none"
       stroke="#ffffff"
       stroke-width="0.207469"
       stroke-linecap="round"
       stroke-linejoin="round"
       d="m -925.16586,42.188639 -0.0133,1.698736 28.88322,-0.01804"
       id="path22"
       style="fill:none;stroke:#000000;stroke-width:0.3;stroke-dasharray:none;stroke-opacity:1"
       sodipodi:nodetypes="ccc"
       inkstitch:satin_column="False" /><path
       fill="none"
       stroke="#ffffff"
       stroke-width="0.207469"
       stroke-linecap="round"
       stroke-linejoin="round"
       d="m -893.48157,43.833253 29.83938,-0.07216 0.005,1.243842 2.70944,0.01901"
       id="path24"
       style="fill:none;stroke:#000000;stroke-width:0.3;stroke-dasharray:none;stroke-opacity:1"
       sodipodi:nodetypes="cccc"
       inkstitch:satin_column="False" /><path
       fill="none"
       stroke="#ffffff"
       stroke-width="0.207469"
       stroke-linecap="round"
       stroke-linejoin="round"
       d="m -868.11629,48.634785 v 2.631253"
       id="path30"
       style="fill:none;stroke:#000000;stroke-width:0.3;stroke-dasharray:none;stroke-opacity:1"
       inkstitch:satin_column="False"
       sodipodi:nodetypes="cc" /><path
       fill="none"
       stroke="#ffffff"
       stroke-width="0.207469"
       stroke-linecap="round"
       stroke-linejoin="round"
       d="m -921.04782,43.909578 v 7.491281"
       id="path31"
       style="fill:none;stroke:#000000;stroke-width:0.3;stroke-dasharray:none;stroke-opacity:1"
       sodipodi:nodetypes="cc"
       inkstitch:satin_column="False" /><path
       fill="none"
       stroke="#ffffff"
       stroke-width="0.207469"
       stroke-linecap="round"
       stroke-linejoin="round"
       d="m -921.04677,48.668171 h 24.71476"
       id="path32"
       style="fill:none;stroke:#000000;stroke-width:0.3;stroke-dasharray:none;stroke-opacity:1"
       sodipodi:nodetypes="cc"
       inkstitch:satin_column="False" /><path
       fill="none"
       stroke="#ffffff"
       stroke-width="0.207469"
       stroke-linecap="round"
       stroke-linejoin="round"
       d="m -893.37333,48.596008 29.72736,0.02852 -0.01,-1.719592 2.70607,-0.0048"
       id="path33"
       style="fill:none;stroke:#000000;stroke-width:0.3;stroke-dasharray:none;stroke-opacity:1"
       sodipodi:nodetypes="cccc"
       inkstitch:satin_column="False" /></g><g
     id="g38"
     transform="matrix(0 0.0360815 -0.0360815 0 -838.638 45.7817)"
     style="display:inline;fill:none;stroke:#000000;stroke-opacity:1"><path
       id="path3"
       style="fill:none;stroke:#000000;stroke-width:1px"
       transform="matrix(0,-7.33294,7.33294,0,-1268.84,-16364.6)"
       d="m -2438.1313,200.16269 0.032,-45.29351 v -0.0932 l -0.014,-0.0923 -0.023,-0.0905 -0.032,-0.0878 -0.04,-0.0843 -0.048,-0.0799 -0.056,-0.0748 -0.063,-0.0689 -0.07,-0.0624 -0.075,-0.0552 -0.08,-0.0475 -0.085,-0.0393 -0.088,-0.0308 -0.091,-0.0219 -0.093,-0.0129 -1.3662,-0.004 -9.7824,0.0956 m 10.088,45.01036 0.031,-43.20695 -8.8276,0.0863 m 11.1886,1.58499 -2.8346,-0.002 m -0.7286,-4.23518 1e-4,3.22212"
       inkstitch:satin_column="True"
       inkstitch:center_walk_underlay="False"
       inkstitch:contour_underlay="False"
       inkstitch:zigzag_underlay="False"
       sodipodi:nodetypes="cccccccccccccccccccccccccc" /><path
       id="path1"
       style="fill:none;stroke:#000000;stroke-width:1px"
       transform="matrix(0,-7.33294,7.33294,0,-1268.84,-16364.6)"
       d="m -2449.7716,153.61873 -0.068,45.52811 v 0.0934 l 0.014,0.0925 0.023,0.0907 0.032,0.088 0.04,0.0845 0.048,0.0801 0.056,0.0749 0.063,0.069 0.07,0.0624 0.075,0.0552 0.081,0.0475 0.085,0.0393 0.088,0.0307 0.091,0.0218 0.093,0.0127 0.093,0.004 10.8089,-0.118 m -9.8072,-45.00955 -0.067,43.22642 8.8609,-0.10649 m -11.2206,-1.54081 2.8346,0.004 m 0.7718,0.81275 0.071,3.35595"
       inkstitch:satin_column="True"
       inkstitch:center_walk_underlay="False"
       inkstitch:contour_underlay="False"
       inkstitch:zigzag_underlay="False"
       sodipodi:nodetypes="cccccccccccccccccccccccccc" /><path
       id="path2"
       style="fill:none;stroke:#000000;stroke-width:1px"
       transform="matrix(0 -7.33294 7.33294 0 -1268.84 -16364.6)"
       d="m -2438.1069,196.33325 122.2795,-0.341 0.1852,-0.01 0.1833,-0.0277 0.1798,-0.0456 0.1745,-0.063 0.1674,-0.0798 0.1588,-0.0958 0.1486,-0.11089 0.1371,-0.12493 0.1242,-0.13776 0.11,-0.14927 0.095,-0.15933 0.079,-0.16788 0.062,-0.17479 0.045,-0.18002 0.027,-0.18352 0.01,-0.18526 -0.027,-9.54501 54.429,-0.0832 0.185,-0.009 0.1833,-0.0274 0.1796,-0.0453 0.1744,-0.0626 0.1674,-0.0794 0.1588,-0.0954 0.1487,-0.11051 0.1372,-0.12453 0.1243,-0.13737 0.1103,-0.14888 0.095,-0.15896 0.079,-0.16752 0.062,-0.17446 0.045,-0.17973 0.027,-0.18327 0.01,-0.18505 v -33.3427 l -0.01,-0.18518 -0.027,-0.18339 -0.045,-0.17985 -0.062,-0.17457 -0.079,-0.16761 -0.095,-0.15904 -0.1105,-0.14893 -0.1244,-0.1374 -0.1374,-0.12454 -0.1489,-0.11048 -0.159,-0.0954 -0.1675,-0.0793 -0.1746,-0.0625 -0.1798,-0.0451 -0.1834,-0.0273 -0.1852,-0.009 -312.0851,-0.1364 -0.1853,0.009 -0.1836,0.0272 -0.18,0.045 -0.1747,0.0625 -0.1678,0.0793 -0.1591,0.0954 -0.1491,0.11053 -0.1375,0.12461 -0.1246,0.1375 -0.1105,0.14906 -0.095,0.15917 -0.079,0.16776 -0.062,0.17473 -0.045,0.18002 -0.027,0.18356 -0.01,0.18534 0.022,45.2858 0.01,0.18509 0.027,0.18329 0.045,0.17975 0.062,0.17447 0.079,0.1675 0.095,0.15895 0.1103,0.14884 0.1245,0.13732 0.1373,0.12447 0.1488,0.11042 0.1589,0.0953 0.1675,0.0793 0.1745,0.0625 0.1797,0.0451 0.1833,0.0273 0.1851,0.009 121.5034,0.0862 m 11.9876,-3.80811 120.3897,-0.33573 -0.027,-9.5474 0.01,-0.1854 0.027,-0.18367 0.045,-0.18016 0.062,-0.17491 0.079,-0.16798 0.095,-0.15943 0.1102,-0.14933 0.1243,-0.1378 0.1373,-0.12493 0.1488,-0.11087 0.1591,-0.0957 0.1676,-0.0797 0.1746,-0.0628 0.18,-0.0454 0.1835,-0.0275 0.1854,-0.009 54.4343,-0.0832 v -29.56689 l -308.3046,-0.13475 0.02,41.50679 119.6158,0.0849 m 129.937,4.46079 -0.016,-5.66927 m 7.0301,-5.22488 -5.6692,0.016 m 54.9891,-0.71824 -0.01,-5.66928 m 7.1309,-1.21094 h -5.6692 m -311.9969,12.08048 5.6693,-0.003 m 0.9489,6.53197 v -5.66929 m 303.7623,-39.66131 v -5.10163 m 1.9028,6.0041 4.7014,-0.10452 m -54.7575,27.41071 v 5.10119 m -6.5682,5.67948 5.3681,-0.0711 m -122.3589,0.99071 -0.078,4.95067 m -15.6245,-4.80948 -0.1491,5.09271 m -122.8225,-44.80494 5.3758,-0.0784 m 1.7998,-5.61938 0.01,5.3049"
       inkstitch:satin_column="True"
       inkstitch:center_walk_underlay="False"
       inkstitch:contour_underlay="False"
       inkstitch:zigzag_underlay="False"
       sodipodi:nodetypes="cccccccccccccccccccccccccccccccccccccccccccccccccccccccccccccccccccccccccccccccccccccccccccccccccccccccccccccccccccccccccccccccccccccccccccc" /></g></g></svg>
