<?xml version="1.0" encoding="UTF-8" standalone="no"?>
<svg
   width="70mm"
   height="70mm"
   viewBox="-938 0 70 70"
   version="1.2"
   id="svg25"
   sodipodi:docname="kaffeefilter.svg"
   inkscape:version="1.3.2 (091e20e, 2023-11-25)"
   xmlns:inkscape="http://www.inkscape.org/namespaces/inkscape"
   xmlns:sodipodi="http://sodipodi.sourceforge.net/DTD/sodipodi-0.dtd"
   xmlns:xlink="http://www.w3.org/1999/xlink"
   xmlns="http://www.w3.org/2000/svg"
   xmlns:svg="http://www.w3.org/2000/svg"
   xmlns:rdf="http://www.w3.org/1999/02/22-rdf-syntax-ns#"
   xmlns:cc="http://creativecommons.org/ns#"
   xmlns:dc="http://purl.org/dc/elements/1.1/"
   xmlns:inkstitch="http://inkstitch.org/namespace"><sodipodi:namedview
   id="namedview25"
   pagecolor="#ffffff"
   bordercolor="#000000"
   borderopacity="0.25"
   inkscape:showpageshadow="2"
   inkscape:pageopacity="0.0"
   inkscape:pagecheckerboard="0"
   inkscape:deskcolor="#d1d1d1"
   inkscape:zoom="2"
   inkscape:cx="160"
   inkscape:cy="129.25"
   inkscape:window-width="1680"
   inkscape:window-height="924"
   inkscape:window-x="0"
   inkscape:window-y="527"
   inkscape:window-maximized="0"
   inkscape:current-layer="svg25"
   inkscape:document-units="mm" />
<defs
   id="defs25" />
<title
   id="title1">weinglas-wein.pdf</title>



\n<g
   id="g50"
   transform="matrix(0.04320411,0,0,0.04320411,-907.29453,-21.371738)"
   style="display:inline;stroke:#000000;stroke-width:28.4464;stroke-dasharray:none;stroke-opacity:1">
  <g
     id="g73">
    <g
       id="g72">
      <path
         fill="none"
         stroke="#304ae0"
         stroke-width="2.75"
         stroke-linecap="round"
         stroke-linejoin="round"
         d="m -53.8044,1756.417 c 4.0226,10.5606 10.1288,22.444 15.8643,32.1415 6.5498,11.0744 21.0176,19.9365 18.1599,34.1774 -2.8328,14.1166 -6.1192,37.5834 8.8923,44.8693 11.5326,5.5974 21.4478,-6.1878 21.346,-18.0242 -0.116,-13.4789 -6.1946,-31.1293 3.7856,-40.9067 8.0083,-7.8456 22.1795,-3.6106 33.4058,-7.6454 12.1628,-4.3715 47.234,-28.5064 54.3216,-40.3759 -52.706374,-6.8805 -104.7401985,-9.0531 -155.7755,-4.236 z"
         id="path54"
         sodipodi:nodetypes="csssssscc"
         style="display:inline;fill:#a0650a;fill-opacity:1;stroke:none;stroke-width:28.4464;stroke-dasharray:none;stroke-opacity:1"
         transform="translate(-2.29289e-5)"
         inkstitch:angle="90" />
      <path
         fill="none"
         stroke="#304ae0"
         stroke-width="2.75"
         stroke-linecap="round"
         stroke-linejoin="round"
         d="m -13.3217,1896.5126 c -4.389,4.9242 -5.686,12.1944 -6.288,18.7631 -0.5045,5.5046 -0.2819,11.5443 2.3236,16.4195 2.8004,5.2399 7.3867,11.1687 13.2849,11.8827 5.1177,0.6195 10.4431,-3.2293 13.6541,-7.2622 3.1043,-3.8989 3.5972,-9.4623 3.8848,-14.4377 0.5656,-9.784 -6.2962,-48.4363 -26.8594,-25.3654 z"
         id="path55"
         sodipodi:nodetypes="aaaaaaa"
         style="display:inline;fill:#a0650a;fill-opacity:1;stroke:none;stroke-width:28.4464;stroke-dasharray:none;stroke-opacity:1"
         transform="translate(-2.29289e-5)"
         inkstitch:angle="90" />
      <path
         fill="none"
         stroke="#304ae0"
         stroke-width="2.75"
         stroke-linecap="round"
         stroke-linejoin="round"
         d="m -24.7059,2034.0268 c 4.5286,6.6265 13.5621,10.1041 21.5653,10.7103 3.0867,0.2338 6.5307,-0.7747 8.8446,-2.8309 7.6965,-6.8397 12.4264,-17.8197 12.8073,-28.1091 0.5701,-15.401 -6.5493,-31.207 -16.0069,-43.3755 -3.6019,-4.6343 -7.5982,-10.1059 -14.5036,-9.985 -11.8272,0.2071 -14.2166,15.0756 -16.9551,26.0771 -3.7453,15.4535 -4.7235,34.3851 4.2484,47.5131 z"
         id="path56"
         sodipodi:nodetypes="aaaaasaa"
         style="display:inline;fill:#a0650a;fill-opacity:1;stroke:none;stroke-width:28.4464;stroke-dasharray:none;stroke-opacity:1"
         transform="translate(-2.29289e-5)"
         inkstitch:angle="90" />
      <path
         fill="none"
         stroke="#304ae0"
         stroke-width="2.75"
         stroke-linecap="round"
         stroke-linejoin="round"
         d="m -287.1214,1292.3434 c 104.7161,-32.3587 242.8871,-55.6907 331.3814,-59.4823 88.4943,-3.7916 152.3518,8.5289 203.6879,13.6215 41.6904,4.1358 79.90316,12.1242 117.89855,27.5034 l -144.26967,299.5623 c -56.3923,-6.6518 -116.74505,-11.3296 -176.406599,-12.9137 -63.020838,-1.6733 -125.270449,0.1051 -181.266361,6.6547 z"
         id="path70"
         sodipodi:nodetypes="czzccscc"
         style="fill:#a0650a;fill-opacity:1;stroke:none;stroke-width:28.4464;stroke-dasharray:none;stroke-opacity:1"
         inkstitch:angle="90" />
    </g>
  </g>
  <g
     id="g54"
     style="display:inline">
    <g
       id="g53">
      <path
         fill="none"
         stroke="#304ae0"
         stroke-width="2.75"
         stroke-linecap="round"
         stroke-linejoin="round"
         d="m -53.8044,1756.417 c 4.0226,10.5606 10.1288,22.444 15.8643,32.1415 6.5498,11.0744 21.0176,19.9365 18.1599,34.1774 -2.8328,14.1166 -6.1192,37.5834 8.8923,44.8693 11.5326,5.5974 21.4478,-6.1878 21.346,-18.0242 -0.116,-13.4789 -6.1946,-31.1293 3.7856,-40.9067 8.0083,-7.8456 22.1795,-3.6106 33.4058,-7.6454 12.1628,-4.3715 47.234,-28.5064 54.3216,-40.3759"
         id="path13"
         sodipodi:nodetypes="cssssssc"
         style="stroke:#000000;stroke-width:28.4464;stroke-dasharray:none;stroke-opacity:1"
         inkstitch:running_stitch_length_mm="0.5"
         inkstitch:stroke_method="running_stitch"
         inkstitch:repeats="2" />
      <path
         fill="none"
         stroke="#304ae0"
         stroke-width="2.75"
         stroke-linecap="round"
         stroke-linejoin="round"
         d="m -13.3217,1896.5126 c -4.389,4.9242 -5.686,12.1944 -6.288,18.7631 -0.5045,5.5046 -0.2819,11.5443 2.3236,16.4195 2.8004,5.2399 7.3867,11.1687 13.2849,11.8827 5.1177,0.6195 10.4431,-3.2293 13.6541,-7.2622 3.1043,-3.8989 3.5972,-9.4623 3.8848,-14.4377 0.5656,-9.784 -6.2962,-48.4363 -26.8594,-25.3654 z"
         id="path14"
         sodipodi:nodetypes="aaaaaaa"
         style="stroke:#000000;stroke-width:28.4464;stroke-dasharray:none;stroke-opacity:1"
         inkstitch:running_stitch_length_mm="0.5"
         inkstitch:stroke_method="running_stitch"
         inkstitch:repeats="2" />
      <path
         fill="none"
         stroke="#304ae0"
         stroke-width="2.75"
         stroke-linecap="round"
         stroke-linejoin="round"
         d="m -24.7059,2034.0268 c 4.5286,6.6265 13.5621,10.1041 21.5653,10.7103 3.0867,0.2338 6.5307,-0.7747 8.8446,-2.8309 7.6965,-6.8397 12.4264,-17.8197 12.8073,-28.1091 0.5701,-15.401 -6.5493,-31.207 -16.0069,-43.3755 -3.6019,-4.6343 -7.5982,-10.1059 -14.5036,-9.985 -11.8272,0.2071 -14.2166,15.0756 -16.9551,26.0771 -3.7453,15.4535 -4.7235,34.3851 4.2484,47.5131 z"
         id="path15"
         sodipodi:nodetypes="aaaaasaa"
         style="stroke:#000000;stroke-width:28.4464;stroke-dasharray:none;stroke-opacity:1"
         inkstitch:running_stitch_length_mm="0.5"
         inkstitch:stroke_method="running_stitch"
         inkstitch:repeats="2" />
    </g>
    <g
       id="g51">
      <path
         fill="none"
         stroke="#304ae0"
         stroke-width="2.75"
         stroke-linecap="round"
         stroke-linejoin="round"
         d="m -388.5573,1058.6988 c -2.3696,-44.1215 -5.9928,-66.98884 -4.6231,-106.18236 1.3697,-39.19352 -1.3005,-101.62049 3.7076,-128.25311 20.0275,-106.50427 53.9443,-26.09254 32.9314,35.69541 -8.6508,25.43755 -27.8304,78.20651 -36.6311,94.14342"
         id="path16"
         sodipodi:nodetypes="czzzc"
         style="stroke:#000000;stroke-width:28.4464;stroke-dasharray:none;stroke-opacity:1"
         inkstitch:running_stitch_length_mm="0.5"
         inkstitch:stroke_method="running_stitch"
         inkstitch:repeats="2" />
      <path
         fill="none"
         stroke="#304ae0"
         stroke-width="2.75"
         stroke-linecap="round"
         stroke-linejoin="round"
         d="m -253.4744,1356.4307 c -24.3709,-107.1794 -32.2453,-222.5021 -36.6094,-332.2415 -1.5238,-55.18055 0.013,-96.1208 1.3456,-141.21253 1.3327,-45.09173 1.101,-100.04172 27.2198,-124.36618 26.1188,-24.32446 14.4392,33.65125 8.4358,59.26584 -13.991,48.13328 -23.6574,96.48911 -37.4198,144.01053"
         id="path17"
         sodipodi:nodetypes="czzzzc"
         style="stroke:#000000;stroke-width:28.4464;stroke-dasharray:none;stroke-opacity:1"
         inkstitch:running_stitch_length_mm="0.5"
         inkstitch:stroke_method="running_stitch"
         inkstitch:repeats="2" />
      <path
         fill="none"
         stroke="#304ae0"
         stroke-width="2.75"
         stroke-linecap="round"
         stroke-linejoin="round"
         d="m -214.74,1107.887 c 1.3968,-50.0082 6.1114,-110.86316 10.4593,-149.65863 5.1314,-45.78636 13.1653,-103.67237 39.171,-176.41443 8.0037,-22.38751 44.9112,-67.13625 46.7505,-31.04608 1.8393,36.09017 -32.0294,87.88591 -43.8455,116.72943 -11.8161,28.84352 -30.3556,56.65612 -40.2843,73.51621"
         id="path18"
         sodipodi:nodetypes="czzzzc"
         style="stroke:#000000;stroke-width:28.4464;stroke-dasharray:none;stroke-opacity:1"
         inkstitch:running_stitch_length_mm="0.5"
         inkstitch:stroke_method="running_stitch"
         inkstitch:repeats="2" />
      <path
         fill="none"
         stroke="#304ae0"
         stroke-width="2.75"
         stroke-linecap="round"
         stroke-linejoin="round"
         d="m -125.2172,1567.7596 c -3.0593,-109.8304 -4.4823,-236.1489 -5.3589,-328.238 -0.8766,-92.0891 -1.1239,-186.215 11.0684,-254.72553 12.1923,-68.5105 33.4766,-122.43656 58.1213,-163.68344 24.6447,-41.24689 70.2766,-105.46264 57.3104,-38.13633 -12.9661,67.32632 -41.8106,126.59331 -66.982,171.26438 -25.1714,44.67107 -41.3621,77.36812 -56.9276,115.80852"
         id="path19"
         sodipodi:nodetypes="czzzzzc"
         style="stroke:#000000;stroke-width:28.4464;stroke-dasharray:none;stroke-opacity:1"
         inkstitch:running_stitch_length_mm="0.5"
         inkstitch:stroke_method="running_stitch"
         inkstitch:repeats="2" />
      <path
         fill="none"
         stroke="#304ae0"
         stroke-width="2.75"
         stroke-linecap="round"
         stroke-linejoin="round"
         d="M -0.3003,1077.9582 C 10.6406,964.30448 46.4372,863.15032 67.0233,807.8053 87.6094,752.46028 95.6774,728.46375 122.29,725.827 c 26.6126,-2.63675 9.4897,41.14907 -3.1719,65.86084 -12.6616,24.71177 -65.3483,99.00023 -87.0645,121.70945"
         id="path20"
         sodipodi:nodetypes="czzzc"
         style="stroke:#000000;stroke-width:28.4464;stroke-dasharray:none;stroke-opacity:1"
         inkstitch:running_stitch_length_mm="0.5"
         inkstitch:stroke_method="running_stitch"
         inkstitch:repeats="2" />
      <path
         fill="none"
         stroke="#304ae0"
         stroke-width="2.75"
         stroke-linecap="round"
         stroke-linejoin="round"
         d="m -20.33,1556.6875 c 6.0106,-106.7646 21.4973,-194.9993 44.692,-301.8243 23.1947,-106.825 47.0923,-241.6737 115.9335,-381.67561 68.8413,-140.00192 134.6361,-146.77354 56.5213,8.12419 C 118.7021,1036.2095 85.6134,1077.2654 51.555,1131.5034"
         id="path21"
         sodipodi:nodetypes="czzzc"
         style="stroke:#000000;stroke-width:28.4464;stroke-dasharray:none;stroke-opacity:1"
         inkstitch:running_stitch_length_mm="0.5"
         inkstitch:stroke_method="running_stitch"
         inkstitch:repeats="2" />
      <path
         fill="none"
         stroke="#304ae0"
         stroke-width="2.75"
         stroke-linecap="round"
         stroke-linejoin="round"
         d="m 185.5685,1087.972 c 31.2271,-113.48176 74.1047,-231.20337 98.1858,-292.33644 24.0811,-61.13307 58.72189,-57.58779 56.99332,-39.75347 -1.72857,17.83432 -4.00655,21.06042 -15.11592,47.59147 -11.1094,26.53105 -57.6025,80.08386 -84.3217,106.67324"
         id="path22"
         sodipodi:nodetypes="czzzc"
         style="stroke:#000000;stroke-width:28.4464;stroke-dasharray:none;stroke-opacity:1"
         inkstitch:running_stitch_length_mm="0.5"
         inkstitch:stroke_method="running_stitch"
         inkstitch:repeats="2" />
      <path
         fill="none"
         stroke="#304ae0"
         stroke-width="2.75"
         stroke-linecap="round"
         stroke-linejoin="round"
         d="m 130.3844,1560.3315 c 17.314,-119.2199 22.274,-221.8255 68.1565,-350.0779 45.8826,-128.2523 125.5863,-315.21457 187.12177,-393.58386 61.53546,-78.36929 105.28221,-59.49856 42.61386,32.14635 -62.66835,91.6449 -135.35673,219.77961 -214.11173,321.10361"
         id="path23"
         sodipodi:nodetypes="czzzc"
         style="stroke:#000000;stroke-width:28.4464;stroke-dasharray:none;stroke-opacity:1"
         inkstitch:running_stitch_length_mm="0.5"
         inkstitch:stroke_method="running_stitch"
         inkstitch:repeats="2" />
      <path
         fill="none"
         stroke="#304ae0"
         stroke-width="2.75"
         stroke-linecap="round"
         stroke-linejoin="round"
         d="m 304.24,1182.643 c 14.4382,-38.0122 131.11385,-280.86964 180.71312,-335.2213 51.4837,-56.41663 73.16518,-41.86042 54.48434,4.14594 C 520.75662,897.574 413.86958,1001.5475 377.10492,1029.5768"
         id="path24"
         sodipodi:nodetypes="czzc"
         style="stroke:#000000;stroke-width:28.4464;stroke-dasharray:none;stroke-opacity:1"
         inkstitch:running_stitch_length_mm="0.5"
         inkstitch:stroke_method="running_stitch"
         inkstitch:repeats="2" />
    </g>
    <g
       id="g52">
      <path
         id="path3457"
         style="fill:none;stroke:#000000;stroke-width:1px"
         d="m -2453.6325,161.27612 2.4813,-6.3086 0.03,-0.0712 2.884,-6.2993 0.024,-0.0494 3.1559,-6.2427 0.016,-0.0312 3.2971,-6.1387 0.01,-0.0139 6.4899,-11.76579 2.9203,-5.51088 2.5344,-5.20531 7.776,-17.509501 6.3967,-15.757106 0.347,-1.100647 0.1276,-0.856835 -0.033,-0.669819 -0.152,-0.543132 -0.2654,-0.4889 -0.3742,-0.451261 -1.2775,-1.018508 -3.7043,-2.155429 -0.078,-0.04917 -1.9825,-1.3341 -0.09,-0.06582 -0.085,-0.07268 -1.8135,-1.6883 -0.045,-0.04374 -0.7485,-0.761312 -0.6171,-0.467381 -0.56,-0.283439 -0.4992,-0.139344 -1.3987,-0.0178 -1.8004,0.349108 -2.3251,0.578172 -0.058,0.01318 -2.874,0.5874 -0.1296,0.0203 -3.5185,0.385 -0.1608,0.0084 -4.2944,-0.02 -0.046,-9.66e-4 -12.0827,-0.449797 -15.3423,-0.103751 -7.9384,0.118278 -7.6131,0.253274 -6.8954,0.40353 -5.797,0.568359 -8.8865,1.291866 -6.7057,1.345968 -5.557,1.56817 -5.4014,1.948795 -0.5608,0.295977 -0.2574,0.251282 -0.136,0.269535 -0.067,0.404177 0.04,0.599731 0.1733,0.755155 0.7771,2.000205 2.5955,4.987528 v 0.0065 l 1.4177,2.7589 0.038,0.07909 1.2383,2.8268 v 0.0094 l 1.2226,2.84683 1.4687,2.939961 3.4898,6.448197 0.017,0.0322 3.725,7.3259 0.035,0.075 1.7777,4.0689 0.03,0.0733 1.6284,4.37727 1.8935,4.9231 2.4982,5.53654 2.9152,5.88632 3.1212,5.92155 6.048,10.76028 4.4107,7.29639 m 35.7539,1.5276 2.4671,-6.27258 2.8565,-6.23915 3.1355,-6.20251 3.2851,-6.11623 6.4918,-11.76926 0.011,-0.0209 2.9372,-5.5428 0.022,-0.0432 2.5559,-5.2495 0.021,-0.0452 7.7954,-17.553207 0.018,-0.04214 6.4267,-15.831 0.039,-0.106901 0.3978,-1.2616 0.029,-0.107722 0.021,-0.109698 0.1647,-1.1058 0.014,-0.138616 v -0.139295 l -0.047,-0.9688 -0.017,-0.157913 -0.034,-0.155063 -0.2381,-0.8505 -0.051,-0.15037 -0.068,-0.143678 -0.4077,-0.7511 -0.072,-0.118096 -0.083,-0.110546 -0.556,-0.6704 -0.098,-0.107032 -0.1089,-0.09638 -1.4727,-1.1742 -0.1708,-0.11684 -3.754,-2.1843 -1.8513,-1.245859 -1.7088,-1.590802 -0.799,-0.812734 -0.155,-0.136257 -0.8014,-0.6069 -0.1048,-0.07219 -0.1109,-0.0625 -0.7984,-0.4041 -0.127,-0.05664 -0.1319,-0.04392 -0.8117,-0.2266 -0.1194,-0.02782 -0.1213,-0.0174 -0.1224,-0.0069 -1.7289,-0.022 -0.1445,0.0055 -0.1433,0.02026 -1.9793,0.3838 -0.072,0.01597 -2.3321,0.579897 -2.7804,0.56827 -3.373,0.369086 -4.1907,-0.01952 -12.0812,-0.449742 -0.043,-9.49e-4 -15.3793,-0.104 -0.031,1.25e-4 -7.9667,0.1187 -0.026,6.27e-4 -7.644,0.2543 -0.036,0.0016 -6.941,0.4062 -0.056,0.0043 -5.8576,0.5743 -0.066,0.008 -8.9569,1.3021 -0.075,0.01297 -6.7965,1.3642 -0.106,0.02556 -5.6581,1.5967 -0.096,0.03084 -5.542,1.9995 -0.1805,0.07974 -0.8299,0.438 -0.1171,0.06912 -0.1098,0.08001 -0.1017,0.09017 -0.5733,0.5597 -0.1054,0.114892 -0.092,0.125775 -0.078,0.135136 -0.3397,0.6734 -0.058,0.130731 -0.044,0.135895 -0.03,0.139679 -0.1293,0.7791 -0.017,0.16211 v 0.163036 l 0.058,0.8765 0.012,0.112609 0.021,0.111296 0.2217,0.9661 0.06,0.196237 0.8424,2.1684 0.064,0.141037 2.6296,5.053058 1.3961,2.716685 1.2186,2.781969 1.2367,2.879682 0.034,0.07415 1.4974,2.9973 0.021,0.04117 3.4922,6.452608 3.6979,7.27273 1.7453,3.99468 1.6173,4.34756 0.01,0.0146 1.9108,4.9679 0.031,0.0741 2.5252,5.5964 0.022,0.0461 2.9344,5.9252 0.016,0.0319 3.1385,5.9543 0.018,0.0336 6.0684,10.7965 0.023,0.0388 4.4223,7.3156 m 51.6572,-27.32479 -2.9785,-1.64293 m 11.7559,-14.6835 -3.0583,-1.48905 m 9.4528,-12.55849 -3.1087,-1.38062 m 7.9908,-9.968546 -3.1517,-1.279478 m 1.518,-21.3661 -1.7107,2.940076 m -43.2672,-7.035164 -0.023,3.401487 m -9.2394,-3.424603 0.051,3.401188 m -15.4937,-2.960839 0.1987,3.395756 m -9.4637,-2.701201 0.3319,3.385334 m -26.1663,22.578566 3.1255,-1.342257 m 2.4467,12.471921 2.9916,-1.61903 m 2.4191,12.50199 3.117,-1.36184 m 0.1949,9.88905 3.1748,-1.22113 m 4.7424,18.09621 3.0092,-1.58611 m 1.4463,9.71628 2.9653,-1.66669"
         inkstitch:satin_column="true"
         transform="matrix(10.0353,0,0,10.0353,24834.3,-52.8456)" />
      <path
         id="path5706"
         style="fill:none;stroke:#000000;stroke-width:1px"
         d="m -2520.6109,99.146463 -1.6374,-0.551537 -1.7319,-0.393648 -1.8283,-0.24715 -1.8432,-0.08894 -1.7756,0.07648 -1.6235,0.243898 -1.382,0.401986 -1.108,0.556218 -1.7816,1.31954 -1.1252,1.25486 -0.3061,0.56418 -0.2194,0.64379 -0.2159,1.8864 0.078,1.01156 0.2532,1.07894 0.4177,1.10784 0.5488,1.07129 1.4977,2.08051 1.8295,1.708 2.139,1.63525 0.05,0.0404 2.1708,1.8221 0.1063,0.0989 1.7993,1.8555 0.1329,0.15883 0.6516,0.9055 0.065,0.099 0.057,0.10405 0.4284,0.8722 0.057,0.13332 0.5385,1.45665 0.1768,0.33202 0.3664,-0.47021 0.3245,-0.94519 0.1057,-1.10081 -0.08,-1.03402 -0.1454,-0.51041 -0.2119,-0.2796 -0.5993,-0.58284 -0.091,-0.0977 -0.9739,-1.1447 -0.064,-0.0814 -6.6073,-9.0278 -0.037,-0.053 -0.5081,-0.7651 -0.067,-0.11184 -0.057,-0.11753 -0.2918,-0.6861 -0.043,-0.11538 -0.033,-0.1187 -0.023,-0.12112 -0.087,-0.6133 -0.014,-0.15631 v -0.15684 l 0.021,-0.15545 0.1057,-0.5466 0.04,-0.15665 0.057,-0.15112 0.074,-0.14361 0.287,-0.4862 0.072,-0.11056 0.082,-0.10332 0.092,-0.0952 0.4564,-0.4318 0.097,-0.084 0.1046,-0.0749 0.1108,-0.0651 1.3745,-0.7252 0.133,-0.0616 0.1387,-0.0475 0.885,-0.2531 0.106,-0.0259 0.1077,-0.0177 0.9771,-0.1223 0.1208,-0.01 0.1212,4.6e-4 2.1188,0.0987 0.1202,0.0107 0.1189,0.0209 2.1506,0.474 0.1023,0.0266 0.1001,0.0342 1.9577,0.7508 0.1657,0.0761 1.7087,0.9222 0.097,0.0576 1.5889,1.029 0.07,0.0482 3.0293,2.2299 m -5.2749,-9.546044 -1.7055,-0.5745 -0.1383,-0.03891 -1.8637,-0.4236 -0.1242,-0.02248 -1.9515,-0.2638 -0.1216,-0.01113 -1.9688,-0.095 -0.1293,-3.34e-4 -1.9155,0.0825 -0.1496,0.01441 -1.7919,0.2692 -0.1853,0.04068 -1.5976,0.4647 -0.1221,0.04166 -0.1179,0.0526 -1.333,0.6692 -0.1066,0.05938 -0.101,0.06832 -1.9956,1.478 -0.1108,0.09104 -0.101,0.101754 -1.3323,1.4859 -0.1031,0.129504 -0.087,0.14066 -0.4427,0.8158 -0.053,0.10738 -0.043,0.11142 -0.3073,0.9017 -0.041,0.14625 -0.025,0.14983 -0.2486,2.1727 -0.01,0.1348 v 0.13504 l 0.097,1.2556 0.013,0.10823 0.021,0.10695 0.2993,1.275 0.054,0.17603 0.4784,1.2691 0.065,0.14632 0.6341,1.2377 0.052,0.093 0.059,0.0888 1.6414,2.28019 0.086,0.10848 0.097,0.0995 1.9823,1.8506 0.1064,0.09 2.1687,1.65797 2.0904,1.7546 1.6764,1.72878 0.5216,0.72482 0.344,0.70041 0.5466,1.47837 0.078,0.1744 0.5824,1.09421 0.08,0.132 0.094,0.12257 0.1064,0.11166 0.3308,0.3113 0.097,0.083 0.1036,0.074 0.1098,0.0644 0.1152,0.0543 0.1196,0.0437 0.3762,0.1187 0.1459,0.0376 0.1491,0.0219 0.1505,0.006 0.1503,-0.01 0.1484,-0.0259 0.436,-0.1003 0.1263,-0.0353 0.1224,-0.0467 0.1175,-0.0579 0.1118,-0.0685 0.5099,-0.3459 0.1177,-0.0891 0.1078,-0.10092 0.097,-0.11158 0.8676,-1.1132 0.089,-0.12852 0.075,-0.13756 0.059,-0.14495 0.4558,-1.3276 0.045,-0.16037 0.026,-0.1645 0.1333,-1.3894 0.01,-0.12205 v -0.12214 l -0.1,-1.2985 -0.018,-0.14103 -0.032,-0.13851 -0.2574,-0.9034 -0.042,-0.12455 -0.053,-0.12015 -0.064,-0.1147 -0.074,-0.10827 -0.4372,-0.5769 -0.068,-0.0827 -0.074,-0.0773 -0.6281,-0.61084 -0.8969,-1.05421 -6.5576,-8.95988 -0.4178,-0.6292 -0.1679,-0.3946 -0.028,-0.19393 0.014,-0.0728 0.061,-0.10339 0.1704,-0.16121 1.0726,-0.56594 0.6384,-0.18256 0.7479,-0.0936 1.8765,0.0874 1.9289,0.42514 1.7735,0.68014 1.5786,0.85196 1.5058,0.97518 2.9951,2.20475 m -6.2916,-12.926949 -0.7539,3.316967 m -9.1433,-3.377346 0.9501,3.266198 m -8.8191,4.86358 3.3795,0.38668 m 1.3818,10.66331 2.3213,-2.48645 m 12.7589,7.08627 -3.3915,0.26118 m -1.918,-8.58963 -2.745,2.00897 m 1.7098,-9.36247 0.1582,-3.39788"
         inkstitch:satin_column="true"
         transform="matrix(10.0353,0,0,10.0353,24834.3,-52.8456)" />
      <path
         id="path8905"
         style="fill:none;stroke:#000000;stroke-width:1px"
         d="m -2422.39,170.169 -1.44,-0.535 -3.62,-1.111 -8.87,-2.219 -9.79,-1.943 -9.3,-1.386 -8.23,-0.745 -7.74,-0.231 -7.62,0.257 -7.85,0.722 -17.61,2.304 v 0 l -8.44,1.088 -0.04,0.004 -6.91,0.713 -2.2,0.35 -0.8,0.354 0.34,0.324 1.28,0.643 1.73,0.466 2.31,0.259 5.35,0.355 0.03,0.002 5.56,0.505 5.68,0.397 5.73,0.038 5.28,-0.442 4.81,-0.682 0.02,-0.003 4.97,-0.604 0.08,-0.007 2.73,-0.17 0.07,-0.003 3.01,-0.03 0.05,0.001 6.28,0.174 0.04,0.002 6.15,0.353 0.05,0.004 6.04,0.601 0.07,0.009 5.93,0.916 3.02,0.441 3.16,0.26 6.46,0.115 5.85,-0.225 4.37,-0.318 0.03,-0.002 1.81,-0.096 3.44,-0.412 0.03,-0.007 z m 0.99,-2.656 -1.48,-0.549 -0.08,-0.027 -3.69,-1.135 -0.07,-0.02 -8.95,-2.236 -0.07,-0.015 -9.85,-1.957 -0.07,-0.012 -9.37,-1.396 -0.08,-0.01 -8.31,-0.753 -0.09,-0.006 -7.83,-0.233 h -0.09 l -7.7,0.26 -0.08,0.006 -7.93,0.727 -0.05,0.006 -17.64,2.308 -8.42,1.086 -6.92,0.714 -0.08,0.011 -2.43,0.385 -0.12,0.024 -0.12,0.035 -0.11,0.046 -1.45,0.645 -0.12,0.059 -0.11,0.07 -0.11,0.079 -0.09,0.089 -0.39,0.391 -0.09,0.101 -0.08,0.108 -0.07,0.115 -0.06,0.122 -0.18,0.422 -0.04,0.117 -0.04,0.122 -0.02,0.123 -0.01,0.125 v 0.126 l 0.02,0.441 0.01,0.136 0.03,0.134 0.04,0.131 0.05,0.127 0.2,0.448 0.06,0.121 0.08,0.114 0.08,0.107 0.1,0.098 0.92,0.873 0.1,0.091 0.11,0.079 0.13,0.068 1.52,0.766 0.13,0.056 0.13,0.043 0.02,0.006 2.01,0.56 0.11,0.026 0.11,0.018 2.46,0.274 0.06,0.006 5.36,0.356 5.56,0.505 0.03,0.002 5.73,0.401 0.09,0.003 5.84,0.039 0.13,-0.005 5.39,-0.451 0.08,-0.009 4.83,-0.685 4.91,-0.597 2.65,-0.165 2.94,-0.029 6.23,0.173 6.09,0.35 5.97,0.594 5.9,0.911 0.01,0.002 3.07,0.448 0.09,0.01 3.24,0.267 0.09,0.004 6.55,0.117 0.08,-0.001 5.91,-0.227 0.05,-0.003 4.38,-0.319 1.84,-0.097 0.1,-0.008 3.59,-0.43 0.19,-0.038 1.51,-0.403 0.14,-0.043 0.13,-0.058 0.52,-0.259 0.13,-0.075 0.13,-0.089 0.11,-0.102 0.3,-0.303 0.1,-0.102 0.08,-0.11 0.07,-0.117 0.06,-0.124 0.04,-0.13 0.04,-0.133 0.02,-0.135 0.04,-0.349 v -0.143 -0.144 l -0.02,-0.142 -0.04,-0.14 -0.05,-0.135 -0.06,-0.129 -0.08,-0.122 -0.27,-0.398 -0.07,-0.098 -0.09,-0.092 -0.09,-0.084 -0.09,-0.076 -0.64,-0.45 -0.1,-0.064 -0.1,-0.055 -1.03,-0.503 v 0 -0.001 l -0.01,-0.002 v 0 l -0.12,-0.054 z m -3.08,-1.34 -0.99,3.252 m -6.42,-5.226 -0.82,3.3 m -7.71,-5.188 -0.67,3.336 m -9.01,-5.033 -0.5,3.364 m -8.19,-4.44 -0.31,3.387 m -7.35,-3.899 -0.11,3.4 m -9.74,-3.381 0.11,3.4 m -8.85,-2.765 0.31,3.387 m -7.9,-2.478 0.44,3.373 m -15.47,-1.412 0.44,3.374 m -7.92,-2.457 0.35,3.384 m -6.54,1.57 -0.91,3.277 m 8.91,1.166 0.22,-3.394 m 7.32,4.033 0.24,-3.393 m 7.44,3.767 0.02,-3.402 m 13.16,2.355 -0.47,-3.368 m 7.87,2.57 -0.21,-3.395 m 7.64,3.425 0.09,-3.4 m 11.67,4.139 0.34,-3.385 m 12.56,5.119 0.28,-3.39 m 11.83,3.564 -0.13,-3.399"
         inkstitch:satin_column="true"
         transform="matrix(10.0353,0,0,10.0353,24834.3,-52.8456)" />
      <path
         id="path4871"
         style="fill:none;stroke:#000000;stroke-width:1px"
         d="m -2451.0408,172.33591 -2.2119,5.475 -0.01,0.02 -1.9832,4.7012 -0.059,0.12324 -0.071,0.11696 -0.082,0.10961 -0.092,0.10123 -0.1012,0.0919 -0.1096,0.0817 -0.1169,0.0708 -0.1232,0.0592 -0.1283,0.0471 -0.1323,0.0345 -0.135,0.0216 -0.1364,0.008 -0.1366,-0.005 -0.1355,-0.0178 -8.3375,-1.50966 -4.0706,-0.55414 -4.1428,-0.19362 -4.1746,0.17617 -4.2923,0.37928 -8.1123,0.94621 -0.139,0.009 -0.1392,-0.004 -0.1381,-0.018 -0.1357,-0.0315 -0.1319,-0.0446 -0.127,-0.0574 -0.1206,-0.0696 -0.1133,-0.0811 -0.1048,-0.0918 -0.095,-0.10164 -0.085,-0.1105 -0.074,-0.11829 -0.062,-0.12494 -0.049,-0.13038 -1.3843,-4.3145 -0.02,-0.0672 -1.2309,-4.608 m 40.4123,-1.38148 -2.2079,5.46498 -1.5377,3.64521 -7.2509,-1.31292 -0.061,-0.01 -4.1637,-0.5668 -0.125,-0.0114 -4.2685,-0.1995 -0.126,-2.9e-4 -4.2701,0.1802 -0.065,0.004 -4.3445,0.3839 -0.039,0.004 -6.9743,0.81348 -1.0175,-3.17133 -1.2219,-4.57414 m 34.3493,6.73257 3.1341,1.32212 m -12.4062,-1.41262 -0.4588,3.37048 m -9.551,-3.81574 0.1434,3.39855 m -8.8887,-2.61148 0.394,3.37867 m -5.8837,-8.34463 -3.2863,0.87785"
         inkstitch:satin_column="true"
         transform="matrix(10.0353,0,0,10.0353,24834.3,-52.8456)" />
      <path
         id="path8027"
         style="display:inline;fill:none;stroke:#000000;stroke-width:1px"
         d="m -2503.6973,132.68373 4.0532,-1.165 0.047,-0.0127 4.2686,-1.0683 0.06,-0.0137 8.7952,-1.7978 0.075,-0.0133 8.4922,-1.2641 0.088,-0.0103 7.4125,-0.6321 0.1161,-0.005 6.1723,-0.0187 0.1006,0.003 5.3648,0.3654 0.066,0.006 8.76,1.0107 0.015,0.002 3.0559,0.3865 0.088,0.0139 2.9564,0.5637 0.1013,0.0232 2.8874,0.7736 0.1096,0.0342 2.8487,1.0168 m -65.1521,4.52631 4.0296,-1.15822 4.2148,-1.05483 8.7275,-1.78397 8.4105,-1.25193 7.3103,-0.62338 6.0637,-0.0184 5.2814,0.35972 8.7194,1.006 3.0041,0.37996 2.8617,0.54565 2.7817,0.74526 2.7946,0.99748 m -63.4858,1.94649 -0.9396,-3.2692 m 11.7095,0.59355 -0.6813,-3.33266 m 9.6897,1.68408 -0.5008,-3.3645 m 8.919,2.33359 -0.289,-3.38926 m 13.2259,3.25845 0.2311,-3.39371 m 10.2039,4.49533 0.3898,-3.37915 m 7.168,4.69369 0.8804,-3.28568"
         inkstitch:satin_column="true"
         transform="matrix(10.0353,0,0,10.0353,24834.3,-52.8456)" />
    </g>
  </g>
</g>
<metadata
   id="metadata25">
  <rdf:RDF>
    <cc:Work
       rdf:about="">
      <dc:title>weinglas-wein.pdf</dc:title>
    </cc:Work>
  </rdf:RDF>
  <inkstitch:min_stitch_len_mm>0.1</inkstitch:min_stitch_len_mm>
  <inkstitch:collapse_len_mm>3</inkstitch:collapse_len_mm>
  <inkstitch:inkstitch_svg_version>2</inkstitch:inkstitch_svg_version>
</metadata>
</svg>
