<?xml version="1.0" encoding="UTF-8" standalone="no"?>
<svg
   width="100mm"
   height="100mm"
   viewBox="-354 0 100 100"
   version="1.2"
   id="svg27"
   sodipodi:docname="Strauss.svg"
   inkscape:export-filename="ostrisch_pdf - page 1.png"
   inkscape:export-xdpi="508"
   inkscape:export-ydpi="508"
   xml:space="preserve"
   inkscape:version="1.3.2 (091e20e, 2023-11-25)"
   xmlns:inkscape="http://www.inkscape.org/namespaces/inkscape"
   xmlns:sodipodi="http://sodipodi.sourceforge.net/DTD/sodipodi-0.dtd"
   xmlns="http://www.w3.org/2000/svg"
   xmlns:svg="http://www.w3.org/2000/svg"
   xmlns:rdf="http://www.w3.org/1999/02/22-rdf-syntax-ns#"
   xmlns:cc="http://creativecommons.org/ns#"
   xmlns:dc="http://purl.org/dc/elements/1.1/"
   xmlns:inkstitch="http://inkstitch.org/namespace"><sodipodi:namedview
   id="namedview27"
   pagecolor="#ffffff"
   bordercolor="#000000"
   borderopacity="0.25"
   inkscape:showpageshadow="2"
   inkscape:pageopacity="0.0"
   inkscape:pagecheckerboard="0"
   inkscape:deskcolor="#d1d1d1"
   inkscape:document-units="mm"
   inkscape:zoom="2.6624539"
   inkscape:cx="129.39191"
   inkscape:cy="196.99871"
   inkscape:window-width="1680"
   inkscape:window-height="924"
   inkscape:window-x="0"
   inkscape:window-y="25"
   inkscape:window-maximized="0"
   inkscape:current-layer="svg27" /><defs
   id="defs27"><symbol
   id="inkstitch_ignore_layer">
      <title
   id="title9694">Ignore entire layer when generating stitch plan</title>
      <path
   inkscape:connector-curvature="0"
   style="opacity:1;vector-effect:none;fill:#fafafa;fill-opacity:1;fill-rule:evenodd;stroke:#ff0000;stroke-width:1.06501234;stroke-linecap:round;stroke-linejoin:miter;stroke-miterlimit:4;stroke-dasharray:3.19503705, 3.19503705;stroke-dashoffset:0;stroke-opacity:1"
   d="M 9.2465269,-4.9265995e-6 C 9.246525,5.1067241 5.1067028,9.2465451 -2.615882e-5,9.2465451 -5.1067554,9.2465451 -9.2465782,5.1067241 -9.2465801,-4.9265995e-6 -9.24658,-2.4523429 -8.2723922,-4.8042399 -6.538327,-6.5383059 c 1.7340653,-1.734065 4.0859624,-2.708252 6.53830084118,-2.708252 5.10673015882,0 9.24655285882,4.139823 9.24655305882,9.2465529734005 0,0 0,0 0,0"
   id="inkstitch_path25368-7" />
      <path
   sodipodi:nodetypes="ccccc"
   inkscape:connector-curvature="0"
   style="color:#000000;fill:#d5d5d5;fill-opacity:1;fill-rule:evenodd;stroke:#5a5a5a;stroke-width:0.63330007;stroke-linecap:square;stroke-linejoin:round;stroke-miterlimit:0;stroke-opacity:1"
   d="M 4,4.452769 1.46667,1.286102 H -5.5 l 2.53333,3.166667 z"
   id="use5800" />
      <path
   sodipodi:nodetypes="ccccc"
   inkscape:connector-curvature="0"
   style="color:#000000;opacity:0.5;fill:#d5d5d5;fill-opacity:1;fill-rule:evenodd;stroke:#858585;stroke-width:0.63339424;stroke-linecap:square;stroke-linejoin:round;stroke-miterlimit:0;stroke-opacity:1"
   d="M 4,2.552769 1.46667,-0.613898 H -5.5 l 2.53333,3.166667 z"
   id="use5864" />
      <g
   id="g5771">
        <path
   sodipodi:nodetypes="ccccccccc"
   inkscape:connector-curvature="0"
   style="fill:#aa0000;fill-rule:evenodd;stroke:#aa0000;stroke-width:1px"
   d="m -1.0666699,-5.0472339 h 4.4333333 l 0.6333333,0.6333333 V 0.01943274 L 3.3666634,0.65276607 H -1.0666699 L -1.7000032,0.01943274 V -4.4139006 Z"
   id="path8011" />
        <path
   inkscape:connector-curvature="0"
   id="path8023"
   d="m -0.43333658,-3.8755672 c 0,0 3.16666668,3.16666661 3.16666668,3.16666661"
   style="fill:none;stroke:#ffffff;stroke-width:1.70000005" />
        <path
   inkscape:connector-curvature="0"
   id="path8025"
   d="m 2.7333301,-3.8755672 c 0,0 -3.16666668,3.16666661 -3.16666668,3.16666661"
   style="fill:none;stroke:#ffffff;stroke-width:1.79999995;stroke-linejoin:round" />
      </g>
    </symbol>
    </defs><title
   id="title1">ostrisch.pdf</title>\n<metadata
   id="metadata27"><rdf:RDF><cc:Work
       rdf:about=""><dc:title>ostrisch.pdf</dc:title></cc:Work></rdf:RDF><inkstitch:min_stitch_len_mm>0</inkstitch:min_stitch_len_mm><inkstitch:collapse_len_mm>3</inkstitch:collapse_len_mm><inkstitch:inkstitch_svg_version>1</inkstitch:inkstitch_svg_version></metadata><g
   id="g35"><path
     d="m -315.8752,37.642664 -0.34984,0.248046 c -0.1925,0.136228 -0.55399,0.449922 -0.80357,0.697116 -0.24957,0.247193 -0.49747,0.472691 -0.55087,0.501261 -0.0685,0.03664 -0.25905,0.03154 -0.64648,-0.01705 -0.30205,-0.03788 -0.73331,-0.06939 -0.95859,-0.07028 l -0.4098,-0.0016 0.12144,0.212391 c 0.139,0.243256 0.15795,0.495242 0.0455,0.607714 -0.0425,0.04249 -0.17168,0.100612 -0.28732,0.129192 -1.34176,0.331572 -1.95009,0.636891 -2.65617,1.333768 l -0.34572,0.341581 0.19172,0.03101 c 0.10549,0.01715 0.22178,0.07188 0.25838,0.121957 0.13091,0.179034 0.0783,0.337986 -0.22531,0.680062 -1.17267,1.321058 -1.81084,2.719395 -1.99884,4.379577 -0.0477,0.421477 -0.0269,0.437026 0.2868,0.209806 0.25633,-0.185684 0.47348,-0.184969 0.6103,0.0026 0.0818,0.112058 0.0853,0.164056 0.0367,0.500228 -0.13765,0.952071 0.13872,2.151434 0.71986,3.124874 0.20095,0.336541 0.21014,0.344305 0.23564,0.205155 0.0348,-0.19018 0.25219,-0.353235 0.416,-0.312125 0.0756,0.01898 0.30511,0.248506 0.59221,0.592728 0.87405,1.047955 1.75958,1.851907 2.51767,2.285649 0.3592,0.20552 1.02466,0.461318 1.35083,0.519348 l 0.15037,0.02687 -5.1e-4,-0.305924 c -3.1e-4,-0.281646 0.0106,-0.312726 0.13642,-0.383956 0.16434,-0.09304 0.20585,-0.0796 1.26349,0.41031 0.84895,0.393242 1.54914,0.659189 2.14974,0.816488 0.2475,0.06482 0.54009,0.112654 0.65009,0.106454 l 0.19999,-0.01085 -0.015,-0.331763 c -0.0141,-0.30908 -0.006,-0.33923 0.11886,-0.4377 0.12848,-0.101014 0.18865,-0.105778 1.36529,-0.106453 2.53968,-0.0015 3.98952,-0.168718 4.34702,-0.501778 0.1009,-0.09401 0.1108,-0.138073 0.0832,-0.364836 -0.0487,-0.39986 -0.0307,-0.41062 1.05575,-0.656807 2.0665,-0.468279 3.16934,-0.840535 3.88297,-1.311031 0.53516,-0.352829 0.73908,-0.741349 0.81338,-1.548743 0.022,-0.239369 0.0606,-0.383021 0.11576,-0.430981 0.0455,-0.03957 0.44263,-0.211764 0.88263,-0.382923 1.58112,-0.615053 2.60448,-1.078758 3.175,-1.438672 0.35105,-0.221457 0.65009,-0.508199 0.65009,-0.623217 0,-0.113702 -0.31782,-0.345307 -0.67024,-0.488343 -0.24695,-0.100229 -0.3087,-0.160622 -0.66301,-0.643888 -0.43255,-0.589993 -1.27762,-1.490569 -1.88929,-2.013831 l -0.39739,-0.340031 -0.20257,0.165882 c -0.77735,0.635977 -2.05347,1.11619 -3.4153,1.285709 -0.28194,0.0351 -0.49561,0.07945 -0.47491,0.09819 0.0207,0.01874 0.11931,0.06012 0.21911,0.09198 0.3382,0.10794 0.46033,0.392194 0.26252,0.611332 -0.12438,0.137791 -0.65268,0.399423 -1.12448,0.557072 -0.7051,0.235607 -1.4176,0.35922 -2.73523,0.474389 l -0.41548,0.03617 0.22686,0.30024 c 0.25143,0.332621 0.28664,0.51744 0.12919,0.674894 -0.055,0.055 -0.11686,0.10112 -0.13746,0.10232 -0.0206,0.0012 -0.269,0.021 -0.55191,0.04444 -0.57805,0.04789 -1.40809,-0.004 -1.99419,-0.125057 -1.59852,-0.330182 -3.23445,-1.262367 -4.62866,-2.637565 -0.3687,-0.36365 -0.4377,-0.457067 -0.4377,-0.591695 0,-0.205234 0.12577,-0.342615 0.31368,-0.342615 0.11743,0 0.23976,0.08707 0.58704,0.417546 1.69626,1.614211 3.29584,2.418111 5.12941,2.578654 0.53528,0.04687 0.76998,0.03321 0.76998,-0.04496 0,-0.04399 -0.36609,-0.419944 -0.5917,-0.607714 -0.19125,-0.15917 -0.20123,-0.304685 -0.0326,-0.473357 0.12012,-0.120129 0.14151,-0.123936 0.48731,-0.08527 1.07763,0.120507 2.72423,-0.05732 3.71192,-0.400492 l 0.19999,-0.06925 -0.22479,-0.114205 c -0.28887,-0.146717 -0.65723,-0.392947 -0.73743,-0.492477 -0.0916,-0.113678 -0.0762,-0.344478 0.03,-0.450618 0.0741,-0.07409 0.2054,-0.09952 0.66249,-0.127124 1.92304,-0.1161 3.29058,-0.483805 4.16202,-1.119312 l 0.24184,-0.176216 -0.46715,-0.301274 c -0.25688,-0.165633 -0.74818,-0.446966 -1.09192,-0.624768 -0.34375,-0.177803 -0.6529,-0.357853 -0.6873,-0.400492 -0.17779,-0.220536 0.0371,-0.557539 0.35657,-0.559139 0.35692,-0.0018 0.29721,-0.07973 -0.35295,-0.461471 -0.80533,-0.472848 -1.4889,-0.814419 -2.18127,-1.089339 -0.56331,-0.22366 -0.66351,-0.310673 -0.62011,-0.537435 l 0.0243,-0.127124 -2.05723,0.03359 c -1.13141,0.01853 -2.64944,0.05572 -3.37344,0.08268 -0.91673,0.03415 -1.3463,0.0331 -1.4149,-0.0036 -0.15273,-0.08175 -0.20836,-0.281657 -0.12506,-0.448552 0.0462,-0.09267 0.0508,-0.134423 0.0134,-0.122473 -0.0312,0.01 -0.29313,0.0775 -0.58188,0.149862 -0.28875,0.07236 -0.86599,0.243037 -1.28261,0.379305 -0.65042,0.212748 -0.77541,0.239442 -0.8847,0.189652 -0.17352,-0.07906 -0.19878,-0.150942 -0.23048,-0.660425 z"
     style="fill:#817f7f;fill-opacity:1"
     id="path53"
     inkstitch:row_spacing_mm="0.3" /><path
     d="m -314.8613,21.105688 c -0.32399,-0.01163 -0.65845,0.01783 -0.96377,0.09043 -1.35961,0.323292 -2.48169,1.308686 -2.73368,2.400371 -0.0772,0.334608 0.002,0.594274 0.26975,0.8847 0.29156,0.316303 0.56408,0.502904 1.41387,0.968933 1.24423,0.682365 1.4455,0.858888 1.32136,1.158586 -0.0579,0.139846 -0.2381,0.22909 -0.39636,0.19637 -0.0412,-0.0085 -0.32473,9e-5 -0.62993,0.01912 l -0.55501,0.03462 0.0693,0.283187 c 0.0378,0.155672 0.0823,0.565706 0.0992,0.911055 0.0662,1.350566 -0.31917,2.610566 -1.22215,3.997172 -0.18796,0.288619 -0.79103,1.087069 -1.34049,1.774569 -1.17837,1.474418 -1.4142,1.792239 -1.79937,2.425175 -0.74745,1.228254 -1.16184,2.477673 -1.25264,3.774963 l -0.0351,0.499711 0.17364,-0.132808 c 0.53822,-0.410521 1.06802,-0.684699 1.71772,-0.889352 0.1925,-0.06064 0.38066,-0.119865 0.41806,-0.131775 0.048,-0.01526 0.0122,-0.08973 -0.12092,-0.252181 -0.31603,-0.385673 -0.23009,-0.665558 0.23513,-0.765327 0.32397,-0.0695 1.27657,-0.06807 1.87999,0.0031 l 0.47904,0.05684 0.40928,-0.419096 0.40979,-0.419096 0.0326,-0.363802 c 0.10375,-1.149651 0.59557,-2.701829 1.23765,-3.905704 0.44513,-0.834579 0.79821,-1.333888 1.76991,-2.505274 1.16974,-1.410132 1.71064,-2.197306 2.18075,-3.173966 0.72233,-1.50066 0.8129,-2.766908 0.28939,-4.036446 -0.42218,-1.023784 -1.40692,-1.957087 -2.45515,-2.326473 -0.26402,-0.09304 -0.57777,-0.145981 -0.90175,-0.157614 z m 0.51056,2.719731 c 0.32867,0.03683 0.61454,0.225009 0.73277,0.507979 0.17563,0.420345 -0.018,1.01633 -0.40359,1.242302 -0.13033,0.07637 -0.28931,0.12454 -0.41238,0.12454 -0.64162,0 -1.13096,-0.753291 -0.89349,-1.37511 0.10382,-0.271868 0.28846,-0.412418 0.63821,-0.484208 0.11457,-0.02352 0.22892,-0.02778 0.33848,-0.0155 z"
     style="display:inline;fill:#f3c70e"
     id="path48"
     inkstitch:row_spacing_mm="0.3" /><path
     d="m -311.1251,54.449906 c -0.40106,0 -0.62477,0.01868 -0.62477,0.05219 0,0.02872 0.0773,0.462079 0.17209,0.962732 0.0948,0.500653 0.25085,1.46152 0.34675,2.13527 0.46789,3.28794 0.50842,4.468535 0.23409,6.800101 -0.089,0.75625 -0.18934,1.819207 -0.22324,2.36213 -0.061,0.976932 -0.0632,0.988785 -0.20826,1.167888 -0.29211,0.360752 -0.85746,0.636755 -2.52181,1.231966 -0.53625,0.191774 -1.0536,0.390336 -1.1498,0.441316 l -0.17467,0.09302 0.2248,-0.02429 c 1.55496,-0.167935 5.27075,-0.52151 5.48545,-0.521932 0.10878,-2.14e-4 0.10806,-0.0037 -0.0367,-0.237711 -0.41082,-0.664125 -0.48082,-1.440633 -0.29817,-3.31246 0.133,-1.363495 0.1929,-4.304568 0.1049,-5.172294 -0.0305,-0.300815 -0.14458,-1.099134 -0.25321,-1.774569 -0.24179,-1.50337 -0.44566,-3.372883 -0.45166,-4.140832 -3.6e-4,-0.04664 -0.1594,-0.06253 -0.6258,-0.06253 z"
     style="fill:#f3c70e"
     id="path54"
     inkstitch:row_spacing_mm="0.3" /><path
     d="m -312.42063,54.774951 c -0.01,-0.0275 -0.0408,0.0084 -0.0692,0.07958 -0.10967,0.274825 -0.50794,0.494391 -0.89762,0.49506 -0.0893,1.5e-4 -0.16211,0.01709 -0.16175,0.03772 3.5e-4,0.02062 0.0465,0.184019 0.10284,0.362768 0.29255,0.928465 0.47948,2.180509 0.67076,4.49585 0.1828,2.212495 0.1656,4.110037 -0.0522,5.829102 -0.11781,0.929802 -0.66367,1.93814 -0.84404,2.143564 l 1.62798,-0.652187 c 0.0602,-0.06991 0.0919,-0.305059 0.13487,-0.99167 0.031,-0.495 0.12851,-1.507493 0.21601,-2.249992 0.26315,-2.233037 0.22518,-3.397545 -0.21188,-6.499862 -0.12956,-0.919715 -0.46633,-2.910237 -0.51573,-3.049943 z"
     style="fill:#f3c70e"
     id="path55"
     inkstitch:row_spacing_mm="0.3"
     sodipodi:nodetypes="ccssccscccsscc" /><path
     d="m -318.89207,24.977287 c -0.0234,0.02624 -0.20372,0.267113 -0.40049,0.535368 -0.19678,0.268254 -0.50798,0.633733 -0.69195,0.812353 -0.18397,0.17862 -0.32474,0.32471 -0.31264,0.324528 0.0121,-1.82e-4 0.33182,-0.07856 0.71055,-0.174149 0.62617,-0.15804 1.82089,-0.325562 2.32183,-0.325562 0.18131,0 0.17,-0.01052 -0.31626,-0.291455 -0.63616,-0.367534 -0.79267,-0.475203 -1.05627,-0.726571 -0.12836,-0.122392 -0.22907,-0.183352 -0.25477,-0.154512 z"
     style="fill:#ff9902;fill-opacity:1"
     id="path51"
     inkstitch:row_spacing_mm="0.3" /></g><path
   id="path3"
   style="display:inline;fill:#000000;fill-opacity:1;stroke:none;stroke-width:0.7;stroke-dasharray:none;stroke-opacity:1"
   d="M -314.51818 23.819735 C -314.57479 23.822205 -314.63195 23.829162 -314.68923 23.840922 C -315.03898 23.912712 -315.22362 24.053262 -315.32744 24.32513 C -315.56491 24.946949 -315.07557 25.70024 -314.43395 25.70024 C -314.31088 25.70024 -314.1519 25.65207 -314.02157 25.5757 C -313.63598 25.349728 -313.44235 24.753743 -313.61798 24.333398 C -313.73621 24.050429 -314.02208 23.862249 -314.35075 23.825419 C -314.40553 23.819279 -314.46158 23.817265 -314.51818 23.819735 z "
   transform="translate(1.16667e-05, 0)"
   inkstitch:row_spacing_mm="0.3"
   inkstitch:fill_method="circular_fill"
   inkstitch:contour_strategy="1"
   inkstitch:expand_mm="0.1" /><g
   id="g27"
   style="display:inline"><path
     id="path2"
     style="fill:none;stroke:#000000;stroke-width:1px"
     transform="matrix(0.264583 0 0 0.264583 -93.6625 0)"
     d="m -852.50436,91.44506 -1.58617,2.333086 -1.43068,1.938235 -1.36211,1.594044 -2.21102,1.938149 -2.66519,2.019746 -3.19198,2.22961 -0.10276,0.0796 -0.0945,0.0893 -0.0852,0.0981 -0.0752,0.106 -0.0644,0.11286 -0.053,0.11864 -0.0412,0.12327 -0.0289,0.12672 -0.0163,0.12894 -0.004,0.12991 0.009,0.12963 0.0219,0.12811 0.0343,0.12534 0.0465,0.12137 0.0582,0.11621 0.0693,0.10995 0.0797,0.10262 0.0894,0.0943 0.0983,0.0851 0.10613,0.075 0.11297,0.0642 0.11874,0.0528 0.12334,0.0409 0.12677,0.0286 0.12896,0.0161 0.12992,0.003 0.12962,-0.009 0.12807,-0.0221 0.12528,-0.0346 4.87948,-1.60826 4.26309,-1.26416 3.85001,-0.91393 2.99482,-0.36621 3.39849,-0.22615 3.94332,-0.14348 m -9.86574,-8.38402 -1.6006,2.3543 -0.0297,0.04185 -1.4739,1.9968 -0.0586,0.07376 -1.4547,1.7024 -0.13369,0.135397 -1.89179,1.658313 1.60492,-0.47592 0.0705,-0.0188 3.9573,-0.939394 0.14497,-0.02599 3.1043,-0.3796 0.0727,-0.0069 3.4548,-0.2299 0.0397,-0.002 3.9632,-0.1442 m -12.97975,-6.900316 3.28187,2.231221 m -7.2754,2.819303 2.61596,2.984258 m 6.21004,2.655688 -0.48169,-3.939164 m -4.41293,4.779174 -0.33987,-3.726432"
     inkstitch:satin_column="true"
     sodipodi:nodetypes="ccccccccccccccccccccccccccccccccccccccccccccccccccccccccccccccccccc"
     inkstitch:satin_method="satin_column"
     inkstitch:center_walk_underlay="False"
     inkstitch:contour_underlay="True"
     inkstitch:pull_compensation_percent="15" /><path
     id="path1"
     style="fill:none;stroke:#000000;stroke-width:1px"
     transform="matrix(0.264583 0 0 0.264583 -93.6625 0)"
     d="m -839.05386,98.99225 -1.5262,-1.0862 -0.1094,-0.07003 -1.8043,-1.0338 -0.0185,-0.0104 -3.79234,-2.092826 -1.60721,-1.100709 -1.26585,-1.200962 -0.41667,-0.572354 -0.31231,-0.613635 -0.19022,-0.641744 -0.0586,-0.627456 0.25525,-1.216712 0.46792,-1.261031 0.64819,-1.205207 0.81518,-1.139845 0.96682,-1.063013 1.10105,-0.973915 1.21652,-0.872395 1.31197,-0.759197 1.38666,-0.634899 1.44023,-0.50045 1.47222,-0.356639 1.48263,-0.204476 1.47208,-0.04513 1.44121,0.120341 1.39164,0.291303 1.31822,0.46482 2.64982,1.42392 2.25057,1.769232 1.85091,2.068017 1.43955,2.317204 1.01397,2.516994 0.57264,2.66691 0.11432,2.767023 -0.36246,2.82057 -0.96254,3.218451 -1.41577,3.14447 -1.7386,3.01428 -1.91677,2.81471 -3.85392,4.87939 -2.86465,3.44016 -0.0653,0.0852 -2.3588,3.3518 -0.054,0.0832 -1.3386,2.242 -0.0415,0.0749 -1.3373,2.6101 -0.0412,0.0882 -1.2557,2.971 -0.0382,0.10176 -1.0934,3.325 -0.0321,0.11466 -0.8507,3.6718 -0.0228,0.12615 -0.5274,4.0118 m 3.65961,-41.15683 -1.47322,-1.0485 -1.73868,-0.996196 -3.83881,-2.118475 -0.10831,-0.06676 -1.7465,-1.1961 -0.0841,-0.06265 -0.0789,-0.06911 -1.4299,-1.3566 -0.0836,-0.08693 -0.0754,-0.09418 -0.5497,-0.7551 -0.0583,-0.0871 -0.0512,-0.09143 -0.4149,-0.8152 -0.0498,-0.110004 -0.0396,-0.114087 -0.2614,-0.8819 -0.0306,-0.125214 -0.0182,-0.127595 -0.0893,-0.9553 -0.006,-0.132102 0.007,-0.132011 0.0207,-0.130604 0.3165,-1.5087 0.0237,-0.09531 0.0307,-0.09329 0.534,-1.4391 0.0752,-0.166387 0.7315,-1.3601 0.089,-0.142922 0.9094,-1.2716 0.0974,-0.120553 1.0674,-1.1736 0.10218,-0.100782 1.2055,-1.0663 0.10553,-0.08415 1.3239,-0.9494 0.10835,-0.06996 1.4224,-0.8231 0.11185,-0.0578 1.5011,-0.6873 0.11651,-0.04679 1.5601,-0.5421 0.12275,-0.0361 1.5992,-0.3874 0.13071,-0.02478 1.6184,-0.2232 0.14019,-0.01178 1.6179,-0.0496 0.15061,0.004 1.5976,0.1334 0.16096,0.02347 1.5574,0.326 0.16887,0.04722 1.4974,0.528 0.0947,0.03756 0.0915,0.04474 2.8409,1.5266 0.0984,0.0585 0.093,0.06679 2.4318,1.9117 0.0875,0.0752 0.0806,0.08255 2.0051,2.2403 0.073,0.08907 0.065,0.09508 1.561,2.5127 0.0561,0.09964 0.0473,0.104116 1.0993,2.7288 0.0378,0.106874 0.0285,0.109718 0.6202,2.8884 0.0189,0.11095 0.009,0.112157 0.1236,2.9918 -1.1e-4,0.111809 -0.01,0.111399 -0.3905,3.0388 -0.0181,0.106123 -0.0266,0.104304 -1.0186,3.405902 -0.0612,0.16406 -1.479,3.2849 -0.0603,0.11784 -1.7964,3.1145 -0.0525,0.0837 -1.9709,2.8942 -0.0553,0.0753 -3.8935,4.9295 -0.0216,0.0266 -2.84124,3.41204 -2.29934,3.26731 -1.2912,2.16261 -1.29555,2.52861 -1.21556,2.87605 -1.0578,3.21673 -0.82276,3.55122 -0.51904,3.94817 m -1.14366,-46.754247 -1.91744,3.474539 m -2.37402,-14.26723 -2.93584,-2.670177 m 8.7813,-1.184375 -1.30257,-3.748644 m 10.88901,4.019991 1.87849,-3.495753 m 4.90795,9.68064 3.37096,-2.094191 m -1.29233,9.907442 3.96512,-0.163811 m -5.93568,8.148266 3.61864,1.62926 m -7.4981,5.02765 3.28016,2.23374 m -11.78006,8.62861 3.24541,2.28393 m -7.44622,5.07482 3.65542,1.54497 m -6.29639,6.42062 3.8661,0.89571 m -9.30687,-46.43836 -3.9739,0.992619"
     inkstitch:satin_column="true"
     sodipodi:nodetypes="cccccccccccccccccccccccccccccccccccccccccccccccccccccccccccccccccccccccccccccccccccccccccccccccccccccccccccccccccccccccccccccccccccccccccccccccccccccccccccccccccccccccccccccccccccc"
     inkstitch:satin_method="satin_column"
     inkstitch:center_walk_underlay="False"
     inkstitch:contour_underlay="True"
     inkstitch:pull_compensation_percent="15" /><path
     id="path4"
     style="fill:none;stroke:#000000;stroke-width:1px"
     transform="matrix(0.264583 0 0 0.264583 -93.6625 0)"
     d="m -847.64541,100.65351 0.62351,2.19538 0.34992,2.05103 0.12138,1.97635 -0.0827,1.90421 -0.2639,1.83392 -0.41726,1.73976 -1.24564,3.34111 -1.60284,3.00635 -1.77949,2.66841 -3.35181,4.27722 -4.3066,5.39012 -0.0448,0.0594 -2.1871,3.0772 -0.0581,0.0891 -2.0267,3.4002 -0.0663,0.12618 -1.7303,3.7757 -0.0468,0.11648 -0.7114,2.045 -0.0272,0.0879 -0.5863,2.1584 -0.0218,0.0937 -0.4441,2.2786 -0.0153,0.0975 -0.2849,2.4051 -0.008,0.0991 -0.1086,2.5383 -5.5e-4,0.0983 0.0845,2.6781 m 22.78409,-56.330726 0.643,2.263996 0.0315,0.13894 0.3739,2.1916 0.0164,0.14138 0.13,2.1167 10e-4,0.13851 -0.0886,2.0393 -0.0122,0.13099 -0.282,1.9597 -0.023,0.12011 -0.4503,1.8775 -0.0469,0.15359 -1.3045,3.499 -0.0722,0.16024 -1.6749,3.1415 -0.0667,0.11158 -1.8437,2.7647 -0.0593,0.082 -3.3869,4.322 -0.008,0.01 -4.28728,5.36594 -2.13473,3.00352 -1.96292,3.2932 -1.67439,3.65369 -0.67564,1.94219 -0.56162,2.06754 -0.42545,2.18291 -0.27324,2.30671 -0.10437,2.43949 0.0829,2.62896 m 17.67906,-52.55651 3.91198,-0.66741 m -3.97645,7.86099 3.85906,0.92556 m -7.86868,7.97647 3.30168,2.2018 m -10.00635,6.48055 3.10043,2.47718 m -8.26651,4.80423 3.40889,2.03188 m -7.31738,6.9467 3.82973,1.04029"
     inkstitch:satin_column="true"
     inkstitch:satin_method="satin_column"
     inkstitch:center_walk_underlay="False"
     inkstitch:contour_underlay="True"
     inkstitch:pull_compensation_percent="15" /><path
     id="path5"
     style="fill:none;stroke:#000000;stroke-width:1px"
     transform="matrix(0.264583 0 0 0.264583 -93.6625 0)"
     d="m -868.56549,159.97351 0.59538,0.0109 -0.0433,0.0526 -1.7,2.2447 -0.0679,0.0987 -1.4917,2.3922 -0.0629,0.1128 -1.2698,2.5636 -0.0533,0.12275 -1.0344,2.7589 -0.0405,0.12712 -0.7853,2.9782 -0.0266,0.12541 -0.5227,3.2214 -0.0138,0.11863 -0.2465,3.4885 -0.003,0.13107 0.0102,0.1307 0.0231,0.12904 0.0358,0.12612 0.0481,0.12196 0.0599,0.1166 0.0712,0.1101 0.0817,0.10251 0.0915,0.0939 0.10032,0.0844 0.10818,0.0741 0.11497,0.063 0.12065,0.0513 0.12513,0.0391 0.12839,0.0265 0.13038,0.0137 0.1311,7.2e-4 0.13052,-0.0123 0.12867,-0.0251 0.12555,-0.0377 1.836,-0.6527 0.0986,-0.0423 -0.0435,0.45079 -0.006,0.11141 0.003,0.11151 0.2108,2.9022 0.011,0.0992 0.0184,0.0981 0.6094,2.6818 0.0488,0.16464 0.8971,2.4323 0.0573,0.13262 1.0742,2.1539 0.0583,0.10471 1.1403,1.8464 0.0758,0.10993 2.0357,2.6544 0.0848,0.0999 0.0943,0.091 0.10283,0.0813 0.11038,0.0707 0.11683,0.0594 0.12213,0.0476 0.12625,0.0352 0.12911,0.0226 0.13071,0.01 0.13103,-0.003 0.13006,-0.0163 0.12782,-0.029 0.12431,-0.0415 0.11959,-0.0536 0.1137,-0.0652 0.10669,-0.0761 0.0986,-0.0863 0.0896,-0.0957 0.0797,-0.10406 0.069,-0.11144 0.0576,-0.11772 0.0457,-0.12284 0.0333,-0.12677 0.0206,-0.12944 0.0861,-0.7911 1.17915,1.40309 0.0547,0.0611 2.1348,2.2422 0.0711,0.0693 2.4566,2.2199 0.10717,0.0871 2.7453,2.0032 0.15979,0.1 3.001,1.5921 0.16481,0.0735 1.5861,0.5812 0.13717,0.042 1.6375,0.4055 0.15783,0.0291 1.685,0.2055 0.17438,0.01 1.7282,-0.0186 0.13173,-0.008 0.13029,-0.0211 0.12753,-0.034 0.12352,-0.0465 0.11826,-0.0586 0.11184,-0.0701 0.1043,-0.0809 0.0957,-0.0909 0.0862,-0.0999 0.0758,-0.10804 0.0647,-0.11506 0.0529,-0.12092 0.0406,-0.1256 0.0278,-0.12901 0.0148,-0.13114 0.002,-0.13197 -0.0114,-0.13148 -0.004,-0.0204 2.83795,1.29974 0.0686,0.0291 3.1019,1.2143 0.0896,0.0314 2.8678,0.8913 0.17216,0.0411 2.4099,0.4073 0.12921,0.0153 0.13008,0.003 0.9634,-0.0283 0.15692,-0.014 0.15415,-0.0326 0.7649,-0.2098 0.12082,-0.0395 0.11648,-0.0509 0.11106,-0.0618 0.10461,-0.0722 0.5387,-0.4114 0.10025,-0.0848 0.0913,-0.0943 0.0816,-0.10286 0.071,-0.11044 0.0597,-0.11693 0.2844,-0.6331 0.0502,-0.12943 0.0363,-0.13397 0.0221,-0.13704 0.008,-0.1386 0.002,-0.71315 6.55674,-0.0847 0.0221,-4.7e-4 4.0512,-0.1201 0.0631,-0.003 3.7019,-0.2872 0.12649,-0.016 3.1074,-0.5457 0.17176,-0.0422 1.2542,-0.3985 0.0925,-0.0332 0.0897,-0.04 1.0138,-0.4975 0.1323,-0.0746 0.12287,-0.0893 0.7426,-0.6079 0.11085,-0.10181 0.0986,-0.11374 0.085,-0.1242 0.4408,-0.7299 0.0652,-0.12192 0.0521,-0.12806 0.0385,-0.1328 0.0244,-0.13609 0.1085,-0.8632 0.01,-0.12274 -7.7e-4,-0.0525 5.42578,-1.23534 0.0646,-0.0164 5.1683,-1.4542 0.1072,-0.0352 3.8313,-1.4403 0.17287,-0.0796 2.6969,-1.4859 0.093,-0.0564 0.0881,-0.0638 0.9865,-0.7785 0.13516,-0.1227 0.779,-0.8121 0.0677,-0.0763 0.0616,-0.0812 0.5968,-0.8532 0.0559,-0.087 0.049,-0.0911 0.44,-0.9017 0.0523,-0.12239 0.0397,-0.12702 0.5108,-1.9783 m -85.34854,-31.14032 3.477,0.0636 0.13087,0.009 0.12934,0.0218 0.12654,0.0345 0.12251,0.0469 0.11726,0.0588 0.11086,0.0701 0.10337,0.0807 0.0949,0.0906 0.0854,0.0995 0.0752,0.1075 0.0641,0.11442 0.0525,0.1202 0.0403,0.12482 0.0278,0.12819 0.0149,0.13031 0.002,0.13116 -0.011,0.1307 -0.0239,0.12897 -0.0366,0.12596 -0.0489,0.12172 -0.0607,0.11628 -0.0719,0.1097 -0.0824,0.10204 -1.85896,2.0813 -1.63149,2.15424 -1.42576,2.28644 -1.21137,2.44564 -0.98744,2.63364 -0.7519,2.85156 -0.50285,3.09905 -0.0981,1.38863 0.68833,-0.34871 1.02138,-0.73994 0.11052,-0.072 0.11714,-0.0606 0.12259,-0.0486 0.12683,-0.0362 0.12979,-0.0234 0.13148,-0.0103 0.13185,0.003 0.13092,0.0159 0.12868,0.0289 0.12516,0.0416 0.1204,0.0538 0.11445,0.0655 0.10736,0.0766 0.0992,0.0869 0.09,0.0964 0.08,0.10484 0.0692,0.11229 0.0576,0.11862 0.0455,0.12377 0.033,0.12768 0.0201,0.13034 0.007,0.1317 -0.006,0.13174 -0.28786,2.98235 0.19545,2.69087 0.56817,2.50036 0.84229,2.28369 1.01514,2.03549 1.06117,1.71826 0.0639,-0.58679 0.0201,-0.12703 0.0324,-0.12448 0.0443,-0.12075 0.0558,-0.11588 0.0668,-0.10991 0.0771,-0.1029 0.0868,-0.0949 0.0956,-0.0861 0.10349,-0.0764 0.11042,-0.0659 0.1163,-0.0549 0.12108,-0.0434 0.12473,-0.0314 0.12718,-0.0191 0.12843,-0.007 0.12849,0.006 0.12731,0.0183 0.12493,0.0305 0.12138,0.0425 0.11668,0.0541 0.11087,0.0652 0.10402,0.0756 0.0962,0.0854 0.0874,0.0943 3.14552,3.74291 2.07226,2.17651 2.36842,2.14021 2.61312,1.90675 2.83764,1.50544 1.43373,0.52537 1.48975,0.36891 0.85986,0.10486 -0.13636,-0.29169 -0.0548,-0.13642 -0.0393,-0.14165 -0.0233,-0.14514 -0.0645,-0.6195 -0.007,-0.13229 0.006,-0.13234 0.0194,-0.13106 0.0324,-0.12846 0.0451,-0.12458 0.0573,-0.11945 0.069,-0.11311 0.0799,-0.10565 0.0901,-0.0971 0.0994,-0.0876 0.10763,-0.0772 0.11481,-0.0661 0.12085,-0.0543 0.12568,-0.0419 0.12923,-0.0291 0.1315,-0.0161 0.13246,-0.003 0.13207,0.0104 0.13036,0.0236 0.12735,0.0365 0.12306,0.0491 5.97741,2.73758 3.02295,1.18339 2.73773,0.85087 2.19368,0.37076 0.67455,-0.0198 0.36382,-0.0998 0.0676,-0.0516 0.0315,-0.0702 9.5e-4,-0.41551 -0.26165,-0.96559 -0.0273,-0.12387 -0.0153,-0.12592 -0.003,-0.1268 0.009,-0.12652 0.0211,-0.12507 0.033,-0.12248 0.0445,-0.11876 0.0557,-0.11394 0.0664,-0.10809 0.0764,-0.10123 0.0858,-0.0934 0.0943,-0.0848 0.10201,-0.0754 0.10876,-0.0653 0.11451,-0.0546 0.11921,-0.0433 0.12281,-0.0317 0.12528,-0.0198 0.1266,-0.008 8.15915,-0.10546 4.00855,-0.11884 3.60675,-0.27982 2.95725,-0.51933 1.07591,-0.34185 0.78838,-0.38688 0.44797,-0.36671 0.17775,-0.29432 0.0424,-0.33738 -0.19357,-0.76647 -0.0259,-0.1292 -0.0129,-0.13113 2.3e-4,-0.13176 0.0133,-0.13108 0.0263,-0.1291 0.039,-0.12585 0.0513,-0.12134 0.0632,-0.11564 0.0743,-0.10877 0.0848,-0.10084 0.0944,-0.0919 0.10309,-0.0821 0.11074,-0.0714 0.11729,-0.06 0.12269,-0.048 0.12685,-0.0356 6.67558,-1.51989 5.08185,-1.42988 3.68915,-1.38686 2.51782,-1.38723 0.82907,-0.65426 0.64491,-0.67232 0.4788,-0.68451 0.33596,-0.68848 0.4774,-1.84895 m -85.52111,-24.31943 3.36745,2.09983 m -6.70488,5.51808 3.83735,1.01184 m -1.63228,10.16734 4.04453,-0.10667 m -2.07291,8.3456 3.55135,-1.77114 m 7.11075,11.36929 2.66072,-2.94442 m 3.91029,7.87122 1.85985,-3.5057 m 12.89396,6.17779 1.44665,-3.69544 m 16.23086,2.3919 -0.0513,-3.96817 m 23.75765,-3.22598 -1.07488,-3.82016 m 15.09933,-4.85493 -3.91604,-1.34241 m -19.83732,15.4821 -1.96687,-3.58891 m 5.63395,-0.44156 -1.07488,-3.82016 m -25.94911,13.00435 -0.54629,-3.95231 m 4.84105,0.6156 -0.14985,-4.08446 m -22.01774,4.77823 0.67606,-3.95231 m 5.46876,2.79603 1.30376,-3.52283 m -28.59205,-9.32843 3.25293,-2.06922 m 3.35441,5.90147 2.62523,-2.8621 m -15.83989,-17.48848 4.0458,0.40853"
     inkstitch:satin_column="true"
     sodipodi:nodetypes="cccccccccccccccccccccccccccccccccccccccccccccccccccccccccccccccccccccccccccccccccccccccccccccccccccccccccccccccccccccccccccccccccccccccccccccccccccccccccccccccccccccccccccccccccccccccccccccccccccccccccccccccccccccccccccccccccccccccccccccccccccccccccccccccccccccccccccccccccccccccccccccccccccccccccccccccccccccccccccccccccccccccccccccccccccccccccccccccccccccccccccccccccccccccccccccccccccccccccccccccccccccccccccccc"
     inkstitch:satin_method="satin_column"
     inkstitch:center_walk_underlay="False"
     inkstitch:contour_underlay="True"
     inkstitch:pull_compensation_percent="15" /><path
     id="path6"
     style="fill:none;stroke:#000000;stroke-width:1px"
     transform="matrix(0.264583 0 0 0.264583 -93.6625 0)"
     d="m -783.1311,188.24734 0.12017,-1.44756 8.58055,-3.44867 0.0685,-0.0298 3.7738,-1.7704 0.11259,-0.0596 2.8805,-1.7071 0.15373,-0.10647 1.0357,-0.8315 0.0828,-0.0723 0.0765,-0.0789 0.729,-0.8177 0.0757,-0.0932 0.067,-0.0996 0.0577,-0.10531 0.3944,-0.8047 0.0539,-0.12621 0.0406,-0.13113 0.0268,-0.13462 0.0127,-0.13668 0.0321,-0.7924 -8.2e-4,-0.12442 -0.0125,-0.1238 -0.0241,-0.12208 -0.0354,-0.11928 -0.0465,-0.11541 -0.358,-0.7806 -0.0543,-0.10571 -0.0636,-0.1004 -0.0724,-0.0943 -0.0805,-0.0874 -0.7761,-0.7697 -0.1114,-0.0987 -0.12179,-0.0855 -1.2218,-0.7594 -0.16324,-0.0863 -1.36855,-0.60529 -1.61234,-2.22633 -0.0563,-0.0723 -2.0415,-2.4432 -0.0604,-0.0675 -2.2576,-2.3537 -0.0645,-0.0628 -2.47,-2.2472 -0.0684,-0.0582 -2.6789,-2.1237 -0.0723,-0.0534 -2.8843,-1.9832 -0.0759,-0.0485 -3.086,-1.8259 -0.0793,-0.0434 -0.10423,-0.0524 1.15524,-0.44864 0.12118,-0.0542 0.11513,-0.0661 0.10793,-0.0773 0.0996,-0.0877 0.0903,-0.0973 0.0802,-0.10582 0.0691,-0.11332 0.0574,-0.11968 0.0452,-0.12483 0.0324,-0.12873 0.0193,-0.13133 0.006,-0.13261 -0.007,-0.13254 -0.0205,-0.13116 -0.0335,-0.12844 -0.0462,-0.12444 -0.0585,-0.11918 -0.0701,-0.11271 -0.0811,-0.10513 -0.0912,-0.0965 -0.1004,-0.0868 -0.10859,-0.0763 -3.6304,-2.289 -0.0406,-0.0246 -3.659,-2.1276 -0.0717,-0.0388 -3.7123,-1.8627 -0.10812,-0.0483 -1.50012,-0.59136 0.70723,-0.61057 0.0928,-0.0883 0.0838,-0.0969 0.0741,-0.10453 0.0636,-0.11122 0.0525,-0.11684 0.041,-0.12138 0.0291,-0.12477 0.0168,-0.12701 0.005,-0.12803 -0.008,-0.12787 -0.0202,-0.12651 -0.0324,-0.12395 -0.0442,-0.12024 -0.0557,-0.1154 -0.0666,-0.10947 -0.0768,-0.10252 -0.0864,-0.0946 -0.0951,-0.0858 -0.10299,-0.0762 -0.10988,-0.0659 -0.11574,-0.0549 -0.12051,-0.0435 -0.12415,-0.0316 -0.12663,-0.0195 -0.12791,-0.007 -6.7478,-0.0488 -0.0314,1.5e-4 -9.3394,0.1543 -0.0234,5.9e-4 -10.28511,0.35188 0.10995,-0.33159 0.0335,-0.11934 0.0221,-0.12196 0.0106,-0.12349 -9.8e-4,-0.12394 -0.0399,-0.7279 -0.0131,-0.12673 -0.0252,-0.12488 -0.0371,-0.12187 -0.0487,-0.11774 -0.0598,-0.11252 -0.0703,-0.10623 -0.0802,-0.099 -0.0894,-0.0908 -0.0977,-0.0818 -0.1051,-0.072 -0.11153,-0.0616 -0.11694,-0.0506 -0.12127,-0.0391 -0.12446,-0.0272 -0.1265,-0.0151 -0.12736,-0.003 -0.12706,0.009 -0.12556,0.0216 -5.4619,1.2111 -0.0805,0.0205 -3.4818,1.0051 -0.0596,0.0187 -1.70152,0.57949 -0.008,-1.45665 -0.008,-0.13949 -0.0228,-0.13786 -0.2572,-1.1674 -0.036,-0.13093 -0.0492,-0.12655 -0.0619,-0.12084 -0.074,-0.11385 -0.0853,-0.10567 -0.0956,-0.0964 -0.2793,-0.2539 -0.0961,-0.0794 -0.10312,-0.07 -0.10926,-0.06 -0.11441,-0.0494 -0.11856,-0.0385 -0.12166,-0.0271 -0.12366,-0.0155 -0.12459,-0.004 -0.12439,0.008 -0.4136,0.0459 -0.11861,0.0186 -0.11643,0.0293 -0.11329,0.0398 -0.10923,0.0499 -1.6097,0.8252 -0.14941,0.0895 -1.6513,1.143 -0.11704,0.0911 -1.8942,1.6535 -0.069,0.0647 -1.89095,1.90534 -4.29521,-0.45915 -0.1306,-0.007 -2.6045,-0.0197 -0.15774,0.008 -1.1577,0.1301 -0.17954,0.0328 -0.9928,0.2535 -0.12687,0.0393 -0.12229,0.0518 -0.11647,0.0638 -0.1095,0.0752 -0.10141,0.0858 -0.0923,0.0955 -0.0823,0.10426 -0.0714,0.11199 -0.0598,0.11858 -0.0476,0.12398 -0.0349,0.12813 -0.0219,0.13098 -0.009,0.13253 0.005,0.13272 0.0179,0.13159 0.031,0.12913 0.0438,0.12536 0.0562,0.12033 0.068,0.11409 0.0791,0.10671 1.23059,1.49725 -0.76877,0.18725 -0.095,0.0269 -2.1775,0.7061 -0.11963,0.0453 -1.8961,0.8248 -0.13331,0.0672 -1.6847,0.9718 -0.1282,0.0842 -1.5434,1.1473 -0.10526,0.087 -1.4723,1.3512 -0.0994,0.10153 -3.0115,3.4279 m 83.7674,30.25064 0.1877,-2.2611 0.0176,-0.13175 0.0308,-0.12931 0.0436,-0.12558 0.056,-0.12056 0.0678,-0.11434 0.0789,-0.10696 0.0893,-0.0985 0.0987,-0.089 0.10713,-0.0787 0.11449,-0.0675 0.12069,-0.0557 9.30333,-3.73916 3.68223,-1.72744 2.745,-1.6268 0.87668,-0.70384 0.53503,-0.60012 0.19198,-0.3917 0.008,-0.19717 -0.12562,-0.27389 -0.49922,-0.49511 -1.01618,-0.6316 -1.61067,-0.71237 -0.12444,-0.0631 -0.11711,-0.0758 -0.10846,-0.0877 -0.0986,-0.0987 -0.0877,-0.10852 -1.79502,-2.47858 -1.98304,-2.37325 -2.19507,-2.2885 -2.40347,-2.18667 -2.60846,-2.06786 -2.81013,-1.9322 -3.00831,-1.77993 -3.24379,-1.63108 -0.115,-0.0652 -0.10792,-0.0764 -0.0998,-0.0868 -0.0906,-0.0963 -0.0805,-0.10485 -0.0697,-0.11237 -0.0581,-0.11877 -0.0459,-0.12397 -0.0334,-0.12794 -0.0204,-0.13063 -0.007,-0.13201 0.006,-0.13208 0.0191,-0.13082 0.0321,-0.12827 0.0447,-0.12442 0.0569,-0.11935 0.0685,-0.11306 0.0795,-0.10566 0.0896,-0.0972 0.0989,-0.0878 0.10715,-0.0775 0.11434,-0.0664 0.1204,-0.0546 0.12526,-0.0423 0.12885,-0.0296 1.67078,-0.29708 -1.30446,-0.82247 -3.60324,-2.09518 -3.62288,-1.81783 -3.73476,-1.47227 -0.12008,-0.0544 -0.11407,-0.0661 -0.10693,-0.0771 -0.0987,-0.0874 -0.0895,-0.0968 -0.0795,-0.10519 -0.0686,-0.11257 -0.0571,-0.11885 -0.0449,-0.12393 -0.0324,-0.1278 -0.0195,-0.13038 -0.006,-0.13167 0.007,-0.13166 0.0198,-0.13033 0.0327,-0.12773 0.0452,-0.12383 0.0573,-0.11872 0.006,-0.0106 -2.96929,-0.0215 -9.312,0.15385 -12.93071,0.4424 -0.13072,-0.002 -0.12988,-0.0149 -0.12778,-0.0276 -0.12443,-0.0401 -0.11986,-0.0522 -0.11412,-0.0638 -0.10727,-0.0747 -0.0994,-0.0849 -0.0905,-0.0943 -0.0807,-0.10282 -0.0702,-0.11028 -0.059,-0.11668 -0.0472,-0.12192 -0.0349,-0.12599 -0.0223,-0.12882 -0.009,-0.13038 0.003,-0.13069 0.0163,-0.12971 0.029,-0.12747 0.0415,-0.12397 0.0535,-0.11928 0.065,-0.1134 0.0759,-0.10644 0.086,-0.0984 0.10773,-0.11159 -2.86451,0.63517 -3.41185,0.98491 -3.41114,1.16173 -0.1267,0.0362 -0.12968,0.0234 -0.13137,0.0104 -0.13175,-0.003 -0.13083,-0.0158 -0.12861,-0.0287 -0.12511,-0.0414 -0.12037,-0.0536 -0.11443,-0.0653 -0.10737,-0.0764 -0.0992,-0.0867 -0.0901,-0.0961 -0.0801,-0.10465 -0.0693,-0.11209 -0.0578,-0.11844 -0.0457,-0.12359 -0.0332,-0.12753 -0.0203,-0.1302 -0.007,-0.13158 -0.0165,-2.9998 -0.55748,0.28579 -1.51846,1.05105 -1.80258,1.57352 -2.30525,2.3228 -0.0972,0.0887 -0.10556,0.0786 -0.11285,0.0677 -0.11901,0.0562 -0.124,0.0441 -0.12777,0.0315 -0.13026,0.0187 -0.13148,0.006 -0.13138,-0.007 -4.86198,-0.51974 -2.19315,-0.0166 0.0118,0.0143 0.051,0.0663 0.5089,0.7058 0.0782,0.12206 0.0644,0.12989 0.2969,0.6918 0.0446,0.11958 0.0329,0.12331 0.0208,0.12591 0.009,0.12733 -0.004,0.12758 -0.016,0.12662 -0.0281,0.12449 -0.04,0.12121 -0.0514,0.11679 -0.0625,0.11129 -0.0729,0.10475 -0.0827,0.0972 -0.0916,0.0888 -0.0998,0.0796 -0.10698,0.0696 -0.11319,0.059 -0.11835,0.0478 -0.1224,0.0362 -2.48109,0.60431 -2.0696,0.67111 -1.76883,0.76944 -1.55339,0.89606 -1.42687,1.06067 -1.36951,1.25686 -2.96455,3.37447 m 91.5095,25.1861 -1.47995,-3.68223 m 9.69846,-9.83548 -1.6052,3.62937 m -4.79486,-10.54315 -2.86402,2.74708 m -4.00651,-8.5642 -2.24846,3.27009 m -4.47126,-2.79018 2.53455,-2.9288 m -11.65558,-10.16075 -2.15063,3.48098 m -9.67104,-7.0876 0.0656,3.96796 m -10.43159,-3.71525 0.13569,3.96619 m -11.39611,-5.52588 0.93963,3.85566 m -15.02444,-3.23046 2.60977,2.98967 m -16.29071,4.039 1.32232,3.96179 m 33.39042,-9.83712 0.16872,3.90012 m 20.34704,-4.46174 -0.16164,3.99922 m 14.07007,3.66527 -2.27599,3.27243 m 22.9239,22.66136 4.26527,-0.0312 m -5.96666,1.50139 2.25004,3.40441 m -18.66926,6.83695 4.00098,0.29897 m -1.02767,-4.39551 1.55626,3.63567"
     inkstitch:satin_column="true"
     sodipodi:nodetypes="ccccccccccccccccccccccccccccccccccccccccccccccccccccccccccccccccccccccccccccccccccccccccccccccccccccccccccccccccccccccccccccccccccccccccccccccccccccccccccccccccccccccccccccccccccccccccccccccccccccccccccccccccccccccccccccccccccccccccccccccccccccccccccccccccccccccccccccccccccccccccccccccccccccccccccccccccccccccccccccccccccccccccccccccccccccccccccccccccccccccccccccccccccccccccccccccccccccccccccccccccccccccccccccccccccccccccccccccccc"
     inkstitch:satin_method="satin_column"
     inkstitch:center_walk_underlay="False"
     inkstitch:contour_underlay="True"
     inkstitch:pull_compensation_percent="15" /><path
     id="path7"
     style="fill:none;stroke:#000000;stroke-width:1px"
     transform="matrix(0.264583 0 0 0.264583 -93.6625 0)"
     d="m -782.17993,159.74472 -0.8419,0.92716 -0.87846,0.76611 -2.14507,1.36909 -2.44435,1.06332 -2.66033,0.79956 -2.75382,0.56625 -2.71249,0.36787 -4.93975,0.31731 -0.13108,0.015 -0.12894,0.028 -0.12551,0.0407 -0.12082,0.053 -0.11495,0.0648 -0.10792,0.0759 -0.0998,0.0863 -0.0907,0.0958 -0.0807,0.10436 -0.0699,0.11188 -0.0584,0.11828 -0.0464,0.12353 -0.0338,0.12753 -0.021,0.13026 -0.008,0.13171 0.005,0.13183 0.0184,0.13066 0.0313,0.12817 0.0439,0.12442 0.0561,0.11943 0.0677,0.11324 0.0786,0.10593 0.0888,0.0976 0.0981,0.0882 0.1064,0.078 1.6468,1.0857 0.1042,0.062 1.4188,0.7589 0.13214,0.0611 -1.2301,0.45998 -2.41503,0.63546 -2.58417,0.46883 -2.61153,0.29358 -2.49828,0.11344 -2.23933,-0.0675 -1.92531,-0.25423 -0.12965,-0.0107 -0.13008,0.002 -0.12924,0.0149 -0.12716,0.0275 -0.12383,0.0399 -0.11933,0.0518 -0.11365,0.0633 -0.10689,0.0742 -0.0991,0.0843 -0.0903,0.0936 -0.0807,0.10205 -0.0703,0.10948 -0.0592,0.11586 -0.0475,0.12111 -0.0354,0.12519 -0.0229,0.12806 -0.0102,0.12969 0.003,0.13007 0.0153,0.12919 0.0279,0.12706 0.0403,0.1237 0.0522,0.11915 0.0637,0.11344 0.0745,0.10663 0.0846,0.0988 0.0939,0.09 0.10232,0.0803 1.12645,0.79818 0.93101,1.0833 0.38993,0.52455 -1.90786,0.0261 -2.0016,-0.13864 -1.93962,-0.29211 -1.87721,-0.43235 -1.79357,-0.55338 -3.45232,-1.4584 -3.15218,-1.80038 -2.85478,-2.04302 -2.53628,-2.17406 -2.22819,-2.22199 m 56.41415,-4.14853 -0.8937,0.9842 -0.10987,0.10768 -1.011,0.8817 -0.0767,0.062 -0.0811,0.0561 -2.3165,1.4785 -0.0901,0.0526 -0.0939,0.0453 -2.6121,1.1363 -0.14693,0.0538 -2.7919,0.8391 -0.11432,0.0289 -2.8557,0.5872 -0.0887,0.0151 -2.8034,0.3802 -0.093,0.009 -0.46499,0.0299 1.71929,0.67723 0.11858,0.0536 0.11274,0.065 0.10581,0.0757 0.0979,0.0858 0.089,0.095 0.0792,0.10325 0.0687,0.11053 0.0575,0.11674 0.0457,0.12183 0.0335,0.12572 0.021,0.12842 0.008,0.12986 -0.004,0.13004 -0.0172,0.12898 -0.0298,0.12666 -0.0421,0.12311 -0.054,0.11838 -0.0654,0.11249 -0.0761,0.10553 -0.0861,0.0975 -0.0953,0.0886 -0.10354,0.0788 -0.11079,0.0683 -1.8448,1.015 -0.17435,0.08 -2.2512,0.8418 -0.1267,0.0403 -2.5292,0.6655 -0.10048,0.0223 -2.6788,0.486 -0.0884,0.013 -2.6997,0.3035 -0.0878,0.007 -2.5922,0.1177 -0.0998,7.6e-4 -0.70438,-0.0212 1.60647,2.16111 0.0707,0.1054 0.0603,0.11169 0.0494,0.11697 0.0379,0.12115 0.0261,0.12423 0.0141,0.12616 0.002,0.12693 -0.0102,0.12653 -0.0223,0.12497 -0.0342,0.12225 -0.0458,0.11841 -0.0569,0.11348 -0.0675,0.1075 -0.0775,0.10053 -0.0868,0.0927 -0.0953,0.0839 -0.10287,0.0744 -0.10953,0.0642 -0.11517,0.0534 -0.11976,0.0421 -0.12325,0.0304 -0.12559,0.0185 -2.2366,0.2199 -0.11137,0.006 -2.1739,0.0297 -0.10948,-0.003 -2.1093,-0.1461 -0.10559,-0.0116 -2.0425,-0.3076 -0.0999,-0.019 -1.9738,-0.4546 -0.0931,-0.025 -1.9032,-0.5872 -0.12477,-0.0455 -3.5863,-1.515 -0.1413,-0.0699 -3.2795,-1.8731 -0.11378,-0.0729 -2.9569,-2.1161 -0.0911,-0.0714 -2.6181,-2.2442 -0.0732,-0.0677 -2.2635,-2.2572 m 53.00734,-5.87324 2.13507,3.34522 m -9.37249,-0.69683 0.79929,3.88717 m -10.01654,2.36197 1.00985,3.83787 m -8.39544,-2.82885 0.0787,3.99974 m -8.51276,0.25441 -0.59099,3.92425 m -9.00172,-7.46366 -1.96822,3.44603"
     inkstitch:satin_column="true"
     inkstitch:satin_method="satin_column"
     inkstitch:center_walk_underlay="False"
     inkstitch:contour_underlay="True"
     sodipodi:nodetypes="cccccccccccccccccccccccccccccccccccccccccccccccccccccccccccccccccccccccccccccccccccccccccccccccccccccccccccccccccccccccccccccccccccccccccccccccccccccccccccccccccccccccccccccccccccccccccccccccccccc"
     inkstitch:pull_compensation_percent="15" /><path
     id="path8"
     style="fill:none;stroke:#000000;stroke-width:1px"
     transform="matrix(0.264583 0 0 0.264583 -93.6625 0)"
     d="m -834.53001,207.86081 0.97898,2.48716 0.7625,2.57499 0.59793,2.69302 0.45952,2.76505 0.63016,5.66139 0.43915,5.52352 1.1e-4,10e-4 0.29274,3.63301 0.0989,3.99224 -0.0699,4.13645 -0.21551,4.01467 -0.3364,3.62646 -0.42811,2.95835 -0.47839,1.9992 -0.16202,0.38677 -1.46841,0.78861 -1.89826,0.83551 -4.13629,1.5555 -0.002,9.1e-4 -3.6242,1.371 -0.10601,0.0455 -1.2963,0.6244 -0.11331,0.0616 -0.10678,0.0723 -0.7865,0.5904 -0.10047,0.0835 -0.0917,0.093 -0.0821,0.10158 -0.3421,0.4687 -0.0637,0.0958 -0.0552,0.10094 -0.0462,0.10535 -0.0368,0.10896 -0.1311,0.4515 -0.0287,0.11932 -0.0175,0.12148 -0.006,0.12257 0.005,0.12262 0.0165,0.12162 0.0277,0.11955 0.1166,0.4144 0.0396,0.11887 0.0507,0.11459 0.0613,0.10928 0.0714,0.10299 0.0808,0.0958 0.0895,0.0877 0.4012,0.3576 0.11356,0.0905 0.12279,0.0775 0.13056,0.0636 0.13674,0.0489 0.6931,0.2058 0.13224,0.032 0.13482,0.0182 1.0729,0.0891 0.1736,0.003 3.0684,-0.1489 m 7.69339,-57.58579 1.0001,2.5408 0.0375,0.10892 0.7919,2.6743 0.023,0.0889 0.6156,2.7726 0.0136,0.0699 0.4712,2.8353 0.01,0.0705 0.6364,5.7175 0.004,0.0415 0.44075,5.5436 0.29564,3.66899 0.004,0.0735 0.1005,4.0566 2.2e-4,0.0551 -0.0708,4.1883 -0.002,0.0486 -0.2182,4.0646 -0.004,0.0513 -0.3419,3.6858 -0.008,0.0673 -0.4416,3.0516 -0.0227,0.11839 -0.5174,2.1622 -0.0291,0.10297 -0.0373,0.10028 -0.2797,0.6677 -0.0561,0.11737 -0.0674,0.1113 -0.078,0.10413 -0.2897,0.3497 -0.0861,0.0943 -0.0948,0.0855 -0.10256,0.076 -0.10941,0.0657 -1.7423,0.9357 -0.093,0.0454 -1.9789,0.871 -0.0673,0.0274 -4.16909,1.56784 -3.569,1.35012 -1.12769,0.54318 -0.10411,0.0781 0.46034,0.0382 2.9815,-0.14468 m 6.11424,-49.91587 3.80518,-1.12677 m -2.02656,11.1789 3.94415,-0.43902 m -3.2668,8.10471 3.95568,-0.31874 m -3.60327,9.98467 3.96794,0.0671 m -4.36451,7.52675 3.95154,0.36656 m -7.58152,7.80599 1.5987,3.63224"
     inkstitch:satin_column="true"
     inkstitch:satin_method="satin_column"
     inkstitch:center_walk_underlay="False"
     inkstitch:contour_underlay="True"
     inkstitch:pull_compensation_percent="15" /><path
     id="path9"
     style="fill:none;stroke:#000000;stroke-width:1px"
     transform="matrix(0.264583 0 0 0.264583 -93.6625 0)"
     d="m -819.55045,204.86448 0.2409,4.7729 0.003,0.0459 0.3431,4.017 0.007,0.0638 0.8485,6.3084 0.006,0.0426 0.81801,4.87481 0.50023,4.50301 0.15815,7.2931 -0.23526,6.00538 -0.75262,8.94568 -0.004,0.087 -0.0594,3.2881 0.007,0.16199 0.15,1.429 0.0275,0.16292 0.308,1.318 0.0266,0.0971 0.0339,0.0948 0.4944,1.2313 0.0445,0.0988 0.0524,0.0948 0.7097,1.1688 0.0565,0.0854 0.063,0.0808 0.18968,0.22492 -1.9888,0.10289 -0.0532,0.004 -7.8328,0.7226 -0.009,8.7e-4 -12.28693,1.2195 -0.0599,0.004 0.84061,-0.39989 2.34865,-0.9139 5.15957,-1.84586 0.0428,-0.0162 2.3631,-0.9388 0.0993,-0.0443 1.9442,-0.9641 0.10828,-0.0602 0.10219,-0.07 1.3238,-1.0016 0.10401,-0.0874 0.0945,-0.0977 0.084,-0.10683 0.3663,-0.5188 0.0651,-0.10182 0.0556,-0.10734 0.0455,-0.11196 0.0351,-0.11565 0.1356,-0.5329 0.0267,-0.1334 0.0129,-0.13544 0.17285,-3.98159 0.28905,-3.45995 0.70388,-6.08257 0.005,-0.0462 0.4715,-5.8737 0.004,-0.10601 -4e-4,-3.2201 -0.003,-0.0866 -0.2369,-3.6059 -0.005,-0.0557 -0.6629,-6.1199 -0.004,-0.034 -0.7962,-5.9153 -0.006,-0.0392 -0.9809,-5.9375 -0.007,-0.0397 -1.2169,-6.1862 m 7.75139,0.41104 0.23974,4.74992 0.33842,3.96212 0.84135,6.25526 0.82053,4.88986 0.0102,0.0729 0.5108,4.5981 0.008,0.11737 0.1603,7.3922 -7e-4,0.0805 -0.238,6.0752 -0.004,0.0591 -0.75145,8.93177 -0.0571,3.16331 0.13288,1.2659 0.2662,1.13915 0.41633,1.03685 0.60002,0.98819 0.83113,0.98552 1.1614,1.05802 0.0914,0.0918 0.082,0.10032 0.0717,0.10784 0.0609,0.11435 0.0494,0.11975 0.0374,0.12401 0.0251,0.12707 0.0126,0.12893 -9e-5,0.12953 -0.0128,0.1289 -0.0253,0.12704 -0.0376,0.12395 -0.0495,0.11968 -0.061,0.11426 -0.0719,0.10775 -0.0821,0.10019 -0.0915,0.0917 -0.10003,0.0823 -0.1076,0.0721 -0.11414,0.0612 -0.11958,0.0498 -0.12388,0.0379 -0.12698,0.0256 -0.12888,0.013 -4.89448,0.25322 -7.80168,0.71973 -12.30754,1.22155 -0.0504,0.004 -0.9332,0.0567 -0.13877,10e-4 -0.13812,-0.0134 -0.13596,-0.0278 -0.1323,-0.0419 -0.12718,-0.0555 -0.8399,-0.4204 -0.11724,-0.0664 -0.10988,-0.0779 -0.10139,-0.0887 -0.0918,-0.0986 -0.2833,-0.3369 -0.0727,-0.0949 -0.0639,-0.10103 -0.0545,-0.10638 -0.0446,-0.11087 -0.1382,-0.3936 -0.0342,-0.11352 -0.0239,-0.11612 -0.0134,-0.11781 -0.003,-0.11853 0.008,-0.11831 0.0477,-0.4294 0.018,-0.11554 0.0282,-0.11349 0.0381,-0.11057 0.0477,-0.10676 0.0569,-0.10214 0.2741,-0.4443 0.0715,-0.10437 0.0811,-0.0971 0.09,-0.0889 0.0981,-0.0799 0.10529,-0.0701 0.11151,-0.0597 2.0233,-0.9625 0.0886,-0.0382 2.4106,-0.938 0.0341,-0.0127 5.15516,-1.84429 2.29129,-0.91027 1.78411,-0.88472 1.06077,-0.80258 0.10669,-0.15112 0.0416,-0.16353 0.16808,-3.87153 0.003,-0.0528 0.293,-3.5073 0.004,-0.0419 0.70363,-6.08044 0.4654,-5.79763 -3.9e-4,-3.12368 -0.23223,-3.53475 -0.65804,-6.07505 -0.79127,-5.87871 -0.97439,-5.89806 -1.213,-6.1664 m 7.41692,6.39473 3.95411,-0.33773 m -2.52712,11.37568 3.91378,-0.65674 m -2.83948,12.84232 3.96758,-0.086 m -4.35687,10.83561 3.95453,0.33271 m -11.83165,16.01557 0.39196,3.9491 m -6.5299,-3.6996 -1.33678,-3.73658 m 12.10276,-12.83808 -3.94219,-0.4562 m 4.83858,-10.70247 -3.96851,4.9e-4 m 3.2817,-9.5879 -3.94543,0.42736 m 2.43398,-11.40558 -3.91544,0.64684"
     inkstitch:satin_column="true"
     inkstitch:satin_method="satin_column"
     inkstitch:center_walk_underlay="False"
     inkstitch:contour_underlay="True"
     inkstitch:pull_compensation_percent="15" /></g></svg>
