<?xml version="1.0" encoding="UTF-8" standalone="no"?>
<!-- Created with Inkscape (http://www.inkscape.org/) -->

<svg
   width="100mm"
   height="100mm"
   viewBox="0 0 100 100"
   version="1.1"
   id="svg1"
   xml:space="preserve"
   inkscape:version="1.3.2 (091e20e, 2023-11-25)"
   sodipodi:docname="Wurm_V3.svg"
   xmlns:inkscape="http://www.inkscape.org/namespaces/inkscape"
   xmlns:sodipodi="http://sodipodi.sourceforge.net/DTD/sodipodi-0.dtd"
   xmlns="http://www.w3.org/2000/svg"
   xmlns:svg="http://www.w3.org/2000/svg"
   xmlns:inkstitch="http://inkstitch.org/namespace"><sodipodi:namedview
     id="namedview1"
     pagecolor="#ffffff"
     bordercolor="#000000"
     borderopacity="0.25"
     inkscape:showpageshadow="2"
     inkscape:pageopacity="0.0"
     inkscape:pagecheckerboard="0"
     inkscape:deskcolor="#d1d1d1"
     inkscape:document-units="mm"
     inkscape:zoom="3.8791821"
     inkscape:cx="168.85003"
     inkscape:cy="199.3977"
     inkscape:window-width="1680"
     inkscape:window-height="924"
     inkscape:window-x="0"
     inkscape:window-y="25"
     inkscape:window-maximized="0"
     inkscape:current-layer="layer1" /><metadata
     id="metadata3"><inkstitch:min_stitch_len_mm>0</inkstitch:min_stitch_len_mm><inkstitch:collapse_len_mm>3</inkstitch:collapse_len_mm><inkstitch:inkstitch_svg_version>1</inkstitch:inkstitch_svg_version></metadata><defs
     id="defs1"><symbol
   id="inkstitch_ignore_layer">
      <title
   id="title9694">Ignore entire layer when generating stitch plan</title>
      <path
   inkscape:connector-curvature="0"
   style="opacity:1;vector-effect:none;fill:#fafafa;fill-opacity:1;fill-rule:evenodd;stroke:#ff0000;stroke-width:1.06501234;stroke-linecap:round;stroke-linejoin:miter;stroke-miterlimit:4;stroke-dasharray:3.19503705, 3.19503705;stroke-dashoffset:0;stroke-opacity:1"
   d="M 9.2465269,-4.9265995e-6 C 9.246525,5.1067241 5.1067028,9.2465451 -2.615882e-5,9.2465451 -5.1067554,9.2465451 -9.2465782,5.1067241 -9.2465801,-4.9265995e-6 -9.24658,-2.4523429 -8.2723922,-4.8042399 -6.538327,-6.5383059 c 1.7340653,-1.734065 4.0859624,-2.708252 6.53830084118,-2.708252 5.10673015882,0 9.24655285882,4.139823 9.24655305882,9.2465529734005 0,0 0,0 0,0"
   id="inkstitch_path25368-7" />
      <path
   sodipodi:nodetypes="ccccc"
   inkscape:connector-curvature="0"
   style="color:#000000;fill:#d5d5d5;fill-opacity:1;fill-rule:evenodd;stroke:#5a5a5a;stroke-width:0.63330007;stroke-linecap:square;stroke-linejoin:round;stroke-miterlimit:0;stroke-opacity:1"
   d="M 4,4.452769 1.46667,1.286102 H -5.5 l 2.53333,3.166667 z"
   id="use5800" />
      <path
   sodipodi:nodetypes="ccccc"
   inkscape:connector-curvature="0"
   style="color:#000000;opacity:0.5;fill:#d5d5d5;fill-opacity:1;fill-rule:evenodd;stroke:#858585;stroke-width:0.63339424;stroke-linecap:square;stroke-linejoin:round;stroke-miterlimit:0;stroke-opacity:1"
   d="M 4,2.552769 1.46667,-0.613898 H -5.5 l 2.53333,3.166667 z"
   id="use5864" />
      <g
   id="g5771">
        <path
   sodipodi:nodetypes="ccccccccc"
   inkscape:connector-curvature="0"
   style="fill:#aa0000;fill-rule:evenodd;stroke:#aa0000;stroke-width:1px"
   d="m -1.0666699,-5.0472339 h 4.4333333 l 0.6333333,0.6333333 V 0.01943274 L 3.3666634,0.65276607 H -1.0666699 L -1.7000032,0.01943274 V -4.4139006 Z"
   id="path8011" />
        <path
   inkscape:connector-curvature="0"
   id="path8023"
   d="m -0.43333658,-3.8755672 c 0,0 3.16666668,3.16666661 3.16666668,3.16666661"
   style="fill:none;stroke:#ffffff;stroke-width:1.70000005" />
        <path
   inkscape:connector-curvature="0"
   id="path8025"
   d="m 2.7333301,-3.8755672 c 0,0 -3.16666668,3.16666661 -3.16666668,3.16666661"
   style="fill:none;stroke:#ffffff;stroke-width:1.79999995;stroke-linejoin:round" />
      </g>
    </symbol>
    </defs><g
     inkscape:label="Ebene 1"
     inkscape:groupmode="layer"
     id="layer1"><g
       id="g1"><g
         id="g46"><path
           style="fill:#f99292;fill-rule:evenodd;stroke-width:0.264583"
           d="m 33.016799,69.745145 3e-6,3e-6 c -2.035699,-0.322609 -2.935553,-2.675352 -2.574966,-4.505674 1.858073,-0.666935 4.040359,-0.90077 5.840921,0.05625 0.619555,0.284678 -0.06478,1.217495 -0.09188,1.760305 -0.354925,1.420404 -1.530602,2.993241 -3.174078,2.689116 z"
           id="path2_1"
           inkstitch:fill_method="auto_fill"
           inkstitch:fill_underlay="True"
           inkstitch:underpath="True"
           inkstitch:lock_start="half_stitch"
           inkstitch:meander_scale_percent="2"
           inkstitch:clockwise="True"
           inkstitch:join_style="0"
           inkstitch:angle="30" /><path
           style="fill:#f99292;fill-rule:evenodd;stroke-width:0.264583"
           d="m 36.398326,64.19581 c -0.07482,-0.04441 -0.149631,-0.08883 -0.224451,-0.133241 -1.722284,-0.886763 -3.686879,0.07747 -5.478527,-0.295238 0.571245,-1.849797 1.297391,-3.64444 2.025311,-5.43663 1.818614,-0.912417 4.165934,-0.816929 5.773228,0.489532 0.02549,1.562569 -1.210015,2.78214 -1.450518,4.290067 -0.135025,0.342842 -0.04716,1.597396 -0.645043,1.08551 z"
           id="path2_7"
           inkstitch:fill_method="auto_fill"
           inkstitch:fill_underlay="True"
           inkstitch:underpath="True"
           inkstitch:lock_start="half_stitch"
           inkstitch:meander_scale_percent="2"
           inkstitch:clockwise="True"
           inkstitch:join_style="0"
           inkstitch:angle="30" /><path
           style="fill:#f99292;fill-rule:evenodd;stroke-width:0.264583"
           d="m 38.836556,57.858487 c -1.344864,-1.338743 -3.402177,-0.969943 -5.117866,-1.167536 1.370225,-2.040009 3.481272,-3.589955 5.881778,-4.163809 1.678999,1.072812 2.807062,2.834266 3.412777,4.704778 -1.455373,-0.273481 -2.756912,1.214965 -4.176689,0.626567 z"
           id="path2_3"
           inkstitch:fill_method="auto_fill"
           inkstitch:fill_underlay="True"
           inkstitch:underpath="True"
           inkstitch:lock_start="half_stitch"
           inkstitch:meander_scale_percent="2"
           inkstitch:clockwise="True"
           inkstitch:join_style="0"
           inkstitch:angle="30" /><path
           style="fill:#f99292;fill-rule:evenodd;stroke-width:0.264583"
           d="m 48.158345,57.376133 v 4e-6 c -0.409599,-0.112966 -0.833252,-0.127351 -1.255455,-0.126526 -1.131862,-0.03663 -2.79864,0.331435 -3.341868,-0.986471 -0.224689,-1.683108 -1.587009,-2.864363 -2.612826,-4.115258 2.663496,-0.499391 5.385597,-0.280089 8.066789,-0.0715 0.890142,1.328575 0.968435,3.099191 0.329215,4.54711 -0.09155,0.642284 -0.535397,1.001593 -1.185855,0.752641 z"
           id="path2_9"
           inkstitch:fill_method="auto_fill"
           inkstitch:fill_underlay="True"
           inkstitch:underpath="True"
           inkstitch:lock_start="half_stitch"
           inkstitch:meander_scale_percent="2"
           inkstitch:clockwise="True"
           inkstitch:join_style="0"
           inkstitch:angle="30" /><path
           style="fill:#f99292;fill-rule:evenodd;stroke-width:0.265;stroke-dasharray:none"
           d="m 54.406737,58.21312 c -0.492236,-0.0955 -0.992814,-0.117206 -1.492629,-0.138466 -0.920257,-0.11229 -2.219984,0.130672 -2.768605,-0.794805 0.968578,-1.513341 0.419701,-3.363467 0.405381,-5.0337 1.496952,0.195141 2.993902,0.390281 4.490855,0.585422 1.064111,1.4183 1.415183,3.309846 1.041811,5.031726 -0.09217,0.811875 -1.144906,0.250833 -1.676813,0.349823 z"
           id="path2_4"
           inkstitch:fill_method="auto_fill"
           inkstitch:fill_underlay="True"
           inkstitch:underpath="True"
           inkstitch:lock_start="half_stitch"
           inkstitch:meander_scale_percent="2"
           inkstitch:clockwise="True"
           inkstitch:join_style="0"
           inkstitch:angle="30" /><path
           style="fill:#f99292;fill-rule:evenodd;stroke-width:0.264583"
           d="m 57.238836,58.38293 c -0.116452,-1.194108 0.03745,-2.404845 -0.182652,-3.590389 0.0077,-0.628496 -0.601376,-1.165795 -0.484603,-1.762144 0.668596,-0.509695 2.132771,-0.380171 2.079541,-1.538087 0.824618,-0.122687 1.64941,0.104309 2.38951,0.45984 0.954951,0.56834 2.043734,1.061811 2.771581,1.907977 0.440713,1.059194 -0.60529,2.001218 -1.274235,2.698879 -1.292226,1.530689 -3.38722,1.947582 -5.299142,1.823924 z"
           id="path2_8"
           inkstitch:fill_method="auto_fill"
           inkstitch:fill_underlay="True"
           inkstitch:underpath="True"
           inkstitch:lock_start="half_stitch"
           inkstitch:meander_scale_percent="2"
           inkstitch:clockwise="True"
           inkstitch:join_style="0"
           inkstitch:angle="30" /><path
           style="fill:#f99292;fill-rule:evenodd;stroke-width:0.264583"
           d="m 64.033327,52.671424 c -1.575086,-1.169343 -3.360543,-2.33552 -5.406801,-2.25458 -0.338792,-1.327461 -0.295572,-2.703502 -0.333592,-4.061897 1.964257,-1.034075 4.409025,-0.569354 6.184094,0.64318 0.451087,1.449103 0.352633,2.999927 0.118427,4.479319 -0.195723,0.330379 -0.05951,1.721218 -0.562128,1.193978 z"
           id="path2_5"
           inkstitch:fill_method="auto_fill"
           inkstitch:fill_underlay="True"
           inkstitch:underpath="True"
           inkstitch:lock_start="half_stitch"
           inkstitch:meander_scale_percent="2"
           inkstitch:clockwise="True"
           inkstitch:join_style="0"
           inkstitch:angle="30" /><path
           style="fill:#f99292;fill-rule:evenodd;stroke-width:0.264583"
           d="m 64.007927,45.532009 v 4.1e-5 c -1.310802,-0.548592 -2.746519,-0.870523 -4.17087,-0.713017 -0.486984,-0.15502 -1.642497,0.789734 -1.497696,0.0017 0.137083,-2.293966 -0.155858,-5.01874 1.686899,-6.745191 2.264301,-0.195091 3.884716,1.943105 4.443381,3.911513 -0.4572,0.552396 -0.345099,1.335472 -0.302369,2.001173 -0.04041,0.470823 0.338029,1.277013 -0.159345,1.543781 z"
           id="path2_6"
           inkstitch:fill_method="auto_fill"
           inkstitch:fill_underlay="True"
           inkstitch:underpath="True"
           inkstitch:lock_start="half_stitch"
           inkstitch:meander_scale_percent="2"
           inkstitch:clockwise="True"
           inkstitch:join_style="0"
           inkstitch:angle="30" /><path
           style="fill:#f99292;fill-rule:evenodd;stroke-width:0.264583"
           d="m 65.117657,40.752333 c -0.77617,-1.52997 -1.936425,-3.092348 -3.674052,-3.554302 -1.083952,-0.04112 0.251332,-0.63642 0.651829,-0.868454 2.245034,-1.142552 5.486578,-1.057507 7.087171,1.106203 0.957539,1.673977 -0.830857,3.67906 -2.5717,3.61259 -0.499982,-0.160629 -1.420878,0.554571 -1.493248,-0.296037 z"
           id="path2_2"
           inkstitch:fill_method="auto_fill"
           inkstitch:fill_underlay="True"
           inkstitch:underpath="True"
           inkstitch:lock_start="half_stitch"
           inkstitch:meander_scale_percent="2"
           inkstitch:clockwise="True"
           inkstitch:join_style="0"
           inkstitch:angle="30" /></g><g
         id="centerline_group_1"
         inkscape:label="Centerline Group"
         style="display:inline"><g
           id="g26"
           style="display:inline"><path
             id="path1"
             style="display:inline;fill:none;stroke:#030202;stroke-width:0.264583px"
             d="m 30.213122,65.10306 c 1.126168,-0.01874 2.185569,-0.56008 3.329809,-0.401012 1.120919,-0.0079 2.220184,0.281945 3.287433,0.600931 M 30.19721,64.10319 c 1.091238,-0.06073 2.130663,-0.547128 3.244589,-0.399988 1.247691,-0.02915 2.476962,0.2834 3.664445,0.638589 m -6.247254,0.968435 c -0.0706,-0.49499 -0.1412,-0.98998 -0.211801,-1.484969 m 2.618768,1.130145 c -0.006,-0.499962 -0.01205,-0.999926 -0.01807,-1.499887 m 1.899137,1.670506 c 0.105159,-0.488815 0.210317,-0.977632 0.315476,-1.466446"
             inkstitch:satin_column="true"
             inkstitch:satin_method="satin_column"
             inkstitch:zigzag_underlay="False"
             inkstitch:contour_underlay="False"
             inkstitch:center_walk_underlay="True" /><path
             id="path33"
             style="fill:none;stroke:#030202;stroke-width:0.264583px;stroke-dasharray:0.793749, 0.264583"
             d="m 36.968262,64.822311 c 0.703955,-1.046153 0.619756,-2.409147 1.265201,-3.497197 0.320876,-0.785814 0.673012,-1.557947 1.015078,-2.334628" /><path
             id="path4"
             style="fill:none;stroke:#030202;stroke-width:0.264583px"
             d="m 39.640651,58.680258 c -1.35398,-1.850092 -3.947277,-2.21932 -6.062803,-1.775157 -0.183756,0.01614 -0.365453,0.0074 -0.548619,-0.0113 m 5.827293,2.407078 c -1.161821,-1.586056 -3.403517,-1.77396 -5.190494,-1.39857 -0.238657,0.01727 -0.474474,0.01621 -0.712332,-0.01146 m 6.756204,0.474003 c -0.392067,0.310295 -0.784132,0.620592 -1.176199,0.930887 m -0.982288,-2.417521 c -0.170952,0.469868 -0.341905,0.939733 -0.512857,1.4096 m -1.815685,-1.813756 c 0.0015,0.499996 0.0029,0.999994 0.0044,1.49999"
             inkstitch:satin_column="true"
             inkstitch:satin_method="satin_column"
             inkstitch:zigzag_underlay="False"
             inkstitch:contour_underlay="False"
             inkstitch:center_walk_underlay="True" /><path
             id="path27"
             style="fill:none;stroke:#030202;stroke-width:0.264583px;stroke-dasharray:0.793749, 0.264583"
             d="m 32.991426,57.392244 c 0.113628,-1.22421 1.198034,-2.049603 1.986843,-2.885892 1.40814,-1.251596 3.177536,-2.440249 5.134744,-2.402175" /><path
             id="path8"
             style="display:inline;fill:none;stroke:#030202;stroke-width:0.264583px"
             d="m 40.374434,53.444242 c 0.338688,-0.367815 0.677375,-0.735633 1.016063,-1.103449 m 0.159244,2.462808 c 0.42519,-0.263083 0.850381,-0.526163 1.275571,-0.789246 m -0.184314,3.281673 c 0.498932,0.03266 0.997862,0.06532 1.496794,0.09798 m -4.393277,-4.951859 c 0.882464,0.928774 1.888869,1.756133 2.455648,2.937649 0.399248,0.611663 0.821324,1.297452 0.681828,2.061986 m -2.40039,-5.675427 c 0.936918,0.963592 1.9685,1.85366 2.569061,3.087466 0.524526,0.780113 0.984082,1.683952 0.829193,2.653276"
             inkstitch:satin_column="true"
             inkstitch:satin_method="satin_column"
             inkstitch:zigzag_underlay="False"
             inkstitch:contour_underlay="False"
             inkstitch:center_walk_underlay="True" /><path
             id="path30"
             style="fill:none;stroke:#030202;stroke-width:0.264583px;stroke-dasharray:0.793749, 0.264583"
             d="m 43.412077,57.489626 c 0.971753,0.359783 2.06261,0.07532 3.07904,0.267028 0.988974,0.07408 1.978914,0.168002 2.96709,0.02728" /><path
             id="path23"
             style="fill:none;stroke:#030202;stroke-width:0.264583px"
             d="m 49.926201,57.960163 c 0.806269,-1.83334 1.248432,-4.037851 0.271518,-5.893025 -0.0026,-0.07852 -0.0053,-0.157043 -0.0079,-0.235566 m -1.199485,5.776267 c 0.683566,-1.590697 1.177715,-3.508794 0.285652,-5.120197 -0.07783,-0.20185 -0.08515,-0.408802 -0.08552,-0.622521 m 1.294668,5.320169 C 50.01718,57.009128 49.549242,56.832968 49.081303,56.656806 m 1.927677,-2.19312 c -0.499995,-0.002 -0.999988,-0.0041 -1.499984,-0.0061 M 50.45942,52.07625 c -0.482364,0.131625 -0.964725,0.263249 -1.447089,0.394874"
             inkstitch:satin_column="true"
             inkstitch:satin_method="satin_column"
             inkstitch:zigzag_underlay="False"
             inkstitch:contour_underlay="False"
             inkstitch:center_walk_underlay="True" /><path
             id="path31"
             style="fill:none;stroke:#030202;stroke-width:0.264583px;stroke-dasharray:0.793749, 0.264583"
             d="m 49.690034,51.848288 c 1.682602,-0.207949 3.359842,0.299508 5.036314,0.423711 0.319928,0.04918 0.632673,0.138303 0.920733,0.287718" /><path
             id="path21"
             style="fill:none;stroke:#030202;stroke-width:0.264583px"
             d="m 55.578387,54.303795 c 0.468973,-0.173391 0.937944,-0.346781 1.406917,-0.520172 m -1.038715,2.444649 c 0.499265,-0.0271 0.998528,-0.0542 1.497793,-0.08131 m -1.622973,1.965294 c 0.49199,0.08913 0.983982,0.178265 1.475971,0.267398 m -2.071894,-5.679496 c 0.263001,1.003917 0.896815,1.907659 0.930237,2.985313 0.11626,0.968297 0.03055,1.950699 -0.166531,2.902997 m 0.212957,-6.103025 c 0.353356,1.017494 0.893539,2.00397 0.951766,3.114748 0.120253,1.056514 0.03327,2.127348 -0.180758,3.166543"
             inkstitch:satin_column="true"
             inkstitch:satin_method="satin_column"
             inkstitch:zigzag_underlay="False"
             inkstitch:contour_underlay="False"
             inkstitch:center_walk_underlay="True" /><path
             id="path32"
             style="fill:none;stroke:#030202;stroke-width:0.264583px;stroke-dasharray:0.793749, 0.264583"
             d="m 56.481131,58.677538 c 1.59456,0.484213 3.378706,0.133865 4.85363,-0.571214 1.552493,-0.866194 2.911534,-2.374587 3.235262,-4.149114 0.01663,-0.101369 -0.02044,-0.196794 -0.03851,-0.294362" /><path
             id="path15"
             style="display:inline;fill:none;stroke:#030202;stroke-width:0.264583px"
             d="m 64.819366,53.253994 c -1.857296,-1.343468 -3.887412,-3.054005 -6.337715,-2.756368 -0.09441,0.01918 -0.18882,0.03836 -0.283231,0.05753 m 6.045642,3.516771 C 62.587709,52.912306 60.8896,51.35256 58.729176,51.46777 c -0.110564,0.02246 -0.221125,0.04492 -0.331689,0.06738 m 5.994583,1.112661 c -0.287652,0.408969 -0.575301,0.81794 -0.862953,1.226909 M 62.72992,51.460195 c -0.277423,0.415975 -0.554849,0.831949 -0.832272,1.247924 m -1.615801,-2.335397 c -0.127799,0.48339 -0.255595,0.966781 -0.383394,1.450171"
             inkstitch:satin_column="true"
             inkstitch:satin_method="satin_column"
             inkstitch:zigzag_underlay="False"
             inkstitch:contour_underlay="False"
             inkstitch:center_walk_underlay="True" /><path
             id="path29"
             style="fill:none;stroke:#030202;stroke-width:0.264583px;stroke-dasharray:0.793749, 0.264583"
             d="m 58.297887,51.045093 c -0.381912,-1.583677 -0.569639,-3.237503 -0.450801,-4.863615 0.05197,-0.137122 0.103938,-0.274248 0.155908,-0.411371" /><path
             id="path18"
             style="fill:none;stroke:#030202;stroke-width:0.264583px"
             d="m 60.241014,46.063853 c -0.04205,-0.498229 -0.0841,-0.996454 -0.126145,-1.494683 m 1.954533,1.623328 c 0.118906,-0.485655 0.237815,-0.971308 0.356721,-1.456963 m 1.644685,2.157518 c 0.141137,-0.479665 0.282273,-0.959333 0.42341,-1.438998 m -6.438773,0.813357 c 1.568813,-0.453215 3.29749,-0.763211 4.849475,-0.05991 0.560493,0.21962 1.119086,0.434133 1.703642,0.583274 m -6.661607,-1.517188 c 1.824361,-0.594661 3.856758,-0.718909 5.631237,0.118821 0.425089,0.185148 0.867514,0.312513 1.312643,0.439026"
             inkstitch:satin_column="true"
             inkstitch:satin_method="satin_column"
             inkstitch:zigzag_underlay="False"
             inkstitch:contour_underlay="False"
             inkstitch:center_walk_underlay="True" /><path
             id="path28"
             style="fill:none;stroke:#030202;stroke-width:0.264583px;stroke-dasharray:0.793749, 0.264583"
             d="m 64.749638,46.310968 c 0.189838,-1.206768 -0.346958,-2.424147 0.02655,-3.628325 0.03744,-0.317941 0.163798,-0.606755 0.29365,-0.895748" /><path
             id="path14"
             style="fill:none;stroke:#030202;stroke-width:0.264583px"
             d="M 65.520392,41.570014 C 64.697515,39.689522 63.459232,37.618469 61.281347,37.19189 61.0596,37.127104 60.870523,37.001305 60.675385,36.882111 m 3.944028,5.121761 c -0.728775,-1.632295 -1.736289,-3.514533 -3.665266,-3.866323 -0.287773,-0.0885 -0.542681,-0.237622 -0.794741,-0.39884 m 5.20597,2.933156 c -0.45049,0.216929 -0.900982,0.433856 -1.351472,0.650785 m -0.153188,-2.913879 c -0.361701,0.345212 -0.723404,0.690424 -1.085105,1.035636 m -1.034067,-2.364843 c -0.146135,0.478167 -0.292267,0.956335 -0.438401,1.434503"
             inkstitch:satin_column="true"
             inkstitch:satin_method="satin_column"
             inkstitch:zigzag_underlay="False"
             inkstitch:contour_underlay="False"
             inkstitch:center_walk_underlay="True" /></g><g
           id="g33"
           style="display:inline"><path
             id="path13"
             style="fill:none;stroke:#030202;stroke-width:0.264583px"
             d="m 60.867412,37.52832 c 0.53065,-1.276798 2.089007,-1.582103 3.300763,-1.835629 1.922285,-0.262442 4.437726,0.228047 5.201688,2.253779 0.369385,1.289099 -0.622384,2.599142 -1.896666,2.82808 -0.788272,0.279074 -1.600899,0.495167 -2.441521,0.513881 m -5.064309,-4.195934 c 0.652686,-1.608062 2.549024,-2.116836 4.097702,-2.394828 2.278528,-0.311931 5.115617,0.356382 6.131762,2.638612 0.818278,1.777995 -0.459764,3.978291 -2.336168,4.362042 -0.887834,0.315624 -1.805342,0.564557 -2.75256,0.587179 M 61.3675,37.148982 c -0.387262,-0.316269 -0.774527,-0.632535 -1.161789,-0.948805 m 2.712335,0.06028 c -0.168981,-0.470579 -0.337959,-0.941156 -0.506941,-1.411736 m 2.444536,1.041322 c -0.01574,-0.499749 -0.03148,-0.999502 -0.04722,-1.499251 m 2.317686,1.815529 c 0.167354,-0.471159 0.334705,-0.942321 0.502059,-1.41348 m 1.007694,2.387058 c 0.383298,-0.321064 0.766597,-0.642125 1.149896,-0.963188 m -0.608284,2.467369 c 0.49918,0.02859 0.998361,0.05718 1.497542,0.08577 m -2.232099,1.277676 c 0.316309,0.387231 0.632621,0.774461 0.94893,1.161692 m -3.19824,-0.320723 c 0.104878,0.488876 0.209754,0.977751 0.314632,1.466626"
             inkstitch:satin_column="true"
             inkstitch:satin_method="satin_column"
             inkstitch:zigzag_underlay="False"
             inkstitch:contour_underlay="False"
             inkstitch:center_walk_underlay="True" /><path
             id="path11"
             style="display:inline;fill:none;stroke:#030202;stroke-width:0.264583px"
             d="m 64.311063,41.643486 c 0.454969,0.207367 0.90994,0.414734 1.364909,0.6221 m -1.79837,1.783671 c 0.499757,-0.01556 0.999512,-0.03113 1.49927,-0.04669 m -1.342621,2.044438 c 0.492674,0.08527 0.985346,0.170537 1.478021,0.255806 m -0.897338,-4.723237 c -0.634018,1.299163 -0.499687,2.78286 -0.301395,4.165978 0.01133,0.163036 -0.03166,0.320561 -0.05649,0.480197 m 1.267842,-4.231442 c -0.597092,1.196379 -0.324897,2.544397 -0.212161,3.810096 0.01264,0.201208 -0.03936,0.394824 -0.07035,0.591886"
             inkstitch:satin_column="true"
             inkstitch:satin_method="satin_column"
             inkstitch:zigzag_underlay="False"
             inkstitch:contour_underlay="False"
             inkstitch:center_walk_underlay="True" /><path
             id="path12"
             style="fill:none;stroke:#030202;stroke-width:0.264583px"
             d="m 64.129945,46.759616 c 0.454958,-0.207393 0.909917,-0.414789 1.364875,-0.622183 m -0.978528,2.64206 c 0.499866,0.01155 0.999732,0.02309 1.499598,0.03464 m -1.640401,2.174885 c 0.497876,0.04603 0.995752,0.09205 1.493629,0.138081 m -1.725417,1.725007 c 0.46079,0.194093 0.921579,0.388183 1.382369,0.582276 m -1.231327,-6.91597 c 0.910147,1.837796 0.266287,3.933365 0.221176,5.880119 -0.04044,0.357952 -0.169064,0.701328 -0.397052,0.98237 m 1.085796,-7.277276 c 1.025222,2.025653 0.376827,4.347123 0.293004,6.498603 -0.0696,0.485293 -0.244715,0.957603 -0.553105,1.342791"
             inkstitch:satin_column="true"
             inkstitch:satin_method="satin_column"
             inkstitch:zigzag_underlay="False"
             inkstitch:contour_underlay="False"
             inkstitch:center_walk_underlay="True"
             inkscape:label="path12" /><path
             id="path19"
             style="fill:none;stroke:#030202;stroke-width:0.264583px"
             d="m 62.994942,55.669578 c 0.409387,0.287057 0.818776,0.574111 1.228163,0.861168 m -2.627153,0.533343 c 0.280307,0.414038 0.560614,0.828076 0.840921,1.242114 m -3.016217,-0.323804 c 0.09305,0.491264 0.186102,0.982529 0.279154,1.473793 m -2.467478,-1.350363 c -0.08585,0.492575 -0.171706,0.985146 -0.257561,1.47772 m 7.068155,-5.814674 c 0.08422,0.880521 -0.610414,1.669878 -1.085107,2.366465 -1.401388,1.773857 -3.848273,2.56419 -6.037541,2.155324 -0.0968,-0.03015 -0.193603,-0.0603 -0.290404,-0.09045 m 8.390491,-4.643162 c 0.260754,1.15554 -0.606938,2.200928 -1.204012,3.118497 -1.559132,2.033953 -4.242937,2.975209 -6.745927,2.670865 -0.255431,-0.02763 -0.493897,-0.116544 -0.737917,-0.191434"
             inkstitch:satin_column="true"
             inkstitch:satin_method="satin_column"
             inkstitch:zigzag_underlay="False"
             inkstitch:contour_underlay="False"
             inkstitch:center_walk_underlay="True" /><path
             id="path24"
             style="fill:none;stroke:#030202;stroke-width:0.264583px"
             d="m 56.40061,58.184141 c -1.748496,0.242418 -3.51022,-0.181367 -5.253898,-0.325996 -0.459594,-0.100724 -1.007091,-0.106674 -1.362399,-0.45318 m 6.777466,1.766102 C 54.712568,59.451745 52.84671,59.00208 51.002186,58.848104 50.357945,58.725332 49.612882,58.656874 49.132211,58.16309 m 7.086361,-0.202533 c 0.08058,0.493464 0.161171,0.986924 0.241755,1.480387 M 54.347444,57.95688 c -0.05493,0.496971 -0.109855,0.993945 -0.164783,1.490917 M 51.637513,57.66982 c -0.05731,0.496705 -0.114622,0.993406 -0.171934,1.490111"
             inkstitch:satin_column="true"
             inkstitch:satin_method="satin_column"
             inkstitch:zigzag_underlay="False"
             inkstitch:contour_underlay="False"
             inkstitch:center_walk_underlay="True" /><path
             id="path10"
             style="fill:none;stroke:#030202;stroke-width:0.264583px"
             d="m 49.407245,57.286612 c -1.86295,0.222884 -3.74132,-0.193977 -5.598571,-0.159621 -0.0694,-0.03392 -0.138792,-0.06784 -0.20819,-0.101756 m 5.908795,1.256164 c -1.925291,0.248935 -3.862176,-0.210466 -5.784422,-0.137867 -0.200446,-0.04351 -0.383426,-0.123176 -0.563496,-0.219868 m 5.854627,-0.848219 c 0.05102,0.49739 0.102034,0.994779 0.15305,1.492169 m -2.10962,-1.515695 c -0.03101,0.499037 -0.06202,0.998073 -0.09302,1.497111 M 45.01903,56.908811 c -0.01533,0.499763 -0.03065,0.999528 -0.04598,1.499291"
             inkstitch:satin_column="true"
             inkstitch:satin_method="satin_column"
             inkstitch:zigzag_underlay="False"
             inkstitch:contour_underlay="False"
             inkstitch:center_walk_underlay="True" /><path
             id="path7"
             style="display:inline;fill:none;stroke:#030202;stroke-width:0.264583px"
             d="M 43.197392,57.009342 C 41.87068,57.557759 40.2723,57.47409 39.161816,58.490681 l -0.08104,0.02888 m 4.483681,-0.580022 c -1.269516,0.577236 -2.842904,0.422674 -3.901538,1.43418 -0.08217,0.02928 -0.164343,0.05855 -0.246514,0.08783 m 3.399224,-2.570318 c 0.183528,0.465098 0.367059,0.930195 0.550587,1.395292 m -2.400059,-0.94603 c 0.121034,0.485129 0.242067,0.970255 0.363101,1.455384 m -2.290435,-0.526764 c 0.167815,0.470995 0.335629,0.941993 0.503444,1.412987"
             inkstitch:satin_column="true"
             inkstitch:satin_method="satin_column"
             inkstitch:zigzag_underlay="False"
             inkstitch:contour_underlay="False"
             inkstitch:center_walk_underlay="True" /><path
             id="path6"
             style="display:inline;fill:none;stroke:#030202;stroke-width:0.264583px"
             d="m 37.772255,60.485521 c 0.461208,0.193098 0.922413,0.386193 1.383621,0.579291 m -2.161069,1.363568 c 0.479478,0.141772 0.958958,0.283546 1.438435,0.425317 m -2.049018,1.494026 c 0.413017,0.28181 0.826031,0.56362 1.239047,0.84543 m 1.168211,-6.405221 c -0.745386,1.704896 -1.585686,3.385324 -1.934462,5.226234 -0.0724,0.192527 -0.18098,0.361085 -0.301733,0.526409 m 3.150403,-5.347402 c -0.743179,1.68234 -1.557333,3.346649 -1.906066,5.164417 -0.108077,0.267919 -0.240384,0.518111 -0.418303,0.746605"
             inkstitch:satin_column="true"
             inkstitch:satin_method="satin_column"
             inkstitch:zigzag_underlay="False"
             inkstitch:contour_underlay="False"
             inkstitch:center_walk_underlay="True" /><path
             id="path2"
             style="display:inline;fill:none;stroke:#030202;stroke-width:0.264583px"
             d="m 35.871512,67.183267 c 0.474096,0.158845 0.948194,0.31769 1.42229,0.476535 m -2.437516,1.235852 c 0.343987,0.362867 0.687971,0.725732 1.031958,1.0886 m -2.476724,-0.47317 c -0.0273,0.499253 -0.0546,0.998508 -0.0819,1.49776 m -1.434924,-2.049989 c -0.298211,0.401332 -0.596425,0.802665 -0.894637,1.203998 m -0.09115,-2.650651 c -0.470767,0.168452 -0.941537,0.336902 -1.412305,0.505354 m 1.161644,-2.532152 c -0.483089,-0.128932 -0.96618,-0.25786 -1.449269,-0.386791 m 7.277025,-0.144375 c 0.167446,0.87569 -0.236839,1.795275 -0.496935,2.634355 -0.443724,1.311183 -1.779582,2.590677 -3.252685,2.061278 -1.753238,-0.433154 -2.51496,-2.459418 -2.353403,-4.102605 0.04961,-0.26026 0.149934,-0.495254 0.273225,-0.728373 m 6.794396,-0.128371 c 0.317198,0.897582 -0.152342,1.849441 -0.342847,2.737617 -0.486708,1.792166 -2.049081,3.608838 -4.078788,3.313883 -1.699996,-0.20535 -3.07878,-1.563116 -3.443571,-3.218371 -0.31161,-1.01815 -0.377274,-2.183228 0.168727,-3.136314"
             inkstitch:satin_column="true"
             inkstitch:satin_method="satin_column"
             inkstitch:zigzag_underlay="False"
             inkstitch:contour_underlay="False"
             inkstitch:center_walk_underlay="True" /><path
             id="path3"
             style="fill:none;stroke:#030202;stroke-width:0.264583px"
             d="m 30.703029,64.556966 c -0.05795,-1.363311 0.679102,-2.616414 1.083896,-3.88983 0.454474,-0.966824 0.67166,-2.216132 1.536566,-2.900986 M 29.7073,64.649284 c -0.125211,-1.551617 0.713593,-2.976601 1.175166,-4.416813 0.431347,-0.973478 0.70649,-2.098085 1.417467,-2.894702 0.119832,-0.106431 0.239664,-0.212863 0.359497,-0.319294 M 30.931803,64.10328 C 30.432898,64.07024 29.933989,64.0372 29.435084,64.00416 m 2.009971,-1.68837 c -0.476112,-0.152691 -0.952227,-0.305384 -1.428339,-0.458075 m 2.126642,-1.423354 C 31.676229,60.25607 31.209097,60.07778 30.741968,59.899488 m 2.223365,-1.35722 C 32.514774,58.325481 32.064218,58.108695 31.61366,57.891906"
             inkstitch:satin_column="true"
             inkstitch:satin_method="satin_column"
             inkstitch:zigzag_underlay="False"
             inkstitch:contour_underlay="False"
             inkstitch:center_walk_underlay="True"
             inkscape:label="path3" /><path
             id="path5"
             style="display:inline;fill:none;stroke:#030202;stroke-width:0.264583px"
             d="m 33.488453,57.447092 c 0.105365,-1.06483 1.087629,-1.756728 1.749984,-2.506517 1.332508,-1.187385 3.015732,-2.384731 4.879802,-2.33636 m -7.623766,4.73331 c 0.08944,-1.34428 1.25017,-2.256173 2.10744,-3.169741 1.497953,-1.34019 3.416611,-2.62057 5.505965,-2.563505 M 33.803079,57.08234 C 33.32978,56.921135 32.856483,56.759927 32.383184,56.598722 m 3.014389,-1.464954 C 35.061314,54.763728 34.725056,54.39369 34.388797,54.02365 m 2.829575,-0.270962 c -0.254209,-0.430554 -0.508415,-0.86111 -0.762623,-1.291663 m 2.760587,0.455482 c -0.08761,-0.492264 -0.175215,-0.984529 -0.262823,-1.476793"
             inkstitch:satin_column="true"
             inkstitch:satin_method="satin_column"
             inkstitch:zigzag_underlay="False"
             inkstitch:contour_underlay="False"
             inkstitch:center_walk_underlay="True" /><path
             id="path9"
             style="display:inline;fill:none;stroke:#030202;stroke-width:0.264583px"
             d="m 40.426758,52.493598 c 0.839916,-0.670673 2.027222,-0.485224 3.03545,-0.611951 1.931017,-0.04457 3.885785,0.01226 5.792566,0.279018 l 0.09255,0.06077 0.06834,0.04487 M 39.79936,51.714906 c 1.040981,-0.892748 2.534517,-0.713324 3.812593,-0.836977 1.965738,-0.03755 3.95485,0.031 5.895714,0.301765 0.167084,0.05879 0.313073,0.148801 0.456853,0.250698 m -9.031972,1.016001 C 40.708491,51.999407 40.484437,51.552417 40.26038,51.105431 m 3.149845,1.027484 c -0.01154,-0.499866 -0.02307,-0.999732 -0.03461,-1.499598 m 2.155687,1.496574 c 0.01025,-0.499893 0.02051,-0.999788 0.03076,-1.49968 m 2.557091,1.645198 c 0.04442,-0.498022 0.08884,-0.996041 0.133268,-1.494063"
             inkstitch:satin_column="true"
             inkstitch:satin_method="satin_column"
             inkstitch:zigzag_underlay="False"
             inkstitch:contour_underlay="False"
             inkstitch:center_walk_underlay="True" /><path
             id="path22"
             style="fill:none;stroke:#030202;stroke-width:0.264583px"
             d="m 49.768607,52.342143 c 1.582204,-0.209844 3.156036,0.307731 4.735039,0.397319 0.343598,0.05323 0.686391,0.117848 0.988114,0.301333 m -5.880188,-1.686259 c 1.681115,-0.257555 3.354852,0.298127 5.031863,0.39388 0.450061,0.0682 0.895169,0.163046 1.292454,0.396435 m -6.007145,0.424968 c -0.07852,-0.493797 -0.157036,-0.98759 -0.235553,-1.481387 m 2.193499,1.578074 c 0.07563,-0.494247 0.151267,-0.98849 0.226901,-1.482737 m 1.93798,1.753019 c 0.04912,-0.49758 0.09824,-0.99516 0.14736,-1.492741"
             inkstitch:satin_column="true"
             inkstitch:satin_method="satin_column"
             inkstitch:zigzag_underlay="False"
             inkstitch:contour_underlay="False"
             inkstitch:center_walk_underlay="True" /><path
             id="path20"
             style="fill:none;stroke:#030202;stroke-width:0.264583px"
             d="m 55.928229,53.044499 c 0.673967,-0.248811 1.575857,-0.03396 2.03081,-0.753976 0.314409,-0.268626 0.523488,-0.628748 0.753741,-0.966231 m -3.21336,0.816815 c 0.628866,-0.389815 1.553216,0.0085 1.959353,-0.770682 0.162195,-0.18555 0.280966,-0.404656 0.424354,-0.604427 m -1.760826,2.463104 c -0.214405,-0.451696 -0.428812,-0.903393 -0.643217,-1.355089 m 2.953497,0.280397 c -0.384116,-0.320081 -0.768232,-0.640166 -1.152349,-0.960248"
             inkstitch:satin_column="true"
             inkstitch:satin_method="satin_column"
             inkstitch:zigzag_underlay="False"
             inkstitch:contour_underlay="False"
             inkstitch:center_walk_underlay="True" /><path
             id="path17"
             style="fill:none;stroke:#030202;stroke-width:0.264583px"
             d="m 58.7843,50.929108 c -0.363797,-1.551912 -0.600779,-3.187995 -0.414726,-4.775189 l 0.04985,-0.09886 0.03014,-0.05979 m -0.637952,5.165925 c -0.397459,-1.687312 -0.642691,-3.464527 -0.431217,-5.190494 0.03208,-0.152985 0.104222,-0.288583 0.176143,-0.425651 m 1.321772,4.701328 c -0.486346,0.116044 -0.972694,0.232084 -1.45904,0.348128 m 1.147954,-2.890961 c -0.498159,0.04284 -0.996322,0.08569 -1.494481,0.128532"
             inkstitch:satin_column="true"
             inkstitch:satin_method="satin_column"
             inkstitch:zigzag_underlay="False"
             inkstitch:contour_underlay="False"
             inkstitch:center_walk_underlay="True" /><path
             id="path16"
             style="fill:none;stroke:#030202;stroke-width:0.264583px"
             d="m 58.484948,45.636657 c -0.292182,-1.232986 -0.02971,-2.527001 0.0077,-3.779716 0.127579,-1.569253 0.530129,-3.461021 2.170303,-4.111065 m -3.141836,8.157788 c -0.357909,-1.333467 -0.06638,-2.738646 -0.02798,-4.096947 0.137689,-1.920705 0.725952,-4.11227 2.67848,-4.931774 m -1.55143,8.247423 c -0.495477,0.06709 -0.990956,0.13418 -1.486433,0.201271 m 1.524424,-2.152859 c -0.499977,-0.0047 -0.999952,-0.0094 -1.499929,-0.01413 m 1.727981,-2.365533 c -0.49064,-0.09629 -0.98128,-0.192572 -1.47192,-0.288859 m 2.263664,-1.706981 c -0.390128,-0.312729 -0.780253,-0.625461 -1.170381,-0.93819"
             inkstitch:satin_column="true"
             inkstitch:satin_method="satin_column"
             inkstitch:zigzag_underlay="False"
             inkstitch:contour_underlay="False"
             inkstitch:center_walk_underlay="True" /></g></g></g></g></svg>
