<?xml version="1.0" encoding="UTF-8" standalone="no"?>
<svg
   width="100mm"
   height="100mm"
   viewBox="-938 0 100 100"
   version="1.2"
   id="svg2"
   sodipodi:docname="90 - Ohne Titel - page 1_2.svg"
   inkscape:export-filename="90 - Ohne Titel - page 1.png"
   inkscape:export-xdpi="1000"
   inkscape:export-ydpi="1000"
   xml:space="preserve"
   inkscape:version="1.3.2 (091e20e, 2023-11-25)"
   xmlns:inkscape="http://www.inkscape.org/namespaces/inkscape"
   xmlns:sodipodi="http://sodipodi.sourceforge.net/DTD/sodipodi-0.dtd"
   xmlns="http://www.w3.org/2000/svg"
   xmlns:svg="http://www.w3.org/2000/svg"
   xmlns:rdf="http://www.w3.org/1999/02/22-rdf-syntax-ns#"
   xmlns:cc="http://creativecommons.org/ns#"
   xmlns:dc="http://purl.org/dc/elements/1.1/"
   xmlns:inkstitch="http://inkstitch.org/namespace"><sodipodi:namedview
   id="namedview2"
   pagecolor="#ffffff"
   bordercolor="#000000"
   borderopacity="0.25"
   inkscape:showpageshadow="2"
   inkscape:pageopacity="0.0"
   inkscape:pagecheckerboard="0"
   inkscape:deskcolor="#d1d1d1"
   inkscape:zoom="2.6427309"
   inkscape:cx="155.71014"
   inkscape:cy="173.11638"
   inkscape:window-width="1680"
   inkscape:window-height="924"
   inkscape:window-x="0"
   inkscape:window-y="25"
   inkscape:window-maximized="0"
   inkscape:current-layer="svg2"
   inkscape:document-units="mm" /><defs
   id="defs2" /><title
   id="title1">90 - Ohne Titel</title>\n<metadata
   id="metadata75"><rdf:RDF><cc:Work
       rdf:about=""><dc:title>90 - Ohne Titel</dc:title></cc:Work></rdf:RDF><inkstitch:min_stitch_len_mm>0</inkstitch:min_stitch_len_mm><inkstitch:collapse_len_mm>3</inkstitch:collapse_len_mm><inkstitch:inkstitch_svg_version>1</inkstitch:inkstitch_svg_version></metadata><g
   id="g149"
   style="display:inline;stroke:none"><g
     id="g350"><path
       style="fill:#bc2130;fill-rule:evenodd;stroke:none;stroke-width:0.264583"
       d="m -873.34418,33.843408 c 0.09,-0.496056 -0.21691,-1.167445 -0.80103,-2.588505 -4.50626,-2.641119 -9.65702,-3.368377 -14.77934,-3.311231 -0.51077,0.383581 -0.72081,0.744707 -2.61514,2.327708 6.89538,-0.259318 9.98724,0.871085 18.19551,3.572028 z"
       id="path149_10"
       sodipodi:nodetypes="ccccc" /></g><g
     id="g346"><path
       style="fill:#b1a4a0;fill-rule:evenodd;stroke:none;stroke-width:0.264583"
       d="m -870.3993,49.809466 c 0.98511,-0.418364 1.9259,-0.722831 2.63866,-1.365918 1.98841,-2.222515 1.7446,-6.221539 -0.39661,-8.908269 -1.52472,-2.01041 -2.65743,-3.389696 -5.00885,-4.796506 -3.74022,-1.787687 -8.51295,-2.679054 -12.5259,-3.597237 -5.50092,-0.852035 -10.45045,0.361898 -14.27449,3.578118 -1.88693,1.287244 -3.01139,3.458937 -2.85823,5.583879 0.13327,1.636964 0.80617,4.738897 3.15666,6.528143 1.22952,-4.455387 3.38744,-8.610167 7.66375,-10.167428 1.76326,-0.933719 4.2196,-1.346511 6.15997,-1.413985 2.10097,0.140842 6.82429,1.06413 9.84566,3.031038 1.61681,0.814983 3.17449,2.774133 4.81508,7.699663 0.3134,1.385037 0.58139,2.422754 0.7843,3.828502 z"
       id="path149_13"
       sodipodi:nodetypes="ccccccccccccc" /><path
       id="path149_12"
       style="fill:#b1a4a0;fill-rule:evenodd;stroke:none;stroke-width:0.264583"
       d="M -873.68041 19.064469 C -875.16673 19.028474 -876.55498 19.426753 -879.1023 20.761523 C -882.24406 22.455837 -884.61239 24.016908 -887.35606 26.294002 C -887.87158 26.818968 -888.47345 27.427107 -888.8986 27.943514 C -883.80057 27.889268 -878.6756 28.614333 -874.18684 31.231169 C -874.47435 29.445394 -875.24518 27.361555 -873.3409 26.324491 C -871.47964 25.946008 -870.77533 26.712419 -869.02643 28.064437 C -867.34687 29.453673 -863.28904 32.669001 -861.27342 31.949471 C -859.89048 31.946071 -857.94915 31.270433 -858.91697 30.294792 C -859.85205 29.352145 -859.31696 30.808229 -863.62263 26.302271 C -865.67868 24.108686 -867.74813 20.309105 -871.47486 19.335771 C -872.30885 19.187277 -873.00481 19.080831 -873.68041 19.064469 z " /></g><g
     id="g349"><path
       id="path149_8"
       style="fill:#2f3032;fill-rule:evenodd;stroke:none;stroke-width:0.264583;fill-opacity:1"
       d="m -894.99281,42.831494 c -0.0741,0.355136 -0.19865,0.830428 -0.40669,1.49965 -0.50197,2.467428 2.69973,4.269266 4.59714,2.670121 1.80139,-0.984779 2.7498,-4.132876 0.51263,-5.165576 -0.61328,-0.585625 -2.57238,-0.945394 -4.02767,0.05839 z m 2.88665,-0.327628 c 0.22535,0.0053 0.4654,0.07184 0.71365,0.214974 1.6905,0.69695 0.87806,3.081306 -0.72605,3.223059 -0.21207,0.02441 -0.42247,0.04461 -0.63459,0.0036 -1.8056,-0.526164 -0.93045,-3.478804 0.64699,-3.44165 z"
       sodipodi:nodetypes="ccccccscccs" /><path
       id="path149_7"
       style="fill:#2f3032;fill-rule:evenodd;stroke:none;stroke-width:0.264583"
       d="M -879.88882 41.402641 C -880.49314 41.402053 -881.09599 41.529142 -881.60344 41.769543 C -882.11895 42.851 -882.84205 44.068181 -882.09127 45.281991 C -881.40824 46.433759 -879.96575 47.348368 -878.60208 46.906181 C -876.9817 46.626339 -876.04637 44.870554 -876.88383 43.41182 C -877.22357 42.023049 -878.55932 41.403934 -879.88882 41.402641 z M -879.54672 42.036711 C -877.70055 42.061999 -877.13179 45.183126 -878.98913 45.812708 C -879.42979 45.920191 -879.89037 45.848658 -880.3105 45.693335 C -882.22571 45.221623 -881.67555 42.524037 -880.04281 42.100789 C -879.86871 42.055066 -879.70318 42.034567 -879.54672 42.036711 z " /><path
       id="path149_5"
       style="fill:#2f3032;fill-rule:evenodd;stroke:none;stroke-width:0.264583"
       d="M -886.3091 44.222107 C -887.66101 44.230983 -888.37137 46.343509 -887.00105 47.012118 C -886.28795 47.184185 -885.44875 47.358563 -884.72728 47.204871 C -883.19374 46.348921 -884.29823 44.154294 -885.87088 44.290837 C -886.02288 44.242811 -886.16925 44.221189 -886.3091 44.222107 z " /><path
       id="path149_3"
       style="fill:#2f3032;fill-rule:evenodd;stroke:none;stroke-width:0.264583"
       d="M -883.71132 48.818726 C -883.78146 48.818742 -883.85844 48.82643 -883.94232 48.84353 C -885.08911 49.376897 -886.62221 48.498796 -887.68059 49.393884 C -887.83649 50.694349 -885.87018 50.368724 -885.04458 50.58606 C -884.74899 50.63027 -884.45461 50.653243 -884.16039 50.588643 C -883.12147 50.619103 -882.65925 48.81848 -883.71132 48.818726 z " /><path
       id="path149_2"
       style="fill:#2f3032;fill-rule:evenodd;stroke:none;stroke-width:0.264583"
       d="M -879.85575 43.002543 C -880.05576 43.01005 -880.24553 43.164019 -880.35649 43.547213 C -880.64851 44.201596 -880.12427 44.881833 -879.4258 44.55542 C -878.67634 44.112621 -879.26739 43.034791 -879.81544 43.00306 C -879.82884 43.002284 -879.84241 43.002043 -879.85575 43.002543 z " /><path
       id="path149_1"
       style="fill:#2f3032;fill-rule:evenodd;stroke:none;stroke-width:0.264583"
       d="M -891.94803 43.691907 C -892.2574 43.68258 -892.53341 43.943718 -892.38366 44.654122 C -892.32856 45.024972 -891.8576 44.984454 -891.5987 44.90837 C -890.97189 44.297112 -891.49587 43.705538 -891.94803 43.691907 z " /></g><g
     id="g348"><path
       id="path149_11"
       style="fill:#e4e8ff;fill-rule:evenodd;stroke:none;stroke-width:0.264583"
       d="M -880.03558 38.596094 C -880.95178 38.601127 -882.0328 39.453627 -882.9925 39.40483 C -884.71684 39.709836 -886.44212 40.765587 -888.22268 39.989807 C -890.14323 39.44242 -892.48452 39.496308 -893.76032 41.27345 C -893.95534 41.471006 -894.14074 41.6787 -894.3174 41.894084 C -892.86211 40.890294 -890.90301 41.250063 -890.28973 41.835689 C -888.05255 42.86839 -889.00096 46.016485 -890.80236 47.001265 C -892.69977 48.600411 -895.90147 46.798574 -895.3995 44.331144 C -895.19146 43.661921 -895.0669 43.18663 -894.99281 42.831494 C -895.81707 44.099573 -896.40866 45.54648 -896.83559 46.965609 C -897.27109 48.572967 -896.3363 50.050104 -894.95767 50.813436 C -893.36761 51.675811 -891.67836 52.498312 -889.80501 52.426774 C -888.92762 52.513194 -888.08427 52.691847 -887.19225 52.594206 C -884.72158 52.662826 -882.28238 52.16918 -880.02679 51.200492 C -878.8088 50.698296 -878.58415 50.634341 -878.08634 50.187118 C -876.75325 49.47753 -874.53092 48.661767 -875.06844 46.783708 C -876.00083 44.129604 -877.23051 41.544178 -878.91523 39.278739 C -879.23647 38.766609 -879.61913 38.593806 -880.03558 38.596094 z M -879.88882 41.402641 C -878.55932 41.403934 -877.22357 42.023047 -876.88383 43.41182 C -876.04637 44.870555 -876.9817 46.626339 -878.60208 46.906181 C -879.96576 47.348369 -881.40824 46.433761 -882.09127 45.281991 C -882.84205 44.06818 -882.11895 42.851001 -881.60344 41.769543 C -881.09599 41.529141 -880.49314 41.402053 -879.88882 41.402641 z M -886.3091 44.222107 C -886.16925 44.221189 -886.02288 44.242811 -885.87088 44.290837 C -884.29823 44.154294 -883.19374 46.348921 -884.72728 47.204871 C -885.44875 47.358564 -886.28795 47.184186 -887.00105 47.012118 C -888.37138 46.343509 -887.66101 44.230983 -886.3091 44.222107 z M -883.71132 48.818726 C -882.65924 48.81848 -883.12147 50.619103 -884.16039 50.588643 C -884.45461 50.653243 -884.74899 50.63027 -885.04458 50.58606 C -885.87018 50.368724 -887.83649 50.69435 -887.68059 49.393884 C -886.62221 48.498795 -885.08911 49.376897 -883.94232 48.84353 C -883.85844 48.82643 -883.78146 48.818742 -883.71132 48.818726 z " /><path
       id="path149_6"
       style="fill:#e4e8ff;fill-opacity:1;fill-rule:evenodd;stroke:none;stroke-width:0.264583"
       d="m -879.54672,42.036711 c -0.59836,-0.01137 -1.17931,0.296772 -1.52783,0.77915 -0.42017,0.565784 -0.59394,1.355009 -0.31194,2.018962 0.18529,0.445968 0.61307,0.753064 1.07601,0.85851 0.44445,0.160837 0.94965,0.245592 1.40662,0.08804 0.53947,-0.201527 0.92155,-0.71601 1.0173,-1.276846 0.14182,-0.771357 -0.11197,-1.639549 -0.73321,-2.140417 -0.26178,-0.208247 -0.59253,-0.324787 -0.92695,-0.327397 z m -0.30903,0.965832 c 0.3367,0.0061 0.58751,0.303761 0.70972,0.591881 0.13372,0.296743 0.0927,0.691936 -0.18308,0.894715 -0.28142,0.228233 -0.75439,0.199199 -0.96611,-0.111002 -0.18633,-0.248765 -0.17592,-0.593205 -0.0507,-0.866179 0.0705,-0.228972 0.21809,-0.499124 0.49012,-0.509415 z" /><path
       id="path149_4"
       style="fill:#e4e8ff;fill-rule:evenodd;stroke:none;stroke-width:0.264583"
       d="M -892.10616 42.503866 C -893.6836 42.466712 -894.55875 45.419352 -892.75315 45.945516 C -892.54103 45.986526 -892.33063 45.966309 -892.11856 45.941899 C -890.51445 45.800146 -889.70201 43.415789 -891.39251 42.71884 C -891.64076 42.575706 -891.88081 42.509166 -892.10616 42.503866 z M -891.94803 43.691907 C -891.49587 43.705538 -890.97189 44.297111 -891.5987 44.90837 C -891.8576 44.984454 -892.32856 45.024972 -892.38366 44.654122 C -892.53341 43.943717 -892.2574 43.68258 -891.94803 43.691907 z " /></g><g
     id="g347"><path
       style="fill:#f4a731;fill-rule:evenodd;stroke:none;stroke-width:0.264583"
       d="m -883.69781,78.068471 c 3.9899,-0.510062 7.27485,-2.458635 9.08755,-4.846089 1.1864,-2.387454 2.01766,-4.361052 2.57218,-8.471365 0.44552,-0.01008 0.46562,-0.04332 0.76691,0.03617 -0.58635,4.71108 -2.01146,7.394599 -2.54861,8.741157 2.0098,1.370404 5.82595,2.872215 9.27336,2.415256 1.13045,-0.130564 2.54214,-0.201573 1.50967,-1.728293 -2.54992,-1.966111 -3.55338,-5.577342 -5.27285,-7.903 -3.82032,-10.264156 -1.09382,-6.152889 -4.17967,-12.883163 0.24395,-0.08335 0.35385,-0.198969 0.68607,-0.329311 0.48514,0.980442 0.26096,0.558531 0.84596,1.889853 0.34398,-2.820652 -0.2666,-7.763459 -1.9242,-11.47228 -1.2705,-2.522499 -1.87646,-3.746807 -4.28566,-5.123549 -3.77609,-1.673429 -7.69692,-2.84795 -11.37033,-2.138755 -2.87878,0.851318 -4.88064,1.583666 -6.89943,3.531478 -2.28839,3.006635 -4.01417,7.121494 -3.73194,10.009714 -0.0244,1.238071 -0.23991,1.704909 -0.41832,3.046731 0.85123,-1.056116 0.66666,-0.798929 1.12372,-0.388495 -2.25156,3.57851 -3.22497,7.708915 -4.38891,13.068385 -0.45758,1.89614 0.0689,7.070488 1.77955,9.452302 1.60297,2.350739 5.72439,3.275505 7.097,1.947215 -0.78502,-3.68276 -1.45255,-7.539302 -1.48547,-11.98829 0.31481,-0.03889 0.3888,-0.03925 0.74367,0.02814 0.0683,4.037526 0.55321,7.286023 1.192,10.363724 2.79075,0.0019 5.28778,-0.133755 8.18713,-0.134593 2.08386,-2.796221 4.00095,-6.170468 3.71527,-9.865126 0.68556,-0.271161 0.64345,-1.020735 0.60281,-0.285223 0.8094,4.760046 -2.89861,9.495899 -3.73199,10.721772 -0.47937,0.817409 -1.02919,2.10769 1.05453,2.305635 z m -3.49427,-25.474445 c 2.47067,0.06862 4.90984,-0.424902 7.16543,-1.393591 1.218,-0.502197 1.44259,-0.565972 1.9404,-1.013196 1.3331,-0.709588 3.55528,-1.525525 3.01776,-3.403586 -0.93239,-2.654106 -2.1622,-5.239352 -3.84693,-7.504793 -1.02794,-1.638819 -2.68139,0.197051 -4.07733,0.126074 -1.72434,0.305006 -3.44932,1.360432 -5.22988,0.584651 -1.92056,-0.547388 -4.26214,-0.49314 -5.53794,1.284003 -1.51413,1.533843 -2.45938,3.646642 -3.07477,5.692212 -0.4355,1.60736 0.49908,3.084149 1.87772,3.847482 1.59006,0.862376 3.27903,1.685147 5.15238,1.613609 0.87739,0.08642 1.72114,0.264776 2.61316,0.167135 z"
       id="path149_14"
       sodipodi:nodetypes="ccccccccccccccccccccccccccccccccccccccccc" /><path
       style="fill:#f4a731;fill-rule:evenodd;stroke:none;stroke-width:0.264583"
       d="m -906.38136,76.524031 c 0.75908,-0.04946 2.95386,-0.483712 4.42131,-1.486246 -1.07762,-1.97548 -1.60317,-4.281388 -1.78681,-6.784258 -2.14228,3.023079 -3.85107,4.563942 -5.39032,5.81306 -1.00089,1.951301 1.54845,2.536109 2.75582,2.457444 z"
       id="path149_9"
       sodipodi:nodetypes="scccs" /></g></g><g
   id="centerline_group_1"
   inkscape:label="Centerline Group"
   style="fill:none;stroke:#2f3032"><path
     d="m -895.10274,64.908859 c -0.022,3.700161 0.55911,7.364567 1.47663,11.882511 -0.44098,0.967259 -0.98606,0.992866 -1.63231,1.074041 -1.90263,0.238991 -4.08019,-0.521775 -5.4385,-1.875333 -1.93618,-1.929403 -2.37261,-5.029118 -2.70031,-7.742785 -0.1443,-1.194941 0.15979,-2.404956 0.34326,-3.594513 0.12819,-0.831139 0.32731,-1.650362 0.52801,-2.467028 0.24108,-0.980977 0.51564,-1.953963 0.8116,-2.9198 0.4123,-1.345497 0.76219,-2.720563 1.34234,-4.002666 0.47772,-1.055751 1.13488,-2.490831 1.74627,-3.005995"
     style="fill:none;stroke:#2f3032;stroke-width:0.799998"
     id="path343"
     sodipodi:nodetypes="ccaaaaaaac" /><path
     d="m -900.00975,54.288201 c -0.10396,-1.406661 0.32802,-2.798261 0.45513,-4.199461 0.19366,-1.443281 0.0282,-2.930069 0.58882,-4.31492 0.78612,-2.624619 2.16649,-5.110233 4.1299,-7.032963 2.2506,-1.653215 4.94579,-2.798498 7.73463,-3.071676 2.36064,-0.06834 4.69119,0.398088 6.91826,1.155591 2.5722,0.75424 5.23922,2.04684 6.59401,4.482424 1.07911,1.874591 1.89057,3.925204 2.37275,6.031634 0.36816,2.008242 0.83904,4.01396 0.74266,6.073436 -0.14676,1.011384 0.1739,2.17322 -0.3756,3.081697"
     style="fill:none;stroke:#2f3032;stroke-width:0.799998"
     id="path328" /><path
     d="m -874.35235,73.51277 c 1.25826,1.127332 2.8757,1.773038 4.46671,2.280043 2.26428,0.518251 4.69871,0.977655 6.95809,0.190242 0.95916,-0.319348 0.63146,-1.546781 0.008,-2.043372 -0.69658,-0.670503 -1.43181,-1.323663 -1.85907,-2.211323 -1.73071,-2.913976 -3.55641,-5.842892 -4.47129,-9.136857 -0.64421,-1.935329 -1.05501,-3.933545 -1.54082,-5.910221 -0.36168,-1.174367 -0.82009,-2.319039 -1.37555,-3.415266"
     style="fill:none;stroke:#2f3032;stroke-width:0.799998"
     id="path335" /><path
     d="m -881.35012,65.179724 c 0.31558,0.327131 0.0912,0.957344 0.14007,1.400775 -0.20883,3.288143 -1.88658,6.268801 -3.83471,8.844428 -0.27177,0.714171 -0.85277,1.737144 -0.22432,2.421084 0.92084,0.823545 2.24856,0.529128 3.321,0.233625 0.95652,-0.313872 1.93996,-0.556694 2.87239,-0.937017 1.29733,-0.64412 2.48265,-1.503822 3.59815,-2.422141 0.82675,-0.68029 1.44766,-1.573077 1.82496,-2.572705 0.91818,-2.22959 1.71143,-4.552091 1.94678,-6.964482 0.01,-0.136045 0.0159,-0.272338 0.0178,-0.408713"
     style="fill:none;stroke:#2f3032;stroke-width:0.799998"
     id="path336" /><path
     d="m -893.71636,75.710029 8.52778,-0.147768 0.0394,-8.02e-4"
     style="fill:none;stroke:#2f3032;stroke-width:0.799998"
     id="path342"
     sodipodi:nodetypes="ccc" /><path
     d="m -901.51772,75.245553 c -1.33754,0.773247 -2.6168,1.171111 -4.05441,1.507462 -1.10646,0.194296 -2.35985,0.202215 -3.4258,-0.504616 -0.79055,-0.507922 -1.13988,-1.955006 -0.2087,-2.525635 1.7957,-1.60927 3.8024,-3.667385 5.02435,-5.582609 0.14549,-0.336086 0.28392,-0.700801 0.62494,-1.019901"
     style="fill:none;stroke:#2f3032;stroke-width:0.799998"
     id="path325" /><path
     d="m -899.44153,47.429204 c -2.30652,-1.359695 -3.37552,-4.127068 -3.74431,-6.660248 -0.38012,-2.554431 0.99661,-5.152179 3.17984,-6.464144 1.66237,-1.182498 3.34906,-2.464386 5.41792,-2.802207 1.32254,-0.374114 2.59238,-0.978322 4.00867,-0.84482 3.09114,-0.135812 6.19225,0.200659 9.16738,1.059367 2.84149,0.653373 5.6066,1.613267 8.33498,2.62441 2.61017,1.48562 4.61948,3.867541 6.16611,6.405855 1.03712,2.372588 1.47586,5.45894 -0.35901,7.571945 -0.76894,1.168115 -2.13545,1.434937 -3.30526,2.010418"
     style="fill:none;stroke:#2f3032;stroke-width:0.799998"
     id="path345" /><path
     d="m -892.69737,30.862202 c 0.93244,-1.008946 2.1044,-1.784194 3.05969,-2.785645 3.83216,-3.600138 8.02968,-7.044199 13.07608,-8.762781 1.59457,-0.736821 3.40891,-0.784293 5.07884,-0.287833 1.61836,0.432189 3.2034,1.20205 4.23521,2.567509 1.68579,1.836453 3.13543,3.88689 5.00661,5.55236 1.09297,1.010121 2.08836,2.165274 3.4687,2.792658 1.60271,1.186631 -0.83037,2.475487 -2.01761,2.36582 -2.41619,0.527858 -4.56293,-1.057068 -6.42796,-2.367281 -1.26617,-0.775523 -2.29735,-1.851974 -3.49932,-2.707801 -1.14487,-0.806583 -3.27808,-1.055911 -3.45603,0.808927 -0.33922,2.254314 1.05232,4.304214 1.40874,6.469201"
     style="fill:none;stroke:#2f3032;stroke-width:0.799998"
     id="path340" /></g></svg>
