<?xml version="1.0" encoding="UTF-8" standalone="no"?>
<!-- Created with Inkscape (http://www.inkscape.org/) -->

<svg
   width="70mm"
   height="70mm"
   viewBox="0 0 70 70"
   version="1.1"
   id="svg1"
   xml:space="preserve"
   inkscape:version="1.3.2 (091e20e, 2023-11-25)"
   sodipodi:docname="Wolf.svg"
   xmlns:inkscape="http://www.inkscape.org/namespaces/inkscape"
   xmlns:sodipodi="http://sodipodi.sourceforge.net/DTD/sodipodi-0.dtd"
   xmlns:xlink="http://www.w3.org/1999/xlink"
   xmlns="http://www.w3.org/2000/svg"
   xmlns:svg="http://www.w3.org/2000/svg"
   xmlns:inkstitch="http://inkstitch.org/namespace"><sodipodi:namedview
     id="namedview1"
     pagecolor="#505050"
     bordercolor="#eeeeee"
     borderopacity="1"
     inkscape:showpageshadow="0"
     inkscape:pageopacity="0"
     inkscape:pagecheckerboard="0"
     inkscape:deskcolor="#505050"
     inkscape:document-units="mm"
     inkscape:zoom="4"
     inkscape:cx="114"
     inkscape:cy="108.5"
     inkscape:window-width="1680"
     inkscape:window-height="925"
     inkscape:window-x="0"
     inkscape:window-y="528"
     inkscape:window-maximized="0"
     inkscape:current-layer="layer1" /><metadata
     id="metadata317"><inkstitch:min_stitch_len_mm>0</inkstitch:min_stitch_len_mm><inkstitch:collapse_len_mm>3</inkstitch:collapse_len_mm><inkstitch:inkstitch_svg_version>1</inkstitch:inkstitch_svg_version></metadata><defs
     id="defs1" /><g
     inkscape:label="Ebene 1"
     inkscape:groupmode="layer"
     id="layer1"><g
       id="g9"
       style="display:inline"
       transform="matrix(0.56774,0,0,0.56774,-31.3408,-49.3094)"><g
         id="g294"><path
           id="path153"
           style="display:inline;fill:#65759b"
           d="m 94.43713,101.50905 c -5.306643,-0.25292 -15.3217,18.60002 -16.600537,23.0451 -0.800639,2.34419 -1.531521,4.85143 0.06666,7.07761 1.153104,0.97109 2.899732,0.27439 4.081405,-0.29249 0.789705,-0.41541 1.777254,-1.04048 2.194181,-1.38906 2.529935,-2.53606 5.268542,-4.47095 8.462533,-6.06061 4.978548,-2.43966 4.465946,-1.40596 4.509802,-11.68921 0.01153,-2.703 0.320529,-7.42859 -0.767395,-9.31571 -0.526719,-0.91366 -1.18856,-1.3395 -1.946651,-1.37563 z" /><path
           id="path152"
           style="display:inline;fill:#65759b"
           d="m 117.27088,101.92504 c -1.03197,-0.0246 -1.85904,0.63511 -2.32906,2.24483 -0.35212,1.20598 -0.48699,16.79945 -0.15399,17.80356 0.39627,1.19492 4.54105,1.79712 9.86813,6.67246 3.96351,3.62743 7.67272,5.19824 8.92607,3.77962 2.39917,-4.23937 -3.17248,-14.7498 -5.62292,-18.98386 -2.65482,-5.21074 -7.59233,-11.44275 -10.68823,-11.51661 z" /></g><g
         id="g293"><path
           style="display:inline;fill:#2e315a"
           d="m 79.221059,172.41435 c -1.061557,-0.27096 -1.331827,-2.11136 -0.302398,-2.65474 2.134562,-1.12673 2.827215,-1.42046 5.800442,-1.53671 4.908658,-0.19192 9.951339,0.99994 9.951339,2.07493 0,0.85471 -0.654451,1.22907 -6.110299,1.04957 -6.34778,-0.20885 -7.419446,1.40699 -9.339084,1.06695 z"
           id="path66"
           sodipodi:nodetypes="ssssss" /><path
           style="display:inline;fill:#2e315a"
           d="m 128.40681,173.02713 c -0.94589,-0.10257 -2.95563,-0.71435 -4.19255,-0.94921 -4.25941,-0.80875 -5.19122,-0.65074 -6.95002,-0.66999 -2.16554,-0.0237 -2.3104,-0.42386 -2.3104,-1.16527 0,-1.28078 10.99028,-2.20274 13.87092,-1.12546 3.51134,1.31316 3.22373,4.30484 -0.41795,3.90993 z"
           id="path65"
           sodipodi:nodetypes="ssssss" /><path
           id="path61"
           style="display:inline;fill:#2e315a"
           d="m 105.99921,170.49605 c -3.01094,-0.004 -6.47982,0.38479 -7.69875,1.03715 -0.107324,0.0574 -0.187203,0.0902 -0.253731,0.0987 -1.42977,1.16615 -2.190424,5.41392 -0.433566,7.62796 2.587967,3.26144 11.203237,3.22619 13.772287,0.5395 2.09205,-2.18786 2.369,-6.80917 0.2806,-8.37727 l -1.32653,-0.46612 c -0.89208,-0.31353 -2.53374,-0.45745 -4.34031,-0.45992 z" /><path
           style="display:inline;fill:#2e315a"
           d="m 114.49584,183.76318 c 1.70929,-0.50258 3.10506,1.96912 -2.6736,3.30343 -1.80017,0.41567 -9.66326,1.545 -15.301675,0.009 -6.52263,-1.77696 -4.166116,-3.68752 -2.698919,-3.2215 7.635144,2.42511 12.703864,2.25265 20.674194,-0.0908 z"
           id="path54"
           sodipodi:nodetypes="sssss" /></g><g
         id="g296"><path
           id="path272"
           style="display:inline;fill:#b5b6d5"
           d="m 114.61382,91.771848 c -1.52545,0.218429 -2.70329,0.89394 -3.65486,2.272437 -0.54735,0.792941 -0.94463,1.947144 -1.14401,2.814989 -0.10208,0.444324 -0.22087,2.026682 -0.28927,4.328826 -0.13681,4.6043 -0.0516,11.59379 0.0108,15.89583 0.0312,2.15101 -0.0718,4.52619 0.0254,4.66825 1.16183,0.12819 1.89499,0.10335 3.01038,0.45069 0.20794,0.0972 0.45051,0.25783 0.51612,0.44007 0.13124,0.36449 0.10381,0.53129 -0.13239,0.84569 -0.29535,0.39312 -3.15873,0.14492 -4.59482,0.11036 -12.773889,-0.6274 -20.55572,5.71819 -22.376138,13.33021 -0.657344,2.74865 -1.020667,5.91034 -0.094,8.61126 1.486168,4.33168 3.703647,6.63704 8.086675,8.58973 1.281394,0.57087 3.528548,1.41963 5.094595,1.44888 0.29424,0.006 0.570635,-0.0415 0.68699,-0.12934 0.116355,-0.0878 0.299318,-0.324 0.301568,-0.48117 0.008,-0.55585 -0.223247,-1.50251 -0.706853,-2.5517 -0.394485,-0.85585 -0.653645,-1.68306 -0.82018,-2.58353 -0.166535,-0.90047 -0.391884,-2.41571 -0.333315,-3.31717 0.117139,-1.80294 0.393249,-2.67847 1.393727,-4.22363 0.256251,-0.39577 0.543271,-0.71648 0.910691,-1.1197 0.18733,-0.20558 0.63146,-0.6325 0.83523,-0.82083 0.80433,-0.74339 1.02423,-1.24013 1.76049,-1.21514 0.18409,0.006 0.23461,-0.0747 0.39423,0.0108 0.1264,0.0676 0.2352,0.15007 0.32711,0.24443 0.57423,0.58921 -0.0698,1.33701 -0.82829,1.94048 -3.039287,2.41817 -3.84792,5.17939 -2.60079,8.65439 0.29899,0.83311 0.86695,2.13133 1.08623,2.75915 0.28793,0.82438 0.15349,1.50207 0.1089,2.17278 -0.0351,0.52836 -0.60152,1.85455 -1.865002,2.30124 -0.300782,0.10633 -0.590239,0.15925 -0.948937,0.19386 -0.358699,0.0346 -1.191627,-0.17269 -1.60402,-0.21679 -1.494489,-0.35654 -10.350061,-2.77566 -12.720834,-10.52297 -0.733403,-2.23424 -0.817124,-4.55206 -0.72167,-6.88109 0.156408,-1.6885 0.356549,-2.49356 0.9329,-4.44934 0.288176,-0.97789 0.990679,-2.20633 1.319489,-3.11886 0.600678,-1.66703 2.206327,-3.02315 3.406324,-4.33086 1.995322,-2.19222 7.611058,-4.86239 11.47032,-5.70642 1.44878,-0.31685 1.11628,-1.10793 1.08884,-5.28703 -0.0137,-2.0907 0.12147,-5.72823 0.10097,-8.05872 -0.0216,-2.45191 0.11499,-6.67076 0.12949,-9.674932 0.24932,-4.412918 1.02819,-7.657176 -4.305943,-7.460023 -2.465004,0 -4.357911,0.522719 -6.41873,1.820467 -0.68694,0.432583 -1.428233,0.967367 -2.274797,1.624707 -0.808269,0.627604 -4.299376,3.95507 -5.218569,5.180471 -4.897887,6.52948 -8.843523,13.48 -12.495408,21.57651 -1.217295,2.69884 -2.498895,5.38718 -3.606225,8.39337 -0.419757,1.13957 -0.909135,2.49909 -1.360492,4.1339 -0.451356,1.63481 -0.988177,3.75079 -1.421319,5.66114 -0.436369,1.92459 -0.726788,3.80933 -1.093922,5.78977 -0.361631,1.95082 -0.666896,3.8261 -0.841075,5.62305 -0.860661,8.8792 -1.479333,19.25417 -0.790525,28.96419 0.587643,-0.0181 2.023382,0.0365 2.732135,0.0351 5.102431,-0.01 6.600471,-0.95293 7.059001,-4.44366 1.134064,-8.63348 5.045813,-16.66594 9.124507,-18.73633 4.42528,-2.2463 9.52143,-1.82782 12.197705,1.00201 2.121937,2.24369 4.306852,8.26844 4.329452,11.93881 0.0087,1.41722 0.04643,1.51054 0.509013,1.26297 1.950302,-1.04377 9.660202,-1.41333 12.039072,-0.57723 l 1.41283,0.49661 0.31781,-2.28254 c 1.23576,-8.87259 4.7874,-12.72925 11.43651,-12.41888 6.96007,0.32488 11.07427,5.4166 13.32064,16.48633 1.42771,7.03562 2.08799,7.74008 7.5401,8.04602 1.04661,0.0587 2.68721,0.14905 3.77339,0.20846 0.60354,-4.81848 0.3929,-11.32161 -0.50934,-19.86629 -0.29449,-2.78888 -0.69525,-5.98908 -1.14326,-9.37625 -0.4732,-4.59403 -1.32247,-9.27208 -2.23671,-13.79118 -1.33449,-6.63859 -3.41745,-12.81629 -6.37438,-19.74974 -0.04,-0.0939 -1.86283,-4.87524 -7.85509,-14.04499 -3.17179,-4.743939 -5.59382,-7.633344 -7.93955,-9.663167 -0.65827,-0.569612 -4.40195,-3.667881 -7.46895,-3.228715 z m -20.17669,9.737202 c 0.758091,0.0361 1.419932,0.46197 1.946651,1.37563 1.087924,1.88712 0.778925,6.61271 0.767395,9.31571 -0.04386,10.28325 0.468746,9.24955 -4.509802,11.68921 -3.193991,1.58966 -5.932598,3.52455 -8.462533,6.06061 -0.416927,0.34858 -1.404476,0.97365 -2.194181,1.38906 -1.181673,0.56688 -2.928301,1.26358 -4.081405,0.29249 -1.598183,-2.22618 -0.867303,-4.73342 -0.06666,-7.07761 1.278837,-4.44508 11.293894,-23.29802 16.600537,-23.0451 z m 22.83375,0.41599 c 3.0959,0.0739 8.03341,6.30587 10.68823,11.51661 2.45044,4.23406 8.02209,14.74449 5.62292,18.98386 -1.25335,1.41862 -4.96256,-0.15219 -8.92607,-3.77962 -5.32708,-4.87534 -9.47186,-5.47754 -9.86813,-6.67246 -0.333,-1.00411 -0.19813,-16.59758 0.15399,-17.80356 0.47002,-1.60972 1.29709,-2.26944 2.32906,-2.24483 z"
           sodipodi:nodetypes="csssssssscsssssssssssssscsssssscssssssssccsssssssssccssssscccssccsssscsscccccccccccssscccs" /><path
           id="rect292"
           style="fill:#b5b6d5;fill-opacity:1;stroke:none;stroke-width:0.215"
           d="m 82.039437,182.40385 c -2.356574,-0.11288 -3.968016,3.02912 -1.769401,4.5558 3.34044,2.31954 6.103131,-2.79657 2.815849,-4.29431 -0.358135,-0.16319 -0.709793,-0.24539 -1.046448,-0.26149 z" /><path
           id="rect293"
           style="fill:#b5b6d5;fill-opacity:1;stroke:none;stroke-width:0.215"
           d="m 127.43408,182.89581 c -2.94723,-0.25083 -3.80312,3.91064 -0.92604,4.98006 2.93546,1.09112 5.38856,-4.60026 0.92604,-4.98006 z" /></g><path
         id="path18"
         style="display:inline;fill:#fcfdfd"
         d="m 87.405518,155.89384 c -0.343647,-0.009 -0.691754,-0.002 -1.042831,0.0196 -1.685164,0.10626 -3.438922,0.57361 -5.098397,1.41593 -4.078674,2.07039 -7.990448,10.1029 -9.124507,18.73633 -0.45853,3.49073 -1.956595,4.43366 -7.059001,4.44366 -0.69929,0.001 -2.144793,-0.0496 -2.730001,-0.0315 0.113848,5.70528 2.341212,9.35694 7.422192,13.73782 1.058912,0.91301 4.521329,3.30159 7.496281,4.46285 9.174545,3.58125 23.889736,10.75149 39.204716,5.34738 9.37067,-3.30658 17.80178,-6.31383 23.65175,-10.36264 5.39735,-3.73556 7.44984,-7.52865 8.02481,-12.15966 -1.08382,-0.0592 -2.73975,-0.16123 -3.78311,-0.21975 -5.45211,-0.30594 -6.11239,-1.01045 -7.54011,-8.04602 -2.24636,-11.06968 -6.36056,-16.16145 -13.32064,-16.48633 -6.64905,-0.31037 -10.20075,3.54629 -11.43651,12.41888 l -0.31781,2.28254 10e-4,0.005 c 1.99486,1.64995 1.72375,6.15433 -0.3683,8.34219 -2.56905,2.68669 -11.18432,2.72194 -13.772287,-0.5395 -1.756854,-2.21404 -0.996203,-6.46181 0.433566,-7.62796 -0.220221,0.028 -0.248601,-0.27326 -0.255282,-1.36167 -0.0226,-3.67037 -2.207525,-9.69512 -4.329452,-11.93881 -1.463578,-1.54756 -3.650959,-2.37386 -6.056477,-2.43758 z m -1.765784,12.30881 c 4.59861,-0.0233 9.030456,1.08716 9.030456,2.09497 0,0.8547 -0.654378,1.22904 -6.110221,1.04954 -6.347774,-0.20885 -7.419329,1.40716 -9.338965,1.06712 -1.061556,-0.27096 -1.331735,-2.11124 -0.302307,-2.65462 2.13456,-1.12672 2.826939,-1.4206 5.800163,-1.53685 0.306791,-0.012 0.6143,-0.0186 0.920874,-0.0202 z m 38.691696,0.44029 c 1.90123,-0.004 3.59308,0.13774 4.49326,0.47439 3.51134,1.31314 3.22362,4.30474 -0.41806,3.90983 -0.94589,-0.10257 -2.95559,-0.71443 -4.19251,-0.94929 -4.25939,-0.80875 -5.19116,-0.65048 -6.94996,-0.66973 -2.16554,-0.0237 -2.31045,-0.42389 -2.31045,-1.1653 0,-0.88054 5.19502,-1.59162 9.37772,-1.5999 z m -42.291993,13.76091 c 0.336655,0.0161 0.688313,0.0983 1.046448,0.26149 3.287286,1.49775 0.524595,6.61385 -2.815849,4.29431 -2.198617,-1.52668 -0.587175,-4.66868 1.769401,-4.5558 z m 45.394643,0.49196 c 4.46252,0.3798 2.00942,6.07118 -0.92604,4.98006 -2.87708,-1.06942 -2.02119,-5.23089 0.92604,-4.98006 z m -12.47159,0.80099 c 1.44112,0.0172 2.0965,2.1606 -3.14037,3.36982 -1.80017,0.41567 -9.66302,1.54478 -15.301397,0.009 -6.522602,-1.77696 -4.166249,-3.68753 -2.69906,-3.22151 7.635107,2.42511 12.703897,2.25302 20.674187,-0.0904 v -5.2e-4 c 0.16025,-0.0471 0.31756,-0.0679 0.46664,-0.0661 z"
         sodipodi:nodetypes="sscsscssssccsscccssccssssscssssscssssscssssssscsccsccc" /><path
         id="path15"
         style="display:none;fill:#9194aa"
         d="m 91.217171,91.135522 c -3.062028,1.735978 -7.631355,6.085415 -9.556006,8.573637 -2.786807,3.602831 -5.085107,7.798661 -7.257438,11.841141 -4.633003,8.67564 -6.091088,11.54256 -6.883817,13.53405 -4.772624,11.98985 -6.036143,21.704 -6.366539,25.26771 -0.101186,1.0914 -0.238408,2.46062 -0.305408,3.04271 -0.480868,4.17794 -0.633497,5.76709 -0.90072,9.39271 -0.34394,4.66652 -0.18458,17.47284 0.240296,19.31458 0.789096,5.52929 2.495727,9.39879 6.859529,13.11235 5.164464,4.09114 11.449555,6.53216 17.656804,8.59327 15.159247,4.88016 19.517508,5.11134 26.929768,3.77847 6.00665,-1.08012 7.92916,-2.38508 13.15461,-4.19832 18.4082,-6.34937 22.90979,-13.03816 23.94996,-15.32253 2.07006,-4.54608 2.63189,-9.54445 1.9637,-17.47283 -0.14717,-1.74625 -0.38063,-4.66329 -0.51883,-6.48229 -0.13821,-1.81901 -0.43582,-4.61698 -0.66146,-6.21771 -0.59729,-3.66583 -0.94657,-7.21829 -1.47278,-10.85515 -0.98754,-7.10531 -2.62353,-14.06352 -4.87567,-20.89485 -1.641,-5.0622 -3.54946,-9.35314 -6.1774,-13.89063 -3.49098,-5.78804 -6.43991,-12.17366 -11.34103,-16.95888 -0.83951,-0.792443 -5.47363,-5.087565 -8.93473,-5.441818 -5.99083,-0.613177 -8.78113,3.49914 -9.22786,7.289478 -0.06,0.50947 -0.40472,13.28875 -0.13074,19.60862 0.18648,4.3017 0.0323,4.68964 -1.70119,4.66897 -2.68314,-0.032 -1.38417,-1.34527 -1.25471,-14.19341 0.14903,-14.790063 0.069,-15.288373 -1.28312,-16.226918 -3.269552,-2.269432 -7.604289,-1.682726 -11.905219,0.13764 z m 38.717499,13.906648 c 0.48736,0.74579 2.42711,3.87021 2.94763,4.71702 7.24571,11.78779 10.61603,27.3529 10.93732,28.95121 1.46496,7.28787 1.24578,5.95852 2.29495,13.89062 1.79206,13.54867 2.36265,21.85353 1.65726,28.575 -0.49635,4.72959 -3.24928,9.36082 -8.87102,13.00163 -5.44219,3.52453 -17.50753,7.68071 -23.58035,9.64189 -14.6814,4.74125 -28.372459,-2.10435 -37.547058,-5.6856 -2.97497,-1.16126 -5.450139,-3.05238 -6.520126,-3.95239 -5.149661,-4.3316 -6.867559,-6.74785 -8.013055,-11.93179 -0.859487,-3.77575 -0.641067,-22.73601 0.434362,-30.57478 0.989077,-7.20935 3.120163,-16.60841 4.799191,-21.16667 4.429329,-12.02482 9.681408,-21.32424 16.21193,-30.03021 0.919194,-1.2254 3.886017,-4.407225 4.694287,-5.03483 3.386261,-2.629361 5.086456,-3.29954 8.373132,-3.29954 5.345797,-0.144575 4.090837,3.092574 3.989897,7.105509 -0.0145,3.004171 -0.10986,7.367191 -0.21187,9.695531 -0.102,2.32833 -0.0732,5.92683 0.0641,7.99693 0.27653,4.17003 0.21578,4.40379 -1.233,4.72064 -3.859267,0.84403 -10.189466,4.12678 -12.18479,6.319 -1.428585,1.56955 -1.577197,1.77975 -2.794661,3.95221 -1.896764,3.38462 -2.08933,8.35261 -2.306319,10.66808 -0.157741,1.68324 1.244996,6.73957 2.633948,8.13491 3.27097,3.69459 7.42805,6.41718 12.420947,7.15873 3.299145,0.35331 4.952535,-1.91352 3.800805,-5.21105 -0.21928,-0.62782 -0.64307,-1.82306 -0.94206,-2.65617 -1.247127,-3.47501 -0.47109,-6.00421 2.5802,-8.40724 1.10458,-0.86991 1.20344,-2.36458 0.19224,-2.90576 -1.27692,-0.68345 -3.46637,1.36635 -4.497921,2.95951 -2.000958,3.09034 -2.258004,7.04521 -0.680062,10.46861 1.289611,2.79784 0.49165,3.40044 -2.925403,2.20762 -17.309945,-6.04256 -11.457264,-33.1465 15.405786,-30.0545 2.94575,0.33907 3.38178,-2.49179 0.45423,-2.94917 -0.63288,-0.0989 -1.24046,-0.31045 -1.34979,-0.47026 -0.38873,-0.56825 -0.20678,-22.363865 0.20154,-24.141163 1.06338,-4.628521 6.87653,-10.669308 19.56373,8.306473 z"
         sodipodi:nodetypes="sssssssssssssssssssssssssssssssssssssssssssssssssssssssssssssss" /><g
         id="centerline_group_1"
         inkscape:label="Centerline Group"><path
           id="path1"
           style="fill:none;stroke:#9194aa;stroke-width:1px"
           transform="scale(0.264583)"
           d="m 394.20238,462.25939 -0.37344,-9.9684 -0.0749,-17.09106 1.30575,-72.24612 -0.34585,-7.38667 -1.13967,-5.48246 -1.81805,-4.01192 -3.78461,-3.21202 -1.98002,-1.21348 -2.91451,-1.36243 -4.78369,-1.4064 -6.00076,-0.65731 -6.70165,0.16635 -6.08676,0.81461 -4.94147,1.15098 -4.86565,1.61807 -5.16564,2.25757 -3.83522,2.33941 -3.24241,2.24263 -6.44357,4.95519 -6.6084,6.13436 -8.42907,8.68614 -4.48908,5.19841 -5.98556,7.97331 -4.47609,6.40174 -7.02855,10.82278 -8.20904,13.80992 -8.28362,14.93889 -7.4925,14.25484 -7.1531,14.40864 -4.94324,10.71921 -2.7045,6.35645 -2.94704,7.53503 -3.10148,8.41647 -2.85225,8.53191 -2.59661,8.6638 -3.11503,11.63579 -3.19209,13.61027 -1.42928,6.76532 -2.21607,11.73677 -1.73047,10.84727 -1.39564,10.86727 -1.37898,13.06717 -1.29127,14.91642 -0.95132,15.08105 -0.61725,21.75432 -0.0244,17.0445 0.29418,14.97127 0.73228,14.06102 0.42828,3.90747 0.84279,4.9659 1.53791,6.76782 2.30937,7.53528 2.33292,5.59477 1.75255,3.45426 2.47975,4.17061 2.82068,4.01073 2.37339,2.94737 3.98259,4.42345 6.79589,6.36815 6.26835,4.99495 5.64602,4.07297 6.78201,4.2733 4.30053,2.45876 7.30976,3.69703 7.43544,3.18522 10.93171,4.36071 15.95496,5.97241 19.95173,6.5763 6.80222,2.00355 9.68005,2.5929 7.80422,1.81814 10.88789,2.01363 6.97852,0.94385 6.778,0.58609 5.99652,0.2444 7.00318,-0.0896 4.98599,-0.29492 5.7632,-0.59298 9.13728,-1.3822 4.91342,-0.9866 9.76285,-2.38416 11.99277,-3.88424 35.89818,-13.0709 13.79393,-5.57748 8.19908,-3.60567 9.02204,-4.28078 8.01191,-4.24609 7.75229,-4.63561 5.82331,-3.98173 4.93164,-3.77583 4.57268,-3.92618 2.92492,-2.80295 3.43059,-3.61709 3.18712,-3.82498 2.27421,-3.09907 2.58465,-4.12772 1.63021,-3.21592 2.35104,-5.5008 2.00582,-6.01075 0.94544,-3.72135 0.87149,-4.03839 0.70946,-5.01552 0.94275,-11.55205 0.21787,-8.99914 -0.29915,-11.99237 -0.76181,-13.05158 -1.60352,-19.95725 -1.06366,-11.03767 -1.37957,-11.79919 -4.98821,-37.74697 -1.74496,-11.88674 -1.93465,-10.84054 -2.32343,-11.6306 -1.72932,-7.92296 -2.61899,-10.65013 -2.84748,-10.56336 -4.35068,-14.37963 -2.82903,-8.57601 -3.35488,-9.40524 -3.22867,-8.28827 -3.93851,-9.21709 -4.20244,-9.01022 -5.04262,-9.8374 -9.44622,-16.65242 -10.87167,-18.05123 -4.93692,-7.55387 -3.97479,-5.6756 -4.77177,-6.38051 -5.00695,-6.09519 -5.99408,-6.49072 -5.15425,-4.87946 -7.08586,-5.85621 -5.73223,-3.9613 -6.12613,-3.38218 -1.98982,-0.89852 -3.81571,-1.34543 -3.02915,-0.70064 -4.07449,-0.44399 -3.09815,-0.007 -3.00376,0.27643 -2.33933,0.41653 -3.07476,0.88112 -2.85452,1.19151 -2.74084,1.5212 -3.72441,2.81239 -2.19301,2.19077 -1.92856,2.36692 -2.19927,3.43716 -1.33508,2.67546 -1.11442,2.69759 -1.09546,3.62801 -0.7354,4.13159 -0.22118,3.73875 -0.70381,25.96937 -0.17615,32.02156 0.43755,22.76151 -0.21397,10.25425 m -21.62723,1.16085 -0.37976,-10.137 -0.0761,-17.37434 1.30185,-72.02968 -0.29255,-6.24813 -0.74513,-3.58454 -0.40635,-0.89668 -1.43839,-1.22078 -0.81898,-0.50192 -1.69289,-0.79137 -3.17351,-0.933 -4.42124,-0.48429 -5.46495,0.13565 -5.05404,0.67639 -4.00653,0.93322 -3.97815,1.32293 -4.10456,1.79383 -2.99318,1.82579 -2.78979,1.92957 -5.86443,4.50981 -6.0664,5.63124 -8.03713,8.28226 -4.06732,4.70999 -5.67264,7.55649 -4.27731,6.11746 -6.82325,10.50662 -8.02736,13.50428 -8.15398,14.70511 -7.3845,14.04936 -7.0355,14.17176 -4.81816,10.44799 -2.5861,6.07815 -2.85556,7.30117 -3.01292,8.17613 -2.75215,8.23249 -2.50719,8.3654 -3.03477,11.33601 -3.12991,13.34513 -1.38312,6.54688 -2.16873,11.48603 -1.68313,10.55053 -1.36116,10.59873 -1.35682,12.85723 -1.27273,14.70218 -0.93268,14.78575 -0.60835,21.44028 -0.024,16.7995 0.28882,14.69853 0.70852,13.60478 0.36372,3.31853 0.74521,4.3909 1.39169,6.12438 2.05263,6.69752 1.99468,4.78363 1.42605,2.81074 2.10565,3.54139 2.40512,3.41987 1.98901,2.47003 3.50461,3.89255 6.18131,5.79225 5.75745,4.58785 5.18838,3.74283 6.32619,3.9861 3.88407,2.22064 6.78764,3.43297 7.01936,3.00698 10.71109,4.27269 15.66264,5.86299 19.60407,6.4617 6.52478,1.92185 9.39635,2.5169 7.41238,1.72686 10.41391,1.92597 6.48988,0.87775 6.3016,0.54491 5.49148,0.2238 6.49382,-0.083 4.52881,-0.26788 5.301,-0.54542 8.65472,-1.3092 4.46618,-0.8968 9.19235,-2.24484 11.46023,-3.71176 35.55762,-12.9469 13.48587,-5.45292 7.92452,-3.48493 8.68536,-4.12102 7.57949,-4.01691 7.25991,-4.34119 5.34089,-3.65187 4.48696,-3.43537 4.14412,-3.55822 2.54768,-2.44145 3.03721,-3.20231 2.77588,-3.33142 1.86579,-2.54253 2.14055,-3.41848 1.27119,-2.50768 2.05596,-4.8104 1.75518,-5.25965 0.80776,-3.17945 0.75491,-3.49821 0.61574,-4.35288 0.89445,-10.96035 0.20473,-8.45646 -0.28865,-11.57143 -0.74539,-12.77022 -1.58808,-19.76515 -1.04594,-10.85373 -1.35863,-11.62021 -4.96859,-37.59843 -1.71144,-11.65846 -1.88855,-10.58226 -2.28517,-11.439 -1.68148,-7.70384 -2.56001,-10.41027 -2.77752,-10.30384 -4.26892,-14.10937 -2.75097,-8.33939 -3.26432,-9.15136 -3.11533,-7.99733 -3.80829,-8.91231 -4.05176,-8.68718 -4.85738,-9.476 -9.27398,-16.34878 -10.70613,-17.77637 -4.74468,-7.25973 -3.78961,-5.4112 -4.53723,-6.06689 -4.67165,-5.68701 -5.56092,-6.02168 -4.65575,-4.40754 -6.48254,-5.35759 -4.94997,-3.4207 -5.31907,-2.93662 -1.21998,-0.55088 -2.86769,-1.01117 -1.88225,-0.43536 -2.93131,-0.31941 -2.07525,-0.005 -2.09684,0.19297 -1.39767,0.24887 -1.99844,0.57268 -1.78168,0.74369 -1.61796,0.898 -2.58979,1.95561 -1.32439,1.32303 -1.22944,1.50888 -1.59133,2.48704 -0.93052,1.86474 -0.78378,1.89721 -0.77714,2.57379 -0.5258,2.95401 -0.17622,2.97885 -0.69639,25.69603 -0.17485,31.78524 0.43905,22.83989 -0.21823,10.45875 m -19.4994,-28.12551 -15.30457,-0.27661 m -112.24251,5.5333 13.54944,7.12174 m -51.21899,104.76892 15.11593,2.41145 m -20.35054,41.35425 15.25004,1.32015 m -16.92454,28.09809 15.30091,0.43415 m 93.751,152.96688 4.79178,-14.53772 m 140.94624,6.00976 -5.23711,-14.3833 m 92.9674,-164.62084 -15.17513,2.00537 m 0.006,-88.70456 -14.77952,3.984 m -4.20676,-59.92401 -14.07585,6.0147 m -100.63089,-33.29982 -14.4294,0.004 m 23.02714,-66.84847 -7.67938,-11.99602 m 23.4294,9.99602 4.07064,-12.99602 m -54.5707,6.246 -9.67938,8.50401 m -20.82066,-2.004 -2.42938,-12.74602"
           inkstitch:satin_column="true"
           sodipodi:nodetypes="cccccccccccccccccccccccccccccccccccccccccccccccccccccccccccccccccccccccccccccccccccccccccccccccccccccccccccccccccccccccccccccccccccccccccccccccccccccccccccccccccccccccccccccccccccccccccccccccccccccccccccccccccccccccccccccccccccccccccccccccccccccccccccccccccccccccccccccccccccccccccccccccccccccccccccccccccccccccccccccccccccccccccccccccccccccccccc" /><path
           id="path2"
           style="fill:none;stroke:#9194aa;stroke-width:1px"
           transform="scale(0.264583)"
           d="m 427.85538,462.02093 -7.60318,-3.1289 -6.67831,-0.62341 -4.28036,-0.1374 -9.61006,0.0752 -9.15946,0.47457 -3.7847,0.38839 -2.65678,0.48014 -9.10528,2.03611 -7.52481,2.4152 -7.28518,2.97367 -6.44291,3.16431 -5.38638,3.07055 -6.58218,4.35721 -6.12165,5.00949 -4.65314,4.92821 -2.77011,3.50307 -2.25171,3.31517 -2.24132,3.64738 -2.20675,4.17061 -1.1887,2.61861 -1.74715,4.59638 -1.69849,5.82984 -1.07699,5.0732 -0.64638,4.11101 -0.5514,5.04718 -0.2561,4.14004 -0.0805,5.91329 0.20421,2.72634 0.61188,3.93413 2.05191,7.89119 1.73165,4.8236 2.30308,5.01146 1.97908,3.38505 2.77866,3.58717 3.27654,3.73371 4.58666,4.43728 5.45038,4.39521 5.81741,3.82406 3.41425,1.90185 4.58015,2.16577 4.5513,1.82858 5.78906,1.81377 4.00751,0.8862 3.31981,0.42976 2.86987,-0.003 2.95975,-0.48359 3.44461,-1.41293 2.59812,-2.03832 1.90828,-2.89591 0.68597,-1.83492 0.52856,-2.84184 -0.0102,-2.79002 -0.46913,-2.987 -0.88905,-3.1254 -3.36729,-9.04509 -0.61616,-2.05441 -0.66629,-3.08722 -0.35205,-2.8101 -0.0734,-3.14747 0.15931,-2.08347 0.32058,-2.02564 0.77657,-2.93949 1.00193,-2.58 0.97301,-1.92342 1.54815,-2.46504 2.79164,-3.37154 1.95223,-1.84248 3.20029,-2.60594 2.63297,-5.87836 M 427.389,467.915 l -6.00529,1.48856 -8.37656,-0.94345 -3.83744,-0.1232 -9.18214,0.0718 -8.67814,0.44963 -3.1397,0.32221 -2.06542,0.37326 -8.44872,1.88929 -6.71039,2.1538 -6.59542,2.69213 -5.84469,2.87049 -4.81782,2.74645 -5.86822,3.88459 -5.21495,4.26751 -3.89606,4.12639 -2.26329,2.86213 -1.91309,2.81663 -1.94748,3.16922 -1.90865,3.60719 -0.9283,2.04499 -1.48845,3.91582 -1.47851,5.07476 -0.94181,4.4364 -0.56682,3.60499 -0.4992,4.56942 -0.2261,3.65516 -0.0711,5.21631 0.14019,1.87146 0.47092,3.02787 1.80729,6.95041 1.42735,3.976 1.90992,4.15594 1.39052,2.37835 2.18054,2.81503 2.79546,3.18549 3.95594,3.82712 4.70582,3.79479 5.09039,3.34614 2.79075,1.55455 3.99785,1.89043 3.8973,1.56582 4.98814,1.56283 3.13569,0.6934 2.21259,0.28644 1.38393,-10e-4 0.99765,-0.16301 1.05579,-0.43307 0.17548,-0.13768 0.33944,-0.5151 0.18175,-0.97723 -0.004,-1.05258 -0.25227,-1.6062 -0.60875,-2.14 -3.34191,-8.97691 -0.82704,-2.75759 -0.84591,-3.91938 -0.47215,-3.7689 -0.0974,-4.17333 0.22949,-3.00133 0.46582,-2.94336 1.05503,-3.99351 1.39027,-3.58 1.41179,-2.79078 2.15465,-3.43076 3.61776,-4.36926 2.67957,-2.52892 3.82111,-3.11146 5.28398,-1.61181 m 12.0354,-68.42876 0.11974,15.30656 m -23.43288,-13.06099 3.34044,14.93809 m -13.05651,-12.36284 4.67797,14.5747 m -13.99614,-11.08458 5.7847,14.17189 m -17.8231,-8.1101 7.58069,13.29807 m -18.92542,-5.52209 9.69399,11.84617 m -19.64546,-1.854 12.00666,9.49449 m -22.40664,8.74186 14.30822,5.43875 m -19.02771,14.63686 15.21649,1.66238 m -14.03327,22.76377 14.81439,-3.85213 m 0.85499,31.50655 10.64309,-11.00136 m 0.11634,19.79646 8.4081,-12.79098 m 0.59968,18.03747 6.54342,-13.83795 m 28.72404,-10.00111 -14.34522,5.34042 m 12.02468,-19.80944 -15.11886,-2.39273 m 16.97053,-4.31665 -13.65877,-6.90964"
           inkstitch:satin_column="true"
           sodipodi:nodetypes="ccccccccccccccccccccccccccccccccccccccccccccccccccccccccccccccccccccccccccccccccccccccccccccccccccccccccccccccccccccccccccccccccccccccccccccccccccccccccccccccccccccccccccc" /></g></g></g></svg>
