<?xml version="1.0" encoding="UTF-8" standalone="no"?>
<!-- Created with Inkscape (http://www.inkscape.org/) -->

<svg
   width="70mm"
   height="70mm"
   viewBox="0 0 70 70"
   version="1.1"
   id="svg1"
   xml:space="preserve"
   inkscape:version="1.3.2 (091e20e, 2023-11-25)"
   sodipodi:docname="Panda_Aufnäher.svg"
   xmlns:inkscape="http://www.inkscape.org/namespaces/inkscape"
   xmlns:sodipodi="http://sodipodi.sourceforge.net/DTD/sodipodi-0.dtd"
   xmlns="http://www.w3.org/2000/svg"
   xmlns:svg="http://www.w3.org/2000/svg"
   xmlns:rdf="http://www.w3.org/1999/02/22-rdf-syntax-ns#"
   xmlns:cc="http://creativecommons.org/ns#"
   xmlns:dc="http://purl.org/dc/elements/1.1/"
   xmlns:inkstitch="http://inkstitch.org/namespace"><title
     id="title31">8DE86A95-AC12-4336-9E75-66626BB6DEED.webp.pdf</title><sodipodi:namedview
     id="namedview1"
     pagecolor="#ffffff"
     bordercolor="#000000"
     borderopacity="0.25"
     inkscape:showpageshadow="2"
     inkscape:pageopacity="0.0"
     inkscape:pagecheckerboard="0"
     inkscape:deskcolor="#d1d1d1"
     inkscape:document-units="mm"
     inkscape:zoom="2.0953525"
     inkscape:cx="134.58356"
     inkscape:cy="105.71014"
     inkscape:window-width="1680"
     inkscape:window-height="924"
     inkscape:window-x="101"
     inkscape:window-y="955"
     inkscape:window-maximized="0"
     inkscape:current-layer="layer1" /><metadata
     id="metadata5"><inkstitch:min_stitch_len_mm>0.1</inkstitch:min_stitch_len_mm><inkstitch:collapse_len_mm>3</inkstitch:collapse_len_mm><inkstitch:inkstitch_svg_version>2</inkstitch:inkstitch_svg_version><rdf:RDF><cc:Work
         rdf:about=""><dc:title>8DE86A95-AC12-4336-9E75-66626BB6DEED.webp.pdf</dc:title></cc:Work></rdf:RDF></metadata><defs
     id="defs1" /><g
     inkscape:label="Ebene 1"
     inkscape:groupmode="layer"
     id="layer1"><path
       style="stroke:#ee3636;stroke-width:0.37795324;fill:none;stroke-dasharray:none;stroke-opacity:1"
       d="m 146.901,196.107 -2.1,-0.265 -3.715,-0.738 -3.385,-0.997 -3.057,-1.254 -3.141,-1.481 -8.215,-0.133 -7.278,0.01 -1.943,0.118 -1.196,0.19 -4.763,0.925 -5.968,0.681 -6.6509,0.407 -7.0839,0.142 -7.2489,-0.12 -7.1417,-0.384 -6.7663,-0.651 -6.1114,-0.927 -7.2367,-1.589 -5.8852,-1.767 -2.4854,-0.98 -2.1086,-1.048 -1.8573,-1.268 -1.053,-1.218 -1.7942,-2.172 -1.2201,-1.431 -1.3851,-2.029 -2.4876,-4.551 -2.0734,-4.921 -0.801,-2.478 -0.443,-1.886 -0.3223,-0.879 -0.735,-1.247 -0.8067,-1.33 -0.7442,-1.727 -0.5375,-1.789 -0.3476,-1.825 -0.1578,-1.841 0.0482,-1.839 0.2953,-1.835 0.6212,-1.792 0.8187,-1.327 1.1328,-1.207 2.3028,-1.473 2.7717,-0.913 2.1256,-0.268 0.1649,-2.573 0.4042,-3.308 0.5897,-3.25 0.7721,-3.176 0.9518,-3.091 1.1289,-2.991 1.3043,-2.877 1.5285,-2.842 2.3117,-3.232 3.1126,-3.506 3.397,-3.276 3.056,-2.404 1.202,-0.897 0.4877,-0.501 0.0496,-0.083 0.1147,-0.563 0.3753,-1.182 0.8823,-1.354 1.8332,-2.0231 2.2608,-1.9541 2.3578,-1.515 3.1675,-1.2432 3.1944,-0.7369 3.2152,-0.2422 3.0832,0.297 2.2192,0.5947 0.9189,-0.8379 1.9532,-1.322 2.1159,-1.0623 2.2439,-0.8092 2.3422,-0.5567 2.4122,-0.2987 2.4541,-0.0307 2.4363,0.2496 4.1272,0.867 3.566,1.2383 3.141,1.7352 2.614,2.1327 0.291,0.2609 0.487,-0.2297 6.888,-3.6512 2.849,-1.6547 3.255,-2.0639 2.951,-2.0089 1.936,-1.4755 2.472,-2.189 1.282,-1.1349 2.655,-2.0693 3.184,-1.9394 3.559,-1.735 3.905,-1.5385 4.222,-1.3419 4.508,-1.1401 4.763,-0.9298 4.982,-0.7091 3.674,-0.3411 3.414,-0.0867 3.505,0.1802 3.959,0.4399 5.34,0.7992 4.592,1.0413 0.925,-0.8824 1.639,-1.4318 1.767,-1.2507 1.866,-0.9991 1.966,-0.7141 2.044,-0.3987 2.081,-0.0744 2.079,0.231 2.06,0.5013 2.222,0.7926 2.044,0.9851 1.87,1.1974 1.676,1.4153 1.453,1.6259 1.207,1.8162 0.951,1.978 0.728,2.2109 0.386,2.6087 -0.119,2.7748 -0.572,2.7682 -0.933,2.5215 -0.099,0.2318 1.104,1.4032 2.05,2.9738 2.054,3.2145 1.616,2.7977 2.723,5.781 2.298,6.157 1.97,6.81 1.731,7.666 1.071,4.664 0.746,3.088 0.644,3.585 0.504,3.814 0.361,3.936 0.212,3.947 0.053,3.847 -0.118,3.641 -0.299,3.25 -0.859,6.746 -0.589,4.044 -1.028,4.873 -1.466,7.381 -0.282,1.316 -0.828,1.652 -1.394,1.226 -1.435,0.711 -1.792,0.573 -2.26,0.5 -5.715,0.88 -7.273,0.77 -8.306,0.598 -6.772,0.244 -2.203,-0.166 -1.983,-0.442 -2.249,-0.952 -2.101,-1.359 -1.633,-1.518 -1.959,0.008 -3.395,-0.012 -3.3,-0.276 -2.458,-0.46 -1.535,1.614 -2.013,1.744 -2.159,1.549 -1.734,1.025 -1.731,0.805 -1.82,0.608 -1.965,0.456 -3.088,0.504 -3.112,0.332 -2.928,0.143 -2.488,-0.082 z"
       transform="scale(0.264583, 0.264583)"
       id="path31" /><path
       id="path6467"
       style="fill:none;stroke:#000000;stroke-width:1px"
       d="m 145.259,200.662 -1.215,-0.154 -4.088,-0.812 -3.823,-1.126 -3.394,-1.392 -2.33,-1.099 -7.156,-0.116 -7.097,0.01 -1.574,0.096 -0.89,0.141 -4.865,0.945 -6.275,0.716 -6.8713,0.42 -7.2674,0.146 -7.4231,-0.123 -7.3289,-0.394 -6.994,-0.673 -6.3923,-0.969 -7.5625,-1.661 -6.2461,-1.875 -2.8583,-1.127 -2.5817,-1.284 -2.6344,-1.798 -1.4899,-1.724 -1.8045,-2.184 -1.3604,-1.596 -1.6595,-2.43 -2.7146,-4.967 -2.2456,-5.329 -0.9232,-2.856 -0.4219,-1.797 -0.0763,-0.208 -0.502,-0.852 -0.961,-1.584 -0.9813,-2.277 -0.6863,-2.285 -0.4389,-2.304 -0.2011,-2.346 0.0634,-2.418 0.4109,-2.554 0.9265,-2.673 1.3416,-2.174 1.8617,-1.984 3.3007,-2.111 2.5146,-0.828 0.3228,-2.642 0.639,-3.522 0.8386,-3.449 1.037,-3.368 1.2348,-3.271 1.4336,-3.163 1.7472,-3.248 2.6315,-3.68 3.3993,-3.829 3.7003,-3.568 3.2904,-2.588 0.4098,-0.306 0.3846,-1.212 1.4378,-2.2061 2.2789,-2.515 2.7324,-2.3617 3.0327,-1.9486 3.9268,-1.5413 3.8835,-0.8958 3.9771,-0.2996 3.8775,0.3735 0.2857,0.0765 1.5679,-1.0612 2.642,-1.3264 2.7599,-0.9953 2.855,-0.6786 2.9305,-0.3629 2.9868,-0.0373 2.9528,0.3025 4.6649,0.9798 4.231,1.4694 3.867,2.1362 0.844,0.6886 4.485,-2.3776 2.691,-1.5626 3.112,-1.9734 2.783,-1.8944 1.697,-1.2935 2.342,-2.0742 1.393,-1.2329 2.291,-1.7856 0.695,-0.5417 3.605,-2.1958 3.924,-1.9129 4.226,-1.6649 4.509,-1.4332 4.771,-1.2067 5.01,-0.978 5.216,-0.7424 3.947,-0.3665 3.754,-0.0953 3.826,0.1967 4.188,0.4653 5.602,0.8385 2.353,0.5335 1.003,-0.8769 2.204,-1.56 2.424,-1.2979 2.631,-0.9556 2.771,-0.5404 2.798,-0.1001 2.725,0.3027 2.593,0.6311 2.69,0.9597 2.528,1.218 2.372,1.5191 2.167,1.8304 1.9,2.1252 1.575,2.3702 1.226,2.5504 0.951,2.8882 0.511,3.4544 -0.154,3.6046 -0.722,3.4903 -0.248,0.6702 1.752,2.5416 2.156,3.3732 1.768,3.0605 2.89,6.137 2.429,6.508 2.059,7.117 1.76,7.795 1.063,4.629 0.773,3.199 0.688,3.83 0.531,4.016 0.378,4.119 0.221,4.131 0.056,4.05 -0.126,3.89 -0.319,3.472 -0.875,6.87 -0.617,4.234 -1.053,4.992 -1.467,7.388 -0.416,1.939 -1.51,3.014 -2.551,2.243 -2.311,1.145 -2.338,0.748 -2.622,0.58 -5.977,0.92 -7.463,0.79 -8.469,0.61 -7.12,0.257 -2.805,-0.212 -2.735,-0.609 -3.023,-1.28 -2.794,-1.807 -0.568,-0.528 h -0.109 l -3.602,-0.012 -3.727,-0.312 -0.184,-0.035 -2.259,1.957 -2.505,1.797 -2.115,1.25 -2.184,1.016 -2.285,0.763 -2.335,0.542 -3.372,0.551 -3.377,0.36 -3.257,0.159 -2.899,-0.096 -2.359,-0.297 z m 1.183,-9.375 -0.884,-0.112 -3.342,-0.663 -2.947,-0.868 -2.72,-1.116 -3.952,-1.864 -9.274,-0.15 -7.46,0.011 -2.311,0.14 -1.502,0.239 -4.661,0.905 -5.661,0.646 -6.4307,0.393 -6.9004,0.139 -7.0747,-0.118 -6.9545,-0.373 -6.5386,-0.63 -5.8305,-0.884 -6.9109,-1.517 -5.5243,-1.659 -2.1125,-0.833 -1.6353,-0.813 -1.0802,-0.737 -0.6161,-0.713 -1.7839,-2.159 -1.0798,-1.267 -1.1107,-1.627 -2.2606,-4.136 -1.9012,-4.512 -0.6788,-2.1 -0.4641,-1.975 -0.5683,-1.55 -0.968,-1.643 -0.6524,-1.075 -0.5071,-1.177 -0.3887,-1.294 -0.2563,-1.346 -0.1145,-1.335 0.033,-1.26 0.1797,-1.116 0.3159,-0.912 0.2958,-0.479 0.4039,-0.431 1.3049,-0.834 1.772,-0.584 5.5464,-0.699 0.4059,-6.334 0.3711,-3.037 0.5404,-2.979 0.7056,-2.902 0.8666,-2.814 1.023,-2.711 1.175,-2.591 1.3098,-2.436 1.9917,-2.784 2.8259,-3.184 3.0937,-2.983 2.8216,-2.22 1.4531,-1.084 1.1344,-1.165 0.7467,-1.25 0.2252,-1.105 0.1048,-0.331 0.3268,-0.501 1.3875,-1.531 1.7892,-1.547 1.6829,-1.081 2.4082,-0.9453 2.5053,-0.578 2.4533,-0.1848 2.2889,0.2205 4.3364,1.1616 2.5763,-2.3487 1.4163,-0.9586 1.5898,-0.7982 1.7279,-0.6231 1.8294,-0.4348 1.8939,-0.2345 1.9214,-0.0241 1.9198,0.1967 3.59,0.7542 2.9007,1.0072 2.415,1.3342 2.199,1.7942 2.543,2.2805 3.422,-1.615 7.066,-3.7453 3.008,-1.7468 3.398,-2.1544 3.119,-2.1234 2.175,-1.6575 2.602,-2.304 1.171,-1.0367 2.057,-1.6038 0.267,-0.2075 2.763,-1.683 3.194,-1.5571 3.584,-1.4121 3.935,-1.2506 4.244,-1.0735 4.517,-0.8816 4.747,-0.6758 3.401,-0.3157 3.074,-0.0781 3.184,0.1637 3.731,0.4145 5.078,0.7599 6.892,1.563 2.684,-2.5605 1.379,-1.2049 1.33,-0.9414 1.308,-0.7003 1.301,-0.4726 1.318,-0.257 1.363,-0.0487 1.434,0.1593 1.527,0.3715 1.753,0.6255 1.561,0.7522 1.368,0.8757 1.184,1.0002 1.007,1.1266 0.839,1.2622 0.676,1.4056 0.505,1.5336 0.26,1.763 -0.083,1.945 -0.423,2.0461 -0.769,2.078 -1.153,2.7005 2.744,3.4872 1.918,2.7831 1.953,3.0559 1.464,2.535 2.555,5.425 2.167,5.805 1.881,6.504 1.702,7.537 1.079,4.698 0.719,2.978 0.6,3.339 0.478,3.612 0.344,3.753 0.202,3.764 0.05,3.644 -0.11,3.392 -0.278,3.028 -0.844,6.622 -0.561,3.854 -1.003,4.754 -1.464,7.374 -0.149,0.692 -0.145,0.291 -0.237,0.208 -0.56,0.277 -1.246,0.399 -1.898,0.42 -5.453,0.839 -7.083,0.75 -8.142,0.587 -6.424,0.231 -1.601,-0.121 -1.232,-0.274 -1.475,-0.625 -1.408,-0.91 -2.698,-2.508 -3.808,0.015 -3.189,-0.011 -2.872,-0.24 -4.745,-0.888 -3.147,3.309 -1.677,1.452 -1.813,1.301 -1.354,0.8 -1.277,0.594 -1.356,0.453 -1.595,0.37 -2.804,0.458 -2.846,0.304 -2.6,0.127 -2.076,-0.069 -1.924,-0.242 z m -29.121,-5.709 0.016,11.338 m -20.727,-9.095 0.6925,11.318 M 85.324,187.991 85.1364,199.328 m -19.5141,-12.752 -1.7005,11.21 m -21.1465,-20.176 -8.6282,7.357 m 4.6106,-13.818 -9.9493,5.438 m 3.8697,-20.606 -10.8591,3.263 m 22.9181,-28.885 -10.8365,-3.337 m 16.2911,-7.621 -8.5663,-7.429 M 68.7575,101.039 64.6149,90.4847 m 31.6324,5.5928 2.331,-11.0964 m 27.7377,9.3204 -6.071,-9.5759 m 11.116,-8.6624 6.97,8.9432 m 4.037,-2.3591 -4.968,-10.192 m 12.359,7.2379 -3.434,-10.8059 m 11.318,8.7807 -2.172,-11.1285 m 18.266,9.6489 0.582,-11.3236 m 30.907,8.9466 3.81,-10.6795 m 0.999,14.0956 8.455,-7.5554 m 1.22,37.8069 10.258,-4.832 m -3.804,26.056 11.055,-2.52 m -7.995,19.061 11.291,-1.036 m -10.934,12.05 11.332,0.367 m -12.133,7.853 11.248,1.432 m -30.997,20.488 0.814,11.309 m -30.92,-15.019 -0.945,11.299 m -23.817,-3.339 0.91,11.302 M 32.168793,151.75262 21.170062,149.91911 m 11.976144,-0.47039 -4.715357,-10.0019 m 14.768754,-3.19319 -11.417622,-0.92592 m 206.142909,42.34874 -11.39097,-2.1887 m -5.62899,21.00374 -1.75076,-10.89814"
       inkstitch:satin_column="true"
       transform="scale(0.264583, 0.264583)"
       sodipodi:nodetypes="cccccccccccccccccccccccccccccccccccccccccccccccccccccccccccccccccccccccccccccccccccccccccccccccccccccccccccccccccccccccccccccccccccccccccccccccccccccccccccccccccccccccccccccccccccccccccccccccccccccccccccccccccccccccccccccccccccccccccccccccccccccccccccccccccccccccccccccccccccccccccccccccccccccccccccccccccccccccccccccccccccccccccccccccccccccccccccccccccccccccccccccccccccccccccccccccccccccccccccccccccccccccccccccccccc" /><path
       style="display:inline;fill:#000000;stroke-width:0.611993"
       d="m 39.513215,50.960237 c -1.495417,-0.146841 -2.529486,-0.398995 -3.4854,-0.849903 l -1.002576,-0.472919 -2.397812,-0.03865 c -1.704766,-0.02748 -2.553817,0.0012 -2.937557,0.09909 -2.866587,0.731543 -9.492429,0.741718 -13.331682,0.02047 -2.669165,-0.501432 -4.575903,-1.183473 -4.87596,-1.744133 -0.06287,-0.11748 -0.275464,-0.374748 -0.472424,-0.571708 -0.749278,-0.749279 -1.8047478,-2.942216 -2.0315958,-4.221024 -0.03386,-0.190838 -0.205345,-0.545482 -0.381094,-0.788096 -0.525631,-0.725611 -0.709945,-2.059629 -0.380494,-2.753897 0.227295,-0.478987 0.906322,-0.793794 1.7939828,-0.831716 l 0.680271,-0.02906 0.02479,-0.701668 c 0.0786,-2.225127 0.666971,-4.364661 1.674844,-6.090378 0.513739,-0.879644 2.00429,-2.432542 2.900323,-3.02164 0.564488,-0.371123 0.851463,-0.735983 0.851463,-1.082551 0,-0.27955 0.95382,-1.204279 1.528008,-1.481403 0.874292,-0.421967 1.892223,-0.578278 2.71371,-0.416714 0.368475,0.07247 0.750513,0.174852 0.848974,0.227517 0.131028,0.07009 0.246782,0.02346 0.431795,-0.173911 0.848084,-0.904753 2.378715,-1.360098 3.796103,-1.129297 1.443863,0.235112 2.284563,0.605968 3.061708,1.350604 0.277331,0.26573 0.539995,0.483146 0.583697,0.483146 0.07812,0 0.983043,-0.465008 2.580638,-1.326092 0.901251,-0.485763 2.556112,-1.571949 3.05814,-2.007245 0.17948,-0.155622 0.628172,-0.552986 0.997095,-0.883031 1.516027,-1.356266 4.430197,-2.388493 7.885346,-2.793064 1.323968,-0.155025 2.129428,-0.144027 3.604052,0.04921 1.198145,0.157008 1.562333,0.224801 2.577267,0.479752 l 0.472263,0.118632 0.626962,-0.598019 c 1.017079,-0.970129 1.95906,-1.232234 3.140211,-0.873759 1.370247,0.415864 2.200686,1.222403 2.525182,2.452509 0.168329,0.638106 0.0629,1.474294 -0.280211,2.222425 -0.262666,0.572727 -0.261576,0.630645 0.01738,0.923255 0.341897,0.35864 1.421572,1.986844 1.804446,2.721195 0.994948,1.908307 1.638986,3.86612 2.219414,6.746802 0.08972,0.445289 0.217996,1.003924 0.285055,1.241412 0.550207,1.948539 0.797934,5.355075 0.535452,7.363098 -0.06047,0.462557 -0.161182,1.253917 -0.223819,1.758578 -0.106645,0.85923 -0.154447,1.122432 -0.41661,2.293913 -0.179493,0.802067 -0.323174,1.525556 -0.387514,1.951273 -0.05211,0.344781 -0.124624,0.438994 -0.439006,0.570351 -0.723906,0.302468 -3.379862,0.639295 -6.383972,0.809614 -1.682816,0.09541 -2.052613,0.08757 -2.53901,-0.05383 -0.553148,-0.160805 -1.266558,-0.708325 -1.266558,-0.972044 0,-0.0893 -0.324998,-0.112823 -1.141169,-0.08261 -1.147044,0.04246 -2.345707,-0.112465 -2.620501,-0.338695 -0.110631,-0.09108 -0.171949,-0.07222 -0.256522,0.0789 -0.246442,0.440367 -0.932076,1.09183 -1.601446,1.521634 -0.532437,0.341878 -0.920519,0.496209 -1.565259,0.622466 -0.970389,0.190029 -2.160466,0.284031 -2.800371,0.221197 z M 26.775252,49.298032 c 0.415602,-0.05832 1.119969,-0.156146 1.565258,-0.217376 1.216361,-0.167257 1.365672,-0.248563 1.438135,-0.783109 0.03364,-0.24813 0.108387,-0.742607 0.166113,-1.098838 0.213708,-1.318814 0.439088,-2.943576 0.546557,-3.940132 0.06083,-0.564033 0.168411,-1.535572 0.239078,-2.158977 0.17111,-1.509471 0.168987,-6.709068 -0.0032,-7.826291 -0.305983,-1.985415 -0.905598,-3.896222 -1.259679,-4.014249 -0.05717,-0.01906 -0.264181,0.29343 -0.460021,0.694414 -0.19584,0.400985 -0.535791,0.938597 -0.755445,1.194694 -0.379101,0.441996 -0.440413,0.471074 -1.207959,0.572879 -0.999277,0.132541 -2.530876,0.03098 -3.285081,-0.217833 -1.00093,-0.330204 -1.940704,-1.001791 -2.423113,-1.731609 -0.0957,-0.144781 -0.222578,-0.65484 -0.28195,-1.133463 l -0.107949,-0.870223 -0.431795,0.0314 c -1.400287,0.101838 -3.522827,0.873584 -4.842547,1.760729 -2.003647,1.346895 -3.414344,3.487168 -3.941662,5.980184 -0.388031,1.834507 -0.426533,3.055793 -0.121626,3.858013 0.541439,1.424539 -0.04737,3.042242 -1.271211,3.492517 -0.280439,0.103179 -0.5512028,0.223311 -0.6016958,0.26696 -0.171745,0.148464 0.5624508,1.988502 1.1858418,2.971957 1.237891,1.952879 4.096269,3.009864 8.999181,3.32776 1.041963,0.06756 6.070792,-0.04939 6.854752,-0.15941 z m -9.445524,-4.538938 c -2.433072,-0.639108 -3.260935,-1.295472 -3.866818,-3.065775 -0.264988,-0.774255 -0.23714,-2.15148 0.06702,-3.314505 0.169177,-0.646885 0.756652,-1.819692 1.155052,-2.305886 0.75738,-0.924282 2.204995,-1.19775 3.442734,-0.650364 1.427379,0.631255 2.801288,2.010214 3.595584,3.608802 0.514508,1.035491 0.518013,1.04983 0.505592,2.068234 -0.01377,1.129325 -0.142501,1.577986 -0.66572,2.320284 -0.434954,0.617073 -1.084465,1.08201 -1.803613,1.291072 -0.625188,0.181747 -1.830293,0.205621 -2.429831,0.04814 z m 30.171701,1.954601 c 0.415603,-0.12812 0.901373,-0.278031 1.079488,-0.333136 0.512604,-0.158586 0.628128,-0.269557 0.569146,-0.546715 -0.02977,-0.139902 -0.177904,-0.740137 -0.329182,-1.333856 -0.42135,-1.653668 -0.509836,-2.369402 -0.509836,-4.123907 0,-1.779222 0.165436,-3.115388 0.601215,-4.855799 0.341965,-1.365742 0.462574,-1.669698 0.902914,-2.275506 0.366489,-0.504206 1.451945,-1.352538 2.054108,-1.605377 1.174548,-0.493174 1.786062,-0.618723 3.026642,-0.621394 1.671575,-0.0036 2.771109,0.348776 3.918124,1.255666 0.473184,0.374123 0.596146,0.327913 0.435127,-0.163524 -0.06273,-0.191467 -0.175711,-0.566718 -0.251061,-0.833891 -0.484474,-1.717831 -1.437808,-3.814073 -2.364623,-5.199462 -1.062681,-1.588477 -2.757569,-3.167845 -4.274364,-3.983031 -0.356231,-0.191453 -0.69627,-0.383442 -0.755642,-0.426645 -0.164605,-0.119774 -1.87993,-0.714326 -2.428849,-0.841868 -0.267174,-0.06208 -0.728655,-0.176724 -1.025514,-0.254769 -0.742935,-0.195322 -4.822987,-0.194568 -5.775263,10e-4 -2.129402,0.437463 -3.277676,0.795001 -4.619407,1.438343 -0.962355,0.461436 -1.683577,1.013125 -1.602083,1.225493 0.02772,0.07224 0.293419,0.465821 0.590443,0.874629 1.161707,1.598911 1.929994,3.641482 2.299613,6.113762 0.306202,2.048099 0.19726,5.973603 -0.235921,8.50095 -0.05597,0.326545 -0.132537,0.892074 -0.170151,1.256731 -0.06509,0.630998 -0.05599,0.666895 0.188338,0.743427 0.141201,0.04423 0.561551,0.219498 0.934112,0.389489 0.390936,0.178374 0.870247,0.311088 1.133463,0.313838 0.476932,0.005 1.41555,0.217057 1.548329,0.349835 0.04246,0.04246 0.145877,0.0772 0.229821,0.0772 0.240894,0 1.219269,0.691302 1.784833,1.261132 0.881398,0.888043 1.480922,2.234728 1.480922,3.326531 0,0.306844 0.02672,0.584619 0.05938,0.617277 0.06807,0.06807 0.435,-0.01636 1.50588,-0.346486 z"
       id="path1" /></g></svg>
