<?xml version="1.0" encoding="UTF-8" standalone="no"?>
<svg
   width="70mm"
   height="70mm"
   viewBox="-938 0 70 70"
   version="1.2"
   id="svg11"
   sodipodi:docname="weinglas.svg"
   inkscape:version="1.3.2 (091e20e, 2023-11-25)"
   xmlns:inkscape="http://www.inkscape.org/namespaces/inkscape"
   xmlns:sodipodi="http://sodipodi.sourceforge.net/DTD/sodipodi-0.dtd"
   xmlns="http://www.w3.org/2000/svg"
   xmlns:svg="http://www.w3.org/2000/svg"
   xmlns:rdf="http://www.w3.org/1999/02/22-rdf-syntax-ns#"
   xmlns:cc="http://creativecommons.org/ns#"
   xmlns:dc="http://purl.org/dc/elements/1.1/"
   xmlns:inkstitch="http://inkstitch.org/namespace"><sodipodi:namedview
   id="namedview11"
   pagecolor="#ffffff"
   bordercolor="#000000"
   borderopacity="0.25"
   inkscape:showpageshadow="2"
   inkscape:pageopacity="0.0"
   inkscape:pagecheckerboard="0"
   inkscape:deskcolor="#d1d1d1"
   inkscape:zoom="8.0453038"
   inkscape:cx="103.04148"
   inkscape:cy="75.012705"
   inkscape:window-width="1680"
   inkscape:window-height="924"
   inkscape:window-x="0"
   inkscape:window-y="527"
   inkscape:window-maximized="0"
   inkscape:current-layer="svg11"
   inkscape:document-units="mm" />
<defs
   id="defs11" />
<title
   id="title1">weinglas-wein.pdf</title>


\n<path
   id="rect11"
   style="font-variation-settings:&quot;wght&quot; 400;fill:#9b2434;fill-opacity:1;fill-rule:evenodd;stroke:none;stroke-width:1.44888"
   d="m -901.85272,16.504361 c -0.91193,0.09661 -2.23788,-1.780082 -3.56064,-2.229835 -1.37713,-0.504246 0.33297,2.316309 0.25206,2.850728 0.19487,0.893446 -0.16057,2.108762 -1.17217,2.299439 -4.12538,0.07451 -11.38966,-5.764076 -12.6153,-6.887781 -1.12858,3.244169 -1.87366,6.608438 -1.3541,10.066009 2.00356,12.253241 21.68449,11.723401 18.48037,-5.952142 -0.009,-0.04907 -0.0208,-0.09748 -0.0302,-0.146418 z"
   inkstitch:angle="140" />
<g
   id="g11">
  <path
     id="path4663"
     style="stroke:#000000;stroke-width:1px;fill:none"
     d="M -2479.1 33.6891 L -2478.27 35.0542 L -2478.16 35.2485 L -2476.82 38.1555 L -2476.77 38.2756 L -2474.49 44.2809 L -2474.49 44.2879 L -2471.16 53.1572 L -2471.13 53.2588 L -2469.72 57.7727 L -2469.68 57.9105 L -2468.62 62.5081 L -2468.59 62.6596 L -2467.71 68.7332 L -2467.69 68.8713 L -2467.28 74.5683 L -2467.28 74.7184 L -2467.32 80.0417 L -2467.33 80.2033 L -2467.8 85.156 L -2467.82 85.3275 L -2468.68 89.9125 L -2468.72 90.0915 L -2469.95 94.3119 L -2470.01 94.4947 L -2471.58 98.3535 L -2471.66 98.5358 L -2473.54 102.036 L -2473.65 102.213 L -2475.8 105.357 L -2475.93 105.524 L -2478.34 108.316 L -2478.49 108.467 L -2481.13 110.91 L -2481.29 111.043 L -2484.12 113.139 L -2484.29 113.252 L -2487.3 115.004 L -2487.48 115.096 L -2490.62 116.508 L -2490.81 116.579 L -2494.07 117.654 L -2494.25 117.704 L -2497.6 118.445 L -2497.78 118.476 L -2501.19 118.885 L -2501.37 118.898 L -2504.8 118.978 L -2504.98 118.974 L -2508.42 118.729 L -2508.59 118.708 L -2512 118.141 L -2512.17 118.104 L -2515.53 117.218 L -2515.7 117.164 L -2518.97 115.962 L -2519.13 115.892 L -2522.29 114.376 L -2522.45 114.289 L -2525.48 112.463 L -2525.63 112.36 L -2528.49 110.226 L -2528.63 110.106 L -2529.3 109.498 L -2531.29 107.668 L -2531.43 107.531 L -2533.86 104.792 L -2533.99 104.64 L -2536.17 101.602 L -2536.28 101.437 L -2538.19 98.1049 L -2538.27 97.9292 L -2539.87 94.3047 L -2539.94 94.1227 L -2541.21 90.2092 L -2541.26 90.0246 L -2542.16 85.8249 L -2542.19 85.6526 L -2542.59 82.247 L -2542.6 82.1357 L -2542.81 78.7465 L -2542.81 78.6404 L -2542.82 75.2679 L -2542.82 75.1679 L -2542.65 71.8126 L -2542.65 71.7198 L -2542.32 68.3821 L -2542.31 68.2968 L -2541.82 64.9771 L -2541.8 64.8648 L -2540.44 58.2812 L -2540.41 58.1575 L -2538.6 51.6511 L -2538.57 51.5572 L -2536.41 45.1314 L -2536.39 45.065 L -2533.99 38.7232 L -2533.98 38.6827 L -2531.45 32.4282 L -2531.37 32.2582 L -2531.27 32.0968 L -2531.16 31.9457 L -2531.04 31.8062 L -2530.9 31.6799 L -2530.75 31.5678 L -2530.59 31.4712 L -2530.42 31.3909 L -2530.24 31.3278 L -2530.06 31.2824 L -2529.88 31.2553 L -2529.69 31.2466 L -2505.61 31.3295 L -2481.54 31.4196 L -2481.35 31.4302 L -2481.16 31.4602 L -2480.97 31.5093 L -2480.79 31.5771 L -2480.62 31.6629 L -2480.46 31.7658 L -2480.3 31.8846 L -2480.17 32.0183 L -2480.04 32.1653 L -2479.93 32.3241 Z M -2482.32 35.6597 L -2481.55 36.9307 L -2480.28 39.6783 L -2478.03 45.6192 L -2474.72 54.4347 L -2473.35 58.8291 L -2472.32 63.2819 L -2471.46 69.2104 L -2471.06 74.7632 L -2471.1 79.9303 L -2471.55 84.7161 L -2472.38 89.1253 L -2473.55 93.1642 L -2475.04 96.8399 L -2476.82 100.16 L -2478.86 103.133 L -2481.13 105.766 L -2483.62 108.066 L -2486.29 110.039 L -2489.12 111.689 L -2492.08 113.02 L -2495.16 114.034 L -2498.32 114.734 L -2501.55 115.121 L -2504.8 115.198 L -2508.06 114.966 L -2511.29 114.427 L -2514.48 113.586 L -2517.58 112.445 L -2520.58 111.007 L -2523.44 109.276 L -2526.15 107.255 L -2526.74 106.711 L -2528.67 104.946 L -2530.98 102.352 L -2533.05 99.4743 L -2534.86 96.313 L -2536.38 92.8679 L -2537.58 89.1383 L -2538.44 85.1176 L -2538.83 81.8543 L -2539.03 78.5739 L -2539.04 75.3045 L -2538.88 72.0457 L -2538.56 68.7971 L -2538.09 65.5764 L -2536.75 59.111 L -2534.97 52.7132 L -2532.84 46.3674 L -2530.46 40.0789 L -2528.42 35.0306 L -2505.63 35.1091 L -2482.61 35.1952 Z M -2480.97 39.0811 L -2476.85 37.1826 M -2478.21 46.204 L -2473.96 44.6107 M -2474.28 57.0969 L -2469.95 55.7475 M -2472.17 66.9095 L -2467.69 66.2544 M -2471.45 76.9331 L -2466.92 76.9696 M -2472.34 86.8807 L -2467.88 87.7167 M -2474.28 93.9587 L -2470.08 95.6629 M -2477.51 100.504 L -2473.77 103.07 M -2483.06 107.038 L -2479.98 110.365 M -2491.18 112.202 L -2489.32 116.34 M -2500.55 114.621 L -2500.01 119.124 M -2510.27 114.214 L -2511.01 118.688 M -2518.32 111.671 L -2520.28 115.761 M -2524.63 107.915 L -2527.35 111.548 M -2529.55 109.776 L -2526.49 106.432 M -2529.12 103.874 L -2532.5 106.889 M -2534.11 96.8593 L -2538.05 99.112 M -2536.88 90.0837 L -2541.2 91.4781 M -2538.33 82.8751 L -2542.84 83.4129 M -2538.54 72.8633 L -2543.07 72.6394 M -2537.15 62.9137 L -2541.59 61.9927 M -2535.35 55.48 L -2539.72 54.2623 M -2530.83 42.119 L -2535.07 40.5165 M -2522.89 35.4275 L -2522.88 30.8921 M -2487.76 35.5539 L -2487.75 31.0185"
     inkstitch:satin_column="true"
     transform="matrix(0.264583 0 0 0.264583 -248.179 0)" />
  <path
     id="path5960"
     style="stroke:#000000;stroke-width:1px;fill:none"
     d="M-2501.8389359622047,117.2874 -2501.8389359622047,181.8385  M-2505.6184640377955,117.2874 -2505.6184640377955,181.8385  M-2505.9964168453544,149.56295 -2501.460983154646,149.56295  "
     inkstitch:satin_column="true"
     transform="matrix(0.264583 0 0 0.264583 -248.179 0)" />
  <path
     id="path2520"
     style="fill:none;stroke:#000000;stroke-width:1px"
     d="m -2482.25,183.318 0.85,0.364 0.21,0.106 1.52,0.889 0.14,0.087 3.64,2.57 0.14,0.113 0.14,0.126 0.12,0.139 0.1,0.149 0.09,0.159 0.08,0.167 0.06,0.174 0.04,0.178 0.02,0.182 0.01,0.183 -0.01,0.183 -0.03,0.181 -0.05,0.177 -0.06,0.172 -0.08,0.165 -0.1,0.156 -0.11,0.147 -0.12,0.135 -0.14,0.122 -0.14,0.109 -0.16,0.094 -0.17,0.079 -0.17,0.062 -0.18,0.045 -0.18,0.027 -0.18,0.01 -27.63,0.162 -22.01,0.211 -5.63,0.054 -0.18,-0.008 -0.19,-0.025 -0.18,-0.043 -0.17,-0.061 -0.17,-0.078 -0.16,-0.093 -0.15,-0.109 -0.14,-0.123 -0.13,-0.136 -0.11,-0.148 -0.09,-0.158 -0.09,-0.167 -0.06,-0.173 -0.05,-0.18 -0.03,-0.183 -0.01,-0.185 0.01,-0.185 0.03,-0.183 0.04,-0.181 0.06,-0.175 0.08,-0.168 0.09,-0.16 0.11,-0.15 0.12,-0.139 0.81,-0.824 0.19,-0.172 0.95,-0.74 0.23,-0.153 2.23,-1.257 0.21,-0.101 2.47,-1.014 0.11,-0.043 2.47,-0.836 0.12,-0.036 4.76,-1.27 0.16,-0.037 4.87,-0.841 0.15,-0.019 4.92,-0.467 0.12,-0.008 4.94,-0.144 0.09,-0.001 5.08,0.115 0.11,0.006 5.08,0.425 0.16,0.02 5,0.85 0.15,0.031 2.45,0.621 0.11,0.032 2.4,0.769 0.17,0.063 z m -1.49,3.474 0.55,0.233 -21.43,0.125 h -0.01 l -22.01,0.211 1.5,-0.12 2.36,-0.797 4.61,-1.233 4.71,-0.815 4.8,-0.453 4.82,-0.142 4.97,0.112 4.93,0.414 4.85,0.824 2.32,0.587 2.27,0.725 z m -36.74,-0.573 -1.17,-4.382 m 10.85,2.687 -0.43,-4.515 m 9.81,4.225 0.1,-4.535 m 10.3,5.506 0.76,-4.471 m -12.1661,5.71225 0.014,4.96817"
     inkstitch:satin_column="true"
     transform="matrix(0.264583 0 0 0.264583 -248.179 0)"
     sodipodi:nodetypes="ccccccccccccccccccccccccccccccccccccccccccccccccccccccccccccccccccccccccccccccccccccccccccccccccccccccccccccccccccc" />
  <path
     id="path4429"
     style="stroke:#000000;stroke-width:1px;fill:none"
     d="M-2533.939365649531,46.048141131665716 -2531.911307764701,47.85973915209737 -2527.881880655897,51.11395461059914 -2522.2765088365873,55.3066547944355 -2515.57339449236,59.892902510135926 -2508.2278757320755,64.3465345431866 -2504.4937247947896,66.33977631067907 -2500.773912500164,68.10316408357211 -2497.147719051321,69.56343727692135 -2493.685369215894,70.6565594548512 -2490.4629146003304,71.32358397859775 -2487.7588138276797,71.50532478339636 -2487.043791096696,71.26564599645738 -2486.3672123815145,70.80330169700457 -2485.7916225253366,70.14687839855465 -2485.324570648132,69.30245666587497 -2484.9920063827276,68.3108007669416 -2484.8135839219144,67.23553121760969 -2484.7962955423886,66.15080435909701 -2484.9534265816615,64.99073742834264 -2485.0921668591013,64.05719690607326 -2485.6088034396707,62.571480429460934 -2487.1594181459163,58.54492581129597 -2487.2107653594853,58.39255596388051 -2487.7552653594853,56.51655596388051 -2487.8011654542847,56.3195878752855 -2487.8257530560095,56.11884252298868 -2487.9245530560097,54.67534252298868 -2487.927416413024,54.46983500060663 -2487.90794526374,54.26523193387845 -2487.8663699199515,54.063953441838606 -2487.803182149852,53.86838031925043 -2487.6179821498517,53.386480319250424 -2487.5464153877297,53.22360378573668 -2487.4598492460746,53.06817898163826 -2487.3590509351247,52.92158339125503 -2487.2449138006477,52.78511624816401 -2487.1184494064773,52.65998702049451 -2486.9807785693224,52.547304691768105 -2486.6029785693227,52.266704691768105 -2486.457144459187,52.168573673278466 -2486.302823439581,52.08441722743818 -2486.141350661042,52.01496345677176 -2485.974123149509,51.960813259585464 -2485.802587719568,51.922435131131024 -2485.6282284569393,51.900161110290746 -2485.031028456939,51.851961110290745 -2484.823064403193,51.8466639694383 -2484.615778195919,51.86425759402484 -2484.411681799459,51.9045287785595 -2483.5680817994594,52.1198287785595 -2483.3941573117713,52.173256634941225 -2483.2261769936913,52.24316282917865 -2481.275376993691,53.16756282917866 -2481.1380128278647,53.2397019919024 -2481.0070294627476,53.32286647298858 -2479.1236294627474,54.63016647298858 -2478.9659727002677,54.752417621231494 -2475.4322255352395,57.80446261450969 -2473.8657606155043,59.135166844901576 -2472.570735217863,60.03082387392851 -2471.597380514124,60.41455089177901 -2471.475936853208,60.42225374836312 -2471.0787262360045,60.33335652058791  M-2536.457234350469,48.86685886833429 -2534.3941343504694,50.70975886833429 -2534.3225378052985,50.77058266030237 -2530.2292378052985,54.07638266030237 -2530.1738000993087,54.11947799287844 -2524.5084000993083,58.35707799287844 -2524.443604510098,58.40344614033846 -2517.664704510098,63.04154614033846 -2517.577357934992,63.097846319456366 -2510.143157934992,67.60524631945637 -2510.0532896858385,67.65642461009442 -2506.2337896858385,69.69522461009441 -2506.153396332379,69.73570762659605 -2502.341796332379,71.54260762659605 -2502.2382211416525,71.58796419253564 -2498.4920211416525,73.09656419253564 -2498.3550482195355,73.14568380549613 -2494.731548219536,74.28968380549614 -2494.5456473730765,74.33813582200501 -2491.1020473730764,75.05093582200502 -2490.8457238879782,75.08591032210381 -2487.639323887978,75.3014103221038 -2487.4549199572784,75.30478356740588 -2487.2710654359485,75.29016496870443 -2487.0895115604985,75.25769376991688 -2486.91198765351,75.2076792631315 -2485.59368765351,74.7657792631315 -2485.4315965077217,74.70301460416358 -2485.275957944807,74.62562222926682 -2485.128088689726,74.53425688922961 -2484.037588689726,73.78905688922961 -2483.9107106880447,73.69431902486556 -2483.7922093123193,73.58929181788564 -2483.6829165553345,73.47471265954724 -2482.8156165553346,72.48561265954723 -2482.690326096184,72.32623319217701 -2482.5828298941997,72.15434927689583 -2481.9339298941995,70.98114927689583 -2481.8577884365486,70.82739425907612 -2481.7959061346055,70.66736704956423 -2481.3607061346056,69.36966704956423 -2481.318614262005,69.22535009108752 -2481.2881268450064,69.07814401903987 -2481.0620268450066,67.71554401903987 -2481.0442158973683,67.57639855805608 -2481.0367759353494,67.43631523951554 -2481.0149759353494,66.06851523951553 -2481.0180629211654,65.9263140234375 -2481.0318364786604,65.7847477688094 -2481.20973647866,64.4713477688094 -2481.2131661983376,64.44719950815617 -2481.3797661983376,63.326199508156186 -2481.413894206651,63.15278514456834 -2481.464073836541,62.98331754532259 -2482.0491738365413,61.30071754532259 -2482.0705818540837,61.24227418870403 -2483.603464244755,57.26176591388953 -2483.9450409337237,56.084910324347035 -2483.034388361857,56.516429310113715 -2481.3608299279235,57.678074707098375 -2477.896827299732,60.669882378768506 -2477.885080452654,60.67994431973112 -2476.2412804526543,62.07634431973112 -2476.092743043149,62.1903540244538 -2474.541443043149,63.2632540244538 -2474.3563710835424,63.37613453962761 -2474.159589282114,63.46707717850012 -2472.7068892821144,64.03977717850012 -2472.5205239592037,64.10226006429714 -2472.3286764970526,64.14504669617553 -2472.1334224527404,64.16767417462297 -2471.44602245274,64.21127417462297 -2471.2675179096746,64.21414647814036 -2471.089538874254,64.20016130837847 -2470.9136737639956,64.16944347941208 -2470.253273763996,64.02164347941209  M-2532.2705378537325,52.913621636170504 -2529.4209271210198,49.385183251442214  M-2521.4152186646143,60.93340836426009 -2518.8541678403753,57.19025762745039  M-2514.115122409668,65.639016346588 -2511.763703365686,61.76074517989348  M-2504.759770074812,70.81463052388321 -2502.8169788770974,66.71637222005475  M-2496.5344258908776,74.1168270179862 -2495.1689501639917,69.79182588479549  M-2484.4401102280103,74.52189431385455 -2486.999017372665,70.77727777970205  M-2480.797418408686,64.69957909501903 -2485.2918108599024,65.308344449869  M-2478.6299135270388,60.53613265554609 -2475.665368007684,57.10369494649897  "
     inkstitch:satin_column="true"
     transform="matrix(0.264583 0 0 0.264583 -248.179 0)" />
</g>
<metadata
   id="metadata11">
  <rdf:RDF>
    <cc:Work
       rdf:about="">
      <dc:title>weinglas-wein.pdf</dc:title>
    </cc:Work>
  </rdf:RDF>
  <inkstitch:min_stitch_len_mm>0.1</inkstitch:min_stitch_len_mm>
  <inkstitch:collapse_len_mm>3</inkstitch:collapse_len_mm>
  <inkstitch:inkstitch_svg_version>2</inkstitch:inkstitch_svg_version>
</metadata>
</svg>
