<?xml version="1.0" encoding="UTF-8" standalone="no"?>
<svg
   width="100mm"
   height="100mm"
   viewBox="-938 0 100 100"
   version="1.2"
   id="svg25"
   sodipodi:docname="Bialetti.svg"
   xml:space="preserve"
   inkscape:version="1.3.2 (091e20e, 2023-11-25, custom)"
   xmlns:inkscape="http://www.inkscape.org/namespaces/inkscape"
   xmlns:sodipodi="http://sodipodi.sourceforge.net/DTD/sodipodi-0.dtd"
   xmlns="http://www.w3.org/2000/svg"
   xmlns:svg="http://www.w3.org/2000/svg"
   xmlns:rdf="http://www.w3.org/1999/02/22-rdf-syntax-ns#"
   xmlns:cc="http://creativecommons.org/ns#"
   xmlns:dc="http://purl.org/dc/elements/1.1/"
   xmlns:inkstitch="http://inkstitch.org/namespace"><sodipodi:namedview
   id="namedview25"
   pagecolor="#505050"
   bordercolor="#eeeeee"
   borderopacity="1"
   inkscape:showpageshadow="0"
   inkscape:pageopacity="0"
   inkscape:pagecheckerboard="0"
   inkscape:deskcolor="#505050"
   inkscape:zoom="12.387446"
   inkscape:cx="189.10274"
   inkscape:cy="142.36187"
   inkscape:window-width="1920"
   inkscape:window-height="1009"
   inkscape:window-x="-8"
   inkscape:window-y="-8"
   inkscape:window-maximized="1"
   inkscape:current-layer="layer1"
   inkscape:document-units="mm" /><defs
   id="defs25"><symbol
   id="inkstitch_ignore_layer">
      <title
   id="title9694">Ignore entire layer when generating stitch plan</title>
      <path
   inkscape:connector-curvature="0"
   style="opacity:1;vector-effect:none;fill:#fafafa;fill-opacity:1;fill-rule:evenodd;stroke:#ff0000;stroke-width:1.06501234;stroke-linecap:round;stroke-linejoin:miter;stroke-miterlimit:4;stroke-dasharray:3.19503705, 3.19503705;stroke-dashoffset:0;stroke-opacity:1"
   d="M 9.2465269,-4.9265995e-6 C 9.246525,5.1067241 5.1067028,9.2465451 -2.615882e-5,9.2465451 -5.1067554,9.2465451 -9.2465782,5.1067241 -9.2465801,-4.9265995e-6 -9.24658,-2.4523429 -8.2723922,-4.8042399 -6.538327,-6.5383059 c 1.7340653,-1.734065 4.0859624,-2.708252 6.53830084118,-2.708252 5.10673015882,0 9.24655285882,4.139823 9.24655305882,9.2465529734005 0,0 0,0 0,0"
   id="inkstitch_path25368-7" />
      <path
   sodipodi:nodetypes="ccccc"
   inkscape:connector-curvature="0"
   style="color:#000000;fill:#d5d5d5;fill-opacity:1;fill-rule:evenodd;stroke:#5a5a5a;stroke-width:0.63330007;stroke-linecap:square;stroke-linejoin:round;stroke-miterlimit:0;stroke-opacity:1"
   d="M 4,4.452769 1.46667,1.286102 H -5.5 l 2.53333,3.166667 z"
   id="use5800" />
      <path
   sodipodi:nodetypes="ccccc"
   inkscape:connector-curvature="0"
   style="color:#000000;opacity:0.5;fill:#d5d5d5;fill-opacity:1;fill-rule:evenodd;stroke:#858585;stroke-width:0.63339424;stroke-linecap:square;stroke-linejoin:round;stroke-miterlimit:0;stroke-opacity:1"
   d="M 4,2.552769 1.46667,-0.613898 H -5.5 l 2.53333,3.166667 z"
   id="use5864" />
      <g
   id="g5771">
        <path
   sodipodi:nodetypes="ccccccccc"
   inkscape:connector-curvature="0"
   style="fill:#aa0000;fill-rule:evenodd;stroke:#aa0000;stroke-width:1px"
   d="m -1.0666699,-5.0472339 h 4.4333333 l 0.6333333,0.6333333 V 0.01943274 L 3.3666634,0.65276607 H -1.0666699 L -1.7000032,0.01943274 V -4.4139006 Z"
   id="path8011" />
        <path
   inkscape:connector-curvature="0"
   id="path8023"
   d="m -0.43333658,-3.8755672 c 0,0 3.16666668,3.16666661 3.16666668,3.16666661"
   style="fill:none;stroke:#ffffff;stroke-width:1.70000005" />
        <path
   inkscape:connector-curvature="0"
   id="path8025"
   d="m 2.7333301,-3.8755672 c 0,0 -3.16666668,3.16666661 -3.16666668,3.16666661"
   style="fill:none;stroke:#ffffff;stroke-width:1.79999995;stroke-linejoin:round" />
      </g>
    </symbol>
    </defs><title
   id="title1">Ausschnitt drucken</title>\n<metadata
   id="metadata25"><rdf:RDF><cc:Work
       rdf:about=""><dc:title>Ausschnitt drucken</dc:title></cc:Work></rdf:RDF><inkstitch:min_stitch_len_mm>0</inkstitch:min_stitch_len_mm><inkstitch:collapse_len_mm>3</inkstitch:collapse_len_mm><inkstitch:inkstitch_svg_version>1</inkstitch:inkstitch_svg_version></metadata><g
   inkscape:groupmode="layer"
   id="layer1"
   inkscape:label="Layer 1"
   style="display:inline"><g
     id="g34"
     style="display:inline;fill:#b4b4b4;fill-opacity:1"><path
       style="fill:#b4b4b4;fill-opacity:1;fill-rule:evenodd"
       d="m -2360.2727,197.42237 v 0 l 0.7313,0.2536 0.7713,-0.1042 0.8641,-0.48086 1.0095,-0.87635 1.3373,-1.52043 1.4121,-2.03496 1.5553,-2.65726 1.7665,-3.38735 1.2735,-2.73342 0.9089,-2.54434 0.7253,-2.96547 0.7225,-3.99677 0.9037,-5.328 0.4741,-3.52669 0.076,-3.62531 -0.2992,-4.10199 -0.8378,-3.77001 -1.2658,-3.39217 -1.5621,-2.9553 -0.7743,-0.96242 -0.9953,-0.90474 -1.1884,-0.83335 -1.3536,-0.74828 -3.0913,-1.18653 -1.682,-0.41087 -1.7358,-0.271 -0.5572,-0.0624 0.2771,0.55955 0.9059,2.38356 0.1731,1.026 0.056,1.30257 -0.237,2.60166 -0.6562,2.28501 -0.9815,2.27507 -1.3013,2.25448 -1.6159,2.22321 -2.0761,2.30886 -2.2505,2.15514 -1.0138,0.91965 0.7853,0.22333 4.248,1.22488 2.5121,1.17119 1.9382,1.43967 0.7599,0.82618 0.6235,0.9001 0.4895,0.97627 0.3579,1.05472 0.1674,0.93083 0.042,1.46917 -0.1506,2.46029 -0.5233,2.6189 -0.9847,3.1153 -1.5351,3.94951 -1.3271,3.3215 -0.6975,2.07047 -0.18,1.24164 0.2258,0.83499 1.2261,1.68949 z"
       id="path34_10"
       transform="matrix(0.264583 0 0 0.264583 -248.179 0)"
       inkstitch:row_spacing_mm="0.3" /><path
       style="fill:#b4b4b4;fill-opacity:1;fill-rule:evenodd"
       d="m -2382.1569,166.62256 0.01,0.12006 0.1619,0.0437 1.0206,-0.1362 1.5665,-0.35702 1.3952,-0.54864 1.5043,-0.87818 1.8935,-1.34565 2.6251,-2.08692 2.3678,-2.21713 2.0436,-2.18787 1.5205,-2.04614 1.2475,-2.19466 0.8837,-2.23815 0.4634,-2.09928 -0.014,-1.77805 -0.2562,-0.993 -0.4099,-0.98276 -1.1954,-1.83207 -1.5543,-1.48291 -0.8584,-0.5463 -0.8843,-0.38195 -1.6189,-0.38891 -2.0605,-0.0894 -2.8965,0.14841 -1.8239,0.25152 -2.5729,13.07152 z"
       id="path34_7"
       transform="matrix(0.264583 0 0 0.264583 -248.179 0)"
       inkstitch:row_spacing_mm="0.3" /><path
       style="fill:#b4b4b4;fill-opacity:1;fill-rule:evenodd"
       d="m -2397.9375,184.2101 v 0.24447 h 4.227 l 4.272,-0.12 4.4116,-22.728 4.4237,-22.872 0.057,-0.264 h -7.0567 -7.0568 l -0.056,0.504 z"
       id="path34_8"
       transform="matrix(0.264583 0 0 0.264583 -248.179 0)"
       inkstitch:row_spacing_mm="0.3" /><path
       style="fill:#b4b4b4;fill-opacity:1;fill-rule:evenodd"
       d="m -2394.9126,134.41459 0.051,0.216 h 5.8981 5.898 l -0.4519,-0.41656 -4.7569,-4.224 -4.305,-3.80745 h -1.8455 -1.8456 l 0.6537,4.00801 z"
       id="path34_1"
       transform="matrix(0.264583 0 0 0.264583 -248.179 0)"
       inkstitch:row_spacing_mm="0.3" /><path
       style="fill:#b4b4b4;fill-opacity:1;fill-rule:evenodd"
       d="m -2425.3682,134.47139 -0.053,0.27282 13.3338,-0.069 13.3508,-0.0819 -0.672,-4.21178 -0.689,-4.19885 -11.9561,-6e-5 -11.956,-6e-5 -0.6529,4.008 z"
       id="path34_6"
       transform="matrix(0.264583 0 0 0.264583 -248.179 0)"
       inkstitch:row_spacing_mm="0.3" /><path
       style="fill:#b4b4b4;fill-opacity:1;fill-rule:evenodd"
       d="m -2418.7695,119.70953 v 2.63294 h 6.624 6.624 v -3.40328 l -0.075,-3.51824 -0.1468,-0.81805 -0.2664,-0.67067 -0.4579,-0.72234 -0.6317,-0.5659 -0.833,-0.42813 -1.0618,-0.30902 -2.8642,-0.17495 -2.8789,0.17041 -1.0736,0.28853 -0.7979,0.38776 -0.6268,0.55611 -0.5598,0.79357 -0.5092,0.99037 -0.2951,1.07435 -0.1365,1.4873 z"
       id="path34_4"
       transform="matrix(0.264583 0 0 0.264583 -248.179 0)"
       inkstitch:row_spacing_mm="0.3" /><path
       style="fill:#b4b4b4;fill-opacity:1;fill-rule:evenodd"
       d="m -2440.7527,134.1157 -0.623,0.61087 h 6.0667 6.0668 l 0.055,-0.312 1.2975,-8.04669 -0.048,-0.10394 -0.2682,-0.0554 -1.9406,-0.026 h -2.2568 l -3.8632,3.66113 z"
       id="path34_2"
       transform="matrix(0.264583 0 0 0.264583 -248.179 0)"
       inkstitch:row_spacing_mm="0.3" /><path
       style="fill:#b4b4b4;fill-opacity:1;fill-rule:evenodd"
       d="m -2451.4796,145.77717 v -1.4e-4 l 6.8633,7.23875 -2.8006,-14.52074 -5.4635,-10e-4 -5.4373,0.0249 z"
       id="path34_3"
       transform="matrix(0.264583 0 0 0.264583 -248.179 0)"
       inkstitch:row_spacing_mm="0.3" /><path
       style="fill:#b4b4b4;fill-opacity:1;fill-rule:evenodd"
       d="m -2439.0614,161.67855 4.3973,22.77601 h 4.2513 l 3.7085,-0.0251 0.4721,-0.0585 0.071,-0.11312 -3.2204,-45.18731 -0.059,-0.6 h -7.0588 -7.0588 l 0.05,0.216 z"
       id="path34_9"
       transform="matrix(0.264583 0 0 0.264583 -248.179 0)"
       inkstitch:row_spacing_mm="0.3" /><path
       style="fill:#b4b4b4;fill-opacity:1;fill-rule:evenodd"
       d="m -2422.3621,184.14256 0.049,0.312 h 10.2618 10.2618 l 0.053,-0.408 3.2236,-45.312 -9e-4,-0.264 h -13.536 -13.536 v 0.312 z"
       id="path34_13"
       transform="matrix(0.264583 0 0 0.264583 -248.179 0)"
       inkstitch:row_spacing_mm="0.3" /><path
       style="fill:#b4b4b4;fill-opacity:1;fill-rule:evenodd"
       d="m -2428.4655,191.36655 v 3.168 h 16.416 16.416 v -3.168 -3.16799 h -16.416 -16.416 z"
       id="path34_5"
       transform="matrix(0.264583 0 0 0.264583 -248.179 0)"
       inkstitch:row_spacing_mm="0.3" /><path
       style="fill:#b4b4b4;fill-opacity:1;fill-rule:evenodd"
       d="m -2395.3885,253.26256 0.058,0.60001 7.4564,-6.8e-4 8.0966,-0.0612 0.5341,-0.0868 0.1729,-0.17649 0.1151,-2.18979 -0.066,-2.94184 -0.3973,-3.73203 -0.7289,-4.78056 -3.0538,-16.27062 -2.3948,-12.51209 -1.1056,-6.87991 -0.4138,-2.73801 -0.3699,-0.9283 -0.5636,-0.68432 -0.7375,-0.61481 -0.8281,-0.48663 -0.835,-0.29974 -4.584,-0.10186 -4.152,-0.002 v 0.24775 z"
       id="path34_11"
       transform="matrix(0.264583 0 0 0.264583 -248.179 0)"
       inkstitch:row_spacing_mm="0.3" /><path
       style="fill:#b4b4b4;fill-opacity:1;fill-rule:evenodd"
       d="m -2424.9599,253.6623 -0.05,0.42372 5.6883,-0.0636 12.9124,-0.0637 7.224,-9e-5 v -0.39507 l -3.7973,-54.68493 -0.057,-0.504 h -9.0111 -9.0113 l -0.053,0.408 -1.9239,27.432 z"
       id="path34_14"
       transform="matrix(0.264583 0 0 0.264583 -248.179 0)"
       inkstitch:row_spacing_mm="0.3" /><path
       style="fill:#b4b4b4;fill-opacity:1;fill-rule:evenodd"
       d="m -2445.1573,253.55643 0.1075,0.62172 8.1238,-0.0706 8.1408,-0.0868 3.8709,-55.44701 v -0.2081 l -4.392,0.0295 -4.392,0.0295 -0.528,0.23237 -1.5644,0.98283 -0.6046,0.6058 -0.4258,0.63044 -0.3329,1.54102 -1.2289,7.91349 -2.5234,13.148 -3.0402,16.06636 -0.7764,4.99821 -0.4457,3.94343 -0.093,2.79886 z"
       id="path34_12"
       transform="matrix(0.264583 0 0 0.264583 -248.179 0)"
       inkstitch:row_spacing_mm="0.3" /></g><g
     id="g33"
     style="display:inline;fill:none;stroke:#000000;stroke-width:0.767911;stroke-dasharray:none;stroke-opacity:1"
     transform="matrix(1.30223 0 0 1.30223 269.107 -13.5462)"><path
       id="path1"
       style="display:inline;fill:none;stroke:#000000;stroke-width:1px"
       transform="matrix(0.203177 0 0 0.203177 -397.231 10.4023)"
       d="m -2441.9929,161.55341 -22.0849,-23.66267 -0.119,-0.13915 -0.105,-0.15002 -0.09,-0.15947 -0.074,-0.16744 -0.058,-0.17382 -0.041,-0.17857 -0.023,-0.18166 -0.01,-0.18302 0.012,-0.18269 0.03,-0.18062 0.047,-0.17686 0.064,-0.17146 0.081,-0.16442 0.096,-0.15585 0.1108,-0.14583 0.1243,-0.13442 0.1367,-0.12175 0.1479,-0.10795 0.1577,-0.0931 0.1659,-0.0774 0.1727,-0.061 0.1777,-0.044 0.1812,-0.0266 0.1828,-0.009 79.9371,0.11165 m -60.1904,19.9623 -15.3622,-16.29652 77.7615,-0.0864 m -76.7967,1.03084 v -5.66928 m -1.5141,10.83256 3.8195,-3.91681 m 3.1027,11.4051 3.8421,-3.89814"
       inkstitch:satin_column="true"
       sodipodi:nodetypes="cccccccccccccccccccccccccccccccccccc"
       inkstitch:satin_method="satin_column"
       inkstitch:contour_underlay="False"
       inkstitch:contour_underlay_inset_mm="0"
       inkstitch:short_stitch_distance_mm="0.25"
       inkstitch:reverse_rails="automatic"
       inkstitch:short_stitch_inset="15"
       inkstitch:pull_compensation_mm="-0.1" /><path
       id="path2"
       style="fill:none;stroke:#000000;stroke-width:1px"
       transform="matrix(0.203177,0,0,0.203177,-397.231,10.4023)"
       d="m -2377.3894,140.3849 2.8772,-0.32106 2.8279,-0.11375 1.2612,0.0873 1.1873,0.21302 1.0706,0.35021 0.9832,0.51719 0.7813,0.58265 0.7229,0.68837 1.3502,1.8173 0.4479,0.89639 0.3304,0.95337 0.1761,0.92963 0.018,0.9244 -0.1517,1.20982 -0.2735,1.18758 -0.9369,2.4547 -1.3485,2.3412 -1.7129,2.25254 -2.0017,2.13996 -2.2076,2.00586 -2.3276,1.85328 -2.3111,1.6498 -1.5048,0.84726 -1.5518,0.54402 -1.8406,0.35555 -0.4895,0.0486 m 5.5551,-30.27139 1.5935,-0.22847 0.1336,-0.0101 2.9981,-0.1206 0.2065,0.003 1.4667,0.1015 0.2032,0.0252 1.4173,0.2543 0.2538,0.0639 1.3467,0.4405 0.1488,0.0557 0.1435,0.068 1.2552,0.6603 0.128,0.0739 0.1219,0.0837 0.9913,0.7392 0.1735,0.14644 0.9224,0.8784 0.112,0.11617 0.1017,0.12531 1.5459,2.0807 0.093,0.13734 0.081,0.14496 0.5772,1.1551 0.095,0.22601 0.4159,1.2003 0.071,0.26688 0.2315,1.2217 0.023,0.15672 0.01,0.15809 0.024,1.2198 -0.014,0.2722 -0.1807,1.4407 -0.034,0.1889 -0.3244,1.4087 -0.076,0.24978 -1.0369,2.7167 -0.059,0.1372 -0.069,0.13215 -1.4834,2.5754 -0.1333,0.20067 -1.8443,2.4253 -0.1241,0.14703 -2.1199,2.2664 -0.1093,0.10773 -2.31,2.0989 -0.094,0.0798 -2.4146,1.9225 -0.079,0.0597 -2.4339,1.7375 -0.1709,0.10863 -1.7381,0.9786 -0.1479,0.075 -0.154,0.0617 -1.8395,0.6449 -0.2668,0.0721 -2.062,0.3983 -1.97,0.2272 m 9.2076,-29.73183 -0.2278,-5.66469 m 6.7724,7.04072 3.389,-4.54481 m -0.5847,9.87674 5.6682,-0.11106 m -7.5804,5.90052 4.9127,2.82962 m -10.3446,3.61473 3.8125,4.19592 m -9.8592,0.40945 2.357,5.29374 m -5.0638,-4.47722 0.722,5.86726"
       inkstitch:satin_column="true"
       sodipodi:nodetypes="ccccccccccccccccccccccccccccccccccccccccccccccccccccccccccccccccccccccccccccccccccccccccccccccccccc"
       inkstitch:satin_method="satin_column"
       inkstitch:contour_underlay="False"
       inkstitch:contour_underlay_inset_mm="0"
       inkstitch:short_stitch_distance_mm="0.25"
       inkstitch:reverse_rails="automatic"
       inkstitch:short_stitch_inset="15"
       inkstitch:pull_compensation_mm="-0.1" /><path
       id="path3"
       style="fill:none;stroke:#000000;stroke-width:1px"
       transform="matrix(0.203177 0 0 0.203177 -397.231 10.4023)"
       d="m -2369.7432,164.58924 1.3456,0.35551 0.1416,0.0331 2.3312,0.6401 0.1701,0.0555 2.0984,0.7964 0.2466,0.11451 1.7931,0.9953 0.1691,0.10587 0.1569,0.1231 1.4156,1.2364 0.1302,0.12519 0.1177,0.13705 0.104,0.14765 0.9658,1.5201 0.078,0.134 0.066,0.1399 0.055,0.14486 0.2916,0.8796 0.043,0.14904 0.03,0.15203 0.152,0.9665 0.019,0.17033 v 0.17135 l -0.07,2.7536 -0.01,0.15466 -0.023,0.15329 -0.537,2.7992 -0.05,0.20056 -0.8578,2.7832 -0.04,0.11715 -1.0324,2.7054 -0.015,0.0377 -1.9773,4.86599 -0.6102,1.88901 -0.1996,1.32054 0.057,0.3242 0.2457,0.55302 1.2204,1.65035 0.6967,0.66778 0.7174,0.53395 0.556,0.28471 0.3077,0.0652 0.3399,-0.0349 0.4099,-0.13345 1.2392,-0.78096 1.3162,-1.30635 1.3542,-1.76555 1.3225,-2.06975 1.2487,-2.21519 2.1885,-4.29751 0.7882,-1.80248 0.6197,-1.82738 0.9425,-3.96203 1.4134,-8.34574 0.4127,-2.68771 0.2019,-2.71364 -0.019,-2.76189 -0.2565,-2.77584 -0.5112,-2.75608 -0.7821,-2.70455 -1.0688,-2.62258 -1.342,-2.45705 -0.9814,-1.19904 -1.3961,-1.14326 -1.7603,-1.04906 -1.9986,-0.87834 -2.1082,-0.65037 -2.0862,-0.37766 -1.15,-0.0493 m -13.0759,25.3006 5.0003,0.96689 2.1746,0.59711 1.8872,0.71624 1.4988,0.83194 1.0592,0.9251 0.6942,1.09264 0.1692,0.51042 0.1012,0.64313 -0.062,2.42641 -0.4882,2.54494 -0.8091,2.62505 -1.0031,2.62857 -1.9958,4.91165 -0.048,0.13056 -0.6788,2.1015 -0.041,0.14777 -0.029,0.15062 -0.2686,1.7768 -0.02,0.20229 v 0.20322 l 0.024,0.20179 0.1495,0.8568 0.054,0.22534 0.081,0.21708 0.4245,0.9555 0.094,0.18385 0.1136,0.1725 1.4394,1.9465 0.1008,0.12485 0.111,0.11585 0.8978,0.8605 0.1793,0.15163 0.9383,0.6984 0.13,0.0886 0.137,0.0775 0.9202,0.4712 0.1514,0.0693 0.157,0.0557 0.1612,0.0417 0.8435,0.1787 0.1935,0.0306 0.1955,0.0104 0.1956,-0.01 0.835,-0.0857 0.1982,-0.031 0.1938,-0.0519 0.8252,-0.2686 0.1462,-0.0543 0.1412,-0.0662 0.1353,-0.0776 1.6142,-1.0173 0.1689,-0.11986 0.1547,-0.13763 1.5544,-1.5428 0.1683,-0.19113 1.4812,-1.9311 0.093,-0.13261 1.3943,-2.1821 0.054,-0.0896 1.2939,-2.2955 0.038,-0.0704 2.2319,-4.3826 0.047,-0.10043 0.8428,-1.9273 0.058,-0.1503 0.6739,-1.9874 0.049,-0.16952 0.9773,-4.1084 0.025,-0.12176 1.4263,-8.4214 v -0.0288 l 0.4261,-2.7751 0.017,-0.14662 0.213,-2.8636 0.01,-0.15287 -0.02,-2.9192 -0.01,-0.16121 -0.2719,-2.9422 -0.024,-0.17077 -0.5439,-2.9321 -0.043,-0.18025 -0.8355,-2.8895 -0.065,-0.18829 -1.1468,-2.8139 -0.091,-0.19264 -1.4777,-2.7055 -0.091,-0.15012 -0.1049,-0.141 -1.2124,-1.4812 -0.1259,-0.13913 -0.1391,-0.12596 -1.6507,-1.3518 -0.1119,-0.0849 -0.118,-0.0764 -1.9815,-1.1809 -0.2071,-0.10672 -2.2049,-0.969 -0.2032,-0.0757 -2.3206,-0.7159 -0.2205,-0.0538 -2.329,-0.4216 -0.2638,-0.0288 -2.2297,-0.086 -0.1712,10e-4 -0.1704,0.0167 -2.023,0.2907 m 5.6924,-1.00339 -1.0099,5.57861 m 14.9684,3.57086 -4.9755,2.71754 m 8.0676,6.27724 -5.5742,1.034 m 6.0823,8.31074 -5.6536,-0.42053 m 3.4583,14.29762 -5.5153,-1.31199 m 1.4106,12.32285 -5.0519,-2.57275 m -13.3353,11.06464 4.5583,-3.3708 m -3.9851,-10.80968 5.2522,2.13426 m -3.0436,-13.78893 4.7851,-3.04026"
       inkstitch:satin_column="true"
       sodipodi:nodetypes="ccccccccccccccccccccccccccccccccccccccccccccccccccccccccccccccccccccccccccccccccccccccccccccccccccccccccccccccccccccccccccccccccccccccccccccccccccccccccccccccccccccccccccccccccccccccccccccccccccc"
       inkstitch:satin_method="satin_column"
       inkstitch:contour_underlay="False"
       inkstitch:contour_underlay_inset_mm="0"
       inkstitch:short_stitch_distance_mm="0.25"
       inkstitch:reverse_rails="automatic"
       inkstitch:short_stitch_inset="15"
       inkstitch:pull_compensation_mm="-0.1" /><path
       id="path6"
       style="fill:none;stroke:#000000;stroke-width:1px"
       transform="matrix(0.203177 0 0 0.203177 -397.231 10.4023)"
       d="m -2427.5439,125.30819 -1.9415,11.11791 -0.023,0.21993 v 0.22111 l 3.4578,47.60755 m 2.222,-59.12317 -1.894,11.46805 3.3419,47.58589 m -7.4952,-51.4471 5.5942,0.9192"
       inkstitch:satin_column="true"
       sodipodi:nodetypes="cccccccccc"
       inkstitch:satin_method="satin_column"
       inkstitch:contour_underlay="False"
       inkstitch:contour_underlay_inset_mm="0"
       inkstitch:short_stitch_distance_mm="0.25"
       inkstitch:reverse_rails="automatic"
       inkstitch:short_stitch_inset="15"
       inkstitch:pull_compensation_mm="-0.1" /><path
       id="path7"
       style="fill:none;stroke:#000000;stroke-width:1px"
       transform="matrix(0.203177,0,0,0.203177,-397.231,10.4023)"
       d="m -2432.3428,187.92426 -0.05,7.28203 m 3.9796,-7.38207 -0.081,7.20131 m -4.6937,-3.84678 h 5.6692"
       inkstitch:satin_column="true"
       sodipodi:nodetypes="cccccc"
       inkstitch:satin_method="satin_column"
       inkstitch:contour_underlay="False"
       inkstitch:contour_underlay_inset_mm="0"
       inkstitch:short_stitch_distance_mm="0.25"
       inkstitch:reverse_rails="automatic"
       inkstitch:short_stitch_inset="15"
       inkstitch:pull_compensation_mm="-0.1" /><path
       id="path8"
       style="fill:none;stroke:#000000;stroke-width:1px"
       transform="matrix(0.203177,0,0,0.203177,-397.231,10.4023)"
       d="m -2424.7239,198.28961 -3.6036,56.34274 m 7.1739,-56.47982 -3.8793,56.58196 m -2.6829,-28.88697 5.6555,0.39456"
       inkstitch:satin_column="true"
       sodipodi:nodetypes="cccccc"
       inkstitch:satin_method="satin_column"
       inkstitch:contour_underlay="False"
       inkstitch:contour_underlay_inset_mm="0"
       inkstitch:short_stitch_distance_mm="0.25"
       inkstitch:reverse_rails="automatic"
       inkstitch:short_stitch_inset="15"
       inkstitch:pull_compensation_mm="-0.1" /><path
       id="path14"
       style="fill:none;stroke:#000000;stroke-width:1px"
       transform="matrix(0.203177,0,0,0.203177,-397.231,10.4023)"
       d="m -2398.8718,254.4344 -4.0602,-56.3819 m 7.5884,56.36893 -3.868,-56.18183 m 2.8919,27.60792 -5.6555,0.39456"
       inkstitch:satin_column="true"
       sodipodi:nodetypes="cccccc"
       inkstitch:satin_method="satin_column"
       inkstitch:contour_underlay="False"
       inkstitch:contour_underlay_inset_mm="0"
       inkstitch:short_stitch_distance_mm="0.25"
       inkstitch:reverse_rails="automatic"
       inkstitch:short_stitch_inset="15"
       inkstitch:pull_compensation_mm="-0.1" /><path
       id="path13"
       style="fill:none;stroke:#000000;stroke-width:1px"
       transform="matrix(0.203177,0,0,0.203177,-397.231,10.4023)"
       d="m -2395.4416,195.1984 -0.1307,-7.07408 m 3.7795,6.89332 v -6.84331 m 0.9448,3.00442 h -5.6692"
       inkstitch:satin_column="true"
       sodipodi:nodetypes="cccccc"
       inkstitch:satin_method="satin_column"
       inkstitch:contour_underlay="False"
       inkstitch:contour_underlay_inset_mm="0"
       inkstitch:short_stitch_distance_mm="0.25"
       inkstitch:reverse_rails="automatic"
       inkstitch:short_stitch_inset="15"
       inkstitch:pull_compensation_mm="-0.1" /><path
       id="path12"
       style="fill:none;stroke:#000000;stroke-width:1px"
       transform="matrix(0.203177 0 0 0.203177 -397.231 10.4023)"
       d="m -2401.6575,184.65554 3.3418,-47.83597 -2.044,-11.66022 m 2.4249,59.16529 3.4077,-47.4575 v -0.22111 l -0.023,-0.21993 -1.9109,-11.29866 m 2.3014,7.83092 -5.5942,0.9192"
       inkstitch:satin_column="true"
       sodipodi:nodetypes="cccccccccc"
       inkstitch:satin_method="satin_column"
       inkstitch:contour_underlay="False"
       inkstitch:contour_underlay_inset_mm="0"
       inkstitch:short_stitch_distance_mm="0.25"
       inkstitch:reverse_rails="automatic"
       inkstitch:short_stitch_inset="15"
       inkstitch:pull_compensation_mm="-0.1" /><path
       id="path11"
       style="fill:none;stroke:#000000;stroke-width:1px"
       transform="matrix(0.203177 0 0 0.203177 -397.231 10.4023)"
       d="m -2401.635,122.60677 -0.03,-5.76305 v -0.11547 l -0.077,-1.5079 -0.013,-0.14487 -0.024,-0.14345 -0.2795,-1.3447 -0.048,-0.18242 -0.066,-0.17677 -0.5102,-1.1917 -0.096,-0.19286 -0.1172,-0.18069 -0.7694,-1.0495 -0.1277,-0.15594 -0.1435,-0.14145 -0.6541,-0.5793 -0.1338,-0.10806 -0.1431,-0.0954 -0.7499,-0.4523 -0.1772,-0.0944 -0.1862,-0.0751 -1.7067,-0.5848 -0.1725,-0.0501 -0.1765,-0.0335 -1.8481,-0.2603 -0.2035,-0.0175 -1.8281,-0.0582 -0.1412,7.8e-4 -1.7743,0.0762 -0.2073,0.0204 -1.8133,0.28 -0.1669,0.0335 -0.1632,0.0484 -1.637,0.567 -0.1866,0.076 -0.1775,0.0954 -0.6852,0.4171 -0.1571,0.10681 -0.1456,0.12203 -0.5606,0.5201 -0.1233,0.12555 -0.111,0.13647 -0.8833,1.1949 -0.083,0.12155 -0.073,0.12761 -0.672,1.2879 -0.072,0.15469 -0.058,0.16057 -0.4292,1.3862 -0.046,0.18003 -0.028,0.18369 -0.1547,1.4896 -0.01,0.18717 -0.03,5.43194 m 17.0418,0.0296 0.02,-5.60526 -0.067,-1.30461 -0.2113,-1.01672 -0.3505,-0.81877 -0.5218,-0.71172 -0.3735,-0.33074 -0.4294,-0.25903 -1.3454,-0.46101 -1.5684,-0.2209 -1.6553,-0.0527 -1.5995,0.0687 -1.5415,0.23802 -1.2844,0.44488 -0.3494,0.21272 -0.2914,0.27034 -0.6908,0.93444 -0.5246,1.0055 -0.3234,1.04451 -0.1258,1.21073 -0.029,5.18806 m 17.9885,-3.65631 -5.6689,-0.0576 m 2.648,-9.37898 -3.7588,4.24409 m -7.2885,-6.28926 0.8652,5.60287 m -9.0137,1.31946 5.4156,1.6768"
       inkstitch:satin_column="true"
       sodipodi:nodetypes="ccccccccccccccccccccccccccccccccccccccccccccccccccccccccccccccccccccccccccccccccccc"
       inkstitch:satin_method="satin_column"
       inkstitch:contour_underlay="False"
       inkstitch:contour_underlay_inset_mm="0"
       inkstitch:short_stitch_distance_mm="0.25"
       inkstitch:reverse_rails="automatic"
       inkstitch:short_stitch_inset="15"
       inkstitch:pull_compensation_mm="-0.1" /><path
       id="path9"
       style="fill:none;stroke:#000000;stroke-width:1px"
       transform="matrix(0.203177 0 0 0.203177 -397.231 10.4023)"
       d="m -2434.0771,122.37022 h 42.21 l 0.1953,0.0101 0.1932,0.0302 0.189,0.05 0.1829,0.0693 0.1747,0.0878 0.1647,0.10543 0.1529,0.12189 13.6839,12.1159 0.1277,0.12421 0.1153,0.13567 0.1021,0.14593 0.088,0.15489 0.073,0.16247 0.057,0.16862 0.041,0.17326 0.025,0.17638 0.01,0.17791 -0.01,0.17787 -0.025,0.17625 -10.0802,51.44517 m -46.6803,-62.02973 h 40.5034 l 12.3403,10.92621 -9.0975,47.48649 m 7.3064,-43.1986 5.5662,1.0758 m -7.6447,-7.52779 3.7583,-4.24458 m -9.5432,-0.8775 3.7582,-4.24458 m -11.6255,1.54943 v -5.66928"
       inkstitch:satin_column="true"
       sodipodi:nodetypes="cccccccccccccccccccccccccccccccccc"
       inkstitch:satin_method="satin_column"
       inkstitch:contour_underlay="False"
       inkstitch:contour_underlay_inset_mm="0"
       inkstitch:short_stitch_distance_mm="0.25"
       inkstitch:reverse_rails="automatic"
       inkstitch:short_stitch_inset="15"
       inkstitch:pull_compensation_mm="-0.1" /><path
       id="path10"
       style="fill:none;stroke:#000000;stroke-width:1px"
       transform="matrix(0.203177,0,0,0.203177,-397.231,10.4023)"
       d="m -2386.2487,188.05365 -49.9464,0.17148 -0.186,-0.009 -0.1841,-0.0274 -0.1806,-0.0454 -0.1752,-0.063 -0.1682,-0.0799 -0.1594,-0.0961 -0.1493,-0.11129 -0.1376,-0.12543 -0.1246,-0.13837 -0.1103,-0.14995 -0.095,-0.16008 -0.079,-0.16866 -0.062,-0.17561 -0.044,-0.18084 -9.6559,-49.9598 -0.027,-0.1875 -0.01,-0.18922 0.011,-0.18903 0.03,-0.18696 0.049,-0.183 0.067,-0.1772 0.084,-0.16963 0.1008,-0.16035 0.1163,-0.14946 0.1306,-0.13707 13.1927,-12.5403 m 45.1061,62.13243 -45.7798,-0.15143 -9.1635,-47.41197 12.0172,-11.40315 m -7.8256,8.7283 -3.9024,-4.11247 m 1.5365,11.25399 -5.5663,1.07581 m 13.1051,37.93015 -5.5663,1.07581 m 10.1014,1.91862 v 5.66928"
       inkstitch:satin_column="true"
       sodipodi:nodetypes="cccccccccccccccccccccccccccccccccccccccc"
       inkstitch:satin_method="satin_column"
       inkstitch:contour_underlay="False"
       inkstitch:contour_underlay_inset_mm="0"
       inkstitch:short_stitch_distance_mm="0.25"
       inkstitch:reverse_rails="automatic"
       inkstitch:short_stitch_inset="15"
       inkstitch:pull_compensation_mm="-0.1" /><path
       id="path4"
       style="fill:none;stroke:#000000;stroke-width:1px"
       transform="matrix(0.203177 0 0 0.203177 -397.231 10.4023)"
       d="m -2378.2411,257.55694 0.4875,-0.1091 0.1635,-0.0444 0.1589,-0.0589 0.153,-0.0729 0.1459,-0.0863 0.1375,-0.099 0.3987,-0.315 0.1253,-0.10819 0.1153,-0.11873 0.1044,-0.12836 0.093,-0.13701 0.3142,-0.5105 0.1018,-0.18857 0.08,-0.19888 0.2343,-0.6958 0.05,-0.17829 0.033,-0.18239 0.2465,-1.9059 0.016,-0.25759 -0.02,-2.523 -0.01,-0.13973 -0.2515,-3.0574 -0.01,-0.0841 -0.4474,-3.5093 -0.011,-0.0717 -1.3406,-8.0438 -0.01,-0.0497 -3.4708,-17.86673 -1.5572,-8.46722 -1.0682,-7.3105 -0.036,-0.18129 -0.196,-0.791 -0.059,-0.1937 -0.08,-0.18626 -0.4047,-0.8223 -0.079,-0.14476 -0.092,-0.13729 -0.5942,-0.8114 -0.093,-0.11659 -0.1015,-0.10893 -0.7649,-0.7583 -0.1076,-0.0987 -0.1148,-0.0901 -0.9162,-0.6632 -0.1273,-0.0845 -0.1337,-0.0739 -1.0487,-0.5259 -0.1509,-0.0676 -0.1563,-0.0541 -1.1619,-0.3464 -0.1748,-0.0432 -0.1781,-0.0263 -1.2562,-0.1249 -0.187,-0.009 h -41.0631 m 53.49,59.32261 -0.1423,0.11243 0.026,-0.0422 0.054,-0.15981 0.052,-0.15568 0.2061,-1.5932 -0.019,-2.32369 -0.2423,-2.94552 -0.4375,-3.43143 -1.3305,-7.98315 -3.4678,-17.85121 v -0.0186 l -1.5652,-8.5107 -0.011,-0.0686 -1.0598,-7.25338 -0.1249,-0.50378 -0.2417,-0.49128 -0.4083,-0.55743 -0.555,-0.55023 -0.6736,-0.48762 -0.7636,-0.3829 -0.8298,-0.24739 -0.9831,-0.0977 h -40.9694 m 57.8955,46.14399 -5.6238,0.71697 m 3.1075,-15.45366 -5.5652,1.0811 m 2.3862,-17.62829 -5.5758,1.02543 m 0.093,-18.6936 -3.3242,4.59239 m -7.5274,-6.50873 v 5.66928 m 22.2196,53.45729 -5.1728,-0.76685"
       inkstitch:satin_column="true"
       sodipodi:nodetypes="cccccccccccccccccccccccccccccccccccccccccccccccccccccccccccccccccccccccccccccccccccccccccccc"
       inkstitch:satin_method="satin_column"
       inkstitch:contour_underlay="False"
       inkstitch:contour_underlay_inset_mm="0"
       inkstitch:short_stitch_distance_mm="0.25"
       inkstitch:reverse_rails="automatic"
       inkstitch:short_stitch_inset="15"
       inkstitch:pull_compensation_mm="-0.1" /><path
       id="path5"
       style="fill:none;stroke:#000000;stroke-width:1px"
       transform="matrix(0.203177,0,0,0.203177,-397.231,10.4023)"
       d="m -2432.7363,194.58752 -1.2561,0.1249 -0.1781,0.0263 -0.1748,0.0432 -1.162,0.3464 -0.1563,0.0542 -0.151,0.0676 -1.0486,0.5259 -0.1336,0.0739 -0.1272,0.0845 -0.9163,0.6632 -0.1149,0.0901 -0.1076,0.0988 -0.7648,0.7583 -0.1015,0.10883 -0.093,0.11647 -0.5943,0.8114 -0.092,0.13743 -0.079,0.14492 -0.4046,0.8223 -0.08,0.18617 -0.059,0.19362 -0.196,0.791 -0.035,0.1797 -1.0769,7.32699 -1.5786,8.51138 -3.5214,17.99818 -0.01,0.0516 -1.3545,8.1103 -0.011,0.0738 -0.4482,3.5384 -0.01,0.0865 -0.247,3.082 -0.01,0.14406 -0.01,2.5418 0.018,0.26519 0.2646,1.9178 0.036,0.1875 0.054,0.18294 0.2465,0.6987 0.085,0.20203 0.1076,0.19087 0.3285,0.5112 0.096,0.13626 0.108,0.12724 0.1188,0.11722 0.1286,0.10628 0.4153,0.3133 0.1377,0.0946 0.1454,0.0821 0.1522,0.0689 0.1576,0.0552 0.1619,0.0411 0.5064,0.1049 0.1954,0.0299 0.1976,0.009 67.293,-0.50305 m -54.2833,-59.0926 -1.0764,0.10703 -0.8298,0.24739 -0.7635,0.3829 -0.6737,0.48762 -0.555,0.55023 -0.4082,0.55742 -0.2417,0.4912 -0.1251,0.50465 -1.0687,7.27129 -0.012,0.0698 -1.5867,8.5553 v 0.0182 l -3.5182,17.98158 -1.344,8.04765 -0.4381,3.45823 -0.2377,2.96674 -0.01,2.33643 0.2202,1.59605 0.065,0.18426 66.3041,-0.33943 m -63.8878,-47.10819 5.609,0.82444 m -6.9733,6.84159 5.5742,1.03381 m -8.3248,13.14526 5.5638,1.08857 m -7.2653,8.04111 5.5918,0.93389 m 3.6208,20.23365 -0.029,-5.6692 m -10.4016,0.93154 5.2313,-1.08456 m 62.3979,5.2839 -0.138,-5.33198"
       inkstitch:satin_column="true"
       sodipodi:nodetypes="cccccccccccccccccccccccccccccccccccccccccccccccccccccccccccccccccccccccccccccccccccccccccccc"
       inkstitch:satin_method="satin_column"
       inkstitch:contour_underlay="False"
       inkstitch:contour_underlay_inset_mm="0"
       inkstitch:short_stitch_distance_mm="0.25"
       inkstitch:reverse_rails="automatic"
       inkstitch:short_stitch_inset="15"
       inkstitch:pull_compensation_mm="-0.1" /></g></g></svg>
