<?xml version="1.0" encoding="UTF-8" standalone="no"?>
<!-- Created with Inkscape (http://www.inkscape.org/) -->

<svg
   width="100mm"
   height="100mm"
   viewBox="0 0 100 100"
   version="1.1"
   id="svg1"
   xml:space="preserve"
   inkscape:version="1.3.2 (091e20e, 2023-11-25)"
   sodipodi:docname="Erdmaennchen.svg"
   xmlns:inkscape="http://www.inkscape.org/namespaces/inkscape"
   xmlns:sodipodi="http://sodipodi.sourceforge.net/DTD/sodipodi-0.dtd"
   xmlns="http://www.w3.org/2000/svg"
   xmlns:svg="http://www.w3.org/2000/svg"
   xmlns:inkstitch="http://inkstitch.org/namespace"><sodipodi:namedview
     id="namedview1"
     pagecolor="#ffffff"
     bordercolor="#000000"
     borderopacity="0.25"
     inkscape:showpageshadow="2"
     inkscape:pageopacity="0.0"
     inkscape:pagecheckerboard="0"
     inkscape:deskcolor="#d1d1d1"
     inkscape:document-units="mm"
     inkscape:zoom="5.4672405"
     inkscape:cx="175.0426"
     inkscape:cy="298.96252"
     inkscape:window-width="1680"
     inkscape:window-height="924"
     inkscape:window-x="85"
     inkscape:window-y="1105"
     inkscape:window-maximized="0"
     inkscape:current-layer="layer1" /><metadata
     id="metadata323"><inkstitch:min_stitch_len_mm>0</inkstitch:min_stitch_len_mm><inkstitch:collapse_len_mm>3</inkstitch:collapse_len_mm><inkstitch:inkstitch_svg_version>1</inkstitch:inkstitch_svg_version></metadata><defs
     id="defs1"><inkscape:path-effect
       effect="fillet_chamfer"
       id="path-effect258"
       is_visible="true"
       lpeversion="1"
       nodesatellites_param="F,0,0,1,0,0,0,1 @ F,0,0,1,0,0,0,1 @ F,0,0,1,0,0,0,1 @ F,0,0,1,0,0,0,1 @ F,0,0,1,0,0,0,1 @ F,0,0,1,0,0,0,1 @ F,0,0,1,0,0,0,1 @ F,0,0,1,0,0,0,1 @ F,0,0,1,0,0,0,1 @ F,0,0,1,0,0,0,1 @ F,0,0,1,0,0,0,1 @ F,0,0,1,0,0,0,1 @ F,0,0,1,0,0,0,1 @ F,0,0,1,0,0,0,1 @ F,0,0,1,0,0,0,1 @ F,0,0,1,0,0,0,1 @ F,0,0,1,0,0,0,1"
       radius="0"
       unit="px"
       method="auto"
       mode="F"
       chamfer_steps="1"
       flexible="false"
       use_knot_distance="true"
       apply_no_radius="true"
       apply_with_radius="true"
       only_selected="false"
       hide_knots="false" /></defs><g
     inkscape:label="Ebene 1"
     inkscape:groupmode="layer"
     id="layer1"
     style="display:inline"><path
       id="path272"
       style="display:inline;fill:#fdf0e8;fill-opacity:1;stroke:none;stroke-width:0.3;stroke-dasharray:none;stroke-opacity:1"
       d="m 43.562557,14.940029 c -1.303257,-0.02426 -2.663429,0.680486 -4.198193,1.507401 -0.762451,0.739376 -1.81072,2.076289 -3.054594,4.575431 -0.04672,0.06819 -0.109693,0.12472 -0.184485,0.171566 -0.603437,1.63305 -0.828939,3.360646 -0.578776,5.045687 0.589552,3.971117 2.259689,6.237241 5.360396,7.351489 -0.677037,1.523471 -1.297554,2.755287 -2.751253,4.893242 -0.0019,1.075765 0.01328,5.047628 0.05839,6.38669 2.052407,2.223127 2.677703,8.161201 3.019971,10.35234 -0.0037,0.0015 -0.0077,0.0021 -0.01137,0.0036 0.04493,0.352688 0.02496,0.767998 0.02222,1.166854 -0.0095,1.380319 -0.07596,1.582516 -0.597379,1.620056 -0.303673,0.03556 -0.649644,-0.114112 -0.928109,-0.219108 -0.12773,-0.04816 -0.268727,-0.114495 -0.415479,-0.19327 1.218374,5.274776 2.440421,9.738232 7.202662,15.697233 0.67814,-0.838827 1.740268,-1.417882 3.670577,0.744141 5.036085,-5.184643 7.52419,-10.361521 3.303157,-23.058541 -1.998363,0.349402 -2.798075,1.556896 -4.536157,3.905188 -0.534441,0.810407 -0.619205,1.339773 -0.960148,1.966288 -0.450309,0.827481 -1.614987,1.545125 -2.161625,1.545125 -0.127725,0 -0.311011,-0.08713 -0.407211,-0.193269 -0.152932,-0.168733 -0.245512,-0.3709 -0.204122,-1.604554 l 0.05013,-1.486214 c -0.0047,-0.0026 -0.0093,-0.0036 -0.01395,-0.0062 -0.123929,-5.061326 3.274409,-8.115637 4.918046,-10.662398 1.41321,-2.189718 2.562206,-5.508482 6.173267,-8.120435 -0.507028,-1.712492 -0.920279,-2.563952 -1.274341,-3.60133 3.454583,-1.956272 5.330756,-5.401192 5.066874,-9.550322 -0.0412,-0.647824 -0.164099,-1.293571 -0.347266,-1.930115 -0.03575,-0.02721 -0.06759,-0.05737 -0.09405,-0.09095 -0.554457,-1.962059 -2.148034,-3.878135 -2.941422,-4.65708 -2.592881,-1.548047 -5.633217,-3.030629 -8.520927,2.626713 -1.6286,-3.098144 -3.11037,-4.156346 -4.664832,-4.185274 z m 10.483081,4.809008 c 0.157702,-1.45e-4 0.319015,0.0068 0.483692,0.02067 3.786066,0.318589 5.215381,5.471369 4.183724,7.002673 -1.706042,2.532309 -8.000533,0.620755 -8.315772,-2.680456 -0.264966,-2.774745 1.282852,-4.340705 3.648356,-4.342887 z m -12.153263,0.165365 c 1.909151,0.01942 4.632268,2.139561 4.27054,4.274158 -0.510142,3.010462 -6.860398,4.950866 -8.630481,2.462898 -1.709515,-2.40284 1.477266,-6.331885 3.989938,-6.712251 0.118887,-0.018 0.242725,-0.0261 0.370003,-0.0248 z m 6.243546,5.385718 c 0.615383,0.0057 1.222829,0.358986 1.432988,1.005106 0.139756,0.479402 -0.361896,0.628827 -1.227315,1.028361 l -0.0057,2.27583 c 0.611467,0.204783 1.033812,0.246566 0.961182,-0.557588 l 0.298173,-0.02791 c 0.126154,1.282842 -0.912335,1.097098 -1.408183,0.834058 -0.473756,0.211916 -1.460583,0.468814 -1.392163,-0.828373 l 0.315226,0.02222 c -0.05216,0.583047 0.09802,0.854411 0.905371,0.557588 l 0.01137,-2.27738 c -0.89963,-0.397495 -1.467533,-0.602433 -1.370976,-0.950846 0.241585,-0.745107 0.864641,-1.086793 1.480013,-1.081071 z"
       inkstitch:angle="90"
       inkstitch:lock_start="back_forth"
       inkstitch:lock_end="back_forth"
       inkstitch:fill_underlay="True"
       inkstitch:row_spacing_mm="0.3" /><g
       id="g302"
       style="display:inline"
       transform="translate(0.619442, 3.92313)"><path
         d="m 55.730822,32.395911 c -3.620934,2.613344 -4.770401,5.937673 -6.185248,8.129929 -1.643651,2.546782 -5.041608,5.600668 -4.917679,10.662029 1.22805,0.677969 2.317463,0.428041 3.689334,-0.211009 1.743788,-2.355595 2.542356,-3.56494 4.543873,-3.914891 4.22525,12.709711 1.728423,17.884108 -3.317754,23.073954 3.153471,3.371854 3.458991,6.0628 2.109472,10.110599 1.596852,0.315286 2.903786,0.31193 4.668909,-0.709564 0.515235,-2.99164 0.211295,-3.888859 3.046568,-7.457932 1.489413,5.94589 6.112669,8.250296 9.986742,8.251645 1.407046,-1.312031 1.703789,-2.242651 0.854695,-3.761561 -4.455271,-0.735317 -6.81104,-5.404115 -7.320617,-10.07216 -0.263919,-2.417665 0.547191,-6.71251 -0.198705,-11.830053 -0.407603,-2.796537 -1.465828,-4.7556 -2.369927,-7.406906 -1.648374,-4.83392 -3.4005,-10.554029 -4.589663,-14.86408 z"
         style="display:inline;fill:#e0a419;fill-opacity:1"
         id="path55"
         sodipodi:nodetypes="cscccccccccsssc"
         inkstitch:lock_start="back_forth"
         inkstitch:lock_end="back_forth"
         inkstitch:fill_underlay="True"
         inkstitch:row_spacing_mm="0.3" /><path
         style="display:inline;fill:#e0a419;fill-opacity:1;stroke:none;stroke-width:2"
         d="m 37.536139,34.555516 c -0.0019,1.071025 0.01332,5.052529 0.05849,6.39294 2.052419,2.223139 2.677625,8.161124 3.019899,10.352275 -1.411373,0.573709 -3.171095,0.380824 -3.550718,-0.170257 -0.05613,1.03231 0.791778,1.828529 1.619518,2.544955 1.219331,5.279317 2.441134,9.745285 7.211005,15.710623 -0.899733,1.708098 -0.161283,3.36312 -0.131401,4.926655 0.02988,1.563535 -0.210091,3.22955 -0.192503,3.908672 -1.191238,0.900456 -2.650634,1.807927 -4.673464,1.295614 1.910109,-3.508838 -1.807113,-5.096624 -2.121093,-6.4999 -0.502933,-2.247764 0.04669,-4.322721 -0.598926,-6.775337 -0.645617,-2.452616 -2.911674,-1.943702 -3.565547,-10.206459 -0.09574,-1.20988 0.182358,-3.826031 0.03186,-5.67181 -0.304371,-3.732838 -1.028632,-4.954638 -0.796648,-7.112825 0.359077,-3.340564 1.390099,-5.344359 3.689533,-8.695146 z"
         id="path258"
         sodipodi:nodetypes="cccccczccszssscc"
         inkstitch:lock_start="back_forth"
         inkstitch:lock_end="back_forth"
         inkstitch:fill_underlay="True"
         inkstitch:row_spacing_mm="0.3" /><path
         style="fill:#e0a419;fill-opacity:1;stroke:none;stroke-width:2"
         d="m 33.58752,17.158233 c -2.813229,-6.2052 2.536761,-3.003866 4.920146,-4.508546 3.489071,-1.882941 6.034526,-3.2794785 9.100141,2.552367 2.949227,-5.7778582 6.060895,-4.110305 8.689141,-2.529633 2.715537,1.376993 7.774303,-1.476183 4.608564,4.658273 1.518878,-0.41237 2.832374,-3.051628 1.761587,-4.539162 -1.396425,-1.93991 -0.757395,-0.389474 -8.052331,-1.801291 -3.308647,-3.2158314 -9.673419,-3.9052614 -14.466746,-0.05607 -4.851521,1.317752 -5.995784,0.132433 -7.443415,1.132057 -1.443427,0.99672 -0.988476,4.430313 0.882913,5.092005 z"
         id="path260"
         sodipodi:nodetypes="cccccsccsc"
         inkstitch:lock_start="back_forth"
         inkstitch:lock_end="back_forth"
         inkstitch:fill_underlay="True"
         inkstitch:row_spacing_mm="0.3" /></g><g
       id="g303"
       transform="translate(0.619442, 3.92313)"><path
         id="path261"
         style="fill:#6a484e;fill-opacity:1;stroke:none;stroke-width:2"
         d="m 38.744405,12.524817 c -0.08044,0.04334 -0.155233,0.0811 -0.236678,0.125057 -2.382128,1.503886 -7.727407,-1.693084 -4.924247,4.49895 0.774274,0.372328 1.792715,0.409349 2.106848,-0.04909 1.243596,-2.498586 2.291666,-3.835431 3.054077,-4.574914 z"
         inkstitch:fill_method="circular_fill"
         inkstitch:lock_start="back_forth"
         inkstitch:lock_end="back_forth"
         inkstitch:fill_underlay="True"
         inkstitch:row_spacing_mm="0.3" /><path
         id="path264"
         style="display:inline;fill:#6a484e;fill-opacity:1;stroke:none;stroke-width:2"
         d="m 41.272933,15.991272 c -0.127278,-0.0013 -0.251116,0.0068 -0.370003,0.0248 -2.512688,0.380374 -5.699469,4.309387 -3.989938,6.712251 1.770091,2.487984 8.120331,0.547588 8.630481,-2.462898 0.361728,-2.134613 -2.361373,-4.254742 -4.27054,-4.274158 z m 0.232027,2.199349 c 1.097073,-0.04428 2.510929,1.322018 1.846916,2.510958 -0.708281,1.268202 -2.347326,1.036633 -3.029789,0.131775 -0.682465,-0.904859 -0.145408,-2.358958 0.968416,-2.614311 0.06961,-0.01596 0.141319,-0.02547 0.214457,-0.02842 z"
         inkstitch:fill_method="circular_fill"
         inkstitch:lock_start="back_forth"
         inkstitch:lock_end="back_forth"
         inkstitch:fill_underlay="True"
         inkstitch:row_spacing_mm="0.3" /><path
         id="path265"
         style="display:inline;fill:#6a484e;fill-opacity:1;stroke:none;stroke-width:2"
         d="m 53.426196,15.825907 c -2.365531,0.0022 -3.913322,1.568116 -3.648356,4.342888 0.315239,3.301247 6.609721,5.212783 8.315772,2.680456 1.031666,-1.531322 -0.397622,-6.684084 -4.183724,-7.002673 -0.164677,-0.01386 -0.32599,-0.02082 -0.483692,-0.02067 z m -0.373104,2.474785 c 1.341166,-0.01084 2.159442,1.335613 1.473296,2.564184 -0.708282,1.268202 -2.184029,0.851924 -2.866492,0.07752 -0.682463,-0.774413 -0.156256,-2.533365 1.261938,-2.636532 0.04432,-0.0032 0.088,-0.0048 0.131258,-0.0052 z"
         inkstitch:fill_method="circular_fill"
         inkstitch:lock_start="back_forth"
         inkstitch:lock_end="back_forth"
         inkstitch:fill_underlay="True"
         inkstitch:row_spacing_mm="0.3" /><path
         id="path262"
         style="display:inline;fill:#6a484e;fill-opacity:1;stroke:none;stroke-width:2"
         d="m 56.128874,12.57546 c 0.793392,0.778949 2.386961,2.695013 2.941422,4.65708 0.279239,0.354471 1.10649,0.34824 1.839164,0.09043 3.156969,-6.123674 -1.898318,-3.273987 -4.612638,-4.650363 -0.05481,-0.03296 -0.112724,-0.06418 -0.167948,-0.09715 z"
         inkstitch:fill_method="circular_fill"
         inkstitch:lock_start="back_forth"
         inkstitch:lock_end="back_forth"
         inkstitch:fill_underlay="True"
         inkstitch:row_spacing_mm="0.3" /><path
         id="path286"
         style="display:inline;fill:#6a484e;fill-opacity:1"
         d="m 37.063888,51.130729 c -0.05613,1.032309 0.7918,1.828122 1.619539,2.544548 2.86e-4,0.0012 7.47e-4,0.0024 10e-4,0.0036 0.146752,0.07878 0.287749,0.145109 0.415479,0.19327 0.278465,0.104996 0.624436,0.254668 0.928109,0.219108 0.52142,-0.03754 0.587879,-0.239733 0.597379,-1.620056 0.0027,-0.398856 0.02271,-0.814166 -0.02222,-1.166854 -1.409489,0.568221 -3.160687,0.376009 -3.539318,-0.173633 z"
         inkstitch:expand_mm="0"
         inkstitch:angle="95"
         inkstitch:lock_start="back_forth"
         inkstitch:lock_end="back_forth"
         inkstitch:fill_underlay="True"
         inkstitch:row_spacing_mm="0.3" /><path
         id="path287"
         style="display:inline;fill:#6a484e;fill-opacity:1"
         d="m 48.324699,50.966915 c -0.0027,0.0037 -0.0045,0.0061 -0.0072,0.0098 -1.366649,0.636618 -2.453414,0.885919 -3.675744,0.217558 l -0.05013,1.486214 c -0.04139,1.233655 0.05119,1.435821 0.204122,1.604554 0.0962,0.106142 0.279486,0.193269 0.407211,0.193269 0.546639,0 1.711316,-0.717643 2.161625,-1.545125 0.340944,-0.626516 0.425707,-1.15588 0.960148,-1.966288 z"
         inkstitch:angle="86"
         inkstitch:lock_start="back_forth"
         inkstitch:lock_end="back_forth"
         inkstitch:fill_underlay="True"
         inkstitch:row_spacing_mm="0.3" /><path
         id="path289"
         style="display:inline;fill:#6a484e;fill-opacity:1"
         d="m 45.562077,78.227783 c -1.189333,0.898121 -2.646144,1.799827 -4.663281,1.289844 -1.070913,1.59943 -2.168905,3.28347 -0.929143,3.854028 1.080395,0.497217 2.566488,-0.330163 3.110922,-0.432015 1.500702,-0.462551 2.547114,-1.185674 2.527494,-2.130102 -0.01845,-0.888025 0.005,-1.797431 -0.04599,-2.581755 z"
         inkstitch:angle="60"
         inkstitch:lock_start="back_forth"
         inkstitch:lock_end="back_forth"
         inkstitch:fill_underlay="True"
         inkstitch:row_spacing_mm="0.3" /><path
         id="path290"
         style="display:inline;fill:#6a484e;fill-opacity:1"
         d="m 56.309263,79.650163 c 0.0026,-0.02061 0.01593,-0.134098 0.01236,-0.113416 -1.764556,1.021166 -3.071262,1.024498 -4.667416,0.709518 -0.339396,0.645817 -0.930118,0.915219 -1.104842,2.636014 -0.09942,0.979146 0.401871,1.75451 1.356507,1.555461 2.354301,-0.49089 4.172345,-2.953215 4.403387,-4.787577 z"
         sodipodi:nodetypes="sccsss"
         inkstitch:angle="65"
         inkstitch:lock_start="back_forth"
         inkstitch:lock_end="back_forth"
         inkstitch:fill_underlay="True"
         inkstitch:row_spacing_mm="0.3" /><path
         id="path288"
         style="display:inline;fill:#6a484e;fill-opacity:1"
         d="m 77.831942,76.53383 c -0.497851,0.01712 -3.215882,0.537411 -7.621241,0.03721 0.846558,1.515766 0.550834,2.445939 -0.85111,3.754809 4.871693,0.04827 9.729602,-3.413757 8.543664,-3.787882 -0.01303,-0.0041 -0.03695,-0.0053 -0.07131,-0.0041 z"
         sodipodi:nodetypes="sccss"
         inkstitch:angle="20"
         inkstitch:lock_start="back_forth"
         inkstitch:lock_end="back_forth"
         inkstitch:fill_underlay="True"
         inkstitch:row_spacing_mm="0.3" /></g><g
       id="g304"
       transform="translate(0.619442, 3.92313)"><path
         style="display:inline;fill:#000000;fill-opacity:1;stroke:none;stroke-width:2"
         d="m 41.290569,18.218898 c 1.113825,-0.255353 2.769554,1.214506 2.061273,2.48271 -0.708282,1.268203 -2.347189,1.036777 -3.029653,0.131918 -0.682465,-0.90486 -0.145445,-2.359275 0.96838,-2.614628 z"
         id="path266"
         sodipodi:nodetypes="zzzz"
         inkstitch:lock_start="back_forth"
         inkstitch:lock_end="back_forth"
         inkstitch:fill_underlay="True"
         inkstitch:row_spacing_mm="0.3" /><path
         style="display:inline;fill:#000000;fill-opacity:1;stroke:none;stroke-width:2"
         d="m 47.568965,23.480111 c -1.002197,-0.451219 -1.635432,-0.651259 -1.532729,-1.02182 0.483169,-1.490214 2.492956,-1.368352 2.913274,-0.07609 0.148557,0.509591 -0.410958,0.636016 -1.380545,1.097912 z"
         id="path268"
         sodipodi:nodetypes="cccc"
         inkstitch:lock_start="back_forth"
         inkstitch:lock_end="back_forth"
         inkstitch:fill_underlay="True"
         inkstitch:row_spacing_mm="0.3" /><path
         style="display:inline;fill:#000000;fill-opacity:1;stroke:none;stroke-width:2"
         d="m 52.92192,18.305861 c 1.418197,-0.103167 2.312997,1.290599 1.604716,2.558803 -0.708282,1.268203 -2.184133,0.85198 -2.866597,0.07757 -0.682464,-0.774414 -0.156315,-2.533202 1.261881,-2.636369 z"
         id="path267"
         sodipodi:nodetypes="zzzz"
         inkstitch:lock_start="back_forth"
         inkstitch:lock_end="back_forth"
         inkstitch:fill_underlay="True"
         inkstitch:row_spacing_mm="0.3" /></g><g
       id="g290"
       transform="translate(0.619442, 3.92313)"><path
         id="path1"
         style="fill:none;stroke:#000000;stroke-width:1px"
         transform="scale(0.264583, 0.264583)"
         d="m 179.21139,88.461898 -0.0623,8.6094 m 1.19612,-8.601196 -0.0623,8.6094 m -1.38613,-4.314956 1.70074,0.01231"
         inkstitch:satin_column="true" /><path
         id="path2"
         style="fill:none;stroke:#000000;stroke-width:1px"
         transform="scale(0.264583, 0.264583)"
         d="m 183.94607,94.945998 -0.004,1.321058 -0.25699,0.741423 -0.39111,0.38435 -0.53571,0.181328 -0.68148,0.0057 -0.72343,-0.144116 -1.52384,-0.634205 -1.52093,0.592029 -0.7316,0.144411 -0.68751,-6.61e-4 -0.53901,-0.17407 -0.38984,-0.373148 -0.257,-0.728752 -0.005,-1.315795 m 9.3807,0.0036 -0.004,1.510342 -0.40601,1.171377 -0.76589,0.75265 -0.95389,0.322872 -0.97992,0.0083 -0.94817,-0.188884 -1.20616,-0.501995 -1.18887,0.462771 -0.9392,0.185389 -0.97689,-9.39e-4 -0.95599,-0.30873 -0.77316,-0.740052 -0.4108,-1.164848 -0.005,-1.507805 m 9.09522,0.712119 1.70078,0.0048 m -8.56653,1.542299 -0.52267,1.618483 m 6.45606,-1.793203 0.42645,2.103798 m -8.97197,-3.228207 1.70078,0.0049"
         inkstitch:satin_column="true"
         sodipodi:nodetypes="cccccccccccccccccccccccccccccccccccccc" /></g></g></svg>
