<?xml version="1.0" encoding="UTF-8" standalone="no"?>
<!-- Created with Inkscape (http://www.inkscape.org/) -->

<svg
   width="100mm"
   height="100mm"
   viewBox="0 0 100 100"
   version="1.1"
   id="svg1"
   xml:space="preserve"
   inkscape:version="1.3.2 (091e20e, 2023-11-25)"
   sodipodi:docname="Kegel.svg"
   xmlns:inkscape="http://www.inkscape.org/namespaces/inkscape"
   xmlns:sodipodi="http://sodipodi.sourceforge.net/DTD/sodipodi-0.dtd"
   xmlns:xlink="http://www.w3.org/1999/xlink"
   xmlns="http://www.w3.org/2000/svg"
   xmlns:svg="http://www.w3.org/2000/svg"
   xmlns:inkstitch="http://inkstitch.org/namespace"><sodipodi:namedview
     id="namedview1"
     pagecolor="#ffffff"
     bordercolor="#000000"
     borderopacity="0.25"
     inkscape:showpageshadow="2"
     inkscape:pageopacity="0.0"
     inkscape:pagecheckerboard="true"
     inkscape:deskcolor="#d1d1d1"
     inkscape:document-units="mm"
     inkscape:zoom="1.3053918"
     inkscape:cx="158.19006"
     inkscape:cy="214.11196"
     inkscape:window-width="1680"
     inkscape:window-height="924"
     inkscape:window-x="0"
     inkscape:window-y="25"
     inkscape:window-maximized="0"
     inkscape:current-layer="layer1" /><metadata
     id="metadata194"><inkstitch:min_stitch_len_mm>0.1</inkstitch:min_stitch_len_mm><inkstitch:collapse_len_mm>3</inkstitch:collapse_len_mm><inkstitch:inkstitch_svg_version>2</inkstitch:inkstitch_svg_version></metadata><defs
     id="defs1" /><g
     inkscape:label="Ebene 1"
     inkscape:groupmode="layer"
     id="layer1"
     transform="translate(-52.2363, -90.6339)"><g
       id="g107"
       style="display:none"><g
         id="g41"
         style="display:none"
         transform="matrix(0.61758697,0.53497062,-0.53497062,0.61758697,123.93324,5.6178683)"><path
           style="fill:none;fill-rule:evenodd;stroke:#000000;stroke-width:0.131;stroke-linecap:round;stroke-dasharray:none"
           d="m 76.117849,131.39242 c 0.466605,1.4889 2.470182,5.61661 3.679745,6.63585 5.27842,4.44788 8.546151,5.72252 9.544164,15.07661 -2.742319,1.29316 -3.233742,1.6215 -4.584174,3.02095 -9.847766,-7.52537 -7.334303,-10.7312 -8.589876,-14.68779 -1.046162,-3.29668 -2.025384,-4.66138 -4.493366,-8.07987 -2.603901,-3.60676 3.218625,-5.87424 4.443507,-1.96575 z"
           id="path36"
           sodipodi:nodetypes="ssccsss" /><g
           id="g40"
           style="display:none;fill:none;fill-opacity:1"><path
             style="fill:none;fill-opacity:1;fill-rule:evenodd;stroke:#000000;stroke-width:0.131;stroke-linecap:round;stroke-dasharray:none"
             d="m 73.285103,135.66754 c 1.117471,-1.425 2.39732,-1.92986 3.754358,-1.99732"
             id="path37"
             sodipodi:nodetypes="cc" /><path
             style="fill:none;fill-opacity:1;fill-rule:evenodd;stroke:#000000;stroke-width:0.131;stroke-linecap:round;stroke-dasharray:none"
             d="m 73.930853,136.59863 c 1.013923,-0.96257 2.12853,-1.74893 3.619201,-1.87719"
             id="path38"
             sodipodi:nodetypes="cc" /><path
             style="fill:none;fill-opacity:1;fill-rule:evenodd;stroke:#000000;stroke-width:0.131;stroke-linecap:round;stroke-dasharray:none"
             d="m 74.75585,138.15448 c 1.117471,-1.425 2.39732,-1.92986 3.754358,-1.99732"
             id="path39"
             sodipodi:nodetypes="cc" /><path
             style="fill:none;fill-opacity:1;fill-rule:evenodd;stroke:#000000;stroke-width:0.131;stroke-linecap:round;stroke-dasharray:none"
             d="m 75.4016,139.08557 c 1.013923,-0.96257 2.12853,-1.74893 3.619201,-1.87719"
             id="path40"
             sodipodi:nodetypes="cc" /></g></g><g
         id="g56"
         style="display:none"
         transform="matrix(-0.06027671,1.1129764,-1.1129764,-0.06027671,293.20201,69.16003)"><path
           style="fill:none;fill-rule:evenodd;stroke:#000000;stroke-width:0.131;stroke-linecap:round;stroke-dasharray:none"
           d="m 76.117849,131.39242 c 0.466605,1.4889 2.470182,5.61661 3.679745,6.63585 5.27842,4.44788 8.526597,4.66026 9.52461,14.01435 -2.742319,1.29316 -3.065878,1.91621 -4.41631,3.31566 -7.782416,-5.85236 -7.125425,-9.67919 -8.380998,-13.63578 -1.046162,-3.29668 -2.382572,-4.94584 -4.850554,-8.36433 -2.603901,-3.60676 3.218625,-5.87424 4.443507,-1.96575 z"
           id="path51"
           sodipodi:nodetypes="ssccsss" /><g
           id="g55"
           style="display:none;fill:none;fill-opacity:1"><path
             style="fill:none;fill-opacity:1;fill-rule:evenodd;stroke:#000000;stroke-width:0.131;stroke-linecap:round;stroke-dasharray:none"
             d="m 73.840507,136.37762 c 1.15953,-1.40674 1.512332,-1.6467 3.318635,-2.51883"
             id="path52"
             sodipodi:nodetypes="cc" /><path
             style="fill:none;fill-opacity:1;fill-rule:evenodd;stroke:#000000;stroke-width:0.131;stroke-linecap:round;stroke-dasharray:none"
             d="m 74.575859,137.49434 c 1.013923,-0.96257 1.72393,-1.67453 3.247195,-2.33847"
             id="path53"
             sodipodi:nodetypes="cc" /><path
             style="fill:none;fill-opacity:1;fill-rule:evenodd;stroke:#000000;stroke-width:0.131;stroke-linecap:round;stroke-dasharray:none"
             d="m 75.400259,139.06299 c 1.030231,-1.13997 2.098024,-1.89191 3.281796,-2.50443"
             id="path54"
             sodipodi:nodetypes="cc" /><path
             style="fill:none;fill-opacity:1;fill-rule:evenodd;stroke:#000000;stroke-width:0.131;stroke-linecap:round;stroke-dasharray:none"
             d="m 76.004502,140.27112 c 1.023309,-1.16843 2.203875,-2.01962 3.384383,-2.665"
             id="path55"
             sodipodi:nodetypes="cc" /></g></g><g
         id="g23"
         style="display:none"
         transform="rotate(40.9,116.40741,169.31619)"><path
           style="fill:none;fill-rule:evenodd;stroke:#000000;stroke-width:0.131;stroke-linecap:round;stroke-dasharray:none"
           d="m 76.117849,131.39242 c 0.466605,1.4889 2.470182,5.61661 3.679745,6.63585 5.27842,4.44788 8.546151,5.72252 9.544164,15.07661 -2.742319,1.29316 -3.233742,1.6215 -4.584174,3.02095 -9.847766,-7.52537 -7.334303,-10.7312 -8.589876,-14.68779 -1.046162,-3.29668 -2.025384,-4.66138 -4.493366,-8.07987 -2.603901,-3.60676 3.218625,-5.87424 4.443507,-1.96575 z"
           id="path14"
           sodipodi:nodetypes="ssccsss" /><g
           id="g18"
           style="display:none;fill:none;fill-opacity:1"><path
             style="fill:none;fill-opacity:1;fill-rule:evenodd;stroke:#000000;stroke-width:0.131;stroke-linecap:round;stroke-dasharray:none"
             d="m 73.285103,135.66754 c 1.117471,-1.425 2.39732,-1.92986 3.754358,-1.99732"
             id="path15"
             sodipodi:nodetypes="cc" /><path
             style="fill:none;fill-opacity:1;fill-rule:evenodd;stroke:#000000;stroke-width:0.131;stroke-linecap:round;stroke-dasharray:none"
             d="m 73.930853,136.59863 c 1.013923,-0.96257 2.12853,-1.74893 3.619201,-1.87719"
             id="path16"
             sodipodi:nodetypes="cc" /><path
             style="fill:none;fill-opacity:1;fill-rule:evenodd;stroke:#000000;stroke-width:0.131;stroke-linecap:round;stroke-dasharray:none"
             d="m 74.75585,138.15448 c 1.117471,-1.425 2.39732,-1.92986 3.754358,-1.99732"
             id="path17"
             sodipodi:nodetypes="cc" /><path
             style="fill:none;fill-opacity:1;fill-rule:evenodd;stroke:#000000;stroke-width:0.131;stroke-linecap:round;stroke-dasharray:none"
             d="m 75.4016,139.08557 c 1.013923,-0.96257 2.12853,-1.74893 3.619201,-1.87719"
             id="path18"
             sodipodi:nodetypes="cc" /></g></g><g
         id="g36"
         style="display:none"><path
           style="fill:none;fill-rule:evenodd;stroke:#000000;stroke-width:0.115454;stroke-linecap:round;stroke-dasharray:none"
           d="m 70.500379,141.63506 c 0.576982,1.45417 2.451619,3.70685 3.775646,4.39141 3.508885,1.81419 8.179464,2.9535 9.38052,9.025 -2.933234,0.93906 -3.405444,3.07409 -3.995087,4.43761 -9.705258,-5.01065 -7.764765,-7.68592 -9.107749,-10.55911 -1.118994,-2.39397 -2.079632,-3.20573 -4.036075,-4.84061 -3.966794,-3.3148 2.322881,-6.63765 3.982745,-2.4543 z"
           id="path24"
           sodipodi:nodetypes="ssccsss" /><path
           style="fill:none;fill-opacity:1;fill-rule:evenodd;stroke:#000000;stroke-width:0.115;stroke-linecap:round;stroke-dasharray:none;stroke-opacity:1"
           d="m 79.661458,159.48907 c 2.050095,-0.50669 3.782772,-1.67848 3.995087,-4.43761"
           id="path29"
           sodipodi:nodetypes="cc" /><g
           id="g28"
           style="display:none;fill:none;fill-opacity:1"
           transform="matrix(1.0696181,0,0,0.72617823,-10.91665,46.220748)"><path
             style="fill:none;fill-opacity:1;fill-rule:evenodd;stroke:#000000;stroke-width:0.131;stroke-linecap:round;stroke-dasharray:none"
             d="m 73.354862,135.96997 c 0.565482,-2.66225 1.791388,-3.37513 3.148426,-3.44259"
             id="path25"
             sodipodi:nodetypes="cc" /><path
             style="fill:none;fill-opacity:1;fill-rule:evenodd;stroke:#000000;stroke-width:0.131;stroke-linecap:round;stroke-dasharray:none"
             d="m 73.981634,136.80856 c 0.725928,-1.88167 1.536733,-2.95417 3.075403,-3.04708"
             id="path26"
             sodipodi:nodetypes="cc" /><path
             style="fill:none;fill-opacity:1;fill-rule:evenodd;stroke:#000000;stroke-width:0.131;stroke-linecap:round;stroke-dasharray:none"
             d="m 74.773397,138.05637 c 0.63748,-2.30875 1.49829,-3.16186 2.855328,-3.22932"
             id="path27"
             sodipodi:nodetypes="cc" /><path
             style="fill:none;fill-opacity:1;fill-rule:evenodd;stroke:#000000;stroke-width:0.131;stroke-linecap:round;stroke-dasharray:none"
             d="m 75.355317,139.23325 c 0.413935,-1.74027 1.399406,-3.29049 2.890077,-3.41875"
             id="path28"
             sodipodi:nodetypes="cc" /></g></g><g
         id="g46"
         style="display:none"
         transform="matrix(0.6352254,0.60915926,-0.60915926,0.6352254,147.98068,0.36822217)"><path
           style="fill:none;fill-rule:evenodd;stroke:#000000;stroke-width:0.131;stroke-linecap:round;stroke-dasharray:none"
           d="m 76.117849,131.39242 c 0.466605,1.4889 2.470182,5.61661 3.679745,6.63585 5.27842,4.44788 8.546151,5.72252 9.544164,15.07661 -2.742319,1.29316 -3.233742,1.6215 -4.584174,3.02095 -9.847766,-7.52537 -7.334303,-10.7312 -8.589876,-14.68779 -1.046162,-3.29668 -2.025384,-4.66138 -4.493366,-8.07987 -2.603901,-3.60676 3.218625,-5.87424 4.443507,-1.96575 z"
           id="path41"
           sodipodi:nodetypes="ssccsss" /><g
           id="g45"
           style="display:none;fill:none;fill-opacity:1"><path
             style="fill:none;fill-opacity:1;fill-rule:evenodd;stroke:#000000;stroke-width:0.131;stroke-linecap:round;stroke-dasharray:none"
             d="m 73.285103,135.66754 c 1.117471,-1.425 2.39732,-1.92986 3.754358,-1.99732"
             id="path42"
             sodipodi:nodetypes="cc" /><path
             style="fill:none;fill-opacity:1;fill-rule:evenodd;stroke:#000000;stroke-width:0.131;stroke-linecap:round;stroke-dasharray:none"
             d="m 73.930853,136.59863 c 1.013923,-0.96257 2.12853,-1.74893 3.619201,-1.87719"
             id="path43"
             sodipodi:nodetypes="cc" /><path
             style="fill:none;fill-opacity:1;fill-rule:evenodd;stroke:#000000;stroke-width:0.131;stroke-linecap:round;stroke-dasharray:none"
             d="m 74.75585,138.15448 c 1.117471,-1.425 2.39732,-1.92986 3.754358,-1.99732"
             id="path44"
             sodipodi:nodetypes="cc" /><path
             style="fill:none;fill-opacity:1;fill-rule:evenodd;stroke:#000000;stroke-width:0.131;stroke-linecap:round;stroke-dasharray:none"
             d="m 75.4016,139.08557 c 1.013923,-0.96257 2.12853,-1.74893 3.619201,-1.87719"
             id="path45"
             sodipodi:nodetypes="cc" /></g></g><g
         id="g51"
         style="display:none"
         transform="matrix(0.3707478,1.1145092,-1.1145092,0.3707478,251.74698,-0.2317378)"><path
           style="fill:none;fill-rule:evenodd;stroke:#000000;stroke-width:0.131;stroke-linecap:round;stroke-dasharray:none"
           d="m 76.117849,131.39242 c 0.466605,1.4889 2.470182,5.61661 3.679745,6.63585 5.27842,4.44788 8.546151,5.72252 9.544164,15.07661 -2.742319,1.29316 -3.233742,1.6215 -4.584174,3.02095 -9.847766,-7.52537 -7.334303,-10.7312 -8.589876,-14.68779 -1.046162,-3.29668 -2.025384,-4.66138 -4.493366,-8.07987 -2.603901,-3.60676 3.218625,-5.87424 4.443507,-1.96575 z"
           id="path46"
           sodipodi:nodetypes="ssccsss" /><g
           id="g50"
           style="display:none;fill:none;fill-opacity:1"><path
             style="fill:none;fill-opacity:1;fill-rule:evenodd;stroke:#000000;stroke-width:0.131;stroke-linecap:round;stroke-dasharray:none"
             d="m 73.285103,135.66754 c 1.117471,-1.425 2.39732,-1.92986 3.754358,-1.99732"
             id="path47"
             sodipodi:nodetypes="cc" /><path
             style="fill:none;fill-opacity:1;fill-rule:evenodd;stroke:#000000;stroke-width:0.131;stroke-linecap:round;stroke-dasharray:none"
             d="m 73.930853,136.59863 c 1.013923,-0.96257 2.12853,-1.74893 3.619201,-1.87719"
             id="path48"
             sodipodi:nodetypes="cc" /><path
             style="fill:none;fill-opacity:1;fill-rule:evenodd;stroke:#000000;stroke-width:0.131;stroke-linecap:round;stroke-dasharray:none"
             d="m 74.75585,138.15448 c 1.117471,-1.425 2.39732,-1.92986 3.754358,-1.99732"
             id="path49"
             sodipodi:nodetypes="cc" /><path
             style="fill:none;fill-opacity:1;fill-rule:evenodd;stroke:#000000;stroke-width:0.131;stroke-linecap:round;stroke-dasharray:none"
             d="m 75.4016,139.08557 c 1.013923,-0.96257 2.12853,-1.74893 3.619201,-1.87719"
             id="path50"
             sodipodi:nodetypes="cc" /></g></g><g
         id="g61"
         style="display:none"
         transform="matrix(0.89545467,1.0862736,-1.0862736,0.89545467,202.29417,-77.083758)"><path
           style="fill:none;fill-rule:evenodd;stroke:#000000;stroke-width:0.131;stroke-linecap:round;stroke-dasharray:none"
           d="m 76.679861,131.02066 c 0.528936,2.04563 1.90817,5.98837 3.117733,7.00761 5.27842,4.44788 8.546151,5.72252 9.544164,15.07661 -2.742319,1.29316 -3.233742,1.6215 -4.584174,3.02095 -9.847766,-7.52537 -7.334303,-10.7312 -8.589876,-14.68779 -1.046162,-3.29668 -1.570664,-4.46317 -4.151011,-7.79765 -3.257253,-4.20923 3.51482,-7.06089 4.663164,-2.61973 z"
           id="path56"
           sodipodi:nodetypes="ssccsss" /><g
           id="g60"
           style="display:none;fill:none;fill-opacity:1"><path
             style="fill:none;fill-opacity:1;fill-rule:evenodd;stroke:#000000;stroke-width:0.131;stroke-linecap:round;stroke-dasharray:none"
             d="m 73.933872,136.59298 c 1.664631,-0.2685 3.044869,-1.31455 3.863989,-2.11892"
             id="path57"
             sodipodi:nodetypes="cc" /><path
             style="fill:none;fill-opacity:1;fill-rule:evenodd;stroke:#000000;stroke-width:0.131;stroke-linecap:round;stroke-dasharray:none"
             d="m 74.68211,137.86143 c 1.352391,-0.39845 2.620854,-0.99369 3.55621,-2.05287"
             id="path58"
             sodipodi:nodetypes="cc" /><path
             style="fill:none;fill-opacity:1;fill-rule:evenodd;stroke:#000000;stroke-width:0.131;stroke-linecap:round;stroke-dasharray:none"
             d="m 75.434716,139.31258 c 1.616729,-0.32123 2.67579,-0.94592 3.630411,-2.10397"
             id="path59"
             sodipodi:nodetypes="cc" /><path
             style="display:inline;fill:none;fill-opacity:1;fill-rule:evenodd;stroke:#000000;stroke-width:0.131;stroke-linecap:round;stroke-dasharray:none"
             d="m 75.923492,140.70028 c 1.229612,-0.26533 3.083347,-0.9941 4.171758,-2.4227"
             id="path60"
             sodipodi:nodetypes="cc" /></g></g><g
         id="g66"
         style="display:none"
         transform="matrix(1.3445554,-0.22982892,0.22982892,1.3445554,-50.492547,-42.093618)"><path
           style="display:inline;fill:none;fill-rule:evenodd;stroke:#000000;stroke-width:0.131;stroke-linecap:round;stroke-dasharray:none"
           d="m 76.117849,131.39242 c 0.466605,1.4889 2.470182,5.61661 3.679745,6.63585 5.27842,4.44788 7.352635,5.66295 8.350648,15.01704 -2.123773,0.77297 -2.277338,0.53314 -3.62777,1.93259 -8.112463,-6.41024 -6.376276,-8.44894 -8.352764,-13.53986 -1.251766,-3.22423 -2.025384,-4.66138 -4.493366,-8.07987 -2.603901,-3.60676 3.218625,-5.87424 4.443507,-1.96575 z"
           id="path61"
           sodipodi:nodetypes="ssccsss" /><g
           id="g65"
           style="display:none;fill:none;fill-opacity:1"><path
             style="fill:none;fill-opacity:1;fill-rule:evenodd;stroke:#000000;stroke-width:0.131;stroke-linecap:round;stroke-dasharray:none"
             d="m 74.239616,137.08233 c 1.256397,-0.5208 2.340657,-1.07924 3.575683,-1.94081"
             id="path62"
             sodipodi:nodetypes="cc" /><path
             style="fill:none;fill-opacity:1;fill-rule:evenodd;stroke:#000000;stroke-width:0.131;stroke-linecap:round;stroke-dasharray:none"
             d="m 74.860553,138.18452 c 1.142362,-0.18159 2.293336,-0.73884 3.615981,-1.88879"
             id="path63"
             sodipodi:nodetypes="cc" /><path
             style="fill:none;fill-opacity:1;fill-rule:evenodd;stroke:#000000;stroke-width:0.131;stroke-linecap:round;stroke-dasharray:none"
             d="m 75.518794,139.75752 c 2.194663,-0.64422 3.536967,-1.29005 3.991404,-2.01174"
             id="path64"
             sodipodi:nodetypes="cc" /><path
             style="fill:none;fill-opacity:1;fill-rule:evenodd;stroke:#000000;stroke-width:0.131;stroke-linecap:round;stroke-dasharray:none"
             d="m 76.087814,141.30025 c 1.158421,-0.2912 3.311073,-0.97295 4.4705,-2.64024"
             id="path65"
             sodipodi:nodetypes="cc" /></g></g><g
         id="g13"
         style="display:none"><path
           style="fill:none;fill-rule:evenodd;stroke:#000000;stroke-width:0.131;stroke-linecap:round;stroke-dasharray:none"
           d="m 76.117849,131.39242 c 0.466605,1.4889 2.470182,5.61661 3.679745,6.63585 5.27842,4.44788 8.546151,5.72252 9.544164,15.07661 -2.742319,1.29316 -3.233742,1.6215 -4.584174,3.02095 -9.847766,-7.52537 -7.334303,-10.7312 -8.589876,-14.68779 -1.046162,-3.29668 -2.025384,-4.66138 -4.493366,-8.07987 -2.603901,-3.60676 3.218625,-5.87424 4.443507,-1.96575 z"
           id="path1"
           sodipodi:nodetypes="ssccsss" /><g
           id="g10"
           style="display:inline;fill:none;fill-opacity:1"><path
             style="fill:none;fill-opacity:1;fill-rule:evenodd;stroke:#000000;stroke-width:0.131;stroke-linecap:round;stroke-dasharray:none"
             d="m 73.285103,135.66754 c 1.117471,-1.425 2.39732,-1.92986 3.754358,-1.99732"
             id="path2"
             sodipodi:nodetypes="cc" /><path
             style="fill:none;fill-opacity:1;fill-rule:evenodd;stroke:#000000;stroke-width:0.131;stroke-linecap:round;stroke-dasharray:none"
             d="m 73.930853,136.59863 c 1.013923,-0.96257 2.12853,-1.74893 3.619201,-1.87719"
             id="path3"
             sodipodi:nodetypes="cc" /><path
             style="fill:none;fill-opacity:1;fill-rule:evenodd;stroke:#000000;stroke-width:0.131;stroke-linecap:round;stroke-dasharray:none"
             d="m 74.75585,138.15448 c 1.117471,-1.425 2.39732,-1.92986 3.754358,-1.99732"
             id="path2-4"
             sodipodi:nodetypes="cc" /><path
             style="fill:none;fill-opacity:1;fill-rule:evenodd;stroke:#000000;stroke-width:0.131;stroke-linecap:round;stroke-dasharray:none"
             d="m 75.4016,139.08557 c 1.013923,-0.96257 2.12853,-1.74893 3.619201,-1.87719"
             id="path3-5"
             sodipodi:nodetypes="cc" /></g></g></g><g
       id="g106"
       style="display:inline"><g
         id="g77" /><g
         id="g76" /><g
         id="g81" /><g
         id="g104" /><g
         id="g103" /><g
         id="g102" /><g
         id="g101" /><g
         id="g24"
         style="display:inline" /><g
         id="g105"
         style="fill:#ffffff;fill-opacity:1;stroke:none"><g
           id="g201"><path
             style="display:inline;fill:#c40000;fill-opacity:1;fill-rule:evenodd;stroke:none;stroke-width:0.106348;stroke-linecap:round;stroke-dasharray:none;stroke-opacity:1"
             d="m 316.90861,488.99639 -1.96294,-3.17193 3.09662,-1.63769 c 7.87161,-4.16301 13.19456,-8.16031 14.68733,-11.02952 0.27592,-0.53034 0.31782,-0.51521 2.96959,1.07194 l 2.68972,1.60987 -0.53024,0.88548 c -2.69726,4.50426 -6.17496,7.99657 -11.21455,11.26163 -1.96287,1.27171 -7.29301,4.18214 -7.65914,4.18214 -0.0624,0 -0.99678,-1.42736 -2.07639,-3.17192 z"
             id="path67"
             transform="matrix(0.264583,0,0,0.264583,-1.2083333e-6,7.5000001e-7)" /><path
             style="display:inline;fill:#c40000;fill-opacity:1;fill-rule:evenodd;stroke:none;stroke-width:0.106348;stroke-linecap:round;stroke-dasharray:none;stroke-opacity:1"
             d="m 307.71161,475.62793 c -0.8912,-1.13387 -1.62016,-2.1427 -1.61992,-2.24184 2.4e-4,-0.0992 0.52324,-0.50682 1.16222,-0.90595 3.74878,-2.34159 8.3692,-5.89432 12.33391,-9.48377 l 2.36374,-2.14001 1.85791,2.23365 c 1.57928,1.89865 1.81225,2.29263 1.55339,2.62691 -2.11567,2.73213 -6.13587,6.51152 -8.94509,8.40928 -1.5576,1.05222 -4.8219,2.76456 -6.19121,3.24768 l -0.8946,0.31563 z"
             id="path68"
             transform="matrix(0.264583,0,0,0.264583,-1.2083333e-6,7.5000001e-7)" /><path
             style="display:inline;fill:#c40000;fill-opacity:1;fill-rule:evenodd;stroke:none;stroke-width:0.106348;stroke-linecap:round;stroke-dasharray:none;stroke-opacity:1"
             d="m 464.26581,504.86422 c -5.5615,-0.58526 -11.74086,-3.00772 -17.50173,-6.8611 -2.06691,-1.38253 -2.16844,-1.4909 -1.87938,-2.0059 1.55094,-2.76317 3.22124,-5.26289 3.43031,-5.13368 0.13987,0.0865 1.04886,0.72724 2.01998,1.42399 4.85028,3.47991 11.45767,5.74597 16.77057,5.75159 l 1.36239,10e-4 -0.43074,1.65157 c -0.23692,0.90836 -0.4371,2.50488 -0.44486,3.54782 l -0.0141,1.89625 -0.67287,-0.0325 c -0.37007,-0.0179 -1.55788,-0.12564 -2.63957,-0.23947 z"
             id="path72"
             transform="matrix(0.264583,0,0,0.264583,-1.2083333e-6,7.5000001e-7)" /><path
             style="display:inline;fill:#c40000;fill-opacity:1;fill-rule:evenodd;stroke:none;stroke-width:0.0566798;stroke-linecap:round;stroke-dasharray:none;stroke-opacity:1"
             d="m 470.95588,489.0675 c -4.49132,-0.42007 -8.22793,-1.48608 -12.51883,-3.57145 -1.98157,-0.96304 -5.93341,-3.26108 -5.93341,-3.45035 0,-0.0567 0.31412,-0.85992 0.69805,-1.78488 0.38392,-0.92497 0.91983,-2.31072 1.19091,-3.07944 l 0.49288,-1.39769 0.53694,0.40575 c 4.72032,3.56698 11.71529,6.27091 18.55277,7.17164 l 1.19364,0.15724 -0.64519,1.18444 c -0.35486,0.65144 -1.02445,1.93263 -1.48799,2.8471 -0.46353,0.91446 -0.85704,1.65472 -0.87446,1.64503 -0.0174,-0.01 -0.55981,-0.067 -1.20531,-0.12739 z"
             id="path73"
             transform="matrix(0.264583,0,0,0.264583,-1.2083333e-6,7.5000001e-7)" /><path
             style="display:inline;fill:#c40000;fill-opacity:1;fill-rule:evenodd;stroke:none;stroke-width:0.0626765;stroke-linecap:round;stroke-dasharray:none;stroke-opacity:1"
             d="m 492.11735,512.67011 c -1.97228,-3.80327 -5.87855,-7.50036 -10.87988,-10.29726 -0.5747,-0.32139 -0.86667,-0.56655 -0.80154,-0.67304 0.19538,-0.31939 2.51964,-3.26782 2.57604,-3.26782 0.24331,0 3.20701,1.43575 4.19264,2.0311 3.73418,2.25555 6.84867,5.83964 8.42052,9.69018 l 0.34049,0.83408 -1.50406,1.50919 c -0.82724,0.83006 -1.53767,1.50841 -1.57874,1.50743 -0.0411,-9.7e-4 -0.38554,-0.60121 -0.76547,-1.33386 z"
             id="path77"
             transform="matrix(0.264583,0,0,0.264583,-1.2083333e-6,7.5000001e-7)" /><path
             style="display:inline;fill:#c40000;fill-opacity:1;fill-rule:evenodd;stroke:none;stroke-width:0.0626765;stroke-linecap:round;stroke-dasharray:none;stroke-opacity:1"
             d="m 483.87302,522.62624 c -2.13807,-4.09587 -5.33399,-7.18707 -10.70533,-10.35455 l -1.61527,-0.95253 1.56907,-1.56421 1.56907,-1.5642 0.69511,0.25785 c 1.43012,0.53052 3.81836,1.87509 5.28046,2.97289 1.76979,1.32883 3.36332,2.99153 4.52933,4.72597 0.82049,1.22047 2.06093,3.53422 2.06093,3.84417 0,0.12137 -2.15435,2.93738 -2.73265,3.57192 -0.0564,0.062 -0.34927,-0.35984 -0.65072,-0.93731 z"
             id="path78"
             transform="matrix(0.264583,0,0,0.264583,-1.2083333e-6,7.5000001e-7)" /><path
             style="display:inline;fill:#c40000;fill-opacity:1;fill-rule:evenodd;stroke:none;stroke-width:0.0626765;stroke-linecap:round;stroke-dasharray:none;stroke-opacity:1"
             d="m 434.55079,502.4464 c -0.85818,-0.64881 -3.59735,-1.94238 -4.83074,-2.28132 -1.55078,-0.42616 -3.42325,-0.71173 -5.36873,-0.8188 -1.62076,-0.0892 -1.68881,-0.10576 -1.62529,-0.39554 0.0365,-0.16635 0.16585,-0.84946 0.28752,-1.51804 0.12168,-0.66857 0.25793,-1.25259 0.30278,-1.29781 0.14877,-0.14999 2.70628,-0.22804 4.02439,-0.12281 2.51887,0.20108 4.82859,1.00747 6.94441,2.42448 0.70129,0.46967 1.42339,0.98128 1.60466,1.13692 l 0.32959,0.28297 -0.47379,1.52286 c -0.26059,0.83758 -0.50624,1.51844 -0.54589,1.51302 -0.0397,-0.005 -0.33166,-0.20608 -0.64891,-0.44593 z"
             id="path82"
             transform="matrix(0.264583,0,0,0.264583,-1.2083333e-6,7.5000001e-7)" /><path
             style="display:inline;fill:#c40000;fill-opacity:1;fill-rule:evenodd;stroke:none;stroke-width:0.0626765;stroke-linecap:round;stroke-dasharray:none;stroke-opacity:1"
             d="m 429.89395,510.44891 c -2.20648,-1.06689 -5.66014,-1.77862 -8.63077,-1.77862 -0.88601,0 -1.07642,-0.0387 -1.01231,-0.20579 0.0434,-0.11319 0.28328,-0.8503 0.533,-1.63803 l 0.45403,-1.43224 1.18663,-0.0912 c 2.45232,-0.1885 5.45135,0.33833 7.681,1.3493 0.96095,0.43571 3.27353,1.89953 3.4487,2.18296 0.10277,0.16629 -1.93003,2.29435 -2.17226,2.27405 -0.0813,-0.007 -0.7509,-0.30401 -1.48802,-0.66042 z"
             id="path83"
             transform="matrix(0.264583,0,0,0.264583,-1.2083333e-6,7.5000001e-7)" /><path
             style="display:inline;fill:#c40000;fill-opacity:1;fill-rule:evenodd;stroke:none;stroke-width:0.0626765;stroke-linecap:round;stroke-dasharray:none;stroke-opacity:1"
             d="m 413.43544,443.8193 c -3.08887,-1.8797 -6.75892,-2.77945 -11.33734,-2.77945 -1.57133,0 -2.08324,-0.0443 -2.08234,-0.18025 6.6e-4,-0.0991 0.0967,-0.89405 0.21349,-1.76647 0.11676,-0.87241 0.21356,-1.62639 0.21511,-1.6755 0.005,-0.15606 2.49226,-0.41544 3.97811,-0.41483 3.49942,0.001 6.85116,1.04061 9.82204,3.04528 0.56954,0.38431 1.06299,0.74845 1.09657,0.80921 0.0336,0.0608 -0.14342,0.89691 -0.39334,1.85812 l -0.4544,1.74766 z"
             id="path87"
             transform="matrix(0.264583,0,0,0.264583,-1.2083333e-6,7.5000001e-7)" /><path
             style="display:inline;fill:#c40000;fill-opacity:1;fill-rule:evenodd;stroke:none;stroke-width:0.0626765;stroke-linecap:round;stroke-dasharray:none;stroke-opacity:1"
             d="m 411.91032,454.79224 c -3.36907,-2.08846 -7.40322,-3.081 -12.52404,-3.08137 -1.56539,-1.1e-4 -1.70166,-0.0213 -1.6135,-0.25104 0.053,-0.13801 0.27079,-0.94739 0.48408,-1.79862 0.21329,-0.85124 0.46281,-1.57753 0.5545,-1.61398 0.0917,-0.0364 0.94252,-0.14109 1.89074,-0.23254 2.87426,-0.27722 5.95648,0.19069 8.56325,1.29997 1.11646,0.4751 3.29488,1.74406 3.57646,2.08334 0.13934,0.16789 0.12476,0.5975 -0.0698,2.05685 -0.13524,1.01455 -0.25486,1.85584 -0.26584,1.86953 -0.011,0.0137 -0.27912,-0.13577 -0.59589,-0.33214 z"
             id="path88"
             transform="matrix(0.264583,0,0,0.264583,-1.2083333e-6,7.5000001e-7)" /><path
             style="display:inline;fill:#c40000;fill-opacity:1;fill-rule:evenodd;stroke:none;stroke-width:0.0626765;stroke-linecap:round;stroke-dasharray:none;stroke-opacity:1"
             d="m 511.12857,562.91105 c -0.1367,-0.28917 -0.74171,-1.4013 -1.34446,-2.4714 -2.0677,-3.67092 -4.79809,-7.44958 -7.19806,-9.9616 -0.60323,-0.63139 -1.07087,-1.16695 -1.0392,-1.19013 0.0317,-0.0232 0.83626,-0.34007 1.78799,-0.70421 0.95173,-0.36414 1.96957,-0.76495 2.26186,-0.8907 l 0.53144,-0.22864 1.24261,1.39299 c 2.16556,2.42765 4.15142,5.15148 5.65752,7.75988 0.54359,0.94145 2.20318,4.18288 2.20318,4.30314 0,0.0297 -0.40556,0.30121 -0.90126,0.60334 -0.49569,0.30213 -1.36291,0.85617 -1.92716,1.2312 l -1.02591,0.68188 z"
             id="path92"
             transform="matrix(0.264583,0,0,0.264583,-1.2083333e-6,7.5000001e-7)" /><path
             style="display:inline;fill:#c40000;fill-opacity:1;fill-rule:evenodd;stroke:none;stroke-width:0.0626765;stroke-linecap:round;stroke-dasharray:none;stroke-opacity:1"
             d="m 521.58823,556.22069 c -1.39473,-3.47545 -3.57117,-6.86295 -7.03451,-10.94881 l -1.18285,-1.39547 2.11555,-1.22306 2.11555,-1.22305 0.85047,0.73677 c 1.27421,1.10386 3.47176,3.50803 4.42325,4.83912 0.95376,1.33426 2.20733,3.72223 3.37341,6.42613 l 0.79248,1.83759 -0.67777,0.29496 c -0.37277,0.16223 -1.45429,0.64383 -2.40337,1.07022 -0.94909,0.42639 -1.76368,0.77526 -1.8102,0.77526 -0.0465,0 -0.29943,-0.53535 -0.56201,-1.18966 z"
             id="path93"
             transform="matrix(0.264583,0,0,0.264583,-1.2083333e-6,7.5000001e-7)" /><path
             style="display:inline;fill:#c40000;fill-opacity:1;fill-rule:evenodd;stroke:none;stroke-width:0.0626765;stroke-linecap:round;stroke-dasharray:none;stroke-opacity:1"
             d="m 374.41883,500.29411 c -0.47587,-0.29752 -1.40027,-0.75257 -2.05424,-1.01124 -0.99807,-0.39477 -1.28659,-0.5877 -1.79657,-1.20134 -0.33416,-0.40208 -1.03458,-1.18528 -1.55649,-1.74046 -1.55821,-1.6575 -1.53689,-1.57682 -0.38852,-1.47028 2.08105,0.19306 4.29066,0.9745 6.1421,2.1722 0.88702,0.5738 1.03971,0.73025 0.97472,0.99865 -0.0424,0.17504 -0.15136,0.86972 -0.24216,1.54373 -0.0908,0.67401 -0.17601,1.23091 -0.18936,1.23757 -0.0134,0.007 -0.41362,-0.23132 -0.88948,-0.52883 z"
             id="path98"
             transform="matrix(0.264583,0,0,0.264583,-1.2083333e-6,7.5000001e-7)" /><path
             style="display:inline;fill:#c40000;fill-opacity:1;fill-rule:evenodd;stroke:none;stroke-width:0.0626765;stroke-linecap:round;stroke-dasharray:none;stroke-opacity:1"
             d="m 376.58162,491.84716 c -0.55374,-0.41581 -2.53014,-1.35138 -3.57604,-1.6928 -1.608,-0.5249 -3.67984,-0.82466 -5.8976,-0.85327 l -2.00675,-0.0259 0.0764,-0.43261 c 0.042,-0.23793 0.11988,-0.87327 0.17302,-1.41187 0.0774,-0.78461 0.15705,-1.01392 0.40057,-1.15361 0.20853,-0.11961 1.11874,-0.17155 2.89956,-0.16544 2.40488,0.008 2.69032,0.0379 3.8842,0.40369 0.70872,0.21714 1.74697,0.61985 2.30723,0.89491 1.21193,0.59502 2.82189,1.6593 2.81936,1.86378 -0.002,0.16835 -0.69085,2.68858 -0.75131,2.74904 -0.0223,0.0222 -0.17013,-0.0569 -0.32863,-0.17594 z"
             id="path97"
             transform="matrix(0.264583,0,0,0.264583,-1.2083333e-6,7.5000001e-7)" /><path
             style="display:inline;fill:#c40000;fill-opacity:1;fill-rule:evenodd;stroke:none;stroke-width:0.00270531;stroke-linecap:round;stroke-dasharray:none"
             d="m 278.43879,514.25522 c -0.56427,-0.8535 -1.0204,-1.56556 -1.01362,-1.58235 0.007,-0.0168 0.17857,-0.23455 0.38175,-0.48388 0.47668,-0.58496 1.95735,-2.07381 2.54062,-2.55468 2.2251,-1.83442 4.37691,-2.93869 7.00399,-3.59432 1.12788,-0.28148 2.7621,-0.52988 3.49444,-0.53116 l 0.26277,-4.6e-4 0.84669,1.69419 c 0.46569,0.93181 0.8467,1.7018 0.8467,1.7111 0,0.009 -0.19863,0.0434 -0.4414,0.0757 -4.35235,0.57993 -7.98949,2.44357 -12.24301,6.27323 -0.32325,0.29103 -0.6024,0.53258 -0.62035,0.53678 -0.0179,0.004 -0.4943,-0.69067 -1.05858,-1.54417 z"
             id="path9"
             transform="matrix(0.264583,0,0,0.264583,-1.2083333e-6,7.5000001e-7)" /><path
             style="display:inline;fill:#c40000;fill-opacity:1;fill-rule:evenodd;stroke:none;stroke-width:0.00270531;stroke-linecap:round;stroke-dasharray:none"
             d="m 284.53556,524.92234 c -0.13655,-0.29767 -0.5215,-1.0923 -0.85545,-1.76585 l -0.60717,-1.22465 0.48607,-0.56481 c 2.58748,-3.00666 5.75067,-5.02826 9.2398,-5.90515 0.97874,-0.24598 2.34181,-0.47118 3.12207,-0.51581 l 0.23178,-0.0132 0.47576,0.7635 c 0.26168,0.41992 0.7479,1.17087 1.0805,1.66878 0.3326,0.4979 0.61116,0.91984 0.61903,0.93764 0.008,0.0178 -0.0995,0.0467 -0.2386,0.0642 -4.40925,0.55553 -8.25211,2.49947 -12.36751,6.25621 -0.28544,0.26056 -0.61326,0.55623 -0.72849,0.65706 l -0.20952,0.18332 z"
             id="path10"
             transform="matrix(0.264583,0,0,0.264583,-1.2083333e-6,7.5000001e-7)" /><path
             style="fill:#c40000;fill-opacity:1;fill-rule:evenodd;stroke:none;stroke-width:0.0131185;stroke-linecap:round;stroke-dasharray:none;stroke-opacity:1"
             d="m 69.411333,146.80056 c -0.128651,-0.17537 -0.233913,-0.33668 -0.233913,-0.35847 0,-0.087 0.402746,-0.83711 0.56882,-1.05945 0.530577,-0.71034 1.125471,-1.05272 2.020763,-1.16302 l 0.280646,-0.0346 0.281041,0.29929 0.281038,0.29929 -0.320231,0.0643 c -1.079719,0.21662 -1.953702,0.90948 -2.457669,1.94836 -0.08602,0.17732 -0.163193,0.32258 -0.171493,0.32279 -0.0083,2.2e-4 -0.120351,-0.14309 -0.249002,-0.31847 z"
             id="path30" /><path
             style="fill:#c40000;fill-opacity:1;fill-rule:evenodd;stroke:none;stroke-width:0.0131185;stroke-linecap:round;stroke-dasharray:none;stroke-opacity:1"
             d="m 67.965907,145.23328 c -0.122174,-0.11055 -0.246664,-0.22412 -0.276638,-0.25238 -0.05241,-0.0494 -0.05097,-0.0603 0.03767,-0.28342 0.225025,-0.56647 0.445585,-0.92064 0.784185,-1.25924 0.35296,-0.35296 0.688769,-0.55804 1.179396,-0.72026 0.234305,-0.0775 0.824286,-0.18291 1.02343,-0.18291 h 0.142147 l 0.245732,0.37707 c 0.227756,0.34949 0.240871,0.37801 0.179311,0.3898 -0.03653,0.007 -0.180383,0.0284 -0.319667,0.0477 -1.074307,0.14832 -1.86689,0.69534 -2.571001,1.77442 l -0.202425,0.31023 z"
             id="path31" /></g><g
           id="g200"><path
             style="display:inline;fill:#ffffff;fill-opacity:1;fill-rule:evenodd;stroke:none;stroke-width:0.106348;stroke-linecap:round;stroke-dasharray:none;stroke-opacity:1"
             d="m 346.09599,536.53086 c -8.72038,-7.55864 -12.90256,-13.68707 -18.83635,-27.60216 -2.20574,-5.17258 -5.49914,-11.91873 -7.16122,-14.66891 l -1.17588,-1.9457 1.95552,-0.94567 c 4.76586,-2.30472 9.02502,-5.2147 12.12519,-8.28427 1.82657,-1.80855 4.43756,-5.1404 5.08072,-6.48346 l 0.36618,-0.76464 4.80163,2.8168 c 12.32668,7.23126 18.07198,11.29335 23.24834,16.43723 6.03007,5.99224 11.05351,13.83241 15.14958,23.6442 l 0.72273,1.73123 -2.18066,0.30863 c -10.48309,1.48373 -21.36362,7.24235 -29.14343,15.42443 -1.28565,1.35213 -2.37536,2.45723 -2.42157,2.45576 -0.0462,-10e-4 -1.18506,-0.95702 -2.53078,-2.12347 z"
             id="path69"
             transform="matrix(0.264583,0,0,0.264583,-1.2083333e-6,7.5000001e-7)" /><path
             style="display:inline;fill:#ffffff;fill-opacity:1;fill-rule:evenodd;stroke:none;stroke-width:0.106348;stroke-linecap:round;stroke-dasharray:none;stroke-opacity:1"
             d="m 313.46304,483.63002 c -0.69041,-1.0626 -1.86563,-2.7827 -2.61162,-3.82245 -0.74598,-1.03975 -1.32394,-1.9161 -1.28434,-1.94746 0.0396,-0.0314 1.16205,-0.56925 2.49434,-1.19532 3.94553,-1.85408 6.26572,-3.55543 10.21716,-7.49205 l 3.58644,-3.573 2.36393,2.51735 c 1.30015,1.38454 2.94055,2.96771 3.64533,3.51814 l 1.2814,1.0008 -0.62549,0.73395 c -2.01594,2.36554 -2.77462,3.09544 -4.77375,4.59266 -1.21734,0.91172 -3.09418,2.20711 -4.17076,2.87866 -2.45737,1.53285 -8.27373,4.72073 -8.61309,4.72073 -0.13985,0 -0.81915,-0.8694 -1.50955,-1.93201 z"
             id="path70"
             transform="matrix(0.264583,0,0,0.264583,-1.2083333e-6,7.5000001e-7)" /><path
             style="display:inline;fill:#ffffff;fill-opacity:1;fill-rule:evenodd;stroke:none;stroke-width:0.106348;stroke-linecap:round;stroke-dasharray:none;stroke-opacity:1"
             d="m 302.988,469.94491 c -1.59024,-1.82648 -5.65031,-6.13405 -9.02238,-9.57239 -7.5569,-7.70539 -8.51792,-9.04049 -9.18192,-12.75599 -0.77348,-4.32813 1.78762,-8.9256 6.29019,-11.29164 2.21638,-1.16467 4.13375,-1.65647 6.4439,-1.65283 5.32494,0.008 9.195,2.69579 12.54131,8.70881 2.06356,3.70802 5.69832,9.19344 9.15232,13.81226 l 2.66331,3.56148 -2.81468,2.48716 c -3.46755,3.06405 -7.04437,5.85772 -10.52855,8.22331 l -2.65216,1.8007 z"
             id="path71"
             transform="matrix(0.264583,0,0,0.264583,-1.2083333e-6,7.5000001e-7)" /><path
             style="display:inline;fill:#ffffff;fill-opacity:1;fill-rule:evenodd;stroke:none;stroke-width:0.0566798;stroke-linecap:round;stroke-dasharray:none;stroke-opacity:1"
             d="m 473.34695,483.2071 c -5.09432,-0.8085 -10.14731,-2.48969 -14.13907,-4.70427 -1.42021,-0.78791 -3.17915,-1.91727 -3.87945,-2.49087 l -0.37012,-0.30316 0.65145,-2.08305 c 1.39886,-4.47288 2.3688,-8.09682 3.80347,-14.21067 0.50491,-2.15167 1.09644,-4.45706 1.31452,-5.12308 2.01035,-6.13963 5.6863,-9.93692 10.71313,-11.06677 1.33592,-0.30026 4.03401,-0.30724 5.39113,-0.0139 4.95904,1.07175 8.9936,4.13855 11.02376,8.37952 0.94699,1.97824 1.17845,2.92985 1.25286,5.15098 0.0523,1.5614 0.0181,2.10672 -0.19644,3.12971 -0.55871,2.66437 -1.39492,4.36716 -3.87437,7.88947 -2.86518,4.07027 -5.95512,8.92126 -8.54326,13.41228 -0.72947,1.26581 -1.39386,2.29557 -1.47643,2.28836 -0.0826,-0.007 -0.83459,-0.12174 -1.67118,-0.25451 z"
             id="path74"
             transform="matrix(0.264583,0,0,0.264583,-1.2083333e-6,7.5000001e-7)" /><path
             style="display:inline;fill:#ffffff;fill-opacity:1;fill-rule:evenodd;stroke:none;stroke-width:0.0566798;stroke-linecap:round;stroke-dasharray:none;stroke-opacity:1"
             d="m 464.46929,497.80525 c -2.48492,-0.32515 -5.68391,-1.22937 -8.26995,-2.33758 -2.34529,-1.00504 -4.19564,-2.07794 -6.79977,-3.94273 -1.04607,-0.74909 -1.09141,-0.7676 -1.33664,-0.54566 -0.13962,0.12635 -0.25385,0.18524 -0.25385,0.13088 0,-0.0544 0.42057,-0.84099 0.93459,-1.74807 0.96091,-1.69569 3.40418,-6.51751 3.55354,-7.01295 0.0799,-0.26507 0.12743,-0.24904 1.02534,0.34587 0.51786,0.34311 1.7631,1.07824 2.76722,1.63363 5.08434,2.81223 9.35891,4.21031 14.55548,4.76067 l 1.51503,0.16045 -0.62889,1.34338 c -0.94517,2.01902 -1.65447,3.71351 -2.34242,5.59601 l -0.61952,1.69526 -1.61048,0.0179 c -0.88577,0.01 -2.00612,-0.0338 -2.48968,-0.0971 z"
             id="path75"
             transform="matrix(0.264583,0,0,0.264583,-1.2083333e-6,7.5000001e-7)" /><path
             style="display:inline;fill:#ffffff;fill-opacity:1;fill-rule:evenodd;stroke:none;stroke-width:0.0566798;stroke-linecap:round;stroke-dasharray:none;stroke-opacity:1"
             d="m 437.59406,592.80729 c -0.48054,-0.25194 -0.6101,-0.38277 -0.54528,-0.55064 2.48648,-6.43939 3.75132,-14.6328 3.35057,-21.70449 -0.70031,-12.35785 -5.14519,-23.43881 -13.09023,-32.63356 -2.17066,-2.51209 -5.84086,-5.89316 -8.51868,-7.84759 l -0.38757,-0.28288 0.50397,-1.02054 c 1.22451,-2.4796 3.05337,-5.37586 5.04986,-7.99719 1.80792,-2.37375 3.92031,-4.70333 8.33425,-9.19118 6.49061,-6.59931 7.67131,-8.01867 10.90447,-13.10873 1.16076,-1.8274 1.43023,-2.17659 1.53434,-1.98822 0.17714,0.32052 0.31097,0.42149 2.3621,1.78217 2.18079,1.4467 4.13671,2.5427 6.25941,3.50744 4.62538,2.10218 8.53219,3.07684 13.56207,3.38339 l 0.52162,0.0318 0.0796,4.89016 c 0.13171,8.09383 0.12329,21.8089 -0.015,24.45085 -0.51062,9.7537 -1.88821,16.68763 -4.78004,24.05963 -1.01191,2.57963 -3.26494,7.19637 -4.74112,9.71514 -4.272,7.28921 -10.91084,15.72524 -18.64556,23.69306 l -1.10844,1.14184 z"
             id="path76"
             transform="matrix(0.264583,0,0,0.264583,-1.2083333e-6,7.5000001e-7)" /><path
             style="display:inline;fill:#ffffff;fill-opacity:1;fill-rule:evenodd;stroke:none;stroke-width:0.0626765;stroke-linecap:round;stroke-dasharray:none;stroke-opacity:1"
             d="m 495.90818,510.65306 c -5.4e-4,-0.34243 -1.5442,-3.25758 -2.24564,-4.24085 -1.59894,-2.24135 -3.46715,-4.05813 -5.71947,-5.56201 -1.1207,-0.74829 -4.43565,-2.41821 -4.80039,-2.41821 -0.13568,0 0.35083,-0.76001 1.26923,-1.98277 0.81908,-1.09052 2.68389,-3.63352 4.14402,-5.65111 3.5978,-4.97141 4.78949,-6.19176 7.13624,-7.30787 1.5921,-0.7572 2.63526,-0.96641 4.39634,-0.88171 2.41709,0.11625 4.33667,0.99123 6.20207,2.827 3.1869,3.1363 4.41161,7.82872 3.06383,11.73891 -0.83643,2.42666 -2.43219,4.51003 -4.86596,6.35283 -1.83258,1.3876 -3.7203,2.9903 -6.15731,5.22765 -1.24512,1.14311 -2.2996,2.07839 -2.34327,2.07839 -0.0437,0 -0.0795,-0.0811 -0.0797,-0.18025 z"
             id="path79"
             transform="matrix(0.264583,0,0,0.264583,-1.2083333e-6,7.5000001e-7)" /><path
             style="display:inline;fill:#ffffff;fill-opacity:1;fill-rule:evenodd;stroke:none;stroke-width:0.0626765;stroke-linecap:round;stroke-dasharray:none;stroke-opacity:1"
             d="m 487.26062,519.85775 c -0.005,-0.32875 -1.08439,-2.35851 -1.96493,-3.69508 -1.25215,-1.90064 -3.32443,-3.97245 -5.33974,-5.33854 -1.16088,-0.78691 -3.40608,-2.00878 -4.37987,-2.38358 -0.3569,-0.13737 -0.67288,-0.26859 -0.70217,-0.2916 -0.0293,-0.023 0.53324,-0.67758 1.25007,-1.45461 0.71684,-0.77703 1.92892,-2.15902 2.69351,-3.0711 0.7646,-0.91207 1.43498,-1.65831 1.48975,-1.65831 0.24085,0 3.30071,1.93258 4.73102,2.98806 1.77927,1.313 4.57565,4.05031 5.56528,5.44772 0.36509,0.51552 1.019,1.56472 1.45315,2.33156 l 0.78935,1.39425 -0.50103,0.48036 c -0.42643,0.40885 -3.14613,3.35925 -4.62996,5.02271 -0.36699,0.41142 -0.45099,0.45359 -0.45443,0.22816 z"
             id="path80"
             transform="matrix(0.264583,0,0,0.264583,-1.2083333e-6,7.5000001e-7)" /><path
             style="display:inline;fill:#ffffff;fill-opacity:1;fill-rule:evenodd;stroke:none;stroke-width:0.0626765;stroke-linecap:round;stroke-dasharray:none;stroke-opacity:1"
             d="m 453.36907,576.94348 c 0,-0.043 0.24862,-0.41617 0.55248,-0.82916 1.14939,-1.56217 3.48776,-5.15629 4.69184,-7.21141 4.97483,-8.49113 7.89548,-17.08835 9.09697,-26.7779 0.61369,-4.94917 0.70792,-7.25896 0.72816,-17.84805 l 0.0196,-10.27747 1.48178,-1.29469 c 0.81499,-0.71208 1.51526,-1.29468 1.55617,-1.29468 0.0409,0 0.63496,0.33631 1.32012,0.74737 5.56921,3.34122 8.52622,6.12989 10.82617,10.20984 0.40148,0.71219 0.72996,1.32178 0.72996,1.35464 0,0.0329 -0.41347,0.66667 -0.91883,1.40846 -1.55808,2.28705 -1.68053,2.57463 -5.88572,13.82215 -3.69733,9.88915 -4.98823,13.05423 -6.96942,17.08786 -4.06824,8.28279 -8.93042,14.43462 -15.74094,19.91604 -1.26033,1.01438 -1.48838,1.16561 -1.48838,0.987 z"
             id="path81"
             transform="matrix(0.264583,0,0,0.264583,-1.2083333e-6,7.5000001e-7)" /><path
             style="display:inline;fill:#ffffff;fill-opacity:1;fill-rule:evenodd;stroke:none;stroke-width:0.0626765;stroke-linecap:round;stroke-dasharray:none;stroke-opacity:1"
             d="m 435.9816,499.56748 c -0.22585,-0.36543 -3.22795,-2.17747 -4.27917,-2.58286 -2.29456,-0.88488 -5.03129,-1.26892 -7.35495,-1.0321 l -1.11864,0.11401 0.0714,-0.43953 c 0.0392,-0.24175 0.13552,-0.82888 0.21393,-1.30475 0.0784,-0.47586 0.40081,-2.64981 0.71645,-4.831 0.31564,-2.18118 0.71228,-4.41991 0.88141,-4.97494 1.28808,-4.22694 4.83868,-6.34834 8.79177,-5.25289 1.6397,0.45439 2.6709,1.06701 3.97895,2.36385 1.75643,1.74136 2.51098,3.51432 2.50611,5.88857 -0.003,1.46119 -0.31598,2.62736 -1.28482,4.78724 -0.84529,1.88446 -2.06885,5.05432 -2.54665,6.59757 -0.25566,0.82576 -0.38496,0.97552 -0.57575,0.66683 z"
             id="path84"
             transform="matrix(0.264583,0,0,0.264583,-1.2083333e-6,7.5000001e-7)" /><path
             style="display:inline;fill:#ffffff;fill-opacity:1;fill-rule:evenodd;stroke:none;stroke-width:0.0626765;stroke-linecap:round;stroke-dasharray:none;stroke-opacity:1"
             d="m 433.32508,508.54711 c -0.19828,-0.18671 -1.00941,-0.72417 -1.80252,-1.19434 -2.50302,-1.48386 -5.57375,-2.23396 -8.66143,-2.11577 l -1.6154,0.0618 0.27607,-0.99623 c 0.15184,-0.54792 0.47413,-1.88205 0.7162,-2.96472 0.24207,-1.08267 0.45919,-1.98755 0.48249,-2.01086 0.10543,-0.10542 4.05141,0.30926 5.41334,0.56888 2.31758,0.44181 5.09448,1.65905 7.03644,3.08439 0.0235,0.0172 -0.24725,1.12607 -0.6016,2.46411 -0.35435,1.33803 -0.69801,2.6599 -0.76368,2.93749 l -0.11941,0.5047 z"
             id="path85"
             transform="matrix(0.264583,0,0,0.264583,-1.2083333e-6,7.5000001e-7)" /><path
             style="display:inline;fill:#ffffff;fill-opacity:1;fill-rule:evenodd;stroke:none;stroke-width:0.0626765;stroke-linecap:round;stroke-dasharray:none;stroke-opacity:1"
             d="m 416.06996,528.22893 c -0.87866,-0.57119 -2.41745,-1.4801 -3.41952,-2.01981 -1.03106,-0.55532 -1.78238,-1.04533 -1.73079,-1.1288 0.0501,-0.0811 0.77509,-1.0325 1.61101,-2.11416 2.16818,-2.80558 3.34863,-4.66577 4.63384,-7.3021 1.13017,-2.31832 2.64522,-5.85388 2.82911,-6.60209 l 0.0987,-0.40142 1.67751,0.093 c 3.25532,0.18053 5.92392,0.79405 8.53779,1.96286 l 1.09223,0.4884 -2.15789,2.22961 c -4.97684,5.14226 -8.14617,9.33235 -10.64991,14.08 l -0.92447,1.753 z"
             id="path86"
             transform="matrix(0.264583,0,0,0.264583,-1.2083333e-6,7.5000001e-7)" /><path
             style="display:inline;fill:#ffffff;fill-opacity:1;fill-rule:evenodd;stroke:none;stroke-width:0.0626765;stroke-linecap:round;stroke-dasharray:none;stroke-opacity:1"
             d="m 402.60263,522.14662 c -5.26852,-1.55145 -10.95217,-2.20721 -16.71299,-1.92829 -1.38419,0.067 -2.54177,0.0968 -2.5724,0.0662 -0.0306,-0.0306 -0.60649,-1.33918 -1.27969,-2.90791 -1.37665,-3.20793 -1.46575,-3.61563 -2.06045,-9.4273 -1.21181,-11.84261 -0.31904,-20.61202 2.85036,-27.99809 1.2837,-2.99159 2.63209,-5.2413 6.08994,-10.16078 2.5574,-3.63841 3.74774,-5.54991 4.74834,-7.62506 1.05902,-2.19631 2.36716,-5.44592 3.30879,-8.21948 l 0.73434,-2.16302 2.27041,0.047 c 4.71033,0.0975 8.01887,0.88028 11.21089,2.65259 l 1.29781,0.72058 -0.0466,2.18337 c -0.0523,2.44945 -0.0681,2.33728 1.72055,12.27746 1.13227,6.29262 1.73374,10.02205 2.08144,12.90602 0.31931,2.64852 0.44075,8.84147 0.21965,11.20113 -0.59773,6.37926 -2.40874,12.35338 -5.79573,19.11885 -1.95967,3.91442 -5.53976,9.95364 -5.86492,9.89347 -0.0557,-0.0103 -1.04553,-0.2968 -2.1997,-0.63667 z"
             id="path89"
             transform="matrix(0.264583,0,0,0.264583,-1.2083333e-6,7.5000001e-7)" /><path
             style="display:inline;fill:#ffffff;fill-opacity:1;fill-rule:evenodd;stroke:none;stroke-width:0.0626765;stroke-linecap:round;stroke-dasharray:none;stroke-opacity:1"
             d="m 412.7315,450.98487 c -0.67678,-0.55225 -2.9393,-1.75596 -4.09722,-2.17982 -2.59954,-0.95157 -5.72023,-1.32306 -8.46764,-1.008 -0.74912,0.0859 -1.38137,0.13685 -1.40502,0.1132 -0.0236,-0.0236 0.0843,-0.62605 0.23981,-1.33869 0.15554,-0.71264 0.43864,-2.2187 0.62911,-3.34678 0.19047,-1.12809 0.38756,-2.09232 0.43798,-2.14274 0.0504,-0.0504 1.40539,-0.0166 3.01104,0.0751 2.93346,0.16755 4.77864,0.45818 6.5965,1.03901 1.01501,0.32431 3.90112,1.70937 4.44548,2.13341 l 0.33574,0.26154 -0.50841,2.29809 c -0.27963,1.26394 -0.59294,2.76374 -0.69625,3.33288 l -0.18783,1.0348 z"
             id="path90"
             transform="matrix(0.264583,0,0,0.264583,-1.2083333e-6,7.5000001e-7)" /><path
             style="display:inline;fill:#ffffff;fill-opacity:1;fill-rule:evenodd;stroke:none;stroke-width:0.0626765;stroke-linecap:round;stroke-dasharray:none;stroke-opacity:1"
             d="m 414.43642,440.08538 c -1.83016,-1.23649 -3.72131,-2.09224 -5.91397,-2.67608 -1.33642,-0.35585 -5.45459,-0.52383 -6.98678,-0.285 -0.55133,0.0859 -1.02461,0.13407 -1.05172,0.10696 -0.0271,-0.0271 0.0163,-0.59265 0.0964,-1.25673 0.0801,-0.66409 0.34325,-3.35562 0.5847,-5.98118 0.47821,-5.20023 0.70339,-6.37819 1.55455,-8.13228 0.66928,-1.37926 2.31566,-3.08696 3.52105,-3.6522 2.44416,-1.14612 4.97212,-1.05286 7.74681,0.28578 1.13602,0.54808 1.5573,0.85576 2.60418,1.90199 2.07853,2.07725 2.81743,3.85343 2.79877,6.72778 -0.0127,1.95686 -0.14617,2.48827 -1.53914,6.12856 -0.44006,1.15001 -1.15984,3.28414 -1.59951,4.74251 -0.43967,1.45838 -0.81748,2.66744 -0.83957,2.6868 -0.0221,0.0194 -0.46118,-0.24925 -0.97576,-0.59691 z"
             id="path91"
             transform="matrix(0.264583,0,0,0.264583,-1.2083333e-6,7.5000001e-7)" /><path
             style="display:inline;fill:#ffffff;fill-opacity:1;fill-rule:evenodd;stroke:none;stroke-width:0.0626765;stroke-linecap:round;stroke-dasharray:none;stroke-opacity:1"
             d="m 526.41377,553.61133 c -0.93157,-2.13696 -2.39468,-5.02386 -3.04423,-6.00667 -0.8965,-1.35646 -2.0862,-2.74466 -3.90343,-4.55473 l -1.7497,-1.74281 0.81239,-0.48199 c 0.44681,-0.2651 3.66758,-2.31148 7.15725,-4.54752 6.66704,-4.27196 7.17426,-4.56883 8.79628,-5.14845 3.52636,-1.26012 6.74199,-0.67837 9.26123,1.67548 3.24307,3.03015 4.15557,8.45437 2.1168,12.58292 -1.00648,2.03813 -2.80472,3.77736 -5.0346,4.8694 -0.55597,0.27227 -2.08501,0.82235 -3.39787,1.22238 -2.67223,0.81425 -5.22963,1.7067 -7.4879,2.61304 -0.83276,0.33422 -1.80906,0.72463 -2.16956,0.86757 l -0.65544,0.2599 z"
             id="path94"
             transform="matrix(0.264583,0,0,0.264583,-1.2083333e-6,7.5000001e-7)" /><path
             style="display:inline;fill:#ffffff;fill-opacity:1;fill-rule:evenodd;stroke:none;stroke-width:0.0626765;stroke-linecap:round;stroke-dasharray:none;stroke-opacity:1"
             d="m 514.18962,558.70801 c -1.69337,-3.41231 -3.62826,-6.26806 -6.52685,-9.63315 -0.77228,-0.89657 -1.38065,-1.64861 -1.35193,-1.67119 0.0287,-0.0226 0.92825,-0.44411 1.99895,-0.93672 1.07069,-0.4926 2.62807,-1.26778 3.46083,-1.7226 l 1.51411,-0.82696 0.98709,1.15868 c 3.42584,4.02138 5.5849,7.35655 7.23795,11.18067 0.22285,0.51552 0.45211,0.9923 0.50947,1.05951 0.0574,0.0672 -1.04086,0.69597 -2.44049,1.39723 -1.39963,0.70127 -2.93412,1.49197 -3.40999,1.75712 l -0.86521,0.48208 z"
             id="path95"
             transform="matrix(0.264583,0,0,0.264583,-1.2083333e-6,7.5000001e-7)" /><path
             style="display:inline;fill:#ffffff;fill-opacity:1;fill-rule:evenodd;stroke:none;stroke-width:0.0626765;stroke-linecap:round;stroke-dasharray:none;stroke-opacity:1"
             d="m 448.31539,601.73315 c -1.03762,-2.74029 -3.57233,-7.76926 -4.971,-9.86269 -0.92003,-1.37705 -1.0552,-1.6553 -0.90043,-1.85359 0.10016,-0.12832 0.83342,-0.94711 1.62947,-1.81953 1.88647,-2.06745 4.5711,-5.21328 6.17678,-7.23791 0.70361,-0.88719 1.35252,-1.64205 1.44202,-1.67747 0.33684,-0.13331 3.48087,-2.57114 5.10644,-3.95945 2.11891,-1.80965 5.65746,-5.41716 7.18196,-7.32194 2.41272,-3.01455 4.76887,-6.63176 6.33462,-9.72501 0.42153,-0.83277 0.85297,-1.62393 0.95875,-1.75815 0.4275,-0.54239 5.86392,-1.85395 12.44946,-3.0035 7.98801,-1.39435 11.3391,-2.15171 15.60956,-3.5278 l 2.05464,-0.66208 0.84471,0.90678 c 2.11934,2.27506 3.716,4.32591 5.55201,7.13133 1.32264,2.021 3.40943,5.69961 3.40943,6.01017 0,0.1065 -0.38183,0.49991 -0.84852,0.87422 -1.51516,1.21527 -4.83461,4.95108 -11.35137,12.7752 -6.32847,7.59807 -8.64137,10.12608 -11.66543,12.75041 -8.76387,7.60542 -19.26482,11.04827 -37.45343,12.27952 l -1.4031,0.095 z"
             id="path96"
             transform="matrix(0.264583,0,0,0.264583,-1.2083333e-6,7.5000001e-7)" /><path
             style="display:inline;fill:#ffffff;fill-opacity:1;fill-rule:evenodd;stroke:none;stroke-width:0.0626765;stroke-linecap:round;stroke-dasharray:none;stroke-opacity:1"
             d="m 374.49093,503.26375 c -0.3569,-0.54874 -1.18716,-1.70606 -1.84502,-2.57181 -0.65786,-0.86576 -1.16416,-1.60606 -1.12511,-1.64511 0.0761,-0.0761 3.17583,1.42927 3.56276,1.73031 0.19905,0.15486 0.2196,0.41604 0.1442,1.83247 l -0.0879,1.65186 z"
             id="path99"
             transform="matrix(0.264583,0,0,0.264583,-1.2083333e-6,7.5000001e-7)" /><path
             style="display:inline;fill:#ffffff;fill-opacity:1;fill-rule:evenodd;stroke:none;stroke-width:0.0626765;stroke-linecap:round;stroke-dasharray:none;stroke-opacity:1"
             d="m 375.5172,497.51501 c -0.30521,-0.36776 -1.7558,-1.20621 -2.92535,-1.69088 -1.3593,-0.56331 -3.15343,-0.99488 -4.14125,-0.99616 -0.84666,-10e-4 -0.77617,0.0465 -2.94004,-1.9861 l -0.83299,-0.78247 0.14985,-0.88739 c 0.0824,-0.48807 0.18626,-1.10816 0.23078,-1.37798 l 0.0809,-0.49059 2.18842,0.0882 c 3.5138,0.14164 5.34246,0.55844 7.81227,1.7806 2.00976,0.99451 1.87195,0.63172 1.28314,3.37792 -0.74644,3.48135 -0.67397,3.24414 -0.90577,2.96484 z"
             id="path100"
             transform="matrix(0.264583,0,0,0.264583,-1.2083333e-6,7.5000001e-7)" /><path
             style="display:inline;fill:#ffffff;fill-opacity:1;fill-rule:evenodd;stroke:none;stroke-width:0.0626765;stroke-linecap:round;stroke-dasharray:none;stroke-opacity:1"
             d="m 376.79815,488.48148 c -1.05007,-0.74112 -2.54765,-1.47973 -3.96554,-1.9558 -1.02624,-0.34457 -1.43223,-0.39514 -3.67713,-0.45806 -1.52928,-0.0429 -2.73658,-0.0118 -3.06428,0.0787 -0.52731,0.14575 -0.54072,0.1399 -0.53937,-0.23546 7.6e-4,-0.21171 0.0933,-1.22851 0.20568,-2.25955 0.11237,-1.03104 0.31337,-3.07509 0.44667,-4.54234 0.1333,-1.46725 0.36361,-3.14233 0.51178,-3.72241 1.2026,-4.70787 5.48627,-6.64239 9.89858,-4.47021 1.14574,0.56405 2.61875,1.90536 3.26441,2.97256 1.25167,2.06887 1.44556,4.66822 0.52921,7.09468 -0.84397,2.23477 -2.00883,5.67894 -2.32882,6.88561 -0.1735,0.65432 -0.3543,1.18569 -0.40177,1.18084 -0.0475,-0.005 -0.44321,-0.26073 -0.87942,-0.5686 z"
             id="path101"
             transform="matrix(0.264583,0,0,0.264583,-1.2083333e-6,7.5000001e-7)" /><path
             style="display:inline;fill:#ffffff;fill-opacity:1;fill-rule:evenodd;stroke:none;stroke-width:0.00544637;stroke-linecap:round;stroke-dasharray:none"
             d="m 283.01619,521.81012 c 0,-0.13379 -1.60504,-2.95345 -2.54253,-4.4666 l -0.92736,-1.4968 0.40406,-0.36518 c 1.55281,-1.40337 3.47147,-2.86564 4.98914,-3.80238 2.16014,-1.3333 5.53223,-2.51677 7.38968,-2.59348 l 0.52276,-0.0216 0.92869,1.72922 c 0.51077,0.95107 1.23255,2.24799 1.60395,2.88204 0.3714,0.63405 0.66932,1.1591 0.66205,1.16679 -0.007,0.008 -0.51038,0.0846 -1.11801,0.17097 -4.42702,0.62909 -8.03047,2.56948 -11.11311,5.98422 -0.43963,0.48698 -0.79932,0.85274 -0.79932,0.81279 z"
             id="path11"
             transform="matrix(0.264583,0,0,0.264583,-1.2083333e-6,7.5000001e-7)" /><path
             style="display:inline;fill:#ffffff;fill-opacity:1;fill-rule:evenodd;stroke:none;stroke-width:0.00544637;stroke-linecap:round;stroke-dasharray:none"
             d="m 276.90095,511.91903 c -0.24891,-0.35496 -1.55783,-2.19138 -2.90872,-4.08094 -1.35089,-1.88956 -2.73012,-3.83493 -3.06495,-4.32306 -1.851,-2.69838 -2.56349,-5.35822 -2.07231,-7.73619 0.59916,-2.90068 2.97336,-5.26343 6.24602,-6.2159 2.77281,-0.80699 5.79845,-0.35806 8.11905,1.20468 0.86257,0.58088 2.08342,1.82884 2.67071,2.73003 0.66985,1.02788 1.0482,1.84905 1.6408,3.56115 0.7878,2.27605 2.37237,6.06383 3.31451,7.92304 l 0.22284,0.43975 -1.02423,0.10938 c -2.76833,0.29563 -5.35925,1.13542 -7.41273,2.40268 -1.35601,0.83683 -2.47912,1.76239 -3.87851,3.1963 l -1.39993,1.43446 z"
             id="path12"
             transform="matrix(0.264583,0,0,0.264583,-1.2083333e-6,7.5000001e-7)" /><path
             style="display:inline;fill:#ffffff;fill-opacity:1;fill-rule:evenodd;stroke:none;stroke-width:0.00544637;stroke-linecap:round;stroke-dasharray:none"
             d="m 318.31785,588.11246 c -14.65074,-11.49278 -22.98685,-21.45834 -26.21688,-31.34145 -1.09541,-3.35169 -1.5688,-6.03001 -2.21751,-12.54605 -0.42116,-4.23041 -0.88075,-6.9598 -1.53582,-9.12079 -0.81369,-2.68428 -1.99514,-5.99009 -2.97907,-8.33572 -0.50713,-1.20897 -0.52367,-1.2745 -0.36116,-1.43041 0.6778,-0.65027 2.36348,-2.06708 3.24448,-2.72699 3.0122,-2.25624 5.85963,-3.53014 9.12336,-4.08167 l 0.95758,-0.16181 0.66495,0.87216 c 1.55367,2.03782 1.99133,2.42666 9.95676,8.84598 6.08367,4.90282 7.69403,6.26045 10.41143,8.77745 8.03816,7.44538 12.50242,15.12917 15.38441,26.47932 1.07447,4.23157 1.78591,8.33893 2.57696,14.87768 0.0285,0.23582 -0.0139,0.29508 -0.2954,0.41271 -0.18079,0.0755 -1.547,0.73216 -3.03601,1.45916 -6.41956,3.1343 -8.60018,4.58047 -12.22421,8.10698 -0.8015,0.77993 -1.47494,1.41806 -1.49655,1.41806 -0.0216,0 -0.9024,-0.67708 -1.95732,-1.50461 z"
             id="path13"
             transform="matrix(0.264583,0,0,0.264583,-1.2083333e-6,7.5000001e-7)" /><path
             style="fill:#ffffff;fill-opacity:1;fill-rule:evenodd;stroke:none;stroke-width:0.0131185;stroke-linecap:round;stroke-dasharray:none;stroke-opacity:1"
             d="m 68.994432,146.27082 c -0.08971,-0.10414 -0.303803,-0.33444 -0.475758,-0.51176 l -0.312642,-0.32241 0.250605,-0.36976 c 0.272995,-0.40278 0.686925,-0.85822 0.98634,-1.08525 0.414597,-0.31437 0.935228,-0.52433 1.530282,-0.61715 0.182599,-0.0285 0.33973,-0.064 0.349173,-0.0789 0.0094,-0.0149 0.0629,0.0376 0.118798,0.11674 0.0559,0.0791 0.209415,0.27784 0.341156,0.44161 0.252249,0.31358 0.259546,0.34967 0.07089,0.35069 -0.16292,7.9e-4 -0.699616,0.12559 -0.91998,0.21378 -0.467482,0.18708 -0.950439,0.58935 -1.247706,1.03924 -0.161896,0.24502 -0.442161,0.76271 -0.493051,0.91073 l -0.035,0.10181 z"
             id="path33" /><path
             style="fill:#ffffff;fill-opacity:1;fill-rule:evenodd;stroke:none;stroke-width:0.0131185;stroke-linecap:round;stroke-dasharray:none;stroke-opacity:1"
             d="m 67.003273,144.39562 c -0.9345,-0.7925 -1.226857,-1.12141 -1.483379,-1.66881 -0.208843,-0.44566 -0.255923,-0.86133 -0.146161,-1.29049 0.193943,-0.75831 0.869479,-1.37029 1.775212,-1.60818 0.394766,-0.10368 0.956619,-0.10898 1.319196,-0.0124 0.492723,0.13119 0.894975,0.37072 1.252982,0.74609 0.276143,0.28954 0.438338,0.53316 0.608637,0.91417 0.07116,0.1592 0.214495,0.45698 0.318527,0.66175 0.104034,0.20476 0.18915,0.37793 0.18915,0.38482 0,0.007 -0.08489,0.0128 -0.188637,0.0132 -0.244898,7.9e-4 -0.855279,0.12259 -1.123548,0.22397 -0.412983,0.15607 -0.667181,0.32373 -1.021686,0.67385 -0.34013,0.33594 -0.620612,0.78782 -0.805174,1.29722 -0.03759,0.10375 -0.07039,0.18864 -0.07288,0.18864 -0.0024,0 -0.2825,-0.23573 -0.622236,-0.52384 z"
             id="path34" /><path
             style="fill:#ffffff;fill-opacity:1;fill-rule:evenodd;stroke:none;stroke-width:0.0131185;stroke-linecap:round;stroke-dasharray:none;stroke-opacity:1"
             d="m 79.859218,159.23333 c 0.03124,-0.0789 0.126876,-0.31994 0.212511,-0.53574 0.55853,-1.4075 1.172183,-2.23861 2.120987,-2.87258 0.486347,-0.32497 1.381578,-0.73378 1.381578,-0.6309 0,0.11113 -0.128641,0.77387 -0.192678,0.99264 -0.369371,1.26195 -1.152353,2.16818 -2.375725,2.74969 -0.272997,0.12977 -1.11051,0.44025 -1.187551,0.44025 -0.0088,0 0.0096,-0.0645 0.04088,-0.14336 z"
             id="path35" /><path
             style="fill:#ffffff;fill-opacity:1;fill-rule:evenodd;stroke:none;stroke-width:0.11108;stroke-linecap:round;stroke-dasharray:none;stroke-opacity:1"
             d="m 296.96643,600.16737 c -14.19022,-7.90325 -21.79044,-14.52675 -25.32588,-22.07118 -0.97472,-2.07999 -1.42591,-3.61802 -3.01891,-10.29093 -0.7636,-3.19862 -2.32403,-6.88124 -4.28042,-10.10181 l -0.94584,-1.55702 0.87661,-1.66695 c 1.7031,-3.23861 4.99395,-5.85317 8.518,-6.76749 l 1.50782,-0.39122 1.68674,1.53035 c 2.51878,2.28524 3.94411,3.1423 9.84933,5.92248 2.96029,1.39371 5.4803,2.62685 5.60003,2.74032 0.11973,0.11348 0.5998,1.13979 1.06682,2.28069 2.97477,7.26723 9.28352,15.12444 18.77734,23.38618 1.75701,1.52899 3.23084,2.80825 3.27517,2.84279 0.0443,0.0345 -0.78413,0.47873 -1.84105,0.98709 -4.94201,2.37701 -8.22418,6.24746 -10.79731,12.73256 -0.54296,1.3684 -1.04469,2.48801 -1.11497,2.48802 -0.0703,0 -1.79535,-0.92874 -3.83348,-2.06388 z"
             id="path104"
             transform="scale(0.264583, 0.264583)" /></g></g><ellipse
         style="fill:#000000;fill-opacity:1;fill-rule:evenodd;stroke:none;stroke-width:0.123168;stroke-linecap:round;stroke-dasharray:none;stroke-opacity:1"
         id="ellipse105"
         cx="101.60475"
         cy="152.45259"
         rx="13.693722"
         ry="13.971064"
         transform="rotate(-0.440026)" /></g><g
       id="g154"
       style="display:none"><path
         style="fill:none;fill-rule:evenodd;stroke:#000000;stroke-width:0.107036;stroke-linecap:round;stroke-dasharray:none"
         d="m 100.65155,127.48493 c -0.50835,1.16914 -1.479172,4.79022 -1.277425,6.06677 0.880395,5.57075 2.216615,8.10609 -2.171192,14.41696 -2.385423,-0.66842 -2.864572,-0.72854 -4.447246,-0.5867 -2.056,-9.91583 1.211307,-10.55108 2.552541,-13.66632 1.117531,-2.59565 1.242851,-3.96232 1.547449,-7.39384 0.321375,-3.62049 5.130323,-1.90598 3.795873,1.16313 z"
         id="path107"
         sodipodi:nodetypes="ssccsss" /><path
         style="fill:none;fill-rule:evenodd;stroke:#000000;stroke-width:0.146014;stroke-linecap:round;stroke-dasharray:none"
         d="m 142.37721,145.9575 c -1.68523,0.42957 -6.40004,2.4107 -7.60734,3.69548 -5.26855,5.60665 -5.70072,9.20899 -16.17176,9.75593 -1.27396,-3.13009 -1.94789,-3.52776 -3.42405,-5.11511 6.98264,-8.30888 11.20221,-7.347 15.68148,-8.50593 3.73219,-0.96564 5.64822,-2.35363 9.60168,-4.89438 4.17119,-2.68068 6.34388,3.93633 1.91999,5.06401 z"
         id="path112"
         sodipodi:nodetypes="ssccsss" /><path
         style="fill:none;fill-rule:evenodd;stroke:#000000;stroke-width:0.131;stroke-linecap:round;stroke-dasharray:none"
         d="m 110.78465,114.27216 c -0.62216,1.43089 -1.81033,5.86266 -1.56342,7.42501 1.07751,6.81794 2.71287,9.9209 -2.65728,17.64466 -2.91948,-0.81807 -3.5059,-0.89165 -5.4429,-0.71805 -2.516305,-12.13581 1.48249,-12.91328 3.124,-16.72596 1.36773,-3.17677 1.52111,-4.84942 1.8939,-9.04919 0.39332,-4.43106 6.27891,-2.3327 4.6457,1.42353 z"
         id="path117"
         sodipodi:nodetypes="ssccsss" /><path
         style="fill:none;fill-rule:evenodd;stroke:#000000;stroke-width:0.115454;stroke-linecap:round;stroke-dasharray:none"
         d="m 70.500379,141.63506 c 0.576982,1.45417 2.451619,3.70685 3.775646,4.39141 3.508885,1.81419 8.179464,2.9535 9.38052,9.025 -2.933234,0.93906 -3.405444,3.07409 -3.995087,4.43761 -9.705258,-5.01065 -7.764765,-7.68592 -9.107749,-10.55911 -1.118994,-2.39397 -2.079632,-3.20573 -4.036075,-4.84061 -3.966794,-3.3148 2.322881,-6.63765 3.982745,-2.4543 z"
         id="path122"
         sodipodi:nodetypes="ssccsss" /><path
         style="fill:none;fill-opacity:1;fill-rule:evenodd;stroke:#000000;stroke-width:0.115;stroke-linecap:round;stroke-dasharray:none;stroke-opacity:1"
         d="m 79.661458,159.48907 c 2.050095,-0.50669 3.782772,-1.67848 3.995087,-4.43761"
         id="path123"
         sodipodi:nodetypes="cc" /><path
         style="fill:none;fill-rule:evenodd;stroke:#000000;stroke-width:0.115294;stroke-linecap:round;stroke-dasharray:none"
         d="m 116.29376,130.19992 c -0.61058,1.23002 -1.85229,5.07254 -1.70482,6.45681 0.64352,6.0408 1.94281,8.84106 -3.12136,15.39096 -2.52973,-0.84906 -3.04191,-0.93985 -4.75222,-0.87351 -1.67141,-10.77916 1.87807,-11.28449 3.49069,-14.56266 1.34366,-2.73141 1.55295,-4.19481 2.06763,-7.86971 0.54303,-3.8773 5.6229,-1.77081 4.02008,1.45811 z"
         id="path128"
         sodipodi:nodetypes="ssccsss" /><path
         style="fill:none;fill-rule:evenodd;stroke:#000000;stroke-width:0.153867;stroke-linecap:round;stroke-dasharray:none"
         d="m 133.52944,133.31576 c -1.4864,1.07204 -5.34394,4.83538 -6.03145,6.56133 -3.00024,7.53189 -3.20934,11.64638 -13.26455,16.22668 -2.45794,-2.5769 -3.00608,-3.00287 -5.06645,-3.98909 4.73606,-13.76544 9.24085,-12.15272 13.185,-15.01896 3.28632,-2.3882 4.44425,-3.98551 7.33919,-8.0035 3.05437,-4.23927 7.74019,1.40933 3.83826,4.22354 z"
         id="path133"
         sodipodi:nodetypes="ssccsss" /><path
         style="fill:none;fill-rule:evenodd;stroke:#000000;stroke-width:0.184418;stroke-linecap:round;stroke-dasharray:none"
         d="m 128.63323,123.53461 c -1.74848,2.40634 -4.79633,7.43511 -4.8204,9.66171 -0.10503,9.71668 1.43647,14.40772 -7.83095,23.86799 -3.86035,-1.82094 -4.65707,-2.06074 -7.3865,-2.27454 -0.64362,-17.436 5.08948,-17.57636 8.26311,-22.48321 2.64431,-4.08844 3.44177,-5.70273 4.75334,-11.49157 1.65565,-7.30744 10.81742,-2.50465 7.0214,2.71962 z"
         id="path138"
         sodipodi:nodetypes="ssccsss" /><path
         style="display:inline;fill:none;fill-rule:evenodd;stroke:#000000;stroke-width:0.178691;stroke-linecap:round;stroke-dasharray:none"
         d="m 82.049896,117.07669 c 0.969568,1.89467 4.612156,6.98412 6.472731,8.07655 8.11938,4.76729 11.187535,5.9243 14.679263,18.27202 -2.67788,1.52741 -2.93948,1.24024 -4.433577,3.43225 -12.380914,-6.75445 -10.515067,-9.89462 -14.342605,-16.28539 -2.42409,-4.04746 -3.794561,-5.80199 -7.898567,-9.83113 -4.330027,-4.25103 2.977549,-8.63797 5.522755,-3.6643 z"
         id="path143"
         sodipodi:nodetypes="ssccsss" /><path
         style="fill:none;fill-rule:evenodd;stroke:#000000;stroke-width:0.131;stroke-linecap:round;stroke-dasharray:none"
         d="m 76.117849,131.39242 c 0.466605,1.4889 2.470182,5.61661 3.679745,6.63585 5.27842,4.44788 8.546151,5.72252 9.544164,15.07661 -2.742319,1.29316 -3.233742,1.6215 -4.584174,3.02095 -9.847766,-7.52537 -7.334303,-10.7312 -8.589876,-14.68779 -1.046162,-3.29668 -2.025384,-4.66138 -4.493366,-8.07987 -2.603901,-3.60676 3.218625,-5.87424 4.443507,-1.96575 z"
         id="path148"
         sodipodi:nodetypes="ssccsss" /><ellipse
         style="fill:none;fill-opacity:1;fill-rule:evenodd;stroke:#000000;stroke-width:0.123168;stroke-linecap:round;stroke-dasharray:none;stroke-opacity:1"
         id="path66"
         cx="101.60475"
         cy="152.45259"
         rx="13.693722"
         ry="13.971064"
         transform="rotate(-0.44002573,-1.6067408e-4,1.621472e-4)" /></g><g
       id="g185"
       style="display:none;stroke-width:0.5;stroke-dasharray:none"><path
         style="display:inline;stroke-width:0.5;stroke-dasharray:none;fill:none;fill-opacity:1;fill-rule:evenodd;stroke:#000000;stroke-linecap:round;stroke-opacity:1"
         d="m 79.661458,159.48907 c 2.050095,-0.50669 3.782772,-1.67848 3.995087,-4.43761"
         id="path195"
         sodipodi:nodetypes="cc"
         transform="translate(-1.2083333e-6)" /><ellipse
         style="display:inline;fill:none;fill-opacity:1;fill-rule:evenodd;stroke:#000000;stroke-width:0.5;stroke-linecap:round;stroke-dasharray:none;stroke-opacity:1"
         id="ellipse177"
         cx="101.60475"
         cy="152.45259"
         rx="13.693722"
         ry="13.971064"
         transform="rotate(-0.44002573,-1.6067408e-4,1.621472e-4)" /><path
         id="path177"
         style="display:inline;fill:none;fill-rule:evenodd;stroke:#000000;stroke-width:0.5;stroke-linecap:round;stroke-dasharray:none"
         inkscape:label="path155"
         d="m 116.8603,156.14674 c 0.55011,0.7108 1.06223,1.60228 1.73788,3.26233 10.47102,-0.54694 10.90309,-4.14936 16.17162,-9.75599 1.2073,-1.28478 5.92206,-3.26581 7.60729,-3.69538 3.73264,-0.95148 2.7691,-5.81118 -0.12868,-5.6963 -0.53662,0.0213 -1.13935,0.21315 -1.7911,0.63201 -3.95346,2.54073 -5.86981,3.92863 -9.602,4.89427 -2.03492,0.5265 -4.01847,0.62287 -6.22959,1.34204"
         transform="translate(-1.25e-6)"
         sodipodi:nodetypes="ccssccsc" /><path
         id="path178"
         style="display:inline;fill:none;fill-rule:evenodd;stroke:#000000;stroke-width:0.5;stroke-linecap:round;stroke-dasharray:none"
         d="m 119.30925,153.29162 c 5.17983,-3.61324 5.80793,-7.43807 8.18864,-13.41469 0.68751,-1.72595 4.54528,-5.48932 6.03168,-6.56135 2.92644,-2.11066 1.02208,-5.81531 -1.40147,-5.74746 -0.80785,0.0226 -1.67347,0.46412 -2.43706,1.52394 -2.41289,3.34893 -3.63384,5.01896 -5.87148,6.86418"
         transform="translate(-1.25e-6)"
         sodipodi:nodetypes="cscssc" /><path
         id="path179"
         style="display:inline;fill:none;fill-rule:evenodd;stroke:#000000;stroke-width:0.5;stroke-linecap:round;stroke-dasharray:none"
         d="m 114.80978,134.76252 c 0.36136,-1.66394 1.06614,-3.72043 1.48415,-4.56252 1.00175,-2.01806 -0.60727,-3.59791 -2.08722,-3.55223 -0.88795,0.0274 -1.72957,0.63995 -1.93321,2.09392 -0.51468,3.6749 -0.72393,5.1384 -2.06757,7.86981 -0.45395,0.92279 -1.06119,1.62855 -1.66244,2.40295"
         transform="translate(-1.25e-6)"
         sodipodi:nodetypes="csscsc" /><path
         id="path180"
         style="display:inline;fill:none;fill-rule:evenodd;stroke:#000000;stroke-width:0.5;stroke-linecap:round;stroke-dasharray:none"
         d="m 89.107469,151.31861 c -1.215522,-7.75151 -4.388356,-9.14288 -9.310026,-13.29014 -1.209561,-1.01924 -3.212757,-5.14739 -3.679362,-6.63629 -0.45933,-1.46568 -1.565246,-2.06264 -2.630847,-2.04639 h 2e-6 c -1.776001,0.0271 -3.440245,1.75794 -1.812809,4.01216 2.46798,3.41849 3.447105,4.78345 4.493266,8.08013 1.255572,3.95658 -1.2581,7.16263 8.589656,14.68799 1.322638,-1.37065 1.834832,-1.71965 4.431254,-2.94814"
         transform="translate(-1.25e-6)"
         sodipodi:nodetypes="csssssscc" /><path
         id="path181"
         style="display:inline;fill:none;fill-rule:evenodd;stroke:#000000;stroke-width:0.5;stroke-linecap:round;stroke-dasharray:none"
         d="m 107.15392,138.46617 c 4.65069,-7.09192 3.10278,-10.21542 2.06705,-16.76901 -0.24691,-1.56235 0.94157,-5.99398 1.56373,-7.42487 0.96972,-2.23026 -0.71109,-3.87597 -2.31924,-3.91759 -1.10031,-0.0285 -2.16668,0.69379 -2.32647,2.49391 -0.37279,4.19976 -0.52621,5.87229 -1.89394,9.04906 -1.60485,3.72752 -5.458792,4.56072 -3.27887,15.93649"
         transform="translate(-1.25e-6)"
         sodipodi:nodetypes="csssssc" /><path
         id="path182"
         style="display:inline;fill:none;fill-rule:evenodd;stroke:#000000;stroke-width:0.5;stroke-linecap:round;stroke-dasharray:none"
         d="m 99.432939,133.90417 c -0.01955,-0.11858 -0.03973,-0.23104 -0.05891,-0.35243 -0.201747,-1.27655 0.769091,-4.89768 1.277441,-6.06682 0.79233,-1.82227 -0.58101,-3.16683 -1.894975,-3.20083 -0.899031,-0.0233 -1.770101,0.56677 -1.900659,2.0376 -0.149908,1.68882 -0.257731,2.87618 -0.460437,3.95738"
         sodipodi:nodetypes="ccsssc"
         transform="translate(-1.25e-6)" /><path
         id="path183"
         style="display:inline;fill:none;fill-rule:evenodd;stroke:#000000;stroke-width:0.5;stroke-linecap:round;stroke-dasharray:none"
         d="m 77.239462,147.44081 c -1.012054,-0.49349 -2.028916,-0.9311 -2.963643,-1.41438 -1.324026,-0.68456 -3.198499,-2.9373 -3.775481,-4.39147 -0.570577,-1.43802 -1.688085,-1.98921 -2.748152,-1.95853 -2.023765,0.0586 -3.837756,2.23783 -1.23455,4.41316 1.956441,1.63488 2.916936,2.44657 4.035929,4.84054 1.342983,2.87318 -0.597277,5.5484 9.107971,10.55904 0.577272,-1.33491 1.048223,-3.40625 3.819922,-4.37389"
         transform="translate(-1.25e-6)"
         sodipodi:nodetypes="csscsscc" /><path
         id="path184"
         style="display:inline;fill:none;fill-rule:evenodd;stroke:#000000;stroke-width:0.5;stroke-linecap:round;stroke-dasharray:none"
         d="m 100.66117,136.22483 c -2.733893,-5.90904 -5.985708,-7.45883 -12.138676,-11.07155 -1.86057,-1.09243 -5.502906,-6.18184 -6.472473,-8.07651 -0.795376,-1.55427 -2.055898,-2.19436 -3.280937,-2.2102 -2.695084,-0.0348 -5.218614,2.952 -2.241723,5.87458 4.104002,4.02914 5.474138,5.78347 7.898226,9.83092 2.951758,4.9285 2.52386,7.92509 7.849133,12.1357"
         sodipodi:nodetypes="cssccsc" /><path
         id="path185"
         style="display:inline;fill:none;fill-rule:evenodd;stroke:#000000;stroke-width:0.5;stroke-linecap:round;stroke-dasharray:none"
         d="m 115.49397,156.83714 c 0.16652,0.0779 0.30861,0.14283 0.48783,0.22737 9.26741,-9.46026 7.72602,-14.15164 7.83105,-23.86831 0.0241,-2.22659 3.0719,-7.25509 4.82037,-9.66142 2.37251,-3.26517 -0.31644,-6.366 -3.07113,-6.44819 -1.65281,-0.0493 -3.32927,0.98817 -3.95014,3.72846 -1.31157,5.78883 -2.10941,7.40285 -4.75372,11.49128 -1.82036,2.81453 -4.4807,4.06647 -6.29884,7.90805"
         transform="translate(-1.25e-6)"
         sodipodi:nodetypes="cccssscc" /></g><g
       id="g194"
       style="display:none;stroke-width:0.5;stroke-dasharray:none"><path
         id="path9552"
         style="fill:none;stroke:#000000;stroke-width:1px"
         d="m 103.38546,259.33414 2.79157,-0.82818 2.56966,-1.0753 2.33653,-1.36698 2.05955,-1.69301 1.74417,-2.05972 1.402,-2.49668 0.54104,-1.39252 0.43767,-1.52119 0.55223,-3.57674 m -13.89694,17.82204 2.88943,-0.85722 2.77994,-1.1633 2.57487,-1.50642 2.30745,-1.89679 1.97143,-2.32808 1.556,-2.77092 0.62036,-1.59668 0.49453,-1.71881 0.57057,-3.69546 m -14.07351,17.2291 -0.64499,-2.17406 m 8.37706,-1.77275 -1.44003,-1.75181 m 6.69937,-5.55064 -2.11378,-0.82127"
         inkstitch:satin_column="true"
         transform="matrix(0.264583,0,0,0.264583,52.2363,90.6339)" /><path
         id="path7147"
         style="fill:none;stroke:#000000;stroke-width:1px"
         d="m 188.692,178.91 -1.912,0.088 -3.763,0.463 -3.687,0.741 -3.601,1.01 -3.5,1.271 -3.389,1.523 -3.263,1.766 -3.126,2.002 -2.975,2.227 -2.813,2.444 -2.637,2.653 -2.449,2.853 -2.249,3.044 -2.035,3.227 -1.81,3.401 -1.571,3.566 -1.305,3.676 -1.02,3.728 -0.741,3.763 -0.462,3.785 -0.188,3.79 0.084,3.78 0.352,3.756 0.617,3.715 0.88,3.66 1.138,3.59 1.395,3.503 1.647,3.402 1.897,3.286 2.144,3.154 2.387,3.008 2.627,2.845 2.829,2.637 2.984,2.388 3.122,2.138 3.248,1.883 3.357,1.627 3.452,1.368 3.532,1.106 3.597,0.84 3.647,0.572 3.682,0.301 3.702,0.027 0.77,-0.052 2.938,-0.198 3.697,-0.529 3.674,-0.812 3.634,-1.098 3.58,-1.386 3.468,-1.656 3.303,-1.897 3.129,-2.125 2.948,-2.34 2.758,-2.542 2.56,-2.731 2.353,-2.908 2.138,-3.071 1.914,-3.221 1.682,-3.358 1.442,-3.482 1.192,-3.594 0.936,-3.692 0.67,-3.777 0.396,-3.85 0.114,-3.903 -0.289,-5.131 -0.776,-5.035 -1.249,-4.91 -1.709,-4.751 -2.154,-4.558 -2.586,-4.332 -3.002,-4.072 -3.405,-3.777 -3.754,-3.416 -4.035,-2.999 -4.283,-2.57 -4.497,-2.126 -4.679,-1.669 -4.826,-1.198 -4.941,-0.713 -5.028,-0.215 z m -0.086,-1.887 -1.985,0.091 -3.906,0.48 -3.827,0.769 -3.737,1.049 -3.633,1.319 -3.516,1.58 -3.385,1.833 -3.243,2.075 -3.086,2.31 -2.917,2.535 -2.734,2.751 -2.539,2.958 -2.331,3.156 -2.11,3.344 -1.875,3.524 -1.627,3.694 -1.352,3.808 -1.057,3.861 -0.767,3.899 -0.479,3.92 -0.195,3.926 0.087,3.915 0.364,3.89 0.64,3.848 0.911,3.792 1.179,3.718 1.445,3.629 1.707,3.526 1.966,3.405 2.222,3.269 2.474,3.118 2.724,2.949 2.933,2.734 3.094,2.477 3.239,2.217 3.369,1.954 3.484,1.688 3.582,1.42 3.665,1.147 3.733,0.872 3.785,0.593 3.822,0.313 3.843,0.028 0.84,-0.056 3.008,-0.203 3.839,-0.549 3.812,-0.843 3.772,-1.139 3.714,-1.439 3.598,-1.718 3.427,-1.968 3.246,-2.204 3.058,-2.427 2.86,-2.636 2.654,-2.832 2.439,-3.014 2.216,-3.183 1.983,-3.338 1.743,-3.479 1.494,-3.609 1.236,-3.723 0.969,-3.824 0.694,-3.913 0.41,-3.987 0.118,-4.054 -0.298,-5.303 -0.804,-5.215 -1.294,-5.086 -1.77,-4.922 -2.233,-4.724 -2.679,-4.489 -3.112,-4.22 -3.53,-3.916 -3.893,-3.542 -4.185,-3.111 -4.443,-2.665 -4.666,-2.206 -4.856,-1.732 -5.009,-1.244 -5.128,-0.74 -5.207,-0.223 z m -3.367,0.07 0.276,2.251 m -8.492,-0.654 0.613,2.183 m -8.465,0.705 0.929,2.069 m -9.635,3.017 1.359,1.816 m -7.731,3.602 1.608,1.599 m -7.06,4.745 1.825,1.348 m -6.229,5.765 2.002,1.065 m -5.262,6.64 2.137,0.759 m -4.647,10.686 2.251,0.275 m -2.427,9.802 2.258,-0.211 m -0.994,8.476 2.205,-0.53 m 0.296,8.509 2.107,-0.839 m 1.581,8.345 1.964,-1.134 m 5.067,10.508 1.666,-1.539 m 4.51,7.185 1.417,-1.77 m 8.574,7.896 0.989,-2.04 m 8.512,5.419 0.516,-2.208 m 7.739,3.569 0.184,-2.26 m 6.392,0.135 0.152,2.262 m 4.984,-0.485 -0.321,-2.245 m 11.659,-0.727 -0.818,-2.115 m 8.361,-1.515 -1.13,-1.966 m 8.001,-2.809 -1.409,-1.776 m 9.592,-6.61 -1.763,-1.426 m 7.197,-7.062 -2.028,-1.015 m 5.279,-6.689 -2.153,-0.715 m 4.192,-7.396 -2.233,-0.396 m 2.945,-11.309 -2.264,0.127 m 0.916,-10.087 -2.198,0.559 m -1.648,-11.591 -2.051,0.969 m -3.068,-9.618 -1.825,1.346 m -4.812,-8.898 -1.526,1.678 m -6.41,-7.853 -1.167,1.945 m -9.346,-7.052 -0.762,2.136 m -10.617,-4.808 -0.324,2.245"
         inkstitch:satin_column="true"
         transform="matrix(0.264583,0,0,0.264583,52.2363,90.6339)" /><path
         id="path8540"
         style="fill:none;stroke:#000000;stroke-width:1px"
         d="m 245.01892,247.06099 1.5671,2.2096 1.59914,2.70509 1.67742,3.36816 1.55478,3.60148 6.29385,-0.47005 6.1288,-0.77995 5.39445,-1.03362 4.74314,-1.27941 4.17658,-1.51757 3.69708,-1.74947 3.30573,-1.97731 3.00254,-2.20372 2.78571,-2.43026 2.64701,-2.65094 5.24068,-5.99079 5.66299,-6.82411 3.20113,-3.71639 3.58365,-3.93907 2.37928,-2.00785 3.31821,-2.12652 3.95067,-2.14936 4.31109,-2.08774 4.39006,-1.93208 4.18564,-1.68008 3.70055,-1.33153 2.88329,-0.86903 2.34325,-0.80599 1.88769,-1.05188 1.51514,-1.26821 1.16954,-1.44218 0.8457,-1.57755 0.53801,-1.67357 0.24275,-1.72678 -0.0405,-1.73347 -0.31071,-1.6909 -0.56531,-1.59838 -0.80223,-1.45638 -1.01964,-1.26797 -1.21803,-1.03714 -1.40227,-0.76882 -1.58069,-0.46415 -1.77472,-0.11803 -1.41186,0.16633 -1.52678,0.41182 -1.62564,0.68164 -1.73988,0.98898 -9.97598,6.41889 -4.35951,2.69485 -4.16246,2.38994 -4.13613,2.11529 -4.27648,1.86909 -4.58141,1.6516 -5.05638,1.46627 -5.79842,1.2607 -5.78445,1.01496 -5.86818,1.14375 -2.98352,0.73196 -3.07427,0.91035 m -30.3886,33.72072 1.5217,2.1456 1.52466,2.57911 1.62418,3.26124 2.06782,4.78992 7.68515,-0.57395 6.2364,-0.79365 5.52155,-1.05798 4.88846,-1.31859 4.33522,-1.57523 3.85992,-1.82653 3.46087,-2.07009 3.13846,-2.30348 2.89469,-2.52534 2.73699,-2.74106 5.29792,-6.05621 5.66761,-6.82969 3.17307,-3.68381 3.48255,-3.82793 2.18932,-1.84755 3.15679,-2.02308 3.85193,-2.09564 4.23991,-2.05326 4.33014,-1.90572 4.12496,-1.65572 3.62145,-1.30307 2.87051,-0.86517 2.53635,-0.87241 2.19031,-1.22052 1.79206,-1.49999 1.39746,-1.72322 1.0115,-1.88685 0.64019,-1.99143 0.28685,-2.04042 -0.0477,-2.03773 -0.36489,-1.9857 -0.66689,-1.88562 -0.95637,-1.73622 -1.23456,-1.53523 -1.50097,-1.27806 -1.75133,-0.96018 -1.97671,-0.58045 -2.15588,-0.14337 -1.72214,0.20287 -1.78242,0.48078 -1.84676,0.77436 -1.88352,1.07062 -10.00522,6.43771 -4.31889,2.66975 -4.09614,2.35186 -4.04427,2.06831 -4.16672,1.82111 -4.46599,1.61 -4.93662,1.43153 -5.69818,1.2389 -5.76435,1.01144 -5.93022,1.15585 -3.07108,0.75344 -3.11713,0.92305 m -11.69689,47.45023 -0.28628,-2.24958 m 11.45244,0.0311 -0.59057,-2.18947 m 9.18525,-1.03222 -0.96998,-2.04981 m 13.86591,-7.485 -1.60471,-1.60233 m 10.52558,-8.65194 -1.7451,-1.44817 m 27.42765,-18.71966 -0.91348,-2.07559 m 22.68789,-17.5705 -2.23037,0.40985 m -23.0529,-1.65001 1.22706,1.90706 m -14.68074,6.02663 1.03255,2.019 m -9.16095,1.46057 0.76907,2.13333 m -18.02859,2.07024 0.39191,2.23359 m -9.27896,-0.43152 0.54033,2.20241"
         inkstitch:satin_column="true"
         transform="matrix(0.264583,0,0,0.264583,52.2363,90.6339)" /><path
         id="path7212"
         style="fill:none;stroke:#000000;stroke-width:1px"
         d="m 252.94202,236.05709 3.45221,-2.55484 3.06169,-2.5636 2.72867,-2.59899 2.43208,-2.64603 2.17225,-2.70559 1.94849,-2.77811 1.76037,-2.86361 1.60303,-2.95437 2.89888,-6.28059 2.69275,-6.80357 2.76678,-7.42279 3.12505,-8.14234 0.65728,-1.38213 0.91671,-1.53709 2.41716,-3.34583 3.0416,-3.6309 3.41928,-3.71046 3.55694,-3.58874 3.45388,-3.26276 3.11239,-2.73324 2.49455,-1.96813 1.79666,-1.50507 1.3596,-1.55807 0.99604,-1.61881 0.66327,-1.65675 0.35769,-1.67366 0.0754,-1.6688 -0.18594,-1.63949 -0.42688,-1.58321 -0.64675,-1.49762 -0.84386,-1.38167 -1.01701,-1.23536 -1.16476,-1.05984 -1.28633,-0.85643 -1.38259,-0.62778 -1.45602,-0.376 -1.5271,-0.10307 -1.01705,0.0949 -1.04804,0.23789 -1.06105,0.38972 -1.07058,0.55309 -1.07506,0.72876 -1.07345,0.91677 -1.06417,1.11661 -1.06046,1.345 -6.12405,8.41071 -5.24304,6.72153 -2.54378,2.93892 -2.61172,2.753 -2.77915,2.65028 -3.02531,2.61321 m -17.10237,65.56395 3.49779,-2.58856 3.15151,-2.6388 2.81793,-2.68401 2.51732,-2.73877 2.25015,-2.80261 2.01651,-2.87509 1.81703,-2.95579 1.65657,-3.05303 2.94652,-6.38381 2.71905,-6.87003 2.77022,-7.43201 3.09555,-8.06546 0.58772,-1.23587 0.82869,-1.38951 2.32884,-3.22357 2.9694,-3.5447 3.36572,-3.65234 3.51086,-3.54226 3.40632,-3.21784 3.04921,-2.67776 2.47725,-1.95447 1.93114,-1.61773 1.56,-1.78773 1.16316,-1.89039 0.78333,-1.95665 0.42411,-1.98454 0.0892,-1.9748 -0.21886,-1.92971 -0.49952,-1.85259 -0.75365,-1.74518 -0.98254,-1.60873 -1.18799,-1.44304 -1.37104,-1.24756 -1.53227,-1.02017 -1.67121,-0.75882 -1.78518,-0.461 -1.8539,-0.12513 -1.29095,0.12048 -1.28696,0.29211 -1.28635,0.47248 -1.27542,0.65891 -1.25514,0.85084 -1.22715,1.04803 -1.19223,1.25099 -1.13774,1.443 -6.12695,8.41469 -5.19416,6.65887 -2.48402,2.86988 -2.54948,2.6874 -2.71125,2.58552 -2.99009,2.58279 m -10.33788,62.95107 -1.45584,-1.7387 m 8.76899,-5.63498 -1.76831,-1.41973 m 7.59324,-7.15498 -1.99321,-1.08151 m 11.8974,-22.49271 -2.11714,-0.81256 m 10.87575,-15.0443 -1.73837,-1.45624 m 8.63146,-5.89926 -1.61064,-1.59636 m 15.34913,-11.31877 -1.9314,-1.18838 m 2.5217,-11.18263 -2.08188,0.89906 m -22.89313,4.01965 1.83324,1.33483 m -10.10456,9.29981 1.71463,1.4841 m -7.50335,4.55953 1.56502,1.64111"
         inkstitch:satin_column="true"
         transform="matrix(0.264583,0,0,0.264583,52.2363,90.6339)" /><path
         id="path4121"
         style="fill:none;stroke:#000000;stroke-width:1px"
         d="m 235.58177,166.55526 1.23633,-4.9232 1.50721,-4.93053 1.55125,-4.35264 1.36173,-3.17796 0.57232,-1.35179 0.34709,-1.24384 0.16201,-1.18238 -0.005,-1.11947 -0.15684,-1.05569 -0.29434,-0.9902 -0.4193,-0.92206 -0.51669,-0.82502 -1.37155,-1.47842 -1.64018,-1.08466 -1.80938,-0.65946 -1.8807,-0.19208 -1.05999,0.12285 -1.03723,0.31296 -0.97339,0.50892 -0.89619,0.71945 -0.80326,0.95119 -0.68877,1.2075 -0.54594,1.4874 -0.37747,1.81808 -1.32546,9.04141 -0.66656,3.76963 -0.75321,3.45914 -0.905,3.30101 -1.11966,3.28946 -1.39517,3.42474 -1.73868,3.72496 -1.42312,2.54529 -1.58634,2.33059 -3.368,4.35334 m 23.8527,-16.41824 1.22467,-4.8768 1.48059,-4.84347 1.51695,-4.25636 1.34007,-3.12744 0.62128,-1.46741 0.41431,-1.48476 0.19759,-1.44202 -0.007,-1.38793 -0.19636,-1.32171 -0.36966,-1.2436 -0.5253,-1.15514 -0.67811,-1.08278 -1.64705,-1.77538 -2.01502,-1.33254 -2.23982,-0.81634 -2.3197,-0.23692 -1.43181,0.16595 -1.36957,0.41324 -1.29541,0.67728 -1.18281,0.94955 -1.03314,1.22341 -0.85283,1.4951 -0.64826,1.7662 -0.41713,2.00912 -1.32954,9.06919 -0.65524,3.70557 -0.73459,3.37366 -0.8766,3.19739 -1.08334,3.18274 -1.35643,3.32966 -1.68952,3.61964 -1.34888,2.41251 -1.50726,2.21441 -3.3328,4.30786 m 25.75175,-16.09635 -2.19942,-0.55232 m 5.22142,-9.79395 -2.13611,-0.7613 m 5.59569,-8.82471 -2.24672,-0.30785 m -2.28648,-9.291 -1.25087,1.89152 m -10.13976,-0.80493 1.73257,1.46312 m -5.01142,9.38926 2.24373,0.32893 m -3.91134,9.43463 2.2158,0.48248 m -5.08003,8.86437 2.10014,0.85555 m -6.94369,8.6051 1.87466,1.276"
         inkstitch:satin_column="true"
         transform="matrix(0.264583,0,0,0.264583,52.2363,90.6339)" /><path
         id="path6609"
         style="fill:none;stroke:#000000;stroke-width:1px"
         d="m 138.42592,229.52842 -0.94334,-5.1948 -1.10745,-4.65382 -1.27323,-4.18554 -1.4369,-3.76904 -1.59917,-3.40555 -1.76096,-3.09576 -1.92358,-2.83972 -2.08781,-2.63702 -2.25432,-2.4865 -2.41737,-2.38194 -5.36235,-4.68494 -6.02367,-4.87481 -6.71376,-5.49769 -1.92222,-2.04271 -2.071819,-2.87782 -2.119999,-3.44017 -2.084865,-3.77138 -3.648015,-7.50015 -1.377064,-3.262 -0.92004,-2.54575 -0.728263,-1.84379 -0.881838,-1.49743 -1.025014,-1.22147 -1.141863,-0.96551 -1.235672,-0.72663 -1.306745,-0.50117 -1.353346,-0.28592 -1.350963,-0.0782 -2.273966,0.30471 -2.109792,0.81231 -0.91084,0.55604 -0.840606,0.67286 -0.731104,0.76697 -0.607677,0.85369 -0.471717,0.93476 -0.32313,1.01305 -0.161016,1.09155 0.01781,1.17195 0.217003,1.25393 0.438675,1.33512 0.684223,1.41239 0.967533,1.50645 6.027628,8.46318 2.415398,3.61207 2.099267,3.4242 1.850194,3.4125 1.665421,3.57138 1.546415,3.8994 1.500315,4.41229 0.755854,2.84359 0.505571,2.80612 0.612656,5.49653 0.697648,5.61085 0.594612,2.89203 0.87832,3.01754 1.24908,3.17143 1.711035,3.36053 2.265486,3.58294 2.91292,3.83556 3.65223,4.11655 4.48263,4.42437 5.40312,4.75897 5.7752,4.61068 2.7752,-2.71531 1.61736,-1.34992 1.72501,-1.24155 4.19399,-2.43821 6.08373,-2.98605 m 1.03931,-6.3479 -0.95246,-5.245 -1.13275,-4.76018 -1.30917,-4.30366 -1.4853,-3.89596 -1.66063,-3.53645 -1.83404,-3.22424 -2.00442,-2.95908 -2.17059,-2.74158 -2.33248,-2.5727 -2.49563,-2.45906 -5.43185,-4.74566 -6.04713,-4.89379 -6.61464,-5.41651 -1.75318,-1.86309 -1.95978,-2.72218 -2.061005,-3.34443 -2.039335,-3.68902 -3.604385,-7.41045 -1.338136,-3.1698 -0.91256,-2.52505 -0.792737,-2.00701 -1.036562,-1.76017 -1.229986,-1.46573 -1.388537,-1.17409 -1.509728,-0.88777 -1.592655,-0.61083 -1.639054,-0.34628 -1.673837,-0.0968 -2.673834,0.35829 -2.477008,0.95369 -1.15936,0.70776 -1.033594,0.82734 -0.912096,0.95683 -0.769123,1.08051 -0.603883,1.19664 -0.41547,1.30255 -0.205784,1.39505 0.02239,1.47285 0.265797,1.53587 0.521325,1.58668 0.788777,1.62821 1.053267,1.63995 6.037772,8.47742 2.379202,3.55793 2.053533,3.3496 1.799006,3.3181 1.617779,3.46922 1.508585,3.804 1.464485,4.30691 0.719546,2.70701 0.480629,2.66768 0.606944,5.44527 0.708352,5.69695 0.624988,3.03977 0.92388,3.17406 1.31412,3.33657 1.791965,3.51947 2.355718,3.72566 3.005479,3.95744 3.74157,4.21725 4.56537,4.50603 5.47768,4.82463 7.117,5.68192 3.9164,-3.83189 1.50804,-1.25868 1.59539,-1.14825 4.05701,-2.35859 6.02407,-2.95675 m -5.06642,-27.53151 -2.05267,0.96389 m -6.36174,-13.67955 -1.68003,1.52316 m -5.66892,-8.4659 -1.49201,1.70775 m -13.73997,-14.43911 -1.65149,1.55406 m -7.162813,-16.17905 -2.039286,0.9919 m -19.576419,-16.23022 1.417115,1.7704 m 3.438605,21.19645 1.850632,-1.31061 m 3.386263,9.64909 1.993556,-1.08087 m 5.359922,24.28171 2.25376,-0.25121 m 0.842429,15.15161 2.109964,-0.83101 m 4.313872,11.84025 1.80595,-1.37153 m 6.67918,10.72598 1.593,-1.61397"
         inkstitch:satin_column="true"
         transform="matrix(0.264583,0,0,0.264583,52.2363,90.6339)" /><path
         id="path1026"
         style="fill:none;stroke:#000000;stroke-width:1px"
         d="m 206.76084,180.28358 3.0144,-4.83594 2.48983,-4.49992 2.01458,-4.22186 1.57808,-3.98507 1.18084,-3.79045 0.82255,-3.63949 0.50251,-3.53334 0.21965,-3.47273 -0.0273,-3.45691 -0.23833,-3.47697 -0.97374,-7.23755 -1.39032,-7.83043 -1.51993,-8.7981 -0.11558,-2.80274 0.3181,-3.5315 0.64994,-3.98829 0.89315,-4.21543 2.15298,-8.057203 1.09488,-3.367184 0.97383,-2.533305 0.55014,-1.493531 0.32547,-1.38118 0.13527,-1.309845 -0.0377,-1.23734 -0.19497,-1.163948 -0.33795,-1.089381 -0.46826,-1.012728 -0.57097,-0.908968 -1.49354,-1.626024 -1.78443,-1.216186 -1.97791,-0.780188 -2.06689,-0.305394 -1.36138,0.08368 -1.32012,0.331288 -1.23249,0.587298 -1.12098,0.859008 -0.98554,1.155284 -0.81889,1.482524 -0.61167,1.84038 -0.3637,2.257248 -0.98431,10.335367 -0.53914,4.31139 -0.65504,3.962578 -0.83576,3.79054 -1.07934,3.78971 -1.38414,3.95976 -1.75476,4.31687 -1.25958,2.58813 -1.41821,2.40398 -3.05803,4.46265 -3.084,4.57246 -1.42657,2.4885 -1.30646,2.74386 -1.14226,3.07218 -0.93608,3.48149 -0.68513,3.97072 -0.38756,4.5388 -0.0426,5.18342 0.35028,5.90318 0.79061,6.69677 1.28128,7.58377 m 23.25698,3.04593 3.0404,-4.87766 2.54117,-4.59268 2.06682,-4.33134 1.62792,-4.11093 1.22436,-3.93015 0.85605,-3.78771 0.52369,-3.68226 0.22855,-3.61347 -0.0283,-3.58129 -0.24647,-3.59563 -0.98726,-7.33805 -1.39648,-7.86517 -1.49827,-8.6727 -0.10542,-2.55606 0.3009,-3.3405 0.63186,-3.87731 0.87365,-4.12337 2.12722,-7.960801 1.06392,-3.272016 0.96077,-2.499295 0.59446,-1.613869 0.37973,-1.61142 0.16073,-1.556355 -0.0455,-1.49166 -0.23723,-1.416252 -0.41285,-1.330819 -0.57154,-1.236072 -0.72703,-1.157432 -1.75766,-1.913576 -2.13897,-1.457814 -2.37649,-0.937412 -2.47711,-0.366006 -1.73282,0.106516 -1.67248,0.419712 -1.58171,0.753702 -1.43702,1.101192 -1.23926,1.452716 -0.99551,1.802276 -0.71473,2.15042 -0.3977,2.468352 -0.98749,10.368633 -0.53106,4.24681 -0.64076,3.87623 -0.81264,3.68566 -1.04846,3.68129 -1.35026,3.86284 -1.71324,4.21473 -1.19882,2.46327 -1.34719,2.28362 -3.02577,4.41555 -3.1264,4.63534 -1.49663,2.6107 -1.37334,2.88434 -1.20214,3.23322 -0.98152,3.65051 -0.71367,4.13608 -0.40064,4.692 -0.0438,5.31998 0.35732,6.02182 0.80259,6.79823 1.28912,7.63023 m 28.89558,-3.0843 -1.98423,-1.09789 m 7.02994,-9.33615 -2.10842,-0.83493 m 5.10827,-10.46709 -2.24513,-0.3193 m 1.64119,-18.23812 -2.24746,0.30238 m 1.91894,-35.960155 -2.19085,-0.585421 m -3.35698,-25.366862 -0.33147,2.24336 m -11.70741,17.829488 2.2575,0.214999 m -4.03338,10.956231 2.21452,0.48827 m -12.37501,21.90328 1.88006,1.26805 m -9.26025,13.2838 2.18994,0.58882 m -3.73564,8.63024 2.25949,0.19293 m -2.19193,11.4143 2.26373,-0.13432"
         inkstitch:satin_column="true"
         transform="matrix(0.264583,0,0,0.264583,52.2363,90.6339)" /><path
         id="path2882"
         style="fill:none;stroke:#000000;stroke-width:1px"
         d="m 177.44904,163.69695 -0.23229,-1.39003 -0.0953,-2.31002 0.26139,-2.90297 0.53244,-3.26899 0.73145,-3.45284 1.76398,-6.60288 1.68657,-4.80937 0.45029,-1.22251 0.26097,-1.10738 0.10817,-1.04773 -0.0292,-0.95609 -0.43236,-1.82751 -0.83954,-1.54952 -1.17533,-1.27957 -1.42554,-0.9715 -1.57962,-0.62309 -1.65129,-0.24399 -1.07828,0.0663 -1.04641,0.26259 -0.97489,0.46459 -0.8869,0.67962 -0.78188,0.91653 -0.65271,1.18209 -0.4903,1.47533 -0.29401,1.82512 -0.79449,8.33128 -0.94803,6.63918 m 11.47697,13.41188 -0.21291,-1.27397 -0.0853,-2.06858 0.24421,-2.71203 0.51436,-3.15801 0.71195,-3.36076 1.73262,-6.48552 1.65783,-4.72743 0.48491,-1.31649 0.31523,-1.33762 0.13363,-1.29427 -0.0388,-1.27351 -0.53424,-2.25809 -1.07066,-1.97608 -1.48107,-1.61243 -1.78006,-1.2131 -1.97818,-0.78031 -2.06151,-0.30461 -1.44972,0.0891 -1.39879,0.35101 -1.32411,0.63101 -1.2029,0.92178 -1.03572,1.21407 -0.82929,1.50191 -0.5933,1.78527 -0.32799,2.03608 -0.79611,8.34812 -0.94177,6.59542 m 13.29716,11.75486 -2.26579,0.0935 m 3.23238,-8.621 -2.21848,-0.46997 m 5.26805,-10.59069 -2.13995,-0.75045 m 3.57364,-7.81305 -2.2068,0.52209 m -5.94351,-7.68708 -0.33148,2.24336 m -7.52694,2.01935 1.98519,1.09615 m -3.63236,8.05093 2.25747,0.21528"
         inkstitch:satin_column="true"
         transform="matrix(0.264583,0,0,0.264583,52.2363,90.6339)" /><path
         id="path4358"
         style="fill:none;stroke:#000000;stroke-width:1px"
         d="m 94.097854,215.55824 -5.714908,-2.68952 -5.54236,-2.68326 -2.052816,-1.28855 -2.149299,-1.74278 -2.157278,-2.07775 -2.095715,-2.31411 -1.958838,-2.45097 -1.744813,-2.48901 -1.452979,-2.43186 -1.05266,-2.22453 -0.870112,-1.81844 -0.987491,-1.46316 -1.10531,-1.1848 -1.20043,-0.92765 -1.27499,-0.68927 -1.329869,-0.46611 -1.364055,-0.25568 -1.376302,-0.0565 -1.297656,0.12191 -1.262557,0.28344 -1.20187,0.43349 -1.117215,0.57115 -1.008903,0.695 -0.878487,0.80462 -0.72777,0.89917 -0.559599,0.9806 -0.376097,1.05171 -0.177578,1.11842 0.03995,1.18542 0.2829,1.25503 0.55704,1.32325 0.864891,1.38449 1.205187,1.43335 1.596015,1.48672 4.90944,4.19406 2.0887,1.95916 1.896246,1.99878 1.751013,2.14442 1.649557,2.38973 1.594794,2.73364 1.596884,3.19132 0.850325,2.1045 0.633885,2.099 0.934256,4.11754 1.073987,4.19396 0.779071,2.13243 1.057744,2.21438 1.417073,2.30998 1.863712,2.42722 2.397989,2.56211 3.01912,2.71151 3.725234,2.87345 4.514872,3.0473 5.387094,3.23313 5.428864,2.93739 1.31507,-3.24073 1.09002,-2.3474 1.39722,-2.39425 1.8162,-2.3458 2.32646,-2.1834 1.41474,-1.02429 1.56619,-0.93946 1.74437,-0.85499 1.90022,-0.74694 m -22.843682,-28.98146 -5.705492,-2.68508 -5.43964,-2.63354 -1.868184,-1.17265 -1.997901,-1.62002 -2.052722,-1.97705 -2.013285,-2.22309 -1.885362,-2.35903 -1.671187,-2.38399 -1.370821,-2.29434 -1.01534,-2.14567 -0.932088,-1.94796 -1.148709,-1.70204 -1.31149,-1.4058 -1.44357,-1.11555 -1.54221,-0.83373 -1.607131,-0.56329 -1.639545,-0.30732 -1.640098,-0.0673 -1.544344,0.14509 -1.495643,0.33576 -1.42593,0.51431 -1.333785,0.68185 -1.218497,0.8394 -1.078913,0.98818 -0.91283,1.12783 -0.717801,1.2578 -0.491303,1.37389 -0.233622,1.47138 0.05205,1.54458 0.3589,1.59217 0.68076,1.61715 1.015709,1.62591 1.365013,1.62345 1.709985,1.59288 4.90696,4.19194 2.0165,1.89144 1.809954,1.90782 1.658387,2.03098 1.565443,2.26787 1.528006,2.61916 1.535916,3.06948 0.789875,1.9549 0.589915,1.9534 0.925344,4.07826 1.103813,4.31044 0.842329,2.30557 1.139256,2.38502 1.520527,2.47862 1.980088,2.57878 2.517011,2.68929 3.13268,2.81349 3.828566,2.95315 4.606128,3.1089 5.466306,3.28067 7.322534,3.96201 2.09133,-5.15367 1.03318,-2.225 1.29038,-2.21115 1.6488,-2.1296 2.12954,-1.9986 1.25126,-0.90591 1.42761,-0.85634 1.60363,-0.78601 1.82878,-0.71886 M 91.8257,212.1915 l -0.96563,2.05185 m -12.102317,-9.86044 -1.573129,1.63334 m -3.90976,-8.11634 -1.856908,1.3017 m -11.600164,-14.93059 -0.09299,2.2658 m -2.99078,19.34729 1.472967,-1.72421 m 4.563468,7.71705 1.756524,-1.43428 m 2.775164,8.5694 2.027997,-1.01478 m 1.141922,10.67477 2.204009,-0.53374 m 1.515355,10.63643 1.932982,-1.1858 m 5.039115,9.36594 1.515261,-1.68717 m 6.926468,8.1176 1.268659,-1.87964 m 18.355727,-0.0936 -1.7931,-1.38828"
         inkstitch:satin_column="true"
         transform="matrix(0.264583,0,0,0.264583,52.2363,90.6339)" /><path
         id="path2812"
         style="fill:none;stroke:#000000;stroke-width:1px"
         d="m 182.17491,172.72837 -1.95225,-3.9793 -1.99765,-3.60646 -2.06532,-3.28918 -2.14628,-3.00901 -2.24136,-2.76608 -2.35105,-2.56058 -2.47569,-2.39222 -2.61555,-2.26035 -2.77053,-2.16458 -2.93493,-2.10047 -6.45008,-4.17106 -15.53515,-9.16332 -1.4546,-0.98616 -1.59277,-1.31344 -3.40766,-3.35402 -3.62774,-4.1225 -3.65468,-4.57177 -3.49169,-4.7094 -3.1356,-4.53349 -2.58724,-4.04722 -1.8231,-3.21281 -1.17102,-1.98384 -1.27186,-1.633331 -1.37533,-1.342282 -1.45912,-1.068969 -1.52494,-0.81257 -1.57331,-0.571028 -1.60398,-0.342556 -1.61324,-0.125338 -1.770872,0.09921 -1.729792,0.333223 -1.662368,0.551849 -1.564862,0.753884 -1.437642,0.938254 -1.281126,1.104134 -1.096647,1.250895 -0.886186,1.379103 -0.651547,1.490122 -0.393511,1.58759 -0.111612,1.67535 0.198222,1.7566 0.540635,1.83166 0.920076,1.89742 1.337293,1.9492 1.811971,2.00587 5.349832,5.33077 4.576126,4.75508 3.94837,4.36058 3.48609,4.16733 3.18823,4.17306 3.05471,4.37643 3.08693,4.778 3.29021,5.38578 1.96618,3.43741 1.71987,3.29088 2.87391,6.15248 2.47235,5.71903 2.47345,5.41934 1.35517,2.6279 1.50704,2.61138 1.70745,2.61036 1.95958,2.63 2.26379,2.66995 2.62043,2.7292 3.02955,2.8069 3.50792,2.9168 m 31.94108,-24.19203 -1.97295,-4.0215 -2.04555,-3.69294 -2.12248,-3.38022 -2.21232,-3.10159 -2.31464,-2.85652 -2.42875,-2.64522 -2.55411,-2.46798 -2.69065,-2.32525 -2.83867,-2.21782 -3.00347,-2.14953 -6.52012,-4.21634 -15.51745,-9.15288 -1.332,-0.90304 -1.46023,-1.20416 -3.30014,-3.24818 -3.55346,-4.0381 -3.60532,-4.51003 -3.45271,-4.6568 -3.0984,-4.47971 -2.54196,-3.97638 -1.8065,-3.183591 -1.24098,-2.10236 -1.42554,-1.830669 -1.56287,-1.525318 -1.67568,-1.227631 -1.76226,-0.93903 -1.82169,-0.661172 -1.85442,-0.396044 -1.86456,-0.144862 -2.023928,0.113389 -1.975608,0.380577 -1.894632,0.628951 -1.784538,0.859716 -1.645558,1.073946 -1.476674,1.272666 -1.276553,1.456105 -1.043614,1.624097 -0.776053,1.774877 -0.472289,1.905413 -0.133988,2.01125 0.235778,2.0894 0.631565,2.13974 1.049924,2.16518 1.488907,2.1702 1.929829,2.13633 5.370968,5.35183 4.542474,4.72012 3.90423,4.31182 3.43551,4.10687 3.13817,4.10754 3.01209,4.31537 3.05567,4.7296 3.26359,5.34222 1.93482,3.38259 1.68373,3.22172 2.84449,6.08952 2.46905,5.71137 2.50015,5.47786 1.39643,2.7079 1.55576,2.69582 1.76795,2.70284 2.02962,2.724 2.34001,2.75985 2.69917,2.8112 3.10725,2.8789 3.54688,2.9492 m 28.47407,-34.76082 -1.9205,1.20591 m -2.52496,-7.53367 -1.7619,1.42767 m -3.45124,-7.1404 -1.57579,1.63078 m -6.35582,-8.19275 -1.31978,1.8441 m -5.0509,-6.08885 -1.23142,1.90425 m -5.30727,-5.8729 -1.15212,1.95325 m -21.79391,-20.76502 -1.77131,1.41598 m -4.21281,-9.49893 -1.86507,1.28998 m -18.263153,-19.871229 0.126848,2.264167 m -9.997449,1.729514 1.480463,1.71778 m -5.564014,8.305678 2.253414,-0.25428 m 9.676067,16.97824 1.63397,-1.57247 m 6.863764,10.86224 1.73937,-1.45503 m 4.41462,9.38129 1.85953,-1.29794 m 2.35388,7.57713 1.90477,-1.23062 m 7.86258,18.79712 2.05461,-0.95973 m 9.61993,23.63934 1.81846,-1.35491 m 3.22626,7.22144 1.63578,-1.57059"
         inkstitch:satin_column="true"
         transform="matrix(0.264583,0,0,0.264583,52.2363,90.6339)" /><path
         id="path3956"
         style="fill:none;stroke:#000000;stroke-width:1px"
         d="m 239.48328,249.36058 1.22367,0.57035 5.61615,-5.98607 5.17896,-6.09516 4.35676,-5.77275 3.60486,-5.50405 2.92421,-5.28984 2.31503,-5.1318 1.77719,-5.0316 1.30955,-4.99012 0.91079,-5.00794 0.57961,-5.084 0.31558,-5.2167 0.1185,-5.402 -0.0825,-11.59458 -0.0511,-12.99791 0.15537,-1.79371 0.41244,-2.02071 1.44805,-4.4575 2.13516,-4.94383 2.62535,-5.19291 2.92687,-5.21319 3.03889,-4.99906 2.96166,-4.54888 2.67321,-3.83054 1.41612,-2.23215 0.98549,-2.15216 0.60838,-2.09131 0.26365,-2.02023 -0.0512,-1.94058 -0.33923,-1.85239 -0.60259,-1.75378 -0.84221,-1.64243 -1.05794,-1.51618 -1.24877,-1.37376 -1.41335,-1.21424 -1.55092,-1.03806 -1.66039,-0.84537 -1.74151,-0.63702 -1.79419,-0.41393 -1.81221,-0.17641 -2.18394,0.11878 -2.13225,0.50037 -2.04846,0.90676 -1.92905,1.34303 -1.77239,1.81553 -1.57297,2.32764 -1.32452,2.8786 -1.03248,3.49688 -1.78273,7.50327 -1.71709,6.36374 -1.74988,5.48605 -1.8877,4.89832 -2.12757,4.59627 -2.46707,4.57942 -2.90597,4.85244 -3.46047,5.44047 -2.75813,3.8004 -2.98554,3.42592 -6.26279,6.38512 -3.13447,3.33809 -3.04099,3.67756 -2.89293,4.21778 -1.35831,2.3511 -1.31242,2.58847 m 17.40837,63.25533 2.46393,1.14845 6.58425,-7.01793 5.24444,-6.17224 4.42764,-5.86665 3.67814,-5.61595 2.99559,-5.41896 2.37937,-5.2744 1.82981,-5.1806 1.34785,-5.13608 0.93501,-5.14106 0.59239,-5.1962 0.32082,-5.3031 0.1199,-5.4658 -0.0827,-11.61902 -0.0507,-12.90949 0.13863,-1.60029 0.36936,-1.80969 1.38775,-4.2719 2.07744,-4.81017 2.58105,-5.10529 2.89073,-5.14881 3.00671,-4.94614 2.92914,-4.49892 2.67959,-3.83966 1.50728,-2.37585 1.09671,-2.39504 0.68762,-2.36369 0.30155,-2.31077 -0.059,-2.23482 -0.39117,-2.13601 -0.69261,-2.01582 -0.96239,-1.87677 -1.20086,-1.72102 -1.40903,-1.55004 -1.58785,-1.36416 -1.73868,-1.16374 -1.86201,-0.94803 -1.95849,-0.716379 -2.02801,-0.467872 -2.07699,-0.202188 -2.49366,0.135623 -2.46655,0.578823 -2.37574,1.051643 -2.22515,1.54917 -2.01621,2.06527 -1.75443,2.59616 -1.44608,3.1428 -1.08552,3.67652 -1.78787,7.52493 -1.69851,6.29486 -1.71992,5.39215 -1.8453,4.78828 -2.07743,4.48793 -2.41953,4.49118 -2.87083,4.79376 -3.41573,5.37013 -2.67467,3.6854 -2.89366,3.32048 -6.23821,6.36008 -3.18933,3.39651 -3.13301,3.78884 -2.98227,4.34802 -1.42069,2.4591 -1.33578,2.63453 m 32.24077,53.70845 -1.72813,-1.46836 m 8.62769,-7.71854 -1.89705,-1.24247 m 6.35278,-6.10859 -1.98466,-1.09712 m 6.61336,-9.45718 -2.13826,-0.75525 m 6.03312,-38.96544 -2.2677,0.01 m 12.39265,-36.86048 -1.93777,-1.17795 m 12.89154,-25.01917 -2.14465,0.73688 m -5.08033,-10.08748 -1.26136,1.88454 m -25.33373,19.27014 2.18941,0.59076 m -6.42572,12.82213 2.11602,0.81547 m -8.36064,11.69364 1.94552,1.16511 m -17.26408,18.81663 1.61895,1.58794 m -10.98618,9.30712 1.8701,1.28268"
         inkstitch:satin_column="true"
         transform="matrix(0.264583,0,0,0.264583,52.2363,90.6339)" /></g>
  </g>
  </svg>
