<?xml version="1.0" encoding="UTF-8" standalone="no"?>
<!-- Created with Inkscape (http://www.inkscape.org/) -->

<svg
   width="70mm"
   height="70mm"
   viewBox="0 0 70 70"
   version="1.1"
   id="svg1"
   xml:space="preserve"
   inkscape:version="1.3.2 (091e20e, 2023-11-25)"
   sodipodi:docname="Hobel.svg"
   xmlns:inkscape="http://www.inkscape.org/namespaces/inkscape"
   xmlns:sodipodi="http://sodipodi.sourceforge.net/DTD/sodipodi-0.dtd"
   xmlns="http://www.w3.org/2000/svg"
   xmlns:svg="http://www.w3.org/2000/svg"
   xmlns:inkstitch="http://inkstitch.org/namespace"><sodipodi:namedview
     id="namedview1"
     pagecolor="#505050"
     bordercolor="#eeeeee"
     borderopacity="1"
     inkscape:showpageshadow="0"
     inkscape:pageopacity="0"
     inkscape:pagecheckerboard="0"
     inkscape:deskcolor="#505050"
     inkscape:document-units="mm"
     inkscape:zoom="2.8959333"
     inkscape:cx="124.83022"
     inkscape:cy="137.26145"
     inkscape:window-width="1680"
     inkscape:window-height="924"
     inkscape:window-x="85"
     inkscape:window-y="1105"
     inkscape:window-maximized="0"
     inkscape:current-layer="layer1" /><metadata
     id="metadata649"><inkstitch:min_stitch_len_mm>0</inkstitch:min_stitch_len_mm><inkstitch:collapse_len_mm>3</inkstitch:collapse_len_mm><inkstitch:inkstitch_svg_version>1</inkstitch:inkstitch_svg_version></metadata><defs
     id="defs1"><symbol
   id="inkstitch_ignore_layer">
      <title
   id="title9694">Ignore entire layer when generating stitch plan</title>
      <path
   inkscape:connector-curvature="0"
   style="opacity:1;vector-effect:none;fill:#fafafa;fill-opacity:1;fill-rule:evenodd;stroke:#ff0000;stroke-width:1.06501234;stroke-linecap:round;stroke-linejoin:miter;stroke-miterlimit:4;stroke-dasharray:3.19503705, 3.19503705;stroke-dashoffset:0;stroke-opacity:1"
   d="M 9.2465269,-4.9265995e-6 C 9.246525,5.1067241 5.1067028,9.2465451 -2.615882e-5,9.2465451 -5.1067554,9.2465451 -9.2465782,5.1067241 -9.2465801,-4.9265995e-6 -9.24658,-2.4523429 -8.2723922,-4.8042399 -6.538327,-6.5383059 c 1.7340653,-1.734065 4.0859624,-2.708252 6.53830084118,-2.708252 5.10673015882,0 9.24655285882,4.139823 9.24655305882,9.2465529734005 0,0 0,0 0,0"
   id="inkstitch_path25368-7" />
      <path
   sodipodi:nodetypes="ccccc"
   inkscape:connector-curvature="0"
   style="color:#000000;fill:#d5d5d5;fill-opacity:1;fill-rule:evenodd;stroke:#5a5a5a;stroke-width:0.63330007;stroke-linecap:square;stroke-linejoin:round;stroke-miterlimit:0;stroke-opacity:1"
   d="M 4,4.452769 1.46667,1.286102 H -5.5 l 2.53333,3.166667 z"
   id="use5800" />
      <path
   sodipodi:nodetypes="ccccc"
   inkscape:connector-curvature="0"
   style="color:#000000;opacity:0.5;fill:#d5d5d5;fill-opacity:1;fill-rule:evenodd;stroke:#858585;stroke-width:0.63339424;stroke-linecap:square;stroke-linejoin:round;stroke-miterlimit:0;stroke-opacity:1"
   d="M 4,2.552769 1.46667,-0.613898 H -5.5 l 2.53333,3.166667 z"
   id="use5864" />
      <g
   id="g5771">
        <path
   sodipodi:nodetypes="ccccccccc"
   inkscape:connector-curvature="0"
   style="fill:#aa0000;fill-rule:evenodd;stroke:#aa0000;stroke-width:1px"
   d="m -1.0666699,-5.0472339 h 4.4333333 l 0.6333333,0.6333333 V 0.01943274 L 3.3666634,0.65276607 H -1.0666699 L -1.7000032,0.01943274 V -4.4139006 Z"
   id="path8011" />
        <path
   inkscape:connector-curvature="0"
   id="path8023"
   d="m -0.43333658,-3.8755672 c 0,0 3.16666668,3.16666661 3.16666668,3.16666661"
   style="fill:none;stroke:#ffffff;stroke-width:1.70000005" />
        <path
   inkscape:connector-curvature="0"
   id="path8025"
   d="m 2.7333301,-3.8755672 c 0,0 -3.16666668,3.16666661 -3.16666668,3.16666661"
   style="fill:none;stroke:#ffffff;stroke-width:1.79999995;stroke-linejoin:round" />
      </g>
    </symbol>
    </defs><g
     inkscape:label="Ebene 1"
     inkscape:groupmode="layer"
     id="layer1"><g
       id="g1"><g
         id="g647"
         style="display:inline"><path
           style="fill:#f5af68"
           d="m 46.685833,33.66891 c 6.091867,-8.19503 9.640124,-12.960109 9.65102,-12.960693 0.01346,-7.22e-4 1.192393,1.244554 1.3051,1.378546 l 0.05729,0.0681 -1.022515,1.340598 c -0.562383,0.737329 -2.465362,3.232595 -4.228841,5.545035 -1.763479,2.31244 -3.217287,4.216295 -3.230685,4.230788 -0.0134,0.01449 -0.648507,0.217152 -1.411355,0.450353 -0.762848,0.233201 -1.413141,0.432718 -1.445095,0.443372 -0.04686,0.01562 0.016,-0.08031 0.325086,-0.496104 z"
           id="path12"
           inkstitch:fill_method="auto_fill"
           inkstitch:angle="53" /><path
           style="fill:#f5af68"
           d="m 37.475783,36.73875 c 0.971014,-1.313366 4.005697,-5.390811 4.039055,-5.426932 0.08514,-0.09219 0.02879,-0.26611 -0.08655,-0.267164 -0.06703,-6.13e-4 -1.81456,-0.894053 -1.81456,-0.927708 0,-0.03289 8.795883,-12.073323 8.820649,-12.074332 0.02003,-8.17e-4 0.811344,0.259759 5.86779,1.932228 1.010203,0.334134 1.836489,0.613726 1.836191,0.621315 -6.21e-4,0.01582 -10.12429,13.62633 -10.16779,13.66983 -0.01572,0.01572 -1.954701,0.61917 -4.30884,1.340992 -2.354139,0.721822 -4.292239,1.316675 -4.306888,1.321895 -0.01465,0.0052 0.03977,-0.08033 0.120945,-0.190124 z"
           id="path11"
           inkstitch:fill_method="auto_fill"
           inkstitch:angle="53" /><path
           style="fill:#f5af68"
           d="m 24.482726,42.115573 c -0.653556,-0.428885 -1.200893,-0.791898 -1.216303,-0.806694 -0.02276,-0.02186 -0.01433,-0.04691 0.04497,-0.133563 0.09674,-0.141349 0.329119,-0.305798 0.592934,-0.419597 0.609756,-0.263025 0.77706,-0.379609 1.023731,-0.713374 0.638645,-0.864137 0.486624,-1.785694 -0.497452,-3.015581 -0.30546,-0.381759 -0.61698,-0.720877 -1.443379,-1.571246 -1.014601,-1.04403 -1.184463,-1.230812 -1.137795,-1.25113 0.01997,-0.0087 1.074951,-0.250755 2.344409,-0.537916 1.269458,-0.28716 2.668951,-0.603775 3.109983,-0.703589 5.694132,-1.288693 7.578953,-1.715156 9.483727,-2.145809 1.234837,-0.279185 2.326268,-0.526496 2.425401,-0.54958 0.173263,-0.04034 0.181574,-0.04046 0.214652,-0.0031 0.01893,0.02139 0.412742,0.232553 0.875147,0.469243 0.614289,0.314436 0.830269,0.434573 0.801877,0.44604 -0.02137,0.0086 -0.80931,0.201389 -1.750974,0.428349 -7.384551,1.779826 -9.400463,2.272427 -9.433062,2.305026 -0.02718,0.02718 -0.0307,0.04841 -0.01497,0.09036 0.02612,0.06967 5.439027,3.766253 5.491339,3.750148 5.2143,-1.605246 13.873991,-4.254424 15.302172,-4.681249 0.801655,-0.25815 0.733672,-0.206817 1.52749,-0.488433 0.02458,-0.01544 0.882803,-1.204255 1.907167,-2.641803 1.024365,-1.437549 2.250363,-3.121097 2.250363,-3.121097 0.08288,0.01835 6.944794,3.455941 6.922711,3.468059 -0.02083,0.01143 -31.160643,10.442625 -36.516035,12.232118 l -1.119819,0.37421 z"
           id="path10"
           inkstitch:angle="108"
           inkstitch:fill_method="auto_fill"
           sodipodi:nodetypes="sssssssssssssscssscsssssccs" /><path
           style="fill:#f5af68"
           d="m 24.814706,53.42596 c -0.0076,-0.133351 -0.02577,-0.447259 -0.04035,-0.697575 -0.04335,-0.744163 -0.0359,-3.377629 0.01154,-4.085239 0.136911,-2.041739 0.394203,-3.643674 0.837176,-5.212358 l 0.09184,-0.325243 18.869196,-6.317829 18.869196,-6.317829 0.0068,1.474215 c 0.0038,0.810818 1.31e-4,2.878962 -0.0081,4.595875 l -0.01489,3.121661 -19.13947,6.943631 C 33.771026,50.424265 25.084077,53.57579 24.993403,53.608657 l -0.164861,0.05976 z m 5.13506,-5.130785 c 0.407277,-0.0633 0.833672,-0.29219 1.046957,-0.562016 0.138751,-0.175532 0.180866,-0.313902 0.191371,-0.62875 0.008,-0.238514 0.0024,-0.296681 -0.04654,-0.486491 -0.08386,-0.32529 -0.205752,-0.552832 -0.402087,-0.750578 -0.211569,-0.213089 -0.320803,-0.266589 -0.564053,-0.276258 -0.32579,-0.01295 -0.599241,0.119925 -0.931189,0.452483 -0.47035,0.471212 -0.727543,1.130901 -0.626525,1.607004 0.111154,0.52387 0.596796,0.758879 1.332065,0.644606 z m 28.688033,-9.686408 c 0.177806,-0.06679 0.413525,-0.230926 0.581184,-0.404678 0.356105,-0.369045 0.544707,-0.830147 0.475299,-1.162028 -0.07674,-0.366936 -0.413349,-0.780324 -0.789515,-0.969595 -0.188002,-0.09459 -0.197181,-0.09681 -0.400938,-0.09681 -0.259486,0 -0.366338,0.04565 -0.55529,0.237251 -0.517309,0.524554 -0.599423,1.724138 -0.151927,2.219463 0.211286,0.233869 0.51735,0.29805 0.841187,0.176398 z"
           id="path9"
           inkstitch:angle="18" /><path
           style="fill:#f5af68"
           d="m 18.244783,54.319792 c -1.60764,-0.08187 -3.077788,-0.616812 -4.174122,-1.518841 -0.427672,-0.351875 -0.936487,-0.933177 -1.189312,-1.358746 l -0.09149,-0.154001 -0.0051,-0.829483 c -0.0052,-0.849947 -0.01947,-1.082749 -0.111218,-1.812945 -0.02902,-0.230989 -0.05277,-0.504061 -0.05277,-0.606826 -8e-6,-0.367517 -0.129201,-0.981995 -0.401529,-1.909797 -0.07872,-0.268196 -0.191943,-0.66805 -0.251606,-0.888567 -0.05966,-0.220516 -0.243481,-0.88369 -0.408484,-1.47372 -0.165004,-0.59003 -0.334324,-1.199565 -0.376267,-1.354522 -0.485503,-1.793674 -0.728244,-3.083536 -0.817747,-4.345307 -0.04143,-0.584108 -0.0044,-2.604167 0.06758,-3.684301 0.216605,-3.251335 0.931974,-7.320069 1.896034,-10.783885 0.996929,-3.581911 2.179612,-6.358948 3.399368,-7.981993 l 0.15294,-0.203507 0.03782,0.19267 c 0.09735,0.495993 0.345909,0.936046 0.785615,1.390882 0.429822,0.444612 0.85372,0.714347 1.318121,0.838746 0.08046,0.02155 0.146288,0.04596 0.146288,0.05425 0,0.0083 -0.02007,0.07267 -0.0446,0.143072 -0.02453,0.07041 -0.11783,0.366946 -0.207334,0.658981 -1.570794,5.125233 -1.943135,11.391879 -1.012771,17.045308 0.06339,0.385198 0.0893,0.450438 0.17484,0.440173 0.105336,-0.01264 0.106432,-0.04379 0.02018,-0.573461 -0.54165,-3.326379 -0.63116,-6.887156 -0.261691,-10.410313 0.253506,-2.417359 0.728621,-4.724247 1.411591,-6.853882 l 0.144219,-0.449702 0.07741,-1.27e-4 c 0.294279,-4.86e-4 0.846969,-0.15105 1.195974,-0.325807 0.440834,-0.22074 0.880309,-0.565396 1.150326,-0.902138 l 0.05501,-0.0686 0.01161,0.252817 c 0.015,0.326689 -0.01708,1.342686 -0.06033,1.910752 -0.07361,0.966783 -0.151995,1.613103 -0.454741,3.749317 -0.447761,3.159462 -0.531011,4.026213 -0.530811,5.52645 1.87e-4,1.399586 0.126532,2.488492 0.426232,3.673465 0.216849,0.85739 0.393232,1.294459 0.717178,1.777133 0.371306,0.553239 0.717021,0.948568 1.855797,2.122121 0.463607,0.477765 0.950045,0.990571 1.080975,1.139568 0.774805,0.881727 1.13686,1.533988 1.178704,2.123495 0.03252,0.458185 -0.164615,0.913138 -0.560132,1.292665 -0.146204,0.140294 -0.264935,0.208676 -0.614991,0.354199 -0.461299,0.191768 -0.710109,0.381836 -0.851936,0.650802 -0.108515,0.205791 -0.296965,1.062645 -0.413246,1.878973 -0.180215,1.265154 -0.2305,2.35685 -0.207587,4.506711 0.03357,3.149775 0.01368,4.008092 -0.120465,5.198189 -0.02418,0.214557 -0.05804,0.477876 -0.07524,0.585154 -0.0172,0.107278 -0.03131,0.202167 -0.03136,0.210865 -1.24e-4,0.02252 -0.135042,0.08842 -0.384405,0.187769 -0.649782,0.258872 -1.34784,0.436553 -2.093282,0.532815 -0.214054,0.02764 -1.081004,0.08226 -1.15252,0.07261 -0.01192,-0.0016 -0.167961,-0.01037 -0.346758,-0.01948 z"
           id="path8"
           inkstitch:fill_method="auto_fill"
           inkstitch:contour_strategy="0"
           inkstitch:join_style="2"
           inkstitch:angle="90" /><path
           style="fill:#f5af68"
           d="m 7.0832725,55.174753 c -2.9202136,-1.652325 -5.3172866,-3.01135 -5.3268288,-3.020054 -0.00954,-0.0087 0.4927146,-0.188349 1.1161263,-0.399212 5.9811814,-2.023073 9.556565,-3.224548 9.566408,-3.214705 0.01818,0.01818 0.08878,0.675977 0.116833,1.088456 0.01378,0.202637 0.02239,0.67076 0.01914,1.040273 l -0.0059,0.671843 0.124328,0.199827 c 1.002234,1.610848 2.711864,2.639467 4.8764,2.933942 0.473316,0.06439 1.410094,0.08013 1.913191,0.03215 0.684349,-0.06527 1.359378,-0.20419 1.958504,-0.403044 0.426291,-0.141489 0.929918,-0.355595 0.963231,-0.409497 0.0224,-0.03624 0.116338,-0.718706 0.1617,-1.174746 0.09797,-0.984893 0.09933,-1.042972 0.100266,-4.266938 8.89e-4,-3.063553 0.0034,-3.199963 0.07623,-4.096075 0.05358,-0.659548 0.147921,-1.33503 0.270897,-1.939676 0.105745,-0.519923 0.150261,-0.694174 0.176057,-0.689154 0.01233,0.0024 0.528534,0.337293 1.147127,0.744211 0.618593,0.406917 1.136372,0.746383 1.15062,0.754369 0.01905,0.01068 0.006,0.08327 -0.04949,0.27439 -0.784373,2.703414 -1.074478,6.123271 -0.844753,9.958249 0.01535,0.256275 0.02196,0.472586 0.01468,0.48069 -0.0095,0.01062 -12.192801,4.438934 -12.212481,4.438934 -0.0015,0 -2.392049,-1.351903 -5.3122625,-3.004229 z"
           id="path7"
           inkstitch:angle="110" /><path
           style="fill:#f5af68"
           d="M 11.851439,63.762049 C 11.708401,63.686295 10.869681,63.24383 9.9876159,62.778792 8.1892006,61.83064 7.1208586,61.263294 3.8416384,59.514951 L 1.5750125,58.306482 1.5600536,55.303085 c -0.00823,-1.651868 -0.012265,-3.005933 -0.00897,-3.009034 0.00423,-0.004 10.3614614,5.852808 10.6323674,6.012368 0.02367,0.01394 0.02389,0.497123 0.0013,2.805455 -0.01892,1.929455 -0.03441,2.788502 -0.05027,2.788259 -0.01261,-1.93e-4 -0.139956,-0.06233 -0.282993,-0.138084 z"
           id="path6"
           inkstitch:angle="151" /><path
           style="display:inline;fill:#f5af68"
           d="m 12.372352,63.333848 c 0.0062,-0.361819 0.0211,-1.618296 0.03304,-2.792172 0.01194,-1.173876 0.02873,-2.14061 0.03729,-2.148298 0.0086,-0.0077 0.113103,-0.04836 0.232301,-0.0904 0.214207,-0.07553 50.656209,-18.376417 50.729661,-18.405252 0.03613,-0.01418 0.03775,0.105224 0.03251,2.398478 l -0.0055,2.413405 -0.704352,0.267058 c -0.622611,0.236066 -1.903103,0.719636 -8.159641,3.08144 -0.846306,0.319475 -3.45024,1.302539 -5.786519,2.184587 -6.021387,2.273337 -9.673789,3.652046 -23.839592,8.998972 -6.877722,2.596018 -12.521951,4.726782 -12.542732,4.735031 -0.03558,0.01412 -0.03712,-0.02342 -0.02646,-0.642854 z m 13.994226,-5.868007 c 0.42423,-0.146671 0.789929,-0.453946 0.95678,-0.803924 0.06336,-0.132894 0.0671,-0.154982 0.06602,-0.390102 -0.001,-0.225858 -0.0076,-0.266265 -0.06995,-0.430852 -0.226737,-0.598489 -0.712082,-1.019029 -1.117588,-0.968364 -0.535276,0.06688 -0.966468,0.773498 -0.96743,1.585382 -6.63e-4,0.559635 0.210395,0.936614 0.583797,1.042745 0.129524,0.03681 0.388682,0.02033 0.548378,-0.03489 z M 58.928763,45.314725 c 0.221136,-0.04568 0.410401,-0.12382 0.598378,-0.247056 0.198306,-0.130007 0.325755,-0.269847 0.409986,-0.449845 0.05738,-0.122607 0.06828,-0.174397 0.07673,-0.364412 0.02676,-0.601744 -0.305461,-1.261302 -0.759285,-1.507399 -0.125731,-0.06818 -0.150091,-0.0736 -0.330778,-0.0736 -0.170519,0 -0.210854,0.0078 -0.320699,0.0617 -0.646947,0.317675 -1.035632,1.486283 -0.722116,2.171091 0.05752,0.125638 0.206453,0.289164 0.314027,0.344792 0.189919,0.09821 0.457423,0.12181 0.733756,0.06473 z"
           id="path5"
           inkstitch:angle="20" /><path
           style="fill:#f5af68"
           d="m 18.123021,17.643608 c -0.975929,-0.225233 -2.012965,-1.409602 -2.012965,-2.298949 0,-0.358924 0.09504,-0.56029 0.40432,-0.856612 0.411606,-0.394366 0.940729,-0.666295 1.481175,-0.761212 0.230787,-0.04053 0.705184,-0.03525 0.940017,0.01046 0.599728,0.116744 1.094755,0.37256 1.488449,0.769188 0.372667,0.375444 0.583992,0.784005 0.583992,1.129048 0,0.384285 -0.200771,0.767163 -0.606472,1.156565 -0.414516,0.397863 -0.957963,0.695612 -1.513126,0.829027 -0.193291,0.04645 -0.608673,0.05865 -0.76539,0.02249 z"
           id="path13"
           inkstitch:fill_method="circular_fill"
           inkstitch:contour_strategy="2" /></g><g
         id="g648"
         style="display:none"><path
           style="fill:#ababab"
           d="m 57.781572,37.947016 c -0.007,-0.01147 -0.02488,-0.09704 -0.03982,-0.19016 -0.05562,-0.346804 0.01238,-0.783648 0.172661,-1.109356 0.110119,-0.223767 0.212178,-0.340786 0.360518,-0.413362 0.102965,-0.05038 0.138249,-0.05689 0.256559,-0.0474 0.159865,0.01283 0.372698,0.114316 0.539097,0.257054 l 0.103442,0.08873 -0.324065,0.339227 c -0.77855,0.814976 -1.056548,1.09476 -1.068395,1.075262 z"
           id="path32"
           inkstitch:fill_method="contour_fill" /><path
           style="fill:#ababab"
           d="m 58.192661,38.436753 c -0.137164,-0.04406 -0.316271,-0.201656 -0.294582,-0.259201 0.0039,-0.01039 0.323263,-0.347205 0.70966,-0.748482 l 0.702542,-0.729595 0.06079,0.10529 c 0.03343,0.05791 0.07657,0.166898 0.09586,0.242197 0.02994,0.116863 0.03115,0.157698 0.0083,0.278919 -0.05333,0.282615 -0.282344,0.637798 -0.555288,0.86119 -0.237852,0.194672 -0.557199,0.304309 -0.727261,0.249682 z"
           id="path29"
           inkstitch:fill_method="contour_fill" /><path
           style="fill:#ababab"
           d="M 58.977973,44.03903 C 58.55482,43.96496 58.172896,43.897525 58.129252,43.889171 l -0.07935,-0.01519 0.02102,-0.08065 c 0.01156,-0.04436 0.06923,-0.178974 0.128162,-0.299149 0.249126,-0.508062 0.615999,-0.725217 0.946757,-0.560394 0.302886,0.150935 0.60186,0.661075 0.647287,1.104471 0.01155,0.11277 0.0085,0.139892 -0.0157,0.137908 -0.01655,-0.0014 -0.376299,-0.06307 -0.799452,-0.137139 z"
           id="path20"
           inkstitch:fill_method="contour_fill" /><path
           style="fill:#ababab"
           d="m 58.431899,45.101894 c -0.247932,-0.06675 -0.384567,-0.252195 -0.432733,-0.587334 -0.02729,-0.189897 -0.0095,-0.422745 0.0322,-0.422399 0.06077,5.05e-4 1.728287,0.297454 1.74084,0.310007 0.0076,0.0076 -0.0034,0.05931 -0.02464,0.114809 -0.06051,0.158449 -0.25071,0.332708 -0.491402,0.450221 -0.303783,0.148316 -0.596184,0.196098 -0.824269,0.134696 z"
           id="path19"
           inkstitch:fill_method="contour_fill" /><path
           style="fill:#ababab"
           d="m 29.915587,47.978446 c 1.31e-4,-0.05757 0.02438,-0.533778 0.05388,-1.058249 0.0295,-0.524471 0.05378,-0.990156 0.05394,-1.034855 l 3.01e-4,-0.08127 h 0.125779 c 0.317079,0 0.612368,0.30904 0.766194,0.801877 0.04227,0.135418 0.05074,0.209623 0.05075,0.444668 2e-5,0.275259 -0.0017,0.285655 -0.07135,0.427164 -0.08356,0.16982 -0.225364,0.304572 -0.437466,0.415716 -0.140405,0.07357 -0.336952,0.146381 -0.471841,0.174784 l -0.07043,0.01483 z"
           id="path16"
           inkstitch:fill_method="contour_fill" /><path
           style="fill:#ababab"
           d="m 29.236932,48.049976 c -0.185244,-0.06312 -0.322424,-0.189674 -0.377571,-0.348318 -0.04869,-0.140075 -0.04811,-0.40809 0.0013,-0.597249 0.08249,-0.315806 0.355445,-0.764145 0.594829,-0.977014 0.1208,-0.10742 0.32853,-0.245159 0.344958,-0.228731 0.0063,0.0063 -0.01415,0.477724 -0.04554,1.047506 -0.03139,0.569783 -0.0569,1.062789 -0.05668,1.095568 l 3.94e-4,0.0596 -0.157124,-5.59e-4 c -0.106226,-3.79e-4 -0.204887,-0.01684 -0.304567,-0.0508 z"
           id="path15"
           inkstitch:fill_method="contour_fill" /><path
           style="fill:#ababab"
           d="m 25.456904,56.302546 c 0.04282,-0.639047 0.424282,-1.211071 0.806651,-1.209615 0.205758,7.83e-4 0.434224,0.144959 0.611945,0.386174 0.09285,0.126024 0.21126,0.33532 0.196807,0.347871 -0.0058,0.005 -1.501246,0.620067 -1.596836,0.656749 -0.0267,0.01024 -0.02954,-0.01747 -0.01857,-0.181179 z"
           id="path14"
           inkstitch:fill_method="contour_fill" /><path
           style="display:inline;fill:#ababab"
           d="m 25.884148,57.293083 c -0.116623,-0.03815 -0.198409,-0.09456 -0.25965,-0.179103 -0.0663,-0.09152 -0.151984,-0.295434 -0.151984,-0.361682 0,-0.02968 0.183496,-0.113175 0.83604,-0.380412 0.459821,-0.188311 0.842585,-0.335838 0.850585,-0.327837 0.008,0.008 0.01457,0.108845 0.0146,0.2241 4.8e-5,0.187862 -0.0065,0.222927 -0.06338,0.338753 -0.121727,0.247923 -0.46828,0.532307 -0.77891,0.639179 -0.144795,0.04982 -0.367235,0.07319 -0.4473,0.047 z"
           id="path4"
           inkstitch:fill_method="contour_fill" /></g><g
         id="g649"
         style="display:inline"><path
           style="display:none;fill:#373737"
           d="m 53.321464,19.410844 -0.22756,-0.07979 0.0074,-0.173271 c 0.06061,-1.4182 1.116973,-2.312031 2.66913,-2.258465 0.472991,0.01632 1.107847,0.143068 0.726024,0.144946 -0.323828,0.0016 -0.790611,0.110728 -1.106264,0.258648 -0.660997,0.309753 -1.14149,0.842007 -1.620713,1.795303 -0.109335,0.217495 -0.203667,0.394762 -0.209627,0.393928 -0.006,-8.34e-4 -0.113238,-0.03742 -0.238396,-0.0813 z"
           id="path316" /><path
           style="display:none;fill:#373737"
           d="m 52.389573,32.33503 c 0,-0.0038 2.788193,-3.888978 6.195984,-8.633622 3.701801,-5.153993 6.254856,-8.728011 6.342234,-8.878482 0.399448,-0.687882 0.66361,-1.471036 0.74838,-2.218703 0.03741,-0.329986 0.01533,-1.032918 -0.04195,-1.335051 C 65.313672,9.5781834 64.141078,8.3788602 62.456389,8.0188897 l -0.260068,-0.055569 0.292577,0.010867 c 0.501314,0.01862 1.019656,0.1521909 1.472539,0.3794587 1.109175,0.55661 1.866019,1.6298749 2.105878,2.9863056 0.06424,0.363313 0.07912,1.008691 0.0316,1.37043 -0.0925,0.703982 -0.299736,1.331481 -0.627834,1.901019 -0.07405,0.128539 -2.906646,4.12498 -6.294661,8.880977 l -6.160028,8.64727 -0.134607,0.04669 c -0.18772,0.06512 -0.4922,0.157099 -0.4922,0.148685 z"
           id="path255" /><path
           style="fill:#373737"
           d="m 49.59384,33.161869 c 0,-0.0067 1.879025,-2.477715 4.175611,-5.491052 2.296586,-3.013336 4.179493,-5.498298 4.184237,-5.522138 0.0064,-0.03195 -0.08267,-0.140973 -0.338662,-0.41471 L 57.267744,21.362617 57.49978,21.11581 c 0.717364,-0.763034 0.993736,-1.193235 1.135608,-1.767695 0.06711,-0.271733 0.06654,-0.665293 -0.0013,-0.905396 -0.302672,-1.071044 -1.797638,-1.867577 -3.273047,-1.743912 -1.037925,0.087 -1.836984,0.589712 -2.21311,1.392344 -0.140396,0.299597 -0.258083,0.791854 -0.259477,1.085329 -2.73e-4,0.05748 -0.0089,0.08056 -0.02749,0.07389 -0.0149,-0.0053 -0.429282,-0.145354 -0.920848,-0.31115 -0.491566,-0.165795 -0.89386,-0.308146 -0.893985,-0.316336 -2.9e-4,-0.01901 5.687935,-7.443619 6.023072,-7.86167 0.853315,-1.0644302 1.569689,-1.7046802 2.385575,-2.132076 0.676403,-0.3543293 1.419472,-0.5149499 2.243089,-0.484863 0.869901,0.031778 1.627522,0.2838847 2.269232,0.7551126 0.240986,0.1769637 0.623288,0.5681556 0.801967,0.8206161 0.856523,1.2102063 0.962045,2.8424763 0.284291,4.3975613 -0.122204,0.280391 -0.299915,0.612946 -0.446696,0.835909 -0.04708,0.07152 -2.887689,4.031058 -6.31246,8.798976 l -6.226856,8.668942 -1.198818,0.366246 c -1.361144,0.415837 -1.274671,0.390448 -1.274671,0.374248 z"
           id="path250"
           inkstitch:angle="55"
           inkstitch:fill_underlay="True" /></g><path
         style="display:none;fill:#5e3308"
         d="m 32.872785,35.806406 c -1.383158,-0.943935 -2.536863,-1.730875 -2.56379,-1.748755 -0.04565,-0.03032 0.0436,-0.05479 1.322853,-0.362727 0.754495,-0.18162 3.189677,-0.769384 5.411515,-1.306142 2.221838,-0.536758 4.043547,-0.972083 4.048241,-0.967388 0.0087,0.0087 -4.042861,5.519664 -4.109901,5.590218 -0.02208,0.02324 -0.347632,0.13497 -0.80475,0.276193 -0.422215,0.13044 -0.77254,0.236643 -0.7785,0.236006 -0.006,-6.37e-4 -1.142511,-0.773469 -2.525668,-1.717405 z"
         id="path501"
         inkstitch:fill_method="contour_fill"
         inkstitch:contour_strategy="0"
         inkstitch:join_style="0" /><g
         id="g45"
         transform="matrix(0.0358688 0 0 0.0358688 36.1835 -11.247)"
         style="display:inline;fill:none;fill-opacity:1;fill-rule:nonzero"><path
           id="path3"
           style="stroke:#000000;stroke-width:1px;fill:none"
           transform="matrix(7.37642 0 0 7.37642 -1008.77 313.559)"
           d="M78.9514493004661,62.44813644471345 78.97020168516845,66.22245285297116 78.80399277224865,69.98040553940027 78.06040472893173,77.5055684113633 75.95748935740242,92.56600063630525 75.95575835635285,92.58033012020368 75.18595835635284,100.12353012020368 75.18441401090881,100.14397472084934 74.9988140109088,103.92177472084934 74.99834466639446,103.94052914782583 74.99474466639447,107.72402914782583 74.9953711447087,107.74649279486563 75.2105711447087,111.53689279486562 75.21290430572058,111.56274213691731 75.68370430572058,115.36114213691731 75.68834380506124,115.38978981835218 76.45144380506125,119.19738981835219 76.45887891543556,119.2280075854972 77.55117891543556,123.04590758549719 77.56846899426543,123.0941105329277 78.39136899426543,124.9867105329277 78.41692706570463,125.03567640051502 79.58342706570463,126.92987640051501 79.60501824021539,126.96136985214363 81.04441824021538,128.85486985214362 81.06042958916159,128.87456659192915 82.70262958916159,130.76546659192914 82.71560872818203,130.77968617089155 89.89601424336736,138.26630193351738 91.48038942197216,140.09415283509875 92.83980342835861,141.89704893489284 93.90337664996383,143.6657994095125 94.60489277905025,145.39048417345074 94.88684752664133,147.0640647168124 94.6971273376077,148.695508882973 93.9691772849439,150.31197515247231 92.62586918682575,151.91630295655597 91.39944290918883,152.69283275010113 89.8826510872575,153.33946608601315 89.83998806283563,153.36082876749117 88.34548806283563,154.22742876749118 88.31776914197764,154.2451045514692 88.29163841585115,154.2650534127117 88.26728179370694,154.287133423366 87.63068179370694,154.91513342336597 87.6003351363527,154.9487682623192 87.57409624835284,154.98569715020543 87.06019624835285,155.80609715020543 87.0398567957051,155.84282743791346 87.02358632494372,155.88153246536888 87.01157364409347,155.9217630863921 86.30667364409346,158.8493630863921 86.30223968484705,158.87028480696796 85.76443968484706,161.80238480696798 85.7604752131895,161.82923890098618 85.10147521318949,167.70223890098617 85.09938061306659,167.72951671585562 84.8551806130666,173.60571671585564 84.85484451258901,173.62203280931183 84.856844512589,179.49143280931182 84.85685100024175,179.49355273006205 84.9242916106151,191.16157762077646 84.65355498467753,196.9257087494637 83.98201386940481,202.42954700795065 81.91342767835121,203.30588141371058 79.54599309455332,204.08353978556661 77.09475358780959,204.6764923697789 74.58303631840482,205.07999180363868 72.03462644284134,205.28971550951206 69.47290810242511,205.30107984269682 66.9213240849562,205.11002469190566 64.40349888573303,204.71242137920137 61.942537042489036,204.10416135580408 59.56179913011953,203.2814360600964 57.28424571435535,202.24040102926477 55.13256158638916,200.9771929362153 53.12912611542396,199.48781170226854 51.29622271060004,197.76805897116827 49.65566277239377,195.81319257125517 48.282252309207124,193.69916942818872 48.370433828524384,190.1710384431367 48.37011775615002,190.142832667989 48.19941775615003,186.544232667989 48.197466476253894,186.51961205876424 47.8020664762539,182.96491205876424 47.79921080921001,182.94427563098816 47.21631080921001,179.42707563098816 47.211857061131404,179.40439405177042 45.632457061131404,172.45739405177042 45.62830413436923,172.440817286065 43.74540413436923,165.56791728606498 43.745232924656754,165.56729436823136 41.85865062863318,158.72547436684764 40.266001037188786,151.86730781994473 39.67356339242718,148.42409322461404 39.264624448613105,144.95625918795562 39.07625913087376,141.46018698142024 39.14508215954813,137.91326122577354 39.231633521643424,133.37964796837213 39.52536729001041,128.46304720396458 40.01720612929027,123.22451462551707 40.69813884654997,117.73483765375913 41.55868775317457,112.06425856925273 42.58953144924018,106.28300839659575 43.781419972421276,100.46143311049283 45.124770215740604,94.66966393704078 46.61035672248173,88.97784344971079 48.228494723923355,83.4562568579637 49.96959789257346,78.17529294745997 51.82402015754126,73.2052777867262 53.78163273195387,68.61696458000833 55.831784589381115,64.48145402720247 57.96304591805685,60.87028515332275 60.17740338073905,57.83406327177938  M79.7309506995339,62.44426355528655 79.7497506995339,66.22816355528654 79.74937485491792,66.24732149711674 79.58227485491791,70.02542149711675 79.58076652280057,70.04652646730239 78.83536652280058,77.59002646730238 78.83351064259759,77.60559936369475 76.7305088303612,92.66665065035843 75.96248277829406,100.19246789633512 75.77784640581208,103.95065371509794 75.7742660292808,107.71352999458486 75.98809285046754,111.47974367035752 76.45550958635124,115.25084759894852 77.21265792618703,119.02875091274585 78.29356282211275,122.8068217743725 79.09519115649668,124.65049875293009 80.2371496200644,126.50484742133126 81.65729695220861,128.37302094739428 83.28485649272379,130.24706329008097 90.46539127181796,137.73381382910844 90.47861502518626,137.7483153401694 92.07811502518626,139.59361534016938 92.09480335682478,139.61424743064205 93.47450335682478,141.44404743064206 93.49731890432432,141.47784998342223 94.58701890432431,143.29004998342225 94.60157293063628,143.3165260637798 94.61403242997467,143.34404993322482 95.34313242997467,145.1365499332248 95.35703971075027,145.17695954289934 95.36643923254832,145.21864884611477 95.66473923254831,146.98924884611478 95.6691265113127,147.02569704948328 95.67006505984432,147.06239635288816 95.66754655146462,147.0990211649599 95.46444655146462,148.8455211649599 95.45781188842409,148.8848804501838 95.4471865500956,148.92335478282783 95.43268197130253,148.96054065757932 94.65788197130253,150.6810406575793 94.64180755729667,150.71278044521443 94.62290582692411,150.74292220185995 94.60133428086668,150.77121476811766 93.18453428086669,152.46331476811767 93.15719868005655,152.4927387389702 93.12698024983241,152.51919344757133 93.0941998557671,152.5423979923267 91.7897998557671,153.3682979923267 91.76256477292812,153.38403976539033 91.7341489127425,153.39753391398685 90.21033544138251,154.04716069469993 88.77941347000176,154.8768943717816 88.21053271616859,155.43808996305904 87.75454683667174,156.16603472962692 87.06703044430944,159.0214369005445 86.53361040897178,161.9296572159286 85.877651060007,167.77555897081507 85.63435826846724,173.6299287564252 85.63635512622614,179.49010722149197 85.70384899975825,191.16734726993795 85.70342629914175,191.18788634468322 85.43152629914175,196.9767863446832 85.42908631644127,197.0057052513582 84.72848631644128,202.7477052513582 84.72223613746107,202.7843181869526 84.7125291939614,202.82016992384237 84.69945363999436,202.85493487283668 84.68312822180229,202.8882973144586 84.66370119941837,202.9199542661662 84.64134900023635,202.9496182339023 84.61627461677706,202.97701982298503 84.58870576320255,203.00191018462783 84.55889280731951,203.0240632758712 84.52710649685253,203.04327791240217 84.49363550063624,203.0593795956189 82.20253550063624,204.0299795956189 82.17213339610892,204.0413899871132 79.77443339610892,204.8289899871132 79.74443849328014,204.83752943939805 77.26323849328014,205.43772943939805 77.23342035954443,205.4437215180458 74.69182035954442,205.8520215180458 74.66196721560189,205.85564234415412 72.0834672156019,206.06784234415412 72.05322902220475,206.06915167490018 69.46092902220474,206.0806516749002 69.43009771505741,206.07956748592648 66.84719771505742,205.88616748592648 66.81550497520371,205.8824848342017 64.26540497520371,205.4797848342017 64.23268084254488,205.4731695611359 61.738380842544885,204.8566695611359 61.70459704329146,204.84667930834746 59.28949704329146,204.01207930834747 59.25477236764234,203.99818047048865 56.94207236764234,202.94108047048866 56.906774976826384,202.9227133630709 54.71967497682638,201.6387133630709 54.68446728348014,201.61539049434597 52.64616728348014,200.10009049434595 52.612014174362756,200.07153234863307 50.74591417436275,198.32063234863307 50.71404742456228,198.28695082778708 49.04324742456228,196.2960508277871 49.01496221437301,196.25783562935067 47.56276221437301,194.02253562935067 47.54316322615296,193.98878028819485 47.52703875370453,193.95323391307647 47.51455051407988,193.91625300899244 47.50582375548825,193.8782084682503 47.50094600114499,193.83948185068095 47.49996617147562,193.80046155686333 47.59081354322143,190.16567016691496 47.42136765159471,186.59350856405683 47.02848549596251,183.0614443287867 46.44917963031788,179.56593122080028 44.874237654057566,172.638539863905 42.99368121236499,165.774194243793 41.10506707534325,158.92500563176864 41.1011472641344,158.9095655134112 39.504147264134396,152.0326655134112 39.499688724057584,152.0105899788106 38.903588724057585,148.54608997881058 38.900626508413566,148.52564504043576 38.489026508413566,145.03524504043577 38.486908983618704,145.0105692721234 38.297108983618706,141.48786927212342 38.29661784045187,141.45933877422647 38.365716659286434,137.89819964783496 38.452415497140215,133.35686052177786 38.45303820234829,133.34105617902938 38.747638202348284,128.4099561790294 38.748651078762606,128.3967666041688 39.24165107876261,123.1458666041688 39.24290864334229,123.13432288024296 39.92520864334229,117.63362288024297 39.92665648693833,117.623121503554 40.78875648693833,111.942321503554 40.790396454963314,111.93238255243307 41.82299645496331,106.14128255243307 41.82486502974777,106.1315244725136 43.01876502974777,100.3001244725136 43.02092339586932,100.29023732980943 44.366623395869325,94.48833732980944 44.369178199614325,94.47796979488409 45.85757819961432,88.77536979488409 45.86067476932722,88.76418939638216 47.48227476932722,83.23078939638216 47.486143329908884,83.2183614929936 49.231643329908884,77.92406149299359 49.23663558402582,77.90984910307989 51.096835584025825,72.92434910307989 51.103509480966885,72.90764933681523 53.06900948096688,68.30084933681523 53.07829953252673,68.28068619026276 55.13969953252673,64.12248619026275 55.153242888709045,64.09749987065854 57.301342888709044,60.45779987065854 57.32209661926095,60.42623672822062 59.54759661926094,57.37473672822062  M78.0463239799013,75.66628520580154 79.20992354830304,75.7812646077087  M76.74210547542936,85.5376272985416 77.90013740322209,85.69932538962587  M74.89238126915414,102.11673420954142 76.0602392364277,102.17411004699338  M84.68067513387645,133.11008993172737 85.52454894933037,132.30073141905274  M90.15412574173848,153.01188400801337 90.61267247996597,154.08748574997392  M84.67541301850035,181.81935598054426 85.84466001777513,181.81259779035813  M69.15575166536408,205.08190880603982 69.06844481053633,206.2479112638193  M44.14449694929346,166.28712498116593 43.01678454618578,166.59607312297092  M40.17639613057725,150.19726743260804 39.02406230275,150.3955373690398  M40.54742940926779,120.53300034443296 39.38705533929466,120.38906898516183  M43.22220783455962,104.16440049856881 42.076702923802934,103.92987391610966  M46.22323336734816,91.23271364123974 45.09186796619113,90.93742302589197  M49.01597324639873,81.69012783744243 47.9055032361254,81.32401231642321  "
           inkstitch:satin_column="true" /><path
           id="path17"
           style="fill:none;stroke:#000000;stroke-width:1px"
           transform="matrix(7.37642 0 0 7.37642 -1008.77 313.559)"
           d="m 60.320867,56.422814 0.3802,-0.8594 0.01978,-0.03871 0.02396,-0.03627 0.5948,-0.7994 0.02163,-0.02655 0.02388,-0.02455 1.2355,-1.1633 0.04309,-0.03512 1.3066,-0.9182 0.04835,-0.02899 1.3595,-0.6868 0.0515,-0.02154 1.3939,-0.4688 0.0524,-0.01365 1.4102,-0.2645 0.05148,-0.0061 1.4082,-0.0737 0.04938,5.49e-4 1.3879,0.1036 0.04667,0.0063 1.3494,0.2671 0.04403,0.01142 1.2927,0.4172 0.04163,0.01612 1.2176,0.5537 0.03966,0.02087 1.1242,0.6767 0.03797,0.02603 1.0127,0.786 0.03645,0.03213 0.8829,0.8818 0.03455,0.0395 0.7347,0.9639 0.01663,0.02358 0.01484,0.02475 0.5684,1.0327 0.01424,0.02859 0.01185,0.02966 0.3838,1.0877 m -19.054313,-1.248924 0.362531,-0.819461 0.548226,-0.736806 1.190205,-1.120652 1.260677,-0.885928 1.309297,-0.661438 1.341654,-0.451228 1.357992,-0.254708 1.357547,-0.07105 1.3397,0.100002 1.30391,0.258096 1.249741,0.403335 1.176814,0.535153 1.085215,0.653233 0.975255,0.756938 0.847068,0.846013 0.701227,0.919984 0.539017,0.979315 0.373145,1.057505 m -0.894908,-1.60132 1.024356,-0.563808 m -7.760576,-3.92301 0.227039,-1.147013 m -8.17499,2.838936 -0.672288,-0.956667"
           inkstitch:satin_column="true"
           sodipodi:nodetypes="ccccccccccccccccccccccccccccccccccccccccccccccccccccccccccccccccc" /><path
           id="path18"
           style="fill:none;stroke:#000000;stroke-width:1px"
           transform="matrix(7.37642 0 0 7.37642 -1008.77 313.559)"
           d="m 80.106501,58.062831 0.1221,0.8733 0.0036,0.04196 -9.78e-4,0.0421 -0.068,0.8782 -0.0047,0.03706 -0.0082,0.03644 -0.2407,0.8731 -0.0097,0.03035 -0.01216,0.02945 -0.3962,0.8581 -0.01783,0.03408 -0.0211,0.03216 -1.1894,1.6313 -0.02514,0.03101 -0.02819,0.02828 -1.6036,1.452 -0.0255,0.02119 -0.02721,0.01895 -1.8793,1.193 -0.02778,0.01607 -0.02901,0.01373 -2.0166,0.8547 -0.03426,0.01266 -0.0353,0.0094 -2.0154,0.4367 -0.03144,0.0055 -0.03179,0.0029 -0.03191,2.75e-4 -1.8758,-0.0607 -0.03865,-0.0032 -0.03815,-0.007 -0.03726,-0.01076 -1.7681,-0.6076 -0.03974,-0.01615 -0.03772,-0.02042 -1.7761,-1.0919 -0.02817,-0.01906 -0.0264,-0.02144 -1.651,-1.465 -0.02333,-0.0225 -0.02138,-0.02436 -1.3924,-1.7266 -0.02172,-0.0297 -0.01882,-0.03161 -1.0005,-1.8767 -0.01389,-0.02885 -0.01148,-0.0299 -0.009,-0.03074 -0.4753,-1.9154 -0.0086,-0.04677 -0.0029,-0.04747 9e-4,-0.9375 0.0019,-0.03845 0.0057,-0.03807 0.1822,-0.9053 m 19.039293,1.667169 0.116243,0.831411 -0.06184,0.798665 -0.22225,0.806174 -0.366627,0.794051 -1.143042,1.567718 -1.549239,1.402779 -1.824063,1.157935 -1.953233,0.827843 -1.932546,0.418747 -1.769088,-0.05725 -1.671897,-0.57454 -1.710339,-1.051472 -1.601184,-1.420796 -1.348827,-1.672569 -0.960414,-1.801509 -0.452151,-1.822111 8.17e-4,-0.851031 0.174576,-0.867417 m 0.02005,1.125181 -1.169266,-0.0011 m 4.564499,6.365904 -0.776061,0.874592 m 7.747138,1.327686 0.247612,1.142748 m 6.406159,-5.46135 0.944801,0.688865"
           inkstitch:satin_column="true"
           sodipodi:nodetypes="ccccccccccccccccccccccccccccccccccccccccccccccccccccccccccccccccccccccccccccccccccc" /><path
           id="path22"
           style="fill:none;stroke:#000000;stroke-width:1px"
           transform="matrix(7.37642 0 0 7.37642 -1008.77 313.559)"
           d="m 46.584677,241.92709 193.151353,-72.95782 0.11842,-54.64151 m -192.994327,128.32855 193.402797,-73.0528 0.0359,-0.0157 0.0342,-0.0192 0.0321,-0.0225 0.0296,-0.0256 0.0269,-0.0285 0.0239,-0.0311 0.0207,-0.0333 0.0172,-0.0352 0.0136,-0.0368 0.01,-0.0379 0.006,-0.0388 0.002,-0.0391 0.119,-54.9103 m 0.10416,41.86437 -1.16927,-0.003 m -11.50939,18.23009 -0.41317,-1.09384"
           inkstitch:satin_column="true"
           sodipodi:nodetypes="cccccccccccccccccccccc" /><path
           id="path24"
           style="fill:none;stroke:#000000;stroke-width:1px"
           transform="matrix(7.37642 0 0 7.37642 -1008.77 313.559)"
           d="M 239.98172,150.62359 47.120421,220.59119 M 239.71588,149.89081 46.854579,219.85841 m 96.364191,-35.16699 0.39876,1.09916"
           inkstitch:satin_column="true"
           sodipodi:nodetypes="cccccc" /><path
           id="path25"
           style="fill:none;stroke:#000000;stroke-width:1px"
           transform="matrix(7.37642 0 0 7.37642 -1008.77 313.559)"
           d="m 93.076884,203.18259 -0.2655,-5.0428 -4.2e-4,-0.0109 -0.1261,-5.0952 -1.07e-4,-0.0128 0.0416,-5.1229 4.05e-4,-0.0149 0.2376,-5.1261 0.0012,-0.0171 0.462,-5.1046 0.0022,-0.0194 0.7148,-5.0585 0.0037,-0.0218 0.9959,-4.9878 0.0056,-0.0242 1.3054,-4.8924 m -2.599903,40.51029 -0.265214,-5.03738 -0.125807,-5.08337 0.04149,-5.10905 0.236859,-5.11011 0.460347,-5.08634 0.711887,-5.03788 0.991306,-4.96479 1.3022,-4.88041 m -0.547728,2.8087 -1.129743,-0.30144 m -0.71336,9.4195 -1.157765,-0.1636 m 0.183103,10.25239 -1.168013,-0.0541 m 1.033302,10.20483 -1.168909,0.0289"
           inkstitch:satin_column="true"
           sodipodi:nodetypes="ccccccccccccccccccccccccccccccccc" /><path
           id="path23"
           style="fill:none;stroke:#000000;stroke-width:1px"
           transform="matrix(7.37642,0,0,7.37642,-1008.77,313.559)"
           d="m 87.263857,156.62662 9.4897,6.236 0.03376,0.0198 0.03558,0.0163 0.03704,0.0127 0.03812,0.009 0.03882,0.005 0.03914,0.001 0.03905,-0.003 0.03857,-0.007 0.0377,-0.0105 143.439003,-48.0231 0.0356,-0.0139 0.0341,-0.0173 0.0322,-0.0206 0.03,-0.0236 0.0276,-0.0265 0.0249,-0.029 0.0219,-0.0313 0.0187,-0.0333 0.0154,-0.035 0.0119,-0.0363 0.008,-0.0373 0.005,-0.038 8e-4,-0.0382 -0.003,-0.0381 -0.007,-0.0376 -0.0103,-0.0368 -0.0139,-0.0356 -0.0173,-0.0341 -0.0206,-0.0322 -0.0236,-0.0301 -0.0264,-0.0276 -0.029,-0.0249 -0.0313,-0.0219 -0.0333,-0.0187 -26.81381,-13.43764 m -126.074987,55.2479 9.331465,6.13202 142.368462,-47.66469 -26.16172,-13.01769 M 95.583736,162.364 l 0.642129,-0.97717 m 3.025976,0.94216 -0.37122,-1.10878 m 139.021219,-45.26985 -0.37121,-1.10878 m 1.15195,-2.26077 -0.96488,1.69419 m -148.453705,42.09946 -1.091772,1.50386"
           inkstitch:satin_column="true"
           sodipodi:nodetypes="ccccccccccccccccccccccccccccccccccccccccccccccccccc" /><path
           id="path34"
           style="display:none;fill:none;stroke:#000000;stroke-width:1px"
           transform="matrix(7.37642,0,0,7.37642,-1008.77,313.559)"
           d="m 229.42938,30.972994 3.06631,-0.699463 2.83449,-0.202876 2.61802,0.244289 2.3916,0.649638 2.15546,1.014431 1.90864,1.340363 1.64997,1.627976 1.37797,1.877094 1.09202,2.087102 0.7916,2.257329 0.47698,2.387282 0.14821,2.476717 -0.1943,2.525536 -0.55058,2.534221 -0.92054,2.502792 -1.30571,2.434057 -46.66003,65.497198 -3.40365,1.04668 m 32.35018,-92.360354 3.0954,-0.7061 0.0293,-0.0055 0.0296,-0.0033 2.8963,-0.2073 0.032,-9.72e-4 0.032,0.0017 2.6835,0.2504 0.0332,0.0046 0.0327,0.0074 2.457,0.6674 0.0324,0.01034 0.0314,0.01313 2.2168,1.0433 0.0297,0.0156 0.0283,0.0181 1.9628,1.3784 0.0257,0.01972 0.024,0.0218 1.6952,1.6726 0.0212,0.0226 0.0193,0.0242 1.4138,1.9259 0.0165,0.02439 0.0146,0.02557 1.1188,2.1383 0.0225,0.05171 0.81,2.3098 0.0144,0.05261 0.4876,2.4404 0.007,0.05308 0.1514,2.5301 -4.5e-4,0.05318 -0.1984,2.5788 -0.008,0.05285 -0.562,2.5868 -0.0151,0.05179 -0.9393,2.5538 -0.0223,0.0497 -1.3303,2.4799 -0.026,0.0419 -46.751,65.624896 -0.0225,0.0286 -0.025,0.0264 -0.0274,0.0239 -0.0295,0.0213 -0.0314,0.0184 -0.0329,0.0154 -0.0342,0.0123 -3.5299,1.0855 m 37.19961,-92.981149 -0.0835,-1.166283 m 9.19575,3.714396 0.67199,-0.956883 m 5.12373,9.870154 1.14661,-0.229095 m -1.21634,8.710704 1.14262,0.24824 m -7.10782,10.445701 0.95232,0.678431 m -40.38648,54.675744 0.95232,0.67843 m -2.63762,4.33887 -1.53417,-1.07262 m -1.15709,0.93809 0.5592,1.81322 m -2.23388,-1.24502 0.48443,1.81322"
           inkstitch:satin_column="true"
           sodipodi:nodetypes="ccccccccccccccccccccccccccccccccccccccccccccccccccccccccccccccccccccccccccccccccccccccc" /><path
           id="path35"
           style="fill:none;stroke:#000000;stroke-width:1px"
           transform="matrix(7.37642 0 0 7.37642 -1008.77 313.559)"
           d="m 192.50137,70.839171 20.53908,-26.802469 3.0269,-3.880332 1.5811,-1.853098 1.67185,-1.74623 1.79412,-1.60013 1.94927,-1.417241 2.13833,-1.198158 2.35068,-0.938205 2.93956,-0.524873 2.77116,-0.09818 2.57298,0.29768 2.35946,0.660537 2.1312,0.991558 1.88771,1.291354 1.62869,1.560906 1.35324,1.800389 1.06087,2.009861 0.75107,2.189366 0.42321,2.338567 0.0775,2.45728 -0.28671,2.545461 -0.66936,2.603014 -1.07061,2.629639 -1.49254,2.628217 -47.20464,65.718226 -63.00131,19.32633 -19.44076,-13.25472 42.43308,-10.25968 0.0363,-0.0107 0.0351,-0.0142 0.0336,-0.0175 0.0317,-0.0207 0.0296,-0.0237 0.0271,-0.0264 0.0244,-0.0289 0.0215,-0.0312 0.0184,-0.0331 0.0151,-0.0347 0.0117,-0.036 0.008,-0.037 0.004,-0.0376 8.1e-4,-0.0378 -0.003,-0.0378 -0.007,-0.0373 -0.0101,-0.0365 -0.0136,-0.0353 -0.017,-0.0339 -0.0202,-0.032 -0.0232,-0.0299 -0.026,-0.0276 -0.0285,-0.0249 -0.0308,-0.022 -0.0328,-0.0189 -7.3884,-3.7959 m 42.40802,-43.427788 20.5401,-26.8038 0.002,-0.0027 3.0332,-3.8884 0.0108,-0.01325 1.5939,-1.8681 0.015,-0.01656 1.6902,-1.7654 0.0221,-0.02134 1.8201,-1.6233 0.0302,-0.02437 1.9836,-1.4422 0.0387,-0.02478 2.1807,-1.2219 0.046,-0.02197 2.4113,-0.9624 0.0374,-0.01278 0.0385,-0.0089 3.0058,-0.5367 0.0547,-0.0058 2.8281,-0.1002 0.0293,6.5e-5 0.0292,0.0023 2.6328,0.3046 0.0304,0.0047 0.0299,0.0071 2.4197,0.6774 0.0301,0.0098 0.0292,0.01218 2.1891,1.0185 0.0285,0.0147 0.0272,0.01699 1.9407,1.3276 0.0256,0.01913 0.024,0.02117 1.6747,1.605 0.0219,0.02276 0.02,0.02446 1.3909,1.8505 0.0176,0.02546 0.0155,0.02678 1.0895,2.0641 0.0131,0.02727 0.0109,0.0282 0.7705,2.246 0.009,0.02825 0.006,0.02882 0.4336,2.396 0.004,0.02845 0.002,0.02867 0.0793,2.5141 -0.002,0.05591 -0.2929,2.6004 -0.01,0.05344 -0.6827,2.6549 -0.0165,0.0499 -1.0901,2.6775 -0.0221,0.0455 -1.5153,2.6683 -0.0224,0.03491 -47.2934,65.841803 -0.0225,0.0284 -0.025,0.0262 -0.0273,0.0237 -0.0294,0.0211 -0.0312,0.0183 -0.0328,0.0153 -0.0341,0.0122 -63.306,19.4198 -0.0376,0.01 -0.0384,0.006 -0.0387,0.002 -0.0387,-0.002 -0.0384,-0.006 -0.0376,-0.01 -0.0364,-0.0133 -0.0349,-0.0168 -0.0331,-0.0202 -20.3209,-13.8548 -0.0311,-0.0236 -0.0286,-0.0266 -0.0258,-0.0293 -0.0227,-0.0318 -0.0195,-0.0339 -0.016,-0.0357 -0.0123,-0.0371 -0.009,-0.0381 -0.005,-0.0388 -7.8e-4,-0.0391 0.003,-0.0389 0.007,-0.0384 0.0108,-0.0375 0.0145,-0.0362 0.0181,-0.0346 0.0215,-0.0326 0.0246,-0.0303 0.0275,-0.0277 0.0302,-0.0248 0.0325,-0.0217 0.0345,-0.0183 0.0362,-0.0148 0.0375,-0.0111 42.26732,-10.2196 -6.45583,-3.31678 m 57.15105,-61.293264 -0.9281,-0.711212 m 32.17019,-20.732448 0.31522,-1.125976 m 8.35574,9.150977 1.106,-0.379417 m -13.30084,30.980638 0.94967,0.682137 m -28.92866,38.270175 0.94967,0.68214 m -25.17199,16.88969 0.34291,1.11786 m -47.06515,13.14408 0.34292,1.11785 m -2.4948,-1.39251 -0.65868,0.96609 m -16.25361,-13.4735 -0.27479,-1.13652 m 37.58687,-7.90995 -0.2748,-1.13652 m 40.91922,-48.309163 -1.48923,-1.182802 m -76.54837,60.266815 -1.20521,1.6936 m 36.19423,-16.8256 -0.78653,1.6936 m 4.43496,0.16052 -1.08559,1.6936"
           inkstitch:satin_column="true"
           sodipodi:nodetypes="ccccccccccccccccccccccccccccccccccccccccccccccccccccccccccccccccccccccccccccccccccccccccccccccccccccccccccccccccccccccccccccccccccccccccccccccccccccccccccccccccccccccccccccccccccccccccccc" /><path
           id="path33"
           style="stroke:#000000;stroke-width:1px;fill:none"
           transform="matrix(7.37642 0 0 7.37642 -1008.77 313.559)"
           d="M156.27631578712584,117.48720997998134 139.65521578712583,140.04630997998134  M156.90388421287417,117.94959002001866 140.28278421287416,140.50869002001866  M147.80887368068886,128.65116496997183 148.75022631931114,129.34473503002818  "
           inkstitch:satin_column="true" /><path
           id="path30"
           style="fill:none;stroke:#000000;stroke-width:1px"
           transform="matrix(7.37642 0 0 7.37642 -1008.77 313.559)"
           d="m 212.72803,77.937689 5.37487,5.7648 -32.1898,42.239771 m 27.38507,-48.536149 5.5991,6.0053 0.0251,0.02982 0.022,0.03219 0.0187,0.03423 0.0152,0.03593 0.0115,0.03726 0.008,0.03823 0.004,0.03881 -2e-5,0.039 -0.004,0.03881 -0.008,0.03822 -0.0116,0.03725 -0.0152,0.03591 -0.0187,0.03421 -0.0221,0.03217 -32.3891,42.501299 m 30.72659,-43.383685 0.85521,-0.797366 m -30.71374,40.815031 1.51352,1.10099 m 29.19072,-38.487365 -1.32006,-1.182802 m -3.67043,-5.414792 1.25977,-1.267386"
           inkstitch:satin_column="true"
           sodipodi:nodetypes="cccccccccccccccccccccccccccc" /><path
           id="path27"
           style="fill:none;stroke:#000000;stroke-width:1px"
           transform="matrix(7.37642 0 0 7.37642 -1008.77 313.559)"
           d="m 82.005399,129.29649 67.281701,-15.1835 0.0385,-0.0108 0.0372,-0.0147 0.0355,-0.0184 0.0334,-0.0219 0.031,-0.0252 0.0282,-0.0283 0.0252,-0.031 33.48092,-45.836796 29.23208,9.665365 -38.54625,51.815311 m -91.848979,-1.07046 67.139029,-15.15131 33.56214,-45.947994 0.0237,-0.02936 0.0264,-0.02693 0.0289,-0.02425 0.0311,-0.02134 0.0331,-0.01823 0.0346,-0.01494 0.0359,-0.01152 0.0369,-0.008 0.0375,-0.0044 0.0377,-7.44e-4 0.0376,0.0029 0.0372,0.0065 0.0364,0.0101 30.0143,9.924 0.0362,0.01399 0.0346,0.01751 0.0327,0.02086 0.0305,0.02401 0.0279,0.02692 0.0251,0.02956 0.022,0.0319 0.0188,0.03394 0.0153,0.03563 0.0117,0.03698 0.008,0.03795 0.004,0.03855 2.8e-4,0.03878 -0.004,0.03861 -0.007,0.03807 -0.0111,0.03714 -0.0148,0.03585 -0.0183,0.03421 -0.0216,0.03222 -38.8685,52.248498 m -26.50285,-15.44912 -0.2574,-1.14058 m 3.28622,-0.93473 -0.9442,-0.68968 m 32.37034,-42.300865 -0.9442,-0.689682 m 2.76014,-0.234436 0.36707,-1.110157 m 26.44746,10.251127 0.7054,-1.363911 m -0.28198,2.236007 0.93815,0.697902 M 84.97123,129.22276 84.704177,127.36439 m 90.897443,-1.31292 1.55582,1.0587"
           inkstitch:satin_column="true"
           sodipodi:nodetypes="ccccccccccccccccccccccccccccccccccccccccccccccccccccccccccccccccc" /><path
           id="path26"
           style="fill:none;stroke:#000000;stroke-width:1px"
           transform="matrix(7.37642 0 0 7.37642 -1008.77 313.559)"
           d="M 47.475386,183.10544 5.8628002,197.24403 5.8327552,220.8547 m 41.3918478,-38.4872 -41.8766004,14.2283 -0.034631,0.0136 -0.033172,0.0169 -0.03141,0.02 -0.029362,0.0229 -0.027045,0.0256 -0.024482,0.028 -0.021696,0.0302 -0.018712,0.0322 -0.015557,0.0338 -0.012261,0.0351 -0.00885,0.0361 -0.00536,0.0368 -0.00182,0.0372 -0.0304,23.8895 m -0.1688841,-20.43478 1.1692656,10e-4 m 1.597003,-3.18531 -0.7683339,-1.81322 m 38.4488338,-10.92701 -0.708524,-1.93284"
           inkstitch:satin_column="true"
           sodipodi:nodetypes="ccccccccccccccccccccccccc" /><path
           id="path28"
           style="fill:none;stroke:#000000;stroke-width:1px"
           transform="matrix(7.37642 0 0 7.37642 -1008.77 313.559)"
           d="m 5.523159,220.97374 40.645,21.6662 0.0344,0.0162 0.03582,0.0128 0.0369,0.009 0.03762,0.006 0.03799,0.002 0.03799,-0.002 0.03764,-0.005 0.03692,-0.009 0.03586,-0.0127 0.03445,-0.0161 0.03271,-0.0194 0.03067,-0.0225 0.02833,-0.0254 0.02572,-0.028 0.02286,-0.0304 0.01979,-0.0325 0.01653,-0.0342 0.01311,-0.0357 0.0096,-0.0368 0.0059,-0.0376 0.0022,-0.038 0.2284,-22.15 -0.0014,-0.0377 -0.0051,-0.0374 -0.0087,-0.0367 -0.0122,-0.0357 -0.0156,-0.0344 -0.01885,-0.0327 -0.02193,-0.0307 -0.0248,-0.0285 -0.02744,-0.0259 -0.02982,-0.0232 -0.03192,-0.0202 -40.7840004,-23.0835 m -0.098041,23.56255 40.0785434,21.36424 0.21941,-21.27818 -40.583876,-22.97023 m 35.369084,42.68976 0.550023,-1.03182 m 5.578885,-12.83746 -1.169205,-0.0121 m -3.796427,-9.25096 -0.575945,1.01759 M 8.4373013,197.21576 7.1122747,199.02898"
           inkstitch:satin_column="true"
           sodipodi:nodetypes="cccccccccccccccccccccccccccccccccccccccccccccccc" /><path
           id="path36"
           style="display:inline;fill:none;stroke:#000000;stroke-width:1px"
           transform="matrix(7.37642,0,0,7.37642,-1008.77,313.559)"
           d="m 200.63462,73.131092 0.0931,-1.509747 0.25149,-1.339353 0.39634,-1.196299 0.5275,-1.059481 0.64553,-0.92896 0.75178,-0.804338 0.84681,-0.684489 0.92091,-0.562679 2.07413,-0.805025 2.24486,-0.368917 2.31845,0.03993 2.27983,0.422951 2.1286,0.776492 1.86579,1.097073 1.50554,1.390192 0.57073,0.775576 0.44883,0.842478 0.30928,0.897283 0.15899,0.951629 -0.004,1.006286 -0.18102,1.061995 -0.37427,1.117368 -0.58407,1.170458 -0.81038,1.220075 -1.0578,1.271901 -2.24238,2.450804 m -15.86287,-7.281192 0.0946,-1.5339 0.006,-0.04794 0.2608,-1.3889 0.0131,-0.05065 0.4133,-1.2475 0.0211,-0.05114 0.5525,-1.1097 0.0288,-0.0487 0.6778,-0.9754 0.0353,-0.04373 0.7896,-0.8448 0.0397,-0.03698 0.8879,-0.7177 0.0418,-0.02947 0.9725,-0.5942 0.0304,-0.01677 0.0318,-0.01399 2.1444,-0.8323 0.0384,-0.01264 0.0395,-0.0086 2.3196,-0.3812 0.0348,-0.0041 0.0351,-9.76e-4 2.3861,0.0411 0.0323,0.0019 0.032,0.0046 2.3437,0.4348 0.0316,0.0072 0.0309,0.0098 2.1925,0.7998 0.0327,0.01363 0.0313,0.01654 1.9325,1.1363 0.0348,0.02302 0.0321,0.02661 1.5637,1.4439 0.0261,0.02649 0.0234,0.02885 0.6096,0.8284 0.0301,0.04775 0.4766,0.8946 0.0134,0.02764 0.0111,0.02861 0.3299,0.9571 0.009,0.03106 0.007,0.03172 0.1698,1.0163 0.004,0.03273 0.001,0.03296 -0.004,1.0716 -0.001,0.03213 -0.004,0.0319 -0.1915,1.1235 -0.006,0.02943 -0.008,0.02887 -0.3925,1.1718 -0.0208,0.05024 -0.607,1.2164 -0.0241,0.04161 -0.8353,1.2576 -0.025,0.03358 -1.0771,1.2951 -0.0121,0.01388 -2.2486,2.4576 m -15.27886,-9.746757 -1.14918,-0.215788 m 6.28553,-6.093876 -0.42308,-1.090042 m 9.36643,1.203018 0.4007,-1.098462 m 4.96325,5.833903 1.10544,-0.381031 m -3.49054,8.172097 0.89899,0.747665"
           inkstitch:satin_column="true" /><path
           id="path21"
           style="display:none;fill:none;stroke:#000000;stroke-width:1px"
           transform="matrix(7.37642,0,0,7.37642,-1008.77,313.559)"
           d="m 203.04592,74.335694 1.03645,-2.187358 1.12333,-1.941775 1.26051,-1.668578 1.44464,-1.363999 1.68066,-1.033203 1.97792,-0.675742 2.34045,-0.282781 2.78954,0.1547 m -14.35794,8.664948 1.0433,-2.2018 0.0148,-0.02828 1.1433,-1.9763 0.0264,-0.03977 1.2946,-1.7137 0.0207,-0.02514 0.0227,-0.02332 1.4976,-1.414 0.0305,-0.02595 0.033,-0.02269 1.7519,-1.077 0.038,-0.02057 0.0401,-0.01623 2.0577,-0.703 0.0392,-0.01113 0.0401,-0.007 2.4151,-0.2918 0.0341,-0.0026 0.0342,3.93e-4 2.8238,0.1566 m -12.8896,8.528918 -1.05665,-0.500681 m 5.89361,-5.663089 -0.61236,-0.996093"
           inkstitch:satin_column="true" /><path
           id="path2"
           style="stroke:#000000;stroke-width:1px;fill:none"
           transform="matrix(7.37642 0 0 7.37642 -1008.77 313.559)"
           d="M68.80679308438549,67.3388823489638 67.5206930843855,71.3456823489638 67.51639190246789,71.36002348587297 66.36859190246788,75.47252348587297 66.36503977229978,75.4862038780919 65.35443977229978,79.69030387809191 65.35153388155776,79.70337676505588 64.47673388155775,83.98487676505587 64.47338922896624,84.00355339533832 63.12698922896624,92.74285339533832 63.124082318095894,92.76650654683733 62.3073823180959,101.64700654683733 62.305960011489795,101.66974025630036 62.00956001148979,110.57884025630037 62.009459673358094,110.60127488573471 62.2240596733581,119.4263748857347 62.225279862926186,119.44913592283231 62.94137986292618,128.07763592283231 62.944091953879855,128.10142375177975 64.15249195387986,136.42092375177975  M69.5490069156145,67.57711765103619 68.26519525879816,71.57678839711483 67.12130820887118,75.67526852677562 66.11392548541059,79.86598464363762 65.24236581211372,84.13162563725959 63.89922595606371,92.8497644845397 63.0846611289436,101.70704738798055 62.78901313326478,110.59354387348044 63.00306315252015,119.39602674827323 63.71722957422524,128.001228493396 64.92390804612015,136.30887624822026  M68.40810312262128,67.9433429185586 69.52142386946484,68.30069587166706  M65.71208289277733,77.36872099679654 66.84896357587799,77.64200936252085  M63.70978839189382,87.68013421494696 64.8654207049951,87.85817402893197  M62.62999019776318,96.01111303139837 63.794343243475495,96.11819339088646  M61.99732945520122,105.08564612403329 63.165949420731856,105.12452535513212  M61.90157832226237,114.18123931727311 63.07049930218808,114.15281466006903  M62.34656869766858,123.26679317617071 63.51182910889003,123.17008540767377  M63.25793717175428,131.61791985057135 64.41506131011472,131.44984859523225  "
           inkstitch:satin_column="true" /><g
           id="Schrauben"><g
             id="g650"><path
               id="path37"
               style="stroke:#000000;stroke-width:1px;fill:none"
               transform="matrix(7.37642 0 0 7.37642 -1008.77 313.559)"
               d="M103.49875215081367,213.40721163694607 103.55775215081367,212.48971163694605 103.55848721959693,212.45740421435895 103.5565433604979,212.42514694708254 103.55193393669119,212.39316158961216 103.36663393669119,211.40076158961216 103.35815053428325,211.36484612726116 103.34630833764568,211.32989400384787 102.95430833764567,210.33119400384788 102.94126864474936,210.3016370599359 102.9258259739448,210.27326153451932 102.3648259739448,209.3370615345193 102.34655382925997,209.30932252497144 102.32598617259363,209.28324005152018 101.63348617259362,208.4781400515202 101.60601382037834,208.44931952418673 101.57574442851615,208.42345223116425 100.78954442851615,207.81825223116425 100.76019832665078,207.79773774494572 100.72909344873194,207.78000290891163 100.6964923041344,207.7651973960724 99.8540923041344,207.4283973960724 99.81902446682423,207.41627883231186 99.78296320523306,207.40754967349312 99.74623530893538,207.40228902383961 99.70917360859417,207.4005445557119 98.84837360859417,207.40104455571188 98.81343807347095,207.4026338029554 98.7787856258801,207.40734816368735 98.74469525155557,207.41514968274205 98.71144141099764,207.42597555034212 98.67929182980026,207.4397386077779 97.66659182980025,207.92813860777792 97.63492942525447,207.94525361853772 97.60498082957567,207.9652164107221 97.57700143422547,207.98785674841318 97.55122983799329,208.01298156249356 96.7115298379933,208.91088156249356 96.6898151243094,208.93618992226692 96.67034327975405,208.96326184747372 96.65325684660816,208.99189915997232 96.01115684660816,210.1808991599723 95.99465642610124,210.21540270477482 95.98161714284349,210.2513573369238 95.56211714284349,211.61315733692382  M102.72084784918634,213.35718836305395 102.77672012188997,212.4883271731289 102.60716250669059,211.58023771104655 102.24052572484001,210.64615568544923 101.71329423145804,209.76630876191228 101.06858032391881,209.01676483850463 100.35690152754695,208.4689296724346 99.63448204791077,208.18009909225717 98.93778298710805,208.18050377340305 98.07081721734953,208.5986197820434 97.31523587363543,209.40657082232073 96.71528251478748,210.51752634898358 96.30708285715652,211.8426426630762  M103.70997126601387,213.15934899761558 102.54311481357288,213.08431408677714  "
               inkstitch:satin_column="true" /><path
               id="path38"
               style="stroke:#000000;stroke-width:1px;fill:none"
               transform="matrix(7.37642 0 0 7.37642 -1008.77 313.559)"
               d="M95.54769744361195,211.68082803949608 95.37539744361194,213.09702803949608 95.37265361531658,213.13487760831256 95.37360368025922,213.17281460647942 95.47350368025923,214.5251146064794 95.47730909340686,214.55778686852418 95.48385585017209,214.59002190927495 95.49309732199193,214.62159013816017 95.88989732199192,215.79149013816019 95.90279188126846,215.8244933429542 95.91863038421167,215.8561891314778 95.93728193077187,215.88631554839927 95.95859237201347,215.91462360873024 96.67709237201348,216.78382360873024 96.70027964789267,216.80946757834238 96.72564816670749,216.8329558987018 96.75299832225288,216.85410375750143 96.78211491628268,216.8727447578037 96.81276885174628,216.88873222729575 97.57956885174627,217.24633222729574 97.61338949440531,217.26021278529933 97.648361893925,217.27086346754027 97.68417836146938,217.27819056880907 97.72052378205186,217.28212962491997 98.61062378205186,217.33652962491996 98.64604361798494,217.3370815495702 98.68136727011391,217.33441527902545 98.71630294225982,217.32855283840235 99.66820294225981,217.12395283840235 99.70645206077782,217.1136732998695 99.74346045118784,217.09956503920026 100.69526045118785,216.68016503920026 100.72503521015805,216.66550085498204 100.75345440369708,216.64835664286508 101.64345440369708,216.05835664286508 101.66967824442554,216.03935831593333 101.69423447696826,216.0182486571946 102.46063447696827,215.3019486571946 102.48644381888012,215.27542115370935 102.50962058058464,215.2465651614725 103.09082058058463,214.4480651614725 103.10876421195617,214.4211292180475 103.1244111377083,214.39279738666474 103.13765346158252,214.36326503468587 103.47175346158252,213.52676503468587  M96.32150255638805,211.77497196050393 96.15380212763236,213.15336631455966 96.24724065783658,214.41820039258923 96.60507824350007,215.47322607673166 97.22190007050087,216.21942166758635 97.84195263164732,216.50858545979548 98.6047893067851,216.5552075417273 99.46552435550709,216.3702024036156 100.35048454070437,215.98025461871148 101.18568506365055,215.42658236192693 101.90123392936613,214.75780932889973 102.43185258370471,214.02880211023253 102.74784653841749,213.23763496531416  M95.26074971002939,212.42577540295426 96.42145737919347,212.56699128446658  "
               inkstitch:satin_column="true" /><path
               id="path31"
               style="display:none;fill:none;stroke:#000000;stroke-width:1px"
               transform="matrix(7.37642,0,0,7.37642,-1008.77,313.559)"
               d="m 102.8035,211.62009 -6.904504,2.8273 m 6.609104,-3.54868 -6.904496,2.8273 m 3.378401,-1.59399 0.44309,1.08206"
               inkstitch:satin_column="true"
               sodipodi:nodetypes="cccccc" /></g><g
             id="g651"><path
               id="path39"
               style="fill:none;stroke:#000000;stroke-width:7.37642px"
               d="m -142.50883,1640.7139 2.56699,-6.8903 0.0782,-0.2412 0.059,-0.2471 0.0369,-0.2508 0.73838,-7.9916 0.0147,-0.2869 -0.0147,-0.287 -0.92132,-8.4969 -0.0369,-0.2441 -0.059,-0.2398 -2.41283,-8.4047 -0.0782,-0.2338 -0.0981,-0.2265 -3.73763,-7.7172 -0.1372,-0.2515 -0.16154,-0.2361 -4.89426,-6.4329 -0.1608,-0.1933 -0.1763,-0.1778 -0.19179,-0.1622 -5.88269,-4.552 -0.21023,-0.1483 -0.22277,-0.1291 -0.23383,-0.1084 -0.24195,-0.087 -6.70369,-2.0757 -0.29874,-0.075 -0.30465,-0.044 -0.3076,-0.01 -0.30685,0.022 -9.09439,1.1721 -0.24711,0.044 -0.24269,0.066 -0.23604,0.085 -0.2272,0.1054 -8.92399,4.6125 -0.20433,0.1166 -0.194,0.1327 -0.18293,0.1483 -8.23061,7.2577 -0.19769,0.1917 -0.17851,0.2095 -7.01497,9.1055 m 54.09438,31.1646 2.43348,-6.5319 0.67642,-7.3234 -0.86356,-7.9641 -2.27643,-7.9296 -3.50461,-7.236 -4.49092,-5.9029 -5.17153,-4.0017 -5.60888,-1.7367 -7.97155,1.0274 -8.15862,4.2169 -7.75719,6.8401 -6.84627,8.8865 m 57.01109,28.1881 -8.08234,-3.0111 m -23.22414,-52.7467 1.10248,8.5542"
               inkstitch:satin_column="true" /><path
               id="path46"
               style="fill:none;stroke:#000000;stroke-width:7.37642px"
               d="m -202.26528,1607.9713 -5.27488,10.1559 -0.11802,0.2574 -0.0922,0.2678 -3.01327,10.4103 -0.059,0.2405 -0.0369,0.2449 -0.0147,0.2471 -0.22793,9.8675 0.006,0.2655 0.0295,0.2641 0.0516,0.2596 0.0789,0.2538 3.08113,8.5286 0.0981,0.2375 0.11876,0.2279 0.13868,0.2162 0.15786,0.2028 0.17555,0.1881 5.30881,5.2166 0.20286,0.1815 0.21907,0.1608 0.2331,0.1394 0.2449,0.1173 7.2643,3.0583 0.24489,0.091 0.25228,0.066 0.25743,0.044 8.5537,1.0807 0.29137,0.022 0.2921,-0.01 9.17848,-0.7147 0.2449,-0.03 0.24195,-0.052 9.13643,-2.3287 0.23457,-0.074 0.2272,-0.09 8.42903,-3.7619 0.25375,-0.1284 0.23973,-0.1534 7.05702,-5.0138 0.19917,-0.1549 0.18441,-0.1719 0.16892,-0.1873 5.01818,-6.0848 m -54.17767,-30.9178 -5.14372,9.9034 -2.83019,9.7779 -0.20728,8.9561 2.67617,7.4076 4.44975,4.3724 6.39359,2.6917 7.87108,0.9944 8.63911,-0.6727 8.65874,-2.2071 7.94441,-3.5456 6.51382,-4.6278 4.77579,-5.7909 m -58.64542,-25.7103 7.65414,3.9756 m 37.98687,40.7896 -3.51523,-7.8762"
               inkstitch:satin_column="true" /><path
               id="path40"
               style="display:none;fill:none;stroke:#000000;stroke-width:1px"
               transform="matrix(7.37642,0,0,7.37642,-1008.77,313.559)"
               d="m 112.23913,181.62733 0.4598,-8.3726 m 0.31854,8.41534 0.4598,-8.3726 m -0.0353,4.19699 -1.1675,-0.0641"
               inkstitch:satin_column="true"
               sodipodi:nodetypes="cccccc" /></g><g
             id="g652"><path
               id="path41"
               style="stroke:#000000;stroke-width:1px;fill:none"
               transform="matrix(7.37642 0 0 7.37642 -1008.77 313.559)"
               d="M226.5335509764635,168.52279431721223 226.77615097646347,167.54209431721222 226.78282951826833,167.50901138460932 226.78662093896014,167.47547471096115 226.78749680879466,167.44173576903523 226.76819680879467,166.32983576903524 226.76568586645755,166.2919182092926 226.75949434594094,166.25442539342143 226.50949434594094,165.09532539342143 226.50122587152157,165.06354921104366 226.49031217944253,165.0325817319578 226.04071217944252,163.9100817319578 226.02694438624565,163.87957348316692 226.01060982558704,163.85035897475262 225.39250982558704,162.84845897475262 225.36976097390993,162.815502705811 225.34375058632514,162.78505462454362 224.58845058632514,161.9877546245436 224.56235229119574,161.96265113318861 224.53403680530502,161.94007815054027 224.5037485525334,161.92023053025684 223.6423485525334,161.41133053025686 223.60883986991522,161.3936718402143 223.57377535233005,161.37934910474416 223.53748615581554,161.36849759051074 223.5003150025123,161.36121978129825 222.5638150025123,161.22471978129823 222.52835266428312,161.2211973734281 222.49271683069847,161.22092875731727 222.45720542261955,161.22391617863624 222.4221153206917,161.23013466209915 222.38773988337832,161.23953222026074 221.31003988337832,161.58783222026074 221.27535512818602,161.60089385108512 221.24206784304013,161.61719093948022 221.21047902779506,161.6365761192306 221.18087432391266,161.65887410009384 220.23477432391266,162.44467410009383 220.20930891190324,162.46779799393437 220.1859814742778,162.49307708270334 220.16497370532903,162.52031447095834 219.38587370532903,163.62831447095834 219.36509351755197,163.66124939298248 219.3477036529804,163.6960935876635 218.7714036529804,165.01149358766352  M225.77684902353653,168.3356056827878 226.00721932901317,167.4043436935835 225.98946505581173,166.3814951768647 225.75444680968963,165.29185658054402 225.32956748014158,164.2310757811275 224.75019960488947,163.29195804254948 224.06016278357484,162.5635503136548 223.3119341423085,162.12150996591805 222.54114624276946,162.00916341142036 221.62118369747776,162.306484516111 220.77276379980896,163.01115458860664 220.04601014797677,164.04471003236236 219.4853963470196,165.32430641233648  M226.78944921748365,168.29986763550664 225.6543962880936,168.0190846838683  M221.6546951321708,161.2716411043875 222.01427548203594,162.38424444360524  "
               inkstitch:satin_column="true" /><path
               id="path47"
               style="stroke:#000000;stroke-width:1px;fill:none"
               transform="matrix(7.37642 0 0 7.37642 -1008.77 313.559)"
               d="M218.74941597946824,165.0769029133056 218.41141597946825,166.4846029133056 218.4045077019598,166.5208597778728 218.40106000854408,166.55760753884528 218.33706000854409,167.94250753884526 218.33771413345792,167.98935575775667 218.34398500780875,168.03578699325016 218.58948500780875,169.28278699325017 218.60052318047414,169.3257734776869 218.61637667966838,169.3672264107957 218.63683994658638,169.4066083077417 219.22763994658638,170.40080830774167 219.25045655968287,170.4349667819991 219.27674155246777,170.46653414411713 219.30620295296242,170.49515974590443 219.33851350585937,170.52052561605086 220.03081350585936,171.00732561605088 220.05969108223758,171.02578887359024 220.09007909977592,171.04164367370035 220.1217425496843,171.0547674016899 220.15443655948806,171.0650585638884 221.02053655948808,171.29635856388842 221.0533294423353,171.3036183282741 221.08662558865436,171.30802786165816 221.1201777416014,171.3095544188906 222.09217774160138,171.3118544188906 222.1307140126369,171.3100362623662 222.1688817559397,171.30441725447852 223.1783817559397,171.10431725447853 223.2107328244333,171.09645513734677 223.24229490327485,171.08586081350472 224.22139490327487,170.70996081350472 224.25197813144902,170.69669195021496 224.2813155737435,170.68085809224627 225.1619155737435,170.15575809224626 225.194236195453,170.1342330743138 225.22425447084254,170.10959870549067 225.93805447084253,169.46169870549068 225.9621916083579,169.43779028926747 225.98415500963918,169.4118707449448 226.00377779582738,169.3841370103252 226.4828777958274,168.6402370103252  M219.50738402053176,165.25889708669442 219.17803038344078,166.63058677584527 219.1179146803086,167.93143423315428 219.34132201839313,169.06621610929054 219.8551371516379,169.93086574617598 220.42250675167838,170.32981926531468 221.17270075648608,170.5301654993662 222.05530081637937,170.53225395629804 222.99407123625795,170.34617375717204 223.91079668864592,169.99422084372844 224.7292068892483,169.50620449540193 225.37618253750023,168.918959437259 225.82752220417262,168.21816298967482  M218.3788198971478,165.78566532330524 219.5157719587427,166.05865658339002  M226.50671345000134,168.963138969919 225.5236800625199,168.3300279389423  "
               inkstitch:satin_column="true" /><path
               id="path42"
               style="display:none;fill:none;stroke:#000000;stroke-width:1px"
               transform="matrix(7.37642,0,0,7.37642,-1008.77,313.559)"
               d="m 226.0953,167.76451 -6.751,-1.1617 m 6.8832,0.39348 -6.751,-1.1617 m 3.40855,0.38879 -0.1983,1.15234"
               inkstitch:satin_column="true"
               sodipodi:nodetypes="cccccc" /></g><g
             id="g653"><path
               id="path43"
               style="stroke:#000000;stroke-width:1px;fill:none"
               transform="matrix(7.37642 0 0 7.37642 -1008.77 313.559)"
               d="M225.6185808027211,140.43935614652824 225.4745808027211,139.61215614652824 225.4676242083029,139.58019663994142 225.45801246404253,139.54893294471125 225.44581325954906,139.51858523183373 225.06931325954906,138.68488523183373 225.0521745406542,138.65135422776777 225.03187991803094,138.6196336948024 224.46987991803093,137.82823369480238 224.44979302554236,137.80232849893375 224.4276003395475,137.77820284637937 223.7272003395475,137.0783028463794 223.7027949964582,137.05590494744303 223.67657591923592,137.03566027807847 222.88467591923592,136.47626027807846 222.85203792148553,136.45555142066627 222.8175091788126,136.4381772558835 221.9813091788126,136.06817725588348 221.9498533751486,136.05585965386348 221.91744911639563,136.04631214537466 221.88433983354386,136.03960645430558 221.05083983354388,135.9081064543056 221.016689465155,135.9042525261133 220.9823323627699,135.9034219002598 220.94803565402856,135.90562103488926 220.91406599700824,135.91083283165523 220.13026599700822,136.06673283165523 220.09042642254502,136.07686740044298 220.0518758726562,136.09114172288545 220.0150431992617,136.10939700564242 219.98033814392807,136.13143016955982 219.03533814392807,136.8038301695598 219.0007968668773,136.83149057407778 218.9696136229971,136.86288807556284 218.94219038199145,136.89761794240886 218.20789038199143,137.94471794240886 218.18348653932244,137.98435913017846 218.16398288070948,138.02662706844743 217.6558828807095,139.32672706844744 217.64414416179528,139.3615139629234 217.6357307348639,139.39725105564648 217.3692307348639,140.82845105564647  M224.8506191972789,140.57304385347177 224.7150806295743,139.7944500812131 224.37444010790554,139.04015525275304 223.85335034054472,138.30636443088582 223.19969484931732,137.65317556979213 222.46661203399935,137.13532416571474 221.71250711571832,136.8016494231125 220.99799009018685,136.68892118213185 220.36422806682728,136.81497821127417 219.54190453788038,137.4000896830878 218.87298115339652,138.35396367994608 218.39532589358274,139.57616325342357 218.1355692651361,140.97114894435353  M225.76758416293015,140.1589975500665 224.61564175476715,140.35952911048344  "
               inkstitch:satin_column="true" /><path
               id="path48"
               style="stroke:#000000;stroke-width:1px;fill:none"
               transform="matrix(7.37642 0 0 7.37642 -1008.77 313.559)"
               d="M217.36265332491266,140.89717571654288 217.35295332491268,142.33777571654286 217.3546749266445,142.377086510501 217.36035138787315,142.41602338533784 217.62305138787315,143.74422338533785 217.6314273985528,143.77839003129662 217.64284994667415,143.8116622816773 217.65722597937608,143.8437690867929 218.20762597937608,144.93776908679288 218.22641772813662,144.9709666878064 218.2483647831894,145.00216824720715 218.27325690346558,145.0310748707161 218.30085563574391,145.05740964831455 219.1542556357439,145.79540964831455 219.18293740499132,145.81795562970464 219.2136015908365,145.83772107608098 219.24597952672866,145.8545328110113 219.27978753096815,145.86824353722645 219.3147293922049,145.87873312717628 220.2197293922049,146.10483312717628 220.25810944336052,146.11239833686597 220.29705452340698,146.1160782097623 220.33617231861626,146.1158356766218 220.37506877541207,146.11167318060498 221.34526877541208,145.95827318060498 221.38173765747672,145.95070527028943 221.41731764156276,145.93969085437095 221.45168380742095,145.92533051768282 222.42938380742095,145.46073051768283 222.46507709901354,145.44143060406483 222.49857038569456,145.4185243281196 223.42567038569456,144.7109243281196 223.45124194145805,144.68961928622227 223.47490253862352,144.66621019789773 224.29370253862353,143.7838101978977 224.31454838290276,143.75940198699845 224.33331509351856,143.73336123901234 224.98571509351856,142.74466123901234 225.00444996375634,142.71313650658612 225.0201390716057,142.67999052625274 225.44833907160572,141.65299052625272 225.459559173899,141.6225769580875 225.4682130614858,141.5913361825906 225.47424086865803,141.55948431663728 225.62024086865802,140.5626843166373  M218.14214667508733,140.90242428345712 218.13271263197916,142.30352557228613 218.37744368439107,143.54087533937218 218.8692257383123,144.51836365149032 219.59384238104292,145.1449948705379 220.3316971033871,145.32933625476113 221.16794543386283,145.19711558490442 222.05801690475815,144.77415638946823 222.92619908254426,144.11152484055071 223.7004085128907,143.27717896690913 224.31482038429397,142.34604926541252 224.71004495974464,141.39813791793972 224.84895913134199,140.4497156833627  M217.16312746931845,141.58683445147446 218.33236749458047,141.59470730184634  "
               inkstitch:satin_column="true" /><path
               id="path44"
               style="display:none;fill:none;stroke:#000000;stroke-width:1px"
               transform="matrix(7.37642,0,0,7.37642,-1008.77,313.559)"
               d="m 224.44765,138.34694 -5.6771,5.8957 m 5.1156,-6.43638 -5.6771,5.8957 m 2.69817,-3.08303 0.84226,0.81104"
               inkstitch:satin_column="true"
               sodipodi:nodetypes="cccccc" /></g></g></g></g></g></svg>
