<?xml version="1.0" encoding="UTF-8" standalone="no"?>
<!-- Created with Inkscape (http://www.inkscape.org/) -->

<svg
   width="70mm"
   height="70mm"
   viewBox="0 0 70 70"
   version="1.1"
   id="svg1"
   xml:space="preserve"
   inkscape:version="1.3.2 (091e20e, 2023-11-25)"
   sodipodi:docname="Lilie.svg"
   xmlns:inkscape="http://www.inkscape.org/namespaces/inkscape"
   xmlns:sodipodi="http://sodipodi.sourceforge.net/DTD/sodipodi-0.dtd"
   xmlns="http://www.w3.org/2000/svg"
   xmlns:svg="http://www.w3.org/2000/svg"
   xmlns:inkstitch="http://inkstitch.org/namespace"><sodipodi:namedview
     id="namedview1"
     pagecolor="#ffffff"
     bordercolor="#000000"
     borderopacity="0.25"
     inkscape:showpageshadow="2"
     inkscape:pageopacity="0.0"
     inkscape:pagecheckerboard="0"
     inkscape:deskcolor="#d1d1d1"
     inkscape:document-units="mm"
     inkscape:zoom="1.7348849"
     inkscape:cx="186.75591"
     inkscape:cy="139.77873"
     inkscape:window-width="1680"
     inkscape:window-height="924"
     inkscape:window-x="0"
     inkscape:window-y="25"
     inkscape:window-maximized="0"
     inkscape:current-layer="layer1" /><metadata
     id="metadata1"><inkstitch:min_stitch_len_mm>0</inkstitch:min_stitch_len_mm><inkstitch:collapse_len_mm>3</inkstitch:collapse_len_mm><inkstitch:inkstitch_svg_version>1</inkstitch:inkstitch_svg_version></metadata><defs
     id="defs1" /><g
     inkscape:label="Ebene 1"
     inkscape:groupmode="layer"
     id="layer1"><g
       id="g3"
       transform="matrix(0.36163745,0,0,0.36163745,16.918475,11.248379)"
       style="fill:#f31d1d;fill-opacity:1"><path
         d="m 55.835,70.294 v -5.5639 c 0,-1.5632 0.34286,-3.3113 2.8313,-5.114 3.6,-2.5958 8.6556,-3.0197 12.97,-4.504 l -2.3297,16.957 c -0.4107,3.0876 -1.681,3.207 -3.8914,2.8093 l -6.1405,-1.1133 c 4.4202,4.0008 8.8144,8.0282 13.181,12.056 2.4618,2.2787 4.2227,2.8875 7.6761,2.6231 2.4618,-0.19888 3.6406,-1.6699 5.427,-3.5502 5.3724,-5.6573 13.737,-16.455 14.293,-32.987 0.39738,-2.5704 -0.07935,-4.9285 -0.58213,-7.896 -0.47673,-4.478 -1.5877,-6.6505 -4.3148,-9.8564 -3.494,-3.1264 -7.4914,-2.7686 -11.673,-1.2721 -7.7682,2.8087 -16.941,8.3726 -24.538,12.135 l 2.4091,-16.508 30.625,-1.2982 c 2.5945,-0.13218 2.5945,-0.18554 1.4562,-2.172 -1.853,-3.3653 -3.7587,-6.1739 -7.2267,-9.5126 -0.68874,-0.74218 -1.3757,-1.2455 -2.5932,-1.1927 h -20.753 c 0,0 0.13267,-0.79494 0.34407,-1.9076 0.27925,-1.471 0.90015,-6.1739 0.9262,-8.0549 0.08056,-2.517 -3.5988,-3.3647 -6.2726,-3.7358 -2.5139,-0.37049 -2.6726,-0.50328 -7.6495,-0.63607 -4.989,0.13279 -5.1483,0.27832 -7.6761,0.63607 -2.6599,0.38504 -6.3392,1.2327 -6.2732,3.7364 0.03998,1.8815 0.64876,6.5838 0.9262,8.0549 0.21201,1.126 0.3574,1.9215 0.34407,1.9215 l -20.739,-0.01394 c -1.2176,-0.03941 -1.9057,0.45052 -2.5938,1.206 -3.4807,3.338 -5.3737,6.1467 -7.2261,9.5119 -1.1388,1.987 -1.1388,2.0398 1.4423,2.1592 l 30.625,1.3116 2.4091,16.494 c -7.5968,-3.7491 -16.755,-9.3137 -24.537,-12.122 -4.1694,-1.4971 -8.1789,-1.8549 -11.66,1.2721 -2.7392,3.2064 -3.8508,5.3657 -4.3281,9.843 -0.50278,2.9675 -0.9789,5.339 -0.5688,7.896 0.54276,16.547 8.9204,27.33 14.28,32.987 1.787,1.8809 2.9779,3.3513 5.4397,3.5502 3.4413,0.26437 5.2143,-0.34441 7.6622,-2.6231 4.3808,-4.028 8.775,-8.0415 13.182,-12.043 l -6.1278,1.0999 c -2.2498,0.39777 -3.494,0.29105 -3.9041,-2.8093 l -2.3291,-16.957 c 4.3142,1.4971 9.4231,1.9743 12.97,4.504 2.4485,1.7621 2.8852,3.7091 2.8586,5.114 l -0.14599,5.5779 z"
         clip-rule="evenodd"
         fill="current-color"
         fill-rule="evenodd"
         stroke-width="0.60606"
         id="path1"
         inkstitch:running_stitch_length_mm="1.5"
         style="fill:#f31d1d;fill-opacity:1" /><path
         d="m 50.01,99.996 c 1.893,0.04002 5.1489,-0.21222 7.0407,-0.46326 2.3297,-0.39777 2.3697,-0.23951 2.211,-2.2526 l -0.54276,-6.5717 6.7239,5.5245 c 1.5083,1.126 6.1012,-0.54269 5.4518,-1.4043 l -15.207,-21.62 h -11.355 l -15.207,21.62 c -0.64816,0.86224 3.9441,2.5309 5.453,1.4043 l 6.7233,-5.5245 -0.54276,6.5717 c -0.1587,2.0131 -0.11933,1.8549 2.2098,2.2526 1.893,0.25103 5.1489,0.50328 7.0413,0.46326 z"
         clip-rule="evenodd"
         fill="current-color"
         fill-rule="evenodd"
         stroke-width="0.60606"
         id="path2"
         inkstitch:running_stitch_length_mm="1.5"
         style="fill:#f31d1d;fill-opacity:1" /></g></g></svg>
