<?xml version="1.0" encoding="UTF-8" standalone="no"?>
<!-- Created with Inkscape (http://www.inkscape.org/) -->

<svg
   width="70mm"
   height="70mm"
   viewBox="0 0 70 70"
   version="1.1"
   id="svg1"
   xml:space="preserve"
   inkscape:version="1.3.2 (091e20e, 2023-11-25)"
   sodipodi:docname="Lilie_Regenbogen.svg"
   xmlns:inkscape="http://www.inkscape.org/namespaces/inkscape"
   xmlns:sodipodi="http://sodipodi.sourceforge.net/DTD/sodipodi-0.dtd"
   xmlns="http://www.w3.org/2000/svg"
   xmlns:svg="http://www.w3.org/2000/svg"
   xmlns:inkstitch="http://inkstitch.org/namespace"><sodipodi:namedview
     id="namedview1"
     pagecolor="#ffffff"
     bordercolor="#000000"
     borderopacity="0.25"
     inkscape:showpageshadow="2"
     inkscape:pageopacity="0.0"
     inkscape:pagecheckerboard="0"
     inkscape:deskcolor="#d1d1d1"
     inkscape:document-units="mm"
     inkscape:zoom="2.3637086"
     inkscape:cx="73.19007"
     inkscape:cy="155.89908"
     inkscape:window-width="1680"
     inkscape:window-height="924"
     inkscape:window-x="0"
     inkscape:window-y="25"
     inkscape:window-maximized="0"
     inkscape:current-layer="layer1" /><metadata
     id="metadata1"><inkstitch:min_stitch_len_mm>0</inkstitch:min_stitch_len_mm><inkstitch:collapse_len_mm>3</inkstitch:collapse_len_mm><inkstitch:inkstitch_svg_version>1</inkstitch:inkstitch_svg_version></metadata><defs
     id="defs1" /><g
     inkscape:label="Ebene 1"
     inkscape:groupmode="layer"
     id="layer1"><g
       id="g3"
       transform="matrix(0.36163745,0,0,0.36163745,16.918475,11.248379)"
       style="fill:#f31d1d;fill-opacity:1"><path
         id="path1"
         style="fill:#f31d1d;fill-opacity:1"
         d="M 50.008851,8.3002817e-5 C 45.019856,0.13287287 44.861721,0.27821917 42.333923,0.63596882 39.674026,1.0210084 35.994802,1.8689936 36.060802,4.3726911 c 0.03998,1.8814981 0.648525,6.5825029 0.925964,8.0536009 0.21201,1.125999 0.35628,1.921947 0.34295,1.921947 l -20.738451,-0.01429 c -1.217599,-0.03941 -1.905458,0.450561 -2.593557,1.20604 -3.480696,3.337997 -5.3738367,6.147369 -7.2262348,9.512566 -1.1387989,1.986998 -1.1392799,2.039754 1.4418175,2.159154 l 30.6254043,1.311782 2.409221,16.49445 C 33.651123,41.268844 24.493289,35.702968 16.711297,32.89467 12.541901,31.397572 8.5321056,31.040874 5.0510091,34.167871 2.3118118,37.374268 1.1999982,39.53323 0.7226987,44.010526 28.27336,54.98012 72.195557,55.17435 99.269281,44.010526 98.792552,39.53253 97.682358,37.360907 94.95526,34.15501 91.461264,31.028614 87.463707,31.385311 83.282112,32.88181 75.513919,35.690507 66.341056,41.255544 58.744064,45.017941 L 61.153285,28.509202 91.77726,27.211709 c 2.594498,-0.13218 2.595835,-0.185557 1.457536,-2.172015 -1.852998,-3.365296 -3.759667,-6.173869 -7.227664,-9.512566 -0.688739,-0.742179 -1.376058,-1.245978 -2.593556,-1.193179 H 62.660835 c 0,0 0.132979,-0.794998 0.344378,-1.907657 0.27925,-1.470998 0.899914,-6.1740318 0.925964,-8.0550299 C 64.011737,1.8542646 60.333283,1.0070684 57.659486,0.63596882 55.145588,0.26547919 54.985746,0.13287287 50.008851,8.3002817e-5 Z"
         sodipodi:nodetypes="cccccccccccccccccccccccccccc" /><path
         d="m 55.835,70.294 v -5.5639 c 0,-1.5632 0.34286,-3.3113 2.8313,-5.114 3.6,-2.5958 8.6556,-3.0197 12.97,-4.504 l -2.3297,16.957 c -0.4107,3.0876 -1.681,3.207 -3.8914,2.8093 l -6.1405,-1.1133 c 4.4202,4.0008 8.8144,8.0282 13.181,12.056 2.4618,2.2787 4.2227,2.8875 7.6761,2.6231 2.4618,-0.19888 3.6406,-1.6699 5.427,-3.5502 5.3724,-5.6573 13.737,-16.455 14.293,-32.987 0.39738,-2.5704 -0.07935,-4.9285 -0.58213,-7.896 -27.073751,11.163835 -70.996171,10.968965 -98.54686,-6.4e-4 -0.50278,2.9675 -0.9789,5.339 -0.5688,7.896 0.54276,16.547 8.9204,27.33 14.28,32.987 1.787,1.8809 2.9779,3.3513 5.4397,3.5502 3.4413,0.26437 5.2143,-0.34441 7.6622,-2.6231 4.3808,-4.028 8.775,-8.0415 13.182,-12.043 l -6.1278,1.0999 c -2.2498,0.39777 -3.494,0.29105 -3.9041,-2.8093 l -2.3291,-16.957 c 4.3142,1.4971 9.4231,1.9743 12.97,4.504 2.4485,1.7621 2.8852,3.7091 2.8586,5.114 l -0.14599,5.5779 z"
         clip-rule="evenodd"
         fill="current-color"
         fill-rule="evenodd"
         stroke-width="0.60606"
         id="path10"
         inkstitch:running_stitch_length_mm="1.5"
         style="display:inline;fill:#1df33a;fill-opacity:1"
         sodipodi:nodetypes="csccccccccccccccccccccccc" /><path
         d="m 50.01,99.996 c 1.893,0.04002 5.1489,-0.21222 7.0407,-0.46326 2.3297,-0.39777 2.3697,-0.23951 2.211,-2.2526 l -0.54276,-6.5717 6.7239,5.5245 c 1.5083,1.126 6.1012,-0.54269 5.4518,-1.4043 l -15.207,-21.62 h -11.355 l -15.207,21.62 c -0.64816,0.86224 3.9441,2.5309 5.453,1.4043 l 6.7233,-5.5245 -0.54276,6.5717 c -0.1587,2.0131 -0.11933,1.8549 2.2098,2.2526 1.893,0.25103 5.1489,0.50328 7.0413,0.46326 z"
         clip-rule="evenodd"
         fill="current-color"
         fill-rule="evenodd"
         stroke-width="0.60606"
         id="path2"
         inkstitch:running_stitch_length_mm="1.5"
         style="fill:#edf31d;fill-opacity:1" /></g>
</g></svg>
