<?xml version="1.0" encoding="UTF-8" standalone="no"?>
<!-- Created with Inkscape (http://www.inkscape.org/) -->

<svg
   width="70mm"
   height="70mm"
   viewBox="0 0 70 70"
   version="1.1"
   id="svg1"
   xml:space="preserve"
   sodipodi:docname="Shrimp.svg"
   inkscape:version="1.3.2 (091e20e, 2023-11-25)"
   xmlns:inkscape="http://www.inkscape.org/namespaces/inkscape"
   xmlns:sodipodi="http://sodipodi.sourceforge.net/DTD/sodipodi-0.dtd"
   xmlns="http://www.w3.org/2000/svg"
   xmlns:svg="http://www.w3.org/2000/svg"
   xmlns:inkstitch="http://inkstitch.org/namespace"><sodipodi:namedview
     id="namedview1"
     pagecolor="#ffffff"
     bordercolor="#000000"
     borderopacity="0.25"
     inkscape:showpageshadow="2"
     inkscape:pageopacity="0.0"
     inkscape:pagecheckerboard="0"
     inkscape:deskcolor="#d1d1d1"
     inkscape:document-units="mm"
     inkscape:zoom="2.5265894"
     inkscape:cx="130.01717"
     inkscape:cy="123.28873"
     inkscape:window-width="1680"
     inkscape:window-height="924"
     inkscape:window-x="0"
     inkscape:window-y="25"
     inkscape:window-maximized="0"
     inkscape:current-layer="layer1" /><metadata
     id="metadata1"><inkstitch:min_stitch_len_mm>0.1</inkstitch:min_stitch_len_mm><inkstitch:collapse_len_mm>3</inkstitch:collapse_len_mm><inkstitch:inkstitch_svg_version>2</inkstitch:inkstitch_svg_version></metadata><defs
     id="defs1" /><g
     inkscape:label="Ebene 1"
     inkscape:groupmode="layer"
     id="layer1"><g
       id="centerline_group_4041"
       inkscape:label="path15 center line"><path
         id="path15_5481"
         d="m 51.881287,51.70481 c 1.480899,0.04189 2.965521,0.03353 4.442084,-0.09842"
         style="fill:none;stroke:#8bfbf6;stroke-width:1.1" /><path
         id="path15_2481"
         d="m 50.119164,52.412305 c 0.472067,-0.489324 1.206105,-0.38506 1.762123,-0.707495"
         style="fill:none;stroke:#8bfbf6;stroke-width:1.1" /><path
         id="path15_8509"
         d="m 49.360869,55.649213 c -2.523251,-2.183935 2.690696,-1.956083 4.082831,-2.169091 0.545903,-0.115418 1.246243,-0.05358 1.67132,-0.485735"
         style="fill:none;stroke:#8bfbf6;stroke-width:1.1" /><path
         id="path15_9917"
         d="M 52.717104,50.399622 C 53.080019,48.429836 49.912862,49.38181 49.187303,48.163896"
         style="fill:none;stroke:#8bfbf6;stroke-width:1.1" /><path
         id="path15_3691"
         d="m 40.742078,56.329456 c 2.295127,-3.525669 6.343526,-5.854755 10.602009,-5.586201 l 0.467134,0.01042"
         style="fill:none;stroke:#8bfbf6;stroke-width:1.1" /><path
         id="path15_8947"
         d="m 40.742078,56.329456 c 2.848059,0.355437 6.069051,1.093636 8.618791,-0.680243"
         style="fill:none;stroke:#8bfbf6;stroke-width:1.1" /><path
         id="path15_8554"
         d="m 55.846063,49.733931 c 0.396108,-1.691025 0.507459,-3.945745 2.942504,-3.26685 0.479025,-0.0972 0.865103,-0.341201 1.260397,-0.616699"
         style="fill:none;stroke:#8bfbf6;stroke-width:1.1" /><path
         id="path15_4371"
         d="m 55.846063,49.733931 c 0.507899,0.318651 1.228713,0.611214 1.780114,0.202406"
         style="fill:none;stroke:#8bfbf6;stroke-width:1.1" /><path
         id="path15_2145"
         d="m 50.191395,47.08572 c 2.262152,-0.748488 5.194685,-0.904338 6.90402,-2.41212 -1.05579,-0.390225 -2.238071,-0.189461 -3.342997,-0.205398"
         style="fill:none;stroke:#8bfbf6;stroke-width:1.1" /><path
         id="path15_6891"
         d="m 57.79207,41.615996 c 0.683305,0.611913 2.050357,-0.657524 2.873636,-0.554037"
         style="fill:none;stroke:#8bfbf6;stroke-width:1.1"
         sodipodi:nodetypes="cc" /><path
         id="path15_7641"
         d="M 59.234577,40.081414 C 60.91636,39.1643 59.747847,38.044296 58.665461,38.111328"
         style="fill:none;stroke:#8bfbf6;stroke-width:1.1"
         sodipodi:nodetypes="cc" /><path
         id="path15_7940"
         d="m 61.367116,36.160559 c -1.180834,-0.0784 -1.134002,-0.371652 -2.314836,-0.450056"
         style="fill:none;stroke:#8bfbf6;stroke-width:1.1"
         sodipodi:nodetypes="cc" /><path
         id="path15_4230"
         d="m 59.279028,31.676141 c 1.181628,-0.105482 0.644523,2.336446 1.826151,2.230964"
         style="fill:none;stroke:#8bfbf6;stroke-width:1.1"
         sodipodi:nodetypes="cc" /><path
         id="path15_8983"
         d="M 60.608821,30.665964 C 60.064332,29.885343 58.656893,30.059216 59.501542,28.398487"
         style="fill:none;stroke:#8bfbf6;stroke-width:1.1"
         sodipodi:nodetypes="cc" /><path
         id="path15_9632"
         d="m 57.516376,26.911054 c 1.334526,-0.664037 2.417057,-1.99102 0.360978,-2.56048 -1.020133,-0.216343 -1.201356,-1.026961 -2.24058,-1.097223"
         style="fill:none;stroke:#8bfbf6;stroke-width:1.1"
         sodipodi:nodetypes="ccc" /><path
         id="path15_4899"
         d="m 53.519586,21.547428 c 0.947973,-0.982743 3.044053,0.73029 4.629672,0.02096"
         style="fill:none;stroke:#8bfbf6;stroke-width:1.1"
         sodipodi:nodetypes="cc" /><path
         id="path15_4320"
         d="m 52.295665,19.946335 c 1.643621,-0.187363 2.533683,0.241518 3.806164,-0.7391"
         style="fill:none;stroke:#8bfbf6;stroke-width:1.1"
         sodipodi:nodetypes="cc" /><path
         id="path15_9035"
         d="m 47.500586,16.91585 c 2.393886,2.077907 4.252054,1.164588 5.744626,1.862029"
         style="fill:none;stroke:#8bfbf6;stroke-width:1.1"
         sodipodi:nodetypes="cc" /><path
         id="path15_2527"
         d="m 44.363919,17.173603 c 0.430601,-2.199585 2.133497,-1.189408 3.136667,-0.257751"
         style="fill:none;stroke:#8bfbf6;stroke-width:1.1"
         sodipodi:nodetypes="cc" /><path
         id="path15_6543"
         d="m 50.627163,13.914235 c -1.625958,-0.0334 -1.986692,-1.163348 -3.612616,-1.195945"
         style="fill:none;stroke:#8bfbf6;stroke-width:1.1"
         sodipodi:nodetypes="cc" /><path
         id="path15_9009"
         d="m 31.525594,59.636479 c 0.877007,0.536069 1.856497,1.215324 2.942692,0.958849"
         style="fill:none;stroke:#8bfbf6;stroke-width:1.1" /><path
         id="path15_2876"
         d="m 32.567257,58.332349 c -0.358324,0.299991 -0.70716,0.611743 -1.045368,0.934243"
         style="fill:none;stroke:#8bfbf6;stroke-width:1.1" /><path
         id="path15_9654"
         d="m 29.337492,60.660944 c 0.740973,-0.315539 1.471253,-0.657407 2.188102,-1.024465"
         style="fill:none;stroke:#8bfbf6;stroke-width:1.1" /><path
         id="path15_2636"
         d="m 42.988917,60.41012 c -2.649834,-1.841861 3.065658,-1.780479 4.376692,-2.099073"
         style="fill:none;stroke:#8bfbf6;stroke-width:1.1"
         sodipodi:nodetypes="cc" /><path
         id="path15_3313"
         d="m 36.790531,61.321873 c 2.888596,-0.354627 2.204008,-3.566825 -0.589227,-2.787382"
         style="fill:none;stroke:#8bfbf6;stroke-width:1.1" /><path
         id="path15_4881"
         d="m 36.201304,58.534491 c -0.39948,-2.951759 -4.219514,-2.279029 -6.275989,-1.765906 -1.546203,0.665591 -6.151059,1.0454 -2.074779,2.574207"
         style="fill:none;stroke:#8bfbf6;stroke-width:1.1" /><path
         id="path15_192"
         d="M 35.336912,39.885094 C 35.098786,39.349153 34.854988,38.815692 34.605604,38.284896"
         style="fill:none;stroke:#8bfbf6;stroke-width:1.1" /><path
         id="path15_401"
         d="m 33.597279,41.188959 c 0.263,-0.796081 1.425596,-0.553616 1.739633,-1.303865"
         style="fill:none;stroke:#8bfbf6;stroke-width:1.1" /><path
         id="path15_6674"
         d="m 33.597279,41.188959 c 2.852159,1.9813 6.658786,0.263333 9.609169,1.907553 2.342851,1.676974 -2.125053,0.736275 -1.442021,2.521566"
         style="fill:none;stroke:#8bfbf6;stroke-width:1.1" /><path
         id="path15_1972"
         d="m 29.411575,37.479505 c 1.736501,-0.537304 3.670809,-0.735306 5.398023,-0.05292"
         style="fill:none;stroke:#8bfbf6;stroke-width:1.1" /><path
         id="path15_2931"
         d="M 31.413146,38.916984 C 31.002104,38.103697 29.765535,38.346562 29.411575,37.479505"
         style="fill:none;stroke:#8bfbf6;stroke-width:1.1" /><path
         id="path15_6810"
         d="m 26.199776,42.73624 c 1.60784,-1.446941 5.792385,-0.581522 5.21337,-3.819256"
         style="fill:none;stroke:#8bfbf6;stroke-width:1.1" /><path
         id="path15_6174"
         d="m 26.199776,42.73624 c 3.800246,2.007839 8.520322,-0.267155 12.226558,1.966395 1.374563,0.518924 0.542648,3.190236 2.421048,1.875615"
         style="fill:none;stroke:#8bfbf6;stroke-width:1.1" /><path
         id="path15_7242"
         d="m 45.838211,41.249019 c -2.902143,0.381899 -6.862747,-0.238535 -7.983117,-3.36732 0.221817,-1.93687 -0.492934,-3.11005 -2.639129,-2.832633 -1.251576,-0.246937 -7.887263,0.49626 -4.49497,-2.185741"
         style="fill:none;stroke:#8bfbf6;stroke-width:1.1" /><path
         id="path15_8023"
         d="m 46.531948,38.381468 c -2.562147,2.51696 -7.206887,-1.792805 -4.156296,-4.195043 -2.455491,-1.216704 -5.475467,0.14177 -7.847683,-1.1715 -0.423735,-0.752891 0.385258,-1.519452 0.793862,-2.066651"
         style="fill:none;stroke:#8bfbf6;stroke-width:1.1" /><path
         id="path15_4232"
         d="m 26.212158,20.383845 c 2.663521,-1.329028 5.751526,-0.937789 8.557488,-1.722541"
         style="fill:none;stroke:#8bfbf6;stroke-width:1.1" /><path
         id="path15_7123"
         d="m 26.212158,20.383845 c -0.838583,1.697677 2.134662,1.191601 2.918695,0.927813"
         style="fill:none;stroke:#8bfbf6;stroke-width:1.1" /><path
         id="path15_5690"
         d="m 26.529208,23.295607 c -2.463684,0.526834 -5.029291,-2.04893 -4.796979,-4.485795 1.36561,-3.135874 5.660527,-0.156731 7.602114,-2.808433 2.003275,-1.91612 3.651602,-5.199027 6.92522,-4.758239 2.431327,-0.333819 4.897752,-0.375141 7.313288,-0.829841"
         style="fill:none;stroke:#8bfbf6;stroke-width:1.1" /><path
         id="path15_1434"
         d="m 43.018021,14.897743 c -1.506694,0.432432 -3.098967,0.406398 -4.644755,0.252968"
         style="fill:none;stroke:#8bfbf6;stroke-width:1.1" /><path
         id="path15_148"
         d="m 54.308305,17.290022 c -4.044436,-0.0088 -4.642922,-2.802951 -8.584658,-3.239262"
         style="fill:none;stroke:#8bfbf6;stroke-width:1.1"
         sodipodi:nodetypes="cc" /><path
         id="path15_8774"
         d="m 35.295637,13.589406 c 3.139627,-0.293401 6.497266,-1.668836 9.548673,-0.297616 l 0.476066,0.333666"
         style="fill:none;stroke:#8bfbf6;stroke-width:1.1"
         sodipodi:nodetypes="ccc" /><path
         id="path15_7997"
         d="M 35.445655,14.931027 C 35.022156,14.717792 34.58063,13.719075 35.295637,13.589406"
         style="fill:none;stroke:#8bfbf6;stroke-width:1.1" /><path
         id="path15_1859"
         d="M 41.033384,17.11815 C 38.764991,16.375471 36.203577,17.698606 34.06559,16.384805"
         style="fill:none;stroke:#8bfbf6;stroke-width:1.1" /><path
         id="path15_7608"
         d="m 25.83684,10.891275 c 3.781069,0.63214 7.427908,-0.9282272 11.031418,-1.796699"
         style="fill:none;stroke:#8bfbf6;stroke-width:1.1"
         sodipodi:nodetypes="cc" /><path
         id="path15_3629"
         d="m 23.871075,53.942124 c -1.573461,0.272151 -3.176742,0.0092 -4.756408,0.199495"
         style="fill:none;stroke:#8bfbf6;stroke-width:1.1" /><path
         id="path15_4506"
         d="m 20.166781,49.102636 c -2.621022,3.372623 2.368484,4.092928 4.73634,3.626622 1.597904,-0.05559 6.076095,0.05575 5.304773,2.025107 -2.376844,1.126085 -5.212735,-0.556443 -7.486366,0.861556 -0.480434,0.411469 -0.64924,1.061651 -0.673827,1.667621"
         style="fill:none;stroke:#8bfbf6;stroke-width:1.1" /><path
         id="path15_5865"
         d="m 11.137198,45.370164 c 3.382499,1.026395 7.143194,0.08008 10.411125,1.548058 2.301182,1.56926 -0.484803,1.363242 -1.381542,2.184414"
         style="fill:none;stroke:#8bfbf6;stroke-width:1.1" /><path
         id="path15_9584"
         d="m 26.841416,48.916899 c -0.01078,-2.936332 4.209762,-1.0149 5.758385,-0.965728"
         style="fill:none;stroke:#8bfbf6;stroke-width:1.1" /><path
         id="path15_236"
         d="m 34.310065,53.652934 c -0.858287,-2.93986 -4.943486,-2.05952 -7.316483,-2.489923 -2.617119,-0.02042 -1.662433,-1.195075 -0.152166,-2.246112"
         style="fill:none;stroke:#8bfbf6;stroke-width:1.1" /><path
         id="path15_3400"
         d="m 16.702675,50.239285 c 1.991207,-2.775823 -3.463603,-1.936985 -1.618517,-0.148764 0.478853,0.07864 1.155476,0.471995 1.618517,0.148764 z"
         style="fill:none;stroke:#8bfbf6;stroke-width:1.1" /><path
         id="path15_7637"
         d="M 36.399212,47.268547 C 32.135204,43.50112 26.090169,45.444431 21.030044,44.194979 c -1.678888,0.02001 -3.514283,-2.16432 -0.860573,-2.166229 2.523329,-0.62256 5.953224,-0.0508 7.663962,-2.359954 -1.23001,-0.97849 -3.493158,-0.05814 -4.210881,-1.779981"
         style="fill:none;stroke:#8bfbf6;stroke-width:1.1" /><path
         id="path15_2221"
         d="m 23.622552,37.888815 c 2.883046,-2.692898 -2.557857,-3.172568 -4.36609,-3.304935"
         style="fill:none;stroke:#8bfbf6;stroke-width:1.1"
         sodipodi:nodetypes="cc" /><path
         id="path15_921"
         d="m 16.599408,37.807588 c -3.189483,-2.094573 -2.210824,3.29001 0.329962,0.98531"
         style="fill:none;stroke:#8bfbf6;stroke-width:1.1" /><path
         id="path15_8999"
         d="m 21.249931,39.704648 c -1.646979,-3.322659 -5.658701,-3.601956 -8.809601,-4.487956 -3.1365884,-1.288834 4.564861,-5.818861 0.03959,-6.21346 -0.809615,0.0083 -1.619924,-5.12e-4 -2.346846,-0.399693"
         style="fill:none;stroke:#8bfbf6;stroke-width:1.1" /><path
         id="path15_1341"
         d="m 21.249931,39.704648 c -2.415988,1.069415 -5.848095,-0.185228 -7.595635,2.162821 0.165947,1.949709 -2.877435,1.249841 -3.9960111,0.760821"
         style="fill:none;stroke:#8bfbf6;stroke-width:1.1" /><path
         id="path15_6180"
         d="m 14.939997,34.419602 c 0.162742,-2.516354 3.721916,-3.699301 3.843706,-5.922784 1.317867,-0.431477 2.804598,-0.04911 4.054045,-0.738886"
         style="fill:none;stroke:#8bfbf6;stroke-width:1.1" /><path
         id="path15_1252"
         d="m 15.269109,18.942841 c 2.750628,-0.858237 4.579344,3.348434 0.367707,4.447522 2.384407,-0.329977 5.166822,0.423992 6.843587,2.180914 -0.815541,1.898344 -5.022892,1.055412 -6.585262,0.312772"
         style="fill:none;stroke:#8bfbf6;stroke-width:1.1"
         sodipodi:nodetypes="cccc" /><path
         id="path15_4339"
         d="M 15.895141,25.884049 C 14.192781,24.691512 14.294654,23.990802 12.319025,24.32352"
         style="fill:none;stroke:#8bfbf6;stroke-width:1.1"
         sodipodi:nodetypes="cc" /><path
         id="path15_2464"
         d="m 16.975837,16.961803 c 4.414286,-0.811116 5.359751,-3.021986 9.897779,-3.299543 -1.475542,-2.626508 -2.352611,-0.71615 -4.676192,-1.119938"
         style="fill:none;stroke:#8bfbf6;stroke-width:1.1"
         sodipodi:nodetypes="ccc" /></g><path
       style="display:none;fill:#000000;stroke-width:0.437624"
       d="M 35.8175,56.426105 C 35.172864,56.10148 34.592817,55.517102 34.300505,54.897785 33.939808,54.13358 33.876757,53.406121 34.064011,52.169194 l 0.04792,-0.316516 -0.524442,-0.131734 c -1.741736,-0.43751 -2.591268,-1.512757 -2.04351,-2.586451 0.466963,-0.915321 1.759772,-1.380126 4.943676,-1.777402 1.959447,-0.244491 3.249483,-0.645526 4.749404,-1.476456 3.586598,-1.986906 5.772091,-5.506035 5.557693,-8.949117 -0.07932,-1.273876 -0.09424,-1.27922 -0.466606,-0.16702 -0.629406,1.879955 -1.541364,3.406861 -2.825325,4.730495 -0.617061,0.636126 -0.759642,0.717668 -0.982252,0.561747 -0.09147,-0.06407 -0.166318,-0.16778 -0.166318,-0.230466 0,-0.06269 0.327955,-0.460446 0.728789,-0.883918 0.761753,-0.804773 1.499623,-1.834113 1.931076,-2.693878 0.267461,-0.532974 0.840757,-2.010442 0.79706,-2.054138 -0.01406,-0.01405 -0.215787,0.219009 -0.448279,0.517937 -0.570928,0.734066 -1.610521,1.709438 -2.30705,2.164524 -0.795775,0.519932 -1.093434,0.574329 -1.186905,0.216895 -0.05206,-0.199066 0.01366,-0.262194 0.81368,-0.781636 1.504374,-0.976764 3.099801,-3.001568 3.361703,-4.26643 0.09357,-0.451884 0.02107,-0.696053 -0.494444,-1.665279 -0.618309,-1.16249 -1.296792,-1.905792 -2.114942,-2.31699 -0.763431,-0.383697 -0.77192,-0.382819 -0.77192,0.07985 0,0.220526 -0.06937,1.256275 -0.154165,2.301666 -0.08479,1.04539 -0.162947,2.122439 -0.173682,2.393442 -0.01576,0.397807 -0.04995,0.512863 -0.177482,0.597215 -0.135182,0.08942 -0.184028,0.08623 -0.338688,-0.0221 -0.177291,-0.12418 -0.179758,-0.143589 -0.129903,-1.021775 0.02795,-0.492355 0.09978,-1.485709 0.159627,-2.207455 0.214061,-2.581686 0.21392,-2.563286 0.02002,-2.61527 -0.384266,-0.103024 -0.410711,-0.07384 -0.70868,0.781959 -0.344884,0.990547 -0.985295,2.336362 -1.441735,3.029788 -0.4377,0.664956 -1.394288,1.644321 -1.571772,1.609197 -0.07437,-0.01472 -0.185192,-0.102155 -0.246271,-0.194304 -0.104498,-0.157654 -0.08084,-0.200468 0.400856,-0.72536 0.637542,-0.694718 1.001518,-1.227629 1.446302,-2.117586 0.35059,-0.701485 0.856517,-1.927089 0.951159,-2.304169 0.05094,-0.20296 0.04796,-0.204573 -0.378553,-0.204573 -0.729803,0 -1.989975,-0.164516 -2.597329,-0.339083 l -0.578941,-0.166401 -0.746508,0.778148 c -1.539407,1.604653 -3.319186,2.565378 -6.007796,3.243008 -0.573151,0.144455 -1.452025,0.315672 -1.953053,0.380481 -2.042794,0.264239 -5.38959,0.05031 -6.638807,-0.424354 l -0.386922,-0.147019 -0.253467,0.222547 c -0.939727,0.825092 -3.069285,1.486216 -4.768211,1.480299 -0.908689,-0.0032 -1.500737,-0.136547 -2.209871,-0.497859 -0.653411,-0.332918 -2.781493,-1.744944 -2.8333,-1.87995 -0.05266,-0.137224 0.114975,-0.334051 0.284502,-0.334051 0.07371,0 0.668661,0.353376 1.322111,0.785279 1.336183,0.883162 1.896621,1.163507 2.604295,1.302734 0.891611,0.175414 2.523289,-0.0317 3.701338,-0.469823 0.950615,-0.353538 1.713954,-0.853781 1.713954,-1.123214 0,-0.378232 -0.0081,-0.380653 -1.197966,-0.355915 -2.26943,0.04718 -3.811405,-0.445284 -4.941096,-1.578064 -0.86094,-0.863294 -1.271375,-2.025171 -1.271375,-3.599068 0,-0.886724 0.07659,-1.092412 0.390286,-1.048134 l 0.188655,0.02663 0.01008,1.042092 c 0.01549,1.600978 0.338449,2.483228 1.201512,3.282272 1.033509,0.956847 2.947496,1.463797 4.957582,1.313095 l 0.713126,-0.05347 0.172409,-0.535313 c 0.464702,-1.442854 2.044721,-4.126713 3.520541,-5.98008 0.80677,-1.013158 2.244216,-2.435161 3.011663,-2.979305 3.351352,-2.376219 6.921226,-3.873161 10.574195,-4.434041 1.305587,-0.20046 4.265953,-0.203647 5.51648,-0.0059 7.757374,1.22645 13.44297,6.662584 14.788976,14.140087 0.169645,0.942435 0.23422,3.33595 0.117681,4.36188 -0.444906,3.916658 -2.518291,7.333251 -6.068403,9.999735 -1.809977,1.35947 -3.609972,2.311732 -6.635529,3.510433 -0.976479,0.386873 -2.279095,0.949198 -2.894702,1.249614 -1.018555,0.497049 -1.171386,0.599339 -1.698225,1.136611 -0.451288,0.460227 -0.749144,0.879003 -1.350861,1.899258 -0.656631,1.113373 -0.87568,1.413128 -1.466649,2.007045 -0.786397,0.790323 -1.113847,0.978694 -1.775417,1.021354 -0.410519,0.02648 -0.526151,-0.0018 -1.017515,-0.249302 z m 1.5714,-0.809167 c 0.746886,-0.581318 1.214822,-1.157372 1.916497,-2.359302 1.512173,-2.590272 1.961115,-2.921216 6.329512,-4.665884 2.439606,-0.974344 4.213645,-1.851164 5.563641,-2.749842 l 0.919723,-0.61225 -0.51992,-0.05144 c -1.024571,-0.101375 -1.596706,-0.363499 -3.265081,-1.4959 -1.121523,-0.761225 -2.091056,-1.331874 -2.145885,-1.263031 -0.01378,0.01729 -0.195235,0.274618 -0.403234,0.571804 -1.135933,1.62303 -3.214236,3.288671 -5.205324,4.171771 -1.383774,0.613737 -2.476022,0.878228 -4.785907,1.158916 -2.746693,0.333767 -4.043288,1.058101 -3.356053,1.874835 0.316115,0.375678 1.321423,0.780634 1.943666,0.78294 0.336459,0.0013 0.618857,0.141519 0.66871,0.332161 0.02273,0.08692 -0.009,0.397319 -0.07052,0.68977 -0.319672,1.519664 -0.185773,2.337776 0.506612,3.095356 0.676423,0.740114 1.375487,0.931115 1.903567,0.520099 z M 52.785715,44.33685 c 0.185251,-0.09436 0.444312,-0.253385 0.575686,-0.353399 0.131375,-0.100015 0.272841,-0.181842 0.314372,-0.181842 0.04153,0 0.352821,-0.286578 0.691748,-0.636835 0.991486,-1.024623 1.603477,-1.894567 2.280578,-3.241832 0.393044,-0.782061 0.928118,-2.294928 1.029721,-2.911431 l 0.05679,-0.344559 -0.42415,0.387647 c -0.742587,0.678685 -1.964311,1.202167 -3.338805,1.430607 -0.860142,0.14295 -3.567773,0.123073 -5.008166,-0.03676 -0.63171,-0.0701 -1.189403,-0.127458 -1.239318,-0.127458 -0.05313,0 -0.132245,0.248014 -0.190832,0.598236 -0.130133,0.777908 -0.42269,1.700157 -0.749542,2.362825 -0.143647,0.291235 -0.261176,0.555166 -0.261176,0.586517 0,0.03133 0.147519,0.123065 0.327819,0.203811 0.1803,0.08074 0.918449,0.542697 1.640331,1.026561 0.721882,0.483864 1.564175,0.999998 1.871762,1.146965 0.887983,0.424285 1.708305,0.455077 2.423186,0.09096 z m 1.859116,-6.579133 c 1.38294,-0.366077 2.217756,-0.885034 2.874407,-1.78685 l 0.389206,-0.534523 -0.0044,-1.510282 c -0.0039,-1.325885 -0.03033,-1.64134 -0.216974,-2.583703 -0.275011,-1.388359 -0.707787,-2.69577 -1.299175,-3.924783 -0.260474,-0.54132 -0.485102,-0.972711 -0.499167,-0.958646 -0.01405,0.01407 -0.09324,0.290175 -0.175955,0.613578 -0.201299,0.787065 -0.585178,1.597323 -1.207611,2.54892 -1.803065,2.756585 -3.78796,4.083804 -6.567341,4.391318 -0.771448,0.08535 -0.783582,0.0898 -0.717713,0.263049 0.141288,0.371617 0.388124,1.863977 0.434989,2.629933 0.05727,0.936026 -0.107862,0.824108 1.4534,0.985044 0.713874,0.07359 1.709515,0.103625 2.9333,0.08849 1.702494,-0.02105 1.913407,-0.03899 2.60298,-0.221543 z m -5.53628,-4.517842 c 0.967774,-0.259227 1.780678,-0.664547 2.580583,-1.286697 1.706923,-1.327607 3.432672,-4.010423 3.537111,-5.498713 0.03063,-0.436711 0.01155,-0.600005 -0.08796,-0.751866 -0.06991,-0.106697 -0.11948,-0.294139 -0.110155,-0.416538 0.01278,-0.167491 -0.09469,-0.368307 -0.434355,-0.811771 -1.038648,-1.356051 -2.467929,-2.686376 -3.914149,-3.643163 -0.699208,-0.46258 -2.216738,-1.27195 -2.586686,-1.379601 l -0.166497,-0.04845 0.141501,0.454645 c 0.435916,1.400601 0.411998,3.657289 -0.05452,5.144438 -0.247987,0.790516 -0.851888,1.972967 -1.328903,2.602022 -0.484955,0.639525 -1.35723,1.456343 -1.851949,1.734209 -0.21669,0.121706 -0.394017,0.243152 -0.394061,0.269879 -4.3e-5,0.02673 0.154047,0.174889 0.342422,0.329248 0.69347,0.568247 1.773374,2.256336 2.06403,3.226463 l 0.09449,0.315392 0.814375,-0.04738 c 0.447907,-0.02606 1.057531,-0.112512 1.35472,-0.192117 z M 28.305293,32.49657 c 2.231866,-0.300634 4.478119,-1.083196 5.974678,-2.081491 1.663248,-1.109487 2.821439,-2.660294 3.303183,-4.422929 0.241907,-0.885106 0.235767,-2.589319 -0.01246,-3.456952 -0.279036,-0.975337 -0.283005,-1.083574 -0.04545,-1.239229 0.327003,-0.214261 0.534727,-0.06578 0.730345,0.522056 0.630658,1.895129 0.496435,3.978606 -0.373779,5.801976 -0.129959,0.272303 -0.236288,0.514844 -0.236288,0.53898 0,0.148159 1.193559,0.334813 2.808164,0.439152 1.512344,0.09773 2.242484,0.219131 2.889331,0.480404 l 0.45456,0.183605 0.532701,-0.302223 c 1.258342,-0.71391 2.241797,-1.89386 2.898642,-3.477793 0.413793,-0.997835 0.552455,-1.741002 0.557046,-2.985524 0.0045,-1.22536 -0.09613,-2.001471 -0.34624,-2.669959 -0.250012,-0.668218 -0.45789,-0.844968 -1.264483,-1.075142 -5.841407,-1.666937 -11.910285,-0.457867 -17.621348,3.510606 -1.521501,1.057252 -3.072126,2.745952 -4.541243,4.945616 -1.095827,1.640748 -2.181972,3.894742 -2.077907,4.312122 0.02759,0.110664 0.05674,0.28753 0.06478,0.393035 0.01275,0.167409 0.07848,0.209091 0.516358,0.32744 0.432101,0.116789 1.221473,0.219882 2.431549,0.317563 0.847244,0.06839 2.637633,0.0357 3.357854,-0.06131 z m 3.029083,-5.753988 c -0.410643,-0.250372 -0.572259,-0.58169 -0.538686,-1.104327 0.02531,-0.394026 0.06258,-0.481595 0.310491,-0.729505 0.255281,-0.25528 0.328696,-0.284718 0.782053,-0.313585 0.411965,-0.02623 0.547288,-0.0028 0.766236,0.132483 0.706108,0.436398 0.680729,1.572443 -0.04501,2.014934 -0.336544,0.205193 -0.938537,0.205193 -1.27508,0 z"
       id="path1" /><path
       style="fill:#fc4747;fill-rule:evenodd;stroke:none;stroke-width:0.177551;stroke-linecap:round;stroke-opacity:1;fill-opacity:1"
       d="m 86.59654,121.83561 c -2.878684,-0.64625 -3.271261,-1.33314 -2.597574,-4.54496 0.716237,-3.41468 4.982336,-12.12149 7.866585,-16.05516 10.485809,-14.300979 26.691729,-24.99128 45.072489,-29.732246 7.29776,-1.882319 11.6317,-2.413999 19.26058,-2.362858 7.26583,0.04871 11.5238,0.655995 17.94502,2.559382 l 3.38215,1.002541 0.72834,3.202284 c 0.92291,4.057715 0.92331,10.579 8.8e-4,14.526185 -1.40501,6.012259 -7.17446,15.217412 -11.57497,18.467872 -1.21146,0.89485 -1.37395,0.90224 -3.99305,0.18155 -1.50162,-0.41319 -5.26697,-0.97524 -8.36745,-1.249 -8.05699,-0.7114 -10.72537,-1.30425 -10.31097,-2.29084 2.88713,-6.873622 3.40555,-17.868971 1.12527,-23.866547 -0.42009,-1.104911 -0.43053,-1.106321 -2.42977,-0.327898 -1.10433,0.429983 -2.07323,0.830386 -2.15312,0.889784 -0.0799,0.0594 0.21319,1.340963 0.65128,2.84792 1.63897,5.637865 0.83979,13.533503 -1.92135,18.982351 -2.49958,4.93268 -11.1423,12.519 -17.43047,15.29992 -5.71607,2.52792 -9.24719,3.0069 -21.78934,2.95567 -6.330155,-0.0259 -12.389194,-0.24454 -13.46453,-0.48595 z m 37.94553,-20.51057 c 1.19908,-1.07138 1.52096,-1.7765 1.71025,-3.746494 0.21963,-2.285677 0.13694,-2.522968 -1.42269,-4.082591 -1.38807,-1.388069 -1.98635,-1.655582 -3.69936,-1.65411 -2.59458,0.0022 -4.97411,1.403083 -5.35853,3.154622 -0.1577,0.718542 -0.36208,1.554916 -0.45418,1.858609 -0.0921,0.303694 0.0442,1.318824 0.30295,2.255846 0.96666,3.500948 6.06519,4.766278 8.92156,2.214118 z"
       id="path10"
       transform="scale(0.26458333)" /><path
       style="fill:#fc4747;fill-opacity:1;fill-rule:evenodd;stroke:none;stroke-width:0.177551;stroke-linecap:round;stroke-opacity:1"
       d="m 177.54546,123.90191 c -1.05202,-3.24948 -2.72251,-6.0739 -5.18769,-8.77119 l -2.44736,-2.67781 2.36753,-2.43776 c 4.90972,-5.05535 8.00356,-10.213946 10.06732,-16.785983 0.95392,-3.037752 1.09882,-4.450448 1.09087,-10.635759 l -0.009,-7.132715 3.29756,1.72551 c 7.18202,3.758129 15.83865,11.347232 20.27118,17.771341 l 1.66479,2.4128 -1.19957,4.398866 c -3.92261,14.38434 -8.63034,19.13904 -22.30901,22.5316 -3.00563,0.74545 -5.81833,1.35702 -6.25045,1.35905 -0.4948,0.002 -0.99681,-0.64849 -1.356,-1.75795 z"
       id="path11"
       transform="scale(0.26458333)" /><path
       style="fill:#fc4747;fill-opacity:1;fill-rule:evenodd;stroke:none;stroke-width:0.177551;stroke-linecap:round;stroke-opacity:1"
       d="m 188.143,142.29615 c -0.77512,-0.11095 -3.15334,-0.43246 -5.28492,-0.71447 l -3.8756,-0.51275 -0.006,-4.29686 c -0.004,-2.36327 -0.12547,-4.74034 -0.27099,-5.28238 -0.24323,-0.90602 0.0699,-1.05185 3.88202,-1.80775 13.23245,-2.62385 20.97204,-7.19164 24.97709,-14.74107 0.86346,-1.62759 2.25143,-4.99203 3.08438,-7.47654 l 1.51447,-4.51729 1.49358,3.72449 c 3.09141,7.7089 4.3168,14.11544 4.3168,22.56892 v 5.80268 l -2.4663,1.28378 c -4.3924,2.2864 -9.14539,4.30455 -11.94444,5.07172 -2.6627,0.7298 -12.56483,1.30616 -15.41967,0.89752 z"
       id="path12"
       transform="scale(0.26458333)" /><path
       style="fill:#fc4747;fill-opacity:1;fill-rule:evenodd;stroke:none;stroke-width:0.177551;stroke-linecap:round;stroke-opacity:1"
       d="m 194.71978,167.24768 c -5.39754,-1.18822 -10.01548,-3.48503 -15.80957,-7.86314 l -3.12578,-2.36189 0.82365,-2.40854 c 0.45301,-1.3247 1.09539,-3.85975 1.42751,-5.63344 l 0.60386,-3.2249 2.16804,0.27277 c 9.14016,1.14995 13.90222,1.36742 18.24811,0.83335 4.75849,-0.58479 11.15971,-2.49458 15.16611,-4.52477 l 2.36745,-1.19968 -0.31476,1.30613 c -0.8775,3.64133 -3.98369,10.13352 -6.91783,14.45886 -2.79071,4.11389 -9.61541,11.04885 -10.82816,11.0031 -0.5445,-0.0205 -2.25839,-0.31657 -3.80863,-0.65785 z"
       id="path13"
       transform="scale(0.26458333)" /><path
       style="fill:#fc4747;fill-opacity:1;fill-rule:evenodd;stroke:none;stroke-width:0.177551;stroke-linecap:round;stroke-opacity:1"
       d="m 137.45183,209.72826 c -1.83596,-0.54276 -4.37089,-3.07308 -5.00571,-4.99658 -0.37318,-1.13077 -0.37524,-2.22417 -0.007,-3.93935 0.95334,-4.44527 -0.18963,-6.42953 -5.09302,-8.84172 -3.70854,-1.8244 -5.03457,-3.31086 -4.25423,-4.76893 0.71745,-1.34057 4.95176,-2.80032 10.21492,-3.52153 12.48988,-1.71148 19.33805,-3.65363 25.74417,-7.30111 4.36541,-2.48555 10.06383,-7.73394 12.65048,-11.6514 1.03349,-1.56523 2.02478,-2.8517 2.20286,-2.85882 0.17808,-0.007 1.97495,1.18084 3.99305,2.63993 4.15933,3.00721 9.95128,5.8904 13.7676,6.85342 l 2.58203,0.65154 -2.34714,1.72351 c -3.38485,2.4855 -12.40154,6.81763 -21.60771,10.38157 -4.39236,1.70039 -9.1025,3.6524 -10.46698,4.33779 -3.47808,1.74709 -6.78669,5.18773 -11.51164,11.97101 -4.21462,6.05063 -6.93758,9.06862 -8.55645,9.48351 -0.51675,0.13243 -1.55392,0.0592 -2.30483,-0.16284 z"
       id="path14"
       transform="scale(0.26458333)" /><path
       id="path8744"
       style="stroke:#000000;stroke-width:1px;fill:none"
       d="M 130.378 31.19 L 126.672 31.329 L 119.378 32.1525 L 112.226 33.505 L 105.239 35.3699 L 98.441 37.7312 L 91.8573 40.5725 L 85.5121 43.8775 L 79.4301 47.6299 L 73.6359 51.8131 L 68.1542 56.4105 L 63.0097 61.4057 L 58.2268 66.7822 L 53.83 72.5237 L 49.8433 78.6143 L 46.2913 85.0378 L 43.1977 91.7796 L 40.618 98.7343 L 38.5876 105.788 L 37.0999 112.914 L 36.149 120.083 L 35.7292 127.266 L 35.8349 134.436 L 36.46 141.563 L 37.5993 148.618 L 39.2466 155.572 L 41.3964 162.396 L 44.0427 169.061 L 47.1796 175.537 L 50.8015 181.796 L 54.9027 187.81 L 59.478 193.55 L 64.5227 198.988 L 69.9609 204.033 L 75.7008 208.608 L 81.7146 212.709 L 87.974 216.331 L 94.4504 219.468 L 101.115 222.114 L 107.939 224.264 L 114.893 225.912 L 121.948 227.051 L 129.075 227.676 L 136.244 227.782 L 137.712 227.696 L 143.428 227.362 L 150.597 226.411 L 157.723 224.923 L 164.777 222.893 L 171.731 220.313 L 178.473 217.22 L 184.897 213.667 L 190.987 209.681 L 196.729 205.284 L 202.105 200.501 L 207.1 195.357 L 211.698 189.875 L 215.881 184.081 L 219.633 177.999 L 222.938 171.654 L 225.78 165.07 L 228.141 158.272 L 230.006 151.285 L 231.358 144.133 L 232.182 136.839 L 232.461 129.397 L 232.334 124.36 L 231.954 119.362 L 231.328 114.438 L 230.463 109.595 L 229.365 104.836 L 228.04 100.17 L 226.494 95.6005 L 224.733 91.1345 L 222.763 86.778 L 220.591 82.5368 L 218.222 78.4173 L 215.663 74.4257 L 212.92 70.5682 L 209.999 66.851 L 206.906 63.2804 L 203.648 59.8629 L 200.23 56.6046 L 196.66 53.5117 L 192.943 50.5906 L 189.085 47.8475 L 185.094 45.2885 L 180.974 42.9199 L 176.733 40.7477 L 172.376 38.7781 L 167.91 37.0172 L 163.341 35.4711 L 158.674 34.146 L 153.916 33.0478 L 149.073 32.1828 L 144.149 31.5572 L 139.151 31.1772 L 134.114 31.0498 Z M 130.024 21.7478 L 125.964 21.9002 L 117.969 22.8029 L 110.127 24.2856 L 102.466 26.3303 L 95.0142 28.919 L 87.7975 32.0335 L 80.8429 35.6559 L 74.1771 39.7683 L 67.8269 44.3529 L 61.8188 49.3919 L 56.1797 54.8673 L 50.9362 60.7616 L 46.1156 67.0565 L 41.7449 73.7339 L 37.8511 80.7752 L 34.4619 88.1612 L 31.6358 95.7803 L 29.4102 103.513 L 27.7791 111.325 L 26.7366 119.185 L 26.2764 127.06 L 26.3921 134.919 L 27.0774 142.731 L 28.3259 150.463 L 30.1314 158.084 L 32.4876 165.563 L 35.3883 172.869 L 38.8272 179.969 L 42.7983 186.831 L 47.2947 193.424 L 52.31 199.716 L 57.8367 205.674 L 63.7945 211.201 L 70.0864 216.216 L 76.6798 220.713 L 83.5424 224.684 L 90.6422 228.123 L 97.9476 231.023 L 105.427 233.379 L 113.048 235.185 L 120.78 236.433 L 128.591 237.119 L 136.451 237.234 L 138.263 237.129 L 144.326 236.774 L 152.186 235.732 L 159.998 234.101 L 167.73 231.875 L 175.35 229.049 L 182.736 225.66 L 189.777 221.766 L 196.454 217.395 L 202.749 212.575 L 208.643 207.331 L 214.119 201.692 L 219.158 195.684 L 223.743 189.334 L 227.855 182.668 L 231.477 175.713 L 234.592 168.497 L 237.181 161.045 L 239.225 153.384 L 240.708 145.542 L 241.611 137.547 L 241.914 129.455 L 241.773 123.882 L 241.357 118.407 L 240.672 113.011 L 239.723 107.7 L 238.519 102.482 L 237.065 97.3632 L 235.369 92.3513 L 233.438 87.4531 L 231.278 82.6756 L 228.897 78.0256 L 226.3 73.5097 L 223.495 69.1349 L 220.489 64.9078 L 217.289 60.8352 L 213.901 56.9236 L 210.331 53.1797 L 206.587 49.6102 L 202.676 46.2219 L 198.603 43.0214 L 194.376 40.0155 L 190.001 37.2109 L 185.485 34.6143 L 180.835 32.2327 L 176.058 30.0729 L 171.16 28.1416 L 166.148 26.4457 L 161.029 24.9922 L 155.811 23.7878 L 150.5 22.8394 L 145.103 22.1536 L 139.629 21.7374 L 134.056 21.5964 Z M 123.107 21.2718 L 124.379 32.5388 M 113.086 22.7644 L 115.193 33.9055 M 99.7645 26.2686 L 103.485 36.9793 M 90.3205 29.9155 L 94.8133 40.326 M 78.0962 36.2402 L 84.0497 45.89 M 69.6749 41.8533 L 76.312 51.0464 M 59.124 50.6914 L 67.0227 58.8262 M 52.1239 58.0049 L 60.5955 65.5411 M 43.7512 68.9434 L 53.2381 75.1532 M 38.5174 77.6179 L 48.4399 83.1049 M 32.7235 90.1309 L 43.3544 94.0741 M 29.5121 99.7425 L 40.4083 102.879 M 26.1505 116.417 L 37.3906 117.908 M 25.3771 130.166 L 36.7145 129.999 M 25.9133 140.274 L 37.2085 139.283 M 28.1577 153.852 L 39.1909 151.238 M 30.8784 163.6 L 41.693 160.193 M 36.0322 176.365 L 46.2367 171.423 M 44.5532 191.082 L 53.9208 184.693 M 53.0685 201.923 L 61.3812 194.212 M 60.1839 209.14 L 67.895 200.828 M 67.9142 215.693 L 74.9817 206.827 M 79.3663 223.359 L 85.045 213.545 M 88.337 228.056 L 93.2798 217.851 M 101.174 233.03 L 104.581 222.216 M 110.948 235.658 L 113.561 224.625 M 124.556 237.713 L 125.547 226.418 M 137.657 226.753 L 138.319 238.072 M 148.406 237.186 L 146.915 225.946 M 165.041 233.632 L 161.904 222.736 M 177.985 228.879 L 173.256 218.574 M 187.052 224.353 L 181.565 214.43 M 201.219 214.937 L 194.325 205.935 M 211.486 205.76 L 203.351 197.862 M 218.253 198.233 L 209.566 190.947 M 226.265 187.044 L 216.616 181.091 M 231.234 178.227 L 221.178 172.988 M 236.614 165.555 L 225.903 161.834 M 240.993 149.123 L 229.851 147.017 M 242.757 132.199 L 231.426 131.774 M 242.567 121.849 L 231.261 122.709 M 240.071 105.005 L 229.023 107.555 M 237.301 95.1117 L 226.56 98.746 M 230.685 79.4449 L 220.593 84.6136 M 225.538 70.5707 L 215.993 76.6902 M 219.582 62.2237 L 210.667 69.2297 M 212.871 54.4741 L 204.664 62.2981 M 205.464 47.387 L 198.04 55.9574 M 197.425 41.024 L 190.854 50.2644 M 188.82 35.4419 L 183.168 45.2715 M 173.508 28.052 L 169.349 38.6003 M 163.77 24.7883 L 160.673 35.6957 M 153.76 22.4618 L 151.767 33.6238 M 136.818 20.7211 L 136.532 32.0561"
       inkstitch:satin_column="true"
       transform="scale(0.264583, 0.264583)" /><g
       id="centerline_group_6780"
       inkscape:label="path1 center line"
       style="display:inline;stroke-width:1.5;stroke-dasharray:none"><path
         id="path2156"
         style="fill:none;stroke:#000000;stroke-width:1px"
         d="m 179.34188,140.75508 5.30829,0.58372 5.56248,0.55825 4.87899,0.12388 4.43156,-0.34824 4.25166,-0.86633 4.34926,-1.45527 4.70156,-2.13145 4.56337,-2.40598 m -38.39119,11.51372 4.95717,0.63942 5.90212,0.59235 5.38501,0.13672 5.07204,-0.39856 4.93154,-1.00487 4.95374,-1.65753 5.82523,-2.67184 m -34.46662,5.22487 0.98811,-6.73101 m 9.36682,7.72153 0.17267,-6.80096 m 10.53632,6.02814 -1.35832,-6.66617 m 11.16129,3.50897 -2.80903,-6.19614"
         inkstitch:satin_column="true"
         transform="scale(0.264583)"
         sodipodi:nodetypes="ccccccccccccccccccccccccc" /><path
         id="path7681"
         style="fill:none;stroke:#000000;stroke-width:1px"
         d="m 178.04981,125.2557 2.40912,-0.38584 4.07105,-0.85037 3.57023,-0.93759 3.10184,-1.03103 2.66987,-1.12833 2.28035,-1.22964 1.94199,-1.33921 1.66172,-1.46615 1.43926,-1.62236 1.26677,-1.81603 1.13226,-2.04646 1.02691,-2.30589 0.94712,-2.58576 0.88934,-2.86389 1.75976,-6.728403 m -29.2702,34.006833 2.56007,-0.48304 4.32315,-0.90303 3.88557,-1.02041 3.48676,-1.15897 3.12353,-1.32007 2.78945,-1.50416 2.47561,-1.70719 2.17548,-1.91945 1.88894,-2.12924 1.62443,-2.32877 1.39334,-2.51834 1.20489,-2.70551 1.06208,-2.89964 1.15385,-4.15447 m -31.42981,27.09144 -1.12397,-6.70966 m 8.12564,5.08848 -1.72801,-6.58003 m 12.03215,2.73411 -3.22895,-5.98805 m 10.54896,0.2366 -5.08915,-4.5148 m 9.65298,-2.85604 -6.21472,-2.7677 m 8.37792,-3.45764 -6.58176,-1.7214"
         inkstitch:satin_column="true"
         transform="scale(0.264583)"
         sodipodi:nodetypes="ccccccccccccccccccccccccccccccccccccccccccc" /><path
         id="path9415"
         style="fill:none;stroke:#000000;stroke-width:1px"
         d="m 193.32554,172.08354 -1.98142,-0.26178 -3.60001,-1.21083 -3.41922,-1.54517 -3.25254,-1.81935 -3.10395,-2.03654 -2.97459,-2.20008 -1.09919,-1.06929 m 25.54724,5.39315 -3.45498,-0.31215 -3.1382,-0.67506 -3.02839,-1.01857 -2.93958,-1.32843 -2.86586,-1.60305 -2.80325,-1.83926 -2.75021,-2.03412 -2.11227,-1.84219 m 17.34489,9.22035 -1.90285,6.48053 m -2.98298,-8.13335 -2.80161,6.19951 m -3.40999,-9.66008 -3.73205,5.68811"
         inkstitch:satin_column="true"
         transform="scale(0.264583)"
         sodipodi:nodetypes="ccccccccccccccccccccccc" /><path
         id="path6202"
         style="fill:none;stroke:#000000;stroke-width:1px"
         d="m 165.22039,109.51358 1.25435,-1.06509 2.00961,-1.91311 1.83941,-1.98508 1.66529,-2.05419 1.48725,-2.12077 1.30584,-2.185671 1.12129,-2.249283 0.93342,-2.312656 0.7422,-2.376359 0.54697,-2.441438 0.34701,-2.508073 0.14135,-2.576919 -0.0707,-2.647679 -0.29033,-2.719971 -0.51781,-2.793076 -0.52111,-2.446506 m -6.95217,39.552601 2.25979,-2.15129 2.08759,-2.25292 1.90771,-2.35321 1.71955,-2.45203 1.52276,-2.54873 1.31731,-2.642516 1.10298,-2.732744 0.8802,-2.818241 0.64943,-2.898762 0.41139,-2.973327 0.16685,-3.041881 -0.0829,-3.104521 -0.33747,-3.161629 -0.48516,-1.738636 m -11.59239,36.237207 -4.8623,-4.92135 m 8.95294,0.48294 -5.28472,-4.28423 m 10.405,-3.621345 -6.08855,-3.03519 m 8.97704,-5.047022 -6.63858,-1.487286 m 7.55996,-7.976528 -6.80073,0.181598 m 6.35354,-3.9007 -6.65315,1.029802"
         inkstitch:satin_column="true"
         transform="scale(0.264583)"
         sodipodi:nodetypes="cccccccccccccccccccccccccccccccccccccccccccc" /><path
         id="path6174"
         style="fill:none;stroke:#000000;stroke-width:1px"
         d="m 158.98737,156.01842 2.37748,-2.23257 2.1766,-2.52861 2.08488,-2.83701 1.95416,-2.99715 1.44417,-2.52949 4.41078,-13.30622 m -10.56721,30.56381 2.59692,-2.43863 2.5154,-2.92219 2.30812,-3.14079 2.82311,-4.02967 m -8.45303,11.62761 -4.65704,-4.95932 m 11.55651,-3.54775 -5.69883,-3.71567"
         inkstitch:satin_column="true"
         transform="scale(0.264583)"
         sodipodi:nodetypes="cccccccccccccccc" /><path
         id="path8734"
         style="fill:none;stroke:#000000;stroke-width:1px"
         d="m 157.78177,145.16223 2.09981,-1.23264 1.88841,-1.58828 1.92859,-2.00853 1.95178,-2.2912 3.96074,-4.78498 2.11321,-2.24746 2.08548,-1.77525 m -13.15796,20.81748 2.51259,-1.47496 2.48579,-2.09072 3.47156,-3.67565 m -6.78076,6.90713 -3.44407,-5.86697 m 10.27467,-0.32541 -5.17884,-4.41163"
         inkstitch:satin_column="true"
         transform="scale(0.264583)"
         sodipodi:nodetypes="cccccccccccccccc" /><path
         id="path3278"
         style="fill:none;stroke:#000000;stroke-width:1px"
         d="m 156.0057,133.22271 0.47738,-11.25804 0.51077,-5.21548 -5.35132,-3.59946 m 10.02737,20.31316 0.47262,-11.14576 0.45192,-5.49769 0.16826,-2.34516 m -0.0991,8.93503 -6.79705,-0.28822 m 7.40878,-7.30013 -8.22701,0.1994"
         inkstitch:satin_column="true"
         transform="scale(0.264583)"
         sodipodi:nodetypes="cccccccccccc" /><path
         id="path8602"
         style="fill:none;stroke:#000000;stroke-width:1px"
         d="m 142.13145,129.30021 1.95646,-2.13607 1.71924,-2.19547 1.55959,-2.32456 1.39959,-2.4386 1.23935,-2.53652 1.07868,-2.61807 0.80727,-2.20335 m -5.57948,20.28182 2.10434,-2.29753 1.98256,-2.53173 1.78601,-2.66204 1.59221,-2.7742 1.40145,-2.86828 1.80355,-3.35098 m -8.95325,15.44964 -5.01685,-4.59501 m 10.25391,-2.60577 -5.90041,-3.38645 m 8.65105,-2.42728 -6.43682,-2.20234"
         inkstitch:satin_column="true"
         transform="scale(0.264583)"
         sodipodi:nodetypes="ccccccccccccccccccccc" /><path
         id="path8461"
         style="fill:none;stroke:#000000;stroke-width:1px"
         d="m 139.17537,104.16126 0.47125,-1.79699 0.93611,-2.657806 0.63642,-2.795665 0.3364,-2.883996 0.0389,-2.920563 -0.25375,-2.903933 -0.53884,-2.833988 -0.56313,-4.482278 m 3.91828,25.140609 0.71992,-1.44692 1.16129,-3.29719 0.77658,-3.411339 0.4056,-3.477204 0.0466,-3.497237 -0.30345,-3.472667 -0.64716,-3.403612 -2.27023,-4.358265 m 1.62764,24.270344 -6.08783,-3.03664 m 7.94776,-4.295247 -6.75734,-0.788207 m 6.48782,-9.842204 -6.68342,1.270766"
         inkstitch:satin_column="true"
         transform="scale(0.264583)"
         sodipodi:nodetypes="cccccccccccccccccccccccc" /><path
         id="path1072"
         style="stroke:#000000;stroke-width:1px;fill:none"
         d="M 142.631 105.167 L 143.658 105.626 L 145.821 106.272 L 148.126 106.714 L 150.555 107.008 L 155.736 107.42 L 158.425 107.686 L 161.224 108.118 L 164.592 109.093 L 167.75 110.64 L 170.581 112.648 L 173.054 115.035 L 175.142 117.726 L 176.812 120.658 L 178.031 123.768 L 178.732 126.909 L 179.218 131.081 L 179.485 134.979 L 179.552 138.69 L 179.428 142.22 L 179.12 145.573 L 178.637 148.754 L 177.987 151.765 L 177.179 154.61 L 176.223 157.292 L 175.129 159.814 L 173.905 162.178 L 172.564 164.388 L 171.117 166.445 L 169.547 168.389 L 166.259 171.745 L 162.697 174.598 L 158.987 176.959 L 155.214 178.875 L 151.46 180.396 L 147.803 181.572 L 144.32 182.45 L 141.086 183.076 L 138.205 183.493 L 132.599 184.181 L 129.509 184.731 L 126.625 185.509 L 125.485 185.95 L 124.541 186.434 L 123.884 186.901 L 123.525 187.284 L 123.386 187.546 L 123.341 187.798 L 123.405 188.275 L 123.744 189.109 L 124.014 189.518 L 124.303 189.818 L 125.448 190.583 L 128.875 192.085 L 130.791 193.234 L 131.838 194.251 L 132.652 195.496 L 133.163 196.974 L 133.326 198.581 L 133.172 200.267 L 132.792 201.842 L 132.62 202.727 L 132.622 203.447 L 132.762 204.234 L 133.048 205.065 L 133.476 205.907 L 134.033 206.724 L 134.697 207.482 L 135.443 208.15 L 136.24 208.702 L 137.056 209.118 L 137.858 209.388 L 138.621 209.509 L 139.335 209.49 L 140.017 209.332 L 140.701 209.011 L 141.445 208.452 L 143.658 206.121 L 145.717 203.429 L 149.805 197.423 L 152.096 194.369 L 154.724 191.514 L 156.286 190.147 L 157.967 188.918 L 159.814 187.825 L 161.779 186.922 L 171.04 183.344 L 175.598 181.539 L 180.058 179.64 L 184.38 177.586 L 188.523 175.322 L 192.448 172.79 L 196.195 169.876 L 200.356 166.408 L 204.111 162.707 L 207.472 158.74 L 210.405 154.512 L 212.898 149.993 L 213.938 147.689 L 214.867 145.287 L 215.621 142.956 L 215.664 142.821 L 216.327 140.291 L 216.851 137.695 L 217.229 135.05 L 217.557 130.574 L 217.529 126.091 L 217.151 121.616 L 216.425 117.184 L 215.356 112.828 L 213.949 108.583 L 212.21 104.481 L 210.144 100.558 L 207.006 95.6867 L 203.528 91.247 L 199.716 87.2187 L 195.571 83.5846 L 191.098 80.3291 L 186.297 77.4388 L 181.172 74.9019 L 175.754 72.7189 L 171.829 71.5386 L 167.827 70.6275 L 163.787 69.9858 L 159.717 69.6056 L 155.63 69.4788 L 151.534 69.5977 L 147.442 69.9542 L 143.364 70.5404 L 139.311 71.3482 L 135.296 72.3694 L 131.33 73.5954 L 127.424 75.0179 L 123.591 76.6281 L 119.841 78.4172 L 116.188 80.3763 L 112.66 82.4852 L 107.727 85.8648 L 103.058 89.6273 L 98.7068 93.7524 L 94.7415 98.2071 L 91.2076 102.987 L 89.6591 105.434 L 88.23 107.972 L 86.9459 110.566 L 85.8142 113.215 L 84.8421 115.913 L 84.0693 118.548 L 83.9359 119.481 L 83.9944 119.903 L 84.1144 120.141 L 84.3951 120.424 L 84.9886 120.782 L 85.9268 121.138 L 87.1594 121.436 L 88.5864 121.651 L 91.9794 121.867 L 95.535 121.875 L 98.9587 121.832 L 101.827 121.911 L 104.813 122.072 L 107.578 122.063 L 110.241 121.891 L 112.807 121.561 L 115.282 121.073 L 117.67 120.431 L 119.979 119.635 L 122.215 118.686 L 124.383 117.582 L 126.49 116.325 L 128.539 114.911 L 130.535 113.34 L 132.481 111.612 L 134.356 109.749 L 139.51 103.772 Z M 140.318 110.343 L 141.682 110.953 L 144.473 111.786 L 147.25 112.319 L 149.989 112.651 L 155.232 113.067 L 157.712 113.312 L 159.998 113.665 L 162.541 114.401 L 164.844 115.53 L 166.953 117.025 L 168.824 118.831 L 170.415 120.883 L 171.683 123.108 L 172.593 125.43 L 173.135 127.857 L 173.571 131.603 L 173.82 135.224 L 173.881 138.641 L 173.768 141.86 L 173.49 144.887 L 173.058 147.729 L 172.483 150.392 L 171.776 152.883 L 170.947 155.209 L 170.005 157.38 L 168.959 159.402 L 167.817 161.282 L 166.588 163.029 L 165.307 164.615 L 162.448 167.534 L 159.394 169.981 L 156.176 172.028 L 152.862 173.711 L 149.525 175.063 L 146.241 176.119 L 143.087 176.914 L 140.141 177.485 L 137.454 177.873 L 131.756 178.572 L 128.271 179.193 L 124.858 180.114 L 123.163 180.77 L 121.591 181.575 L 120.137 182.608 L 118.872 183.957 L 117.959 185.677 L 117.605 187.678 L 117.882 189.744 L 118.704 191.764 L 119.568 193.073 L 120.643 194.191 L 122.714 195.574 L 126.268 197.133 L 127.313 197.759 L 127.437 197.88 L 127.523 198.011 L 127.589 198.202 L 127.63 198.61 L 127.564 199.34 L 127.251 200.635 L 126.949 202.189 L 126.954 203.958 L 127.259 205.664 L 127.816 207.282 L 128.586 208.798 L 129.541 210.2 L 130.659 211.476 L 131.925 212.61 L 133.326 213.58 L 134.854 214.359 L 136.5 214.912 L 138.246 215.191 L 140.06 215.142 L 141.883 214.719 L 143.64 213.895 L 145.23 212.699 L 147.977 209.805 L 150.315 206.749 L 154.418 200.721 L 156.46 197.999 L 158.688 195.579 L 159.833 194.577 L 161.09 193.657 L 162.448 192.854 L 163.987 192.147 L 173.106 188.623 L 177.752 186.784 L 182.386 184.811 L 186.959 182.638 L 191.423 180.197 L 195.731 177.419 L 199.751 174.292 L 204.168 170.612 L 208.272 166.566 L 211.974 162.196 L 215.229 157.505 L 217.972 152.532 L 219.17 149.879 L 220.212 147.183 L 221.015 144.701 L 221.108 144.414 L 221.853 141.571 L 222.441 138.658 L 222.869 135.659 L 223.228 130.764 L 223.197 125.834 L 222.781 120.918 L 221.984 116.048 L 220.808 111.258 L 219.258 106.581 L 217.337 102.05 L 215.045 97.6967 L 211.63 92.3965 L 207.828 87.5424 L 203.652 83.1301 L 199.115 79.1522 L 194.234 75.5997 L 189.021 72.4614 L 183.493 69.7247 L 177.634 67.3641 L 173.276 66.0538 L 168.902 65.0579 L 164.496 64.358 L 160.069 63.9444 L 155.635 63.807 L 151.206 63.9355 L 146.792 64.32 L 142.406 64.9506 L 138.058 65.8172 L 133.759 66.9104 L 129.522 68.2204 L 125.355 69.7379 L 121.271 71.4535 L 117.28 73.358 L 113.392 75.4425 L 109.601 77.709 L 104.341 81.3122 L 99.3232 85.3561 L 94.632 89.8034 L 90.3359 94.6297 L 86.5266 99.7817 L 84.7905 102.526 L 83.216 105.321 L 81.7947 108.194 L 80.5362 111.139 L 79.4503 114.153 L 78.5147 117.343 L 78.2105 119.469 L 78.5084 121.614 L 79.4542 123.491 L 80.8635 124.916 L 82.5 125.901 L 84.247 126.565 L 86.07 127.006 L 87.9844 127.293 L 91.7924 127.536 L 95.5642 127.544 L 98.9167 127.502 L 101.596 127.576 L 104.669 127.742 L 107.77 127.731 L 110.786 127.537 L 113.718 127.16 L 116.567 126.599 L 119.332 125.855 L 122.013 124.931 L 124.611 123.827 L 127.125 122.548 L 129.556 121.097 L 131.905 119.476 L 134.173 117.691 L 136.365 115.745 L 138.507 113.616 L 141.135 110.569 M 152.176 113.393 L 152.715 106.611 M 173.26 140.165 L 180.059 140.405 M 166.495 162.176 L 172.06 166.09 M 157.158 170.731 L 160.81 176.471 M 147.735 175.043 L 149.817 181.52 M 137.375 177.312 L 138.204 184.064 M 124.049 196.779 L 126.781 190.548 M 130.665 212.242 L 135.204 207.175 M 154.512 201.591 L 148.888 197.763 M 176.091 188.051 L 173.587 181.726 M 194.311 179.009 L 190.623 173.292 M 201.378 173.674 L 197.024 168.447 M 209.927 165.49 L 204.735 161.093 M 216.827 155.781 L 210.871 152.494 M 215.082 142.781 L 221.554 144.875 M 223.632 133.005 L 216.847 132.507 M 223.614 124.032 L 216.835 124.606 M 220.809 109.457 L 214.351 111.597 M 213.055 93.5614 L 207.336 97.246 M 205.576 84.3387 L 200.635 89.0152 M 196.577 76.6036 L 192.574 82.1044 M 186.426 70.5443 L 183.408 76.6413 M 175.469 66.1211 L 173.51 72.6361 M 166.794 64.1489 L 165.726 70.8679 M 157.963 63.3119 L 157.752 70.1118 M 149.124 63.5478 L 149.714 70.3253 M 140.393 64.7736 L 141.723 71.4455 M 131.862 66.9037 L 133.871 73.4034 M 123.598 69.861 L 126.233 76.1333 M 115.662 73.5824 L 118.876 79.578 M 105.753 79.658 L 109.597 85.2705 M 96.633 87.1253 L 101.313 92.0625 M 87.0128 98.1705 L 92.4831 102.215 M 99.4264 128.083 L 99.613 121.283 M 133.45 118.982 L 129.243 113.635"
         inkstitch:satin_column="true"
         transform="scale(0.264583, 0.264583)" /><path
         id="path7977"
         style="fill:none;stroke:#000000;stroke-width:1px"
         d="m 55.517197,98.317484 -0.275429,1.453708 -0.118737,1.277518 0.121742,2.76793 0.593022,2.64332 1.038333,2.47977 1.484705,2.27471 0.819244,0.93106 0.949448,0.88246 1.032006,0.77553 1.11233,0.66112 1.192324,0.53923 1.383606,0.44454 1.876282,0.53271 1.807559,0.32364 4.015295,0.30405 5.977228,-0.12413 m -28.579152,-19.222534 -0.325371,1.717292 -0.179463,1.930882 0.160858,3.65727 0.812378,3.62108 1.430867,3.41723 1.989495,3.04809 1.276156,1.45034 1.374952,1.27794 1.514194,1.13787 1.64827,0.97968 1.775076,0.80277 1.783594,0.57306 2.241118,0.63629 2.369041,0.42416 4.455105,0.33735 4.279079,0.0927 m -27.55588,-22.786523 6.773955,0.629593 m -5.220709,9.76803 6.275244,-2.62758 m 0.13667,11.09849 4.087015,-5.43868 m 5.20934,9.22318 1.199005,-6.69665 m 6.979496,7.35135 0.147409,-6.80155"
         inkstitch:satin_column="true"
         transform="scale(0.264583)"
         sodipodi:nodetypes="cccccccccccccccccccccccccccccccccccccccccccc" /><path
         id="path4300"
         style="fill:none;stroke:#000000;stroke-width:1px"
         d="m 81.673722,125.44467 -1.150728,0.82992 -3.150008,2.03405 -3.390127,1.58088 -3.561273,1.13429 -3.668568,0.69243 -3.715035,0.25188 -3.701647,-0.19162 -3.705279,-0.65568 -2.109756,-0.79682 -1.894072,-0.95612 -3.26003,-2.06949 -3.022968,-2.04286 -1.405223,-0.84163 -1.526439,-0.75904 m 35.979103,-7.23559 -2.180138,5.90012 -1.58712,1.01557 -2.708273,1.26292 -2.885727,0.91911 -2.997432,0.56577 -3.040365,0.20612 -3.013353,-0.15598 -2.839721,-0.50252 -1.332844,-0.50338 -1.376128,-0.69468 -2.95637,-1.87671 -3.084032,-2.08414 -1.728377,-1.03517 -1.724961,-0.85776 m 30.70885,3.65581 4.493138,5.10829 m -10.136039,-2.73034 2.064641,6.48229 m -10.285032,-5.43604 -0.351692,6.79405 m -6.305044,-8.30447 -3.065765,6.07322 m -4.072702,-10.65207 -3.495589,5.83641"
         inkstitch:satin_column="true"
         transform="scale(0.264583)"
         sodipodi:nodetypes="cccccccccccccccccccccccccccccccccccccccc" /></g></g><path
     id="path3"
     style="fill:none;fill-rule:evenodd;stroke:#000000;stroke-width:0.2;stroke-linecap:round;stroke-dasharray:none;stroke-opacity:1"
     d="m 32.278003,24.160493 0.950653,0.664684 0.262782,1.012484 -0.417359,0.942925 -0.703329,0.340069 m -0.697781,-2.936975 -0.950653,0.664684 -0.262782,1.012484 0.417359,0.942925 0.703329,0.340069 m 1.25981,-2.763075 -1.700355,-0.02319 m 2.303207,0.726516 -2.944705,0.0077 m 3.083826,1.112992 -3.076097,0.03091 m 2.280021,0.788352 -1.700355,-0.02319"
     sodipodi:nodetypes="cccccccccccccccccc"
     inkstitch:satin_column="True" /></svg>
