<?xml version="1.0" encoding="UTF-8" standalone="no"?>
<!-- Created with Inkscape (http://www.inkscape.org/) -->

<svg
   width="70mm"
   height="70mm"
   viewBox="0 0 70 70"
   version="1.1"
   id="svg1"
   xml:space="preserve"
   sodipodi:docname="Shrimp.svg"
   inkscape:version="1.3.2 (091e20e, 2023-11-25)"
   xmlns:inkscape="http://www.inkscape.org/namespaces/inkscape"
   xmlns:sodipodi="http://sodipodi.sourceforge.net/DTD/sodipodi-0.dtd"
   xmlns="http://www.w3.org/2000/svg"
   xmlns:svg="http://www.w3.org/2000/svg"
   xmlns:inkstitch="http://inkstitch.org/namespace"><sodipodi:namedview
     id="namedview1"
     pagecolor="#ffffff"
     bordercolor="#000000"
     borderopacity="0.25"
     inkscape:showpageshadow="2"
     inkscape:pageopacity="0.0"
     inkscape:pagecheckerboard="0"
     inkscape:deskcolor="#d1d1d1"
     inkscape:document-units="mm"
     inkscape:zoom="2.5265894"
     inkscape:cx="126.45505"
     inkscape:cy="145.05721"
     inkscape:window-width="1680"
     inkscape:window-height="924"
     inkscape:window-x="1800"
     inkscape:window-y="49"
     inkscape:window-maximized="0"
     inkscape:current-layer="layer1" /><metadata
     id="metadata1"><inkstitch:min_stitch_len_mm>0.1</inkstitch:min_stitch_len_mm><inkstitch:collapse_len_mm>3</inkstitch:collapse_len_mm><inkstitch:inkstitch_svg_version>2</inkstitch:inkstitch_svg_version></metadata><defs
     id="defs1" /><g
     inkscape:label="Ebene 1"
     inkscape:groupmode="layer"
     id="layer1"><circle
       style="fill:none;fill-rule:evenodd;stroke:#ee3636;stroke-width:0.133682;stroke-linecap:round"
       id="path56"
       cx="35.473366"
       cy="34.238319"
       r="27.02755" /><path
       id="path8744"
       style="stroke:#000000;stroke-width:1px;fill:none"
       d="M 130.378 31.19 L 126.672 31.329 L 119.378 32.1525 L 112.226 33.505 L 105.239 35.3699 L 98.441 37.7312 L 91.8573 40.5725 L 85.5121 43.8775 L 79.4301 47.6299 L 73.6359 51.8131 L 68.1542 56.4105 L 63.0097 61.4057 L 58.2268 66.7822 L 53.83 72.5237 L 49.8433 78.6143 L 46.2913 85.0378 L 43.1977 91.7796 L 40.618 98.7343 L 38.5876 105.788 L 37.0999 112.914 L 36.149 120.083 L 35.7292 127.266 L 35.8349 134.436 L 36.46 141.563 L 37.5993 148.618 L 39.2466 155.572 L 41.3964 162.396 L 44.0427 169.061 L 47.1796 175.537 L 50.8015 181.796 L 54.9027 187.81 L 59.478 193.55 L 64.5227 198.988 L 69.9609 204.033 L 75.7008 208.608 L 81.7146 212.709 L 87.974 216.331 L 94.4504 219.468 L 101.115 222.114 L 107.939 224.264 L 114.893 225.912 L 121.948 227.051 L 129.075 227.676 L 136.244 227.782 L 137.712 227.696 L 143.428 227.362 L 150.597 226.411 L 157.723 224.923 L 164.777 222.893 L 171.731 220.313 L 178.473 217.22 L 184.897 213.667 L 190.987 209.681 L 196.729 205.284 L 202.105 200.501 L 207.1 195.357 L 211.698 189.875 L 215.881 184.081 L 219.633 177.999 L 222.938 171.654 L 225.78 165.07 L 228.141 158.272 L 230.006 151.285 L 231.358 144.133 L 232.182 136.839 L 232.461 129.397 L 232.334 124.36 L 231.954 119.362 L 231.328 114.438 L 230.463 109.595 L 229.365 104.836 L 228.04 100.17 L 226.494 95.6005 L 224.733 91.1345 L 222.763 86.778 L 220.591 82.5368 L 218.222 78.4173 L 215.663 74.4257 L 212.92 70.5682 L 209.999 66.851 L 206.906 63.2804 L 203.648 59.8629 L 200.23 56.6046 L 196.66 53.5117 L 192.943 50.5906 L 189.085 47.8475 L 185.094 45.2885 L 180.974 42.9199 L 176.733 40.7477 L 172.376 38.7781 L 167.91 37.0172 L 163.341 35.4711 L 158.674 34.146 L 153.916 33.0478 L 149.073 32.1828 L 144.149 31.5572 L 139.151 31.1772 L 134.114 31.0498 Z M 130.024 21.7478 L 125.964 21.9002 L 117.969 22.8029 L 110.127 24.2856 L 102.466 26.3303 L 95.0142 28.919 L 87.7975 32.0335 L 80.8429 35.6559 L 74.1771 39.7683 L 67.8269 44.3529 L 61.8188 49.3919 L 56.1797 54.8673 L 50.9362 60.7616 L 46.1156 67.0565 L 41.7449 73.7339 L 37.8511 80.7752 L 34.4619 88.1612 L 31.6358 95.7803 L 29.4102 103.513 L 27.7791 111.325 L 26.7366 119.185 L 26.2764 127.06 L 26.3921 134.919 L 27.0774 142.731 L 28.3259 150.463 L 30.1314 158.084 L 32.4876 165.563 L 35.3883 172.869 L 38.8272 179.969 L 42.7983 186.831 L 47.2947 193.424 L 52.31 199.716 L 57.8367 205.674 L 63.7945 211.201 L 70.0864 216.216 L 76.6798 220.713 L 83.5424 224.684 L 90.6422 228.123 L 97.9476 231.023 L 105.427 233.379 L 113.048 235.185 L 120.78 236.433 L 128.591 237.119 L 136.451 237.234 L 138.263 237.129 L 144.326 236.774 L 152.186 235.732 L 159.998 234.101 L 167.73 231.875 L 175.35 229.049 L 182.736 225.66 L 189.777 221.766 L 196.454 217.395 L 202.749 212.575 L 208.643 207.331 L 214.119 201.692 L 219.158 195.684 L 223.743 189.334 L 227.855 182.668 L 231.477 175.713 L 234.592 168.497 L 237.181 161.045 L 239.225 153.384 L 240.708 145.542 L 241.611 137.547 L 241.914 129.455 L 241.773 123.882 L 241.357 118.407 L 240.672 113.011 L 239.723 107.7 L 238.519 102.482 L 237.065 97.3632 L 235.369 92.3513 L 233.438 87.4531 L 231.278 82.6756 L 228.897 78.0256 L 226.3 73.5097 L 223.495 69.1349 L 220.489 64.9078 L 217.289 60.8352 L 213.901 56.9236 L 210.331 53.1797 L 206.587 49.6102 L 202.676 46.2219 L 198.603 43.0214 L 194.376 40.0155 L 190.001 37.2109 L 185.485 34.6143 L 180.835 32.2327 L 176.058 30.0729 L 171.16 28.1416 L 166.148 26.4457 L 161.029 24.9922 L 155.811 23.7878 L 150.5 22.8394 L 145.103 22.1536 L 139.629 21.7374 L 134.056 21.5964 Z M 123.107 21.2718 L 124.379 32.5388 M 113.086 22.7644 L 115.193 33.9055 M 99.7645 26.2686 L 103.485 36.9793 M 90.3205 29.9155 L 94.8133 40.326 M 78.0962 36.2402 L 84.0497 45.89 M 69.6749 41.8533 L 76.312 51.0464 M 59.124 50.6914 L 67.0227 58.8262 M 52.1239 58.0049 L 60.5955 65.5411 M 43.7512 68.9434 L 53.2381 75.1532 M 38.5174 77.6179 L 48.4399 83.1049 M 32.7235 90.1309 L 43.3544 94.0741 M 29.5121 99.7425 L 40.4083 102.879 M 26.1505 116.417 L 37.3906 117.908 M 25.3771 130.166 L 36.7145 129.999 M 25.9133 140.274 L 37.2085 139.283 M 28.1577 153.852 L 39.1909 151.238 M 30.8784 163.6 L 41.693 160.193 M 36.0322 176.365 L 46.2367 171.423 M 44.5532 191.082 L 53.9208 184.693 M 53.0685 201.923 L 61.3812 194.212 M 60.1839 209.14 L 67.895 200.828 M 67.9142 215.693 L 74.9817 206.827 M 79.3663 223.359 L 85.045 213.545 M 88.337 228.056 L 93.2798 217.851 M 101.174 233.03 L 104.581 222.216 M 110.948 235.658 L 113.561 224.625 M 124.556 237.713 L 125.547 226.418 M 137.657 226.753 L 138.319 238.072 M 148.406 237.186 L 146.915 225.946 M 165.041 233.632 L 161.904 222.736 M 177.985 228.879 L 173.256 218.574 M 187.052 224.353 L 181.565 214.43 M 201.219 214.937 L 194.325 205.935 M 211.486 205.76 L 203.351 197.862 M 218.253 198.233 L 209.566 190.947 M 226.265 187.044 L 216.616 181.091 M 231.234 178.227 L 221.178 172.988 M 236.614 165.555 L 225.903 161.834 M 240.993 149.123 L 229.851 147.017 M 242.757 132.199 L 231.426 131.774 M 242.567 121.849 L 231.261 122.709 M 240.071 105.005 L 229.023 107.555 M 237.301 95.1117 L 226.56 98.746 M 230.685 79.4449 L 220.593 84.6136 M 225.538 70.5707 L 215.993 76.6902 M 219.582 62.2237 L 210.667 69.2297 M 212.871 54.4741 L 204.664 62.2981 M 205.464 47.387 L 198.04 55.9574 M 197.425 41.024 L 190.854 50.2644 M 188.82 35.4419 L 183.168 45.2715 M 173.508 28.052 L 169.349 38.6003 M 163.77 24.7883 L 160.673 35.6957 M 153.76 22.4618 L 151.767 33.6238 M 136.818 20.7211 L 136.532 32.0561"
       inkstitch:satin_column="true"
       transform="scale(0.264583, 0.264583)" /><g
       id="g56"><path
         style="fill:#fc4747;fill-rule:evenodd;stroke:none;stroke-width:0.177551;stroke-linecap:round;stroke-opacity:1;fill-opacity:1"
         d="m 86.59654,121.83561 c -2.878684,-0.64625 -3.271261,-1.33314 -2.597574,-4.54496 0.716237,-3.41468 4.982336,-12.12149 7.866585,-16.05516 10.485809,-14.300979 26.691729,-24.99128 45.072489,-29.732246 7.29776,-1.882319 11.6317,-2.413999 19.26058,-2.362858 7.26583,0.04871 11.5238,0.655995 17.94502,2.559382 l 3.38215,1.002541 0.72834,3.202284 c 0.92291,4.057715 0.92331,10.579 8.8e-4,14.526185 -1.40501,6.012259 -7.17446,15.217412 -11.57497,18.467872 -1.21146,0.89485 -1.37395,0.90224 -3.99305,0.18155 -1.50162,-0.41319 -5.26697,-0.97524 -8.36745,-1.249 -8.05699,-0.7114 -10.72537,-1.30425 -10.31097,-2.29084 2.88713,-6.873622 3.40555,-17.868971 1.12527,-23.866547 -0.42009,-1.104911 -0.43053,-1.106321 -2.42977,-0.327898 -1.10433,0.429983 -2.07323,0.830386 -2.15312,0.889784 -0.0799,0.0594 0.21319,1.340963 0.65128,2.84792 1.63897,5.637865 0.83979,13.533503 -1.92135,18.982351 -2.49958,4.93268 -11.1423,12.519 -17.43047,15.29992 -5.71607,2.52792 -9.24719,3.0069 -21.78934,2.95567 -6.330155,-0.0259 -12.389194,-0.24454 -13.46453,-0.48595 z m 37.94553,-20.51057 c 1.19908,-1.07138 1.52096,-1.7765 1.71025,-3.746494 0.21963,-2.285677 0.13694,-2.522968 -1.42269,-4.082591 -1.38807,-1.388069 -1.98635,-1.655582 -3.69936,-1.65411 -2.59458,0.0022 -4.97411,1.403083 -5.35853,3.154622 -0.1577,0.718542 -0.36208,1.554916 -0.45418,1.858609 -0.0921,0.303694 0.0442,1.318824 0.30295,2.255846 0.96666,3.500948 6.06519,4.766278 8.92156,2.214118 z"
         id="path10"
         transform="scale(0.264583, 0.264583)"
         inkstitch:row_spacing_mm="0.2"
         inkstitch:angle="10" /><path
         style="fill:#fc4747;fill-opacity:1;fill-rule:evenodd;stroke:none;stroke-width:0.177551;stroke-linecap:round;stroke-opacity:1"
         d="m 177.54546,123.90191 c -1.05202,-3.24948 -2.72251,-6.0739 -5.18769,-8.77119 l -2.44736,-2.67781 2.36753,-2.43776 c 4.90972,-5.05535 8.00356,-10.213946 10.06732,-16.785983 0.95392,-3.037752 1.09882,-4.450448 1.09087,-10.635759 l -0.009,-7.132715 3.29756,1.72551 c 7.18202,3.758129 15.83865,11.347232 20.27118,17.771341 l 1.66479,2.4128 -1.19957,4.398866 c -3.92261,14.38434 -8.63034,19.13904 -22.30901,22.5316 -3.00563,0.74545 -5.81833,1.35702 -6.25045,1.35905 -0.4948,0.002 -0.99681,-0.64849 -1.356,-1.75795 z"
         id="path11"
         transform="scale(0.264583, 0.264583)"
         inkstitch:row_spacing_mm="0.2"
         inkstitch:angle="-40" /><path
         style="fill:#fc4747;fill-opacity:1;fill-rule:evenodd;stroke:none;stroke-width:0.177551;stroke-linecap:round;stroke-opacity:1"
         d="m 188.143,142.29615 c -0.77512,-0.11095 -3.15334,-0.43246 -5.28492,-0.71447 l -3.8756,-0.51275 -0.006,-4.29686 c -0.004,-2.36327 -0.12547,-4.74034 -0.27099,-5.28238 -0.24323,-0.90602 0.0699,-1.05185 3.88202,-1.80775 13.23245,-2.62385 20.97204,-7.19164 24.97709,-14.74107 0.86346,-1.62759 2.25143,-4.99203 3.08438,-7.47654 l 1.51447,-4.51729 1.49358,3.72449 c 3.09141,7.7089 4.3168,14.11544 4.3168,22.56892 v 5.80268 l -2.4663,1.28378 c -4.3924,2.2864 -9.14539,4.30455 -11.94444,5.07172 -2.6627,0.7298 -12.56483,1.30616 -15.41967,0.89752 z"
         id="path12"
         transform="scale(0.264583, 0.264583)"
         inkstitch:row_spacing_mm="0.2"
         inkstitch:angle="-80" /><path
         style="fill:#fc4747;fill-opacity:1;fill-rule:evenodd;stroke:none;stroke-width:0.177551;stroke-linecap:round;stroke-opacity:1"
         d="m 194.71978,167.24768 c -5.39754,-1.18822 -10.01548,-3.48503 -15.80957,-7.86314 l -3.12578,-2.36189 0.82365,-2.40854 c 0.45301,-1.3247 1.09539,-3.85975 1.42751,-5.63344 l 0.60386,-3.2249 2.16804,0.27277 c 9.14016,1.14995 13.90222,1.36742 18.24811,0.83335 4.75849,-0.58479 11.15971,-2.49458 15.16611,-4.52477 l 2.36745,-1.19968 -0.31476,1.30613 c -0.8775,3.64133 -3.98369,10.13352 -6.91783,14.45886 -2.79071,4.11389 -9.61541,11.04885 -10.82816,11.0031 -0.5445,-0.0205 -2.25839,-0.31657 -3.80863,-0.65785 z"
         id="path13"
         transform="scale(0.264583, 0.264583)"
         inkstitch:row_spacing_mm="0.2"
         inkstitch:angle="-110" /><path
         style="fill:#fc4747;fill-opacity:1;fill-rule:evenodd;stroke:none;stroke-width:0.177551;stroke-linecap:round;stroke-opacity:1"
         d="m 137.45183,209.72826 c -1.83596,-0.54276 -4.37089,-3.07308 -5.00571,-4.99658 -0.37318,-1.13077 -0.37524,-2.22417 -0.007,-3.93935 0.95334,-4.44527 -0.18963,-6.42953 -5.09302,-8.84172 -3.70854,-1.8244 -5.03457,-3.31086 -4.25423,-4.76893 0.71745,-1.34057 4.95176,-2.80032 10.21492,-3.52153 12.48988,-1.71148 19.33805,-3.65363 25.74417,-7.30111 4.36541,-2.48555 10.06383,-7.73394 12.65048,-11.6514 1.03349,-1.56523 2.02478,-2.8517 2.20286,-2.85882 0.17808,-0.007 1.97495,1.18084 3.99305,2.63993 4.15933,3.00721 9.95128,5.8904 13.7676,6.85342 l 2.58203,0.65154 -2.34714,1.72351 c -3.38485,2.4855 -12.40154,6.81763 -21.60771,10.38157 -4.39236,1.70039 -9.1025,3.6524 -10.46698,4.33779 -3.47808,1.74709 -6.78669,5.18773 -11.51164,11.97101 -4.21462,6.05063 -6.93758,9.06862 -8.55645,9.48351 -0.51675,0.13243 -1.55392,0.0592 -2.30483,-0.16284 z"
         id="path14"
         transform="scale(0.264583, 0.264583)"
         inkstitch:row_spacing_mm="0.2"
         inkstitch:angle="-150" /></g><path
       style="fill:#c3fcfb;fill-rule:evenodd;stroke:none;stroke-width:0.14959;stroke-linecap:round;fill-opacity:1"
       d="m 126.52533,226.5672 c -0.39672,-0.2444 -1.17837,-0.32966 -1.737,-0.18945 -1.26128,0.31656 -9.02223,-0.89701 -10.51546,-1.64429 -0.60502,-0.30278 -1.26522,-0.44842 -1.46711,-0.32365 -0.50908,0.31463 -6.79761,-1.32764 -7.5255,-1.9653 -0.32652,-0.28605 -1.03995,-0.5167 -1.58539,-0.51255 -1.28188,0.01 -9.279648,-3.11293 -9.906125,-3.86779 -0.263517,-0.31752 -0.805061,-0.57731 -1.203436,-0.57731 -0.949921,0 -6.80515,-3.08374 -7.213183,-3.79893 -0.17408,-0.30512 -0.619344,-0.55385 -0.989476,-0.55274 -0.872611,0.003 -8.285976,-5.00332 -8.781977,-5.93011 -0.208783,-0.39011 -0.815585,-0.81872 -1.348452,-0.95246 -0.532865,-0.13374 -2.255911,-1.49002 -3.828988,-3.01396 -1.573078,-1.52393 -2.982685,-2.77079 -3.132459,-2.77079 -0.149774,0 -1.465571,-1.29126 -2.923992,-2.86948 -1.458422,-1.57821 -3.081153,-3.31474 -3.60607,-3.85896 -1.958801,-2.0308 -6.537418,-8.1299 -6.537418,-8.70839 0,-0.33009 -0.346706,-0.81669 -0.770458,-1.08133 -1.148596,-0.71731 -6.592018,-10.13311 -6.958623,-12.03674 -0.07916,-0.41103 -0.396504,-0.99991 -0.705215,-1.30862 -0.770043,-0.77004 -4.004967,-8.9066 -3.931075,-9.88754 0.03286,-0.43619 -0.09918,-0.89129 -0.293414,-1.01133 -0.509361,-0.31481 -2.441706,-7.19142 -2.198731,-7.8246 0.112388,-0.29288 -0.04354,-0.92391 -0.346509,-1.40229 -0.707741,-1.11752 -1.96639,-8.72111 -1.680368,-10.15122 0.12199,-0.60995 0.0095,-1.30048 -0.254983,-1.56504 -0.576864,-0.57706 -0.635768,-18.92961 -0.06368,-19.8398 0.200911,-0.31965 0.408733,-1.56867 0.461827,-2.7756 0.126992,-2.88684 1.978993,-11.41215 2.728466,-12.55996 0.323831,-0.49593 0.491646,-1.05887 0.372923,-1.25097 -0.287621,-0.46538 2.054118,-7.309642 2.558647,-7.478217 0.217166,-0.07256 0.394847,-0.549396 0.394847,-1.059634 0,-1.177607 3.24916,-8.401199 4.330369,-9.62735 0.448199,-0.508282 0.814907,-1.166635 0.814907,-1.463007 0,-0.763195 2.727926,-5.32413 3.863726,-6.45993 0.522849,-0.522847 1.014902,-1.284348 1.093451,-1.692226 0.210674,-1.093941 6.11731,-8.656523 6.761042,-8.656523 0.303207,0 0.551286,-0.2414 0.551286,-0.536445 0,-0.771923 4.708034,-5.800035 5.830364,-6.226744 0.520139,-0.197757 0.847665,-0.518193 0.727836,-0.71208 -0.24666,-0.399104 6.894225,-6.408506 8.182201,-6.88572 0.460803,-0.170734 1.064565,-0.634148 1.341698,-1.029808 0.595561,-0.850281 5.372349,-4.026889 6.24883,-4.155529 0.334341,-0.04907 1.01246,-0.457174 1.506933,-0.906896 1.352369,-1.229975 8.569054,-4.877368 9.650302,-4.877368 0.520084,0 0.945607,-0.161485 0.945607,-0.358856 0,-0.478077 5.84732,-2.895593 7.16381,-2.961803 0.57005,-0.02867 1.28569,-0.258975 1.59031,-0.51179 0.83414,-0.692271 9.64571,-2.948786 10.39382,-2.661707 0.35842,0.137537 0.87203,0.06878 1.14136,-0.1528 1.9747,-1.624548 20.34694,-2.519968 29.74103,-1.449508 2.80947,0.320139 5.3452,0.778836 5.63498,1.019328 0.28977,0.240491 0.78162,0.339495 1.093,0.220009 0.70231,-0.269503 7.50842,1.291635 7.68957,1.76378 0.0726,0.189124 0.62021,0.343861 1.217,0.343861 1.45075,0 6.7175,1.813483 7.60847,2.619801 0.39049,0.35339 0.95796,0.547372 1.26103,0.431072 0.67133,-0.257614 12.53953,5.44086 12.53953,6.020811 0,0.226713 0.48979,0.53266 1.08842,0.679882 1.27394,0.3133 6.82738,3.959218 6.82738,4.482281 0,0.196382 0.40074,0.483314 0.89053,0.637628 1.22746,0.386723 5.32881,3.585589 6.09349,4.752649 0.34488,0.52634 0.82919,0.961466 1.07626,0.966948 1.03512,0.02297 11.24122,10.68946 11.82189,12.355171 0.20932,0.600456 0.58579,1.095999 0.83661,1.101208 0.58152,0.01208 4.61181,5.66778 4.61181,6.471749 0,0.33202 0.25075,0.746104 0.55722,0.920185 0.76944,0.437063 4.25834,6.419959 3.99358,6.848346 -0.11806,0.191021 0.12633,0.669611 0.54308,1.063537 1.336,1.262801 5.59247,11.443042 5.59247,13.375541 0,0.511219 0.17796,0.988859 0.39546,1.061423 0.53023,0.176887 2.01605,5.319721 2.03921,7.058261 0.0102,0.7619 0.17581,1.48291 0.36812,1.60224 0.9171,0.56906 2.70989,16.18949 2.42808,21.15571 -0.0371,0.65306 -0.0676,2.52317 -0.0679,4.1558 -5.9e-4,3.63105 -1.05469,12.32293 -1.53239,12.63574 -0.19105,0.1251 -0.35719,1.04789 -0.36921,2.05065 -0.0316,2.63938 -2.95202,13.01895 -3.663,13.01895 -0.18538,0 -0.32869,0.48979 -0.31848,1.08842 0.0219,1.28377 -3.04553,8.64142 -4.09455,9.82132 -0.39955,0.4494 -0.72645,1.04673 -0.72645,1.32739 0,0.84956 -2.81642,5.93125 -3.8082,6.87117 -0.51018,0.48351 -0.93077,1.14627 -0.93463,1.4728 -0.01,0.83802 -5.06553,7.84095 -6.19476,8.58084 -0.51486,0.33736 -0.93612,0.87085 -0.93612,1.18553 0,0.31469 -1.41847,1.99062 -3.15215,3.7243 -1.73368,1.73368 -3.29211,3.38705 -3.46317,3.67416 -0.63211,1.06092 -7.1589,6.5826 -7.78083,6.5826 -0.35414,0 -0.64411,0.22263 -0.64438,0.49474 -8.6e-4,0.87523 -11.22603,8.41474 -11.90422,7.9956 -0.17468,-0.10796 -0.63991,0.14305 -1.03384,0.55781 -0.87231,0.91845 -6.17457,3.61714 -7.10677,3.61714 -0.36924,0 -0.95546,0.25712 -1.3027,0.57137 -0.92387,0.83609 -7.88074,3.43335 -9.69783,3.62056 -0.85771,0.0884 -1.65918,0.30316 -1.78106,0.47733 -0.53021,0.75768 -12.48762,3.32861 -13.83844,2.97536 -0.41172,-0.10767 -1.14135,0.0145 -1.6214,0.27136 -1.2192,0.65249 -18.13599,0.98223 -19.12525,0.37278 z m 17.27607,-11.98774 c 2.40501,-1.40943 4.93574,-4.3027 9.51757,-10.88102 2.14944,-3.08604 4.9476,-6.57341 6.21815,-7.74971 2.07686,-1.92281 3.00092,-2.40775 9.15302,-4.80344 19.10939,-7.44139 24.7936,-10.51207 34.35037,-18.55651 3.03969,-2.55866 8.30146,-8.27585 10.65381,-11.5759 3.10387,-4.35434 6.81439,-11.88157 8.13607,-16.50498 4.51962,-15.81016 1.57162,-35.19249 -7.50148,-49.320293 -7.66558,-11.936138 -18.16174,-20.757611 -31.48039,-26.457624 -9.31371,-3.986009 -18.05278,-5.707337 -28.29234,-5.572725 -21.59011,0.283829 -44.643,10.201151 -60.056207,25.836098 -7.145522,7.24832 -13.07068,16.584554 -15.574949,24.541364 l -0.729426,2.3176 -5.554557,-0.19658 c -6.617098,-0.23418 -8.936289,-0.8645 -11.822134,-3.21307 -1.465195,-1.19241 -2.430784,-2.44207 -3.409799,-4.41294 -1.225746,-2.46757 -1.371968,-3.1127 -1.426179,-6.29223 -0.04054,-2.377751 -0.218241,-3.595388 -0.540378,-3.702766 -0.263986,-0.088 -0.580667,0.225058 -0.703736,0.695673 -0.141787,0.542193 -0.43406,0.774966 -0.797802,0.635386 -0.315723,-0.121155 -1.275291,-0.220281 -2.132373,-0.220281 -1.464585,0 -1.543392,-0.05953 -1.309989,-0.989476 0.202376,-0.806332 0.103041,-0.989476 -0.536671,-0.989476 -1.377442,0 -1.683355,3.75778 -0.717056,8.80817 1.192106,6.23058 4.93157,11.52316 9.930541,14.05501 2.66299,1.34874 6.933453,2.46009 10.681552,2.77978 l 3.562115,0.30382 -2.26628,0.87016 c -4.315748,1.65708 -9.537503,1.98749 -13.7868,0.87239 -0.774859,-0.20334 -3.621506,-1.79682 -6.325884,-3.54107 -2.704378,-1.74425 -5.231779,-3.17137 -5.616448,-3.17137 -1.039197,0 -0.846367,1.13738 0.279825,1.65051 l 0.979221,0.44616 -1.061216,1.88786 c -1.04178,1.85328 -1.080755,1.87775 -2.128005,1.3362 -0.940665,-0.48644 -1.095849,-0.47593 -1.312588,0.0889 -0.135191,0.35229 -0.197081,0.66838 -0.137536,0.7024 0.05954,0.034 2.423638,1.49927 5.25354,3.25612 2.829902,1.75683 5.946752,3.47965 6.926333,3.82848 5.214394,1.85685 13.350578,1.60883 19.393733,-0.59118 2.68135,-0.97615 5.846391,-2.61591 7.000453,-3.62684 0.837326,-0.73347 0.928124,-0.73563 2.770533,-0.0657 2.244235,0.81607 12.610664,1.34128 23.277517,1.17935 5.75161,-0.0873 7.29231,-0.25033 10.6124,-1.12285 8.08508,-2.12475 14.4583,-5.80156 20.59877,-11.88375 l 3.54164,-3.50802 2.80891,0.62998 c 1.5449,0.34648 3.66024,0.7439 4.70076,0.88315 1.6991,0.22738 1.86628,0.33914 1.6409,1.09698 -0.13803,0.4641 -0.49957,1.23829 -0.80343,1.72042 -0.30386,0.48213 -0.55247,1.1216 -0.55247,1.42104 0,0.86865 -3.75677,6.88055 -5.77796,9.24638 -1.33525,1.56292 -1.72815,2.28298 -1.41602,2.59511 0.31213,0.31212 0.58181,0.30765 0.97194,-0.0161 0.77448,-0.64276 3.68709,2.30419 2.97809,3.01319 -0.60411,0.6041 0.14593,1.47842 0.99031,1.1544 0.90712,-0.34809 5.67456,-6.926 7.36979,-10.16853 l 1.54756,-2.96006 -0.17401,4.14743 c -0.0957,2.2811 -0.23873,5.2606 -0.31785,6.62113 -0.12853,2.21033 -0.0644,2.47369 0.60216,2.47369 0.62825,0 0.746,-0.30294 0.746,-1.91923 0,-1.05558 0.11111,-3.23738 0.2469,-4.84844 l 0.2469,-2.92919 2.06986,0.13221 2.06986,0.13222 -0.19424,4.71622 c -0.16812,4.08193 -0.11163,4.71621 0.42001,4.71621 0.67233,0 0.864,-1.56761 1.28242,-10.48844 0.23178,-4.94172 0.52166,-7.32213 0.89166,-7.32213 0.11925,0 1.14103,0.69778 2.2706,1.55062 2.48376,1.87525 4.805,5.2545 5.79554,8.43712 0.92387,2.96841 0.91768,3.55863 -0.0436,4.15898 -0.42666,0.26645 -2.51745,2.58014 -4.6462,5.14153 -4.30732,5.18271 -6.73581,7.67674 -8.47593,8.70465 -1.20665,0.71279 -1.40143,1.97088 -0.27586,1.78184 0.86848,-0.14586 2.78159,3.22757 2.17462,3.83455 -0.30774,0.30773 -0.30179,0.55559 0.0211,0.87844 0.3358,0.33581 0.81281,0.23554 1.88283,-0.39579 0.7882,-0.46505 1.52693,-0.84554 1.64162,-0.84554 0.36029,0 -2.34193,3.24338 -4.12865,4.95547 -1.50337,1.44057 -1.63601,1.7011 -1.09472,2.15032 0.43535,0.36131 0.76227,0.38967 1.11522,0.0967 0.37141,-0.30824 0.84213,-0.006 1.83755,1.17959 0.98979,1.17895 1.20727,1.67492 0.83524,1.90485 -0.57346,0.35441 -0.20412,1.19094 0.52583,1.19094 0.59167,0 3.89637,-3.37318 6.20408,-6.33264 1.49638,-1.919 1.66426,-2.03621 1.41729,-0.98948 -0.48274,2.046 -2.49387,6.02536 -4.3834,8.6733 -4.31506,6.04702 -10.72124,10.44068 -19.20542,13.17198 -2.68982,0.86594 -4.83467,1.26987 -16.4253,3.09331 -9.52553,1.49857 -13.7872,4.56379 -13.73941,9.88214 0.0348,3.87039 1.9622,6.43673 6.55477,8.7276 2.54196,1.26798 3.20448,1.77354 3.12185,2.38225 -0.74631,5.49796 -0.45428,7.34516 1.69157,10.69967 1.55551,2.43165 4.34589,4.65046 6.92281,5.50475 2.6047,0.8635 6.26563,0.54844 8.44106,-0.72645 z"
       id="path57"
       transform="scale(0.264583, 0.264583)"
       inkstitch:fill_underlay_angle="45 135"
       inkstitch:fill_method="meander_fill"
       inkstitch:meander_scale_percent="65"
       inkstitch:fill_underlay="True"
       inkstitch:meander_pattern="N4-13b"
       inkstitch:running_stitch_length_mm="2.5"
       inkstitch:meander_angle="20"
       inkstitch:zigzag_spacing_mm="1"
       inkstitch:zigzag_width_mm="1"
       inkstitch:smoothness_mm=""
       inkstitch:clip="False" /><g
       id="centerline_group_4041"
       inkscape:label="path15 center line"
       style="display:none"><path
         id="path2933"
         style="fill:none;stroke:#8bfbf6;stroke-width:1px"
         d="m 187.34314,209.0122 -1.62065,-1.59165 -1.20131,-1.67688 -0.66919,-1.78032 0.0184,-1.8455 0.72507,-1.61485 1.14885,-1.20902 1.35385,-0.88816 1.52182,-0.69776 3.20214,-0.96557 3.37886,-0.65576 5.52311,-0.77348 m -10.46784,10.73275 -1.36375,-1.33935 -0.67249,-0.93872 -0.20301,-0.54008 0.002,-0.1997 0.0787,-0.17535 0.32915,-0.34638 0.68935,-0.45224 0.97718,-0.44804 2.72746,-0.82243 3.06494,-0.59484 5.41489,-0.75832 m -11.39563,5.68782 -3.49575,3.55944 m 4.71535,-6.94839 -1.44031,-4.77655"
         inkstitch:satin_column="true"
         transform="scale(0.264583)" /><path
         id="path68"
         style="fill:none;stroke:#8bfbf6;stroke-width:1px"
         d="m 199.25219,191.5999 0.0847,-1.01254 -0.0791,-0.47524 -0.13994,-0.2793 -0.24376,-0.2555 -0.44882,-0.28557 -0.65233,-0.27144 -2.00976,-0.50334 -2.39591,-0.42064 -2.51111,-0.55288 -1.30777,-0.44626 -1.24946,-0.62039 -1.16209,-0.8826 -0.77787,-0.97322 m 17.03631,7.32536 0.12793,-1.52986 -0.26745,-1.60596 -0.69987,-1.3969 -1.02304,-1.0723 -1.17878,-0.75003 -1.27026,-0.52856 -2.45504,-0.61486 -2.45469,-0.43096 -2.19609,-0.48352 -0.82683,-0.28214 -0.65094,-0.32321 -0.43792,-0.3326 -0.45573,-0.57018 m 14.23226,9.60603 -4.97163,-0.41574 m -3.03451,-7.32955 -0.8627,4.91382 m -4.92911,-6.89707 -3.89712,3.11486"
         inkstitch:satin_column="true"
         transform="scale(0.264583)"
         sodipodi:nodetypes="cccccccccccccccccccccccccccccccccc" /><path
         id="path8844"
         style="fill:none;stroke:#8bfbf6;stroke-width:1px"
         d="m 152.28011,211.71062 1.73979,-2.49755 1.92982,-2.43161 2.07359,-2.30445 2.20879,-2.16956 2.33555,-2.02682 2.4538,-1.87644 2.56366,-1.71798 2.66497,-1.5517 2.75806,-1.37714 2.84255,-1.19438 2.91852,-1.00318 2.98569,-0.80357 3.044,-0.59537 3.09319,-0.37862 3.13285,-0.15329 3.08106,0.0785 1.76226,0.0392 m -40.17677,24.34031 1.66561,-2.39105 1.76918,-2.22919 1.90181,-2.11355 2.02581,-1.98984 2.14145,-1.85838 2.2484,-1.71936 2.34674,-1.57262 2.43623,-1.4185 2.51714,-1.25686 2.58945,-1.08802 2.65328,-0.91202 2.70871,-0.72903 2.756,-0.53903 2.79541,-0.34218 2.82695,-0.13831 2.93314,0.0747 1.76894,0.0394 m -39.46194,20.01786 -4.09366,-2.85165 m 10.05557,-4.35886 -3.49599,-3.5592 m 9.97757,-1.74544 -2.77732,-4.14445 m 10.1225,0.15634 -1.93258,-4.59946 m 9.88929,2.14716 -0.95763,-4.8962 m 10.19802,4.19239 0.12704,-4.98736"
         inkstitch:satin_column="true"
         transform="scale(0.264583)" /><path
         id="path2531"
         style="fill:none;stroke:#8bfbf6;stroke-width:1px"
         d="m 148.93818,214.74222 3.96328,0.24811 3.92094,-0.20705 3.97117,-0.62901 3.97951,-1.02389 3.94485,-1.39034 3.86738,-1.72613 3.74667,-2.03039 3.64793,-2.3433 m -31.30149,13.25136 4.20272,0.26309 4.37726,-0.23115 4.38023,-0.69379 4.34569,-1.11811 4.27435,-1.50646 4.16702,-1.85987 4.02313,-2.18021 3.77807,-2.4269 m -31.17394,10.31861 0.31171,-4.97923 m 8.44211,4.46325 -0.78048,-4.92755 m 8.86286,2.86783 -1.65834,-4.70529 m 9.88409,1.12694 -2.37702,-4.3863"
         inkstitch:satin_column="true"
         transform="scale(0.264583)" /><path
         id="path9928"
         style="fill:none;stroke:#8bfbf6;stroke-width:1px"
         d="m 204.96576,189.9931 0.41696,-2.39527 0.26984,-2.43383 0.30907,-2.4817 0.54612,-2.35734 0.49554,-1.21148 0.68799,-1.11127 0.95022,-0.98006 1.21236,-0.74425 1.40971,-0.43559 1.54458,-0.12675 1.67142,0.15112 1.73037,0.38713 m -7.1483,14.45229 0.43904,-2.52213 0.28096,-2.53397 0.27893,-2.2397 0.42188,-1.82106 0.23786,-0.58152 0.26901,-0.43453 0.27298,-0.28154 0.31984,-0.19635 0.47449,-0.14661 0.73422,-0.0602 1.04498,0.0945 1.46643,0.32807 m -5.54851,8.84342 -4.91506,-0.85559 m 6.10382,-6.73618 -4.61762,-1.88877"
         inkstitch:satin_column="true"
         transform="scale(0.264583)" /><path
         id="path6645"
         style="fill:none;stroke:#8bfbf6;stroke-width:1px"
         d="m 199.27521,174.30473 5.57596,-1.80339 4.3732,-1.61669 1.89274,-0.91064 1.9006,-1.12232 1.40695,-1.00104 -0.61003,-0.22388 -1.51239,-0.29236 -2.39793,-0.12845 m -9.34972,11.05451 5.65764,-1.82981 4.6378,-1.71451 2.22886,-1.07236 2.20501,-1.30208 2.26923,-1.61454 5.1488,-4.26738 -7.76936,-2.85136 -2.12221,-0.41024 -2.68367,-0.14375 m -5.17921,14.22222 -1.53525,-4.74688 m 10.60216,1.04441 -2.53677,-4.29589"
         inkstitch:satin_column="true"
         transform="scale(0.264583)"
         sodipodi:nodetypes="ccccccccccccccccccccccc" /><path
         id="path3805"
         style="fill:none;stroke:#8bfbf6;stroke-width:1px"
         d="m 217.08633,156.97569 0.29267,0.2014 0.001,4.5e-4 0.65492,0.0183 0.99683,-0.24373 1.32056,-0.51451 3.06073,-1.31387 1.73987,-0.51831 1.4956,-0.0866 m -11.91929,5.88171 0.73413,0.5052 1.13315,0.40894 1.88189,0.0527 1.80717,-0.44186 1.64183,-0.63969 2.90387,-1.24653 1.04494,-0.31129 1.01259,-0.0586 m -11.03668,2.81867 1.69358,-4.69273 m 7.79407,2.52629 -1.42437,-4.78133"
         inkstitch:satin_column="true"
         transform="scale(0.264583)"
         sodipodi:nodetypes="cccccccccccccccccccccc" /><path
         id="path4355"
         style="fill:none;stroke:#8bfbf6;stroke-width:1px"
         d="m 222.54957,149.50395 1.71048,-1.19304 0.32278,-0.35357 0.18272,-0.29778 0.0605,-0.17872 -0.11389,-0.38228 -0.35497,-0.42207 -0.70623,-0.44878 -0.93397,-0.30344 -1.27181,-0.0875 m 3.48278,7.07715 2.09031,-1.45797 0.90143,-0.98742 0.63387,-1.03303 0.37892,-1.11926 0.10034,-1.27605 -0.58287,-1.95648 -1.32284,-1.57293 -1.69077,-1.07442 -1.92243,-0.62457 -1.78338,-0.12269 m 4.8485,10.5801 -2.85408,-4.09196"
         inkstitch:satin_column="true"
         transform="scale(0.264583)"
         sodipodi:nodetypes="ccccccccccccccccccccccc" /><path
         id="path3685"
         style="fill:none;stroke:#8bfbf6;stroke-width:1px"
         d="m 231.66437,138.73036 -2.77318,-0.3692 -1.89888,-0.54323 -1.60572,-0.45949 -2.47128,-0.32909 m 9.29772,-2.42011 -2.47122,-0.329 -1.60579,-0.45939 -1.89861,-0.54329 -2.77332,-0.36931 m 6.58936,0.99406 -0.65838,4.94535"
         inkstitch:satin_column="true"
         transform="scale(0.264583)" /><path
         id="path9803"
         style="fill:none;stroke:#8bfbf6;stroke-width:1px"
         d="m 224.13716,117.64413 1.08598,0.0473 1.23625,0.45223 0.97878,0.75728 0.73313,0.94049 0.79551,1.74613 0.52308,1.75574 0.4412,1.48055 0.4732,1.03882 0.11056,0.1418 0.0552,0.0427 0.0261,0.01 0.44321,0.0194 m -7.0832,-4.27847 0.44302,0.0193 0.0262,0.01 0.0552,0.0427 0.11047,0.14171 0.47329,1.03887 0.4411,1.48059 0.52322,1.75572 0.7954,1.74618 0.73324,0.9404 0.97876,0.75745 1.23626,0.45204 1.08559,0.0474 m -6.80001,-8.01142 0.2171,-4.98425 m 1.82843,10.21926 4.54015,-2.06809"
         inkstitch:satin_column="true"
         transform="scale(0.264583)" /><path
         id="path2909"
         style="fill:none;stroke:#8bfbf6;stroke-width:1px"
         d="m 227.559,117.32763 -0.75266,-0.79965 -0.85811,-0.59637 -2.30041,-1.47083 -1.22619,-1.38321 -0.62962,-1.9536 0.23772,-2.24723 0.92836,-2.31698 m 7.62831,7.91841 -1.05054,-1.11615 -1.28069,-0.89003 -1.88019,-1.20217 -0.26381,-0.29759 -0.0922,-0.286 0.0845,-0.79857 0.71384,-1.78162 m 3.53749,5.51947 -3.63288,3.41936 m -0.14004,-7.23342 -4.63107,-1.85555"
         inkstitch:satin_column="true"
         transform="scale(0.264583)" /><path
         id="path5142"
         style="fill:none;stroke:#8bfbf6;stroke-width:1px"
         d="m 216.34977,99.90836 1.71014,-0.981866 1.36807,-1.037858 0.9758,-1.026618 0.52706,-0.917044 0.0456,-0.175431 0.002,-0.141291 -0.0253,-0.0969 -0.0904,-0.153488 -0.25492,-0.25816 -0.50613,-0.340322 -0.80101,-0.374516 -1.18287,-0.390322 -1.46129,-0.448605 -1.39783,-0.711383 -1.9102,-1.398582 -1.59321,-1.067323 -0.68958,-0.264757 -1.12522,-0.186398 m 8.47885,13.576344 1.94086,-1.11433 1.84853,-1.40235 1.551,-1.631775 1.05394,-1.833756 0.31043,-1.195169 0.0211,-1.205309 -0.31534,-1.209697 -0.64642,-1.097712 -0.91008,-0.92164 -1.11907,-0.752478 -1.31639,-0.615484 -1.45853,-0.481278 -1.15831,-0.355595 -0.77737,-0.395617 -1.7092,-1.251418 -2.05319,-1.375477 -1.51962,-0.583443 -1.54178,-0.255402 m 8.84787,17.55536 -2.48408,-4.32657 m 8.41819,-4.597055 -4.82765,1.258454 m -3.67782,-7.340418 -2.94724,4.025376"
         inkstitch:satin_column="true"
         transform="scale(0.264583)" /><path
         id="path112"
         style="fill:none;stroke:#8bfbf6;stroke-width:1px"
         d="m 199.29444,79.961099 0.92495,-0.746143 1.26098,-0.575471 1.29669,-0.273505 1.32245,-0.04821 2.40753,0.313725 2.42879,0.579703 2.36215,0.584651 2.22539,0.381227 2.06937,0.01506 0.82859,-0.150097 0.99029,-0.346131 m -15.50686,3.501062 0.51725,-0.417257 0.36622,-0.16713 0.49731,-0.104894 0.61975,-0.02259 1.84848,0.240875 2.20001,0.525098 2.49264,0.616948 2.70841,0.463973 2.79643,0.02035 1.53302,-0.277704 1.2991,-0.454068 m -15.95376,-0.569873 -2.0713,-4.538678 m 8.57288,5.508272 1.19864,-4.842846 m 8.0493,4.954925 -1.64612,-4.709586"
         inkstitch:satin_column="true"
         transform="scale(0.264583)"
         sodipodi:nodetypes="cccccccccccccccccccccccccccccc" /><path
         id="path9311"
         style="fill:none;stroke:#8bfbf6;stroke-width:1px"
         d="m 197.54692,73.311663 4.22796,-0.215826 3.45643,-0.05724 1.39188,-0.165633 1.318,-0.345224 1.34658,-0.605027 1.60281,-1.061524 m -13.1317,6.602546 4.15644,-0.212174 3.59677,-0.05956 1.88712,-0.224567 1.9302,-0.505576 1.97142,-0.885773 1.88539,-1.248676 m -11.96859,3.376058 -0.25434,-4.98249 m 9.39485,3.734452 -2.04468,-4.550735"
         inkstitch:satin_column="true"
         transform="scale(0.264583)" /><path
         id="path8120"
         style="fill:none;stroke:#8bfbf6;stroke-width:1px"
         d="m 180.83191,62.313506 1.60789,1.29206 1.48543,1.009102 1.42865,0.805066 1.3435,0.6142 2.69121,0.860544 2.54944,0.452377 5.06058,0.453294 2.56178,0.409027 2.34683,0.792964 m -23.67953,-3.447846 1.73791,1.39654 1.76717,1.200498 1.73295,0.976534 1.7289,0.7904 3.19319,1.021056 3.00056,0.532423 5.09642,0.456506 2.07542,0.331373 2.01617,0.681236 m -21.88346,-6.479376 3.12506,-3.888946 m 4.53772,8.15348 1.51949,-4.751952 m 7.4811,6.270514 0.4451,-4.969082"
         inkstitch:satin_column="true"
         transform="scale(0.264583)" /><path
         id="path6934"
         style="fill:none;stroke:#8bfbf6;stroke-width:1px"
         d="m 165.65964,64.397521 0.39354,-1.553139 0.57726,-1.443157 0.75407,-1.236217 0.94461,-1.009907 1.11589,-0.738837 1.21803,-0.434666 1.23638,-0.147152 1.26634,0.09149 2.16325,0.642179 2.06505,1.086636 1.88178,1.326072 1.60538,1.373575 m -11.19146,3.064277 0.32586,-1.286061 0.34554,-0.863843 0.35073,-0.574983 0.31979,-0.341893 0.28691,-0.189963 0.30077,-0.107334 0.37682,-0.04485 0.41946,0.03031 1.33875,0.397421 1.46515,0.770964 1.50182,1.058328 1.45702,1.246625 m -7.92935,-0.609272 -4.83615,-1.225389 m 8.70271,-0.581395 2.32321,-4.415043"
         inkstitch:satin_column="true"
         transform="scale(0.264583)" /><path
         id="path4357"
         style="fill:none;stroke:#8bfbf6;stroke-width:1px"
         d="m 188.46613,53.676526 -2.28376,-0.245228 -2.08854,-0.612299 -1.7561,-0.811396 -1.5012,-0.850352 -1.35164,-0.765409 -1.3208,-0.610012 -1.43676,-0.420562 -1.91433,-0.204749 m 14.09701,0.38629 -1.91445,-0.205572 -1.43705,-0.421302 -1.3211,-0.610403 -1.35189,-0.765782 -1.50148,-0.850257 -1.75639,-0.811188 -2.08884,-0.611438 -2.28367,-0.244251 m 12.39594,3.966872 -0.53265,4.960461 m -6.265,-7.963464 -2.09182,4.529254"
         inkstitch:satin_column="true"
         transform="scale(0.264583)"
         sodipodi:nodetypes="cccccccccccccccccccccc" /><path
         id="path2257"
         style="fill:none;stroke:#8bfbf6;stroke-width:1px"
         d="m 134.51168,226.14747 -0.3914,-1.82082 -0.57221,-1.46245 -0.76578,-1.28978 -0.94731,-1.1411 -1.11927,-1.00615 -1.27806,-0.87619 -1.41824,-0.74668 -1.53455,-0.61655 -1.62323,-0.48674 -1.64738,-0.35133 -3.45564,-0.35367 -3.27262,0.10069 -2.86946,0.48342 -1.09561,0.37533 -1.45212,0.28881 -2.65827,0.14171 -4.46754,-0.25268 -1.39666,0.0797 -0.0874,0.0267 -10e-4,0.005 0.0114,0.52429 0.21391,1.07554 m 35.89341,6.42902 -0.462,-2.14918 -0.81819,-2.09115 -1.10602,-1.86282 -1.35009,-1.6263 -1.54813,-1.39165 -1.70314,-1.16761 -1.82136,-0.95892 -1.90765,-0.76645 -1.96577,-0.58946 -2.03262,-0.43347 -3.95436,-0.40473 -3.83218,0.11791 -3.48414,0.58698 -1.15379,0.39527 -0.88688,0.17639 -2.13273,0.11369 -4.47526,-0.25312 -2.13134,0.12155 -1.2228,0.37322 -1.127999,0.74524 -0.822751,1.17783 -0.348136,1.38957 0.03142,1.44671 0.284891,1.43246 m 39.586425,2.52566 -4.64601,1.81782 m -2.78726,-9.92114 -2.32418,4.41453 m -5.91742,-6.81137 -0.50796,4.96305 m -10.40218,-4.20974 1.61688,4.7197"
         inkstitch:satin_column="true"
         transform="scale(0.264583)" /><path
         id="path7533"
         style="fill:none;stroke:#8bfbf6;stroke-width:0.264583px"
         d="m 33.039505,40.112587 0.182875,-0.337888 0.321909,-0.288385 0.33177,-0.176992 0.28812,-0.112609 0.445787,-0.193522 0.08564,-0.06811 0.105095,-0.162829 m -0.793802,1.863913 0.09187,-0.169741 0.08052,-0.07214 0.157444,-0.08399 0.246814,-0.09646 0.597517,-0.259391 0.340705,-0.270932 0.203144,-0.314743 m -1.535657,1.161568 -1.160878,-0.628299"
         inkstitch:satin_column="true" /><path
         id="path7356"
         style="fill:none;stroke:#8bfbf6;stroke-width:1px"
         d="m 128.06175,153.89854 1.89382,1.15132 1.74026,0.77547 1.71738,0.51829 1.71963,0.30647 1.74284,0.13271 1.76358,-0.006 3.74247,-0.28085 3.91716,-0.35338 4.10603,-0.0405 2.2083,0.23596 2.23049,0.47462 2.27259,0.76794 2.39396,1.15088 2.72307,2.1508 0.88768,0.95155 0.66838,1.18838 -4.5e-4,1.65739 -1.01309,1.23971 -1.4652,0.64356 -1.0759,0.37616 -0.51445,0.32814 0.0129,0.31969 0.25608,0.90087 m -34.08728,-11.03696 2.11978,1.28868 2.22154,0.98993 2.20122,0.66431 2.16437,0.38573 2.11536,0.16109 2.07742,-0.007 3.92233,-0.29435 3.78244,-0.34122 3.69737,-0.0365 1.7541,0.18744 1.78391,0.37958 1.80241,0.60906 1.75004,0.84132 1.12655,0.8898 -0.0144,0.005 -1.65725,1.05707 -0.82535,1.16538 -0.38471,1.37004 0.06,1.48208 0.39112,1.37593 m -27.2913,-10.12814 2.03064,-4.55702 m 7.28103,6.41277 -0.0161,-4.98895 m 9.8839,4.33731 -0.0492,-4.98874 m 8.12574,6.38482 2.1616,-4.49637"
         inkstitch:satin_column="true"
         transform="scale(0.264583)" /><path
         id="path6850"
         style="fill:none;stroke:#8bfbf6;stroke-width:1px"
         d="m 110.60193,139.6529 2.55201,-0.71385 2.67195,-0.5807 2.72337,-0.40657 2.75885,-0.20511 2.77739,0.0248 2.77746,0.28382 2.75665,0.57282 2.593,0.85172 m -20.49074,4.17683 2.43439,-0.68095 2.41885,-0.5257 2.43583,-0.36363 2.43295,-0.18089 2.41121,0.0216 2.37194,0.24238 2.31755,0.48158 2.3706,0.77868 m -17.67975,0.2353 -1.34393,-4.80456 m 8.62332,3.53103 -0.3699,-4.97525 m 7.32317,5.43574 1.01501,-4.88463"
         inkstitch:satin_column="true"
         transform="scale(0.264583)" /><path
         id="path9553"
         style="fill:none;stroke:#8bfbf6;stroke-width:1px"
         d="m 97.780867,159.85584 1.374797,-1.02426 1.711466,-0.90639 3.50164,-1.23523 3.6082,-0.92182 3.37957,-0.91106 1.44165,-0.50947 1.25255,-0.58174 1.01028,-0.65116 0.75992,-0.7207 0.54049,-0.82226 0.35131,-1.02024 0.13165,-1.34559 -0.18646,-1.91686 m -16.3932,15.9007 1.11881,-0.83354 1.15713,-0.61281 3.03656,-1.07117 3.4554,-0.88278 3.55943,-0.95954 1.77795,-0.62833 1.69205,-0.78586 1.57792,-1.01704 1.39088,-1.3191 1.09151,-1.66054 0.68049,-1.97616 0.21875,-2.23581 -0.22574,-2.32054 m -20.06436,16.47391 -2.980641,-4.00071 m 9.053941,1.42798 -1.23492,-4.83372 m 9.49796,2.38188 -2.1015,-4.52477 m 8.36486,-3.49885 -4.96527,-0.4858"
         inkstitch:satin_column="true"
         transform="scale(0.264583)" /><path
         id="path5429"
         style="fill:none;stroke:#8bfbf6;stroke-width:1px"
         d="m 103.58216,161.38575 1.29156,0.26444 2.37558,0.55638 2.35978,0.33556 2.36038,0.159 2.36518,0.026 4.85555,-0.16588 4.94563,-0.12909 2.57683,0.0812 2.61862,0.2528 2.67278,0.4824 2.72249,0.7679 2.76461,1.10555 2.63224,1.40099 1.82716,0.80133 1.72317,0.88733 1.49076,0.7398 1.31387,0.48846 1.23191,0.19813 1.34708,-0.12925 1.69213,-0.60448 2.29143,-1.3637 m -54.892264,-4.13187 2.763274,1.28078 2.81257,0.96143 2.75662,0.64562 2.69502,0.38324 2.63062,0.1772 2.57602,0.0284 4.93265,-0.16852 4.80917,-0.12551 2.32257,0.0732 2.31418,0.2234 2.30702,0.4164 2.31831,0.6539 2.35079,0.94005 2.57176,1.36881 1.85304,0.81267 1.63563,0.84227 1.71364,0.8504 1.90213,0.70714 2.16289,0.34787 2.39252,-0.22955 2.55947,-0.91432 2.63857,-1.5703 m -51.45051,-5.03635 1.61372,-4.72079 m 8.10389,5.93457 0.0549,-4.98867 m 8.08941,4.77165 -0.13017,-4.98728 m 8.22206,5.38808 0.88613,-4.90965 m 6.4851,7.49858 2.34402,-4.40403 m 6.82375,8.36927 0.79222,-4.92567"
         inkstitch:satin_column="true"
         transform="scale(0.264583)"
         sodipodi:nodetypes="ccccccccccccccccccccccccccccccccccccccccccccccccccccccccc" /><path
         id="path9129"
         style="fill:none;stroke:#8bfbf6;stroke-width:1px"
         d="m 160.24311,153.76223 -6.76384,0.95261 -2.62701,0.12654 -1.32331,-0.13609 -1.2543,-0.32811 -1.19166,-0.56386 -1.08183,-0.79936 -0.95383,-1.00576 -0.87204,-1.22528 -1.5074,-2.93173 -1.69408,-4.34103 0.16142,-2.90365 -0.17664,-1.94701 -0.44893,-1.51464 -0.67318,-1.10362 -0.91491,-0.79508 -1.29739,-0.55984 -1.83364,-0.27211 -2.73543,0.13834 -1.04015,-0.0974 -1.0429,0.0339 -2.95289,0.34616 -3.51343,0.51068 -3.73961,0.41105 -3.60386,0.0175 -1.79043,-0.26525 -1.67205,-0.54156 -1.53041,-0.94833 -1.20036,-1.44316 -0.65149,-1.84316 -0.0624,-1.83677 m 49.40813,20.74912 -6.57476,0.92599 -2.12299,0.10226 -0.69349,-0.0713 -0.5699,-0.14909 -0.47454,-0.22454 -0.46157,-0.34104 -0.50097,-0.52824 -0.52916,-0.74352 -1.2728,-2.47547 -1.28812,-3.30077 0.12818,-2.30595 -0.24136,-2.66039 -0.72027,-2.43016 -1.29142,-2.11718 -1.88869,-1.64132 -2.38921,-1.03096 -2.77956,-0.41249 -2.84837,0.14406 -1.00265,-0.0939 -1.4797,0.0481 -3.18391,0.37324 -3.49857,0.50852 -3.45119,0.37935 -3.06974,0.0149 -1.13497,-0.16815 -0.86275,-0.27944 -0.52719,-0.32667 -0.29264,-0.35184 -0.19011,-0.53784 -0.0406,-1.19643 m 41.38917,21.01456 0.69577,4.94022 m -6.85659,-4.74672 -2.13382,4.50962 m -1.82958,-13.14092 -4.98129,-0.27691 m -1.05148,-10.47862 -1.97661,4.5807 m -12.06763,-4.59122 0.71762,4.9371 m -9.55224,-4.41069 -0.73114,4.93511"
         inkstitch:satin_column="true"
         transform="scale(0.264583)" /><path
         id="path144"
         style="fill:none;stroke:#8bfbf6;stroke-width:1px"
         d="m 98.135124,75.184443 6.345786,-3.193561 4.9849,-2.370352 5.13887,-1.997455 6.70155,-2.048514 m -21.30215,13.323596 6.30421,-3.172639 4.8055,-2.285048 4.85353,-1.886545 6.55425,-2.003486 m -17.01558,7.044268 -2.24274,-4.456456 m 8.98769,1.306263 -1.80745,-4.650053"
         inkstitch:satin_column="true"
         transform="scale(0.264583)" /><path
         id="path3964"
         style="fill:none;stroke:#8bfbf6;stroke-width:1px"
         d="m 100.84733,78.118718 -0.74639,1.231541 -1.017324,1.100932 -1.177428,0.793182 -1.270219,0.458468 -1.27281,0.138913 -1.288902,-0.134609 -2.017015,-0.773237 -1.678412,-1.288139 -1.119416,-1.572456 -0.352019,-1.179752 0.08301,-1.33336 0.778111,-1.253256 0.898592,-0.512256 m 6.624756,2.169193 -0.529009,0.872859 -0.403875,0.437068 -0.348572,0.234818 -0.318981,0.115132 -0.33799,0.03689 -0.302498,-0.03159 -0.941585,-0.360963 -0.680197,-0.522035 m 3.198697,-0.488697 4.266556,2.585804"
         inkstitch:satin_column="true"
         transform="scale(0.264583)" /><path
         id="path9057"
         style="fill:none;stroke:#8bfbf6;stroke-width:1px"
         d="m 94.839655,88.716481 -1.820571,0.275255 -1.850867,0.03087 -1.749778,-0.230035 -1.631405,-0.484296 -1.49216,-0.722988 -1.334604,-0.936712 -1.167005,-1.119777 -0.99846,-1.272789 -0.835116,-1.399737 -0.700209,-1.549818 -0.912342,-3.214086 -0.393345,-3.520429 0.121152,-4.048339 1.450491,-2.605069 1.634425,-1.835439 1.897425,-1.337337 2.055863,-0.881951 2.129831,-0.516554 2.179967,-0.256158 4.25115,-0.07121 4.183913,0.01653 1.92366,-0.112983 1.79836,-0.263685 1.63502,-0.45385 1.46475,-0.680303 1.31443,-0.958755 1.35117,-1.502558 2.77756,-2.906339 2.7221,-3.143418 2.84238,-3.258196 3.03425,-3.117337 1.66294,-1.468399 1.74688,-1.335156 1.86284,-1.181094 1.99226,-0.989206 2.13067,-0.755961 2.27004,-0.481389 2.40385,-0.169894 2.20595,0.14924 6.74995,-0.762419 6.94279,-0.617248 6.85666,-0.695495 6.8282,-1.030058 m -70.156575,47.303803 -1.546029,0.233745 -1.266333,0.02112 -1.119422,-0.147165 -0.991395,-0.294304 -0.88584,-0.429212 -0.799996,-0.561488 -0.725795,-0.696423 -0.65394,-0.833611 -0.578284,-0.969263 -0.476191,-1.053982 -0.734258,-2.586714 -0.322455,-2.885971 0.08205,-2.741661 0.734709,-1.319531 1.011375,-1.135761 1.150175,-0.810663 1.335337,-0.572849 1.546369,-0.375046 1.722833,-0.202442 3.99965,-0.06699 4.271087,0.01687 2.234138,-0.131217 2.23504,-0.327715 2.21538,-0.61495 2.14425,-0.995897 1.99457,-1.454845 1.59943,-1.778642 2.80444,-2.934461 2.7839,-3.214782 2.76282,-3.167004 2.84555,-2.923463 1.43486,-1.267001 1.48532,-1.135244 1.52596,-0.967506 1.57454,-0.781794 1.63653,-0.580639 1.71936,-0.364611 1.82955,-0.129306 2.29345,0.15516 7.07365,-0.798981 6.91921,-0.615152 6.98294,-0.708305 6.9282,-1.045142 m -77.479849,41.349061 -3.454146,3.599828 m 1.667679,-16.28655 -3.725859,-3.317811 m 13.860524,0.836491 0.01971,-4.988939 m 13.941831,2.287201 -2.93999,-4.030674 m 10.64567,-3.961999 -3.77142,-3.265929 m 10.73081,-4.220941 -3.3022,-3.739697 m 9.41493,-0.08338 -1.66819,-4.701809 m 13.87944,3.464706 -0.55995,-4.957453 m 9.87998,4.08271 -0.50347,-4.963508 m 12.26592,3.484871 -0.74418,-4.933161"
         inkstitch:satin_column="true"
         transform="scale(0.264583)" /><path
         id="path1672"
         style="fill:none;stroke:#8bfbf6;stroke-width:1px"
         d="m 205.16452,67.424655 -2.81665,-0.129243 -2.64732,-0.370524 -2.41481,-0.579115 -2.20672,-0.75482 -2.02484,-0.893229 -1.88707,-1.000183 -3.39091,-2.110428 -3.25129,-2.109408 -3.427,-1.902216 -1.81895,-0.79084 -2.00599,-0.684547 -2.21541,-0.545568 -2.56059,-0.39488 m 32.85811,8.111891 -2.62295,-0.120357 -2.25688,-0.315876 -2.02939,-0.486685 -1.85228,-0.63358 -1.72456,-0.760771 -1.62753,-0.862617 -3.23529,-2.013572 -3.33851,-2.165992 -3.7278,-2.069184 -2.15825,-0.93836 -2.33801,-0.797853 -2.57059,-0.633032 -2.74241,-0.42292 m 31.18865,11.757085 -0.22868,4.983733 m -8.09925,-6.796589 -2.0136,4.56457 m -5.23086,-8.794069 -2.71537,4.185288 m -6.24282,-8.824344 -1.61126,4.721622"
         inkstitch:satin_column="true"
         transform="scale(0.264583)" /><path
         id="path8180"
         style="fill:none;stroke:#8bfbf6;stroke-width:1px"
         d="m 126.9349,53.663013 4.66505,-0.75288 5.1283,-1.26042 11.28573,-3.054133 5.80693,-1.241878 2.91304,-0.431654 2.86082,-0.24944 2.81101,-0.02948 2.74508,0.234848 2.65835,0.54768 2.64552,0.948513 2.02796,1.421367 m -44.88539,7.97185 4.83135,-0.77972 5.3389,-1.31218 11.22487,-3.037667 5.56867,-1.190922 2.65856,-0.393946 2.57778,-0.22476 2.45259,-0.02572 2.30212,0.196952 2.13045,0.43892 1.84328,0.660887 1.57064,1.100833 m -39.74304,4.543639 -0.79487,-4.925248 m 10.33166,2.713289 -1.30323,-4.815753 m 12.59841,1.877979 -1.04336,-4.878658 m 8.34338,3.644599 -0.43335,-4.97012 m 7.39556,5.218612 1.0067,-4.886353"
         inkstitch:satin_column="true"
         transform="scale(0.264583)" /><path
         id="path7085"
         style="fill:none;stroke:#8bfbf6;stroke-width:1px"
         d="m 159.03866,62.225632 -3.82135,-0.0111 -4.90882,0.314525 -11.81521,0.922706 -6.15439,0.248992 -5.80025,-0.140333 -2.72297,-0.284247 -2.51214,-0.464938 -2.29769,-0.694 -1.84471,-0.891337 m 41.88961,-3.157734 -3.96045,-0.0115 -5.07658,0.325275 -11.76639,0.918894 -5.94221,0.240408 -5.49995,-0.133067 -2.39443,-0.249953 -2.12486,-0.393262 -1.76531,-0.5332 -1.55069,-0.749263 m 38.42753,0.165119 -0.0145,4.988956 m -17.10633,-3.911228 0.38843,4.973833 m -10.46281,-4.624683 -0.12067,4.987517 m -8.23428,-5.863829 -1.44253,4.775879"
         inkstitch:satin_column="true"
         transform="scale(0.264583)" /><path
         id="path8106"
         style="fill:none;stroke:#8bfbf6;stroke-width:1px"
         d="m 97.923577,39.103095 2.605873,0.344545 2.53091,0.166655 2.53061,0.01241 2.50967,-0.126672 5.10267,-0.623359 5.09066,-1.01015 5.10908,-1.281925 5.13932,-1.433849 10.2578,-2.783728 m -41.421547,10.857685 2.741327,0.362455 2.79349,0.183945 2.77219,0.01359 2.77233,-0.139928 5.40293,-0.660041 5.34414,-1.06045 5.26272,-1.320475 5.17768,-1.444551 10.2436,-2.779872 m -42.142625,7.313319 0.653944,-4.945932 m 8.716651,5.381962 -0.25149,-4.982634 m 9.05257,3.854275 -0.97104,-4.893564 m 11.5086,2.374011 -1.3407,-4.805456"
         inkstitch:satin_column="true"
         transform="scale(0.264583)" /><path
         id="path7642"
         style="fill:none;stroke:#8bfbf6;stroke-width:1px"
         d="m 77.945647,186.74515 -1.429168,2.12432 -0.741381,1.66376 -0.250118,1.30141 0.09461,1.00162 0.359996,0.84874 0.657368,0.80963 0.998225,0.77917 1.324914,0.70778 1.597578,0.60122 1.802449,0.47554 1.938922,0.3429 1.977199,0.20729 3.990358,0.043 3.719735,-0.43695 2.866675,-0.0387 3.475931,0.1002 3.81365,0.31778 3.82722,0.62452 3.47856,1.03252 1.62447,0.7734 1.41894,0.97803 1.17811,1.28634 0.76493,1.63812 0.15845,1.86736 -0.65696,2.68604 -2.81397,1.12143 -1.9624,0.52254 -1.96163,0.3102 -1.97251,0.14201 -3.78439,-0.0657 -3.704091,-0.27646 -3.536751,-0.21517 -3.369341,0.0867 -1.529081,0.21425 -1.495307,0.36726 -1.43626,0.53964 -1.51482,0.80878 m -12.359604,-27.61119 -1.630432,2.42348 -1.083019,2.43044 -0.452682,2.35539 0.210992,2.23378 0.840604,1.98186 1.325232,1.63217 1.652975,1.29023 1.881286,1.00502 2.050822,0.77178 2.174351,0.57366 2.253278,0.3985 2.317001,0.24291 4.451042,0.048 3.770065,-0.44285 2.563525,-0.0346 3.275065,0.0944 3.53815,0.29482 3.40538,0.55568 2.91444,0.86508 1.03213,0.4914 0.75786,0.52237 0.42869,0.46806 0.18187,0.38948 0.0342,0.40294 -0.57571,0.22943 -1.5152,0.40346 -1.57457,0.249 -1.61109,0.11599 -3.48001,-0.0605 -3.61411,-0.26974 -3.744844,-0.22783 -3.785259,0.0975 -1.972319,0.27635 -1.940293,0.47654 -1.92254,0.72236 -1.75538,0.93722 m -12.748442,-20.93369 4.557018,2.03063 m 4.134802,11.92217 1.272695,-4.82391 m 10.59129,5.40643 -0.582036,-4.95491 m 9.381508,4.9482 0.41428,-4.97175 m 7.69182,8.74775 0.77925,4.92774 m -9.49422,-4.93218 -0.37132,4.97514 m -9.454315,-4.97519 0.69227,4.94071"
         inkstitch:satin_column="true"
         transform="scale(0.264583)" /><path
         id="path3925"
         style="fill:none;stroke:#8bfbf6;stroke-width:1px"
         d="m 45.783065,169.92252 2.618096,-0.85928 2.587294,-0.65207 2.502219,-0.43478 2.425723,-0.22921 2.356385,-0.0366 2.328543,0.14379 4.38768,0.74587 4.284346,1.26383 4.243202,1.64219 8.97707,4.01541 1.671692,1.22674 1.196449,1.0702 0.905945,1.11056 0.586882,1.32265 -0.01198,1.5302 -0.688734,1.26886 -0.926437,0.80601 -0.979194,0.54744 -1.894917,0.72702 -1.953411,0.64285 -1.667786,0.66438 -1.38438,0.89305 m -30.268219,-13.45893 2.479304,-0.81372 2.294706,-0.57833 2.189381,-0.38042 2.101677,-0.19859 2.032215,-0.0316 1.946657,0.12021 3.92572,0.66733 3.883454,1.14557 3.983798,1.54181 8.47493,3.79079 1.152108,0.84546 0.788529,0.70532 -1.373945,0.52714 -1.978589,0.65115 -2.161414,0.86102 -1.72402,1.11215 m -24.592632,-10.58784 -1.219235,-4.8377 m 9.676563,3.92241 0.307491,-4.97949 m 7.244187,6.4617 1.411552,-4.78512 m 5.988655,7.66044 2.037052,-4.55416 m 4.942443,7.8792 2.951608,-4.02218"
         inkstitch:satin_column="true"
         transform="scale(0.264583)" /><path
         id="path7209"
         style="fill:none;stroke:#8bfbf6;stroke-width:1px"
         d="m 99.37345,184.74932 0.135545,-2.10653 0.452769,-2.02053 0.761066,-1.78742 1.05671,-1.52503 1.31464,-1.22672 1.51162,-0.90831 1.64556,-0.59649 1.73027,-0.30912 1.78267,-0.0515 1.81392,0.18085 1.82833,0.39312 1.8268,0.59032 1.8089,0.7756 1.77329,0.95129 1.71894,1.11862 1.57459,1.22445 m -18.58672,5.56436 0.11466,-1.78187 0.29863,-1.33267 0.44613,-1.04778 0.56069,-0.80917 0.66816,-0.62348 0.79098,-0.47529 0.93164,-0.33771 1.07633,-0.19228 1.20793,-0.0349 1.31548,0.13115 1.39467,0.29988 1.4442,0.46668 1.4651,0.6282 1.45831,0.78231 1.42506,0.92738 1.43661,1.11715 m -15.56969,1.53204 -4.978681,-0.32035 m 7.350191,-4.48877 -2.56959,-4.27634 m 9.08224,4.24433 1.53405,-4.74728 m 4.48647,8.0659 3.06258,-3.93834"
         inkstitch:satin_column="true"
         transform="scale(0.264583)" /><path
         id="path5476"
         style="fill:none;stroke:#8bfbf6;stroke-width:1px"
         d="m 116.26307,198.7451 -2.24846,-2.40483 -1.54641,-1.18658 -0.43169,-0.20507 -0.29952,-0.081 -0.94071,7e-5 -3.23965,0.6819 -2.59742,0.19922 -3.11268,-0.30544 -3.223901,-0.23305 -1.418175,-0.3145 -1.212322,-0.4687 -1.067801,-0.71583 -0.822039,-1.04963 -0.36758,-1.28422 0.111096,-1.34727 0.915969,-1.88812 1.495832,-1.73338 1.860558,-1.64028 2.089273,-1.55369 m 19.09249,12.69096 -2.48254,-2.65517 -2.16759,-1.66322 -1.16731,-0.55453 -1.19368,-0.32264 -1.92549,1.3e-4 -3.39635,0.7149 -1.96338,0.15058 -2.80412,-0.27516 -2.973699,-0.21495 -0.814825,-0.1807 -0.310396,-0.12001 0.164273,-0.33862 0.954968,-1.10662 1.518039,-1.33832 1.95053,-1.45051 m 15.77998,7.85668 -3.64422,3.40728 m -6.46343,-7.10787 1.0276,4.882 m -8.58543,-4.80615 -0.3597,4.976 m 1.69296,-8.27916 -2.977092,-4.00335"
         inkstitch:satin_column="true"
         transform="scale(0.264583)" /><path
         id="path9611"
         style="fill:none;stroke:#8bfbf6;stroke-width:1px"
         d="m 63.8563,185.801 0.4323,-0.715 0.3377,-0.982 0.0076,-0.447 -0.0512,-0.122 -0.1422,-0.132 -0.4239,-0.186 -0.707,-0.122 -0.8749,0.013 -0.9133,0.162 -0.8276,0.29 -0.6544,0.376 -0.3073,0.305 -0.0883,0.172 -0.0062,0.124 0.1551,0.403 0.3691,0.452 2.2854,0.631 1.1377,0.129 0.0658,-0.012 z m 3.5568,2.152 0.6627,-1.095 0.6961,-2.025 0.0338,-1.98 -0.7368,-1.753 -1.312,-1.221 -1.5329,-0.673 -1.5894,-0.274 -1.5977,0.024 -1.5723,0.279 -1.5076,0.528 -1.3969,0.802 -0.2681,0.257 -0.9397,0.899 -0.8161,1.591 -0.095,1.897 0.7105,1.845 1.6267,1.993 3.8766,1.07 2.0555,0.233 1.3347,-0.232 1.5049,-0.738 z m 0.5596,-0.121 -4.2683,-2.583 m -5.5529,-5.503 2.4859,4.326 m -0.1845,0.055 -3.4482,-3.606 m -0.1897,0.182 3.4482,3.605 m 4.1633,6.339 -0.8569,-4.914"
         inkstitch:satin_column="true"
         transform="scale(0.264583)" /><path
         id="path5970"
         style="fill:none;stroke:#8bfbf6;stroke-width:1px"
         d="m 126.3288,179.56891 -2.91103,-2.35613 -2.75838,-1.8353 -2.69367,-1.42916 -2.65309,-1.08073 -2.6395,-0.78659 -2.65259,-0.54221 -2.68959,-0.34448 -2.73544,-0.1911 -5.754917,-0.11354 -6.095553,-0.0798 -3.242792,-0.15879 -3.365808,-0.3091 -3.504019,-0.51427 -3.434608,-0.7272 -1.192787,-0.0794 -1.511341,-0.32058 -2.610862,-1.07667 -2.265108,-1.58846 -1.648033,-1.90382 -0.608884,-1.23778 -0.286585,-1.33411 0.174341,-1.45381 0.749722,-1.32727 1.182256,-0.96458 1.436611,-0.60534 1.664709,-0.33317 1.697783,-0.0947 3.655549,-0.6891 4.013292,-0.46881 3.998671,-0.39476 3.869771,-0.49962 3.660282,-0.77514 1.650423,-0.51875 1.571785,-0.64438 1.45738,-0.77662 1.339342,-0.92628 0.57084,-0.51315 -1.05904,-0.30032 -4.5168,-0.60066 -2.45167,-0.44415 -2.391378,-0.87028 -1.233599,-0.76248 -1.084199,-0.96161 -0.931533,-1.20032 -1.057518,-3.25405 m 41.903167,34.15692 -3.06197,-2.47827 -3.09202,-2.0573 -3.06173,-1.62444 -3.03491,-1.23627 -3.0087,-0.89661 -2.98321,-0.60979 -2.96161,-0.37932 -2.95876,-0.2067 -5.872683,-0.11586 -6.034847,-0.079 -3.079808,-0.15081 -3.165392,-0.2907 -3.263181,-0.47893 -3.596192,-0.7614 -1.192013,-0.0794 -0.849659,-0.18022 -1.834538,-0.75653 -1.468092,-1.02954 -0.961367,-1.11058 -0.145916,-0.29662 -0.01519,-0.0707 0.04305,-0.0351 0.498989,-0.21026 0.963491,-0.19283 1.674417,-0.0933 3.779651,-0.7125 3.831708,-0.44759 4.023729,-0.39724 4.097229,-0.52898 4.018718,-0.85106 2.008377,-0.63125 1.928009,-0.79042 1.85402,-0.98798 1.75466,-1.21352 1.62593,-1.4616 2.88569,-3.39417 -2.97842,-1.99701 -1.28812,-0.61063 -2.47028,-0.70052 -4.717396,-0.62734 -2.00733,-0.36365 -1.657822,-0.60332 -0.565801,-0.34972 -0.527201,-0.46759 m 33.26348,29.21901 -2.76362,4.15359 m -4.8579,-8.24318 -1.8821,4.62035 m -10.29269,-7.04526 -0.34769,4.97685 m -13.713691,-5.29262 -0.244004,4.98301 m -13.892253,-7.04665 -1.901984,4.6122 m 10.433743,-8.71978 -0.490147,-4.96484 m 8.85185,3.79301 -1.033604,-4.88073 m 5.192456,-8.59214 -0.657663,4.94544"
         inkstitch:satin_column="true"
         transform="scale(0.264583)"
         sodipodi:nodetypes="ccccccccccccccccccccccccccccccccccccccccccccccccccccccccccccccccccccccccccccccccccccccccccccccccccccccccccc" /><path
         id="path3074"
         style="fill:none;stroke:#8bfbf6;stroke-width:1px"
         d="m 87.265301,142.47863 2.044194,-2.35838 0.752049,-1.20581 0.221823,-0.78638 -0.04894,-0.48596 -0.258608,-0.48595 -0.621167,-0.60786 -1.038169,-0.65642 -1.36096,-0.6114 -3.562918,-1.05701 -3.931879,-0.72519 m 12.431863,10.2288 0.73312,-1.06772 1.276551,-2.04679 0.596777,-2.11562 -0.210056,-2.08564 -0.945392,-1.77645 -1.395433,-1.36554 -1.659031,-1.04898 -1.88404,-0.8464 -4.041482,-1.19899 -4.275721,-0.78861 m 13.675235,12.50492 -4.246631,-2.70529 m 1.690481,-6.87718 -2.666208,4.21678 m -5.724747,-7.05881 -0.904898,4.90622"
         inkstitch:satin_column="true"
         transform="scale(0.264583)"
         sodipodi:nodetypes="cccccccccccccccccccccccccccc" /><path
         id="path7390"
         style="fill:none;stroke:#8bfbf6;stroke-width:1px"
         d="m 61.720017,144.70728 -1.912084,-1.07382 -1.284709,-0.4388 -0.734186,-0.0498 -0.270445,0.081 -0.09812,0.0847 -0.115488,0.22821 -0.07391,0.46593 0.05792,0.63249 0.216417,0.6739 0.351092,0.59916 0.433325,0.4432 0.474593,0.26606 0.558217,0.10593 0.775445,-0.1081 1.091343,-0.49125 1.526227,-1.15352 m 1.040129,-3.89017 -2.243916,-1.26018 -2.161891,-0.7384 -2.031614,-0.13795 -1.843355,0.55219 -1.39288,1.20174 -0.781112,1.54359 -0.257485,1.62307 0.147075,1.60591 0.496383,1.5457 0.840308,1.43404 1.207875,1.2354 1.587807,0.89014 1.896383,0.35987 2.042355,-0.2847 2.061057,-0.92775 1.915617,-1.44782 m -2.436228,-8.20722 -2.442919,4.34994"
         inkstitch:satin_column="true"
         transform="scale(0.264583)" /><path
         id="path4448"
         style="fill:none;stroke:#8bfbf6;stroke-width:1px"
         d="m 77.26277,149.00039 -1.490391,-1.84661 -1.779474,-1.71647 -2.042434,-1.59052 -2.273827,-1.46734 -2.469724,-1.34801 -2.628275,-1.2341 -2.733085,-1.12086 -5.728263,-1.97752 -5.732612,-1.65706 -11.580982,-3.05755 -0.830759,-4.06094 -0.184831,-2.60061 0.190129,-2.31927 0.522742,-2.04581 0.793167,-1.77041 0.980972,-1.50124 1.078533,-1.25711 1.094356,-1.05611 1.920708,-1.65388 0.696013,-0.65566 0.43677,-0.52401 0.193363,-0.36924 0.05358,-0.29238 -0.02692,-0.18711 -0.925369,-0.004 -2.468635,-0.1825 -2.528843,-0.52331 m 42.995182,40.98999 -2.109638,-5.35046 -1.839209,-2.27879 -2.124126,-2.04893 -2.361366,-1.83888 -2.556973,-1.65006 -2.714476,-1.48159 -2.836125,-1.3317 -2.938115,-1.20494 -5.940137,-2.05068 -5.880988,-1.69994 -9.133018,-2.41125 -0.259041,-1.26626 -0.142969,-2.01159 0.135471,-1.65253 0.347658,-1.36059 0.513233,-1.14559 0.653028,-0.99936 0.774467,-0.90269 0.868644,-0.83829 1.901692,-1.63752 0.945987,-0.89114 0.88103,-1.05699 0.691637,-1.32076 0.289818,-1.58142 -0.241232,-1.67698 -1.181848,-2.73547 -3.578036,-0.0166 -2.054765,-0.1519 -1.877357,-0.38849 m 39.073811,38.24621 -3.882259,3.13336 m -3.193229,-9.27099 -2.705121,4.19192 m -5.382878,-8.28801 -1.893008,4.61589 m -9.506071,-8.42446 -1.385386,4.79277 m -6.994304,-7.05358 -1.273526,4.82369 m -1.437578,-9.29777 -4.972297,-0.40762 m 8.653428,-5.81201 -3.25536,-3.78055 m -0.944876,-1.88074 1.222503,-6.15942"
         inkstitch:satin_column="true"
         sodipodi:nodetypes="cccccccccccccccccccccccccccccccccccccccccccccccccccccccccccccccccccccccccc"
         transform="scale(0.264583)" /><path
         id="path3150"
         style="fill:none;stroke:#8bfbf6;stroke-width:1px"
         d="m 83.025906,151.41661 -3.830614,1.29062 -2.038544,0.54292 -4.022115,0.61707 -7.921174,0.54248 -3.67363,0.45946 -1.644716,0.36479 -1.555986,0.49698 -1.434924,0.64444 -1.315954,0.81606 -1.205694,1.0211 -0.701807,0.80859 -0.01066,1.72421 -0.284078,1.24207 -0.518321,1.0788 -0.806305,0.88855 -1.093036,0.62854 -1.828356,0.2787 -1.781388,-0.19255 -1.669461,-0.31737 -1.58441,-0.25487 -1.665732,-0.0657 m 34.656631,-15.05458 -4.419067,0.75443 -7.863426,0.53852 -3.98297,0.49814 -2.019884,0.44801 -1.960014,0.62602 -1.901876,0.85416 -1.812446,1.12394 -1.683906,1.4261 -1.919193,2.21121 -0.01734,2.80579 -0.07852,0.34333 -0.0024,0.005 -0.385989,0.0588 -1.077412,-0.11645 -1.563539,-0.29723 -1.88939,-0.30393 -1.915468,-0.0755 m 32.138757,-10.97955 0.591313,5.01883 m -8.390757,-4.20917 0.340869,4.97731 m -9.484372,-3.58195 1.517919,4.75245 m -10.215513,4.20435 4.988882,0.0308"
         inkstitch:satin_column="true"
         transform="scale(0.264583)"
         sodipodi:nodetypes="cccccccccccccccccccccccccccccccccccccccccccccccc" /><path
         id="path157"
         style="fill:none;stroke:#8bfbf6;stroke-width:1px"
         d="m 60.558889,113.0534 0.202203,-1.70719 0.413037,-1.51287 0.694828,-1.28539 1.053663,-0.97214 1.25622,-0.4803 1.213813,-0.0631 1.634739,0.32218 1.096259,0.25988 0.108992,-0.36787 0.298278,-2.58501 4.735359,-1.26386 1.604532,-0.20222 1.505468,8.5e-4 1.461223,0.2017 1.463634,0.3891 2.888047,1.15324 m -17.501673,8.60202 0.165797,-1.39981 0.205563,-0.75293 0.09067,-0.16773 0.996069,0.1963 1.480695,0.35103 1.098439,0.0571 1.251769,-0.2879 1.158327,-0.82795 0.76775,-1.21543 0.418769,-1.41343 0.01532,-0.13279 1.729241,-0.46154 1.064668,-0.13418 0.958932,5.5e-4 0.926577,0.1279 0.975366,0.2593 2.655953,1.06056 m -15.51813,4.54577 -4.954347,-0.5868 m 10.660458,-1.32484 -2.901118,-4.05875 m 8.731616,0.47611 0.682185,-4.94212"
         inkstitch:satin_column="true"
         transform="scale(0.264583)" /><path
         id="path6553"
         style="fill:none;stroke:#8bfbf6;stroke-width:1px"
         d="m 57.291368,69.558849 2.117733,-0.435405 2.234766,0.01495 2.08658,0.466626 1.880991,0.863105 1.630702,1.198479 1.345808,1.475195 1.029964,1.699076 0.6808,1.873652 0.292972,1.996846 -0.136182,2.059362 -0.60105,2.048158 -1.085659,1.955164 -1.359231,1.545907 2.554382,0.349086 3.680367,0.908187 3.557991,1.305272 3.370865,1.704511 3.115915,2.108113 3.928399,3.545882 -1.715343,2.911288 -1.33199,1.345177 -1.570423,1.01174 -1.72971,0.71988 -1.843373,0.47817 -1.966301,0.28328 -3.970462,0.0717 -4.068842,-0.42416 -3.892537,-0.7792 -3.48907,-1.0115 -2.731529,-1.086343 m -1.179269,-26.129937 1.689667,-0.347395 1.352634,0.009 1.22422,0.273774 1.096409,0.503095 0.956698,0.703121 0.794792,0.871205 0.607236,1.001724 0.3964,1.090948 0.167428,1.141154 -0.07682,1.161638 -0.34195,1.165242 -0.644141,1.160036 -1.002407,1.140076 -1.426143,1.087077 -1.910297,0.982358 -12.262342,4.094806 0.331567,1.625502 13.509671,-1.085048 3.288713,0.09754 3.302287,0.451297 3.244433,0.800613 3.116009,1.143128 2.919135,1.476089 2.657085,1.797687 1.09712,0.990291 -0.279986,0.282758 -0.876177,0.56447 -1.11709,0.464917 -1.337027,0.346827 -1.480699,0.21332 -3.456538,0.06246 -3.622558,-0.377638 -3.528863,-0.7064 -3.12753,-0.906694 -2.545271,-1.012262 m -0.65496,-22.195917 0.03338,-4.988865 m 4.934759,7.591706 4.266316,-2.586201 m -4.236055,8.084097 4.361666,2.421934 m 4.495961,8.370959 1.718262,-4.683745 m 2.111118,10.398524 0.711403,4.937992 m -10.775806,-5.596646 -0.979255,4.891926"
         inkstitch:satin_column="true"
         transform="scale(0.264583)" /><path
         id="path8837"
         style="fill:none;stroke:#8bfbf6;stroke-width:1px"
         d="m 63.728474,62.074292 2.923545,-0.621466 2.576114,-0.702024 4.615789,-1.662967 4.056277,-1.867844 3.867213,-1.967068 4.000549,-1.926517 4.400386,-1.700519 2.492672,-0.725824 2.675406,-0.595633 2.54162,-0.394452 -0.630853,-0.649267 -0.631717,-0.467792 -0.547579,-0.260311 -0.458343,-0.111987 -1.434989,0.02452 -4.256653,0.921464 -2.8666,0.3309 -1.711392,-0.0267 -1.691498,-0.202737 m -19.055495,16.67284 3.038655,-0.645934 2.849686,-0.776576 4.939611,-1.779633 4.291923,-1.976356 3.899187,-1.983332 3.809851,-1.834683 4.079414,-1.576481 2.193728,-0.638776 2.412794,-0.537167 2.652517,-0.411663 6.329398,-0.576884 -2.82025,-4.60338 -1.11769,-1.486794 -1.158542,-1.19236 -1.228083,-0.909408 -1.296821,-0.616489 -1.393257,-0.340413 -2.380411,0.04068 -4.456547,0.964736 -2.3936,0.2763 -1.224008,-0.0191 -1.477302,-0.177063 M 68.90025,65.580154 67.588524,60.766708 m 10.658654,1.328304 -2.086726,-4.531607 m 12.748946,-0.548162 -1.798365,-4.653577 m 9.88751,2.312785 -0.765116,-4.929959 m -5.743997,-5.180762 1.055545,4.876034"
         inkstitch:satin_column="true"
         transform="scale(0.264583)" /><path
         id="path8150"
         style="fill:none;stroke:#8bfbf6;stroke-width:1px"
         d="m 58.824978,99.489577 -2.168915,-1.634608 -1.708821,-1.446879 -1.314891,-1.140347 -1.037425,-0.782834 -0.906929,-0.467698 -1.048065,-0.256337 -1.52323,-0.04 -2.311232,0.274733 m 14.521752,2.173815 -2.074685,-1.563592 -1.599979,-1.354721 -1.403109,-1.216853 -1.532523,-0.48808 -1.462975,-0.163868 -2.158231,0.114225 -2.269769,-0.0596 -2.610168,0.310267 m 13.872472,2.967876 -3.002691,3.984185 m -4.943226,-7.869484 -1.086329,3.460865"
         inkstitch:satin_column="true"
         transform="scale(0.264583)"
         sodipodi:nodetypes="cccccccccccccccccccccc" /></g><path
       id="path3"
       style="fill:none;fill-rule:evenodd;stroke:#000000;stroke-width:0.2;stroke-linecap:round;stroke-dasharray:none;stroke-opacity:1"
       d="m 32.278003,24.160493 0.950653,0.664684 0.262782,1.012484 -0.417359,0.942925 -0.703329,0.340069 m -0.697781,-2.936975 -0.950653,0.664684 -0.262782,1.012484 0.417359,0.942925 0.703329,0.340069 m 1.25981,-2.763075 -1.700355,-0.02319 m 2.303207,0.726516 -2.944705,0.0077 m 3.083826,1.112992 -3.076097,0.03091 m 2.280021,0.788352 -1.700355,-0.02319"
       sodipodi:nodetypes="cccccccccccccccccc"
       inkstitch:satin_column="True" /><g
       id="centerline_group_6780"
       inkscape:label="path1 center line"
       style="display:inline;stroke-width:1.5;stroke-dasharray:none"><path
         id="path2156"
         style="fill:none;stroke:#000000;stroke-width:1px"
         d="m 179.34188,140.75508 5.30829,0.58372 5.56248,0.55825 4.87899,0.12388 4.43156,-0.34824 4.25166,-0.86633 4.34926,-1.45527 4.70156,-2.13145 4.56337,-2.40598 m -38.39119,11.51372 4.95717,0.63942 5.90212,0.59235 5.38501,0.13672 5.07204,-0.39856 4.93154,-1.00487 4.95374,-1.65753 5.82523,-2.67184 m -34.46662,5.22487 0.98811,-6.73101 m 9.36682,7.72153 0.17267,-6.80096 m 10.53632,6.02814 -1.35832,-6.66617 m 11.16129,3.50897 -2.80903,-6.19614"
         inkstitch:satin_column="true"
         transform="scale(0.264583, 0.264583)"
         sodipodi:nodetypes="ccccccccccccccccccccccccc" /><path
         id="path7681"
         style="fill:none;stroke:#000000;stroke-width:1px"
         d="m 178.04981,125.2557 2.40912,-0.38584 4.07105,-0.85037 3.57023,-0.93759 3.10184,-1.03103 2.66987,-1.12833 2.28035,-1.22964 1.94199,-1.33921 1.66172,-1.46615 1.43926,-1.62236 1.26677,-1.81603 1.13226,-2.04646 1.02691,-2.30589 0.94712,-2.58576 0.88934,-2.86389 1.75976,-6.728403 m -29.2702,34.006833 2.56007,-0.48304 4.32315,-0.90303 3.88557,-1.02041 3.48676,-1.15897 3.12353,-1.32007 2.78945,-1.50416 2.47561,-1.70719 2.17548,-1.91945 1.88894,-2.12924 1.62443,-2.32877 1.39334,-2.51834 1.20489,-2.70551 1.06208,-2.89964 1.15385,-4.15447 m -31.42981,27.09144 -1.12397,-6.70966 m 8.12564,5.08848 -1.72801,-6.58003 m 12.03215,2.73411 -3.22895,-5.98805 m 10.54896,0.2366 -5.08915,-4.5148 m 9.65298,-2.85604 -6.21472,-2.7677 m 8.37792,-3.45764 -6.58176,-1.7214"
         inkstitch:satin_column="true"
         transform="scale(0.264583, 0.264583)"
         sodipodi:nodetypes="ccccccccccccccccccccccccccccccccccccccccccc" /><path
         id="path9415"
         style="fill:none;stroke:#000000;stroke-width:1px"
         d="m 193.32554,172.08354 -1.98142,-0.26178 -3.60001,-1.21083 -3.41922,-1.54517 -3.25254,-1.81935 -3.10395,-2.03654 -2.97459,-2.20008 -1.09919,-1.06929 m 25.54724,5.39315 -3.45498,-0.31215 -3.1382,-0.67506 -3.02839,-1.01857 -2.93958,-1.32843 -2.86586,-1.60305 -2.80325,-1.83926 -2.75021,-2.03412 -2.11227,-1.84219 m 17.34489,9.22035 -1.90285,6.48053 m -2.98298,-8.13335 -2.80161,6.19951 m -3.40999,-9.66008 -3.73205,5.68811"
         inkstitch:satin_column="true"
         transform="scale(0.264583, 0.264583)"
         sodipodi:nodetypes="ccccccccccccccccccccccc" /><path
         id="path6202"
         style="fill:none;stroke:#000000;stroke-width:1px"
         d="m 165.22039,109.51358 1.25435,-1.06509 2.00961,-1.91311 1.83941,-1.98508 1.66529,-2.05419 1.48725,-2.12077 1.30584,-2.185671 1.12129,-2.249283 0.93342,-2.312656 0.7422,-2.376359 0.54697,-2.441438 0.34701,-2.508073 0.14135,-2.576919 -0.0707,-2.647679 -0.29033,-2.719971 -0.51781,-2.793076 -0.52111,-2.446506 m -6.95217,39.552601 2.25979,-2.15129 2.08759,-2.25292 1.90771,-2.35321 1.71955,-2.45203 1.52276,-2.54873 1.31731,-2.642516 1.10298,-2.732744 0.8802,-2.818241 0.64943,-2.898762 0.41139,-2.973327 0.16685,-3.041881 -0.0829,-3.104521 -0.33747,-3.161629 -0.48516,-1.738636 m -11.59239,36.237207 -4.8623,-4.92135 m 8.95294,0.48294 -5.28472,-4.28423 m 10.405,-3.621345 -6.08855,-3.03519 m 8.97704,-5.047022 -6.63858,-1.487286 m 7.55996,-7.976528 -6.80073,0.181598 m 6.35354,-3.9007 -6.65315,1.029802"
         inkstitch:satin_column="true"
         transform="scale(0.264583, 0.264583)"
         sodipodi:nodetypes="cccccccccccccccccccccccccccccccccccccccccccc" /><path
         id="path6174"
         style="fill:none;stroke:#000000;stroke-width:1px"
         d="m 158.98737,156.01842 2.37748,-2.23257 2.1766,-2.52861 2.08488,-2.83701 1.95416,-2.99715 1.44417,-2.52949 4.41078,-13.30622 m -10.56721,30.56381 2.59692,-2.43863 2.5154,-2.92219 2.30812,-3.14079 2.82311,-4.02967 m -8.45303,11.62761 -4.65704,-4.95932 m 11.55651,-3.54775 -5.69883,-3.71567"
         inkstitch:satin_column="true"
         transform="scale(0.264583, 0.264583)"
         sodipodi:nodetypes="cccccccccccccccc" /><path
         id="path8734"
         style="fill:none;stroke:#000000;stroke-width:1px"
         d="m 157.78177,145.16223 2.09981,-1.23264 1.88841,-1.58828 1.92859,-2.00853 1.95178,-2.2912 3.96074,-4.78498 2.11321,-2.24746 2.08548,-1.77525 m -13.15796,20.81748 2.51259,-1.47496 2.48579,-2.09072 3.47156,-3.67565 m -6.78076,6.90713 -3.44407,-5.86697 m 10.27467,-0.32541 -5.17884,-4.41163"
         inkstitch:satin_column="true"
         transform="scale(0.264583, 0.264583)"
         sodipodi:nodetypes="cccccccccccccccc" /><path
         id="path3278"
         style="fill:none;stroke:#000000;stroke-width:1px"
         d="m 156.0057,133.22271 0.47738,-11.25804 0.51077,-5.21548 -5.35132,-3.59946 m 10.02737,20.31316 0.47262,-11.14576 0.45192,-5.49769 0.16826,-2.34516 m -0.0991,8.93503 -6.79705,-0.28822 m 7.40878,-7.30013 -8.22701,0.1994"
         inkstitch:satin_column="true"
         transform="scale(0.264583, 0.264583)"
         sodipodi:nodetypes="cccccccccccc" /><path
         id="path8602"
         style="fill:none;stroke:#000000;stroke-width:1px"
         d="m 142.13145,129.30021 1.95646,-2.13607 1.71924,-2.19547 1.55959,-2.32456 1.39959,-2.4386 1.23935,-2.53652 1.07868,-2.61807 0.80727,-2.20335 m -5.57948,20.28182 2.10434,-2.29753 1.98256,-2.53173 1.78601,-2.66204 1.59221,-2.7742 1.40145,-2.86828 1.80355,-3.35098 m -8.95325,15.44964 -5.01685,-4.59501 m 10.25391,-2.60577 -5.90041,-3.38645 m 8.65105,-2.42728 -6.43682,-2.20234"
         inkstitch:satin_column="true"
         transform="scale(0.264583, 0.264583)"
         sodipodi:nodetypes="ccccccccccccccccccccc" /><path
         id="path8461"
         style="fill:none;stroke:#000000;stroke-width:1px"
         d="m 139.17537,104.16126 0.47125,-1.79699 0.93611,-2.657806 0.63642,-2.795665 0.3364,-2.883996 0.0389,-2.920563 -0.25375,-2.903933 -0.53884,-2.833988 -0.56313,-4.482278 m 3.91828,25.140609 0.71992,-1.44692 1.16129,-3.29719 0.77658,-3.411339 0.4056,-3.477204 0.0466,-3.497237 -0.30345,-3.472667 -0.64716,-3.403612 -2.27023,-4.358265 m 1.62764,24.270344 -6.08783,-3.03664 m 7.94776,-4.295247 -6.75734,-0.788207 m 6.48782,-9.842204 -6.68342,1.270766"
         inkstitch:satin_column="true"
         transform="scale(0.264583, 0.264583)"
         sodipodi:nodetypes="cccccccccccccccccccccccc" /><path
         id="path1072"
         style="stroke:#000000;stroke-width:1px;fill:none"
         d="M 142.631 105.167 L 143.658 105.626 L 145.821 106.272 L 148.126 106.714 L 150.555 107.008 L 155.736 107.42 L 158.425 107.686 L 161.224 108.118 L 164.592 109.093 L 167.75 110.64 L 170.581 112.648 L 173.054 115.035 L 175.142 117.726 L 176.812 120.658 L 178.031 123.768 L 178.732 126.909 L 179.218 131.081 L 179.485 134.979 L 179.552 138.69 L 179.428 142.22 L 179.12 145.573 L 178.637 148.754 L 177.987 151.765 L 177.179 154.61 L 176.223 157.292 L 175.129 159.814 L 173.905 162.178 L 172.564 164.388 L 171.117 166.445 L 169.547 168.389 L 166.259 171.745 L 162.697 174.598 L 158.987 176.959 L 155.214 178.875 L 151.46 180.396 L 147.803 181.572 L 144.32 182.45 L 141.086 183.076 L 138.205 183.493 L 132.599 184.181 L 129.509 184.731 L 126.625 185.509 L 125.485 185.95 L 124.541 186.434 L 123.884 186.901 L 123.525 187.284 L 123.386 187.546 L 123.341 187.798 L 123.405 188.275 L 123.744 189.109 L 124.014 189.518 L 124.303 189.818 L 125.448 190.583 L 128.875 192.085 L 130.791 193.234 L 131.838 194.251 L 132.652 195.496 L 133.163 196.974 L 133.326 198.581 L 133.172 200.267 L 132.792 201.842 L 132.62 202.727 L 132.622 203.447 L 132.762 204.234 L 133.048 205.065 L 133.476 205.907 L 134.033 206.724 L 134.697 207.482 L 135.443 208.15 L 136.24 208.702 L 137.056 209.118 L 137.858 209.388 L 138.621 209.509 L 139.335 209.49 L 140.017 209.332 L 140.701 209.011 L 141.445 208.452 L 143.658 206.121 L 145.717 203.429 L 149.805 197.423 L 152.096 194.369 L 154.724 191.514 L 156.286 190.147 L 157.967 188.918 L 159.814 187.825 L 161.779 186.922 L 171.04 183.344 L 175.598 181.539 L 180.058 179.64 L 184.38 177.586 L 188.523 175.322 L 192.448 172.79 L 196.195 169.876 L 200.356 166.408 L 204.111 162.707 L 207.472 158.74 L 210.405 154.512 L 212.898 149.993 L 213.938 147.689 L 214.867 145.287 L 215.621 142.956 L 215.664 142.821 L 216.327 140.291 L 216.851 137.695 L 217.229 135.05 L 217.557 130.574 L 217.529 126.091 L 217.151 121.616 L 216.425 117.184 L 215.356 112.828 L 213.949 108.583 L 212.21 104.481 L 210.144 100.558 L 207.006 95.6867 L 203.528 91.247 L 199.716 87.2187 L 195.571 83.5846 L 191.098 80.3291 L 186.297 77.4388 L 181.172 74.9019 L 175.754 72.7189 L 171.829 71.5386 L 167.827 70.6275 L 163.787 69.9858 L 159.717 69.6056 L 155.63 69.4788 L 151.534 69.5977 L 147.442 69.9542 L 143.364 70.5404 L 139.311 71.3482 L 135.296 72.3694 L 131.33 73.5954 L 127.424 75.0179 L 123.591 76.6281 L 119.841 78.4172 L 116.188 80.3763 L 112.66 82.4852 L 107.727 85.8648 L 103.058 89.6273 L 98.7068 93.7524 L 94.7415 98.2071 L 91.2076 102.987 L 89.6591 105.434 L 88.23 107.972 L 86.9459 110.566 L 85.8142 113.215 L 84.8421 115.913 L 84.0693 118.548 L 83.9359 119.481 L 83.9944 119.903 L 84.1144 120.141 L 84.3951 120.424 L 84.9886 120.782 L 85.9268 121.138 L 87.1594 121.436 L 88.5864 121.651 L 91.9794 121.867 L 95.535 121.875 L 98.9587 121.832 L 101.827 121.911 L 104.813 122.072 L 107.578 122.063 L 110.241 121.891 L 112.807 121.561 L 115.282 121.073 L 117.67 120.431 L 119.979 119.635 L 122.215 118.686 L 124.383 117.582 L 126.49 116.325 L 128.539 114.911 L 130.535 113.34 L 132.481 111.612 L 134.356 109.749 L 139.51 103.772 Z M 140.318 110.343 L 141.682 110.953 L 144.473 111.786 L 147.25 112.319 L 149.989 112.651 L 155.232 113.067 L 157.712 113.312 L 159.998 113.665 L 162.541 114.401 L 164.844 115.53 L 166.953 117.025 L 168.824 118.831 L 170.415 120.883 L 171.683 123.108 L 172.593 125.43 L 173.135 127.857 L 173.571 131.603 L 173.82 135.224 L 173.881 138.641 L 173.768 141.86 L 173.49 144.887 L 173.058 147.729 L 172.483 150.392 L 171.776 152.883 L 170.947 155.209 L 170.005 157.38 L 168.959 159.402 L 167.817 161.282 L 166.588 163.029 L 165.307 164.615 L 162.448 167.534 L 159.394 169.981 L 156.176 172.028 L 152.862 173.711 L 149.525 175.063 L 146.241 176.119 L 143.087 176.914 L 140.141 177.485 L 137.454 177.873 L 131.756 178.572 L 128.271 179.193 L 124.858 180.114 L 123.163 180.77 L 121.591 181.575 L 120.137 182.608 L 118.872 183.957 L 117.959 185.677 L 117.605 187.678 L 117.882 189.744 L 118.704 191.764 L 119.568 193.073 L 120.643 194.191 L 122.714 195.574 L 126.268 197.133 L 127.313 197.759 L 127.437 197.88 L 127.523 198.011 L 127.589 198.202 L 127.63 198.61 L 127.564 199.34 L 127.251 200.635 L 126.949 202.189 L 126.954 203.958 L 127.259 205.664 L 127.816 207.282 L 128.586 208.798 L 129.541 210.2 L 130.659 211.476 L 131.925 212.61 L 133.326 213.58 L 134.854 214.359 L 136.5 214.912 L 138.246 215.191 L 140.06 215.142 L 141.883 214.719 L 143.64 213.895 L 145.23 212.699 L 147.977 209.805 L 150.315 206.749 L 154.418 200.721 L 156.46 197.999 L 158.688 195.579 L 159.833 194.577 L 161.09 193.657 L 162.448 192.854 L 163.987 192.147 L 173.106 188.623 L 177.752 186.784 L 182.386 184.811 L 186.959 182.638 L 191.423 180.197 L 195.731 177.419 L 199.751 174.292 L 204.168 170.612 L 208.272 166.566 L 211.974 162.196 L 215.229 157.505 L 217.972 152.532 L 219.17 149.879 L 220.212 147.183 L 221.015 144.701 L 221.108 144.414 L 221.853 141.571 L 222.441 138.658 L 222.869 135.659 L 223.228 130.764 L 223.197 125.834 L 222.781 120.918 L 221.984 116.048 L 220.808 111.258 L 219.258 106.581 L 217.337 102.05 L 215.045 97.6967 L 211.63 92.3965 L 207.828 87.5424 L 203.652 83.1301 L 199.115 79.1522 L 194.234 75.5997 L 189.021 72.4614 L 183.493 69.7247 L 177.634 67.3641 L 173.276 66.0538 L 168.902 65.0579 L 164.496 64.358 L 160.069 63.9444 L 155.635 63.807 L 151.206 63.9355 L 146.792 64.32 L 142.406 64.9506 L 138.058 65.8172 L 133.759 66.9104 L 129.522 68.2204 L 125.355 69.7379 L 121.271 71.4535 L 117.28 73.358 L 113.392 75.4425 L 109.601 77.709 L 104.341 81.3122 L 99.3232 85.3561 L 94.632 89.8034 L 90.3359 94.6297 L 86.5266 99.7817 L 84.7905 102.526 L 83.216 105.321 L 81.7947 108.194 L 80.5362 111.139 L 79.4503 114.153 L 78.5147 117.343 L 78.2105 119.469 L 78.5084 121.614 L 79.4542 123.491 L 80.8635 124.916 L 82.5 125.901 L 84.247 126.565 L 86.07 127.006 L 87.9844 127.293 L 91.7924 127.536 L 95.5642 127.544 L 98.9167 127.502 L 101.596 127.576 L 104.669 127.742 L 107.77 127.731 L 110.786 127.537 L 113.718 127.16 L 116.567 126.599 L 119.332 125.855 L 122.013 124.931 L 124.611 123.827 L 127.125 122.548 L 129.556 121.097 L 131.905 119.476 L 134.173 117.691 L 136.365 115.745 L 138.507 113.616 L 141.135 110.569 M 152.176 113.393 L 152.715 106.611 M 173.26 140.165 L 180.059 140.405 M 166.495 162.176 L 172.06 166.09 M 157.158 170.731 L 160.81 176.471 M 147.735 175.043 L 149.817 181.52 M 137.375 177.312 L 138.204 184.064 M 124.049 196.779 L 126.781 190.548 M 130.665 212.242 L 135.204 207.175 M 154.512 201.591 L 148.888 197.763 M 176.091 188.051 L 173.587 181.726 M 194.311 179.009 L 190.623 173.292 M 201.378 173.674 L 197.024 168.447 M 209.927 165.49 L 204.735 161.093 M 216.827 155.781 L 210.871 152.494 M 215.082 142.781 L 221.554 144.875 M 223.632 133.005 L 216.847 132.507 M 223.614 124.032 L 216.835 124.606 M 220.809 109.457 L 214.351 111.597 M 213.055 93.5614 L 207.336 97.246 M 205.576 84.3387 L 200.635 89.0152 M 196.577 76.6036 L 192.574 82.1044 M 186.426 70.5443 L 183.408 76.6413 M 175.469 66.1211 L 173.51 72.6361 M 166.794 64.1489 L 165.726 70.8679 M 157.963 63.3119 L 157.752 70.1118 M 149.124 63.5478 L 149.714 70.3253 M 140.393 64.7736 L 141.723 71.4455 M 131.862 66.9037 L 133.871 73.4034 M 123.598 69.861 L 126.233 76.1333 M 115.662 73.5824 L 118.876 79.578 M 105.753 79.658 L 109.597 85.2705 M 96.633 87.1253 L 101.313 92.0625 M 87.0128 98.1705 L 92.4831 102.215 M 99.4264 128.083 L 99.613 121.283 M 133.45 118.982 L 129.243 113.635"
         inkstitch:satin_column="true"
         transform="scale(0.264583, 0.264583)" /><path
         id="path7977"
         style="fill:none;stroke:#000000;stroke-width:1px"
         d="m 55.517197,98.317484 -0.275429,1.453708 -0.118737,1.277518 0.121742,2.76793 0.593022,2.64332 1.038333,2.47977 1.484705,2.27471 0.819244,0.93106 0.949448,0.88246 1.032006,0.77553 1.11233,0.66112 1.192324,0.53923 1.383606,0.44454 1.876282,0.53271 1.807559,0.32364 4.015295,0.30405 5.977228,-0.12413 m -28.579152,-19.222534 -0.325371,1.717292 -0.179463,1.930882 0.160858,3.65727 0.812378,3.62108 1.430867,3.41723 1.989495,3.04809 1.276156,1.45034 1.374952,1.27794 1.514194,1.13787 1.64827,0.97968 1.775076,0.80277 1.783594,0.57306 2.241118,0.63629 2.369041,0.42416 4.455105,0.33735 4.279079,0.0927 m -27.55588,-22.786523 6.773955,0.629593 m -5.220709,9.76803 6.275244,-2.62758 m 0.13667,11.09849 4.087015,-5.43868 m 5.20934,9.22318 1.199005,-6.69665 m 6.979496,7.35135 0.147409,-6.80155"
         inkstitch:satin_column="true"
         transform="scale(0.264583, 0.264583)"
         sodipodi:nodetypes="cccccccccccccccccccccccccccccccccccccccccccc" /><path
         id="path4300"
         style="fill:none;stroke:#000000;stroke-width:1px"
         d="m 81.673722,125.44467 -1.150728,0.82992 -3.150008,2.03405 -3.390127,1.58088 -3.561273,1.13429 -3.668568,0.69243 -3.715035,0.25188 -3.701647,-0.19162 -3.705279,-0.65568 -2.109756,-0.79682 -1.894072,-0.95612 -3.26003,-2.06949 -3.022968,-2.04286 -1.405223,-0.84163 -1.526439,-0.75904 m 35.979103,-7.23559 -2.180138,5.90012 -1.58712,1.01557 -2.708273,1.26292 -2.885727,0.91911 -2.997432,0.56577 -3.040365,0.20612 -3.013353,-0.15598 -2.839721,-0.50252 -1.332844,-0.50338 -1.376128,-0.69468 -2.95637,-1.87671 -3.084032,-2.08414 -1.728377,-1.03517 -1.724961,-0.85776 m 30.70885,3.65581 4.493138,5.10829 m -10.136039,-2.73034 2.064641,6.48229 m -10.285032,-5.43604 -0.351692,6.79405 m -6.305044,-8.30447 -3.065765,6.07322 m -4.072702,-10.65207 -3.495589,5.83641"
         inkstitch:satin_column="true"
         transform="scale(0.264583, 0.264583)"
         sodipodi:nodetypes="cccccccccccccccccccccccccccccccccccccccc" /><path
         id="path55"
         style="fill:none;stroke:#000000;stroke-width:1px"
         d="m 157.78177,145.16223 2.09981,-1.23264 1.88841,-1.58828 1.92859,-2.00853 1.95178,-2.2912 3.96074,-4.78498 2.11321,-2.24746 2.08548,-1.77525 m -13.15796,20.81748 2.51259,-1.47496 2.48579,-2.09072 3.47156,-3.67565 m -6.78076,6.90713 -3.44407,-5.86697 m 10.27467,-0.32541 -5.17884,-4.41163"
         inkstitch:satin_column="true"
         transform="scale(0.264583, 0.264583)"
         sodipodi:nodetypes="cccccccccccccccc" /></g></g></svg>
