<?xml version="1.0" encoding="UTF-8" standalone="no"?>
<!-- Created with Inkscape (http://www.inkscape.org/) -->

<svg
   width="70mm"
   height="70mm"
   viewBox="0 0 70 70"
   version="1.1"
   id="svg1"
   xml:space="preserve"
   sodipodi:docname="Shrimp_2.svg"
   inkscape:version="1.3.2 (091e20e, 2023-11-25)"
   xmlns:inkscape="http://www.inkscape.org/namespaces/inkscape"
   xmlns:sodipodi="http://sodipodi.sourceforge.net/DTD/sodipodi-0.dtd"
   xmlns="http://www.w3.org/2000/svg"
   xmlns:svg="http://www.w3.org/2000/svg"
   xmlns:inkstitch="http://inkstitch.org/namespace"><sodipodi:namedview
     id="namedview1"
     pagecolor="#ffffff"
     bordercolor="#000000"
     borderopacity="0.25"
     inkscape:showpageshadow="2"
     inkscape:pageopacity="0.0"
     inkscape:pagecheckerboard="0"
     inkscape:deskcolor="#d1d1d1"
     inkscape:document-units="mm"
     inkscape:zoom="2.5265894"
     inkscape:cx="126.85084"
     inkscape:cy="145.84879"
     inkscape:window-width="1680"
     inkscape:window-height="924"
     inkscape:window-x="1800"
     inkscape:window-y="49"
     inkscape:window-maximized="0"
     inkscape:current-layer="layer1" /><metadata
     id="metadata1"><inkstitch:min_stitch_len_mm>0.1</inkstitch:min_stitch_len_mm><inkstitch:collapse_len_mm>3</inkstitch:collapse_len_mm><inkstitch:inkstitch_svg_version>2</inkstitch:inkstitch_svg_version></metadata><defs
     id="defs1" /><g
     inkscape:label="Ebene 1"
     inkscape:groupmode="layer"
     id="layer1"><g
       id="g56"
       transform="matrix(1.1436556,0,0,1.1436556,-4.954624,-7.7465314)"><path
         style="fill:#fc4747;fill-opacity:1;fill-rule:evenodd;stroke:none;stroke-width:0.177551;stroke-linecap:round;stroke-opacity:1"
         d="m 86.59654,121.83561 c -2.878684,-0.64625 -3.271261,-1.33314 -2.597574,-4.54496 0.716237,-3.41468 4.982336,-12.12149 7.866585,-16.05516 10.485809,-14.300979 26.691729,-24.99128 45.072489,-29.732246 7.29776,-1.882319 11.6317,-2.413999 19.26058,-2.362858 7.26583,0.04871 11.5238,0.655995 17.94502,2.559382 l 3.38215,1.002541 0.72834,3.202284 c 0.92291,4.057715 0.92331,10.579 8.8e-4,14.526185 -1.40501,6.012259 -7.17446,15.217412 -11.57497,18.467872 -1.21146,0.89485 -1.37395,0.90224 -3.99305,0.18155 -1.50162,-0.41319 -5.26697,-0.97524 -8.36745,-1.249 -8.05699,-0.7114 -10.72537,-1.30425 -10.31097,-2.29084 2.88713,-6.873622 3.40555,-17.868971 1.12527,-23.866547 -0.42009,-1.104911 -0.43053,-1.106321 -2.42977,-0.327898 -1.10433,0.429983 -2.07323,0.830386 -2.15312,0.889784 -0.0799,0.0594 0.21319,1.340963 0.65128,2.84792 1.63897,5.637865 0.83979,13.533503 -1.92135,18.982351 -2.49958,4.93268 -11.1423,12.519 -17.43047,15.29992 -5.71607,2.52792 -9.24719,3.0069 -21.78934,2.95567 -6.330155,-0.0259 -12.389194,-0.24454 -13.46453,-0.48595 z m 37.94553,-20.51057 c 1.19908,-1.07138 1.52096,-1.7765 1.71025,-3.746494 0.21963,-2.285677 0.13694,-2.522968 -1.42269,-4.082591 -1.38807,-1.388069 -1.98635,-1.655582 -3.69936,-1.65411 -2.59458,0.0022 -4.97411,1.403083 -5.35853,3.154622 -0.1577,0.718542 -0.36208,1.554916 -0.45418,1.858609 -0.0921,0.303694 0.0442,1.318824 0.30295,2.255846 0.96666,3.500948 6.06519,4.766278 8.92156,2.214118 z"
         id="path10"
         transform="scale(0.264583)"
         inkstitch:row_spacing_mm="0.2"
         inkstitch:angle="10"
         inkstitch:fill_underlay_angle="40 130" /><path
         style="fill:#fc4747;fill-opacity:1;fill-rule:evenodd;stroke:none;stroke-width:0.177551;stroke-linecap:round;stroke-opacity:1"
         d="m 177.54546,123.90191 c -1.05202,-3.24948 -2.72251,-6.0739 -5.18769,-8.77119 l -2.44736,-2.67781 2.36753,-2.43776 c 4.90972,-5.05535 8.00356,-10.213946 10.06732,-16.785983 0.95392,-3.037752 1.09882,-4.450448 1.09087,-10.635759 l -0.009,-7.132715 3.29756,1.72551 c 7.18202,3.758129 15.83865,11.347232 20.27118,17.771341 l 1.66479,2.4128 -1.19957,4.398866 c -3.92261,14.38434 -8.63034,19.13904 -22.30901,22.5316 -3.00563,0.74545 -5.81833,1.35702 -6.25045,1.35905 -0.4948,0.002 -0.99681,-0.64849 -1.356,-1.75795 z"
         id="path11"
         transform="scale(0.264583)"
         inkstitch:row_spacing_mm="0.2"
         inkstitch:angle="-40"
         inkstitch:fill_underlay_angle="-10 80" /><path
         style="fill:#fc4747;fill-opacity:1;fill-rule:evenodd;stroke:none;stroke-width:0.177551;stroke-linecap:round;stroke-opacity:1"
         d="m 188.143,142.29615 c -0.77512,-0.11095 -3.15334,-0.43246 -5.28492,-0.71447 l -3.8756,-0.51275 -0.006,-4.29686 c -0.004,-2.36327 -0.12547,-4.74034 -0.27099,-5.28238 -0.24323,-0.90602 0.0699,-1.05185 3.88202,-1.80775 13.23245,-2.62385 20.97204,-7.19164 24.97709,-14.74107 0.86346,-1.62759 2.25143,-4.99203 3.08438,-7.47654 l 1.51447,-4.51729 1.49358,3.72449 c 3.09141,7.7089 4.3168,14.11544 4.3168,22.56892 v 5.80268 l -2.4663,1.28378 c -4.3924,2.2864 -9.14539,4.30455 -11.94444,5.07172 -2.6627,0.7298 -12.56483,1.30616 -15.41967,0.89752 z"
         id="path12"
         transform="scale(0.264583)"
         inkstitch:row_spacing_mm="0.2"
         inkstitch:angle="-80"
         inkstitch:fill_underlay_angle="-110 -200" /><path
         style="fill:#fc4747;fill-opacity:1;fill-rule:evenodd;stroke:none;stroke-width:0.177551;stroke-linecap:round;stroke-opacity:1"
         d="m 194.71978,167.24768 c -5.39754,-1.18822 -10.01548,-3.48503 -15.80957,-7.86314 l -3.12578,-2.36189 0.82365,-2.40854 c 0.45301,-1.3247 1.09539,-3.85975 1.42751,-5.63344 l 0.60386,-3.2249 2.16804,0.27277 c 9.14016,1.14995 13.90222,1.36742 18.24811,0.83335 4.75849,-0.58479 11.15971,-2.49458 15.16611,-4.52477 l 2.36745,-1.19968 -0.31476,1.30613 c -0.8775,3.64133 -3.98369,10.13352 -6.91783,14.45886 -2.79071,4.11389 -9.61541,11.04885 -10.82816,11.0031 -0.5445,-0.0205 -2.25839,-0.31657 -3.80863,-0.65785 z"
         id="path13"
         transform="scale(0.264583)"
         inkstitch:row_spacing_mm="0.2"
         inkstitch:angle="-110"
         inkstitch:fill_underlay_angle="-140 -230" /><path
         style="fill:#fc4747;fill-opacity:1;fill-rule:evenodd;stroke:none;stroke-width:0.177551;stroke-linecap:round;stroke-opacity:1"
         d="m 137.45183,209.72826 c -1.83596,-0.54276 -4.37089,-3.07308 -5.00571,-4.99658 -0.37318,-1.13077 -0.37524,-2.22417 -0.007,-3.93935 0.95334,-4.44527 -0.18963,-6.42953 -5.09302,-8.84172 -3.70854,-1.8244 -5.03457,-3.31086 -4.25423,-4.76893 0.71745,-1.34057 4.95176,-2.80032 10.21492,-3.52153 12.48988,-1.71148 19.33805,-3.65363 25.74417,-7.30111 4.36541,-2.48555 10.06383,-7.73394 12.65048,-11.6514 1.03349,-1.56523 2.02478,-2.8517 2.20286,-2.85882 0.17808,-0.007 1.97495,1.18084 3.99305,2.63993 4.15933,3.00721 9.95128,5.8904 13.7676,6.85342 l 2.58203,0.65154 -2.34714,1.72351 c -3.38485,2.4855 -12.40154,6.81763 -21.60771,10.38157 -4.39236,1.70039 -9.1025,3.6524 -10.46698,4.33779 -3.47808,1.74709 -6.78669,5.18773 -11.51164,11.97101 -4.21462,6.05063 -6.93758,9.06862 -8.55645,9.48351 -0.51675,0.13243 -1.55392,0.0592 -2.30483,-0.16284 z"
         id="path14"
         transform="scale(0.264583)"
         inkstitch:row_spacing_mm="0.2"
         inkstitch:angle="-150"
         inkstitch:fill_underlay_angle="-180 -300" /></g><g
       id="centerline_group_4041"
       inkscape:label="path15 center line"
       style="display:none"><path
         id="path2933"
         style="fill:none;stroke:#8bfbf6;stroke-width:1px"
         d="m 187.34314,209.0122 -1.62065,-1.59165 -1.20131,-1.67688 -0.66919,-1.78032 0.0184,-1.8455 0.72507,-1.61485 1.14885,-1.20902 1.35385,-0.88816 1.52182,-0.69776 3.20214,-0.96557 3.37886,-0.65576 5.52311,-0.77348 m -10.46784,10.73275 -1.36375,-1.33935 -0.67249,-0.93872 -0.20301,-0.54008 0.002,-0.1997 0.0787,-0.17535 0.32915,-0.34638 0.68935,-0.45224 0.97718,-0.44804 2.72746,-0.82243 3.06494,-0.59484 5.41489,-0.75832 m -11.39563,5.68782 -3.49575,3.55944 m 4.71535,-6.94839 -1.44031,-4.77655"
         inkstitch:satin_column="true"
         transform="scale(0.264583)" /><path
         id="path68"
         style="fill:none;stroke:#8bfbf6;stroke-width:1px"
         d="m 199.25219,191.5999 0.0847,-1.01254 -0.0791,-0.47524 -0.13994,-0.2793 -0.24376,-0.2555 -0.44882,-0.28557 -0.65233,-0.27144 -2.00976,-0.50334 -2.39591,-0.42064 -2.51111,-0.55288 -1.30777,-0.44626 -1.24946,-0.62039 -1.16209,-0.8826 -0.77787,-0.97322 m 17.03631,7.32536 0.12793,-1.52986 -0.26745,-1.60596 -0.69987,-1.3969 -1.02304,-1.0723 -1.17878,-0.75003 -1.27026,-0.52856 -2.45504,-0.61486 -2.45469,-0.43096 -2.19609,-0.48352 -0.82683,-0.28214 -0.65094,-0.32321 -0.43792,-0.3326 -0.45573,-0.57018 m 14.23226,9.60603 -4.97163,-0.41574 m -3.03451,-7.32955 -0.8627,4.91382 m -4.92911,-6.89707 -3.89712,3.11486"
         inkstitch:satin_column="true"
         transform="scale(0.264583)"
         sodipodi:nodetypes="cccccccccccccccccccccccccccccccccc" /><path
         id="path8844"
         style="fill:none;stroke:#8bfbf6;stroke-width:1px"
         d="m 152.28011,211.71062 1.73979,-2.49755 1.92982,-2.43161 2.07359,-2.30445 2.20879,-2.16956 2.33555,-2.02682 2.4538,-1.87644 2.56366,-1.71798 2.66497,-1.5517 2.75806,-1.37714 2.84255,-1.19438 2.91852,-1.00318 2.98569,-0.80357 3.044,-0.59537 3.09319,-0.37862 3.13285,-0.15329 3.08106,0.0785 1.76226,0.0392 m -40.17677,24.34031 1.66561,-2.39105 1.76918,-2.22919 1.90181,-2.11355 2.02581,-1.98984 2.14145,-1.85838 2.2484,-1.71936 2.34674,-1.57262 2.43623,-1.4185 2.51714,-1.25686 2.58945,-1.08802 2.65328,-0.91202 2.70871,-0.72903 2.756,-0.53903 2.79541,-0.34218 2.82695,-0.13831 2.93314,0.0747 1.76894,0.0394 m -39.46194,20.01786 -4.09366,-2.85165 m 10.05557,-4.35886 -3.49599,-3.5592 m 9.97757,-1.74544 -2.77732,-4.14445 m 10.1225,0.15634 -1.93258,-4.59946 m 9.88929,2.14716 -0.95763,-4.8962 m 10.19802,4.19239 0.12704,-4.98736"
         inkstitch:satin_column="true"
         transform="scale(0.264583)" /><path
         id="path2531"
         style="fill:none;stroke:#8bfbf6;stroke-width:1px"
         d="m 148.93818,214.74222 3.96328,0.24811 3.92094,-0.20705 3.97117,-0.62901 3.97951,-1.02389 3.94485,-1.39034 3.86738,-1.72613 3.74667,-2.03039 3.64793,-2.3433 m -31.30149,13.25136 4.20272,0.26309 4.37726,-0.23115 4.38023,-0.69379 4.34569,-1.11811 4.27435,-1.50646 4.16702,-1.85987 4.02313,-2.18021 3.77807,-2.4269 m -31.17394,10.31861 0.31171,-4.97923 m 8.44211,4.46325 -0.78048,-4.92755 m 8.86286,2.86783 -1.65834,-4.70529 m 9.88409,1.12694 -2.37702,-4.3863"
         inkstitch:satin_column="true"
         transform="scale(0.264583)" /><path
         id="path9928"
         style="fill:none;stroke:#8bfbf6;stroke-width:1px"
         d="m 204.96576,189.9931 0.41696,-2.39527 0.26984,-2.43383 0.30907,-2.4817 0.54612,-2.35734 0.49554,-1.21148 0.68799,-1.11127 0.95022,-0.98006 1.21236,-0.74425 1.40971,-0.43559 1.54458,-0.12675 1.67142,0.15112 1.73037,0.38713 m -7.1483,14.45229 0.43904,-2.52213 0.28096,-2.53397 0.27893,-2.2397 0.42188,-1.82106 0.23786,-0.58152 0.26901,-0.43453 0.27298,-0.28154 0.31984,-0.19635 0.47449,-0.14661 0.73422,-0.0602 1.04498,0.0945 1.46643,0.32807 m -5.54851,8.84342 -4.91506,-0.85559 m 6.10382,-6.73618 -4.61762,-1.88877"
         inkstitch:satin_column="true"
         transform="scale(0.264583)" /><path
         id="path6645"
         style="fill:none;stroke:#8bfbf6;stroke-width:1px"
         d="m 199.27521,174.30473 5.57596,-1.80339 4.3732,-1.61669 1.89274,-0.91064 1.9006,-1.12232 1.40695,-1.00104 -0.61003,-0.22388 -1.51239,-0.29236 -2.39793,-0.12845 m -9.34972,11.05451 5.65764,-1.82981 4.6378,-1.71451 2.22886,-1.07236 2.20501,-1.30208 2.26923,-1.61454 5.1488,-4.26738 -7.76936,-2.85136 -2.12221,-0.41024 -2.68367,-0.14375 m -5.17921,14.22222 -1.53525,-4.74688 m 10.60216,1.04441 -2.53677,-4.29589"
         inkstitch:satin_column="true"
         transform="scale(0.264583)"
         sodipodi:nodetypes="ccccccccccccccccccccccc" /><path
         id="path3805"
         style="fill:none;stroke:#8bfbf6;stroke-width:1px"
         d="m 217.08633,156.97569 0.29267,0.2014 0.001,4.5e-4 0.65492,0.0183 0.99683,-0.24373 1.32056,-0.51451 3.06073,-1.31387 1.73987,-0.51831 1.4956,-0.0866 m -11.91929,5.88171 0.73413,0.5052 1.13315,0.40894 1.88189,0.0527 1.80717,-0.44186 1.64183,-0.63969 2.90387,-1.24653 1.04494,-0.31129 1.01259,-0.0586 m -11.03668,2.81867 1.69358,-4.69273 m 7.79407,2.52629 -1.42437,-4.78133"
         inkstitch:satin_column="true"
         transform="scale(0.264583)"
         sodipodi:nodetypes="cccccccccccccccccccccc" /><path
         id="path4355"
         style="fill:none;stroke:#8bfbf6;stroke-width:1px"
         d="m 222.54957,149.50395 1.71048,-1.19304 0.32278,-0.35357 0.18272,-0.29778 0.0605,-0.17872 -0.11389,-0.38228 -0.35497,-0.42207 -0.70623,-0.44878 -0.93397,-0.30344 -1.27181,-0.0875 m 3.48278,7.07715 2.09031,-1.45797 0.90143,-0.98742 0.63387,-1.03303 0.37892,-1.11926 0.10034,-1.27605 -0.58287,-1.95648 -1.32284,-1.57293 -1.69077,-1.07442 -1.92243,-0.62457 -1.78338,-0.12269 m 4.8485,10.5801 -2.85408,-4.09196"
         inkstitch:satin_column="true"
         transform="scale(0.264583)"
         sodipodi:nodetypes="ccccccccccccccccccccccc" /><path
         id="path3685"
         style="fill:none;stroke:#8bfbf6;stroke-width:1px"
         d="m 231.66437,138.73036 -2.77318,-0.3692 -1.89888,-0.54323 -1.60572,-0.45949 -2.47128,-0.32909 m 9.29772,-2.42011 -2.47122,-0.329 -1.60579,-0.45939 -1.89861,-0.54329 -2.77332,-0.36931 m 6.58936,0.99406 -0.65838,4.94535"
         inkstitch:satin_column="true"
         transform="scale(0.264583)" /><path
         id="path9803"
         style="fill:none;stroke:#8bfbf6;stroke-width:1px"
         d="m 224.13716,117.64413 1.08598,0.0473 1.23625,0.45223 0.97878,0.75728 0.73313,0.94049 0.79551,1.74613 0.52308,1.75574 0.4412,1.48055 0.4732,1.03882 0.11056,0.1418 0.0552,0.0427 0.0261,0.01 0.44321,0.0194 m -7.0832,-4.27847 0.44302,0.0193 0.0262,0.01 0.0552,0.0427 0.11047,0.14171 0.47329,1.03887 0.4411,1.48059 0.52322,1.75572 0.7954,1.74618 0.73324,0.9404 0.97876,0.75745 1.23626,0.45204 1.08559,0.0474 m -6.80001,-8.01142 0.2171,-4.98425 m 1.82843,10.21926 4.54015,-2.06809"
         inkstitch:satin_column="true"
         transform="scale(0.264583)" /><path
         id="path2909"
         style="fill:none;stroke:#8bfbf6;stroke-width:1px"
         d="m 227.559,117.32763 -0.75266,-0.79965 -0.85811,-0.59637 -2.30041,-1.47083 -1.22619,-1.38321 -0.62962,-1.9536 0.23772,-2.24723 0.92836,-2.31698 m 7.62831,7.91841 -1.05054,-1.11615 -1.28069,-0.89003 -1.88019,-1.20217 -0.26381,-0.29759 -0.0922,-0.286 0.0845,-0.79857 0.71384,-1.78162 m 3.53749,5.51947 -3.63288,3.41936 m -0.14004,-7.23342 -4.63107,-1.85555"
         inkstitch:satin_column="true"
         transform="scale(0.264583)" /><path
         id="path5142"
         style="fill:none;stroke:#8bfbf6;stroke-width:1px"
         d="m 216.34977,99.90836 1.71014,-0.981866 1.36807,-1.037858 0.9758,-1.026618 0.52706,-0.917044 0.0456,-0.175431 0.002,-0.141291 -0.0253,-0.0969 -0.0904,-0.153488 -0.25492,-0.25816 -0.50613,-0.340322 -0.80101,-0.374516 -1.18287,-0.390322 -1.46129,-0.448605 -1.39783,-0.711383 -1.9102,-1.398582 -1.59321,-1.067323 -0.68958,-0.264757 -1.12522,-0.186398 m 8.47885,13.576344 1.94086,-1.11433 1.84853,-1.40235 1.551,-1.631775 1.05394,-1.833756 0.31043,-1.195169 0.0211,-1.205309 -0.31534,-1.209697 -0.64642,-1.097712 -0.91008,-0.92164 -1.11907,-0.752478 -1.31639,-0.615484 -1.45853,-0.481278 -1.15831,-0.355595 -0.77737,-0.395617 -1.7092,-1.251418 -2.05319,-1.375477 -1.51962,-0.583443 -1.54178,-0.255402 m 8.84787,17.55536 -2.48408,-4.32657 m 8.41819,-4.597055 -4.82765,1.258454 m -3.67782,-7.340418 -2.94724,4.025376"
         inkstitch:satin_column="true"
         transform="scale(0.264583)" /><path
         id="path112"
         style="fill:none;stroke:#8bfbf6;stroke-width:1px"
         d="m 199.29444,79.961099 0.92495,-0.746143 1.26098,-0.575471 1.29669,-0.273505 1.32245,-0.04821 2.40753,0.313725 2.42879,0.579703 2.36215,0.584651 2.22539,0.381227 2.06937,0.01506 0.82859,-0.150097 0.99029,-0.346131 m -15.50686,3.501062 0.51725,-0.417257 0.36622,-0.16713 0.49731,-0.104894 0.61975,-0.02259 1.84848,0.240875 2.20001,0.525098 2.49264,0.616948 2.70841,0.463973 2.79643,0.02035 1.53302,-0.277704 1.2991,-0.454068 m -15.95376,-0.569873 -2.0713,-4.538678 m 8.57288,5.508272 1.19864,-4.842846 m 8.0493,4.954925 -1.64612,-4.709586"
         inkstitch:satin_column="true"
         transform="scale(0.264583)"
         sodipodi:nodetypes="cccccccccccccccccccccccccccccc" /><path
         id="path9311"
         style="fill:none;stroke:#8bfbf6;stroke-width:1px"
         d="m 197.54692,73.311663 4.22796,-0.215826 3.45643,-0.05724 1.39188,-0.165633 1.318,-0.345224 1.34658,-0.605027 1.60281,-1.061524 m -13.1317,6.602546 4.15644,-0.212174 3.59677,-0.05956 1.88712,-0.224567 1.9302,-0.505576 1.97142,-0.885773 1.88539,-1.248676 m -11.96859,3.376058 -0.25434,-4.98249 m 9.39485,3.734452 -2.04468,-4.550735"
         inkstitch:satin_column="true"
         transform="scale(0.264583)" /><path
         id="path8120"
         style="fill:none;stroke:#8bfbf6;stroke-width:1px"
         d="m 180.83191,62.313506 1.60789,1.29206 1.48543,1.009102 1.42865,0.805066 1.3435,0.6142 2.69121,0.860544 2.54944,0.452377 5.06058,0.453294 2.56178,0.409027 2.34683,0.792964 m -23.67953,-3.447846 1.73791,1.39654 1.76717,1.200498 1.73295,0.976534 1.7289,0.7904 3.19319,1.021056 3.00056,0.532423 5.09642,0.456506 2.07542,0.331373 2.01617,0.681236 m -21.88346,-6.479376 3.12506,-3.888946 m 4.53772,8.15348 1.51949,-4.751952 m 7.4811,6.270514 0.4451,-4.969082"
         inkstitch:satin_column="true"
         transform="scale(0.264583)" /><path
         id="path6934"
         style="fill:none;stroke:#8bfbf6;stroke-width:1px"
         d="m 165.65964,64.397521 0.39354,-1.553139 0.57726,-1.443157 0.75407,-1.236217 0.94461,-1.009907 1.11589,-0.738837 1.21803,-0.434666 1.23638,-0.147152 1.26634,0.09149 2.16325,0.642179 2.06505,1.086636 1.88178,1.326072 1.60538,1.373575 m -11.19146,3.064277 0.32586,-1.286061 0.34554,-0.863843 0.35073,-0.574983 0.31979,-0.341893 0.28691,-0.189963 0.30077,-0.107334 0.37682,-0.04485 0.41946,0.03031 1.33875,0.397421 1.46515,0.770964 1.50182,1.058328 1.45702,1.246625 m -7.92935,-0.609272 -4.83615,-1.225389 m 8.70271,-0.581395 2.32321,-4.415043"
         inkstitch:satin_column="true"
         transform="scale(0.264583)" /><path
         id="path4357"
         style="fill:none;stroke:#8bfbf6;stroke-width:1px"
         d="m 188.46613,53.676526 -2.28376,-0.245228 -2.08854,-0.612299 -1.7561,-0.811396 -1.5012,-0.850352 -1.35164,-0.765409 -1.3208,-0.610012 -1.43676,-0.420562 -1.91433,-0.204749 m 14.09701,0.38629 -1.91445,-0.205572 -1.43705,-0.421302 -1.3211,-0.610403 -1.35189,-0.765782 -1.50148,-0.850257 -1.75639,-0.811188 -2.08884,-0.611438 -2.28367,-0.244251 m 12.39594,3.966872 -0.53265,4.960461 m -6.265,-7.963464 -2.09182,4.529254"
         inkstitch:satin_column="true"
         transform="scale(0.264583)"
         sodipodi:nodetypes="cccccccccccccccccccccc" /><path
         id="path2257"
         style="fill:none;stroke:#8bfbf6;stroke-width:1px"
         d="m 134.51168,226.14747 -0.3914,-1.82082 -0.57221,-1.46245 -0.76578,-1.28978 -0.94731,-1.1411 -1.11927,-1.00615 -1.27806,-0.87619 -1.41824,-0.74668 -1.53455,-0.61655 -1.62323,-0.48674 -1.64738,-0.35133 -3.45564,-0.35367 -3.27262,0.10069 -2.86946,0.48342 -1.09561,0.37533 -1.45212,0.28881 -2.65827,0.14171 -4.46754,-0.25268 -1.39666,0.0797 -0.0874,0.0267 -10e-4,0.005 0.0114,0.52429 0.21391,1.07554 m 35.89341,6.42902 -0.462,-2.14918 -0.81819,-2.09115 -1.10602,-1.86282 -1.35009,-1.6263 -1.54813,-1.39165 -1.70314,-1.16761 -1.82136,-0.95892 -1.90765,-0.76645 -1.96577,-0.58946 -2.03262,-0.43347 -3.95436,-0.40473 -3.83218,0.11791 -3.48414,0.58698 -1.15379,0.39527 -0.88688,0.17639 -2.13273,0.11369 -4.47526,-0.25312 -2.13134,0.12155 -1.2228,0.37322 -1.127999,0.74524 -0.822751,1.17783 -0.348136,1.38957 0.03142,1.44671 0.284891,1.43246 m 39.586425,2.52566 -4.64601,1.81782 m -2.78726,-9.92114 -2.32418,4.41453 m -5.91742,-6.81137 -0.50796,4.96305 m -10.40218,-4.20974 1.61688,4.7197"
         inkstitch:satin_column="true"
         transform="scale(0.264583)" /><path
         id="path7533"
         style="fill:none;stroke:#8bfbf6;stroke-width:0.264583px"
         d="m 33.039505,40.112587 0.182875,-0.337888 0.321909,-0.288385 0.33177,-0.176992 0.28812,-0.112609 0.445787,-0.193522 0.08564,-0.06811 0.105095,-0.162829 m -0.793802,1.863913 0.09187,-0.169741 0.08052,-0.07214 0.157444,-0.08399 0.246814,-0.09646 0.597517,-0.259391 0.340705,-0.270932 0.203144,-0.314743 m -1.535657,1.161568 -1.160878,-0.628299"
         inkstitch:satin_column="true" /><path
         id="path7356"
         style="fill:none;stroke:#8bfbf6;stroke-width:1px"
         d="m 128.06175,153.89854 1.89382,1.15132 1.74026,0.77547 1.71738,0.51829 1.71963,0.30647 1.74284,0.13271 1.76358,-0.006 3.74247,-0.28085 3.91716,-0.35338 4.10603,-0.0405 2.2083,0.23596 2.23049,0.47462 2.27259,0.76794 2.39396,1.15088 2.72307,2.1508 0.88768,0.95155 0.66838,1.18838 -4.5e-4,1.65739 -1.01309,1.23971 -1.4652,0.64356 -1.0759,0.37616 -0.51445,0.32814 0.0129,0.31969 0.25608,0.90087 m -34.08728,-11.03696 2.11978,1.28868 2.22154,0.98993 2.20122,0.66431 2.16437,0.38573 2.11536,0.16109 2.07742,-0.007 3.92233,-0.29435 3.78244,-0.34122 3.69737,-0.0365 1.7541,0.18744 1.78391,0.37958 1.80241,0.60906 1.75004,0.84132 1.12655,0.8898 -0.0144,0.005 -1.65725,1.05707 -0.82535,1.16538 -0.38471,1.37004 0.06,1.48208 0.39112,1.37593 m -27.2913,-10.12814 2.03064,-4.55702 m 7.28103,6.41277 -0.0161,-4.98895 m 9.8839,4.33731 -0.0492,-4.98874 m 8.12574,6.38482 2.1616,-4.49637"
         inkstitch:satin_column="true"
         transform="scale(0.264583)" /><path
         id="path6850"
         style="fill:none;stroke:#8bfbf6;stroke-width:1px"
         d="m 110.60193,139.6529 2.55201,-0.71385 2.67195,-0.5807 2.72337,-0.40657 2.75885,-0.20511 2.77739,0.0248 2.77746,0.28382 2.75665,0.57282 2.593,0.85172 m -20.49074,4.17683 2.43439,-0.68095 2.41885,-0.5257 2.43583,-0.36363 2.43295,-0.18089 2.41121,0.0216 2.37194,0.24238 2.31755,0.48158 2.3706,0.77868 m -17.67975,0.2353 -1.34393,-4.80456 m 8.62332,3.53103 -0.3699,-4.97525 m 7.32317,5.43574 1.01501,-4.88463"
         inkstitch:satin_column="true"
         transform="scale(0.264583)" /><path
         id="path9553"
         style="fill:none;stroke:#8bfbf6;stroke-width:1px"
         d="m 97.780867,159.85584 1.374797,-1.02426 1.711466,-0.90639 3.50164,-1.23523 3.6082,-0.92182 3.37957,-0.91106 1.44165,-0.50947 1.25255,-0.58174 1.01028,-0.65116 0.75992,-0.7207 0.54049,-0.82226 0.35131,-1.02024 0.13165,-1.34559 -0.18646,-1.91686 m -16.3932,15.9007 1.11881,-0.83354 1.15713,-0.61281 3.03656,-1.07117 3.4554,-0.88278 3.55943,-0.95954 1.77795,-0.62833 1.69205,-0.78586 1.57792,-1.01704 1.39088,-1.3191 1.09151,-1.66054 0.68049,-1.97616 0.21875,-2.23581 -0.22574,-2.32054 m -20.06436,16.47391 -2.980641,-4.00071 m 9.053941,1.42798 -1.23492,-4.83372 m 9.49796,2.38188 -2.1015,-4.52477 m 8.36486,-3.49885 -4.96527,-0.4858"
         inkstitch:satin_column="true"
         transform="scale(0.264583)" /><path
         id="path5429"
         style="fill:none;stroke:#8bfbf6;stroke-width:1px"
         d="m 103.58216,161.38575 1.29156,0.26444 2.37558,0.55638 2.35978,0.33556 2.36038,0.159 2.36518,0.026 4.85555,-0.16588 4.94563,-0.12909 2.57683,0.0812 2.61862,0.2528 2.67278,0.4824 2.72249,0.7679 2.76461,1.10555 2.63224,1.40099 1.82716,0.80133 1.72317,0.88733 1.49076,0.7398 1.31387,0.48846 1.23191,0.19813 1.34708,-0.12925 1.69213,-0.60448 2.29143,-1.3637 m -54.892264,-4.13187 2.763274,1.28078 2.81257,0.96143 2.75662,0.64562 2.69502,0.38324 2.63062,0.1772 2.57602,0.0284 4.93265,-0.16852 4.80917,-0.12551 2.32257,0.0732 2.31418,0.2234 2.30702,0.4164 2.31831,0.6539 2.35079,0.94005 2.57176,1.36881 1.85304,0.81267 1.63563,0.84227 1.71364,0.8504 1.90213,0.70714 2.16289,0.34787 2.39252,-0.22955 2.55947,-0.91432 2.63857,-1.5703 m -51.45051,-5.03635 1.61372,-4.72079 m 8.10389,5.93457 0.0549,-4.98867 m 8.08941,4.77165 -0.13017,-4.98728 m 8.22206,5.38808 0.88613,-4.90965 m 6.4851,7.49858 2.34402,-4.40403 m 6.82375,8.36927 0.79222,-4.92567"
         inkstitch:satin_column="true"
         transform="scale(0.264583)"
         sodipodi:nodetypes="ccccccccccccccccccccccccccccccccccccccccccccccccccccccccc" /><path
         id="path9129"
         style="fill:none;stroke:#8bfbf6;stroke-width:1px"
         d="m 160.24311,153.76223 -6.76384,0.95261 -2.62701,0.12654 -1.32331,-0.13609 -1.2543,-0.32811 -1.19166,-0.56386 -1.08183,-0.79936 -0.95383,-1.00576 -0.87204,-1.22528 -1.5074,-2.93173 -1.69408,-4.34103 0.16142,-2.90365 -0.17664,-1.94701 -0.44893,-1.51464 -0.67318,-1.10362 -0.91491,-0.79508 -1.29739,-0.55984 -1.83364,-0.27211 -2.73543,0.13834 -1.04015,-0.0974 -1.0429,0.0339 -2.95289,0.34616 -3.51343,0.51068 -3.73961,0.41105 -3.60386,0.0175 -1.79043,-0.26525 -1.67205,-0.54156 -1.53041,-0.94833 -1.20036,-1.44316 -0.65149,-1.84316 -0.0624,-1.83677 m 49.40813,20.74912 -6.57476,0.92599 -2.12299,0.10226 -0.69349,-0.0713 -0.5699,-0.14909 -0.47454,-0.22454 -0.46157,-0.34104 -0.50097,-0.52824 -0.52916,-0.74352 -1.2728,-2.47547 -1.28812,-3.30077 0.12818,-2.30595 -0.24136,-2.66039 -0.72027,-2.43016 -1.29142,-2.11718 -1.88869,-1.64132 -2.38921,-1.03096 -2.77956,-0.41249 -2.84837,0.14406 -1.00265,-0.0939 -1.4797,0.0481 -3.18391,0.37324 -3.49857,0.50852 -3.45119,0.37935 -3.06974,0.0149 -1.13497,-0.16815 -0.86275,-0.27944 -0.52719,-0.32667 -0.29264,-0.35184 -0.19011,-0.53784 -0.0406,-1.19643 m 41.38917,21.01456 0.69577,4.94022 m -6.85659,-4.74672 -2.13382,4.50962 m -1.82958,-13.14092 -4.98129,-0.27691 m -1.05148,-10.47862 -1.97661,4.5807 m -12.06763,-4.59122 0.71762,4.9371 m -9.55224,-4.41069 -0.73114,4.93511"
         inkstitch:satin_column="true"
         transform="scale(0.264583)" /><path
         id="path144"
         style="fill:none;stroke:#8bfbf6;stroke-width:1px"
         d="m 98.135124,75.184443 6.345786,-3.193561 4.9849,-2.370352 5.13887,-1.997455 6.70155,-2.048514 m -21.30215,13.323596 6.30421,-3.172639 4.8055,-2.285048 4.85353,-1.886545 6.55425,-2.003486 m -17.01558,7.044268 -2.24274,-4.456456 m 8.98769,1.306263 -1.80745,-4.650053"
         inkstitch:satin_column="true"
         transform="scale(0.264583)" /><path
         id="path3964"
         style="fill:none;stroke:#8bfbf6;stroke-width:1px"
         d="m 100.84733,78.118718 -0.74639,1.231541 -1.017324,1.100932 -1.177428,0.793182 -1.270219,0.458468 -1.27281,0.138913 -1.288902,-0.134609 -2.017015,-0.773237 -1.678412,-1.288139 -1.119416,-1.572456 -0.352019,-1.179752 0.08301,-1.33336 0.778111,-1.253256 0.898592,-0.512256 m 6.624756,2.169193 -0.529009,0.872859 -0.403875,0.437068 -0.348572,0.234818 -0.318981,0.115132 -0.33799,0.03689 -0.302498,-0.03159 -0.941585,-0.360963 -0.680197,-0.522035 m 3.198697,-0.488697 4.266556,2.585804"
         inkstitch:satin_column="true"
         transform="scale(0.264583)" /><path
         id="path9057"
         style="fill:none;stroke:#8bfbf6;stroke-width:1px"
         d="m 94.839655,88.716481 -1.820571,0.275255 -1.850867,0.03087 -1.749778,-0.230035 -1.631405,-0.484296 -1.49216,-0.722988 -1.334604,-0.936712 -1.167005,-1.119777 -0.99846,-1.272789 -0.835116,-1.399737 -0.700209,-1.549818 -0.912342,-3.214086 -0.393345,-3.520429 0.121152,-4.048339 1.450491,-2.605069 1.634425,-1.835439 1.897425,-1.337337 2.055863,-0.881951 2.129831,-0.516554 2.179967,-0.256158 4.25115,-0.07121 4.183913,0.01653 1.92366,-0.112983 1.79836,-0.263685 1.63502,-0.45385 1.46475,-0.680303 1.31443,-0.958755 1.35117,-1.502558 2.77756,-2.906339 2.7221,-3.143418 2.84238,-3.258196 3.03425,-3.117337 1.66294,-1.468399 1.74688,-1.335156 1.86284,-1.181094 1.99226,-0.989206 2.13067,-0.755961 2.27004,-0.481389 2.40385,-0.169894 2.20595,0.14924 6.74995,-0.762419 6.94279,-0.617248 6.85666,-0.695495 6.8282,-1.030058 m -70.156575,47.303803 -1.546029,0.233745 -1.266333,0.02112 -1.119422,-0.147165 -0.991395,-0.294304 -0.88584,-0.429212 -0.799996,-0.561488 -0.725795,-0.696423 -0.65394,-0.833611 -0.578284,-0.969263 -0.476191,-1.053982 -0.734258,-2.586714 -0.322455,-2.885971 0.08205,-2.741661 0.734709,-1.319531 1.011375,-1.135761 1.150175,-0.810663 1.335337,-0.572849 1.546369,-0.375046 1.722833,-0.202442 3.99965,-0.06699 4.271087,0.01687 2.234138,-0.131217 2.23504,-0.327715 2.21538,-0.61495 2.14425,-0.995897 1.99457,-1.454845 1.59943,-1.778642 2.80444,-2.934461 2.7839,-3.214782 2.76282,-3.167004 2.84555,-2.923463 1.43486,-1.267001 1.48532,-1.135244 1.52596,-0.967506 1.57454,-0.781794 1.63653,-0.580639 1.71936,-0.364611 1.82955,-0.129306 2.29345,0.15516 7.07365,-0.798981 6.91921,-0.615152 6.98294,-0.708305 6.9282,-1.045142 m -77.479849,41.349061 -3.454146,3.599828 m 1.667679,-16.28655 -3.725859,-3.317811 m 13.860524,0.836491 0.01971,-4.988939 m 13.941831,2.287201 -2.93999,-4.030674 m 10.64567,-3.961999 -3.77142,-3.265929 m 10.73081,-4.220941 -3.3022,-3.739697 m 9.41493,-0.08338 -1.66819,-4.701809 m 13.87944,3.464706 -0.55995,-4.957453 m 9.87998,4.08271 -0.50347,-4.963508 m 12.26592,3.484871 -0.74418,-4.933161"
         inkstitch:satin_column="true"
         transform="scale(0.264583)" /><path
         id="path1672"
         style="fill:none;stroke:#8bfbf6;stroke-width:1px"
         d="m 205.16452,67.424655 -2.81665,-0.129243 -2.64732,-0.370524 -2.41481,-0.579115 -2.20672,-0.75482 -2.02484,-0.893229 -1.88707,-1.000183 -3.39091,-2.110428 -3.25129,-2.109408 -3.427,-1.902216 -1.81895,-0.79084 -2.00599,-0.684547 -2.21541,-0.545568 -2.56059,-0.39488 m 32.85811,8.111891 -2.62295,-0.120357 -2.25688,-0.315876 -2.02939,-0.486685 -1.85228,-0.63358 -1.72456,-0.760771 -1.62753,-0.862617 -3.23529,-2.013572 -3.33851,-2.165992 -3.7278,-2.069184 -2.15825,-0.93836 -2.33801,-0.797853 -2.57059,-0.633032 -2.74241,-0.42292 m 31.18865,11.757085 -0.22868,4.983733 m -8.09925,-6.796589 -2.0136,4.56457 m -5.23086,-8.794069 -2.71537,4.185288 m -6.24282,-8.824344 -1.61126,4.721622"
         inkstitch:satin_column="true"
         transform="scale(0.264583)" /><path
         id="path8180"
         style="fill:none;stroke:#8bfbf6;stroke-width:1px"
         d="m 126.9349,53.663013 4.66505,-0.75288 5.1283,-1.26042 11.28573,-3.054133 5.80693,-1.241878 2.91304,-0.431654 2.86082,-0.24944 2.81101,-0.02948 2.74508,0.234848 2.65835,0.54768 2.64552,0.948513 2.02796,1.421367 m -44.88539,7.97185 4.83135,-0.77972 5.3389,-1.31218 11.22487,-3.037667 5.56867,-1.190922 2.65856,-0.393946 2.57778,-0.22476 2.45259,-0.02572 2.30212,0.196952 2.13045,0.43892 1.84328,0.660887 1.57064,1.100833 m -39.74304,4.543639 -0.79487,-4.925248 m 10.33166,2.713289 -1.30323,-4.815753 m 12.59841,1.877979 -1.04336,-4.878658 m 8.34338,3.644599 -0.43335,-4.97012 m 7.39556,5.218612 1.0067,-4.886353"
         inkstitch:satin_column="true"
         transform="scale(0.264583)" /><path
         id="path7085"
         style="fill:none;stroke:#8bfbf6;stroke-width:1px"
         d="m 159.03866,62.225632 -3.82135,-0.0111 -4.90882,0.314525 -11.81521,0.922706 -6.15439,0.248992 -5.80025,-0.140333 -2.72297,-0.284247 -2.51214,-0.464938 -2.29769,-0.694 -1.84471,-0.891337 m 41.88961,-3.157734 -3.96045,-0.0115 -5.07658,0.325275 -11.76639,0.918894 -5.94221,0.240408 -5.49995,-0.133067 -2.39443,-0.249953 -2.12486,-0.393262 -1.76531,-0.5332 -1.55069,-0.749263 m 38.42753,0.165119 -0.0145,4.988956 m -17.10633,-3.911228 0.38843,4.973833 m -10.46281,-4.624683 -0.12067,4.987517 m -8.23428,-5.863829 -1.44253,4.775879"
         inkstitch:satin_column="true"
         transform="scale(0.264583)" /><path
         id="path8106"
         style="fill:none;stroke:#8bfbf6;stroke-width:1px"
         d="m 97.923577,39.103095 2.605873,0.344545 2.53091,0.166655 2.53061,0.01241 2.50967,-0.126672 5.10267,-0.623359 5.09066,-1.01015 5.10908,-1.281925 5.13932,-1.433849 10.2578,-2.783728 m -41.421547,10.857685 2.741327,0.362455 2.79349,0.183945 2.77219,0.01359 2.77233,-0.139928 5.40293,-0.660041 5.34414,-1.06045 5.26272,-1.320475 5.17768,-1.444551 10.2436,-2.779872 m -42.142625,7.313319 0.653944,-4.945932 m 8.716651,5.381962 -0.25149,-4.982634 m 9.05257,3.854275 -0.97104,-4.893564 m 11.5086,2.374011 -1.3407,-4.805456"
         inkstitch:satin_column="true"
         transform="scale(0.264583)" /><path
         id="path7642"
         style="fill:none;stroke:#8bfbf6;stroke-width:1px"
         d="m 77.945647,186.74515 -1.429168,2.12432 -0.741381,1.66376 -0.250118,1.30141 0.09461,1.00162 0.359996,0.84874 0.657368,0.80963 0.998225,0.77917 1.324914,0.70778 1.597578,0.60122 1.802449,0.47554 1.938922,0.3429 1.977199,0.20729 3.990358,0.043 3.719735,-0.43695 2.866675,-0.0387 3.475931,0.1002 3.81365,0.31778 3.82722,0.62452 3.47856,1.03252 1.62447,0.7734 1.41894,0.97803 1.17811,1.28634 0.76493,1.63812 0.15845,1.86736 -0.65696,2.68604 -2.81397,1.12143 -1.9624,0.52254 -1.96163,0.3102 -1.97251,0.14201 -3.78439,-0.0657 -3.704091,-0.27646 -3.536751,-0.21517 -3.369341,0.0867 -1.529081,0.21425 -1.495307,0.36726 -1.43626,0.53964 -1.51482,0.80878 m -12.359604,-27.61119 -1.630432,2.42348 -1.083019,2.43044 -0.452682,2.35539 0.210992,2.23378 0.840604,1.98186 1.325232,1.63217 1.652975,1.29023 1.881286,1.00502 2.050822,0.77178 2.174351,0.57366 2.253278,0.3985 2.317001,0.24291 4.451042,0.048 3.770065,-0.44285 2.563525,-0.0346 3.275065,0.0944 3.53815,0.29482 3.40538,0.55568 2.91444,0.86508 1.03213,0.4914 0.75786,0.52237 0.42869,0.46806 0.18187,0.38948 0.0342,0.40294 -0.57571,0.22943 -1.5152,0.40346 -1.57457,0.249 -1.61109,0.11599 -3.48001,-0.0605 -3.61411,-0.26974 -3.744844,-0.22783 -3.785259,0.0975 -1.972319,0.27635 -1.940293,0.47654 -1.92254,0.72236 -1.75538,0.93722 m -12.748442,-20.93369 4.557018,2.03063 m 4.134802,11.92217 1.272695,-4.82391 m 10.59129,5.40643 -0.582036,-4.95491 m 9.381508,4.9482 0.41428,-4.97175 m 7.69182,8.74775 0.77925,4.92774 m -9.49422,-4.93218 -0.37132,4.97514 m -9.454315,-4.97519 0.69227,4.94071"
         inkstitch:satin_column="true"
         transform="scale(0.264583)" /><path
         id="path3925"
         style="fill:none;stroke:#8bfbf6;stroke-width:1px"
         d="m 45.783065,169.92252 2.618096,-0.85928 2.587294,-0.65207 2.502219,-0.43478 2.425723,-0.22921 2.356385,-0.0366 2.328543,0.14379 4.38768,0.74587 4.284346,1.26383 4.243202,1.64219 8.97707,4.01541 1.671692,1.22674 1.196449,1.0702 0.905945,1.11056 0.586882,1.32265 -0.01198,1.5302 -0.688734,1.26886 -0.926437,0.80601 -0.979194,0.54744 -1.894917,0.72702 -1.953411,0.64285 -1.667786,0.66438 -1.38438,0.89305 m -30.268219,-13.45893 2.479304,-0.81372 2.294706,-0.57833 2.189381,-0.38042 2.101677,-0.19859 2.032215,-0.0316 1.946657,0.12021 3.92572,0.66733 3.883454,1.14557 3.983798,1.54181 8.47493,3.79079 1.152108,0.84546 0.788529,0.70532 -1.373945,0.52714 -1.978589,0.65115 -2.161414,0.86102 -1.72402,1.11215 m -24.592632,-10.58784 -1.219235,-4.8377 m 9.676563,3.92241 0.307491,-4.97949 m 7.244187,6.4617 1.411552,-4.78512 m 5.988655,7.66044 2.037052,-4.55416 m 4.942443,7.8792 2.951608,-4.02218"
         inkstitch:satin_column="true"
         transform="scale(0.264583)" /><path
         id="path7209"
         style="fill:none;stroke:#8bfbf6;stroke-width:1px"
         d="m 99.37345,184.74932 0.135545,-2.10653 0.452769,-2.02053 0.761066,-1.78742 1.05671,-1.52503 1.31464,-1.22672 1.51162,-0.90831 1.64556,-0.59649 1.73027,-0.30912 1.78267,-0.0515 1.81392,0.18085 1.82833,0.39312 1.8268,0.59032 1.8089,0.7756 1.77329,0.95129 1.71894,1.11862 1.57459,1.22445 m -18.58672,5.56436 0.11466,-1.78187 0.29863,-1.33267 0.44613,-1.04778 0.56069,-0.80917 0.66816,-0.62348 0.79098,-0.47529 0.93164,-0.33771 1.07633,-0.19228 1.20793,-0.0349 1.31548,0.13115 1.39467,0.29988 1.4442,0.46668 1.4651,0.6282 1.45831,0.78231 1.42506,0.92738 1.43661,1.11715 m -15.56969,1.53204 -4.978681,-0.32035 m 7.350191,-4.48877 -2.56959,-4.27634 m 9.08224,4.24433 1.53405,-4.74728 m 4.48647,8.0659 3.06258,-3.93834"
         inkstitch:satin_column="true"
         transform="scale(0.264583)" /><path
         id="path5476"
         style="fill:none;stroke:#8bfbf6;stroke-width:1px"
         d="m 116.26307,198.7451 -2.24846,-2.40483 -1.54641,-1.18658 -0.43169,-0.20507 -0.29952,-0.081 -0.94071,7e-5 -3.23965,0.6819 -2.59742,0.19922 -3.11268,-0.30544 -3.223901,-0.23305 -1.418175,-0.3145 -1.212322,-0.4687 -1.067801,-0.71583 -0.822039,-1.04963 -0.36758,-1.28422 0.111096,-1.34727 0.915969,-1.88812 1.495832,-1.73338 1.860558,-1.64028 2.089273,-1.55369 m 19.09249,12.69096 -2.48254,-2.65517 -2.16759,-1.66322 -1.16731,-0.55453 -1.19368,-0.32264 -1.92549,1.3e-4 -3.39635,0.7149 -1.96338,0.15058 -2.80412,-0.27516 -2.973699,-0.21495 -0.814825,-0.1807 -0.310396,-0.12001 0.164273,-0.33862 0.954968,-1.10662 1.518039,-1.33832 1.95053,-1.45051 m 15.77998,7.85668 -3.64422,3.40728 m -6.46343,-7.10787 1.0276,4.882 m -8.58543,-4.80615 -0.3597,4.976 m 1.69296,-8.27916 -2.977092,-4.00335"
         inkstitch:satin_column="true"
         transform="scale(0.264583)" /><path
         id="path9611"
         style="fill:none;stroke:#8bfbf6;stroke-width:1px"
         d="m 63.8563,185.801 0.4323,-0.715 0.3377,-0.982 0.0076,-0.447 -0.0512,-0.122 -0.1422,-0.132 -0.4239,-0.186 -0.707,-0.122 -0.8749,0.013 -0.9133,0.162 -0.8276,0.29 -0.6544,0.376 -0.3073,0.305 -0.0883,0.172 -0.0062,0.124 0.1551,0.403 0.3691,0.452 2.2854,0.631 1.1377,0.129 0.0658,-0.012 z m 3.5568,2.152 0.6627,-1.095 0.6961,-2.025 0.0338,-1.98 -0.7368,-1.753 -1.312,-1.221 -1.5329,-0.673 -1.5894,-0.274 -1.5977,0.024 -1.5723,0.279 -1.5076,0.528 -1.3969,0.802 -0.2681,0.257 -0.9397,0.899 -0.8161,1.591 -0.095,1.897 0.7105,1.845 1.6267,1.993 3.8766,1.07 2.0555,0.233 1.3347,-0.232 1.5049,-0.738 z m 0.5596,-0.121 -4.2683,-2.583 m -5.5529,-5.503 2.4859,4.326 m -0.1845,0.055 -3.4482,-3.606 m -0.1897,0.182 3.4482,3.605 m 4.1633,6.339 -0.8569,-4.914"
         inkstitch:satin_column="true"
         transform="scale(0.264583)" /><path
         id="path5970"
         style="fill:none;stroke:#8bfbf6;stroke-width:1px"
         d="m 126.3288,179.56891 -2.91103,-2.35613 -2.75838,-1.8353 -2.69367,-1.42916 -2.65309,-1.08073 -2.6395,-0.78659 -2.65259,-0.54221 -2.68959,-0.34448 -2.73544,-0.1911 -5.754917,-0.11354 -6.095553,-0.0798 -3.242792,-0.15879 -3.365808,-0.3091 -3.504019,-0.51427 -3.434608,-0.7272 -1.192787,-0.0794 -1.511341,-0.32058 -2.610862,-1.07667 -2.265108,-1.58846 -1.648033,-1.90382 -0.608884,-1.23778 -0.286585,-1.33411 0.174341,-1.45381 0.749722,-1.32727 1.182256,-0.96458 1.436611,-0.60534 1.664709,-0.33317 1.697783,-0.0947 3.655549,-0.6891 4.013292,-0.46881 3.998671,-0.39476 3.869771,-0.49962 3.660282,-0.77514 1.650423,-0.51875 1.571785,-0.64438 1.45738,-0.77662 1.339342,-0.92628 0.57084,-0.51315 -1.05904,-0.30032 -4.5168,-0.60066 -2.45167,-0.44415 -2.391378,-0.87028 -1.233599,-0.76248 -1.084199,-0.96161 -0.931533,-1.20032 -1.057518,-3.25405 m 41.903167,34.15692 -3.06197,-2.47827 -3.09202,-2.0573 -3.06173,-1.62444 -3.03491,-1.23627 -3.0087,-0.89661 -2.98321,-0.60979 -2.96161,-0.37932 -2.95876,-0.2067 -5.872683,-0.11586 -6.034847,-0.079 -3.079808,-0.15081 -3.165392,-0.2907 -3.263181,-0.47893 -3.596192,-0.7614 -1.192013,-0.0794 -0.849659,-0.18022 -1.834538,-0.75653 -1.468092,-1.02954 -0.961367,-1.11058 -0.145916,-0.29662 -0.01519,-0.0707 0.04305,-0.0351 0.498989,-0.21026 0.963491,-0.19283 1.674417,-0.0933 3.779651,-0.7125 3.831708,-0.44759 4.023729,-0.39724 4.097229,-0.52898 4.018718,-0.85106 2.008377,-0.63125 1.928009,-0.79042 1.85402,-0.98798 1.75466,-1.21352 1.62593,-1.4616 2.88569,-3.39417 -2.97842,-1.99701 -1.28812,-0.61063 -2.47028,-0.70052 -4.717396,-0.62734 -2.00733,-0.36365 -1.657822,-0.60332 -0.565801,-0.34972 -0.527201,-0.46759 m 33.26348,29.21901 -2.76362,4.15359 m -4.8579,-8.24318 -1.8821,4.62035 m -10.29269,-7.04526 -0.34769,4.97685 m -13.713691,-5.29262 -0.244004,4.98301 m -13.892253,-7.04665 -1.901984,4.6122 m 10.433743,-8.71978 -0.490147,-4.96484 m 8.85185,3.79301 -1.033604,-4.88073 m 5.192456,-8.59214 -0.657663,4.94544"
         inkstitch:satin_column="true"
         transform="scale(0.264583)"
         sodipodi:nodetypes="ccccccccccccccccccccccccccccccccccccccccccccccccccccccccccccccccccccccccccccccccccccccccccccccccccccccccccc" /><path
         id="path3074"
         style="fill:none;stroke:#8bfbf6;stroke-width:1px"
         d="m 87.265301,142.47863 2.044194,-2.35838 0.752049,-1.20581 0.221823,-0.78638 -0.04894,-0.48596 -0.258608,-0.48595 -0.621167,-0.60786 -1.038169,-0.65642 -1.36096,-0.6114 -3.562918,-1.05701 -3.931879,-0.72519 m 12.431863,10.2288 0.73312,-1.06772 1.276551,-2.04679 0.596777,-2.11562 -0.210056,-2.08564 -0.945392,-1.77645 -1.395433,-1.36554 -1.659031,-1.04898 -1.88404,-0.8464 -4.041482,-1.19899 -4.275721,-0.78861 m 13.675235,12.50492 -4.246631,-2.70529 m 1.690481,-6.87718 -2.666208,4.21678 m -5.724747,-7.05881 -0.904898,4.90622"
         inkstitch:satin_column="true"
         transform="scale(0.264583)"
         sodipodi:nodetypes="cccccccccccccccccccccccccccc" /><path
         id="path7390"
         style="fill:none;stroke:#8bfbf6;stroke-width:1px"
         d="m 61.720017,144.70728 -1.912084,-1.07382 -1.284709,-0.4388 -0.734186,-0.0498 -0.270445,0.081 -0.09812,0.0847 -0.115488,0.22821 -0.07391,0.46593 0.05792,0.63249 0.216417,0.6739 0.351092,0.59916 0.433325,0.4432 0.474593,0.26606 0.558217,0.10593 0.775445,-0.1081 1.091343,-0.49125 1.526227,-1.15352 m 1.040129,-3.89017 -2.243916,-1.26018 -2.161891,-0.7384 -2.031614,-0.13795 -1.843355,0.55219 -1.39288,1.20174 -0.781112,1.54359 -0.257485,1.62307 0.147075,1.60591 0.496383,1.5457 0.840308,1.43404 1.207875,1.2354 1.587807,0.89014 1.896383,0.35987 2.042355,-0.2847 2.061057,-0.92775 1.915617,-1.44782 m -2.436228,-8.20722 -2.442919,4.34994"
         inkstitch:satin_column="true"
         transform="scale(0.264583)" /><path
         id="path4448"
         style="fill:none;stroke:#8bfbf6;stroke-width:1px"
         d="m 77.26277,149.00039 -1.490391,-1.84661 -1.779474,-1.71647 -2.042434,-1.59052 -2.273827,-1.46734 -2.469724,-1.34801 -2.628275,-1.2341 -2.733085,-1.12086 -5.728263,-1.97752 -5.732612,-1.65706 -11.580982,-3.05755 -0.830759,-4.06094 -0.184831,-2.60061 0.190129,-2.31927 0.522742,-2.04581 0.793167,-1.77041 0.980972,-1.50124 1.078533,-1.25711 1.094356,-1.05611 1.920708,-1.65388 0.696013,-0.65566 0.43677,-0.52401 0.193363,-0.36924 0.05358,-0.29238 -0.02692,-0.18711 -0.925369,-0.004 -2.468635,-0.1825 -2.528843,-0.52331 m 42.995182,40.98999 -2.109638,-5.35046 -1.839209,-2.27879 -2.124126,-2.04893 -2.361366,-1.83888 -2.556973,-1.65006 -2.714476,-1.48159 -2.836125,-1.3317 -2.938115,-1.20494 -5.940137,-2.05068 -5.880988,-1.69994 -9.133018,-2.41125 -0.259041,-1.26626 -0.142969,-2.01159 0.135471,-1.65253 0.347658,-1.36059 0.513233,-1.14559 0.653028,-0.99936 0.774467,-0.90269 0.868644,-0.83829 1.901692,-1.63752 0.945987,-0.89114 0.88103,-1.05699 0.691637,-1.32076 0.289818,-1.58142 -0.241232,-1.67698 -1.181848,-2.73547 -3.578036,-0.0166 -2.054765,-0.1519 -1.877357,-0.38849 m 39.073811,38.24621 -3.882259,3.13336 m -3.193229,-9.27099 -2.705121,4.19192 m -5.382878,-8.28801 -1.893008,4.61589 m -9.506071,-8.42446 -1.385386,4.79277 m -6.994304,-7.05358 -1.273526,4.82369 m -1.437578,-9.29777 -4.972297,-0.40762 m 8.653428,-5.81201 -3.25536,-3.78055 m -0.944876,-1.88074 1.222503,-6.15942"
         inkstitch:satin_column="true"
         sodipodi:nodetypes="cccccccccccccccccccccccccccccccccccccccccccccccccccccccccccccccccccccccccc"
         transform="scale(0.264583)" /><path
         id="path3150"
         style="fill:none;stroke:#8bfbf6;stroke-width:1px"
         d="m 83.025906,151.41661 -3.830614,1.29062 -2.038544,0.54292 -4.022115,0.61707 -7.921174,0.54248 -3.67363,0.45946 -1.644716,0.36479 -1.555986,0.49698 -1.434924,0.64444 -1.315954,0.81606 -1.205694,1.0211 -0.701807,0.80859 -0.01066,1.72421 -0.284078,1.24207 -0.518321,1.0788 -0.806305,0.88855 -1.093036,0.62854 -1.828356,0.2787 -1.781388,-0.19255 -1.669461,-0.31737 -1.58441,-0.25487 -1.665732,-0.0657 m 34.656631,-15.05458 -4.419067,0.75443 -7.863426,0.53852 -3.98297,0.49814 -2.019884,0.44801 -1.960014,0.62602 -1.901876,0.85416 -1.812446,1.12394 -1.683906,1.4261 -1.919193,2.21121 -0.01734,2.80579 -0.07852,0.34333 -0.0024,0.005 -0.385989,0.0588 -1.077412,-0.11645 -1.563539,-0.29723 -1.88939,-0.30393 -1.915468,-0.0755 m 32.138757,-10.97955 0.591313,5.01883 m -8.390757,-4.20917 0.340869,4.97731 m -9.484372,-3.58195 1.517919,4.75245 m -10.215513,4.20435 4.988882,0.0308"
         inkstitch:satin_column="true"
         transform="scale(0.264583)"
         sodipodi:nodetypes="cccccccccccccccccccccccccccccccccccccccccccccccc" /><path
         id="path157"
         style="fill:none;stroke:#8bfbf6;stroke-width:1px"
         d="m 60.558889,113.0534 0.202203,-1.70719 0.413037,-1.51287 0.694828,-1.28539 1.053663,-0.97214 1.25622,-0.4803 1.213813,-0.0631 1.634739,0.32218 1.096259,0.25988 0.108992,-0.36787 0.298278,-2.58501 4.735359,-1.26386 1.604532,-0.20222 1.505468,8.5e-4 1.461223,0.2017 1.463634,0.3891 2.888047,1.15324 m -17.501673,8.60202 0.165797,-1.39981 0.205563,-0.75293 0.09067,-0.16773 0.996069,0.1963 1.480695,0.35103 1.098439,0.0571 1.251769,-0.2879 1.158327,-0.82795 0.76775,-1.21543 0.418769,-1.41343 0.01532,-0.13279 1.729241,-0.46154 1.064668,-0.13418 0.958932,5.5e-4 0.926577,0.1279 0.975366,0.2593 2.655953,1.06056 m -15.51813,4.54577 -4.954347,-0.5868 m 10.660458,-1.32484 -2.901118,-4.05875 m 8.731616,0.47611 0.682185,-4.94212"
         inkstitch:satin_column="true"
         transform="scale(0.264583)" /><path
         id="path6553"
         style="fill:none;stroke:#8bfbf6;stroke-width:1px"
         d="m 57.291368,69.558849 2.117733,-0.435405 2.234766,0.01495 2.08658,0.466626 1.880991,0.863105 1.630702,1.198479 1.345808,1.475195 1.029964,1.699076 0.6808,1.873652 0.292972,1.996846 -0.136182,2.059362 -0.60105,2.048158 -1.085659,1.955164 -1.359231,1.545907 2.554382,0.349086 3.680367,0.908187 3.557991,1.305272 3.370865,1.704511 3.115915,2.108113 3.928399,3.545882 -1.715343,2.911288 -1.33199,1.345177 -1.570423,1.01174 -1.72971,0.71988 -1.843373,0.47817 -1.966301,0.28328 -3.970462,0.0717 -4.068842,-0.42416 -3.892537,-0.7792 -3.48907,-1.0115 -2.731529,-1.086343 m -1.179269,-26.129937 1.689667,-0.347395 1.352634,0.009 1.22422,0.273774 1.096409,0.503095 0.956698,0.703121 0.794792,0.871205 0.607236,1.001724 0.3964,1.090948 0.167428,1.141154 -0.07682,1.161638 -0.34195,1.165242 -0.644141,1.160036 -1.002407,1.140076 -1.426143,1.087077 -1.910297,0.982358 -12.262342,4.094806 0.331567,1.625502 13.509671,-1.085048 3.288713,0.09754 3.302287,0.451297 3.244433,0.800613 3.116009,1.143128 2.919135,1.476089 2.657085,1.797687 1.09712,0.990291 -0.279986,0.282758 -0.876177,0.56447 -1.11709,0.464917 -1.337027,0.346827 -1.480699,0.21332 -3.456538,0.06246 -3.622558,-0.377638 -3.528863,-0.7064 -3.12753,-0.906694 -2.545271,-1.012262 m -0.65496,-22.195917 0.03338,-4.988865 m 4.934759,7.591706 4.266316,-2.586201 m -4.236055,8.084097 4.361666,2.421934 m 4.495961,8.370959 1.718262,-4.683745 m 2.111118,10.398524 0.711403,4.937992 m -10.775806,-5.596646 -0.979255,4.891926"
         inkstitch:satin_column="true"
         transform="scale(0.264583)" /><path
         id="path8837"
         style="fill:none;stroke:#8bfbf6;stroke-width:1px"
         d="m 63.728474,62.074292 2.923545,-0.621466 2.576114,-0.702024 4.615789,-1.662967 4.056277,-1.867844 3.867213,-1.967068 4.000549,-1.926517 4.400386,-1.700519 2.492672,-0.725824 2.675406,-0.595633 2.54162,-0.394452 -0.630853,-0.649267 -0.631717,-0.467792 -0.547579,-0.260311 -0.458343,-0.111987 -1.434989,0.02452 -4.256653,0.921464 -2.8666,0.3309 -1.711392,-0.0267 -1.691498,-0.202737 m -19.055495,16.67284 3.038655,-0.645934 2.849686,-0.776576 4.939611,-1.779633 4.291923,-1.976356 3.899187,-1.983332 3.809851,-1.834683 4.079414,-1.576481 2.193728,-0.638776 2.412794,-0.537167 2.652517,-0.411663 6.329398,-0.576884 -2.82025,-4.60338 -1.11769,-1.486794 -1.158542,-1.19236 -1.228083,-0.909408 -1.296821,-0.616489 -1.393257,-0.340413 -2.380411,0.04068 -4.456547,0.964736 -2.3936,0.2763 -1.224008,-0.0191 -1.477302,-0.177063 M 68.90025,65.580154 67.588524,60.766708 m 10.658654,1.328304 -2.086726,-4.531607 m 12.748946,-0.548162 -1.798365,-4.653577 m 9.88751,2.312785 -0.765116,-4.929959 m -5.743997,-5.180762 1.055545,4.876034"
         inkstitch:satin_column="true"
         transform="scale(0.264583)" /><path
         id="path8150"
         style="fill:none;stroke:#8bfbf6;stroke-width:1px"
         d="m 58.824978,99.489577 -2.168915,-1.634608 -1.708821,-1.446879 -1.314891,-1.140347 -1.037425,-0.782834 -0.906929,-0.467698 -1.048065,-0.256337 -1.52323,-0.04 -2.311232,0.274733 m 14.521752,2.173815 -2.074685,-1.563592 -1.599979,-1.354721 -1.403109,-1.216853 -1.532523,-0.48808 -1.462975,-0.163868 -2.158231,0.114225 -2.269769,-0.0596 -2.610168,0.310267 m 13.872472,2.967876 -3.002691,3.984185 m -4.943226,-7.869484 -1.086329,3.460865"
         inkstitch:satin_column="true"
         transform="scale(0.264583)"
         sodipodi:nodetypes="cccccccccccccccccccccc" /></g><path
       id="path3"
       style="fill:none;fill-rule:evenodd;stroke:#000000;stroke-width:0.228731;stroke-linecap:round;stroke-dasharray:none;stroke-opacity:1"
       d="m 31.960325,19.884767 1.087213,0.760168 0.300531,1.157938 -0.477314,1.078381 -0.804366,0.388923 m -0.79802,-3.358896 -1.087225,0.760175 -0.300526,1.157937 0.477321,1.07838 0.80436,0.388922 m 1.440786,-3.160007 -1.944618,-0.02655 m 2.634073,0.830879 -3.36773,0.0084 m 3.52684,1.27288 -3.517998,0.03532 m 2.607559,0.901606 -1.944624,-0.02654"
       sodipodi:nodetypes="cccccccccccccccccc"
       inkstitch:satin_column="True" /><g
       id="centerline_group_6780"
       inkscape:label="path1 center line"
       style="display:inline;stroke-width:1.5;stroke-dasharray:none"
       transform="matrix(1.1436556,0,0,1.1436556,-4.954624,-7.7465314)"><path
         id="path9415"
         style="fill:none;stroke:#000000;stroke-width:1px"
         d="m 193.32554,172.08354 -1.98142,-0.26178 -3.60001,-1.21083 -3.41922,-1.54517 -3.25254,-1.81935 -3.10395,-2.03654 -2.97459,-2.20008 -1.09919,-1.06929 m 25.54724,5.39315 -3.45498,-0.31215 -3.1382,-0.67506 -3.02839,-1.01857 -2.93958,-1.32843 -2.86586,-1.60305 -2.80325,-1.83926 -2.75021,-2.03412 -2.11227,-1.84219 m 17.34489,9.22035 -1.90285,6.48053 m -2.98298,-8.13335 -2.80161,6.19951 m -3.40999,-9.66008 -3.73205,5.68811"
         inkstitch:satin_column="true"
         transform="scale(0.264583)"
         sodipodi:nodetypes="ccccccccccccccccccccccc"
         inkstitch:pull_compensation_percent="10" /><path
         id="path2156"
         style="fill:none;stroke:#000000;stroke-width:1px"
         d="m 179.34188,140.75508 5.30829,0.58372 5.56248,0.55825 4.87899,0.12388 4.43156,-0.34824 4.25166,-0.86633 4.34926,-1.45527 4.70156,-2.13145 4.56337,-2.40598 m -38.39119,11.51372 4.95717,0.63942 5.90212,0.59235 5.38501,0.13672 5.07204,-0.39856 4.93154,-1.00487 4.95374,-1.65753 5.82523,-2.67184 m -34.46662,5.22487 0.98811,-6.73101 m 9.36682,7.72153 0.17267,-6.80096 m 10.53632,6.02814 -1.35832,-6.66617 m 11.16129,3.50897 -2.80903,-6.19614"
         inkstitch:satin_column="true"
         transform="scale(0.264583)"
         sodipodi:nodetypes="ccccccccccccccccccccccccc"
         inkstitch:pull_compensation_percent="10" /><path
         id="path7681"
         style="fill:none;stroke:#000000;stroke-width:1px"
         d="m 178.04981,125.2557 2.40912,-0.38584 4.07105,-0.85037 3.57023,-0.93759 3.10184,-1.03103 2.66987,-1.12833 2.28035,-1.22964 1.94199,-1.33921 1.66172,-1.46615 1.43926,-1.62236 1.26677,-1.81603 1.13226,-2.04646 1.02691,-2.30589 0.94712,-2.58576 0.88934,-2.86389 1.75976,-6.728403 m -29.2702,34.006833 2.56007,-0.48304 4.32315,-0.90303 3.88557,-1.02041 3.48676,-1.15897 3.12353,-1.32007 2.78945,-1.50416 2.47561,-1.70719 2.17548,-1.91945 1.88894,-2.12924 1.62443,-2.32877 1.39334,-2.51834 1.20489,-2.70551 1.06208,-2.89964 1.15385,-4.15447 m -31.42981,27.09144 -1.12397,-6.70966 m 8.12564,5.08848 -1.72801,-6.58003 m 12.03215,2.73411 -3.22895,-5.98805 m 10.54896,0.2366 -5.08915,-4.5148 m 9.65298,-2.85604 -6.21472,-2.7677 m 8.37792,-3.45764 -6.58176,-1.7214"
         inkstitch:satin_column="true"
         transform="scale(0.264583)"
         sodipodi:nodetypes="ccccccccccccccccccccccccccccccccccccccccccc"
         inkstitch:pull_compensation_percent="10" /><path
         id="path8734"
         style="fill:none;stroke:#000000;stroke-width:1px"
         d="m 157.78177,145.16223 2.09981,-1.23264 1.88841,-1.58828 1.92859,-2.00853 1.95178,-2.2912 3.96074,-4.78498 2.11321,-2.24746 2.08548,-1.77525 m -13.15796,20.81748 2.51259,-1.47496 2.48579,-2.09072 3.47156,-3.67565 m -6.78076,6.90713 -3.44407,-5.86697 m 10.27467,-0.32541 -5.17884,-4.41163"
         inkstitch:satin_column="true"
         transform="scale(0.264583)"
         sodipodi:nodetypes="cccccccccccccccc"
         inkstitch:pull_compensation_percent="10" /><path
         id="path6174"
         style="fill:none;stroke:#000000;stroke-width:1px"
         d="m 165.85939,147.02477 5.69883,3.71567 m -11.55651,3.54775 4.65704,4.95932 m 8.45303,-11.62761 -2.82311,4.02967 -2.30812,3.14079 -2.5154,2.92219 -2.59692,2.43863 m 10.56721,-30.56381 -4.41078,13.30622 -1.44417,2.52949 -1.95416,2.99715 -2.08488,2.83701 -2.1766,2.52861 -2.37748,2.23257"
         inkstitch:satin_column="true"
         transform="scale(0.264583)"
         sodipodi:nodetypes="cccccccccccccccc"
         inkstitch:pull_compensation_percent="10" /><path
         id="path6202"
         style="fill:none;stroke:#000000;stroke-width:1px"
         d="m 165.22039,109.51358 1.25435,-1.06509 2.00961,-1.91311 1.83941,-1.98508 1.66529,-2.05419 1.48725,-2.12077 1.30584,-2.185671 1.12129,-2.249283 0.93342,-2.312656 0.7422,-2.376359 0.54697,-2.441438 0.34701,-2.508073 0.14135,-2.576919 -0.0707,-2.647679 -0.29033,-2.719971 -0.51781,-2.793076 -0.52111,-2.446506 m -6.95217,39.552601 2.25979,-2.15129 2.08759,-2.25292 1.90771,-2.35321 1.71955,-2.45203 1.52276,-2.54873 1.31731,-2.642516 1.10298,-2.732744 0.8802,-2.818241 0.64943,-2.898762 0.41139,-2.973327 0.16685,-3.041881 -0.0829,-3.104521 -0.33747,-3.161629 -0.48516,-1.738636 m -11.59239,36.237207 -4.8623,-4.92135 m 8.95294,0.48294 -5.28472,-4.28423 m 10.405,-3.621345 -6.08855,-3.03519 m 8.97704,-5.047022 -6.63858,-1.487286 m 7.55996,-7.976528 -6.80073,0.181598 m 6.35354,-3.9007 -6.65315,1.029802"
         inkstitch:satin_column="true"
         transform="scale(0.264583)"
         sodipodi:nodetypes="cccccccccccccccccccccccccccccccccccccccccccc"
         inkstitch:pull_compensation_percent="10" /><path
         id="path8602"
         style="fill:none;stroke:#000000;stroke-width:1px"
         d="m 142.13145,129.30021 1.95646,-2.13607 1.71924,-2.19547 1.55959,-2.32456 1.39959,-2.4386 1.23935,-2.53652 1.07868,-2.61807 0.80727,-2.20335 m -5.57948,20.28182 2.10434,-2.29753 1.98256,-2.53173 1.78601,-2.66204 1.59221,-2.7742 1.40145,-2.86828 1.80355,-3.35098 m -8.95325,15.44964 -5.01685,-4.59501 m 10.25391,-2.60577 -5.90041,-3.38645 m 8.65105,-2.42728 -6.43682,-2.20234"
         inkstitch:satin_column="true"
         transform="scale(0.264583)"
         sodipodi:nodetypes="ccccccccccccccccccccc"
         inkstitch:pull_compensation_percent="10" /><path
         id="path3278"
         style="fill:none;stroke:#000000;stroke-width:1px"
         d="m 155.04832,116.02036 8.22701,-0.1994 m -7.40878,7.30013 6.79705,0.28822 m 0.0991,-8.93503 -0.16826,2.34516 -0.45192,5.49769 -0.47262,11.14576 m -10.02737,-20.31316 5.35132,3.59946 -0.51077,5.21548 -0.47738,11.25804"
         inkstitch:satin_column="true"
         transform="scale(0.264583)"
         sodipodi:nodetypes="cccccccccccc"
         inkstitch:pull_compensation_percent="10" /><path
         id="path8461"
         style="fill:none;stroke:#000000;stroke-width:1px"
         d="m 139.17537,104.16126 0.47125,-1.79699 0.93611,-2.657806 0.63642,-2.795665 0.3364,-2.883996 0.0389,-2.920563 -0.25375,-2.903933 -0.53884,-2.833988 -0.56313,-4.482278 m 3.91828,25.140609 0.71992,-1.44692 1.16129,-3.29719 0.77658,-3.411339 0.4056,-3.477204 0.0466,-3.497237 -0.30345,-3.472667 -0.64716,-3.403612 -2.27023,-4.358265 m 1.62764,24.270344 -6.08783,-3.03664 m 7.94776,-4.295247 -6.75734,-0.788207 m 6.48782,-9.842204 -6.68342,1.270766"
         inkstitch:satin_column="true"
         transform="scale(0.264583)"
         sodipodi:nodetypes="cccccccccccccccccccccccc"
         inkstitch:pull_compensation_percent="10" /><path
         id="path7977"
         style="fill:none;stroke:#000000;stroke-width:1px"
         d="m 55.517197,98.317484 -0.275429,1.453708 -0.118737,1.277518 0.121742,2.76793 0.593022,2.64332 1.038333,2.47977 1.484705,2.27471 0.819244,0.93106 0.949448,0.88246 1.032006,0.77553 1.11233,0.66112 1.192324,0.53923 1.383606,0.44454 1.876282,0.53271 1.807559,0.32364 4.015295,0.30405 5.977228,-0.12413 m -28.579152,-19.222534 -0.325371,1.717292 -0.179463,1.930882 0.160858,3.65727 0.812378,3.62108 1.430867,3.41723 1.989495,3.04809 1.276156,1.45034 1.374952,1.27794 1.514194,1.13787 1.64827,0.97968 1.775076,0.80277 1.783594,0.57306 2.241118,0.63629 2.369041,0.42416 4.455105,0.33735 4.279079,0.0927 m -27.55588,-22.786523 6.773955,0.629593 m -5.220709,9.76803 6.275244,-2.62758 m 0.13667,11.09849 4.087015,-5.43868 m 5.20934,9.22318 1.199005,-6.69665 m 6.979496,7.35135 0.147409,-6.80155"
         inkstitch:satin_column="true"
         transform="scale(0.264583)"
         sodipodi:nodetypes="cccccccccccccccccccccccccccccccccccccccccccc"
         inkstitch:pull_compensation_percent="10" /><path
         id="path4300"
         style="fill:none;stroke:#000000;stroke-width:1px"
         d="m 81.673722,125.44467 -1.150728,0.82992 -3.150008,2.03405 -3.390127,1.58088 -3.561273,1.13429 -3.668568,0.69243 -3.715035,0.25188 -3.701647,-0.19162 -3.705279,-0.65568 -2.109756,-0.79682 -1.894072,-0.95612 -3.26003,-2.06949 -3.022968,-2.04286 -1.405223,-0.84163 -1.526439,-0.75904 m 35.979103,-7.23559 -2.180138,5.90012 -1.58712,1.01557 -2.708273,1.26292 -2.885727,0.91911 -2.997432,0.56577 -3.040365,0.20612 -3.013353,-0.15598 -2.839721,-0.50252 -1.332844,-0.50338 -1.376128,-0.69468 -2.95637,-1.87671 -3.084032,-2.08414 -1.728377,-1.03517 -1.724961,-0.85776 m 30.70885,3.65581 4.493138,5.10829 m -10.136039,-2.73034 2.064641,6.48229 m -10.285032,-5.43604 -0.351692,6.79405 m -6.305044,-8.30447 -3.065765,6.07322 m -4.072702,-10.65207 -3.495589,5.83641"
         inkstitch:satin_column="true"
         transform="scale(0.264583)"
         sodipodi:nodetypes="cccccccccccccccccccccccccccccccccccccccc"
         inkstitch:pull_compensation_percent="10" /><path
         id="path1072"
         style="fill:none;stroke:#000000;stroke-width:1px"
         d="m 142.631,105.167 1.027,0.459 2.163,0.646 2.305,0.442 2.429,0.294 5.181,0.412 2.689,0.266 2.799,0.432 3.368,0.975 3.158,1.547 2.831,2.008 2.473,2.387 2.088,2.691 1.67,2.932 1.219,3.11 0.701,3.141 0.486,4.172 0.267,3.898 0.067,3.711 -0.124,3.53 -0.308,3.353 -0.483,3.181 -0.65,3.011 -0.808,2.845 -0.956,2.682 -1.094,2.522 -1.224,2.364 -1.341,2.21 -1.447,2.057 -1.57,1.944 -3.288,3.356 -3.562,2.853 -3.71,2.361 -3.773,1.916 -3.754,1.521 -3.657,1.176 -3.483,0.878 -3.234,0.626 -2.881,0.417 -5.606,0.688 -3.09,0.55 -2.884,0.778 -1.14,0.441 -0.944,0.484 -0.657,0.467 -0.359,0.383 -0.139,0.262 -0.045,0.252 0.064,0.477 0.339,0.834 0.27,0.409 0.289,0.3 1.145,0.765 3.427,1.502 1.916,1.149 1.047,1.017 0.814,1.245 0.511,1.478 0.163,1.607 -0.154,1.686 -0.38,1.575 -0.172,0.885 0.002,0.72 0.14,0.787 0.286,0.831 0.428,0.842 0.557,0.817 0.664,0.758 0.746,0.668 0.797,0.552 0.816,0.416 0.802,0.27 0.763,0.121 0.714,-0.019 0.682,-0.158 0.684,-0.321 0.744,-0.559 2.213,-2.331 2.059,-2.692 4.088,-6.006 2.291,-3.054 2.628,-2.855 1.562,-1.367 1.681,-1.229 1.847,-1.093 1.965,-0.903 9.261,-3.578 4.558,-1.805 4.46,-1.899 4.322,-2.054 4.143,-2.264 3.925,-2.532 3.747,-2.914 4.161,-3.468 3.755,-3.701 3.361,-3.967 2.933,-4.228 2.493,-4.519 1.04,-2.304 0.929,-2.402 0.754,-2.331 0.043,-0.135 0.663,-2.53 0.524,-2.596 0.378,-2.645 0.328,-4.476 -0.028,-4.483 -0.378,-4.475 -0.726,-4.432 -1.069,-4.356 -1.407,-4.245 -1.739,-4.102 -2.066,-3.923 -3.138,-4.8713 -3.478,-4.4397 -3.812,-4.0283 -4.145,-3.6341 -4.473,-3.2555 -4.801,-2.8903 -5.125,-2.5369 -5.418,-2.183 -3.925,-1.1803 -4.002,-0.9111 -4.04,-0.6417 -4.07,-0.3802 -4.087,-0.1268 -4.096,0.1189 -4.092,0.3565 -4.078,0.5862 -4.053,0.8078 -4.015,1.0212 -3.966,1.226 -3.906,1.4225 -3.833,1.6102 -3.75,1.7891 -3.653,1.9591 -3.528,2.1089 -4.933,3.3796 -4.669,3.7625 -4.3512,4.1251 -3.9653,4.4547 -3.5339,4.7799 -1.5485,2.447 -1.4291,2.538 -1.2841,2.594 -1.1317,2.649 -0.9721,2.698 -0.7728,2.635 -0.1334,0.933 0.0585,0.422 0.12,0.238 0.2807,0.283 0.5935,0.358 0.9382,0.356 1.2326,0.298 1.427,0.215 3.393,0.216 3.5556,0.008 3.4237,-0.043 2.8683,0.079 2.986,0.161 2.765,-0.009 2.663,-0.172 2.566,-0.33 2.475,-0.488 2.388,-0.642 2.309,-0.796 2.236,-0.949 2.168,-1.104 2.107,-1.257 2.049,-1.414 1.996,-1.571 1.946,-1.728 1.875,-1.863 5.154,-5.977 z m -2.313,5.176 1.364,0.61 2.791,0.833 2.777,0.533 2.739,0.332 5.243,0.416 2.48,0.245 2.286,0.353 2.543,0.736 2.303,1.129 2.109,1.495 1.871,1.806 1.591,2.052 1.268,2.225 0.91,2.322 0.542,2.427 0.436,3.746 0.249,3.621 0.061,3.417 -0.113,3.219 -0.278,3.027 -0.432,2.842 -0.575,2.663 -0.707,2.491 -0.829,2.326 -0.942,2.171 -1.046,2.022 -1.142,1.88 -1.229,1.747 -1.281,1.586 -2.859,2.919 -3.054,2.447 -3.218,2.047 -3.314,1.683 -3.337,1.352 -3.284,1.056 -3.154,0.795 -2.946,0.571 -2.687,0.388 -5.698,0.699 -3.485,0.621 -3.413,0.921 -1.695,0.656 -1.572,0.805 -1.454,1.033 -1.265,1.349 -0.913,1.72 -0.354,2.001 0.277,2.066 0.822,2.02 0.864,1.309 1.075,1.118 2.071,1.383 3.554,1.559 1.045,0.626 0.124,0.121 0.086,0.131 0.066,0.191 0.041,0.408 -0.066,0.73 -0.313,1.295 -0.302,1.554 0.005,1.769 0.305,1.706 0.557,1.618 0.77,1.516 0.955,1.402 1.118,1.276 1.266,1.134 1.401,0.97 1.528,0.779 1.646,0.553 1.746,0.279 1.814,-0.049 1.823,-0.423 1.757,-0.824 1.59,-1.196 2.747,-2.894 2.338,-3.056 4.103,-6.028 2.042,-2.722 2.228,-2.42 1.145,-1.002 1.257,-0.92 1.358,-0.803 1.539,-0.707 9.119,-3.524 4.646,-1.839 4.634,-1.973 4.573,-2.173 4.464,-2.441 4.308,-2.778 4.02,-3.127 4.417,-3.68 4.104,-4.046 3.702,-4.37 3.255,-4.691 2.743,-4.973 1.198,-2.653 1.042,-2.696 0.803,-2.482 0.093,-0.287 0.745,-2.843 0.588,-2.913 0.428,-2.999 0.359,-4.895 -0.031,-4.93 -0.416,-4.916 -0.797,-4.87 -1.176,-4.79 -1.55,-4.677 -1.921,-4.531 -2.292,-4.3533 -3.415,-5.3002 -3.802,-4.8541 -4.176,-4.4123 -4.537,-3.9779 -4.881,-3.5525 -5.213,-3.1383 -5.528,-2.7367 -5.859,-2.3606 -4.358,-1.3103 -4.374,-0.9959 -4.406,-0.6999 -4.427,-0.4136 -4.434,-0.1374 -4.429,0.1285 -4.414,0.3845 -4.386,0.6306 -4.348,0.8666 -4.299,1.0932 -4.237,1.31 -4.167,1.5175 -4.084,1.7156 -3.991,1.9045 -3.888,2.0845 -3.791,2.2665 -5.26,3.6032 -5.0178,4.0439 -4.6912,4.4473 -4.2961,4.8263 -3.8093,5.152 -1.7361,2.7443 -1.5745,2.795 -1.4213,2.873 -1.2585,2.945 -1.0859,3.014 -0.9356,3.19 -0.3042,2.126 0.2979,2.145 0.9458,1.877 1.4093,1.425 1.6365,0.985 1.747,0.664 1.823,0.441 1.9144,0.287 3.808,0.243 3.7718,0.008 3.3525,-0.042 2.6793,0.074 3.073,0.166 3.101,-0.011 3.016,-0.194 2.932,-0.377 2.849,-0.561 2.765,-0.744 2.681,-0.924 2.598,-1.104 2.514,-1.279 2.431,-1.451 2.349,-1.621 2.268,-1.785 2.192,-1.946 2.142,-2.129 2.628,-3.047 m 11.041,2.824 0.539,-6.782 m 20.545,33.554 6.799,0.24 m -13.564,21.771 5.565,3.914 m -14.902,4.641 3.652,5.74 m -13.075,-1.428 2.082,6.477 m -12.442,-4.208 0.829,6.752 m -14.155,12.715 2.732,-6.231 m 3.884,21.694 4.539,-5.067 m 19.308,-5.584 -5.624,-3.828 m 27.203,-9.712 -2.504,-6.325 m 20.724,-2.717 -3.688,-5.717 m 10.755,0.382 -4.354,-5.227 m 12.903,-2.957 -5.192,-4.397 m 12.092,-5.312 -5.956,-3.287 m 4.211,-9.713 6.472,2.094 m 2.078,-11.87 -6.785,-0.498 m 6.767,-8.475 -6.779,0.574 m 3.974,-15.149 -6.458,2.14 m -1.296,-18.0356 -5.719,3.6846 m -1.76,-12.9073 -4.941,4.6765 m -4.058,-12.4116 -4.003,5.5008 m -6.148,-11.5601 -3.018,6.097 m -7.939,-10.5202 -1.959,6.515 m -6.716,-8.4872 -1.068,6.719 m -7.763,-7.556 -0.211,6.7999 m -8.628,-6.564 0.59,6.7775 m -9.321,-5.5517 1.33,6.6719 m -9.861,-4.5418 2.009,6.4997 m -10.273,-3.5424 2.635,6.2723 m -10.571,-2.5509 3.214,5.9956 m -13.123,0.08 3.844,5.6125 m -12.964,1.8548 4.68,4.9372 m -14.3002,6.108 5.4703,4.0445 m 6.9433,25.868 0.1866,-6.8 m 33.837,-2.301 -4.207,-5.347"
         inkstitch:satin_column="true"
         transform="scale(0.264583)"
         inkstitch:pull_compensation_percent="10" /></g></g></svg>
