<?xml version="1.0" encoding="UTF-8" standalone="no"?>
<!-- Created with Inkscape (http://www.inkscape.org/) -->

<svg
   width="70mm"
   height="70mm"
   viewBox="0 0 70 70"
   version="1.1"
   id="svg1"
   xml:space="preserve"
   inkscape:export-filename="Otter.png"
   inkscape:export-xdpi="500"
   inkscape:export-ydpi="500"
   inkscape:version="1.3.2 (091e20e, 2023-11-25)"
   sodipodi:docname="Otter_v2.svg"
   xmlns:inkscape="http://www.inkscape.org/namespaces/inkscape"
   xmlns:sodipodi="http://sodipodi.sourceforge.net/DTD/sodipodi-0.dtd"
   xmlns="http://www.w3.org/2000/svg"
   xmlns:svg="http://www.w3.org/2000/svg"
   xmlns:inkstitch="http://inkstitch.org/namespace"><sodipodi:namedview
     id="namedview1"
     pagecolor="#ffffff"
     bordercolor="#000000"
     borderopacity="0.25"
     inkscape:showpageshadow="2"
     inkscape:pageopacity="0.0"
     inkscape:pagecheckerboard="0"
     inkscape:deskcolor="#d1d1d1"
     inkscape:document-units="mm"
     inkscape:zoom="2"
     inkscape:cx="81.5"
     inkscape:cy="157"
     inkscape:window-width="1392"
     inkscape:window-height="955"
     inkscape:window-x="0"
     inkscape:window-y="25"
     inkscape:window-maximized="0"
     inkscape:current-layer="layer1" /><metadata
     id="metadata1"><inkstitch:min_stitch_len_mm>0</inkstitch:min_stitch_len_mm><inkstitch:collapse_len_mm>3</inkstitch:collapse_len_mm><inkstitch:inkstitch_svg_version>1</inkstitch:inkstitch_svg_version></metadata><defs
     id="defs1"><symbol
   id="inkstitch_ignore_layer">
      <title
   id="title9694">Ignore entire layer when generating stitch plan</title>
      <path
   inkscape:connector-curvature="0"
   style="opacity:1;vector-effect:none;fill:#fafafa;fill-opacity:1;fill-rule:evenodd;stroke:#ff0000;stroke-width:1.06501234;stroke-linecap:round;stroke-linejoin:miter;stroke-miterlimit:4;stroke-dasharray:3.19503705, 3.19503705;stroke-dashoffset:0;stroke-opacity:1"
   d="M 9.2465269,-4.9265995e-6 C 9.246525,5.1067241 5.1067028,9.2465451 -2.615882e-5,9.2465451 -5.1067554,9.2465451 -9.2465782,5.1067241 -9.2465801,-4.9265995e-6 -9.24658,-2.4523429 -8.2723922,-4.8042399 -6.538327,-6.5383059 c 1.7340653,-1.734065 4.0859624,-2.708252 6.53830084118,-2.708252 5.10673015882,0 9.24655285882,4.139823 9.24655305882,9.2465529734005 0,0 0,0 0,0"
   id="inkstitch_path25368-7" />
      <path
   sodipodi:nodetypes="ccccc"
   inkscape:connector-curvature="0"
   style="color:#000000;fill:#d5d5d5;fill-opacity:1;fill-rule:evenodd;stroke:#5a5a5a;stroke-width:0.63330007;stroke-linecap:square;stroke-linejoin:round;stroke-miterlimit:0;stroke-opacity:1"
   d="M 4,4.452769 1.46667,1.286102 H -5.5 l 2.53333,3.166667 z"
   id="use5800" />
      <path
   sodipodi:nodetypes="ccccc"
   inkscape:connector-curvature="0"
   style="color:#000000;opacity:0.5;fill:#d5d5d5;fill-opacity:1;fill-rule:evenodd;stroke:#858585;stroke-width:0.63339424;stroke-linecap:square;stroke-linejoin:round;stroke-miterlimit:0;stroke-opacity:1"
   d="M 4,2.552769 1.46667,-0.613898 H -5.5 l 2.53333,3.166667 z"
   id="use5864" />
      <g
   id="g5771">
        <path
   sodipodi:nodetypes="ccccccccc"
   inkscape:connector-curvature="0"
   style="fill:#aa0000;fill-rule:evenodd;stroke:#aa0000;stroke-width:1px"
   d="m -1.0666699,-5.0472339 h 4.4333333 l 0.6333333,0.6333333 V 0.01943274 L 3.3666634,0.65276607 H -1.0666699 L -1.7000032,0.01943274 V -4.4139006 Z"
   id="path8011" />
        <path
   inkscape:connector-curvature="0"
   id="path8023"
   d="m -0.43333658,-3.8755672 c 0,0 3.16666668,3.16666661 3.16666668,3.16666661"
   style="fill:none;stroke:#ffffff;stroke-width:1.70000005" />
        <path
   inkscape:connector-curvature="0"
   id="path8025"
   d="m 2.7333301,-3.8755672 c 0,0 -3.16666668,3.16666661 -3.16666668,3.16666661"
   style="fill:none;stroke:#ffffff;stroke-width:1.79999995;stroke-linejoin:round" />
      </g>
    </symbol>
    </defs><g
     inkscape:label="Ebene 1"
     inkscape:groupmode="layer"
     id="layer1"><g
       id="g286"><g
         id="g1462"
         style="display:inline"><path
           style="fill:#397778"
           d="M 18.211799,48.02367 C 12.067925,47.628196 8.0354598,42.666903 9.1343323,36.855398 c 0.5555897,-2.938296 1.5222037,-4.963305 4.2192877,-8.8392 2.253053,-3.237793 4.264173,-5.920855 5.563539,-7.422394 2.177305,-2.516079 2.159428,-2.94553 -0.292276,-7.021126 -1.413353,-2.34949 -1.507323,-2.542994 -1.289384,-2.655098 0.458699,-0.235949 0.640147,-0.779278 0.474065,-1.4195414 -0.09337,-0.3599666 -0.124511,-0.3579333 0.545741,-0.035639 1.121849,0.5394484 2.468089,1.3810124 3.203181,2.0023804 1.557013,1.316132 1.667828,1.256887 3.533231,-1.8889809 l 1.997536,-3.6321998 c 2.851052,-4.6199448 8.917886,-4.94923112 12.587763,-0.6832192 0.522008,0.6068039 0.648275,0.669939 1.164153,0.5820919 0.696508,-0.118606 0.764026,-0.1213639 0.764026,-0.031208 0,0.065548 -0.05822,0.081536 -0.296918,0.081536 -1.000895,0 -1.260611,0.4414805 -1.329875,2.2605999 -0.08495,2.2311791 -0.301825,2.8668201 -0.979016,2.8694501 -0.4403,0.0017 -0.539839,0.316247 -0.26439,0.83546 0.293324,0.552909 0.193587,0.95293 -0.419271,1.681598 -0.583303,0.693526 -1.993729,1.685446 -1.993729,1.402142 0,-0.158283 -0.189136,-0.347493 -0.505268,-0.505466 l -0.300196,-0.15001 0.303073,-0.05963 c 2.196813,-0.432196 1.667559,-2.312159 -0.723,-2.568166 -1.966488,-0.210593 -2.497823,2.234657 -0.553146,2.545624 0.310777,0.04969 0.149684,0.11942 -0.278863,0.120699 -0.631777,0.0019 -0.9906,0.182758 -0.9906,0.499334 0,0.375373 0.424856,0.597153 1.05098,0.548623 1.420848,-0.110127 1.589906,-0.07966 0.689832,0.124297 -3.394682,0.769258 -6.468228,-1.139183 -7.662887,-4.758076 -0.628202,-1.9029664 -1.273282,-2.1907756 -1.26113,-0.562666 0.04066,5.447656 8.228282,8.502855 12.298177,4.589047 0.475111,-0.45689 0.521934,-0.489556 0.546123,-0.381 0.01455,0.0653 0.106174,0.644515 0.203607,1.287135 0.09743,0.64262 0.238968,1.54559 0.314522,2.0066 0.647759,3.952449 -0.924063,8.288368 -3.294871,9.089003 -1.708938,0.577117 -1.811616,-1.265779 -0.173038,-3.105724 0.296475,-0.332908 0.548577,-0.669561 0.616625,-0.823428 0.06331,-0.143155 0.257406,-0.417301 0.431325,-0.609214 0.931036,-1.027362 0.528866,-2.04834 -0.459476,-1.16646 -0.168536,0.150383 -0.314151,0.273423 -0.323588,0.273423 -0.0094,0 -0.151449,-0.06163 -0.31558,-0.136951 -1.291477,-0.59268 -2.402984,0.577846 -2.276664,2.397551 0.07257,1.045379 0.06766,1.087459 -0.173442,1.486493 -0.535343,0.886023 -0.35659,2.163521 0.325609,2.327039 0.21254,0.05094 0.272464,0.111047 0.401401,0.402596 0.248096,0.560989 0.784664,0.723216 1.174864,0.355211 0.774571,-0.730515 -0.126558,0.31412 -1.528189,1.771555 -5.149555,5.354575 -8.319505,10.878112 -9.301502,16.207571 l -0.09273,0.503266 -0.466647,0.216586 c -1.838169,0.853152 -3.94842,1.275102 -5.785519,1.156828 z m 1.290621,-1.243521 c 0.155465,-0.166871 0.211157,-0.534912 0.260366,-1.720626 0.233196,-5.618867 2.989816,-10.685468 4.012795,-7.375419 0.461561,1.49347 0.08756,3.733946 -1.07853,6.461019 -0.694693,1.62464 -0.727649,2.032 -0.164389,2.032 0.268448,0 0.42326,-0.202826 0.911204,-1.1938 2.310519,-4.692482 1.989854,-9.45552 -0.638237,-9.480125 -1.951031,-0.01827 -3.967833,4.617761 -3.980475,9.149925 -0.0057,2.050183 0.186485,2.653818 0.677266,2.127026 z m -6.594474,-2.627992 c 1.851535,-0.637509 5.529139,-3.733 6.910681,-5.816818 1.953878,-2.947088 0.36865,-5.209246 -2.622828,-3.742839 -2.48768,1.219448 -6.627317,5.039626 -6.65014,6.136943 -0.01398,0.672198 0.872258,0.652923 1.194069,-0.02597 0.613289,-1.293796 5.170595,-4.927933 6.648397,-5.301638 3.195241,-0.808009 -0.78961,4.823536 -5.180126,7.320754 -0.874782,0.497554 -1.240079,0.76012 -1.348073,0.968957 -0.230447,0.445635 0.35026,0.700859 1.04802,0.460611 z M 30.4477,11.309155 c 0.507364,-0.21199 0.525082,-0.868927 0.03033,-1.124771 -0.469289,-0.2426786 -0.828812,0.121395 -0.744035,0.753454 0.05042,0.37589 0.340968,0.527055 0.7137,0.371317 z"
           id="path703"
           sodipodi:nodetypes="cssssssssccssssscsssscssscsscsssssssssssscssssssscsccssssssscsssssssssssssss" /><path
           style="fill:#397778"
           d="M 8.2047821,60.325037 C 8.7597022,56.353087 11.434564,49.065964 12.818379,47.756181 l 0.183429,-0.173616 0.547596,0.283706 c 0.301177,0.156038 0.890495,0.424589 1.309595,0.59678 0.4191,0.172191 0.778896,0.329285 0.799548,0.349098 0.02065,0.01981 -0.296613,0.400889 -0.705032,0.846835 -3.053769,3.33437 -5.274376,6.853197 -6.5706536,10.412012 -0.200488,0.550422 -0.2242224,0.584275 -0.1780793,0.254 z"
           id="path392" /><path
           style="fill:#397778"
           d="M 33.045398,58.818036 C 29.377861,58.634639 26.462611,56.339729 25.956797,53.825285 24.74873,47.819891 26.51381,41.31548 30.976488,35.327472 c 1.114882,-1.495946 1.811032,-2.302495 3.745492,-4.339474 1.903073,-2.003928 2.773934,-3.012234 2.843949,-3.292801 0.05775,-0.231403 0.223749,-0.455022 0.771912,-1.039832 0.654799,-0.698575 1.001483,-1.14862 1.338811,-1.737967 0.429877,-0.75104 0.407449,-0.738545 1.551275,-0.86421 1.931608,-0.212212 2.425096,-0.668262 2.030654,-1.876602 -0.237304,-0.72696 -0.344845,-2.068656 -0.2152,-2.68487 l 0.04066,-0.193283 0.168243,0.147719 c 0.104909,0.09211 0.299861,0.182389 0.517876,0.239817 0.464767,0.122425 0.698956,0.24366 0.832233,0.43083 0.373949,0.525162 1.524,0.549099 1.524,0.03172 0,-0.168951 -0.258415,-0.583566 -0.372695,-0.59797 -0.03251,-0.0041 0.104576,-0.02256 0.304631,-0.04103 1.343532,-0.12403 1.163741,-1.708457 -0.287536,-2.533927 -1.348395,-0.766952 -2.595125,0.395895 -1.583723,1.477165 l 0.234208,0.250388 -0.201542,-0.04247 c -0.28876,-0.06085 -0.709432,-0.03287 -0.8871,0.059 -0.18552,0.09594 -0.18597,0.08665 -0.01999,-0.413195 0.296864,-0.89402 0.798723,-1.554592 1.228232,-1.616663 1.556898,-0.224995 1.880932,-1.02194 0.828767,-2.038309 -0.373374,-0.360671 -0.490038,-0.529107 -0.366477,-0.529107 0.09243,0 0.273821,0.190347 0.604951,0.634814 0.472906,0.63477 0.50046,0.644242 1.200521,0.412692 2.906319,-0.961288 6.3702,-0.0063 8.779546,2.420567 0.804388,0.81023 0.938095,0.882524 1.587209,0.858181 1.060426,-0.03977 1.1176,-0.03767 1.1176,0.04105 0,0.172156 -0.222315,0.207764 -1.0795,0.172903 l -0.8255,-0.03357 v 0.279399 c 0,20.656838 -11.015776,40.526007 -22.407155,39.956376 z m 3.273831,-1.666554 c 0.177233,-0.09485 0.259948,-0.43723 0.30769,-1.27361 0.155852,-2.730315 1.581129,-6.555347 3.180025,-8.534269 0.345692,-0.427856 0.288643,-0.42697 0.688877,-0.0107 1.271432,1.322367 0.944106,3.936059 -0.881423,7.038145 -1.442744,2.451628 -0.75813,3.116615 0.900014,0.874213 2.565294,-3.46919 2.389226,-9.672899 -0.266981,-9.407016 -2.071535,0.207359 -5.148216,6.985138 -4.684437,10.319587 0.117347,0.84369 0.383355,1.193211 0.756235,0.993652 z m -6.625198,-1.848459 c 3.329288,-1.603484 6.663753,-7.979868 5.117596,-9.786205 -1.989937,-2.324794 -9.47606,5.438641 -8.028195,8.325587 0.304054,0.606264 0.733197,0.303459 0.928004,-0.654804 0.493715,-2.4286 3.788274,-6.435349 5.683979,-6.912693 2.146681,-0.540541 -1.339533,6.374577 -3.880617,7.69744 -0.762688,0.397048 -0.964284,0.602738 -0.964865,0.98446 -7.91e-4,0.519392 0.481506,0.665339 1.144098,0.346215 z M 49.865292,38.77232 c 0.308103,-0.205726 0.217151,-1.186525 -0.314375,-3.390122 -0.830769,-3.444192 -0.690151,-4.654234 0.463938,-3.992259 0.791146,0.453794 1.339761,1.387029 1.542893,2.624576 0.320335,1.951595 1.198049,2.00455 1.198049,0.07228 0,-3.728729 -4.851457,-6.076833 -5.038018,-2.4384 -0.06487,1.265161 0.0925,2.17473 0.765288,4.423264 0.757526,2.53173 0.981076,2.968512 1.382225,2.700658 z m 2.516019,-19.03989 c 0.0922,-0.04768 0.192545,-0.164754 0.250362,-0.2921 0.295512,-0.650886 -0.349594,-1.269664 -0.921724,-0.884106 -0.684687,0.46141 -0.06063,1.554735 0.671362,1.176206 z"
           id="path445"
           sodipodi:nodetypes="sssssssssscssssscsscsssssssssssscssssssssssssssssssssssssssssssssss" /><path
           style="fill:#397778"
           d="m 23.926799,66.612897 c 0,-0.0177 0.304005,-0.342434 0.675567,-0.721636 1.502865,-1.533767 3.049765,-3.708763 4.209965,-5.91936 0.248566,-0.473606 0.457928,-0.867093 0.46525,-0.874415 0.0073,-0.0073 0.492317,0.147291 1.077765,0.343585 1.09647,0.367633 1.771732,0.552754 2.018546,0.553375 1.170619,0.0029 -2.790856,3.634464 -5.932494,5.438364 -0.806484,0.463076 -2.514599,1.264684 -2.514599,1.180087 z"
           id="path304" /></g><g
         id="g1474"><path
           id="path286"
           style="display:inline;fill:#000101"
           d="m 33.094621,1.8107422 c -2.420689,0.097522 -4.736602,1.2615315 -6.15518,3.4602539 L 26.603027,5.7924113 26.445931,5.519043 C 26.09832,4.91397 25.851324,4.7661858 25.474931,4.9376831 25.061379,5.1261091 25.1104,5.5636956 25.627376,6.29729 c 0.414743,0.5885204 0.392007,0.7060927 -0.40721,2.0934123 -1.494202,2.5937087 -2.051076,3.3952337 -2.357996,3.3946247 -0.130414,-2.58e-4 -0.257164,-0.08955 -1.029911,-0.727604 -2.819884,-2.3283847 -6.281523,-3.3751988 -6.591846,-1.99316 -0.100935,0.4495412 -0.0088,0.6133585 0.787549,1.400431 0.584835,0.578052 0.665149,0.680129 0.898653,1.142566 0.141083,0.2794 0.661502,1.18237 1.156519,2.006596 2.50976,4.178887 2.516333,4.322038 0.310575,6.847127 -1.601094,1.832895 -5.880395,7.735686 -7.239868,9.986471 -3.9770441,6.584524 -3.4708391,12.70093 1.335319,16.136483 l 0.399459,0.285254 -0.304374,0.352433 c -2.033733,2.35596 -4.8146653,10.372711 -4.8999595,14.125753 l -0.025321,1.124479 0.2216919,0.02325 c 0.2766515,0.02886 0.2191447,0.121734 0.4712891,-0.755509 1.0109785,-3.517327 3.1476445,-7.343152 5.8833625,-10.533724 1.594782,-1.85994 2.575195,-2.858071 2.776575,-2.826701 2.52749,0.393711 4.973465,-0.0061 7.485847,-1.223181 0.940871,-0.455774 0.873698,-0.476886 0.779798,0.24598 -0.296619,2.283453 -0.148885,5.424747 0.330729,7.030061 0.397359,1.329988 1.580682,2.655647 3.153296,3.532085 l 0.38964,0.217041 -0.08475,0.209289 c -0.87289,2.149121 -3.153476,5.487303 -5.138705,7.522022 -0.829995,0.85069 -0.962137,1.076497 -0.752925,1.285709 0.398544,0.398548 3.701539,-1.261084 6.135543,-3.082499 2.230362,-1.669027 3.539059,-3.097549 3.966166,-4.331002 l 0.142627,-0.412894 0.930692,-0.01292 C 45.13963,59.214721 55.899837,40.841881 56.786715,21.048328 l 0.08372,-1.871204 0.635103,-0.0036 c 0.744546,-0.004 1.041667,-0.09814 1.217497,-0.38654 0.344353,-0.564813 -0.156198,-0.991506 -1.010791,-0.861446 -0.927099,0.141095 -0.952574,0.130035 -1.901693,-0.796334 -2.500275,-2.440368 -6.165439,-3.425459 -9.094019,-2.444295 -0.24848,0.08325 -0.456287,0.145259 -0.461987,0.137459 -0.0057,-0.0078 -0.108863,-0.151204 -0.228927,-0.318844 -0.557497,-0.778409 -0.963548,-1.00885 -1.34152,-0.761193 -0.377759,0.247516 -0.286658,0.65053 0.269234,1.192692 0.568736,0.55468 0.555809,0.523985 0.293006,0.677994 -0.122574,0.07183 -0.346471,0.23004 -0.497127,0.3514 -0.15066,0.12136 -0.387917,0.263413 -0.527617,0.315743 -1.3907,0.520913 -2.14651,3.770078 -1.415417,6.084383 0.247875,0.784678 -0.125726,1.081456 -1.489832,1.183907 -0.246276,0.0185 -0.744723,0.07642 -1.107943,0.129192 -0.983291,0.142863 -0.906598,0.197907 -0.679028,-0.482658 0.566814,-1.695111 0.70696,-3.840684 0.377238,-5.770708 -0.301676,-1.765848 -0.643297,-4.152911 -0.621667,-4.343404 0.01269,-0.11176 0.05051,-0.305768 0.08371,-0.431498 0.03399,-0.128659 0.04631,-0.336417 0.02842,-0.474906 -0.04227,-0.327267 0.0842,-0.658153 0.35295,-0.922425 0.488386,-0.480235 0.643656,-1.169866 0.732256,-3.250964 0.06269,-1.4725909 0.170959,-1.6492452 1.010791,-1.6505452 0.385318,-5.98e-4 0.533684,-0.1138169 0.587044,-0.4475179 C 42.163704,5.3802882 41.884534,5.1709638 41.25588,5.2849487 40.457586,5.4296919 40.49757,5.4449971 39.87922,4.7495809 38.040826,2.6820718 35.515306,1.7132203 33.094621,1.8107422 Z m -0.0186,0.4588867 c 2.331817,-0.1265628 4.766217,0.8575179 6.601148,2.9905151 0.522004,0.6068015 0.647875,0.67024 1.163753,0.5823934 0.696502,-0.1186042 0.764294,-0.1216772 0.764294,-0.031523 0,0.065548 -0.05844,0.081649 -0.297139,0.081649 -1.000891,0 -1.260375,0.4417317 -1.329635,2.2608439 -0.08495,2.2311717 -0.302081,2.8669927 -0.979268,2.8695927 -0.4403,0.0017 -0.539512,0.315878 -0.264067,0.835091 0.293324,0.552905 0.193242,0.952887 -0.419612,1.681551 -0.583303,0.693522 -1.993677,1.685802 -1.993677,1.402498 0,-0.158279 -0.188747,-0.347422 -0.504879,-0.505395 l -0.30024,-0.150379 0.302824,-0.05943 c 2.196805,-0.432196 1.667594,-2.312312 -0.722953,-2.568319 -1.96648,-0.210593 -2.497607,2.234614 -0.552938,2.545581 0.310777,0.0497 0.149494,0.119623 -0.279053,0.120923 -0.631773,0.0019 -0.990637,0.182618 -0.990637,0.499194 0,0.375373 0.424975,0.597334 1.051099,0.548804 1.42084,-0.110127 1.58995,-0.07994 0.68988,0.124023 -3.39467,0.769258 -6.468443,-1.138968 -7.663098,-4.757849 -0.406048,-1.2300049 -0.638098,-1.7483489 -0.944645,-1.666565 -0.650374,0.1735133 -0.371568,2.722587 0.623856,4.145241 2.436307,3.481956 8.18469,4.59889 11.357841,1.547435 0.475113,-0.45689 0.52203,-0.489411 0.54622,-0.380855 0.01455,0.0653 0.106175,0.64464 0.203605,1.28726 0.09743,0.642616 0.23916,1.545589 0.31471,2.006595 0.647755,3.952437 -0.92409,8.28822 -3.29489,9.088851 -1.70893,0.577117 -1.811686,-1.265816 -0.173116,-3.105753 0.296475,-0.332908 0.54845,-0.669339 0.6165,-0.823206 0.06331,-0.143155 0.257583,-0.417352 0.431498,-0.609265 0.931036,-1.027358 0.528935,-2.048213 -0.459403,-1.166337 -0.168536,0.150383 -0.314611,0.273368 -0.324011,0.273368 -0.0094,0 -0.151096,-0.06162 -0.315227,-0.136942 -1.291469,-0.59268 -2.403183,0.577569 -2.276863,2.39727 0.07257,1.045371 0.06747,1.0877 -0.173633,1.48673 -0.535339,0.886023 -0.356117,2.163472 0.326078,2.32699 0.21254,0.05095 0.272076,0.111011 0.401009,0.40256 0.248096,0.560985 0.784923,0.723018 1.175123,0.355017 0.774567,-0.730515 -0.126446,0.314037 -1.528073,1.771468 -5.149531,5.354551 -8.319764,10.878357 -9.301757,16.207796 l -0.0925,0.503328 -0.466638,0.216525 c -1.214633,0.563748 -2.51588,0.941657 -3.728455,1.083138 -7.025684,0.819737 -12.378968,-4.51408 -11.1347208,-11.094413 0.5555873,-2.938288 1.5223088,-4.963375 4.2193808,-8.839254 2.253045,-3.237781 4.264123,-5.921268 5.563485,-7.422803 2.177293,-2.516067 2.159207,-2.94518 -0.292489,-7.02076 -1.413349,-2.349482 -1.507266,-2.543031 -1.289327,-2.655135 0.458695,-0.235949 0.640468,-0.779292 0.47439,-1.4195519 -0.09337,-0.3599654 -0.124549,-0.3579502 0.545703,-0.035657 1.121845,0.5394449 2.467817,1.3810979 3.202905,2.0024619 1.557005,1.316128 1.667722,1.256562 3.533118,-1.8892905 C 26.11324,7.8525446 26.028283,7.813044 26.459767,7.1083732 26.729421,6.667994 26.823061,6.4249004 27.089312,5.9438198 28.51483,3.633857 30.744213,2.3961883 33.076026,2.2696255 Z M 45.002938,14.122135 c 0.09243,0 0.274001,0.190637 0.605131,0.635104 0.472903,0.634767 0.500385,0.644444 1.200443,0.412894 2.90631,-0.961285 6.370489,-0.0063 8.779826,2.420525 0.804385,0.810228 0.937872,0.882168 1.586983,0.857828 1.060427,-0.03976 1.117762,-0.03737 1.117762,0.04134 0,0.172156 -0.222339,0.20746 -1.079521,0.1726 l -0.825789,-0.03359 v 0.27957 c 0,0.433793 -0.146569,3.538406 -0.204639,4.332552 -1.27623,17.453473 -11.262089,34.547683 -20.786328,35.582841 -4.392175,0.47737 -8.80919,-1.861615 -9.440251,-4.998662 -1.208064,-6.005376 0.557183,-12.509589 5.019849,-18.497579 1.114879,-1.49594 1.811054,-2.302813 3.745508,-4.339786 1.903067,-2.003922 2.774263,-3.012256 2.84427,-3.292823 0.05775,-0.2314 0.223367,-0.454922 0.77153,-1.039729 0.654796,-0.698575 1.001608,-1.148532 1.338936,-1.737879 0.429877,-0.751037 0.407506,-0.738365 1.551326,-0.86403 1.931601,-0.212212 2.424809,-0.668551 2.030367,-1.876888 -0.237297,-0.726957 -0.344618,-2.068377 -0.214973,-2.684591 l 0.04082,-0.193269 0.167948,0.147794 c 0.104909,0.09211 0.299783,0.182349 0.517798,0.239779 0.464767,0.122425 0.699233,0.243295 0.832507,0.430465 0.373949,0.525159 1.523938,0.549415 1.523938,0.03204 0,-0.168951 -0.258307,-0.583496 -0.372587,-0.597896 -0.03251,-0.0041 0.10432,-0.02287 0.304375,-0.04134 1.343526,-0.124027 1.16395,-1.708228 -0.287321,-2.533695 -1.348392,-0.766949 -2.595282,0.395648 -1.583883,1.476912 l 0.234094,0.250631 -0.201538,-0.04238 c -0.28876,-0.06085 -0.709102,-0.03297 -0.886767,0.05891 -0.185517,0.09594 -0.186131,0.08643 -0.02015,-0.413412 0.296861,-0.894017 0.79884,-1.554369 1.228349,-1.616439 1.556892,-0.224992 1.881051,-1.022269 0.828889,-2.038635 -0.373374,-0.360671 -0.490463,-0.529167 -0.366902,-0.529167 z m -32.001148,33.46049 0.547771,0.283704 c 0.301176,0.156038 0.890381,0.424672 1.30948,0.596863 0.4191,0.172191 0.778785,0.329006 0.799435,0.348816 0.02065,0.01981 -0.296448,0.401031 -0.704867,0.846976 C 11.899843,52.993351 9.6792272,56.511941 8.3829508,60.070752 8.1824627,60.621173 8.1585242,60.655275 8.2046672,60.325 8.7595867,56.353095 11.434525,49.06604 12.818339,47.756258 Z m 16.276009,11.51506 c 0.0073,-0.0073 0.492008,0.146837 1.077454,0.343131 1.096468,0.367633 1.771668,0.552834 2.018482,0.553455 1.43434,0.0036 -3.837219,4.494891 -7.100859,6.04976 -0.77114,0.367387 -1.346171,0.610517 -1.346171,0.568957 0,-0.0177 0.303849,-0.342719 0.675411,-0.721919 1.502861,-1.533765 3.049881,-3.708426 4.210079,-5.919019 0.248566,-0.473606 0.458304,-0.867065 0.465604,-0.874365 z"
           sodipodi:nodetypes="ssccssssscsscssccccccsssssscccsssccccccsscssssssscssssssccssssssssssssscssscccsscssssssssscssscsscsssscscccssssssssssscsscssssscscssssssssscccsssscscccsssssccsscssscssssssssss" /><path
           style="fill:#000101"
           d="m 29.89549,11.26482 c -0.23634,-0.203291 -0.235555,-0.797375 0.0014,-1.034296 0.316814,-0.3168142 0.938742,0.0235 0.938742,0.513675 0,0.481806 -0.599357,0.813723 -0.940108,0.520621 z"
           id="path1472" /><path
           style="fill:#000101"
           d="m 11.973253,44.143872 c -0.413701,-0.325417 -0.141999,-0.63815 1.234746,-1.421209 4.390516,-2.497218 8.375367,-8.128763 5.180126,-7.320754 -1.477802,0.373705 -6.035108,4.007842 -6.648397,5.301638 -0.321811,0.678893 -1.20805,0.698168 -1.194069,0.02597 0.02282,-1.097317 4.178996,-4.950568 6.666676,-6.170016 2.633999,-1.291173 4.304052,0.379805 3.052902,3.013912 -1.299957,2.736863 -7.211042,7.420728 -8.291984,6.570459 z"
           id="path1471"
           sodipodi:nodetypes="ssssssss" /><path
           style="fill:#000101"
           d="m 18.95133,46.710111 c -0.577119,-3.270877 0.183332,-5.983524 1.230797,-8.540703 1.838211,-4.487632 5.331635,-3.025829 4.781163,1.828173 -0.279349,2.463262 -1.725979,6.179616 -2.447164,6.212689 -0.562669,0.0258 -0.513768,-0.440433 0.180925,-2.065073 1.166091,-2.727073 1.540091,-4.967549 1.07853,-6.461019 -1.022979,-3.310049 -3.779599,1.756552 -4.012795,7.375419 -0.04921,1.185714 -0.104901,1.553755 -0.260366,1.720626 -0.236268,0.283729 -0.49813,0.230044 -0.55109,-0.07011 z"
           id="path1470"
           sodipodi:nodetypes="sssssssss" /><path
           style="fill:#000101"
           d="m 28.698091,55.325104 c -0.405538,-0.405537 -0.131772,-0.85899 0.816707,-1.35276 2.541084,-1.322863 6.027298,-8.237981 3.880617,-7.69744 -1.895705,0.477344 -5.190264,4.484093 -5.683979,6.912693 -0.335202,1.64887 -1.335894,0.940088 -1.044891,-0.740088 0.459191,-2.651252 4.256311,-6.824541 6.658253,-7.317865 2.851557,-0.585668 2.352085,4.028717 -0.838046,7.7423 -1.687617,1.96453 -3.259498,2.982323 -3.788661,2.45316 z"
           id="path1466" /><path
           style="fill:#000101"
           d="m 35.87537,57.08505 c -1.64742,-1.753598 1.948651,-11.00423 4.372061,-11.246811 2.656207,-0.265883 2.832275,5.937826 0.266981,9.407016 -1.658144,2.242402 -2.342758,1.577415 -0.900014,-0.874213 1.825529,-3.102086 2.152855,-5.715778 0.881423,-7.038145 -0.400234,-0.416268 -0.343185,-0.417154 -0.688877,0.0107 -1.598896,1.978922 -3.024173,5.803954 -3.180025,8.534269 -0.06838,1.1979 -0.344142,1.640847 -0.751549,1.207182 z"
           id="path1465" /><path
           style="fill:#000101"
           d="m 49.426138,38.65638 c -0.649645,-0.695448 -1.791796,-5.380746 -1.708359,-7.007982 0.186561,-3.638433 5.038018,-1.290329 5.038018,2.4384 0,1.932267 -0.877714,1.879312 -1.198049,-0.07228 -0.203132,-1.237547 -0.751747,-2.170782 -1.542893,-2.624576 -1.154089,-0.661975 -1.294707,0.548067 -0.463938,3.992259 0.531526,2.203597 0.622478,3.184396 0.314375,3.390122 -0.120688,0.08058 -0.299725,0.03332 -0.439154,-0.11594 z"
           id="path1467" /><path
           style="fill:#000101"
           d="m 51.786091,19.715939 c -0.47952,-0.292409 -0.516959,-0.862649 -0.07614,-1.159715 0.33546,-0.226067 0.755916,-0.10936 0.921724,0.255844 0.282204,0.621573 -0.295624,1.239232 -0.845582,0.903871 z"
           id="path1468" /></g></g></g></svg>
