<?xml version="1.0" encoding="UTF-8" standalone="no"?>
<!-- Created with Inkscape (http://www.inkscape.org/) -->

<svg
   width="70mm"
   height="70mm"
   viewBox="0 0 70 70"
   version="1.1"
   id="svg1"
   xml:space="preserve"
   inkscape:export-filename="Otter.png"
   inkscape:export-xdpi="500"
   inkscape:export-ydpi="500"
   inkscape:version="1.3.2 (091e20e, 2023-11-25)"
   sodipodi:docname="Otter.svg"
   xmlns:inkscape="http://www.inkscape.org/namespaces/inkscape"
   xmlns:sodipodi="http://sodipodi.sourceforge.net/DTD/sodipodi-0.dtd"
   xmlns="http://www.w3.org/2000/svg"
   xmlns:svg="http://www.w3.org/2000/svg"
   xmlns:inkstitch="http://inkstitch.org/namespace"><sodipodi:namedview
     id="namedview1"
     pagecolor="#ffffff"
     bordercolor="#000000"
     borderopacity="0.25"
     inkscape:showpageshadow="2"
     inkscape:pageopacity="0.0"
     inkscape:pagecheckerboard="0"
     inkscape:deskcolor="#d1d1d1"
     inkscape:document-units="mm"
     inkscape:zoom="2.8284271"
     inkscape:cx="105.00536"
     inkscape:cy="156.9777"
     inkscape:window-width="1920"
     inkscape:window-height="955"
     inkscape:window-x="0"
     inkscape:window-y="25"
     inkscape:window-maximized="0"
     inkscape:current-layer="layer2" /><metadata
     id="metadata175"><inkstitch:min_stitch_len_mm>0</inkstitch:min_stitch_len_mm><inkstitch:collapse_len_mm>3</inkstitch:collapse_len_mm><inkstitch:inkstitch_svg_version>1</inkstitch:inkstitch_svg_version></metadata><defs
     id="defs1" /><g
     inkscape:groupmode="layer"
     id="layer2"
     inkscape:label="Layer 1"><g
       id="g176"><g
         id="g607"
         style="display:inline;fill:#f6d1a8"><path
           style="fill:#f6d1a8;fill-rule:evenodd"
           d="m 48.666397,21.08701 c -1.080395,-0.239095 -1.707953,-0.65257 -2.089374,-1.376611 l -0.120426,-0.2286 9.42e-4,-2.0574 c 0.001,-2.21437 0.03381,-2.600893 0.252115,-2.9718 0.221014,-0.3755 0.475895,-0.573805 0.859033,-0.668354 0.549387,-0.135575 0.629931,0.0054 0.352638,0.617043 -0.353476,0.779735 -0.129832,1.539733 0.555253,1.886892 0.816643,0.413824 1.771782,0.115545 2.125786,-0.66386 0.204554,-0.450363 0.07835,-1.149493 -0.296032,-1.639965 l -0.180258,-0.23615 0.120355,-0.09746 c 0.09701,-0.07856 0.180673,-0.09362 0.43139,-0.07765 0.293063,0.01866 0.349433,0.04538 0.975572,0.462458 0.722612,0.481337 0.848834,0.544142 1.093013,0.543855 0.196314,-2.3e-4 0.390816,-0.114583 0.833169,-0.489844 0.454555,-0.38561 0.814552,-0.5481 1.218384,-0.549935 0.173228,-7.87e-4 0.340402,0.02401 0.371499,0.05511 0.112318,0.112317 0.06716,0.351186 -0.119544,0.632386 -0.301216,0.453664 -0.332592,0.992154 -0.08149,1.398454 0.303483,0.491045 0.868613,0.783532 1.510375,0.781704 0.472938,-0.0013 0.720163,-0.09965 0.982563,-0.390704 0.25083,-0.278218 0.3148,-0.500447 0.288469,-1.002128 -0.01736,-0.330657 -0.04987,-0.466198 -0.158437,-0.660444 -0.162997,-0.291634 -0.177365,-0.511017 -0.03834,-0.585421 0.38782,-0.207555 1.078947,0.219457 1.250343,0.772522 0.08766,0.282855 0.166164,2.065137 0.172366,3.913118 l 0.003,0.902828 -0.206172,0.410056 c -0.120387,0.239438 -0.302275,0.503457 -0.437141,0.634532 -0.256054,0.248857 -0.795069,0.52939 -1.261687,0.656653 -0.33042,0.09012 -1.858697,0.164357 -2.172299,0.105525 -0.377937,-0.0709 -1.0535,-0.866379 -1.0535,-1.2405 0,-0.234928 0.234945,-0.451996 0.89026,-0.822521 0.900124,-0.508944 1.484776,-1.098612 1.535505,-1.548679 0.08702,-0.772002 -0.368913,-1.087499 -1.73731,-1.202197 -0.709021,-0.05943 -3.086201,0.01145 -3.823545,0.114005 -0.832296,0.115762 -1.101851,0.323506 -1.236913,0.953278 -0.129861,0.60552 0.130067,0.913321 1.274996,1.509824 0.42477,0.221303 0.824359,0.45051 0.887977,0.509349 0.167375,0.154804 0.260215,0.606167 0.176719,0.859163 -0.08626,0.261371 -0.431355,0.626829 -0.710889,0.752837 -0.338784,0.152717 -1.817054,0.176137 -2.4384,0.03863 z"
           id="path609"
           inkstitch:angle="90"
           inkstitch:ties="3"
           inkstitch:lock_start="simple"
           inkstitch:lock_end="simple" /><path
           style="fill:#f6d1a8;fill-rule:evenodd"
           d="m 38.21174,57.809296 c -0.631339,-0.09197 -1.170567,-0.403483 -1.281787,-0.740484 -0.0936,-0.283618 0.01013,-0.541341 0.479726,-1.191913 1.631126,-2.259724 3.261326,-4.509359 3.53128,-4.873077 0.655992,-0.88384 1.330521,-2.145128 1.854125,-3.466991 0.386725,-0.976308 0.963914,-2.663923 1.198079,-3.503008 0.52737,-1.889732 1.137189,-4.000952 1.206865,-4.178226 0.128842,-0.327804 0.309899,-0.587199 0.409862,-0.587199 0.160992,0 0.48978,0.333505 1.195899,1.213057 1.508626,1.879168 2.28448,2.437562 3.311916,2.383635 0.521229,-0.02736 0.814549,-0.1813 1.023842,-0.537343 0.127075,-0.216175 0.140689,-0.285249 0.137406,-0.69715 -0.0044,-0.550562 -0.05898,-0.761308 -0.584611,-2.256944 -0.595625,-1.694793 -0.763824,-2.134354 -1.138561,-2.975455 -1.702791,-3.821937 -2.164319,-5.116671 -2.317879,-6.5024 -0.09883,-0.891887 -0.08727,-2.469589 0.02103,-2.8702 0.269316,-0.996189 0.825124,-1.541942 1.788467,-1.756111 0.265385,-0.059 0.884002,-0.09098 2.4384,-0.126053 1.14554,-0.02585 2.25425,-0.0705 2.4638,-0.09923 0.873032,-0.119692 2.148386,-0.510357 3.200399,-0.980342 0.555162,-0.248018 0.738859,-0.307188 0.964337,-0.310621 l 0.278537,-0.0042 0.06711,0.202896 c 0.12878,0.389327 0.213522,4.007138 0.110548,4.719527 -0.06151,0.425523 -0.247063,0.859646 -1.370414,3.206204 -0.468309,0.978246 -0.913404,1.926936 -0.9891,2.1082 -0.0757,0.181265 -0.418743,0.912502 -0.762326,1.624972 -0.784245,1.626252 -1.579479,3.491699 -1.936858,4.543447 -0.311515,0.916775 -0.407642,1.742434 -0.243205,2.088958 0.100449,0.211681 0.479005,0.566819 0.64992,0.609716 0.07005,0.01758 0.35303,0.02407 0.628852,0.01442 0.452567,-0.01583 0.533153,-0.03415 0.825964,-0.187767 0.440667,-0.231185 0.806734,-0.520833 1.497469,-1.184867 0.55826,-0.536679 0.583963,-0.554673 0.583963,-0.40881 0,0.181546 -0.20806,1.001329 -0.389658,1.535301 -0.287666,0.845857 -1.082115,2.653943 -1.358435,3.091661 -0.07579,0.120056 -0.309709,0.528515 -0.519824,0.907687 -0.558291,1.007487 -2.187365,3.405427 -3.010624,4.431534 -1.474309,1.837572 -4.295861,3.964281 -6.706095,5.054634 -1.949482,0.881916 -4.276436,1.51781 -6.227162,1.701717 -0.61279,0.05777 -0.640477,0.05779 -1.031258,8.66e-4 z"
           id="path608"
           inkstitch:angle="90"
           inkstitch:ties="3"
           inkstitch:lock_start="simple"
           inkstitch:lock_end="simple" /></g><g
         id="g2410"
         style="display:inline;fill:#664f4c"><path
           style="display:inline;fill:#664f4c;fill-rule:evenodd"
           d="m 23.388739,61.143302 c -0.430475,-0.08287 -0.682888,-0.194739 -0.776074,-0.343953 -0.03772,-0.06041 -0.07995,-0.23758 -0.09383,-0.393715 -0.03241,-0.364537 0.04021,-0.45995 0.632595,-0.831158 1.622222,-1.016531 2.059828,-1.300839 2.423525,-1.574536 1.565078,-1.177789 1.803735,-1.496264 1.47918,-1.97389 -0.137062,-0.201705 -0.50319,-0.452715 -0.815934,-0.559389 -0.244576,-0.08342 -1.854312,-0.09047 -6.070599,-0.02659 -3.04845,0.04619 -3.439771,0.02399 -3.830049,-0.217211 -0.175497,-0.108462 -0.335551,-0.370603 -0.335551,-0.549571 0,-0.157059 0.205621,-0.421326 0.534551,-0.687012 0.294558,-0.237923 1.322763,-0.894155 1.96782,-1.255923 0.174366,-0.09779 0.457883,-0.316537 0.630037,-0.486105 0.270464,-0.2664 0.317982,-0.341468 0.349597,-0.552296 0.04682,-0.312192 -0.03502,-0.678258 -0.251815,-1.126424 -0.174624,-0.360984 -0.214895,-0.416108 -0.948581,-1.298422 -0.501972,-0.603662 -1.131958,-1.488555 -1.532679,-2.152841 -0.49822,-0.82591 -1.297588,-2.368836 -1.63037,-3.146912 -0.390027,-0.911918 -0.890726,-2.423791 -1.127198,-3.4036 -0.162518,-0.673384 -0.804492,-3.988449 -0.964984,-4.983041 -0.225027,-1.394527 -0.179325,-3.740758 0.105789,-5.430958 0.193235,-1.145529 0.951596,-3.57258 1.468257,-4.699 0.160193,-0.34925 0.321754,-0.718761 0.359025,-0.821135 0.09843,-0.27037 1.550882,-2.542403 2.056551,-3.217012 0.573747,-0.765432 1.392021,-1.675682 1.96046,-2.180823 0.545732,-0.484962 2.502642,-1.987252 3.29734,-2.531318 1.718545,-1.17655 3.355993,-2.03328 5.552474,-2.905112 2.811344,-1.115883 5.493843,-1.767746 8.366725,-2.033163 1.846609,-0.170602 3.879251,-0.227088 4.635774,-0.128826 0.625667,0.08127 1.232472,0.463866 1.231149,0.776258 -6.47e-4,0.15259 -0.278025,0.626358 -0.421914,0.720638 -0.235332,0.154196 -0.751822,0.292409 -2.092209,0.559876 -3.928239,0.783861 -6.638018,1.761646 -8.748379,3.156727 -1.734972,1.146925 -3.44956,2.90382 -4.752816,4.870091 -0.644944,0.97305 -1.017687,1.782809 -1.473185,3.200399 -0.931723,2.899681 -1.022075,5.863765 -0.260149,8.5344 0.168787,0.591614 0.968632,2.583696 1.325793,3.302 0.509122,1.023917 1.199756,1.963427 2.197874,2.989898 0.691459,0.711099 1.252017,1.146381 1.924405,1.494328 0.573723,0.296891 0.920043,0.420213 1.747461,0.622261 0.886605,0.216501 1.521297,0.271342 2.732098,0.236067 1.879717,-0.05476 3.200982,-0.431773 4.465603,-1.274218 0.915528,-0.609892 2.337198,-1.918904 2.907511,-2.677109 1.253742,-1.666796 2.317983,-4.112257 2.678454,-6.154674 0.24778,-1.403915 0.306394,-2.377078 0.34339,-5.701353 0.03227,-2.899164 -0.02555,-5.19376 -0.159376,-6.325427 -0.107826,-0.911798 -0.25652,-1.405696 -0.902095,-2.996372 -0.521358,-1.28461 -0.566231,-1.433428 -0.56944,-1.8885 -0.0047,-0.673394 0.224279,-0.846492 1.192959,-0.901631 0.697937,-0.03973 0.70298,-0.04252 1.050206,-0.581288 0.248268,-0.385222 0.800935,-0.961691 1.236911,-1.290183 0.339069,-0.255475 0.746205,-0.445153 1.55161,-0.722868 1.499814,-0.517158 2.875852,-0.712105 5.018641,-0.711006 2.626392,0.0013 4.365416,0.373149 5.677374,1.213815 0.668814,0.428556 0.980925,0.811998 1.337528,1.64321 0.211115,0.492091 0.443486,0.74959 0.675688,0.748755 0.07586,-2.73e-4 0.260217,-0.05742 0.409676,-0.127 0.340143,-0.158345 0.724422,-0.169193 0.957574,-0.02703 0.438989,0.267668 0.322417,1.213399 -0.317413,2.575106 -0.730944,1.555622 -0.760345,1.806045 -0.810248,6.901221 -0.0474,4.840099 -0.115343,6.540681 -0.459672,11.506199 -0.07471,1.077316 -0.241435,2.266885 -0.482079,3.439513 -0.191332,0.932332 -0.711689,2.883148 -0.986368,3.697886 -0.342058,1.014594 -1.160191,3.0204 -1.530923,3.753346 -0.568561,1.124054 -2.163333,3.658087 -3.002681,4.771147 -0.689399,0.914211 -1.501299,1.926342 -1.963958,2.448307 -1.290604,1.456042 -3.012188,2.684644 -5.442775,3.884215 -1.37592,0.67906 -1.759148,0.836504 -3.2258,1.325278 -3.599599,1.199597 -5.429236,1.607341 -9.226508,2.056178 -0.83473,0.09866 -1.734861,0.216313 -2.000291,0.26144 -0.532599,0.09055 -0.569439,0.0923 -3.5052,0.16672 -3.966524,0.100548 -5.378877,0.108703 -5.770459,0.03332 z m 21.442258,-4.20181 c 0.722224,-0.28437 2.082893,-0.96253 2.794,-1.392537 1.573294,-0.951371 3.57347,-2.58311 4.580668,-3.736898 0.6879,-0.788018 2.47182,-3.302452 3.104267,-4.375462 0.940342,-1.595384 1.413987,-2.535014 1.928016,-3.824843 0.833922,-2.092524 0.960629,-3.3274 0.341415,-3.3274 -0.151562,0 -0.252811,0.07612 -0.821813,0.617811 -0.8549,0.813873 -1.245538,1.133008 -1.609567,1.314946 -0.259878,0.129884 -0.356643,0.150043 -0.720202,0.150043 h -0.419987 l -0.156099,-0.189374 c -0.174875,-0.212154 -0.192042,-0.367107 -0.102836,-0.928226 0.122597,-0.771159 1.029028,-3.051741 2.089744,-5.257799 0.308985,-0.64262 0.705051,-1.48844 0.880149,-1.8796 0.175097,-0.39116 0.630997,-1.361677 1.01311,-2.156704 0.757826,-1.576738 1.20058,-2.556036 1.298695,-2.872496 0.151654,-0.489144 0.09747,-4.628269 -0.06874,-5.250881 -0.0862,-0.322885 -0.295809,-0.555304 -0.553163,-0.613347 -0.293562,-0.06621 -0.665473,0.02477 -1.349973,0.330238 -0.825885,0.368563 -1.947926,0.739738 -2.741596,0.906929 -0.567247,0.119494 -0.731198,0.13143 -1.8288,0.133147 -1.607848,0.0025 -3.044565,0.07417 -3.542491,0.176687 -1.124724,0.231562 -1.86908,0.963202 -2.19574,2.158227 -0.07419,0.27143 -0.08981,0.529114 -0.08774,1.4478 0.0057,2.533518 0.175466,3.108206 2.461,8.3312 0.256752,0.58674 0.577004,1.38684 0.711672,1.778 0.134668,0.39116 0.369873,1.06553 0.522679,1.4986 0.467427,1.324747 0.542833,1.889798 0.288345,2.160688 -0.270683,0.288129 -0.849943,0.296036 -1.412125,0.01927 -0.447745,-0.220425 -1.115021,-0.869475 -1.901704,-1.849764 -1.028226,-1.281276 -1.333212,-1.549399 -1.762414,-1.549399 -0.425782,0 -0.756372,0.494614 -1.06954,1.600199 -0.08706,0.30734 -0.292734,1.02743 -0.45706,1.6002 -0.164327,0.57277 -0.392047,1.377591 -0.506045,1.788491 -0.454187,1.637088 -1.265181,3.841275 -1.81978,4.945952 -0.515521,1.02684 -0.768721,1.422672 -1.966292,3.07395 -0.636697,0.877914 -1.597198,2.201997 -2.134445,2.942407 -0.537248,0.74041 -1.025886,1.443281 -1.085861,1.561937 -0.242213,0.479199 -0.168992,1.048182 0.181305,1.408871 0.235504,0.242491 0.837916,0.525794 1.31031,0.616214 0.469256,0.08982 1.242237,0.05297 2.312838,-0.110242 z M 50.872141,21.63278 c 0.165409,-0.02772 0.40242,-0.09819 0.526691,-0.156599 0.292757,-0.137612 0.676775,-0.52387 0.829751,-0.834591 0.23801,-0.483443 0.106689,-1.300495 -0.258398,-1.607695 -0.0754,-0.06345 -0.46346,-0.284899 -0.862355,-0.492119 -0.888424,-0.461524 -1.140654,-0.667117 -1.131074,-0.921938 0.01693,-0.450374 0.168639,-0.562376 0.879552,-0.649353 0.811877,-0.09933 2.877572,-0.161923 3.575889,-0.108355 1.006589,0.07722 1.3462,0.212115 1.3462,0.534731 0,0.337314 -0.449328,0.762106 -1.372477,1.297534 -0.810181,0.469905 -1.186082,0.939843 -1.085457,1.356996 0.117179,0.485779 0.722115,1.269296 1.162534,1.505722 0.189688,0.101828 0.274138,0.108979 1.27,0.107541 1.232607,-0.0018 1.440813,-0.0407 2.207219,-0.412625 0.638275,-0.309744 0.965804,-0.635429 1.294927,-1.287634 l 0.243535,-0.4826 -0.0307,-2.1844 c -0.03281,-2.334182 -0.07189,-2.760836 -0.29361,-3.204781 -0.244206,-0.488975 -0.864722,-0.884751 -1.386646,-0.884429 -0.738512,4.56e-4 -1.06206,0.622841 -0.686522,1.32061 0.119325,0.221711 0.150221,0.342334 0.149636,0.5842 -8.83e-4,0.365017 -0.06888,0.515823 -0.30478,0.675909 -0.153431,0.104123 -0.225174,0.117806 -0.537607,0.102529 -0.293802,-0.01437 -0.406475,-0.04602 -0.608641,-0.171014 -0.541326,-0.334676 -0.619181,-0.724192 -0.262711,-1.314356 0.173447,-0.287157 0.215103,-0.402629 0.211846,-0.587254 -0.0081,-0.461378 -0.270162,-0.729867 -0.773693,-0.792779 -0.502759,-0.06282 -1.016691,0.118125 -1.575708,0.554762 -0.56688,0.442778 -0.635252,0.490803 -0.698745,0.490803 -0.03591,0 -0.289688,-0.153238 -0.563947,-0.34053 -0.818593,-0.559016 -1.077597,-0.67547 -1.502306,-0.67547 -0.432859,0 -0.759891,0.135428 -0.906121,0.375235 -0.152682,0.250387 -0.123712,0.437189 0.124061,0.799959 0.121488,0.177873 0.249871,0.411796 0.285294,0.519828 0.08587,0.26189 0.04377,0.643376 -0.09205,0.834128 -0.248394,0.348837 -0.873343,0.472904 -1.312133,0.26049 -0.474616,-0.229758 -0.584546,-0.654872 -0.326283,-1.261782 0.195921,-0.460408 0.237095,-0.702453 0.159492,-0.937592 -0.07068,-0.214174 -0.261111,-0.36436 -0.524679,-0.413806 -0.280244,-0.05257 -0.807933,0.06531 -1.110896,0.248164 -0.329367,0.198794 -0.722195,0.701315 -0.830007,1.061778 -0.132232,0.442114 -0.186222,1.502612 -0.168984,3.319302 l 0.01636,1.724568 0.167632,0.34034 c 0.297464,0.603937 0.875748,1.126364 1.546842,1.397431 0.911888,0.368328 2.146183,0.487232 3.20907,0.309142 z"
           id="path1996"
           sodipodi:nodetypes="ssssssssssssssssssssssssssssssssssssssssssssssscsssscsssssssssssssssssssscsssssssscsssssssssscsssssssssssssssssssccscsssssssssscsscssssssssscsssssssscssssssscssss"
           inkstitch:ties="3" /></g><g
         id="g605"
         style="display:inline;stroke-width:0.5;stroke-dasharray:none"><g
           id="g2416"><path
             id="path1"
             style="fill:none;stroke:#050606;stroke-width:1px"
             transform="scale(0.264583, 0.264583)"
             d="m 46.81092,125.77753 0.146311,2.43272 -0.128702,0.38067 0.137558,0.68122 -0.08909,0.2589 0.253875,3.16982 1.319104,7.88734 2.74967,13.70697 2.330869,7.77599 0.183917,0.21626 0.140567,0.6862 0.21315,0.24929 0.139803,0.6862 0.21385,0.24909 0.139118,0.68657 0.246383,0.28573 0.484551,1.58395 0.248872,0.28125 0.116767,0.58594 0.317967,0.35666 0.110128,0.54615 0.316838,0.35735 0.111423,0.54554 0.366573,0.41573 0.506579,1.34826 0.743488,1.20388 0.118891,0.58496 0.382264,0.42708 0.09325,0.45221 0.380929,0.42764 0.09448,0.45184 0.379856,0.42828 0.09564,0.45096 0.378489,0.4289 0.07836,0.3647 0.892836,1.31021 0.09725,0.46883 0.421641,0.4693 0.08026,0.39427 0.466877,0.51698 0.05519,0.2602 2.308151,3.45373 5.877253,7.47664 0.08617,0.39858 0.429517,0.47895 0.09849,0.47095 0.277948,0.31547 0.599726,2.29404 0.01287,0.48276 -0.108751,0.28215 -1.082884,1.01187 -2.227678,1.58808 -3.586255,2.10112 -3.230432,2.26088 -1.640979,1.42081 -0.128165,0.29071 -0.477544,0.3564 -0.793606,1.82619 0.414156,2.02136 1.270269,1.66625 0.503227,0.19252 0.224197,0.2713 2.077276,0.7668 0.384381,-0.0656 0.503484,0.18657 0.490604,-0.0876 0.503367,0.19076 0.578773,-0.10825 0.419789,0.15577 0.588574,-0.10687 0.333515,0.12051 2.615429,-0.0867 0.403097,0.14321 0.66937,-0.12004 0.32989,0.11618 0.669199,-0.11913 0.330033,0.11527 0.669087,-0.11815 0.262591,0.0909 5.659525,-0.16524 0.383845,0.13143 0.681927,-0.11984 0.316315,0.10858 0.681735,-0.12012 0.316527,0.10898 0.681768,-0.12046 0.316616,0.10917 0.681576,-0.12074 0.316827,0.10948 0.681188,-0.12101 0.316916,0.10987 0.681417,-0.12136 0.31706,0.11005 0.681169,-0.12156 0.317215,0.11028 0.680864,-0.12182 0.31857,0.11106 0.679662,-0.12186 0.320351,0.11185 0.67801,-0.12178 0.320381,0.11193 0.677958,-0.1219 0.320593,0.11203 0.67762,-0.12196 0.320861,0.11225 0.67751,-0.12218 0.320812,0.1123 0.677597,-0.12221 0.321083,0.11233 0.657192,-0.11866 0.340475,0.12058 0.650459,-0.11895 0.350391,0.12603 0.647134,-0.12002 0.332756,0.12124 1.549412,-0.0632 0.544012,0.19657 0.466884,-0.0816 1.070113,0.42906 0.223291,0.26106 0.511592,0.18949 0.61511,0.72259 -0.42368,0.72731 -3.561784,3.0309 -3.939196,2.81851 -8.148479,5.16649 -1.24561,1.49643 -0.278286,1.90941 0.393855,1.86727 0.401173,0.93499 0.711893,0.65747 0.805082,0.59405 1.851754,0.55315 2.886556,0.41284 1.4479,-0.0663 0.487291,0.13869 2.526339,-0.14226 0.511204,0.14215 0.56578,-0.1328 0.433671,0.12099 0.562354,-0.13416 0.437514,0.1222 0.558424,-0.13543 0.441191,0.1235 0.567867,-0.13994 0.43161,0.12028 0.568244,-0.14128 0.431673,0.11921 0.56426,-0.14124 0.43542,0.11932 0.56063,-0.14133 0.43905,0.11943 0.55693,-0.14143 0.44274,0.11952 0.55338,-0.14155 0.44167,0.11829 0.5542,-0.14306 0.44513,0.11863 0.5507,-0.14363 0.44872,0.1191 0.54719,-0.14406 0.45254,0.11953 0.54338,-0.14453 0.45617,0.12001 0.53974,-0.14495 0.45979,0.12042 0.53619,-0.14539 0.46358,0.12071 0.53961,-0.14772 0.45728,0.11937 0.54114,-0.14753 0.45599,0.11929 0.54261,-0.14744 0.45439,0.11906 0.54413,-0.14725 0.4531,0.11889 0.54543,-0.14712 0.37967,0.0998 1.54593,-0.17506 0.52017,0.13722 0.64974,-0.17319 1.41319,0.0691 0.48153,-0.13133 0.41193,0.11388 0.65069,-0.17995 0.34467,0.0932 0.78315,-0.21308 1.21887,-0.0147 16.86577,-2.23866 8.83951,-1.65456 9.65657,-2.50066 8.56597,-2.70882 5.70415,-2.05278 1.11441,-0.60203 0.71305,-0.16575 0.30962,-0.28134 0.59538,-0.1381 0.31086,-0.28199 0.59393,-0.13736 0.31235,-0.28267 0.56737,-0.13098 0.33281,-0.30325 0.56159,-0.12729 0.34054,-0.31308 0.47135,-0.10463 1.26467,-0.81193 0.50748,-0.11495 1.26139,-0.82559 0.55449,-0.12559 0.40185,-0.3676 0.47559,-0.10684 0.40269,-0.36867 0.47459,-0.10554 0.40383,-0.36998 0.4643,-0.10238 0.4579,-0.4209 0.37992,-0.0866 0.48469,-0.44283 0.36337,-0.0846 0.48745,-0.44167 0.36078,-0.086 0.57892,-0.5202 1.09077,-0.57277 2.47708,-1.74162 3.10666,-2.52511 2.95075,-2.69592 2.08273,-2.15748 3.8822,-4.61482 0.68497,-1.07941 0.56546,-0.49841 0.12681,-0.37395 0.47883,-0.41949 0.1263,-0.3761 0.47942,-0.41738 0.1258,-0.37828 0.47984,-0.41509 0.12529,-0.38053 0.48044,-0.41288 0.13559,-0.41599 0.4522,-0.38956 0.1403,-0.42591 0.44237,-0.38303 0.16694,-0.49835 0.98594,-1.16708 0.13333,-0.39863 0.40717,-0.35181 0.16644,-0.50271 0.38213,-0.33032 0.16886,-0.50707 0.37786,-0.32727 0.1703,-0.5077 0.37653,-0.32654 0.17173,-0.50857 0.37504,-0.32576 0.17325,-0.50933 0.37348,-0.32498 0.1747,-0.51001 0.37212,-0.32422 0.21644,-0.62764 0.85695,-1.12504 0.16855,-0.47999 0.31642,-0.28033 0.20157,-0.57365 0.31582,-0.27903 0.2377,-0.67601 0.81829,-1.11983 0.18539,-0.52954 0.25847,-0.22799 0.22635,-0.64528 0.20345,-0.17914 1.45415,-2.77059 2.41921,-5.48955 2.20953,-5.60195 1.34226,-3.73344 1.98507,-6.69252 1.63673,-6.96632 -0.0478,-0.28159 0.23914,-0.63444 -0.0576,-0.34696 0.23829,-0.63317 -0.0567,-0.34859 0.23706,-0.63179 -0.0662,-0.41639 0.57424,-2.54003 -0.0556,-0.34682 0.21849,-0.57428 -0.0795,-0.47418 0.19591,-0.5161 -0.0786,-0.47707 0.19418,-0.51364 -0.0774,-0.4783 0.19295,-0.51224 -0.0761,-0.47949 0.19196,-0.51113 -0.088,-0.56352 0.27952,-1.45817 -0.0754,-0.46916 0.16779,-0.44165 -0.0933,-0.57439 0.15997,-0.42081 -0.0928,-0.57583 0.15947,-0.41931 -0.0923,-0.57726 0.15908,-0.41792 -0.0918,-0.57877 0.15861,-0.41659 -0.0914,-0.58019 0.15808,-0.41491 -0.0909,-0.58177 0.15758,-0.41353 -0.0904,-0.58306 0.15722,-0.41221 -0.10553,-0.68549 0.22342,-1.40556 -0.0738,-0.48687 0.15034,-0.39356 -0.0919,-0.60317 0.15117,-0.39215 -0.0935,-0.60975 0.1496,-0.38588 -0.0951,-0.62058 0.14572,-0.37564 -0.0947,-0.62187 0.14545,-0.37421 -0.0944,-0.62337 0.14515,-0.37271 -0.0941,-0.62503 0.14473,-0.37126 -0.0936,-0.62617 0.14445,-0.3698 -0.0934,-0.62793 0.14403,-0.36836 -0.093,-0.62928 0.14362,-0.36684 -0.10941,-0.74558 0.18712,-1.34656 -0.0801,-0.5447 0.13296,-0.3366 -0.0985,-0.67048 0.12911,-0.32662 -0.098,-0.67201 0.12848,-0.32504 -0.0974,-0.67337 0.12801,-0.32361 -0.0969,-0.67506 0.12739,-0.32216 -0.0963,-0.67627 0.12694,-0.32079 -0.0959,-0.67782 0.12638,-0.31926 -0.0953,-0.67931 0.12579,-0.31775 -0.11235,-0.80768 0.15204,-1.30369 -0.0799,-0.57886 0.11259,-0.28432 -0.0984,-0.71665 0.11137,-0.28067 -0.0981,-0.717955 0.1112,-0.27935 -0.0979,-0.719439 0.11087,-0.277778 -0.0977,-0.721089 0.11047,-0.27628 -0.0973,-0.722273 0.11027,-0.274781 -0.097,-0.723924 0.10997,-0.273282 -0.0967,-0.725483 0.10968,-0.271892 -0.0964,-0.726814 0.10937,-0.270385 -0.0961,-0.728383 0.10943,-0.269897 -0.0956,-0.728846 0.0842,-0.207433 0.0749,-11.852055 0.15483,-1.333608 -0.0647,-0.545562 0.13235,-0.313358 -0.0816,-0.683478 0.13304,-0.31184 -0.11264,-0.93787 m -183.937162,50.229745 0.168489,2.80148 -0.0843,0.24933 0.138642,0.68658 -0.127908,0.3717 0.215925,2.69598 1.300696,7.77726 2.72633,13.59063 2.191731,7.31181 0.241483,0.28394 0.140033,0.6836 0.21385,0.25011 0.139397,0.6842 0.21455,0.24991 0.138682,0.68443 0.183217,0.21247 0.480849,1.57185 0.315328,0.35635 0.116033,0.58226 0.316433,0.35494 0.110672,0.54885 0.315162,0.35545 0.111977,0.54826 0.262827,0.29807 0.564021,1.50114 0.823912,1.33412 0.08391,0.41284 0.380336,0.42492 0.09374,0.45459 0.379071,0.42556 0.09492,0.45396 0.377944,0.42612 0.09616,0.45344 0.376711,0.4269 0.104443,0.4861 0.896764,1.31599 0.07015,0.33817 0.424159,0.4721 0.07974,0.39173 0.461323,0.51082 0.08521,0.4018 2.065649,3.09087 6.101547,7.76196 0.07243,0.33502 0.434083,0.48405 0.10031,0.47965 0.245052,0.27813 0.768274,2.93876 0.02873,1.07764 -0.400649,1.03945 -1.491316,1.39353 -2.398322,1.70972 -3.593345,2.10528 -3.088168,2.16132 -1.246421,1.07919 -0.157435,0.35709 -0.473256,0.3532 -0.355394,0.81781 0.207644,1.01344 0.682731,0.89555 0.465973,0.17828 0.216603,0.2621 1.125324,0.4154 0.385619,-0.0658 0.496116,0.18383 0.497996,-0.089 0.495633,0.18784 0.571827,-0.10695 0.424811,0.15763 0.580026,-0.10533 0.470685,0.17009 2.610171,-0.0865 0.267903,0.0952 0.66663,-0.11956 0.33111,0.11662 0.666601,-0.11867 0.331367,0.11573 0.666313,-0.11765 0.399009,0.13811 5.656275,-0.16516 0.248155,0.085 0.682673,-0.11996 0.315885,0.10842 0.682665,-0.12028 0.316073,0.10882 0.682232,-0.12054 0.316184,0.10903 0.682224,-0.12086 0.316373,0.10932 0.682212,-0.12119 0.316484,0.10973 0.681783,-0.12144 0.31674,0.10995 0.681631,-0.12164 0.316785,0.11012 0.681736,-0.12198 0.31823,0.11094 0.680138,-0.12194 0.320049,0.11175 0.67819,-0.12182 0.320219,0.11187 0.678042,-0.1219 0.320407,0.11197 0.67798,-0.12204 0.320539,0.11215 0.67769,-0.12222 0.320788,0.1123 0.677403,-0.12219 0.320917,0.11227 0.661008,-0.11934 0.338325,0.11982 0.655341,-0.11985 0.348009,0.12517 0.651266,-0.12078 0.466444,0.16996 1.546788,-0.0631 0.420188,0.15183 0.501516,-0.0876 2.000082,0.80194 0.20591,0.24074 0.51381,0.19031 1.29973,1.52682 0.1817,1.14256 -0.93866,1.61132 -3.868014,3.2915 -4.046804,2.89549 -7.942521,5.03591 -0.71499,0.85897 -0.152914,1.04919 0.285745,1.35473 0.168627,0.39301 0.339707,0.31373 0.456118,0.33655 1.401446,0.41865 2.571444,0.36776 1.5777,-0.0723 0.477509,0.13591 2.520461,-0.14194 0.345396,0.0961 0.56662,-0.133 0.430129,0.12001 0.562646,-0.13424 0.433886,0.1212 0.558976,-0.13557 0.437609,0.1225 0.566733,-0.13966 0.42959,0.11972 0.565956,-0.14072 0.430125,0.11879 0.56234,-0.14076 0.43378,0.11888 0.55877,-0.14087 0.43735,0.11897 0.55507,-0.14097 0.44106,0.11908 0.55142,-0.14105 0.43953,0.11771 0.553,-0.14274 0.44267,0.11797 0.5497,-0.14337 0.44648,0.1185 0.54601,-0.14374 0.45006,0.11887 0.54242,-0.14427 0.45383,0.11939 0.53866,-0.14465 0.45741,0.11978 0.53481,-0.14501 0.46122,0.12009 0.54019,-0.14788 0.45832,0.11963 0.54166,-0.14767 0.45681,0.11951 0.54299,-0.14756 0.45541,0.11934 0.54447,-0.14735 0.4539,0.11911 0.54597,-0.14728 0.52453,0.13795 1.54667,-0.17514 0.37823,0.0998 0.45026,-0.12001 1.40761,0.0689 0.69247,-0.18887 0.40847,0.11292 0.64531,-0.17845 0.34873,0.0943 0.52085,-0.14172 1.34633,-0.0163 16.70363,-2.21714 8.72669,-1.63344 9.54563,-2.47194 8.48303,-2.68258 5.53585,-1.99222 1.21279,-0.65517 0.48115,-0.11185 0.30998,-0.28166 0.59622,-0.1383 0.31134,-0.28241 0.59507,-0.13764 0.31265,-0.28293 0.56403,-0.13022 0.33579,-0.30595 0.55721,-0.12631 0.34386,-0.31612 0.63865,-0.14177 1.26113,-0.80967 0.49912,-0.11305 1.26141,-0.82561 0.39831,-0.0902 0.40315,-0.3688 0.47521,-0.10676 0.40431,-0.37013 0.47421,-0.10546 0.40517,-0.37122 0.4627,-0.10202 0.4527,-0.4161 0.38288,-0.0872 0.48111,-0.43957 0.36743,-0.0856 0.48355,-0.43813 0.36482,-0.087 0.39708,-0.3568 1.19143,-0.62563 2.32312,-1.63338 3.01314,-2.44909 2.86665,-2.61908 1.99667,-2.06832 3.759,-4.46838 0.76123,-1.19959 0.38914,-0.34299 0.12779,-0.37685 0.47657,-0.41751 0.1273,-0.3791 0.47718,-0.41542 0.1268,-0.38132 0.47756,-0.41311 0.12631,-0.38367 0.47816,-0.41092 0.13521,-0.41481 0.4546,-0.39164 0.1395,-0.42349 0.44623,-0.38637 0.11766,-0.35125 0.98566,-1.16672 0.18287,-0.54677 0.40483,-0.34979 0.16636,-0.50249 0.38347,-0.33148 0.16854,-0.50613 0.37954,-0.32873 0.1701,-0.5071 0.37807,-0.32786 0.17147,-0.50783 0.37676,-0.32724 0.17295,-0.50847 0.37512,-0.32642 0.1745,-0.50939 0.37368,-0.32558 0.15096,-0.43776 0.86025,-1.12936 0.23225,-0.66141 0.31658,-0.28047 0.20203,-0.57495 0.31598,-0.27917 0.1671,-0.47519 0.81751,-1.11877 0.25601,-0.73126 0.25893,-0.22841 0.22665,-0.64612 0.31215,-0.27486 1.26185,-2.40421 2.37819,-5.39645 2.18527,-5.54045 1.31434,-3.65576 1.95433,-6.58888 1.53687,-6.54128 -0.0695,-0.40921 0.24046,-0.63796 -0.0575,-0.34644 0.23951,-0.63643 -0.0565,-0.34761 0.23834,-0.63521 -0.0448,-0.28221 0.57396,-2.53877 -0.0778,-0.48558 0.21591,-0.56752 -0.0793,-0.47342 0.19689,-0.5187 -0.0784,-0.47573 0.19522,-0.51636 -0.0772,-0.4771 0.19405,-0.51516 -0.0759,-0.47851 0.19284,-0.51347 -0.062,-0.39728 0.27868,-1.45383 -0.10277,-0.63924 0.16721,-0.44015 -0.0933,-0.57461 0.16043,-0.42199 -0.0928,-0.57597 0.15993,-0.42049 -0.0923,-0.57754 0.15952,-0.41908 -0.0918,-0.57883 0.15899,-0.41761 -0.0914,-0.58041 0.15852,-0.41609 -0.0909,-0.58183 0.15802,-0.41467 -0.0904,-0.58334 0.15758,-0.41319 -0.0745,-0.48371 0.22378,-1.40784 -0.10442,-0.68913 0.15006,-0.39284 -0.0923,-0.60623 0.15083,-0.39125 -0.0937,-0.61165 0.1496,-0.38592 -0.0951,-0.62082 0.14608,-0.37656 -0.0948,-0.62253 0.14575,-0.37499 -0.0944,-0.62403 0.14545,-0.37349 -0.0941,-0.62537 0.14507,-0.37214 -0.0937,-0.62683 0.14475,-0.3706 -0.0934,-0.62827 0.14437,-0.36924 -0.093,-0.62972 0.14398,-0.36776 -0.0758,-0.51642 0.18708,-1.34624 -0.11428,-0.7769 0.13304,-0.3368 -0.0985,-0.67072 0.12949,-0.32758 -0.098,-0.67199 0.12892,-0.32616 -0.0974,-0.67363 0.12839,-0.32459 -0.0969,-0.67494 0.12781,-0.32324 -0.0963,-0.67653 0.12726,-0.32161 -0.0959,-0.67798 0.12682,-0.32034 -0.0953,-0.67929 0.12621,-0.31885 -0.0771,-0.55392 0.15216,-1.30471 -0.11491,-0.83274 0.11281,-0.28488 -0.0985,-0.71735 0.11163,-0.28133 -0.0983,-0.719045 0.1114,-0.27985 -0.0981,-0.720361 0.11113,-0.278422 -0.0977,-0.721711 0.11073,-0.27692 -0.0975,-0.723527 0.11053,-0.275419 -0.0972,-0.724876 0.11023,-0.273918 -0.0969,-0.726317 0.10992,-0.272508 -0.0966,-0.727786 0.10963,-0.271015 -0.0963,-0.729217 0.10977,-0.270703 -0.0956,-0.729354 0.13537,-0.333367 0.0733,-11.592545 0.14117,-1.215992 -0.0975,-0.822238 0.13205,-0.312642 -0.082,-0.687122 0.13276,-0.31116 -0.0524,-0.43593 M 48.4206,142.84379 l 2.779281,-0.55754 m 5.884344,29.27394 2.411796,-1.48946 m 6.492615,15.89023 2.22854,-1.75182 m 0.157782,13.28655 1.575895,2.35623 m 4.486603,12.09887 -0.08273,-2.83344 m 16.35179,11.27216 1.5179,2.394 m 51.152514,7.12672 -0.52153,-2.78626 m 8.95679,1.00122 -0.71063,-2.74414 m 46.59804,-19.16518 -1.912,-2.09273 m 28.89211,-40.95281 -2.66749,-0.95903 m 9.58343,-36.49613 -2.83422,-0.0494 m 3.48797,-12.20118 -2.80767,-0.39016 m 3.5005,-33.260275 -2.8302,-0.158801 M 93.260883,233.51842 l 0.103471,-2.91126 m 3.427284,-18.62154 -0.02053,-3.40821 m 3.583032,8.47071 -2.020533,-2.4082 m 3.770533,-4.02931 -2.395535,2.15431"
             inkstitch:satin_column="true"
             sodipodi:nodetypes="ccccccccccccccccccccccccccccccccccccccccccccccccccccccccccccccccccccccccccccccccccccccccccccccccccccccccccccccccccccccccccccccccccccccccccccccccccccccccccccccccccccccccccccccccccccccccccccccccccccccccccccccccccccccccccccccccccccccccccccccccccccccccccccccccccccccccccccccccccccccccccccccccccccccccccccccccccccccccccccccccccccccccccccccccccccccccccccccccccccccccccccccccccccccccccccccccccccccccccccccccccccccccccccccccccccccccccccccccccccccccccccccccccccccccccccccccccccccccccccccccccccccccccccccccccccccccccccccccccccccccccccccccccccccccccccccccccccccccccccccccccccccccccccccccccccccccccccccccccccccccccccccccccccccccccccccccccccccccccccccccccccccccccccccccccccccccccccccccccccccccccccccccccccccccccccccccccccccccccccccccccccccccccccccccccccccccccccccccccccccccccccccccccccccccccccccccccccccccccccccccc"
             inkstitch:ties="3"
             inkstitch:center_walk_underlay="True"
             inkstitch:center_walk_underlay_stitch_length_mm="1" /></g><path
           id="path2"
           style="fill:none;stroke:#050606;stroke-width:1px"
           transform="scale(0.264583, 0.264583)"
           d="m 232.56403,75.920964 0.23452,-0.544179 -0.083,-0.68649 0.14211,-0.326351 -0.0801,-0.670759 0.14879,-0.341954 -0.0759,-0.655246 0.14673,-0.340634 -0.0643,-0.571495 0.206,-0.46594 -0.057,-0.511287 0.22322,-0.501893 -0.0451,-0.422582 0.27859,-0.618734 -0.031,-0.321217 2.89919,-6.998532 0.90225,-2.855248 0.29121,-1.987083 -0.14742,-1.991644 -0.3055,-1.082962 -1.21095,-1.458118 -1.86704,-0.673826 -2.94921,0.284201 -1.29025,0.596522 -0.0957,0.0064 -0.58695,-0.861132 -0.0591,-0.378353 -0.40476,-0.524669 -0.0537,-0.361742 -0.48529,-0.623254 -0.53145,-1.241082 -2.48366,-3.170675 -0.38408,-0.15377 -0.38438,-0.48713 -0.45485,-0.179946 -0.30282,-0.378525 -0.55761,-0.218927 -0.19823,-0.24553 -3.72249,-1.854567 -3.77275,-1.308253 -4.91131,-1.028202 -1.38588,-0.03404 -0.58612,-0.223086 -0.49851,0.0806 -0.49524,-0.188475 -0.564,0.09111 -0.39634,-0.146307 -0.60243,0.09593 -0.39046,-0.142868 -0.60867,0.09608 -0.39052,-0.141856 -0.6083,0.09514 -0.32808,-0.118499 -2.61744,0.05165 -0.33721,-0.123953 -5.16761,0.140297 -4.94914,0.472617 -4.93515,0.880889 -4.93564,1.383171 -0.31723,0.256771 -2.42488,0.805725 -0.32169,0.262904 -0.47581,0.07948 -2.58004,1.637727 -2.98339,2.674905 -1.9621,2.324376 -0.6833,1.152216 -0.32206,0.270765 -0.31389,0.17049 -4.64253,0.486463 -1.75056,1.080943 -1.04124,1.810786 0.0486,0.438683 -0.17956,0.42028 0.12415,3.02949 0.60435,2.079622 0.2362,0.309097 0.0727,0.564023 0.28259,0.370222 0.0729,0.564459 0.32757,0.429225 0.42867,1.499204 0.24173,0.316874 0.073,0.555538 0.28827,0.378925 0.0734,0.552067 0.28843,0.379973 0.0742,0.551929 0.32993,0.435842 0.42265,1.491194 0.21855,0.287565 0.0857,0.660487 0.25945,0.34669 0.45758,1.625062 0.72309,4.687467 0.3177,4.885815 0.17732,13.922686 -0.17915,12.758624 -0.15862,0.39503 0.091,0.67154 -0.10457,0.2593 -0.0428,3.63037 -0.20676,0.49587 0.0767,0.56854 -0.14716,0.35864 -0.0323,1.62936 -0.32574,1.50482 0.0539,0.42215 -0.20767,0.50897 0.069,0.5436 -0.62933,2.51603 0.0444,0.37655 -0.66331,2.66217 -1.17139,3.65333 -2.25408,5.37028 -2.75152,5.10253 -0.83162,1.07645 -0.20163,0.4861 -0.30236,0.23792 -0.24653,0.59717 -0.30333,0.23749 -0.22657,0.5513 -0.39289,0.30129 -0.19189,0.46688 -0.38371,0.29138 -0.8414,1.20913 -1.97287,2.03548 -4.34455,3.84228 -3.84861,2.78798 -1.60304,0.90719 -1.34354,0.48421 -0.37986,0.28792 -0.51407,0.0682 -0.41476,0.30954 -1.54705,0.39789 -0.29905,0.22314 -2.58112,0.60656 -3.73946,0.44099 -6.76889,0.14351 -1.37831,-0.20942 -0.47227,0.0598 -0.49579,-0.21093 -0.55326,0.0664 -1.49431,-0.41829 -0.38969,0.0434 -4.39872,-1.25573 -3.39128,-1.57182 -1.42777,-0.88991 -0.29188,-0.38641 -0.62716,-0.26917 -1.06679,-1.03191 -0.36496,-0.15726 -0.3784,-0.51243 -0.30245,-0.13464 -0.41541,-0.56113 -0.29539,-0.13209 -0.33663,-0.45431 -0.97712,-0.83312 -3.74213,-4.44787 -2.18544,-3.11694 -0.953369,-1.63372 -0.78216,-1.5242 -0.05416,-0.49334 -0.366835,-0.49525 -0.0437,-0.41936 -0.366902,-0.49136 -0.04531,-0.45813 -0.344327,-0.46278 -0.04641,-0.45802 -0.40343,-0.54419 -0.437161,-1.3775 -0.326368,-0.44364 -0.40821,-1.43003 -0.242577,-0.33072 -0.05564,-0.53651 -0.29385,-0.39996 -0.05527,-0.53731 -0.294357,-0.39947 -0.05742,-0.56261 -0.277342,-0.37919 -0.06149,-0.58427 -0.299681,-0.41651 -1.127018,-4.46276 -0.655126,-4.76659 -0.231271,-5.82884 0.321539,-5.6339 0.246128,-0.53676 -0.05578,-0.52683 0.208843,-0.46178 -0.05325,-0.526 0.169136,-0.37899 0.127647,-1.44197 0.280932,-0.62351 -0.04352,-0.43969 0.261252,-0.57734 -0.03678,-0.395717 0.259086,-0.578414 -0.03712,-0.424221 0.52511,-1.56352 -0.025,-0.277414 0.294911,-0.652651 -0.03388,-0.363994 1.483146,-4.46076 1.897961,-4.390899 1.875612,-3.312408 0.805731,-1.040541 0.22543,-0.497158 0.30863,-0.221891 0.27028,-0.593879 0.30788,-0.22265 0.26606,-0.582248 0.31834,-0.230587 0.25145,-0.549714 0.31969,-0.229358 0.89947,-1.371673 1.08235,-1.113572 0.17191,-0.370847 0.44796,-0.322039 0.20316,-0.43648 0.44749,-0.322858 0.19248,-0.41191 0.47439,-0.341181 0.18102,-0.388349 0.5167,-0.369472 0.16787,-0.358776 0.51633,-0.370192 0.18822,-0.40082 1.97812,-1.812732 0.12372,-0.263312 3.5201,-3.057037 3.91017,-2.811145 5.00574,-2.945867 1.23152,-0.502919 0.42807,-0.30291 0.36352,-0.03529 0.54271,-0.385526 0.36423,-0.03439 0.54198,-0.386506 0.41738,-0.03827 0.48888,-0.344959 0.44254,-0.0425 0.453,-0.316869 0.47888,-0.04611 0.45259,-0.316689 0.47903,-0.0461 0.45254,-0.316702 0.39725,-0.03837 1.34892,-0.642008 0.66024,-0.06062 0.37118,-0.2583 0.57856,-0.05393 0.37117,-0.257494 0.57857,-0.05473 0.42446,-0.293546 1.53451,-0.353018 0.28172,-0.19528 0.63304,-0.05765 0.32579,-0.227408 0.66521,-0.05944 0.29767,-0.206207 0.66516,-0.06085 0.29787,-0.204899 0.66501,-0.06224 0.26988,-0.184309 0.69915,-0.06472 0.26686,-0.183231 0.70276,-0.06413 0.2664,-0.184057 0.56396,-0.05079 1.29253,-0.431572 11.55691,-2.427021 0.26407,-0.184786 0.61921,-0.05661 0.37191,-0.265225 0.51259,-0.04638 0.93722,-0.502734 0.80558,-0.579775 1.18591,-1.661026 0.71349,-1.80575 -0.12753,-1.058237 -0.38419,-0.981485 -1.31758,-1.435647 -2.65785,-1.32765 -2.07437,-0.44649 -0.51914,0.08153 -0.34113,-0.135745 -1.61138,0.06332 -0.39202,-0.157863 -0.70852,0.116484 -0.292,-0.116418 -0.70846,0.115386 -0.2188,-0.08635 -7.18875,0.214659 -6.97873,0.584692 -7.86798,1.097871 -6.86027,1.398099 -6.75296,1.845981 -6.65745,2.25712 -1.17689,0.568589 -0.73551,0.120048 -0.31018,0.251432 -0.62665,0.100122 -0.34873,0.285747 -0.57559,0.09352 -0.35047,0.285169 -0.57391,0.09486 -0.40837,0.330261 -1.44967,0.473215 -0.32981,0.268229 -0.528771,0.08736 -0.385662,0.316456 -0.529874,0.08527 -0.40737,0.337375 -0.50054,0.08051 -0.422943,0.35033 -0.480064,0.07878 -0.423486,0.348877 -0.479536,0.08019 -0.424009,0.34751 -0.410388,0.06982 -1.31503,0.795616 -0.503476,0.08508 -0.488586,0.404102 -0.393143,0.06694 -0.502539,0.415037 -0.307314,0.05374 -3.102939,1.899989 -0.329795,0.05672 -2.664475,1.690397 -3.338603,2.255712 -5.639275,4.151304 -6.159821,5.027467 -3.582377,3.529702 -2.096349,2.343287 -0.123618,0.328919 -1.68888,1.870647 -0.734992,1.230002 -0.460407,0.393353 -0.179592,0.490114 -0.387354,0.333229 -0.181047,0.489146 -0.365495,0.316782 -0.19004,0.513839 -0.357025,0.309228 -0.19302,0.524965 -0.358056,0.308753 -0.192022,0.525464 -0.359018,0.308217 -0.19112,0.526053 -0.359983,0.30767 -0.22945,0.635589 -0.85952,1.12017 -0.176084,0.492049 -0.310076,0.264332 -0.20904,0.588843 -0.311637,0.263577 -0.210971,0.599364 -0.26884,0.22648 -0.693331,1.511397 -0.242721,0.203738 -3.164468,7.497775 -1.92306,5.699837 -1.383393,4.80181 -0.896175,4.05182 0.07351,0.38649 -0.468675,2.5375 0.06788,0.36642 -0.191732,0.55583 0.0829,0.43812 -0.193706,0.55582 0.110669,0.57162 -0.23176,1.45891 0.08988,0.46884 -0.148872,0.43719 0.109282,0.56126 -0.15048,0.4372 0.110938,0.56106 -0.152322,0.4373 0.115105,0.57273 -0.149244,0.4258 0.125962,0.62207 -0.04722,0.13759 m 183.968195,-50.241086 0.0327,-0.07582 -0.0834,-0.69031 0.14269,-0.327649 -0.0801,-0.670441 0.15021,-0.345246 -0.0755,-0.651554 0.14807,-0.343766 -0.0653,-0.581105 0.2064,-0.46686 -0.0572,-0.513513 0.22518,-0.506307 -0.0455,-0.427218 0.28281,-0.628066 -0.028,-0.290783 3.04821,-7.358268 0.83175,-2.632152 0.23899,-1.630717 -0.11798,-1.593956 -0.1449,-0.513638 -0.62625,-0.754082 -0.98356,-0.354974 -2.20619,0.212599 -1.31655,0.608678 -0.94375,0.06271 -0.82947,-0.327703 -1.18573,-1.739638 -0.0501,-0.320247 -0.40944,-0.530731 -0.0531,-0.357258 -0.33011,-0.423946 -0.53035,-1.238518 -2.01794,-2.576125 -0.38072,-0.15243 -0.38182,-0.48387 -0.44855,-0.177454 -0.30118,-0.376475 -0.55339,-0.217273 -0.25357,-0.31407 -3.24491,-1.616633 -3.54405,-1.228947 -4.62469,-0.968198 -1.53712,-0.03776 -0.41488,-0.157914 -0.49849,0.0806 -0.49536,-0.188525 -0.554,0.08949 -0.39846,-0.147093 -0.59957,0.09547 -0.39174,-0.143332 -0.60633,0.09572 -0.39188,-0.142344 -0.6065,0.09486 -0.45432,-0.164101 -2.62296,0.05175 -0.33039,-0.121447 -4.74059,0.128703 -4.80846,0.459183 -4.76945,0.851311 -4.47196,1.253229 -0.28097,0.227429 -2.42052,0.804275 -0.44111,0.360496 -0.59339,0.09912 -2.12436,1.348473 -2.76901,2.482695 -1.7761,2.104024 -0.7669,1.293184 -0.71394,0.600235 -0.81251,0.44131 -4.58787,0.480737 -0.97664,0.603057 -0.49476,0.860414 0.0352,0.318117 -0.20684,0.48412 0.0973,2.37311 0.44165,1.519778 0.3296,0.431303 0.0727,0.564577 0.28241,0.369978 0.0729,0.564541 0.23703,0.310575 0.42873,1.499396 0.33087,0.433726 0.0732,0.556862 0.28733,0.377675 0.0736,0.553133 0.28757,0.378827 0.0744,0.553271 0.24447,0.322958 0.42215,1.489406 0.30705,0.404035 0.0867,0.667913 0.17295,0.23111 0.58402,2.074138 0.75331,4.883333 0.3263,5.018185 0.17828,13.997314 -0.18445,13.13537 -0.10358,0.25797 0.0912,0.67306 -0.15903,0.3943 -0.043,3.64183 -0.15084,0.36173 0.0759,0.56286 -0.20524,0.50016 -0.0289,1.45944 -0.29586,1.36678 0.0757,0.59325 -0.20793,0.50963 0.0512,0.4034 -0.63147,2.52457 0.0443,0.37565 -0.76189,3.05783 -1.21561,3.79127 -2.32152,5.53092 -2.86848,5.31947 -0.77238,0.99975 -0.29437,0.7097 -0.30104,0.23688 -0.24747,0.59943 -0.30207,0.23651 -0.23043,0.5607 -0.39291,0.30131 -0.19371,0.47132 -0.55549,0.42182 -0.7584,1.08987 -2.13013,2.19772 -4.46785,3.95132 -4.00879,2.90402 -1.83456,1.03821 -1.22306,0.44079 -0.54814,0.41548 -0.52153,0.0692 -0.31924,0.23826 -1.54715,0.39791 -0.31555,0.23546 -3.06828,0.72104 -3.93634,0.46421 -7.02271,0.14889 -1.27929,-0.19438 -0.71813,0.0909 -0.50181,-0.21347 -0.42534,0.051 -1.50229,-0.42051 -0.39471,0.044 -4.89868,-1.39847 -3.63112,-1.68298 -1.82403,-1.13689 -0.20092,-0.26599 -0.48564,-0.20843 -1.06781,-1.03289 -0.51644,-0.22254 -0.3856,-0.52217 -0.30135,-0.13416 -0.41639,-0.56247 -0.29501,-0.13191 -0.50317,-0.67909 -0.93228,-0.79488 -3.89647,-4.63133 -2.27836,-3.24946 -1.018827,-1.74588 -0.96464,-1.8798 -0.03643,-0.33186 -0.370165,-0.49975 -0.0433,-0.41544 -0.370098,-0.49564 -0.04549,-0.45987 -0.342873,-0.46082 -0.04659,-0.45978 -0.28157,-0.37981 -0.438239,-1.3809 -0.343232,-0.46656 -0.40859,-1.43137 -0.345223,-0.47068 -0.05556,-0.53569 -0.29435,-0.40064 -0.05513,-0.53589 -0.294843,-0.40013 -0.05778,-0.56619 -0.275458,-0.37661 -0.06231,-0.59213 -0.216919,-0.30149 -1.240782,-4.91324 -0.681874,-4.96121 -0.238529,-6.01176 0.347061,-6.0811 0.178672,-0.38964 -0.05522,-0.52157 0.210757,-0.46602 -0.05275,-0.521 0.245464,-0.55001 0.127953,-1.44543 0.204868,-0.45469 -0.04368,-0.44131 0.263748,-0.582854 -0.03642,-0.391883 0.261314,-0.583386 -0.02868,-0.327779 0.52429,-1.56108 -0.034,-0.377186 0.293689,-0.649949 -0.02432,-0.261206 1.634254,-4.91524 1.970839,-4.559501 1.992588,-3.518992 0.753473,-0.973059 0.342368,-0.755042 0.309769,-0.222709 0.269118,-0.591321 0.309123,-0.22355 0.265734,-0.581552 0.31866,-0.230813 0.25335,-0.553886 0.44191,-0.317042 0.80573,-1.228727 0.98425,-1.012628 0.24529,-0.529153 0.44924,-0.322961 0.20244,-0.43492 0.44871,-0.323742 0.19312,-0.41329 0.47361,-0.340619 0.18218,-0.390851 0.5179,-0.370328 0.16733,-0.357624 0.51747,-0.371008 0.13758,-0.29298 1.97828,-1.812868 0.13488,-0.287088 3.8871,-3.375763 4.05083,-2.912255 5.19786,-3.058933 1.15748,-0.472681 0.66093,-0.46769 0.36168,-0.03511 0.54489,-0.387074 0.36237,-0.03421 0.54422,-0.388094 0.42242,-0.03873 0.48532,-0.342441 0.44666,-0.0429 0.4528,-0.316731 0.47872,-0.04609 0.45261,-0.316711 0.47897,-0.0461 0.45226,-0.316498 0.56135,-0.05423 1.35308,-0.643992 0.49856,-0.04578 0.37002,-0.2575 0.58004,-0.05407 0.37003,-0.256706 0.58003,-0.05487 0.31674,-0.219054 1.53349,-0.352782 0.39228,-0.27192 0.62976,-0.05735 0.32721,-0.228392 0.66879,-0.05976 0.29593,-0.204993 0.66844,-0.06115 0.29613,-0.203701 0.66839,-0.06256 0.27072,-0.184891 0.69665,-0.06448 0.26794,-0.183969 0.69984,-0.06387 0.2674,-0.184743 0.83964,-0.07561 1.18667,-0.396228 11.28529,-2.369979 0.35873,-0.251014 0.61019,-0.05579 0.37269,-0.265775 0.63901,-0.05782 0.48818,-0.261866 0.45162,-0.325025 0.87029,-1.218974 0.45251,-1.14525 -0.0415,-0.344163 -0.16781,-0.428715 -0.84302,-0.918553 -2.13235,-1.06515 -1.49743,-0.32231 -0.68306,0.107271 -0.44947,-0.178855 -1.61542,0.06348 -0.27698,-0.111537 -0.70508,0.115916 -0.2934,-0.116982 -0.70494,0.114814 -0.3412,-0.134651 -6.74945,0.201541 -6.87627,0.576108 -7.75802,1.082529 -6.74153,1.373901 -6.63824,1.814619 -6.49335,2.20148 -1.31891,0.637211 -0.51069,0.08335 -0.31282,0.253568 -0.62135,0.09928 -0.34667,0.284053 -0.57901,0.09408 -0.34833,0.283431 -0.57689,0.09535 -0.29123,0.235539 -1.44713,0.472385 -0.44679,0.363371 -0.52443,0.08664 -0.38894,0.319144 -0.525319,0.08453 -0.40743,0.337425 -0.50046,0.08049 -0.420457,0.34827 -0.482736,0.07922 -0.421114,0.346923 -0.482064,0.08061 -0.421791,0.34569 -0.550012,0.09358 -1.31597,0.796184 -0.359324,0.06072 -0.487614,0.403298 -0.393857,0.06706 -0.499061,0.412163 -0.445286,0.07786 -3.105261,1.901411 -0.314405,0.05408 -2.322125,1.473203 -3.284397,2.219088 -5.570525,4.100696 -6.054779,4.941733 -3.477023,3.425898 -1.820651,2.035113 -0.125182,0.333081 -1.80472,1.998953 -0.798808,1.336798 -0.319593,0.273047 -0.178408,0.486886 -0.389846,0.335371 -0.179753,0.485654 -0.365305,0.316618 -0.19016,0.514161 -0.355575,0.307972 -0.19378,0.527035 -0.356544,0.307447 -0.192778,0.527536 -0.357582,0.306983 -0.19188,0.528147 -0.358417,0.30633 -0.15935,0.441411 -0.85788,1.11803 -0.246116,0.687751 -0.308124,0.262668 -0.21036,0.592557 -0.309563,0.261823 -0.211629,0.601236 -0.33916,0.28572 -0.694069,1.513003 -0.219279,0.184062 -2.960132,7.013625 -1.88714,5.593367 -1.355207,4.70399 -0.799425,3.61438 0.06709,0.35271 -0.469525,2.5421 0.09492,0.51238 -0.190468,0.55217 0.0835,0.44128 -0.192294,0.55178 0.07713,0.39838 -0.23204,1.46069 0.121723,0.63496 -0.147928,0.43441 0.109918,0.56454 -0.14952,0.4344 0.111662,0.56474 -0.151278,0.4343 0.115495,0.57467 -0.148756,0.4244 0.124638,0.61553 -0.213785,0.62301 M 237.51117,60.017135 234.80826,59.163023 m -20.77596,-19.127699 -0.58086,2.774501 m -27.89879,-2.629368 0.70947,2.744432 m -11.56433,1.483281 1.58681,2.348891 m -9.92175,45.995141 2.83442,-0.0361 m -7.2757,38.229398 2.61374,1.09708 m -19.2628,20.01022 1.66297,2.29561 m -16.70691,2.31758 0.0601,2.83402 m -10.76564,-3.6262 -0.77814,2.72576 m -16.19402,-15.06137 -2.32098,1.62735 m -7.853722,-32.22285 -2.832423,0.11239 M 96.16992,91.706982 93.567941,90.58228 M 116.4642,66.531193 114.80952,64.229608 m 37.46286,-10.683962 -0.58259,-2.774138 m 3.63064,-8.995252 -0.59648,2.771185 m -27.96267,-1.063555 0.56606,2.777558 m -51.70506,20.295641 1.792362,2.196062 m -27.369346,34.627383 2.685901,0.9062 M 165.81905,54.406751 165.54928,51.305843 m -2.55866,6.371281 -2.83304,-0.0957 m 72.74831,-2.997896 -0.18138,-3.277684 m -5.56387,-4.235335 -2.39109,1.848846"
           inkstitch:satin_column="true"
           sodipodi:nodetypes="ccccccccccccccccccccccccccccccccccccccccccccccccccccccccccccccccccccccccccccccccccccccccccccccccccccccccccccccccccccccccccccccccccccccccccccccccccccccccccccccccccccccccccccccccccccccccccccccccccccccccccccccccccccccccccccccccccccccccccccccccccccccccccccccccccccccccccccccccccccccccccccccccccccccccccccccccccccccccccccccccccccccccccccccccccccccccccccccccccccccccccccccccccccccccccccccccccccccccccccccccccccccccccccccccccccccccccccccccccccccccccccccccccccccccccccccccccccccccccccccccccccccccccccccccccccccccccccccccccccccccccccccccccccccccccccccccccccccccccccccccccccccccccccccccccccccccccccccccccccccccccccccccccccccccccccccccccccccccccccccccccccccccccccccccccccccccccccccccccccccccccccccccccccccccccccccccccccccccccccccccccccccccccccccccccccccccccccccccccccccccccccccccccccccccccccccccccccccccccccccccccccccccc"
           inkstitch:ties="3"
           inkstitch:center_walk_underlay="True"
           inkstitch:center_walk_underlay_stitch_length_mm="1" /><path
           id="path3"
           style="fill:none;stroke:#050606;stroke-width:1px"
           transform="scale(0.264583, 0.264583)"
           d="m 175.38425,67.438583 0.20178,-0.560637 -0.11263,-0.664709 0.12298,-0.340844 -0.11247,-0.65502 0.12385,-0.344181 -0.11326,-0.65152 0.12475,-0.347366 -0.11408,-0.648441 0.12555,-0.350576 -0.11488,-0.645233 0.12638,-0.353858 -0.11573,-0.641807 0.1077,-0.301972 -0.0715,-1.67392 0.23904,-1.506784 -0.0904,-0.497322 0.32071,-1.531612 0.52334,-1.248021 0.39691,-0.352252 0.14958,-0.437754 1.06728,-1.008422 0.49694,-0.332506 0.62684,-0.209203 1.52334,-0.247527 0.53188,0.05649 0.26175,0.0855 0.044,0.04847 0.0947,0.742399 -1.1144,3.288672 0.002,1.872244 0.26651,1.122903 1.18037,1.679719 0.42427,0.184479 0.24288,0.320134 2.00392,0.802345 0.44715,-0.04502 0.37739,0.157936 2.1669,-0.192625 0.33718,-0.240296 0.45816,-0.0524 1.75564,-1.250994 0.18222,-0.406378 0.36548,-0.270186 0.73021,-1.941201 -0.0753,-1.92253 -0.27368,-1.048416 -1.7094,-2.939862 -0.005,-0.05691 0.0423,-0.09001 0.30325,-0.209774 0.45811,-0.284909 0.52617,-0.10296 1.4228,0.08435 0.57775,0.235498 4.67539,2.938216 0.87134,0.484975 1.09647,0.190744 1.64432,-0.811007 0.36706,-0.414636 0.35342,-0.121583 0.4893,-0.540538 1.16426,-0.671149 0.386,-0.403483 1.35993,-0.712381 1.27854,-0.334894 0.35611,0.09262 0.49587,-0.123724 0.93418,0.267423 0.46535,0.554359 0.0429,0.305476 -0.0767,0.376485 -0.75546,1.356638 -0.72696,1.818411 -0.0132,2.008571 0.90426,1.839871 0.48521,0.319349 0.15632,0.29868 1.7662,1.205066 0.37254,0.02916 0.43125,0.286969 1.10706,0.166567 1.93665,0.04458 1.78977,-0.653524 0.89904,-0.677365 1.00441,-1.671197 0.10338,-3.061074 -1.16594,-3.066254 0.0255,-0.239626 0.4481,-0.557402 0.89094,-0.277481 1.09544,0.264394 0.33133,0.313582 0.54017,0.14083 0.46648,0.329099 0.9926,1.070533 0.4724,1.29728 0.33518,1.694533 0.21753,3.658932 -0.13109,0.374517 0.12378,0.676923 -0.0219,0.06125 m -49.21996,5.156129 0.0338,-0.09396 -0.11277,-0.665491 0.12222,-0.338756 -0.11233,-0.65418 0.12315,-0.342219 -0.11314,-0.65088 0.12405,-0.345434 -0.11392,-0.647559 0.12485,-0.348624 -0.11472,-0.644367 0.12562,-0.351742 -0.11567,-0.641393 0.1531,-0.429228 -0.0639,-1.49508 0.21836,-1.376416 -0.099,-0.544478 0.43349,-2.070188 0.75966,-1.811579 0.34609,-0.307148 0.13942,-0.408046 1.52192,-1.437978 0.84006,-0.562094 1.01276,-0.337997 1.92426,-0.312673 0.98212,0.10431 0.92725,0.302898 0.78023,0.860129 0.22512,1.765001 -1.154,3.405528 0.002,1.339556 0.13189,0.555697 0.66623,0.948081 0.39033,0.169721 0.22492,0.296466 1.08708,0.435255 0.46265,-0.04658 0.38821,0.162464 1.1899,-0.105775 0.31642,-0.225504 0.45824,-0.0524 0.94056,-0.670206 0.17498,-0.390222 0.31492,-0.232814 0.39919,-1.061199 -0.0523,-1.33587 -0.15672,-0.600384 -1.7884,-3.075738 -0.093,-0.984694 0.47886,-1.017988 0.75955,-0.525426 0.79189,-0.492491 1.10203,-0.21564 1.9742,0.117046 1.01985,0.415702 4.77241,2.999184 0.54766,0.304825 0.17393,0.03026 0.75868,-0.374193 0.45074,-0.509164 0.36398,-0.125217 0.3625,-0.400462 1.18734,-0.684451 0.413,-0.431717 1.82467,-0.955819 1.96346,-0.514306 0.36749,0.09558 0.51973,-0.129676 1.97642,0.565777 1.18565,1.412441 0.16334,1.164124 -0.19991,0.981315 -0.83894,1.506562 -0.54944,1.374389 -0.008,1.205429 0.48054,0.977729 0.46379,0.305251 0.16408,0.31352 0.9602,0.655134 0.36086,0.02824 0.49055,0.326431 0.57314,0.08623 1.46055,0.03362 1.19043,-0.434676 0.38096,-0.287035 0.56279,-0.936403 0.074,-2.191326 -1.19146,-3.133346 0.13226,-1.240574 1.1565,-1.438598 1.93906,-0.603919 2.09236,0.505006 0.34467,0.326218 0.40263,0.10497 0.90872,0.641101 1.3866,1.495467 0.6528,1.79272 0.38842,1.963667 0.24767,4.165868 -0.0911,0.260283 0.12502,0.683677 -0.19269,0.53875 m -48.22764,-5.902605 -2.77448,-0.580963 m 10.42355,6.512741 1.05365,-2.631556 m 6.02993,-5.936305 -2.45051,1.424863 m 16.23577,-2.993823 -1.31534,-2.510999 m 5.811,11.550627 1.59762,-2.341551 m 7.65925,-2.080227 -2.83303,-0.09568 m 9.28866,1.041992 -3.02054,0.404301 m -4.35447,-5.341807 -2.77054,-1.908202 m 7.39554,0.0957 -1.95803,2.404303 m -4.66698,8.658211 -1.20802,-2.720704 m -4.91698,-2.341802 -2.83304,-0.0957 m 3.45804,-6.716808 -2.08303,1.716802 m -8.97949,3.720705 -0.083,-3.220704 m -1.66697,-1.029302 -1.89553,2.779304 m -3.792,-5.404308 -0.0205,3.029304 m -1.60451,0.1582 -3.02053,-0.783201 m 4.64553,7.90821 -2.95803,-1.095701 m -5.91697,-0.654301 -2.83304,-0.0957 m 3.33304,-6.904309 -2.08304,2.154303 m -2.60447,0.5957 -1.39553,-2.658203 m -1.29198,14.970719 -2.83303,-0.0957 m 45.52059,-12.841817 -0.0205,-3.220704 m -0.6045,4.470706 -2.95803,1.091802"
           inkstitch:satin_column="true"
           sodipodi:nodetypes="cccccccccccccccccccccccccccccccccccccccccccccccccccccccccccccccccccccccccccccccccccccccccccccccccccccccccccccccccccccccccccccccccccccccccccccccccccccccccccccccccccccccccccccccccccccccccccccccccccccccccccccccccccccccccccccccccccccccccccccccccccccccccc"
           inkstitch:ties="3"
           inkstitch:center_walk_underlay="True"
           inkstitch:center_walk_underlay_stitch_length_mm="1" /><path
           id="path4"
           style="fill:none;stroke:#050606;stroke-width:1px"
           transform="scale(0.264583, 0.264583)"
           d="m 222.78468,62.121381 0.0776,0.449437 -0.10148,0.277774 0.1156,0.712127 -0.097,0.260484 0.13803,0.906067 0.0343,8.41566 -1.4423,2.828756 -1.00734,1.164996 -2.07074,1.468874 -2.38683,0.96648 -2.60002,0.390895 -1.8796,0.09913 -2.8843,0.0052 -1.52563,-0.163871 -1.13142,-0.653351 -0.43844,-0.371793 -0.29826,-0.563192 -0.43634,-0.271324 -0.88751,-1.299291 -0.53813,-1.242419 0.12729,-0.746394 0.28676,-0.381413 1.21521,-1.067803 4.28799,-2.816006 1.55764,-1.316634 1.28422,-1.491917 0.58772,-1.877503 -0.21585,-1.128828 -1.07476,-1.518849 -0.53484,-0.168254 -0.25711,-0.26663 -2.06894,-0.561801 -2.03727,-0.294292 -0.35346,0.08031 -0.56502,-0.175638 -0.60817,0.142175 -1.41714,-0.153059 -0.48326,0.109643 -0.42259,-0.126927 -0.57264,0.130036 -0.42118,-0.127587 -0.57414,0.130734 -0.41941,-0.128133 -0.57586,0.131264 -0.41799,-0.128658 -0.60648,0.138492 -0.35859,-0.109359 -0.66543,0.152234 -0.32534,-0.09848 -0.66945,0.151616 -0.3237,-0.0973 -0.67083,0.150462 -0.32215,-0.09632 -0.67263,0.149485 -0.25434,-0.07557 -2.12888,0.165597 -2.02566,0.281621 -1.90231,0.557718 -1.3398,1.372904 -0.3202,1.03413 -0.22052,1.046671 0.42832,1.839425 1.4462,1.471926 0.45966,0.154356 0.31636,0.360166 0.57131,0.187576 0.28204,0.32244 0.60893,0.200031 0.25557,0.289095 0.60858,0.20259 0.25003,0.28074 0.60559,0.20313 0.25819,0.290147 0.60669,0.204131 0.25699,0.289048 0.6077,0.2051 0.32889,0.370375 0.32997,0.117562 0.53176,0.743386 0.27302,1.264221 -0.12529,0.359338 0.0968,0.496837 -0.37613,1.133756 -0.93915,1.135413 -1.08172,0.824404 -0.52017,0.08359 -0.29739,0.241023 -2.43729,0.360572 -3.73257,0.05828 -3.40286,-0.573785 -2.27553,-0.709167 -0.44618,-0.372379 -0.49743,-0.08747 -0.53481,-0.318081 -1.31703,-0.938107 -1.10042,-1.092233 -1.25211,-2.035705 -0.17588,-0.482746 -0.0625,-0.387538 0.0856,-0.226661 -0.1396,-5.842481 m 49.20711,-5.296011 0.16324,0.945963 -0.10492,0.287226 0.1166,0.718273 -0.10042,0.269716 0.0852,0.559133 0.0367,9.01294 -1.7545,3.441044 -1.30686,1.511404 -2.43706,1.728726 -2.79837,1.13312 -2.91138,0.437705 -2.0188,0.10647 -3.0353,0.0054 -2.02517,-0.217529 -1.62478,-0.938249 -0.84576,-0.717207 -0.22974,-0.433808 -0.34106,-0.212076 -1.21389,-1.777109 -0.83307,-1.923381 0.29871,-1.751606 0.67904,-0.903187 1.46079,-1.283597 4.30321,-2.825994 1.35596,-1.146166 0.93178,-1.082483 0.32928,-1.051897 -0.0497,-0.260172 -0.47024,-0.664551 -0.38636,-0.121546 -0.22929,-0.23777 -1.45466,-0.394999 -1.57633,-0.227708 -0.50654,0.11509 -0.55898,-0.173762 -0.42103,0.09842 -1.42346,-0.153741 -0.66094,0.149957 -0.42241,-0.126873 -0.57496,0.130564 -0.42062,-0.127413 -0.57646,0.131266 -0.41919,-0.128067 -0.57794,0.131736 -0.41761,-0.128542 -0.60392,0.137908 -0.35821,-0.109241 -0.66337,0.151766 -0.32746,-0.09912 -0.66755,0.151184 -0.3257,-0.0979 -0.66937,0.150138 -0.32405,-0.09688 -0.67097,0.149115 -0.38846,-0.115426 -1.72272,0.134003 -1.83114,0.254579 -1.29369,0.379282 -0.676,0.692696 -0.1596,0.51547 -0.11608,0.550929 0.21288,0.914175 0.7568,0.770274 0.51294,0.172244 0.31184,0.355034 0.57329,0.188224 0.28216,0.32256 0.60387,0.198369 0.25823,0.292105 0.60502,0.20141 0.25157,0.28246 0.60601,0.20327 0.25881,0.290853 0.60711,0.204269 0.25761,0.289752 0.6083,0.2053 0.34011,0.383025 0.43123,0.153638 1.10404,1.543414 0.46778,2.165979 -0.13211,0.378862 0.0938,0.481763 -0.64367,1.940244 -1.30325,1.575587 -1.63148,1.243396 -0.49043,0.07881 -0.30721,0.248977 -3.07171,0.454428 -4.02983,0.06292 -3.69954,-0.623815 -2.75707,-0.859233 -0.34822,-0.290621 -0.34197,-0.06013 -0.89939,-0.534919 -1.50597,-1.072693 -1.36998,-1.359767 -1.47069,-2.391095 -0.30292,-0.831454 -0.1713,-1.062062 0.13342,-0.353339 -0.1308,-5.474319 m 48.91443,2.510429 2.83463,-0.01155 m -6.05608,7.810098 1.64004,2.312038 m -8.14183,-0.235296 0.14929,2.830718 m -8.59112,-6.023866 -2.60115,1.126631 m 6.73336,-5.807233 -1.55603,-2.369395 m -15.48458,-7.390606 0.39034,2.807647 m 3.54481,10.020615 2.77077,-0.598388 m -12.18887,5.450656 -0.47132,2.795193 m -8.49501,-7.267834 -2.41449,1.485085 m 1.45146,-7.288179 -2.83304,-0.0957 m 22.45794,11.720719 -1.77053,-2.595704 m -0.72947,-9.091811 -1.64554,2.591803 m -2.16697,-5.404307 -2.83303,-0.0957 m 21.45806,-4.904306 -0.39553,3.154304 m 5.70803,0.845701 -2.83304,0.341801"
           inkstitch:satin_column="true"
           sodipodi:nodetypes="cccccccccccccccccccccccccccccccccccccccccccccccccccccccccccccccccccccccccccccccccccccccccccccccccccccccccccccccccccccccccccccccccccccccccccccccccccccccccccccccccccccccccccccccccccccccccccccccccccccccccccccccccccccccccccccccccccccccccc"
           inkstitch:ties="3"
           inkstitch:center_walk_underlay="True"
           inkstitch:center_walk_underlay_stitch_length_mm="1" /><path
           id="path5"
           style="fill:none;stroke:#050606;stroke-width:1px"
           transform="scale(0.264583, 0.264583)"
           d="m 137.53337,214.55168 0.19368,1.79466 0.4131,0.94415 1.42544,1.48125 0.53944,0.17022 0.24217,0.26004 3.88187,1.31659 0.52854,-0.12341 1.44663,0.19994 0.64258,-0.15456 1.31548,0.0547 6.87456,-1.02384 6.76797,-1.68655 7.54274,-2.51232 1.0811,-0.56707 0.80916,-0.20322 0.23436,-0.22472 0.67981,-0.16809 0.26341,-0.2563 0.63887,-0.15817 0.26979,-0.26237 0.62996,-0.15667 0.27011,-0.2617 0.60426,-0.15099 0.29595,-0.28855 0.57152,-0.14205 0.34452,-0.34063 0.52896,-0.13166 0.34452,-0.34042 0.52892,-0.13168 0.34465,-0.34044 0.52857,-0.13182 0.43044,-0.42463 1.26483,-0.58812 1.1745,-0.88236 0.46391,-0.11976 0.4658,-0.4612 0.35856,-0.0932 0.47075,-0.46545 0.35117,-0.0922 0.47163,-0.46472 0.28963,-0.0769 4.86757,-3.69914 4.51549,-3.89891 3.50322,-3.51315 1.91529,-2.23418 1.91521,-2.50202 0.0658,-0.23457 0.5058,-0.49789 0.0911,-0.32727 0.48601,-0.47993 0.0919,-0.32665 0.48503,-0.48045 0.0928,-0.326 0.48441,-0.48102 0.0936,-0.32557 0.4686,-0.46679 0.0995,-0.34789 0.46864,-0.46624 0.10064,-0.35348 0.46518,-0.46238 0.1054,-0.37091 0.45185,-0.45045 0.12596,-0.43975 1.54238,-2.0717 0.0957,-0.33308 0.42957,-0.42946 0.1167,-0.41131 0.42335,-0.42204 0.12346,-0.43813 0.3388,-0.33906 0.63887,-1.28593 0.43032,-0.43092 0.13569,-0.49125 0.3125,-0.30918 0.62631,-1.39685 0.39761,-0.39225 0.14218,-0.53026 0.34172,-0.33653 0.14193,-0.53061 0.34185,-0.33625 0.14704,-0.55066 0.32617,-0.32248 0.17761,-0.65983 0.75995,-1.16531 0.13641,-0.50335 0.27104,-0.27195 0.17739,-0.66082 0.23908,-0.24168 0.17839,-0.65992 0.20792,-0.21141 0.57743,-1.57277 0.20376,-0.20725 2.48163,-6.69735 0.99365,-3.78289 0.29617,-2.10551 -0.33991,-1.17438 -0.71298,-0.75597 -0.85579,-0.11159 -1.22922,0.56424 -0.42528,0.57488 -1.06295,0.79487 -1.03401,1.08538 -0.41273,0.17964 -0.37445,0.49897 -0.36527,0.15522 -0.37799,0.50428 -0.36796,0.1525 -0.3782,0.50403 -0.35169,0.14266 -1.12711,1.06732 -1.43559,0.84077 -1.3695,0.47027 -1.64276,0.11051 -1.17347,-0.13168 -0.82783,-0.83003 -0.24334,-0.46242 -0.12611,-0.42341 0.0688,-1.5317 1.09725,-4.53187 1.63956,-4.41095 0.23071,-0.25561 0.90909,-2.48768 0.29553,-0.33012 0.14012,-0.63663 0.25388,-0.28318 0.13821,-0.63495 0.25584,-0.28483 0.13618,-0.63328 0.23116,-0.2568 0.53447,-1.49606 0.33797,-0.37902 0.12405,-0.57515 0.29667,-0.33303 0.12263,-0.57327 0.29801,-0.33477 0.12138,-0.57159 0.29936,-0.33684 0.11994,-0.56945 0.30077,-0.33863 0.11867,-0.56742 0.30584,-0.34478 0.11599,-0.55744 0.30889,-0.34885 0.1149,-0.55546 0.31007,-0.35083 0.11371,-0.55363 0.31104,-0.35269 0.11269,-0.55155 0.31221,-0.35466 0.11163,-0.54977 0.31321,-0.35676 0.11049,-0.54755 0.31426,-0.35861 0.10949,-0.54562 0.31564,-0.36081 0.10832,-0.54359 0.31717,-0.36343 0.1071,-0.54059 0.31825,-0.3654 0.10612,-0.53864 0.31926,-0.36752 0.10511,-0.53656 0.32027,-0.36952 0.10412,-0.53464 0.32105,-0.37138 0.10331,-0.53257 0.32212,-0.3735 0.10221,-0.53054 0.32317,-0.37553 0.10122,-0.52862 0.32399,-0.37743 0.10042,-0.52694 0.32476,-0.37932 0.0995,-0.52535 0.32532,-0.38097 0.0986,-0.52331 0.32615,-0.38289 0.0978,-0.5214 0.32701,-0.38516 0.0969,-0.5191 0.32791,-0.38717 0.096,-0.51705 0.32882,-0.38929 0.0951,-0.51498 0.32966,-0.3912 0.0943,-0.51302 0.33046,-0.39332 0.0935,-0.51088 0.32664,-0.38968 0.0938,-0.51892 0.30722,-0.367 0.10265,-0.58801 0.28084,-0.33659 0.10183,-0.58594 0.28175,-0.33871 0.11417,-0.66006 0.19507,-0.24166 0.32827,-2.02549 0.11283,-3.1967 -0.11465,-0.31786 0.11553,-4.67069 -0.0976,-0.268594 0.10328,-0.655903 -0.12824,-0.348905 0.10252,-0.651956 -0.12852,-0.346744 0.10281,-0.654238 -0.12874,-0.344503 0.10301,-0.656455 -0.1552,-0.411902 0.014,-2.601789 -0.14185,-0.3599 0.0899,-0.570532 -0.17118,-0.425517 0.0925,-0.573041 -0.23701,-0.577377 0.0105,-0.07679 m -83.48398,123.842106 0.16252,1.50594 0.1613,0.36865 0.85736,0.89095 0.55516,0.17518 0.25683,0.27576 2.91953,0.99021 0.34426,-0.0804 1.44017,0.19906 0.55222,-0.13284 1.39992,0.0583 6.60684,-0.98396 6.60863,-1.64685 7.32826,-2.44088 1.1449,-0.60053 0.54144,-0.13598 0.23704,-0.22728 0.67259,-0.16631 0.26319,-0.2561 0.63913,-0.15823 0.26901,-0.26163 0.63184,-0.15713 0.26929,-0.2609 0.60114,-0.15021 0.29685,-0.28945 0.56468,-0.14035 0.34428,-0.34037 0.52924,-0.13174 0.34448,-0.34038 0.52908,-0.13172 0.34435,-0.34016 0.52923,-0.13198 0.29556,-0.29157 1.38217,-0.64268 1.3157,-0.98844 0.33249,-0.0858 0.4646,-0.46 0.35924,-0.0934 0.46905,-0.46375 0.35283,-0.0926 0.46957,-0.46268 0.41297,-0.10968 4.52323,-3.43746 4.41751,-3.81429 3.40318,-3.41285 1.83491,-2.14042 1.66259,-2.17198 0.1034,-0.36863 0.5044,-0.49651 0.0907,-0.32573 0.48799,-0.48187 0.0915,-0.32515 0.48717,-0.48255 0.0924,-0.3248 0.48639,-0.48298 0.0932,-0.32403 0.4676,-0.46581 0.0997,-0.34851 0.46776,-0.46536 0.10076,-0.35392 0.46482,-0.46202 0.105,-0.36949 0.45335,-0.45195 0.0858,-0.29965 1.54282,-2.0723 0.13552,-0.47172 0.42723,-0.42714 0.1171,-0.41269 0.42205,-0.42076 0.12294,-0.43627 0.469,-0.46934 0.63873,-1.28567 0.29648,-0.29688 0.13731,-0.49715 0.4199,-0.41542 0.62689,-1.39815 0.28459,-0.28075 0.14242,-0.53114 0.34128,-0.33607 0.14207,-0.53119 0.34155,-0.33595 0.14636,-0.54814 0.32763,-0.32392 0.12279,-0.45617 0.76085,-1.16669 0.18959,-0.69965 0.26936,-0.27025 0.17641,-0.65718 0.24032,-0.24292 0.17761,-0.65708 0.26948,-0.27399 0.57737,-1.57263 0.20584,-0.20935 2.30877,-6.23085 0.94195,-3.58611 0.22443,-1.59549 -0.0152,-0.0526 -0.26619,0.35983 -1.15825,0.86613 -1.18819,1.24722 -0.30547,0.13296 -0.37975,0.50603 -0.36473,0.15498 -0.38341,0.51152 -0.36844,0.1527 -0.3828,0.51017 -0.50771,0.20594 -1.02569,0.97128 -1.78541,1.04563 -1.7849,0.61293 -2.06184,0.13869 -2.00093,-0.22452 -1.49757,-1.50157 -0.46226,-0.87838 -0.26989,-0.90619 0.0914,-2.0327 1.16655,-4.81813 1.80464,-4.85505 0.22709,-0.25159 0.90771,-2.48392 0.20687,-0.23108 0.14028,-0.63737 0.25232,-0.28142 0.13839,-0.63585 0.25416,-0.28297 0.13642,-0.63432 0.31864,-0.354 0.53293,-1.49174 0.25143,-0.28198 0.12395,-0.57465 0.29553,-0.33177 0.12257,-0.57293 0.29699,-0.33363 0.12122,-0.57081 0.29824,-0.33556 0.11986,-0.56915 0.29983,-0.33757 0.11853,-0.56678 0.30516,-0.34402 0.11581,-0.55656 0.30811,-0.34795 0.1147,-0.55454 0.30913,-0.34977 0.11349,-0.55257 0.31036,-0.35191 0.11251,-0.55065 0.31139,-0.35374 0.11137,-0.54843 0.31239,-0.35584 0.11031,-0.54665 0.31354,-0.35779 0.10931,-0.54478 0.31476,-0.35979 0.10808,-0.54241 0.31643,-0.36257 0.1069,-0.53961 0.31755,-0.3646 0.10588,-0.53736 0.31854,-0.36668 0.10489,-0.53544 0.31953,-0.36868 0.10388,-0.53336 0.32055,-0.37082 0.10309,-0.53143 0.32128,-0.3725 0.10199,-0.52946 0.32243,-0.37467 0.10098,-0.52738 0.32341,-0.37677 0.10018,-0.52566 0.32404,-0.37848 0.0993,-0.52405 0.32468,-0.38023 0.0984,-0.52209 0.32565,-0.38231 0.0976,-0.5198 0.32639,-0.38444 0.0967,-0.5179 0.32729,-0.38643 0.0958,-0.51575 0.32818,-0.38851 0.0949,-0.51382 0.32914,-0.3906 0.0941,-0.51158 0.32994,-0.39268 0.0933,-0.50972 0.32516,-0.38792 0.0936,-0.51828 0.30338,-0.3624 0.10235,-0.58639 0.28036,-0.33601 0.10157,-0.58446 0.28125,-0.33809 0.11163,-0.64534 0.18833,-0.23334 0.22913,-1.41371 0.0958,-2.7135 -0.11115,-0.30814 0.11547,-4.66831 -0.14218,-0.391209 0.10272,-0.652297 -0.12816,-0.348695 0.10208,-0.649244 -0.12848,-0.346656 0.10239,-0.651562 -0.12866,-0.344297 0.10259,-0.653745 -0.1026,-0.272298 0.014,-2.587011 -0.19695,-0.4997 0.0887,-0.563468 -0.17262,-0.429083 0.0913,-0.565959 -0.22759,-0.554423 0.0791,-0.580013 m -79.32458,129.90805 0.91048,-2.68445 m 16.36733,1.5015 -0.68542,-2.75054 m 22.26669,-6.04268 -1.70263,-2.26635 m 13.44143,-6.55618 -1.85256,-2.14553 m 16.4839,-15.7386 -2.27371,-1.69277 m 8.51797,-9.02015 -2.37437,-1.54843 m 7.42113,-10.21308 -2.65804,-0.98491 m -8.9466,-0.4077 0.19025,2.82826 m -2.69964,-8.02674 -2.75505,-0.66705 m 22.52075,-50.98096 -2.83379,-0.0701 m 2.68115,-8.226861 -2.83461,-0.0153 m -7.35379,60.385201 1.44026,2.20326 m 4.32177,-37.37913 -2.45879,-1.1951"
           inkstitch:satin_column="true"
           sodipodi:nodetypes="ccccccccccccccccccccccccccccccccccccccccccccccccccccccccccccccccccccccccccccccccccccccccccccccccccccccccccccccccccccccccccccccccccccccccccccccccccccccccccccccccccccccccccccccccccccccccccccccccccccccccccccccccccccccccccccccccccccccccccccccccccccccccccccccccccccccccccccccccccccccccccccccccccccccccccccccccccccccccccccccccccccccccccccccccccccccccccccccccccccccccccccccccccccccccccccccccccccccccccccccccccccccccccccccccccccccccccccccccccccccccccccccccccccccccccc"
           inkstitch:ties="3"
           inkstitch:center_walk_underlay="True"
           inkstitch:center_walk_underlay_stitch_length_mm="1" /><path
           id="path6"
           style="fill:none;stroke:#050606;stroke-width:1px"
           transform="scale(0.264583, 0.264583)"
           d="m 222.78649,89.921155 -0.80284,-1.448959 -0.82903,-0.627107 -1.04863,-0.210424 -2.02742,0.35493 -0.42556,0.316822 -1.48472,0.414782 -0.33254,0.246724 -0.53168,0.06361 -0.41739,0.308752 -0.50927,0.06309 -0.41902,0.307722 -0.42283,0.05399 -1.30354,0.636575 -0.65275,0.08296 -0.37123,0.271766 -0.58648,0.07267 -0.40194,0.294974 -5.45895,1.408255 -3.68439,0.399551 -11.13039,0.180615 -3.01033,0.214061 -3.09,0.483553 -0.2858,0.215529 -0.54258,0.07127 -0.43383,0.330962 -0.36879,0.04949 -1.01407,0.616379 -1.50978,1.21422 -1.30601,1.529284 -1.29631,2.671489 -0.60063,2.02982 0.064,0.45005 -0.15249,0.39237 0.0265,8.08883 0.84597,5.89676 1.14365,4.02733 0.22979,0.284 0.43412,1.55184 0.23123,0.28835 0.0943,0.59839 0.26758,0.33327 0.0942,0.59853 0.26752,0.33304 0.0943,0.59882 0.26741,0.33272 0.077,0.48854 0.67456,1.29044 0.1,0.6429 0.31169,0.38063 0.0839,0.53717 0.31127,0.38064 0.0844,0.53751 0.31082,0.38036 0.0848,0.53772 0.31042,0.38017 0.0852,0.53773 0.30996,0.38003 0.0857,0.53811 0.30951,0.37976 0.0861,0.53831 0.30912,0.37956 0.0865,0.53852 0.30872,0.37937 0.0869,0.53853 0.3082,0.37915 0.0873,0.53899 0.35172,0.43288 0.47264,1.47933 0.23749,0.29136 0.0927,0.58498 0.27939,0.34264 0.0931,0.58499 0.27889,0.34231 0.0933,0.58536 0.27873,0.34217 0.0936,0.58572 0.27844,0.34177 0.0939,0.58604 0.27819,0.3414 0.0941,0.58617 0.27792,0.34125 0.0962,0.59813 0.26171,0.32276 0.10245,0.63407 0.22221,0.27724 0.10789,0.66633 0.22187,0.27689 0.1081,0.66674 0.22173,0.27666 0.10839,0.66685 0.22147,0.27639 0.10859,0.66714 0.2212,0.27612 0.10981,0.67325 0.21191,0.26513 0.0884,0.54088 0.78636,2.11526 0.54229,2.68744 0.0701,1.48463 -0.39586,1.02591 -0.81374,0.62628 -0.5543,0.15827 -1.364,0.15626 -0.52515,-0.19892 -0.41345,0.0632 -2.0499,-0.79315 -0.21773,-0.26822 -0.56952,-0.22401 -0.30492,-0.37724 -0.48897,-0.19675 -1.90948,-1.82358 -6.3521,-7.47004 -1.43689,-1.44858 -1.88242,-0.95287 -1.76156,0.48557 -1.33968,1.82004 -0.0766,0.54979 -0.63742,1.25652 -0.0719,0.52263 -0.2134,0.28868 -0.92932,3.52164 -0.23805,0.33661 -0.0767,0.6754 -0.20168,0.28712 -0.0729,0.66805 -0.20546,0.29429 -0.0692,0.66083 -0.20909,0.30147 -0.0655,0.65387 -0.2115,0.30699 -0.0619,0.64848 -0.21523,0.31423 -0.0582,0.6412 -0.21896,0.32159 -0.0545,0.63394 -0.22263,0.32887 -0.0509,0.62672 -0.22611,0.33606 -0.0474,0.6195 -0.22964,0.34352 -0.0435,0.60607 -0.23714,0.35621 -0.0394,0.59589 -0.21117,0.31827 -0.32272,1.52293 -0.25561,0.39292 -0.31789,1.50601 -0.30372,0.476 -0.0245,0.50582 -0.30039,0.47041 -0.0209,0.47049 -0.30532,0.48251 -0.0186,0.45762 -0.30681,0.48982 -0.0171,0.44969 -0.25474,0.411 -0.33923,1.37488 -0.37451,0.61643 -0.0114,0.37736 -0.34963,0.57848 -0.009,0.34908 -0.2758,0.46121 -0.74243,2.2398 -1.95073,4.39459 -1.75441,3.34879 -2.0338,3.22762 -1.44683,1.82243 -0.24706,0.49442 -0.27105,0.18308 -0.3088,0.62452 -0.27691,0.18867 -0.30281,0.61876 -0.28291,0.19428 -0.297,0.61324 -0.28872,0.19999 -0.29109,0.60746 -0.29447,0.20557 -0.28544,0.60186 -0.30018,0.21128 -0.27982,0.59627 -0.30575,0.21717 -0.27409,0.59019 -0.31139,0.22291 -0.26853,0.58452 -0.31694,0.22878 -0.26307,0.57871 -0.32251,0.23484 -0.25738,0.57255 -0.32795,0.24071 -0.25202,0.56674 -0.3333,0.24668 -0.24671,0.56074 -0.33867,0.25275 -0.24131,0.55466 -0.34385,0.25876 -0.23619,0.54864 -0.34902,0.26483 -0.23096,0.5425 -0.35425,0.27095 -0.22741,0.54027 -0.35573,0.27473 -0.26448,0.63421 -0.91899,1.08615 -0.18295,0.44875 -0.35353,0.28087 -0.21514,0.53438 -0.35877,0.28702 -0.20996,0.52837 -0.36383,0.29319 -0.20483,0.52212 -0.3689,0.29938 -0.19984,0.51593 -0.37395,0.30563 -0.20902,0.54692 -0.30624,0.25522 -0.60726,1.75069 M 221.134,90.836989 l -0.60896,-1.099041 -0.16537,-0.125093 -0.27697,-0.05558 -1.23538,0.21627 -0.34704,0.258378 -1.48628,0.415218 -0.45486,0.337476 -0.53312,0.06379 -0.41401,0.306248 -0.51273,0.06351 -0.41598,0.305478 -0.59837,0.07641 -1.30406,0.636825 -0.47865,0.06084 -0.37377,0.273634 -0.58532,0.07253 -0.29846,0.219026 -5.94385,1.533345 -3.90661,0.423649 -11.16541,0.181185 -2.87927,0.204739 -2.5436,0.398047 -0.3056,0.230471 -0.53702,0.07053 -0.43157,0.329238 -0.47321,0.06351 -0.56993,0.346421 -1.27522,1.02558 -1.03379,1.210516 -1.12269,2.313711 -0.43977,1.48618 0.0756,0.53215 -0.20211,0.52003 0.0249,7.59957 0.80923,5.64064 1.00335,3.53327 0.23221,0.287 0.43528,1.55596 0.30397,0.37905 0.0942,0.59781 0.26762,0.33333 0.0942,0.59827 0.26748,0.33296 0.0943,0.59858 0.26739,0.33268 0.10704,0.67946 0.67544,1.29216 0.0688,0.4427 0.31131,0.38017 0.0839,0.53783 0.31073,0.37996 0.0844,0.53789 0.31038,0.37984 0.0848,0.53808 0.30998,0.37963 0.0852,0.53827 0.30944,0.37937 0.0857,0.53849 0.30909,0.37924 0.0861,0.53869 0.30868,0.37904 0.0865,0.53888 0.30828,0.37883 0.0869,0.53907 0.3078,0.37865 0.0873,0.53921 0.25848,0.31812 0.47216,1.47787 0.33311,0.40864 0.0927,0.58482 0.27901,0.34216 0.0931,0.58541 0.27871,0.34209 0.0933,0.58544 0.27847,0.34183 0.0936,0.58568 0.27816,0.34143 0.0939,0.58596 0.27801,0.3412 0.0941,0.58643 0.27768,0.34095 0.0966,0.60027 0.26129,0.32224 0.10335,0.63973 0.22199,0.27696 0.10791,0.66647 0.22173,0.27671 0.1081,0.66666 0.22147,0.27634 0.10841,0.66695 0.22133,0.27621 0.10861,0.66726 0.221,0.27588 0.10999,0.67435 0.21169,0.26487 0.1386,0.84792 0.77404,2.08214 0.60011,2.97396 0.0957,2.02617 -0.72994,1.89169 -1.51986,1.16972 -1.0511,0.30013 -1.974,0.22614 -0.48965,-0.18548 -0.42055,0.0643 -2.9883,-1.15625 -0.22127,-0.27258 -0.57148,-0.22479 -0.30988,-0.38336 -0.37043,-0.14905 -2.24312,-2.14222 -6.3687,-7.48956 -1.17051,-1.18002 -0.95798,-0.48493 -0.42604,0.11743 -0.66772,0.90716 -0.0542,0.38841 -0.63658,1.25488 -0.0943,0.68617 -0.285,0.38552 -0.92408,3.50176 -0.15515,0.21939 -0.0763,0.6722 -0.19912,0.28348 -0.0725,0.66515 -0.20294,0.29071 -0.0688,0.65777 -0.20651,0.29773 -0.0651,0.65073 -0.2089,0.30321 -0.0617,0.64572 -0.21257,0.31037 -0.058,0.6384 -0.21624,0.31761 -0.0543,0.63126 -0.21997,0.32493 -0.0507,0.62388 -0.22349,0.33214 -0.0472,0.6165 -0.22696,0.33948 -0.0433,0.60413 -0.23406,0.35159 -0.0393,0.59431 -0.28963,0.43653 -0.32088,1.51427 -0.25519,0.39228 -0.31611,1.49759 -0.21848,0.3424 -0.0245,0.50618 -0.29821,0.46699 -0.0207,0.46631 -0.30328,0.47929 -0.0184,0.45298 -0.30539,0.48758 -0.0169,0.44491 -0.36086,0.5822 -0.33717,1.36652 -0.26609,0.43797 -0.0114,0.37504 -0.34737,0.57472 -0.009,0.34432 -0.4236,0.70839 -0.70617,2.1304 -2.01307,4.53501 -1.81779,3.46981 -2.1288,3.37838 -1.38837,1.74877 -0.38074,0.76198 -0.26755,0.18072 -0.307,0.62088 -0.27349,0.18633 -0.30119,0.61544 -0.27949,0.19192 -0.2952,0.60956 -0.28528,0.19761 -0.28951,0.60414 -0.29113,0.20323 -0.28376,0.59834 -0.29682,0.20892 -0.27798,0.59233 -0.30245,0.21483 -0.27251,0.58681 -0.30801,0.22049 -0.26687,0.58088 -0.31366,0.22642 -0.26133,0.57489 -0.31909,0.23236 -0.25582,0.56905 -0.32465,0.23829 -0.25038,0.56306 -0.3301,0.24432 -0.24509,0.55706 -0.33533,0.25025 -0.23969,0.55094 -0.34075,0.25644 -0.23461,0.54496 -0.34578,0.26237 -0.22944,0.5389 -0.35095,0.26845 -0.22559,0.53593 -0.35307,0.27267 -0.18432,0.44199 -0.91401,1.08025 -0.25645,0.62905 -0.35007,0.27813 -0.21386,0.53122 -0.35523,0.28418 -0.20864,0.52503 -0.36037,0.29041 -0.20357,0.51888 -0.3655,0.29662 -0.19856,0.51267 -0.37045,0.30277 -0.20558,0.53788 -0.28196,0.23498 -0.43514,1.25451 m 56.51048,-122.216227 0.046,2.834279 m -18.56262,3.490073 2.55027,1.237485 m -3.83811,12.22203 2.80593,-0.40255 m 6.09658,26.47756 2.70019,-0.86268 m 3.56421,18.50924 2.77864,-0.5607 m -7.35623,3.51478 -1.0229,2.64366 m -6.16711,-9.42413 -2.15947,1.83629 m -8.91374,-3.67748 2.74147,0.72083 m -8.07128,17.53377 2.77354,0.58544 m -8.7202,14.88597 2.51094,1.31546 m -17.78299,21.04565 2.16399,1.83096 m 78.63974,-119.774968 -2.39109,1.937235 m -2.91282,0.537746 -1.06526,-2.835742"
           inkstitch:satin_column="true"
           sodipodi:nodetypes="cccccccccccccccccccccccccccccccccccccccccccccccccccccccccccccccccccccccccccccccccccccccccccccccccccccccccccccccccccccccccccccccccccccccccccccccccccccccccccccccccccccccccccccccccccccccccccccccccccccccccccccccccccccccccccccccccccccccccccccccccccccccccccccccccccccccccccccccccccccccccccccccccccccccccccccccccccccccccccccccccccccccccccccccccccccccccccccccccccccccccccccccccccccccccccccccccccccccccccccccccccccccccccccccccccccccccccccccccccccccccccccccccccccccccccc"
           inkstitch:ties="3"
           inkstitch:center_walk_underlay="True"
           inkstitch:center_walk_underlay_stitch_length_mm="1" /></g></g></g></svg>
