<?xml version="1.0" encoding="UTF-8" standalone="no"?>
<svg
   width="100mm"
   height="100mm"
   viewBox="-938 0 100 100"
   version="1.2"
   id="svg36"
   sodipodi:docname="dackel.svg"
   inkscape:version="1.3.2 (091e20e, 2023-11-25)"
   xmlns:inkscape="http://www.inkscape.org/namespaces/inkscape"
   xmlns:sodipodi="http://sodipodi.sourceforge.net/DTD/sodipodi-0.dtd"
   xmlns="http://www.w3.org/2000/svg"
   xmlns:svg="http://www.w3.org/2000/svg"
   xmlns:rdf="http://www.w3.org/1999/02/22-rdf-syntax-ns#"
   xmlns:cc="http://creativecommons.org/ns#"
   xmlns:dc="http://purl.org/dc/elements/1.1/"
   xmlns:inkstitch="http://inkstitch.org/namespace"><sodipodi:namedview
   id="namedview36"
   pagecolor="#ffffff"
   bordercolor="#000000"
   borderopacity="0.25"
   inkscape:showpageshadow="2"
   inkscape:pageopacity="0.0"
   inkscape:pagecheckerboard="0"
   inkscape:deskcolor="#d1d1d1"
   inkscape:zoom="1.4045155"
   inkscape:cx="204.34093"
   inkscape:cy="226.76859"
   inkscape:window-width="1680"
   inkscape:window-height="924"
   inkscape:window-x="0"
   inkscape:window-y="25"
   inkscape:window-maximized="0"
   inkscape:current-layer="svg36"
   inkscape:document-units="mm" />
<defs
   id="defs36" /><g
   id="g42"
   transform="matrix(6.12323e-17 1 -1 6.12323e-17 -838 962.97)">
  <g
     id="g43">
    <path
       id="path36"
       style="fill:#8b5f4f;fill-rule:evenodd;stroke:none;stroke-width:0.862325;stroke-linecap:round;stroke-dasharray:none"
       d="m -910.55043,0.9219259 c -0.73106,0.006 -1.46723,0.0739 -1.90569,0.20155 l -0.25498,0.0743 -0.0172,0.66569 c -0.0221,0.85816 -0.18434,1.38369 -0.55883,1.80915 -0.5889,0.66902 -1.44785,1.0339 -2.25659,0.95873 l -0.43442,-0.0404 -0.26136,0.55441 c -0.14378,0.30486 -0.64963,1.46734 -1.12406,2.58329 -0.47442,1.11596 -1.05806,2.4061601 -1.29698,2.8671301 -1.04571,2.01755 -2.1222,3.32267 -3.51661,4.2636 -0.5274,0.35588 -0.78313,0.71556 -1.21175,1.70463 -1.12769,2.60222 -0.5886,5.10205 1.58635,7.35634 0.91439,0.94775 1.89457,1.68413 3.248,2.44033 1.15412,0.64484 2.20922,1.07019 4.2324,1.70622 0.21431,0.0674 0.3074,0.16428 0.65464,0.68093 0.22267,0.3313 0.6014,1.00183 0.84157,1.49006 0.99213,2.01683 1.46749,3.98298 1.80497,7.46578 l 0.0566,0.88799 c 0.0221,0.25284 0.0821,1.37277 0.13339,2.48872 0.11722,2.55248 0.13552,2.81973 0.30324,4.40681 0.11261,1.06554 0.13776,1.69416 0.13903,3.48738 0.002,2.19561 -0.046,3.06313 -0.28985,5.29442 -0.28575,2.6143 -1.19955,8.5379 -2.24087,14.5265 -1.26701,7.2866 -1.54569,9.629 -1.60257,13.4688 -0.0482,3.2532 0.0547,4.1121 0.62332,5.205 0.48239,0.9272 1.30559,1.6676 2.49695,2.2454 1.62398,0.7877 3.04963,1.0949 7.19668,1.5509 1.27289,0.1399 2.62821,0.2973 3.01181,0.3495 0.38361,0.052 0.79726,0.1049 0.91932,0.1168 0.52411,0.051 3.07012,0.037 3.70931,-0.022 2.09251,-0.1899 3.90457,-0.6361 5.19728,-1.2796 0.64347,-0.3204 1.02881,-0.6043 1.42829,-1.0525 0.74677,-0.8378 0.79786,-1.8192 0.16089,-3.089 -0.43537,-0.868 -0.37965,-0.8272 -0.95296,-0.6996 -0.26551,0.059 -0.93061,0.2491 -1.47791,0.4223 -1.52242,0.4819 -1.9852,0.5818 -2.70697,0.5846 -1.0737,0 -1.87189,-0.336 -2.65354,-1.1302 -0.49525,-0.5033 -0.81511,-0.9744 -1.529,-2.2523 -0.85306,-1.527 -1.28821,-2.1457 -2.02961,-2.8851 -0.93983,-0.9373 -1.59306,-1.2716 -2.6603,-1.3615 -0.62763,-0.053 -0.79711,-0.1615 -0.79711,-0.5114 0,-0.4215 0.49174,-0.5374 1.44475,-0.3406 1.76486,0.3646 3.22202,1.699 4.64041,4.2496 0.31657,0.5693 0.38122,0.6518 0.41096,0.5245 0.0194,-0.083 0.17548,-0.7504 0.34672,-1.4827 0.6317,-2.7015 0.83118,-3.8069 0.98429,-5.4529 0.60351,-6.4883 0.90396,-17.9397 0.60968,-23.2385 -0.29364,-5.28733 -0.7387,-9.54495 -1.37068,-13.11326 -0.10924,-0.61678 -0.25801,-1.42896 -0.53378,-2.61313 -0.23972,-1.02936 -0.42839,-1.71118 -0.99092,-3.58084 -0.28314,-0.94109 -0.35537,-1.80705 -0.19098,-2.2895 0.27674,-0.81219 1.16489,-1.88905 2.0048,-2.43075 1.38256,-0.89167 3.00395,-1.31982 5.86801,-1.54963 1.22217,-0.0981 1.42836,-0.16717 1.83126,-0.61312 0.46176,-0.51112 0.67797,-1.22518 0.67527,-2.23067 -0.002,-0.918 -0.25352,-1.85242 -0.6415,-2.38801 -0.17997,-0.24844 -0.20385,-0.26025 -0.5253,-0.26025 -0.48789,0 -1.05995,0.16934 -2.42792,0.71875 -1.56054,0.62674 -2.02589,0.7489 -2.87769,0.75522 -1.02026,0.008 -1.49085,-0.1636 -2.81297,-1.02285 -0.82374,-0.53536 -1.88226,-1.08208 -2.44978,-1.26542 -0.37332,-0.1206 -1.14823,-0.27364 -1.18989,-0.23496 -0.009,0.009 0.0155,0.23337 0.055,0.49939 0.25177,1.69278 -0.91425,3.95861 -2.62099,5.09325 -1.11067,0.73837 -2.42599,1.12817 -4.89453,1.45039 -2.36833,0.30913 -4.08295,0.133 -6.50373,-0.66802 -1.5504,-0.51301 -3.8451,-1.45345 -3.97878,-1.63069 -0.20081,-0.26624 0.006,-0.71494 0.32879,-0.71494 0.085,0 0.81974,0.26819 1.63278,0.59605 2.56002,1.03232 4.12235,1.47125 5.78989,1.62664 0.82066,0.0765 1.18153,0.0583 2.69481,-0.13559 2.44452,-0.31318 3.73071,-0.73921 4.79996,-1.59004 1.01709,-0.80932 1.85767,-2.40321 1.85767,-3.52238 0,-1.73426 -1.75453,-2.98624 -4.78031,-3.41098 -1.69619,-0.2381 -3.05954,-0.18989 -5.58663,0.1975 -2.62638,0.40262 -4.04209,0.75066 -5.38299,1.3234 -0.72326,0.30892 -0.91302,0.3221 -1.08598,0.0752 -0.1272,-0.1816 -0.11782,-0.4443 0.0203,-0.56927 0.28251,-0.25568 1.7745,-0.81372 3.00861,-1.12529 0.77649,-0.19603 2.14102,-0.44411 4.01072,-0.72906 0.81354,-0.12399 1.43197,-0.17298 2.52163,-0.19983 l 1.44376,-0.0356 -0.037,-0.1975 c -0.0624,-0.33263 0.13479,-1.06852 0.53231,-1.98589 0.20841,-0.48097 0.40859,-0.98861 0.44485,-1.1281 0.0785,-0.30186 0.48895,-4.1260101 0.57849,-5.3896201 0.0346,-0.48823 0.0615,-1.44404 0.0599,-2.12407 l -0.003,-1.23643 -0.12393,0.47347 c -0.21081,0.80523 -0.68601,1.63428 -1.56879,2.73694 -0.39744,0.49644 -0.4418,0.53178 -0.68816,0.54974 -0.21467,0.0157 -0.28191,-0.007 -0.36429,-0.12503 -0.18363,-0.26216 -0.12225,-0.42064 0.45898,-1.18583 1.30319,-1.71564 1.55584,-2.54431 1.40667,-4.61327 -0.0349,-0.48371 -0.0637,-0.95837 -0.064,-1.05479 -9.6e-4,-0.30252 -0.34623,-0.60638 -0.8568,-0.75387 -0.41789,-0.12072 -1.14392,-0.17688 -1.87498,-0.17097 z m -6.73562,11.9666801 c 0.16338,-6.3e-4 0.34532,0.1288 0.6006,0.40395 0.52954,0.57079 0.76382,1.03999 0.79993,1.60257 0.055,0.85679 -0.25357,1.48535 -0.9499,1.93541 -0.44942,0.29047 -0.63048,0.31081 -0.84636,0.0949 -0.26878,-0.26878 -0.17577,-0.5301 0.3057,-0.85889 0.4126,-0.28174 0.57788,-0.56026 0.58095,-0.97875 0.003,-0.40496 -0.13159,-0.67963 -0.57112,-1.16533 -0.3899,-0.43086 -0.44555,-0.67341 -0.2056,-0.89696 0.0965,-0.0899 0.18778,-0.13673 0.2858,-0.13694 z"
       sodipodi:nodetypes="scccscccsssssssssccsssssssssssssssssssssssssssssssssssssssssssssssssssssssssssssscccssssccssssscssssssssssss"
       inkstitch:angle="-10" />
    <path
       style="fill:#8b5f4f;fill-rule:evenodd;stroke:none;stroke-width:0.862325;stroke-linecap:round;stroke-dasharray:none"
       d="m -897.19083,84.502586 c -0.1271,-0.1632 -0.2184,-0.3415 -0.20288,-0.3963 0.0155,-0.055 0.0758,-0.3422 0.1339,-0.6386 0.1517,-0.7737 0.45564,-2.0325 0.50191,-2.0788 0.0423,-0.042 1.2328,-0.3744 3.34403,-0.933 1.5268,-0.4039 1.84054,-0.5319 2.39127,-0.9755 0.52087,-0.4195 1.12744,-0.7881 1.21156,-0.7361 0.12973,0.08 0.45498,0.8171 0.54214,1.2283 0.11731,0.5534 0.11385,0.9927 -0.0122,1.5468 -0.18164,0.7987 -0.41557,1.2184 -0.7843,1.4075 -0.0872,0.045 -0.41531,0.1164 -0.72918,0.1593 -1.05882,0.1447 -1.77027,0.3192 -2.9801,0.7309 -1.1269,0.3836 -3.04092,0.9821 -3.1406,0.9821 -0.0245,0 -0.14846,-0.1335 -0.27556,-0.2966 z"
       id="path37"
       inkstitch:angle="30" />
    <path
       id="path38"
       style="fill:#8b5f4f;fill-rule:evenodd;stroke:none;stroke-width:0.862325;stroke-linecap:round;stroke-dasharray:none"
       d="m -914.99925,87.391286 -0.25792,0.4001 c -0.6324,0.981 -1.98779,2.071 -3.4692,2.7899 -0.92823,0.4505 -5.18898,2.0583 -13.00635,4.908 -0.23177,0.084 -0.58128,0.2243 -0.77672,0.3107 l -1.00332,0.449 c -1.38112,0.6803 -2.39761,1.3083 -3.07298,1.8987 -0.30081,0.263 -0.54287,0.5766 -0.54287,0.7034 0,0.087 0.19172,0.2048 0.41366,0.253 0.1848,0.04 0.26643,0.042 0.51229,0.011 0.42357,-0.053 0.97059,-0.2333 1.67196,-0.5508 1.28505,-0.5818 0.18179,-0.1163 2.53809,-1.2996 0.44442,-0.2232 1.5357,-0.6978 2.42497,-1.0547 3.32887,-1.3359 6.23249,-2.6377 9.25737,-4.1506 1.84993,-0.9252 3.93372,-1.6315 6.16119,-2.0882 l 0.99349,-0.2037 -0.39192,-0.3507 c -0.48954,-0.4379 -0.84242,-0.8934 -1.18522,-1.5305 z"
       sodipodi:nodetypes="ccssccssssssssccccc"
       inkstitch:angle="120" />
    <path
       style="fill:#8b5f4f;fill-rule:evenodd;stroke:none;stroke-width:0.862325;stroke-linecap:round;stroke-dasharray:none"
       d="m -896.08901,22.130746 c -0.31781,-0.0865 -0.77674,-0.30465 -1.00717,-0.47872 l -0.15118,-0.11421 0.40298,-0.0456 c 0.5522,-0.0625 1.46921,-0.36674 1.93091,-0.64071 0.21063,-0.12498 0.66716,-0.46822 1.01451,-0.76277 0.75696,-0.64189 1.25767,-0.91527 1.67637,-0.91527 0.61689,0 1.2626,0.31406 1.40256,0.68218 0.0374,0.0983 0.0332,0.30104 -0.0115,0.55769 l -0.0702,0.40321 -0.34008,0.0989 c -0.18704,0.0544 -0.8705,0.31317 -1.5188,0.57509 -1.71499,0.6929 -2.54703,0.85295 -3.32839,0.64023 z"
       id="path40"
       inkstitch:angle="30" />
  </g>
  <path
     style="fill:#000000;fill-opacity:1;fill-rule:evenodd;stroke:none;stroke-width:0.16708;stroke-linecap:round;stroke-dasharray:none"
     d="m -915.49812,3.7506559 c -0.0387,-0.0112 -0.04,-0.0133 -0.0233,-0.0388 0.01,-0.0149 0.0606,-0.0961 0.11318,-0.1806 0.5024,-0.80705 1.10081,-1.46328 1.70445,-1.86917 l 0.10788,-0.0725 v 0.19122 c 0,0.2237 -0.0144,0.37211 -0.0563,0.58151 -0.0618,0.30867 -0.17742,0.59157 -0.29831,0.72971 -0.26365,0.30129 -0.73777,0.57154 -1.14679,0.65368 -0.1042,0.0209 -0.3355,0.0238 -0.4008,0.005 z"
     id="path41"
     inkstitch:angle="110"
     inkstitch:fill_method="auto_fill" />
  <g
     id="g44">
    <path
       id="path5593"
       style="stroke:#000000;stroke-width:1px;fill:none"
       d="M-2322.5251183267233,165.49397118110193 -2326.0386844418445,174.06413813456368 -2327.617533694596,178.36995626581944 -2328.979060533487,182.692377337477 -2330.044531579297,187.01593335429556 -2330.7398092575854,191.3313365734318 -2330.9927433328985,195.63150393356793 -2330.730088043511,199.96044507658374 -2329.630132801409,207.87240037940202 -2328.8024893123443,211.73628221443852 -2327.613146877765,215.4454635129145 -2326.866183497336,217.16181895703042 -2325.979103198406,218.82064607347098 -2324.946640014118,220.39218786715062 -2323.7523460417983,221.87011860264892 -2322.3773713122146,223.2492301151991 -2320.800952117869,224.52335641786445 -2319.0000593505474,225.6852227193623 -2316.9655129503594,226.7177552493624 -2313.94572170252,227.82994403714196 -2312.631260123763,228.1145361764482 -2311.3641202021818,228.25358033358447 -2310.1754454074485,228.25029502976602 -2309.058474656915,228.11458670871997 -2308.0054136461076,227.8541140478983 -2307.0513987751765,227.4900905709516 -2305.1544410391552,226.35128559448123 -2303.472560332209,224.77581407213123 -2301.967220927946,222.7554972875596 -2300.655085011245,220.3268296975766 -2299.550956762804,217.53915390934282 -2298.664582178294,214.44779461600422 -2298.0011022707854,211.1094684592854 -2297.562548727108,207.5809692313506 -2297.3486944808533,203.91849635065424 -2297.3581504829017,200.17762395262227 -2297.5883801911896,196.41375844195568 -2298.038885292953,192.6602358566573 -2299.223588152714,184.94705559485234 -2300.459528452307,178.41771829670503 -2301.198516795658,175.4401730027651 -2302.083932178844,172.51550127570502 -2303.15947472146,169.56859635142266 -2304.489868767555,166.4741449919626  M-2325.515881673277,164.26782881889807 -2329.0409816732767,172.86612881889806 -2329.062983105618,172.92280883125716 -2330.6651831056183,177.29230883125717 -2330.6893094772227,177.36313728159564 -2332.0775094772225,181.77023728159563 -2332.105228195187,181.86908887616175 -2333.198828195187,186.30678887616176 -2333.225198587346,186.43642458318388 -2333.9439985873455,190.89782458318388 -2333.961786763896,191.06000125419027 -2334.225186763896,195.53810125419028 -2334.2250086292024,195.73088023568528 -2333.9527086292023,200.21878023568527 -2333.940279570002,200.34344750084924 -2332.823579570002,208.37584750084923 -2332.8031278632207,208.49180622830187 -2331.9463278632206,212.49180622830187 -2331.904994534562,212.64677588032214 -2330.6663945345617,216.50957588032213 -2330.6093179779873,216.6610354451325 -2329.8040179779873,218.51143544513252 -2329.7472897792104,218.62863956405923 -2328.7950897792107,220.40923956405922 -2328.7206508015897,220.5345090904851 -2327.60445080159,222.23350909048511 -2327.5107478670166,222.36190179262513 -2326.2134478670164,223.96730179262514 -2326.100923786555,224.09259067294403 -2324.605223786555,225.592790672944 -2324.476620093939,225.70865226027158 -2322.7656200939387,227.09155226027158 -2322.6258720600854,227.1926666931325 -2320.6821720600856,228.44666669313253 -2320.537409978602,228.52980160458952 -2318.3441099786023,229.6429016045895 -2318.1712586698104,229.71828657327904 -2314.9567586698104,230.90218657327907 -2314.7401919323993,230.96517720293895 -2313.233091932399,231.29147720293895 -2313.0673859175777,231.31843225835473 -2311.626585917578,231.47653225835472 -2311.4458331713513,231.48616913388184 -2310.0709331713515,231.48236913388183 -2309.88047337597,231.47057721035753 -2308.5709733759695,231.31147721035754 -2308.3778369181387,231.27599440892843 -2307.1334369181386,230.96819440892844 -2306.9453347891554,230.90928552035547 -2305.7657347891554,230.45918552035545 -2305.6351511724215,230.40265406414758 -2305.5100461338307,230.33485571741673 -2303.3432461338307,229.03405571741675 -2303.2012598217552,228.93822864331167 -2303.070213435929,228.8279118915914 -2301.157713435929,227.0364118915914 -2301.0574122085104,226.93372171649474 -2300.966618413122,226.82253675797037 -2299.305118413122,224.59263675797038 -2299.179179087335,224.3952210228815 -2297.765779087335,221.77912102288147 -2297.685093731759,221.60604454085802 -2296.5165937317593,218.65584454085803 -2296.4656248038723,218.50615115539964 -2295.5389248038723,215.27415115539964 -2295.5073286932625,215.14374690153272 -2294.8193286932624,211.68204690153271 -2294.8006650380644,211.56633899955574 -2294.3483650380645,207.92723899955575 -2294.3387728190014,207.82210909448878 -2294.118972819001,204.0578090944888 -2294.1162298566164,203.95951472080293 -2294.1259298566165,200.12211472080293 -2294.1289397562555,200.02752553586555 -2294.3649397562554,196.16932553586554 -2294.373441138212,196.07540571359382 -2294.832741138212,192.24860571359383 -2294.8399577248397,192.19584148801806 -2296.03295772484,184.42864148801806 -2296.042423569958,184.37341144482608 -2297.292023569958,177.77191144482606 -2297.3114128291404,177.68319689278798 -2298.07121282914,174.62179689278798 -2298.0929562510055,174.54280838351795 -2299.0033562510057,171.53560838351794 -2299.0319821814533,171.449790554748 -2300.1385821814533,168.41779055474802 -2300.172031232445,168.33355500803742 -2301.5203312324447,165.19745500803742  M-2326.3811258959163,165.52619139220053 -2322.7922098800477,166.99756222683635  M-2329.764033758714,173.89578957435364 -2326.12231430523,175.23112837933596  M-2332.976108223207,184.05212659651846 -2329.2099605547583,184.98023329373143  M-2334.4132787660633,193.2310172583535 -2330.5411505327133,193.4587742482967  M-2333.5510017620145,205.49089908796972 -2329.709130794009,204.95678508593087  M-2331.630577105152,214.56121888776423 -2327.936990222205,213.376876774988  M-2323.8783757720826,226.60778979138877 -2321.4401675466283,223.5911043667378  M-2313.75313918773,231.5096068125228 -2312.9323585499715,227.71862152546942  M-2302.287001372409,228.53715097271296 -2304.9387291261787,225.70632243289216  M-2296.8871865441674,220.4692857020728 -2300.4934415879466,219.04093880401405  M-2294.2660774047486,209.8858559385213 -2298.1152813133926,209.40744233958148  M-2293.952752331917,197.61366924515102 -2297.8243369169045,197.85048795906818  M-2295.0721768203193,188.55479754225843 -2298.906038280704,189.14365797101163  M-2297.2379278015746,176.6373874827365 -2301.002537011637,177.57171494005112  "
       inkstitch:satin_column="true"
       transform="matrix(1.6201e-17 -0.264583 0.264583 1.6201e-17 -962.97 -589.821)" />
    <path
       id="path265"
       style="stroke:#000000;stroke-width:1px;fill:none"
       d="M-2290.7335439575336,171.47904656945175 -2289.672258666092,173.06034095120228 -2289.1162414059004,173.67107546671082 -2288.5330899171804,174.10440650732096 -2287.7828877104807,174.43711678830493 -2286.9300150653985,174.65240724378666 -2286.0706761946694,174.71733772623716 -2285.264054693726,174.6261301472719 -2284.1926200211733,174.2688317117559 -2283.211258490396,173.68868367204394 -2282.1365931634414,172.8069047268788 -2280.845029356105,171.5809890386948  M-2293.4174560424663,173.28035343054827 -2292.2896560424665,174.96075343054827 -2292.219677329902,175.05714377741708 -2292.14278942528,175.14811833047733 -2291.40098942528,175.96291833047732 -2291.2904784284406,176.07311210744675 -2291.1698544694013,176.1721333648159 -2290.3166544694013,176.8061333648159 -2290.1672828296287,176.9047787323922 -2290.007918354933,176.9863002603321 -2288.967318354933,177.4478002603321 -2288.8393979234793,177.4981367318243 -2288.7076626099524,177.53742037111144 -2287.586162609952,177.82052037111143 -2287.450223576023,177.8486859517447 -2287.312368918288,177.86508150659822 -2286.162268918288,177.9519815065982 -2286.0104570407493,177.95629604940106 -2285.858910457512,177.94634142481272 -2284.732210457512,177.81894142481272 -2284.565461195929,177.79118969057868 -2284.402522753862,177.7461725928453 -2283.006922753862,177.28077259284532 -2282.8475660169947,177.2180668247563 -2282.6957388485766,177.13885133468744 -2281.459538848577,176.40805133468743 -2281.3554673600675,176.34102048353358 -2281.256831580678,176.26622079936863 -2280.0411315806778,175.26872079936862 -2279.953670643895,175.19151096130517 -2278.6197706438948,173.92541096130518  M-2293.0131145350924,174.4628427403004 -2289.7924200331627,172.30127450699945  M-2283.602401832843,177.8200852781014 -2284.829467223571,174.14047105527143  "
       inkstitch:satin_column="true"
       transform="matrix(1.6201e-17 -0.264583 0.264583 1.6201e-17 -962.97 -589.821)" />
    <path
       id="path117"
       style="stroke:#000000;stroke-width:1px;fill:none"
       d="M-2243.1002768711705,178.63272059102974 -2243.4221081939663,179.3843897660289 -2243.506905331524,180.06730282035826 -2243.4277536441296,180.9168642650559 -2243.174946245954,181.8669720690864 -2242.76600790112,182.84394532773 -2242.233565277784,183.77912975398334 -2241.6207614223586,184.60843868333023 -2241.0030222363516,185.2491882115096 -2240.3691098986465,185.68798496260072 -2239.5655992131346,186.04412599929927 -2237.4368401071506,186.5456306828173 -2235.463250838788,186.63318475580448 -2234.8835916737994,186.56118109543752 -2234.4317777159654,186.4079507696064  M-2246.071723128829,177.36047940897026 -2246.4835231288293,178.32227940897027 -2246.536507133153,178.46402870203133 -2246.5760009595174,178.61011225509787 -2246.6016583570126,178.75924932209074 -2246.7362583570125,179.8432493220907 -2246.7483856762456,180.01764285881984 -2246.7416062644534,180.19232604948348 -2246.633606264453,181.3515260494835 -2246.6154729729415,181.48534181335302 -2246.586231825375,181.6171766729692 -2246.270231825375,182.80477667296918 -2246.199241133841,183.01323151804806 -2245.709841133841,184.18243151804808 -2245.6234919481885,184.358040537582 -2244.9949919481883,185.461940537582 -2244.8903121883063,185.62277430835 -2244.1575121883066,186.61447430835 -2244.021209282738,186.77572580020865 -2243.2185092827376,187.60832580020866 -2243.1018160632248,187.7179402257885 -2242.974850096314,187.81547110818968 -2242.0833500963145,188.43257110818968 -2241.954373224629,188.51314746778166 -2241.8183937389094,188.58124418296305 -2240.7376937389095,189.06024418296303 -2240.597769506517,189.11463636591995 -2240.453401965573,189.15581055078272 -2238.030501965573,189.72661055078274 -2237.8819852375955,189.75434376786518 -2237.7315277165785,189.76808728227627 -2235.4706277165783,189.86838728227627 -2235.3349754839405,189.86870664845182 -2235.1997743023235,189.85764904004583 -2234.3214743023236,189.74854904004582 -2234.1596831526977,189.72003788687834 -2234.0016222840345,189.6752492303936 -2233.3936222840343,189.4690492303936  M-2246.439734146205,177.3987708212413 -2242.873998637016,178.92546023971713  M-2244.0180938539993,187.24467227048973 -2241.225671575419,184.55253034999902  M-2234.7165627167265,190.12334509277161 -2235.194704391149,186.27410739666163  "
       inkstitch:satin_column="true"
       transform="matrix(1.6201e-17 -0.264583 0.264583 1.6201e-17 -962.97 -589.821)" />
    <path
       id="path9250"
       style="stroke:#000000;stroke-width:1px;fill:none"
       d="M-2547.2470453587143,244.44662968918306 -2541.0997453587142,245.67042968918307 -2541.0451797540054,245.68227604093525 -2533.8551766270057,247.3738125260832 -2526.1481410635665,249.03977417513877 -2522.292486618953,249.70599196987428 -2518.4911758176218,250.1867878460504 -2505.610110955009,251.2495224961746 -2492.6830680692374,251.98862092309682 -2466.7118023589305,252.94371344307507 -2451.4397940260715,253.1950257300241 -2436.213603249162,252.9671934792238 -2421.009894563844,252.25145048288826 -2405.809150564552,251.03869250365446 -2394.859766889359,249.86461600250828 -2383.98518628981,248.36810039670348 -2373.212041513603,246.4156629708456 -2367.8934211015157,245.23153708735367 -2362.6110436291665,243.8841795968413 -2354.004869739571,241.30314437089967 -2353.898771233757,241.2752126938394 -2352.037971233757,240.8523126938394 -2351.8853602094614,240.8252505241083 -2350.1829602094617,240.6069505241083 -2350.0571617895494,240.59579410272468 -2349.930876322834,240.59449445394532 -2348.406476322834,240.6383944539453 -2348.214679553221,240.65539257539496 -2348.0262654937983,240.69507984260932 -2346.6991654937983,241.05837984260933 -2346.536423699942,241.11236103401706 -2346.3803165850372,241.18327950248178 -2344.303816585037,242.26297950248178 -2344.130021216756,242.36770277054453 -2342.2803212167564,243.64710277054454 -2342.1231949182234,243.77082937373842 -2340.4864949182233,245.23242937373843 -2340.3522089075263,245.3673825773221 -2338.914408907526,246.9935825773221 -2338.8051132067035,247.1316872802057 -2337.5525132067037,248.90508728020572 -2337.467498766244,249.0389305635906 -2336.385898766244,250.9420305635906 -2336.3219483859266,251.06687158508956 -2335.397748385926,253.08207158508955 -2335.351138307601,253.19473649551458 -2334.570138307601,255.30453649551458 -2334.5246722845272,255.44738608601176 -2333.3369722845273,259.88088608601174 -2333.304738037516,260.02850754190075 -2332.523238037516,264.6303075419007 -2332.5092803235743,264.7319441488269 -2332.0225803235744,269.36204414882695 -2332.0173513213745,269.4227901070405 -2331.7229497930807,273.8099748870218 -2331.4046353206577,275.173969189229 -2330.85246392356,276.3199128647888 -2330.070922075462,277.32137492432963 -2329.0646695021005,278.1928819936437 -2327.845866317373,278.9303711258762 -2326.4391059483933,279.52247965945816 -2324.8781370377906,279.95871032951953 -2323.2015027224847,280.23198673268604 -2321.449338057814,280.33896814332684 -2319.662679572815,280.2789395164826 -2317.8819367463475,280.0537743355435 -2316.1477372552527,279.66733395469936 -2314.500086512402,279.125508063851 -2312.9782621928634,278.4368321200069 -2311.6193160217654,277.61232582251887 -2310.908139550348,277.03346738012743 -2310.8501468918735,276.03616856152735 -2310.9894440391045,274.43089268081013 -2311.329678311447,272.7823451910313 -2311.8334425942794,271.10192284709916 -2313.203280684539,267.55583736971914 -2314.6967082573,263.9261542902371 -2314.7367654791365,263.81797854040667 -2315.9568654791365,260.1231785404067 -2316.0051236981167,259.9425520930661 -2316.391023698117,258.0696520930661 -2316.4175905590405,257.8903426444571 -2316.5903905590403,255.99634264445717 -2316.5953805756417,255.7755061303515 -2316.5074805756417,253.85760613035148 -2316.4968885074036,253.73269228851194 -2316.4766463825704,253.60897520733513 -2316.0804463825702,251.66417520733512 -2316.048912629719,251.5362791830139 -2316.007068130674,251.41137598647452 -2315.2547681306737,249.43687598647455 -2315.204466767673,249.31910474672648 -2315.144998607591,249.2056859212696 -2313.988898607591,247.1983859212696 -2313.946905298218,247.12950815161776 -2311.232696824187,242.91785661054044 -2309.99431264058,240.73862461152837 -2308.8944894106708,238.5145418945317 -2307.994926080336,236.2827784541787 -2307.3479176863557,234.07267640790363 -2306.999973817021,231.91225305463442 -2306.989557816459,229.67338107935163  M-2547.878154641286,247.61677031081695 -2541.7582397778915,248.83511849779694 -2534.5811202459945,250.52362395906476 -2534.5524677335184,250.53009060541493 -2526.7980677335186,252.20629060541492 -2526.7317808909725,252.21917593197753 -2522.8067808909723,252.89737593197754 -2522.734400714738,252.9082009142982 -2518.861900714738,253.3980009142982 -2518.7919888245456,253.4053026982598 -2505.8555888245455,254.47260269825978 -2505.814953504488,254.47544018009472 -2492.851153504488,255.21664018009474 -2492.818294649535,255.2181835574289 -2466.8141946495352,256.1744835574289 -2466.781391769842,256.1753565277715 -2451.4675917698414,256.42735652777145 -2451.4168195829257,256.4273944088086 -2436.139319582926,256.19879440880857 -2436.0874996979437,256.1971873686194 -2420.8315996979436,255.47898736861939 -2420.779065433623,255.47565601613252 -2405.530165433623,254.25905601613252 -2405.486389110282,254.25496346540768 -2394.491089110282,253.07596346540768 -2394.4430651014914,253.07008561743888 -2383.5104651014913,251.56558561743887 -2383.4425923401154,251.55477009235992 -2372.6039923401154,249.59047009235994 -2372.540977653018,249.57775046982698 -2367.1667776530185,248.38125046982697 -2367.1185567745747,248.36973567377387 -2361.7795567745748,247.0079356737739 -2361.714730260429,246.98995562910034 -2353.1289052066018,244.4150231222762 -2351.3972847128575,244.02148146986627 -2349.8973939412626,243.82914937668062 -2348.693023891183,243.86383308515508 -2347.7187124138622,244.13055553237893 -2345.885174556122,245.08392457885225 -2344.2014768932027,246.24850412685444 -2342.710629287147,247.57985554190327 -2341.394406985006,249.06854708992267 -2340.2384807637136,250.70507875273574 -2339.230787706416,252.4781377924396 -2338.361283052113,254.3740756623279 -2337.62751082389,256.35629416054036 -2336.47879897839,260.6442574231704 -2335.7185545381917,265.12089576597697 -2335.2404071934125,269.6696321971742 -2334.9392486786255,274.1575098929595 -2334.925174989435,274.2878379005968 -2334.900585568835,274.4165966622275 -2334.511885568835,276.0821966622275 -2334.462117760345,276.2525687404642 -2334.3939676405066,276.41645602176044 -2333.6891676405066,277.8791560217604 -2333.6060650722006,278.03039781625057 -2333.5073102340834,278.1719167167834 -2332.522210234083,279.43421671678345 -2332.4197237741087,279.5531476605919 -2332.3061814243633,279.66157357395 -2331.0769814243636,280.72617357395 -2330.969701338115,280.81140452494026 -2330.855587578623,280.8872423901974 -2329.4182875786228,281.75694239019737 -2329.2085777962116,281.8638044659331 -2327.5991777962117,282.5412044659331 -2327.407191875617,282.60813611908543 -2325.661691875617,283.0959361190854 -2325.4866912865705,283.1345260617199 -2323.64119128657,283.4353260617199 -2323.479694927866,283.45337121566655 -2321.5699949278664,283.56997121566656 -2321.417229934877,283.5720638737686 -2319.479629934877,283.50696387376865 -2319.3311577972777,283.49510831390694 -2317.401457797278,283.2511083139069 -2317.252681220166,283.22518444343973 -2315.3669812201656,282.80498444343976 -2315.213622974545,282.76279209306836 -2313.4079229745453,282.1689920930683 -2313.246478450126,282.10612596216026 -2311.5568784501256,281.3415259621603 -2311.3848624931775,281.2508426846288 -2309.8472624931774,280.3179426846288 -2309.665361250021,280.18964944649224 -2308.315761250021,279.09114944649224 -2308.1915027263344,278.97881726498343 -2308.079538546906,278.85422704772657 -2307.981071446069,278.71871715965915 -2307.8971591707177,278.573743266297 -2307.8287031178443,278.4208626967788 -2307.7764386516124,278.26171771482603 -2307.740927203976,278.09801787732454 -2307.7225502437004,277.9315216700336 -2307.6164502437005,276.1069216700336 -2307.619775306066,275.87338209901776 -2307.777375306066,274.0571820990178 -2307.804682807343,273.8702314271299 -2308.178382807343,272.05953142712985 -2308.2130929454834,271.92210176726564 -2308.7551929454835,270.11380176726567 -2308.7957003339884,269.99552051125414 -2310.1944003339886,266.37472051125417 -2310.2073917427,266.3421457097629 -2311.6855316469005,262.74961836043565 -2312.858172856404,259.1985366942825 -2313.2068572031512,257.5062565361521 -2313.3613509707166,255.8129047087874 -2313.2842719052164,254.13110789737826 -2312.939514816444,252.4388222178114 -2312.2799353994155,250.7076783138875 -2311.208038289856,248.8465771392322 -2308.491294701782,244.63099184838225 -2308.4446567942637,244.5539955812301 -2307.161056794264,242.2951955812301 -2307.1174794293256,242.21310165408394 -2305.9697794293256,239.89220165408395 -2305.9195125041333,239.78000121574306 -2304.967212504133,237.41740121574304 -2304.915124344732,237.26727811388062 -2304.217324344732,234.88367811388062 -2304.1727859335488,234.68657932370812 -2303.7887859335488,232.30227932370812 -2303.77367740435,232.1779474339481 -2303.7682421835407,232.05281892064838 -2303.7572421835407,229.6884189206484  M-2538.6588768089473,249.8963415355256 -2537.7705882185596,246.12060403377023  M-2510.113552438778,254.44563853204437 -2509.794619259868,250.57995205622086  M-2500.531944129543,255.10125704286315 -2500.310535718771,251.2287606106358  M-2481.4009915265224,255.9615080971882 -2481.2584443676387,252.08530755935885  M-2462.26033170608,256.57303276595303 -2462.1965114584605,252.69473709930153  M-2446.2749727738947,256.6737272685198 -2446.3330057748726,252.79534068737922  M-2430.293855872434,256.24803380437805 -2430.4762565973692,252.3735041196915  M-2411.1600334112086,255.03248484241522 -2411.468516370514,251.1659504036972  M-2401.591720724796,254.16243538154887 -2402.0052668601193,250.3057230645704  M-2392.0413329959933,253.06585044396525 -2392.570136752414,249.22324496211183  M-2379.3650113660206,251.14428287431136 -2380.0567097497433,247.3276346526475  M-2369.907349827016,249.32255456361017 -2370.750283459772,245.53643343602553  M-2337.214133736068,259.1484990921713 -2333.467427218933,258.14478569860137  M-2324.2503345532855,283.66354161877916 -2323.6263554655175,279.83523907065137  M-2311.6910248402655,261.7021495031806 -2315.374221990194,262.9184180001542  M-2307.0488064714223,242.751900357642 -2310.4211501651903,240.83551096269133  "
       inkstitch:satin_column="true"
       transform="matrix(1.6201e-17 -0.264583 0.264583 1.6201e-17 -962.97 -589.821)" />
    <path
       id="path5537"
       style="stroke:#000000;stroke-width:1px;fill:none"
       d="M-2234.4796003011966,211.59628303964442 -2238.1720003011965,211.93838303964444 -2238.2312450439094,211.94277552771194 -2242.228845043909,212.16537552771194 -2242.358555346811,212.16738380978492 -2246.339455346811,212.0691838097849 -2246.497420416813,212.05752297507308 -2248.381020416813,211.8252229750731 -2248.5313649341533,211.79942805718835 -2250.2901649341534,211.41142805718835 -2250.4625049650663,211.36326444413692 -2252.019304965066,210.8336644441369 -2252.1649179479828,210.77611808180592 -2253.654417947983,210.10231808180592 -2253.816143493709,210.0178553921921 -2256.631343493709,208.3388553921921 -2256.759701802017,208.2537584550898 -2259.419301802017,206.30195845508982 -2259.4600913881213,206.27101839368868 -2262.0394913881214,204.2493183936887  M-2234.777799698804,208.37771696035557 -2238.440617699023,208.71707619496584 -2242.3437401369233,208.93441536213533 -2246.180476066585,208.83977157095924 -2247.909597987849,208.62652299254054 -2249.506329828792,208.27427603195045 -2250.9040931617665,207.79877791970506 -2252.238931685426,207.194941600644 -2254.909447838446,205.60223180349973 -2257.486258347912,203.7111885066219 -2260.0455086118786,201.70528160631133  M-2237.0799987075707,208.2663957439084 -2236.722159430441,212.12867503905488  M-2244.8275898274887,208.5498108922166 -2244.923242659839,212.4274520357003  M-2253.108103380834,206.30020594072698 -2255.094927765739,209.63153888198644  "
       inkstitch:satin_column="true"
       transform="matrix(1.6201e-17 -0.264583 0.264583 1.6201e-17 -962.97 -589.821)" />
    <path
       id="path9759"
       style="fill:none;stroke:#000000;stroke-width:1px"
       d="m -2524.255,222.45484 -0.07,1.9538 -0.02,0.20417 -0.3044,1.855 -0.045,0.196 -0.5196,1.7596 -0.065,0.17942 -0.7152,1.6673 -0.078,0.15762 -0.8914,1.5784 -0.084,0.13371 -1.0478,1.4929 -0.1257,0.15719 -2.4868,2.7424 -0.152,0.14708 -2.8777,2.4399 -0.1225,0.0942 -3.1122,2.1642 -0.091,0.0588 -3.1899,1.9148 -0.06,0.0341 -3.0803,1.67548 -3.8147,2.2929 -1.4486,1.09003 -1.2232,1.0896 -0.9961,1.07122 -0.7902,1.05269 -0.6072,1.03763 -0.4467,1.02992 -0.3061,1.03291 -0.1749,1.01 -0.036,2.22906 0.3406,2.32144 0.6303,2.46488 1.9093,6.01924 0.02,0.0692 0.8544,3.1795 0.033,0.15096 0.5546,3.2924 0.018,0.15351 v 0.15457 l -0.011,0.1542 -0.026,0.15243 -0.04,0.14925 -0.054,0.14473 -0.068,0.13887 -0.081,0.13173 -0.093,0.1234 -0.1045,0.11394 -0.1149,0.10343 -0.1243,0.092 -2.2591,1.5103 -0.1239,0.075 -2.1446,1.1706 -0.153,0.0734 -2.0324,0.8464 -0.1858,0.0644 -1.9224,0.5379 -0.2192,0.0452 -1.8148,0.2451 -0.1231,0.0119 -0.1236,0.002 -1.7093,-0.0322 -0.1306,-0.008 -0.1296,-0.0183 -1.6063,-0.2936 -0.1288,-0.029 -0.126,-0.0394 -1.5053,-0.5396 -0.1173,-0.0473 -0.1132,-0.0563 -1.4067,-0.7699 -0.1949,-0.12559 -1.3104,-0.9845 -0.1563,-0.13382 -1.2163,-1.1835 -0.121,-0.1315 -1.1245,-1.3668 -0.092,-0.12319 -1.0349,-1.5346 -0.069,-0.11192 -0.9477,-1.6866 -0.073,-0.14577 -1.6424,-3.7669 -0.06,-0.15985 -1.3206,-4.1875 -0.035,-0.12867 -1.0166,-4.483 -0.02,-0.1066 -0.731,-4.6532 -0.012,-0.0922 -0.4634,-4.6985 -0.01,-0.0839 -0.2138,-4.6185 v -0.0811 l 0.017,-4.4135 v -0.0848 l 0.2307,-4.0833 0.01,-0.0972 0.4258,-3.628 v -0.009 l 0.9335,-7.57271 0.8608,-8.23809 0.01,-0.0506 1.1498,-8.4246 0.014,-0.0876 0.7953,-4.1223 0.02,-0.0885 1.0023,-3.98 0.034,-0.11485 1.2544,-3.7758 0.055,-0.14384 1.5515,-3.5101 0.089,-0.17306 1.8937,-3.1825 0.065,-0.10045 0.072,-0.0954 2.281,-2.7932 0.1403,-0.151 1.2997,-1.2313 0.1129,-0.0975 1.4135,-1.1108 0.1264,-0.0899 1.5328,-0.9826 0.1371,-0.0787 1.6578,-0.8467 0.1438,-0.0648 1.7884,-0.7031 0.1459,-0.0495 1.9246,-0.5518 0.1437,-0.0342 2.0664,-0.3926 0.1376,-0.0201 2.214,-0.2259 0.096,-0.007 5.2792,-0.2232 0.058,-0.001 5.2738,-0.035 0.052,5e-4 5.2684,0.1361 0.047,0.002 5.2634,0.2906 0.061,0.004 10.5123,0.9772 0.063,0.007 10.4945,1.393 0.042,0.006 10.4785,1.6743 0.022,0.004 10.4642,1.8211 v 3.7e-4 l 10.4427,1.83183 10.4258,1.70847 16.3634,2.55786 8.3654,1.21699 8.3618,1.04932 8.2652,0.78764 8.0743,0.43281 7.8042,-0.0137 3.7439,-0.20165 3.6865,-0.35085 0.012,-0.001 8.3507,-0.7304 0.058,-0.004 8.5257,-0.4347 v -2.2e-4 l 8.5678,-0.41274 8.4903,-0.66359 4.1574,-0.50708 4.1013,-0.67022 4.0223,-0.86463 3.9305,-1.09099 3.8268,-1.34918 3.7122,-1.63969 3.5878,-1.96281 3.0307,-2.03539 1.0825,-3.73279 0.032,-0.0988 1.5635,-4.3297 0.039,-0.0969 1.8701,-4.2904 0.047,-0.0979 2.1657,-4.1789 0.057,-0.10134 2.4504,-3.9952 0.071,-0.10662 2.7241,-3.7395 0.09,-0.11302 2.987,-3.4116 0.1155,-0.11895 3.2389,-3.0116 0.1478,-0.12197 3.4799,-2.5393 0.1358,-0.089 1.8269,-1.0701 0.1044,-0.0561 1.883,-0.9249 0.1152,-0.0511 1.9378,-0.7708 0.1256,-0.0441 1.9913,-0.6077 0.1348,-0.0349 2.0432,-0.4355 0.142,-0.0237 2.094,-0.2544 0.1466,-0.0111 2.1433,-0.0641 0.1477,0.002 2.1912,0.135 0.1457,0.0156 2.2378,0.3433 0.1403,0.0279 2.283,0.5606 0.1323,0.0385 2.3268,0.7868 0.1225,0.047 2.3694,1.0221 0.1115,0.0533 2.4104,1.2664 0.1002,0.0573 2.4502,1.5197 0.1264,0.087 0.1176,0.0986 0.1078,0.10931 0.097,0.11904 0.085,0.1277 1.1573,1.92798 1.2586,1.74375 1.3878,1.63071 1.4917,1.50904 3.37,2.79487 3.7205,2.45616 4.0104,2.1977 4.2069,1.99979 8.6791,3.68848 4.2494,1.81 0.045,0.0202 4.0593,1.8783 0.083,0.0411 3.7791,2.0181 0.1233,0.073 3.4089,2.2294 0.1635,0.12237 2.9486,2.5121 0.1414,0.1361 1.2735,1.3845 0.098,0.11705 1.1248,1.482 0.094,0.13822 0.9646,1.5885 0.084,0.15671 0.7933,1.7039 0.068,0.17009 0.6107,1.8282 0.048,0.17604 0.4169,1.9614 0.021,0.12314 0.3556,2.6762 0.012,0.12185 0.2014,3.5701 v 0.13109 l -0.051,2.0367 -0.01,0.10992 -0.2013,2.1599 -0.017,0.12565 -0.3894,2.2498 -0.031,0.1407 -0.6148,2.3061 -0.045,0.14198 -0.058,0.13724 -0.07,0.13133 -0.082,0.12432 -0.9664,1.3275 -0.1322,0.15907 -1.0744,1.1365 -0.1502,0.13997 -1.1719,0.96 -0.1588,0.11471 -1.2588,0.7981 -0.1574,0.0879 -1.3352,0.6507 -0.1477,0.0631 -1.4012,0.5179 -0.1903,0.0573 -2.9582,0.6958 -0.1939,0.0333 -3.0961,0.3394 -0.125,0.009 -3.15,0.0996 -0.065,7.4e-4 -6.1256,-0.0538 -0.04,-8.3e-4 -6.3887,-0.213 -0.084,-0.005 -6.3481,-0.5417 -0.033,-0.003 -12.7469,-1.3485 -0.1475,-0.0225 -2.0815,-0.417 -0.1179,-0.0283 -0.1155,-0.037 -2.0887,-0.7574 -0.1043,-0.042 -4.0544,-1.79815 -1.7901,-0.64203 -1.5918,-0.28203 -0.5942,0.0184 -0.5753,0.12337 -0.5446,0.23865 -0.6762,0.47967 m -232.6912,12.23439 -0.066,1.85107 -0.2714,1.65416 -0.4641,1.57138 -0.6428,1.49857 -0.8091,1.43279 -0.9445,1.34559 -2.3478,2.5892 -2.7379,2.32134 -3.0042,2.08913 -3.1141,1.86926 -3.0807,1.67571 -0.06,0.0345 -3.9165,2.3541 -0.1391,0.0938 -1.5691,1.1807 -0.1033,0.0846 -1.3299,1.1846 -0.1086,0.10628 -1.1058,1.1892 -0.1089,0.13029 -0.8969,1.1948 -0.1024,0.15408 -0.703,1.2015 -0.088,0.17306 -0.5244,1.209 -0.067,0.18388 -0.3608,1.2174 -0.043,0.18355 -0.2124,1.2269 -0.017,0.12432 -0.01,0.12524 -0.04,2.4858 v 0.13071 l 0.014,0.13002 0.3719,2.5349 0.033,0.16582 0.6627,2.5914 0.025,0.0882 1.9123,6.02861 0.8249,3.06996 0.3681,2.18516 -1.3297,0.88894 -2.0064,1.09516 -1.863,0.77586 -1.7195,0.48113 -1.5808,0.2135 -1.4542,-0.0274 -1.3471,-0.24622 -1.2614,-0.45216 -1.1935,-0.65324 -1.1351,-0.85277 -1.0783,-1.04921 -1.0188,-1.23829 -0.9551,-1.41626 -0.8755,-1.55818 -1.5757,-3.61385 -1.2748,-4.04237 -0.9898,-4.36499 -0.7154,-4.55363 -0.4547,-4.61037 -0.21,-4.53594 0.017,-4.3305 0.2255,-3.99219 0.4196,-3.57484 0.9348,-7.58292 v -0.0298 l 0.8597,-8.22765 1.1403,-8.35535 0.7783,-4.03415 0.9766,-3.87797 1.2112,-3.64574 1.4809,-3.35028 1.7825,-2.99568 2.1399,-2.62039 1.1705,-1.10893 1.2938,-1.0167 1.4008,-0.89799 1.517,-0.77479 1.6432,-0.646 1.7793,-0.51016 1.9254,-0.36581 2.097,-0.21396 5.2024,-0.21995 5.2188,-0.0346 5.2185,0.13481 5.2094,0.28763 10.4505,0.97145 10.4418,1.38601 10.4463,1.66915 10.4521,1.819 10.4506,1.83321 0.018,0.003 10.4406,1.7109 0.012,0.002 16.3778,2.5601 0.017,0.003 8.3895,1.2205 0.032,0.004 8.4015,1.0543 0.048,0.005 8.3225,0.7931 0.067,0.005 8.1524,0.437 0.089,0.002 7.891,-0.0139 0.084,-0.002 3.8191,-0.2057 0.066,-0.005 3.7134,-0.35341 8.3153,-0.72731 8.4941,-0.43309 8.5897,-0.41379 0.048,-0.003 8.5493,-0.6682 0.07,-0.007 4.2248,-0.5153 0.065,-0.009 4.1733,-0.682 0.079,-0.0149 4.1083,-0.8831 0.093,-0.0228 4.0296,-1.1185 0.1051,-0.0331 3.9375,-1.3882 0.1156,-0.0458 3.8317,-1.6925 0.1227,-0.0605 3.7123,-2.0309 0.1254,-0.0762 3.5793,-2.4038 0.1289,-0.0962 0.1187,-0.10859 0.1074,-0.11985 0.095,-0.12993 0.082,-0.13872 0.067,-0.14614 0.052,-0.15211 1.2316,-4.24698 1.5281,-4.23176 1.8276,-4.19288 2.1139,-4.07904 2.3864,-3.89084 2.6437,-3.62907 2.8846,-3.29467 3.1078,-2.88971 3.3367,-2.4348 1.7056,-0.99906 1.7732,-0.87097 1.8174,-0.72288 1.8609,-0.56791 1.9045,-0.40595 1.9495,-0.23684 1.9958,-0.0597 2.0442,0.12595 2.0945,0.32132 2.1465,0.52707 2.1993,0.74369 2.2524,0.9716 2.3045,1.21079 2.0687,1.28305 0.9911,1.65116 0.075,0.11406 1.3364,1.8516 0.08,0.10164 1.4688,1.7258 0.081,0.0887 1.5902,1.6087 0.1177,0.10784 3.4993,2.9021 0.1413,0.10474 3.8494,2.5413 0.1137,0.0686 4.1095,2.252 0.083,0.0423 4.2795,2.0343 0.062,0.0278 8.7085,3.70094 4.2259,1.80002 3.9949,1.84849 3.6751,1.96257 3.2633,2.13414 2.7959,2.38199 1.1552,1.25594 1.028,1.35449 0.875,1.4409 0.717,1.54012 0.5527,1.65456 0.3849,1.81087 0.3393,2.55351 0.1943,3.44346 -0.048,1.91604 -0.1903,2.0419 -0.3663,2.11626 -0.5186,1.94523 -0.728,1.00007 -0.9326,0.98643 -1.0164,0.83262 -1.0997,0.69723 -1.1817,0.57593 -1.2324,0.45551 -2.7654,0.65044 -2.9358,0.32182 -3.0546,0.0966 -6.0732,-0.0533 -6.327,-0.21094 -6.2901,-0.53675 -12.6563,-1.33892 -1.8891,-0.37846 -1.9216,-0.69678 -4.057,-1.7993 -0.1096,-0.0439 -1.9745,-0.7082 -0.1303,-0.0406 -0.1334,-0.0295 -1.8914,-0.3351 -0.1653,-0.0206 -0.1666,-0.003 -0.9074,0.0281 -0.1452,0.0111 -0.1437,0.0241 -0.8781,0.1883 -0.1574,0.0422 -0.1523,0.0578 -0.846,0.3707 -0.1474,0.0737 -0.1391,0.0884 -0.8111,0.5754 m -244.9534,32.55457 1.9717,3.34032 m -34.7177,-17.68117 -3.8578,-0.40308 m 53.845,-41.11591 0.359,-3.86217 m 43.7156,10.62912 0.6702,-3.82049 m 82.3513,10.91551 -0.338,-3.86407 m 13.027,3.1051 -0.1866,-3.87433 m 64.7785,-37.25559 -2.6413,-2.84061 m 60.5499,17.7199 1.5171,-3.56982 m -4.0925,43.85309 -0.3298,3.86478 m -284.9888,51.54813 -4.7391,1.53457 m -0.5939,13.15301 -2.1163,-4.93496 m -14.6694,-11.32628 -5.0014,2.14654 m 348.3082,-62.46119 -5.2391,-0.77103 m 0.2811,-22.3312 -3.8679,2.81561 m -52.3581,-38.89308 -2.18,4.50346"
       inkstitch:satin_column="true"
       transform="matrix(0 -0.264583 0.264583 0 -962.97 -589.821)"
       sodipodi:nodetypes="cccccccccccccccccccccccccccccccccccccccccccccccccccccccccccccccccccccccccccccccccccccccccccccccccccccccccccccccccccccccccccccccccccccccccccccccccccccccccccccccccccccccccccccccccccccccccccccccccccccccccccccccccccccccccccccccccccccccccccccccccccccccccccccccccccccccccccccccccccccccccccccccccccccccccccccccccccccccccccccccccccccccccccccccccccccccccccccccccccccccccccccccccccccccccccccccccccccccccccccccccccccccccccccccccccccccccccccccccccccccccccccccccccccccccccccccccccccccccccccccccccccccccccccccccccccccccccccccccccccccccccccccccccccccccccccccccccccccccccccccccccccccc" />
    <path
       id="path6648"
       style="stroke:#000000;stroke-width:1px;fill:none"
       d="M-2552.7330268739893,183.10406373556228 -2554.6139268739894,182.83816373556226 -2554.802464215609,182.79994778010186 -2556.5849642156086,182.32664778010187 -2556.762289468503,182.26841271545317 -2558.448489468503,181.60451271545315 -2558.6086687375946,181.53112454128433 -2560.2009687375944,180.69372454128433 -2560.3413142028576,180.61061678039246 -2561.8418142028577,179.6165167803925 -2561.9614493394433,179.52911027326033 -2563.3726493394433,178.39531027326032 -2563.515468944748,178.26581512496494 -2566.078568944748,175.64681512496495 -2566.2160908008113,175.4865709352109 -2568.4487908008114,172.51187093521088 -2568.5414081358604,172.3742989684214 -2570.4618081358603,169.17929896842142 -2570.5245272047355,169.06470378248125 -2572.1509272047356,165.78490378248125 -2572.19403318517,165.69047249986767 -2573.54453318517,162.46127249986768 -2573.5671190427893,162.404250981974 -2581.8817190427894,140.190650981974 -2581.8854680966438,140.18053209932404 -2590.0449106186397,117.93005843988654 -2591.289503325399,114.88171244626778 -2593.001384957623,111.21011355763622 -2595.0451427021067,107.30313752933323 -2597.271551856186,103.57055351622424 -2599.5358719552314,100.40243245849612 -2600.5843033492833,99.2071500068307 -2601.5485193887052,98.31583622205893 -2602.329475084048,97.799936131789 -2602.7959737225824,97.64688588561063 -2602.9516353539825,97.6636069193355 -2603.1870963887714,97.82959900872841 -2603.5938362685006,98.4234579391931 -2603.8630879444304,99.21156741741446 -2603.96398274095,100.19777640608203 -2603.8784210511953,101.38576436810521 -2603.6031070653066,102.74700461632438 -2603.1571915657387,104.22749512000169 -2601.8100898223274,107.55034608708218 -2600.085472109779,111.07399793308949 -2598.2081906397475,114.66314365889632 -2598.200958482252,114.6771363176178 -2596.4197584822523,118.1649363176178 -2596.3829953812947,118.24186796422981 -2594.9418953812947,121.4740679642298 -2594.91820688327,121.53000133769702 -2590.870422553184,131.6111248211903 -2586.61375846325,141.57370187990446 -2582.1116805579873,151.42814835773095 -2577.322739144402,161.19285049692812 -2577.3129874014994,161.21308899782204 -2575.6542874014995,164.71758899782202 -2575.6208309651915,164.79322189590513 -2574.0785309651915,168.53582189590514 -2574.0520689857567,168.60442561811723 -2572.642368985757,172.52232561811724 -2572.620628587412,172.5870017479637 -2571.3597285874116,176.6179017479637 -2571.341287737981,176.68138265889107 -2570.245687737981,180.76268265889107 -2570.22973185101,180.82742685316015 -2569.3155318510103,184.89652685316014 -2569.30160630889,184.96549655768888 -2568.5852063088896,188.95999655768887 -2568.5733665597604,189.036520982625 -2568.0708665597604,192.89382098262502  M-2552.280573126011,179.90353626443775 -2554.066065235581,179.65112393420506 -2555.6650890389865,179.22654162500342 -2557.182217776026,178.62920929875472 -2558.6241590186933,177.8708838596982 -2559.9947628627647,176.96284168616205 -2561.272872253657,175.93597063500397 -2563.6944246676762,173.46160530695752 -2565.8137666505745,170.63793593958715 -2567.657714745989,167.5701301882602 -2569.2320027265664,164.39541934302 -2570.5506328161628,161.242423944779 -2578.8525895394523,139.06260220128488 -2587.0202319033565,116.78976790067594 -2587.041331425109,116.73529659219774 -2588.311831425109,113.62349659219774 -2588.3433151809627,113.55144461654683 -2590.0874151809626,109.81074461654684 -2590.1201263200783,109.74457544617394 -2592.201926320078,105.76487544617393 -2592.2459898481893,105.68608065589608 -2594.5297898481895,101.85728065589608 -2594.6029343136033,101.74543894068371 -2596.9529343136032,98.45743894068372 -2597.052794250549,98.33146849034472 -2598.210094250549,97.01206849034472 -2598.3280379044513,96.89100710299503 -2599.450937904451,95.85300710299504 -2599.5507747027746,95.76796497593247 -2599.657177993246,95.69129758096116 -2600.7287779932462,94.98339758096117 -2600.852054824633,94.9096141547349 -2600.981397082556,94.84707015855793 -2601.1157826565413,94.7962598382757 -2602.1188826565412,94.46715983827569 -2602.2841941480287,94.42247205616941 -2602.4533060070185,94.39552643989506 -2602.624319633503,94.38662550488573 -2602.7953150765425,94.39586918094751 -2603.7132150765424,94.49446918094752 -2603.8750055615947,94.52019933523765 -2604.03336007182,94.56217612626031 -2604.186651534665,94.61996824779982 -2604.3333048997483,94.69298189312083 -2604.471813322302,94.78046685625749 -2605.287313322302,95.35536685625749 -2605.4011029770636,95.44342068725338 -2605.5066104697744,95.54124569257255 -2605.602999601714,95.64806656098186 -2605.689506441652,95.7630366846132 -2606.385306441652,96.7789366846132 -2606.4623389643657,96.9030963631627 -2606.527843119255,97.03370586138271 -2606.5812835013794,97.16969762911712 -2606.9814835013794,98.34109762911713 -2607.0308646890517,98.51787658674382 -2607.0598833120016,98.69911461001053 -2607.1938833120016,100.00891461001052 -2607.2020928499774,100.14911562862243 -2607.1980998160166,100.28950002167726 -2607.0949998160168,101.72100002167726 -2607.0671004289447,101.92528797244697 -2606.7564004289447,103.46148797244696 -2606.7198055292733,103.60720005228444 -2606.2306055292734,105.23140005228444 -2606.1808731210185,105.37250531933195 -2604.7843731210182,108.81720531933195 -2604.73823055631,108.92048669928207 -2602.97923055631,112.51438669928207 -2602.9597093602524,112.55295634110368 -2601.076059532296,116.1542776330107 -2599.317838089253,119.59708290420112 -2597.90647451452,122.76258796717528 -2593.86339311673,132.831998662303 -2593.8498013998906,132.86480237860542 -2589.5783013998903,142.8621023786054 -2589.5621287577687,142.89869368162823 -2585.042528757769,152.79149368162822 -2585.023560855598,152.8315495030719 -2580.2298070592424,162.60606414158187 -2578.5936086977445,166.06302269820495 -2577.0810805337505,169.733377302733 -2575.6953839958765,173.58456582918376 -2574.454541100573,177.55134640391398 -2573.3761581634453,181.56850985891512 -2572.476981760952,185.57073989543412 -2571.7736304470322,189.49248308841624 -2571.2761334402394,193.31137901737497  M-2562.0599476958687,174.66959433373987 -2564.8321131632647,177.38259063365493  M-2566.7886760803012,168.38852527588026 -2570.1131756063633,170.38676280009625  M-2573.8830661647103,151.41729032632253 -2577.5157518674037,152.77701268306294  M-2583.2994735536313,125.99728036633608 -2586.9411569855747,127.33271740471746  M-2588.606848342219,112.2213080947396 -2592.1223319079086,113.86040101502884  M-2601.2813106881304,116.46306450366735 -2597.8268910455354,114.69891166594995  M-2595.483559046404,129.664424065547 -2591.884055566254,128.21914727601478  M-2592.2603914961105,137.40744323407216 -2588.693508136376,135.88343752541425  M-2588.043772222761,147.0000310984777 -2584.5157032041166,145.38820626256856  M-2583.589311487288,156.4900747021425 -2580.106765433854,154.78211589476908  M-2578.276298587195,167.68138358238286 -2574.6900529036548,166.20351613255326  M-2575.47913849362,175.35857646257554 -2571.7772071034065,174.20058065769243  M-2573.3289443946032,183.25323933383822 -2569.544460837029,182.4029837814178  "
       inkstitch:satin_column="true"
       transform="matrix(1.6201e-17 -0.264583 0.264583 1.6201e-17 -962.97 -589.821)" />
    <path
       id="path6864"
       style="stroke:#000000;stroke-width:1px;fill:none"
       d="M-2550.097738927961,249.19711944951703 -2548.095571168126,255.75112249539166 -2547.0965986286005,258.98527879345124 -2545.9508834907137,262.1710632879817 -2545.9440897825334,262.190335669803 -2544.9598897825335,265.039635669803 -2544.9210067455642,265.1696550507335 -2544.188006745564,268.05725505073354 -2544.16461699489,268.16456458718795 -2543.62871699489,271.09916458718794 -2543.616224926386,271.1787471937757 -2543.233050344882,274.09206260458524 -2542.957956871914,275.2841884517258 -2542.525725141174,276.1145155484333 -2541.9215834977713,276.78705855204447 -2541.1252160932454,277.3580174755407 -2540.1395714296727,277.8402716621657 -2539.0158017695057,278.23245622978567 -2536.4871955466874,278.83618488574564 -2535.198529551187,278.99616743778836 -2533.734162969653,278.99386330252327 -2532.1585193610813,278.8215794575858 -2530.572487480952,278.47801738801047 -2529.072956015475,277.969507634836 -2527.754576933198,277.3132272894917 -2526.7042902510116,276.54136074724545 -2526.5580680504413,276.37148022184766 -2527.510744457986,274.6473104984023 -2528.607195834163,272.99454723377454 -2530.20173166135,271.0057767392356 -2530.30903775001,270.8550023490538 -2530.95583775001,269.8262023490538 -2531.0201075833993,269.7142944910754 -2531.0752438998447,269.59761558651235 -2531.726243899845,268.06431558651235 -2531.782846431211,267.90948672544675 -2532.528046431211,265.4958867254467 -2532.5505149095616,265.41587073232256 -2533.4760549427615,261.7612227170251 -2535.3281979025846,254.9762186464929 -2536.386966789219,251.09983255937706 -2536.3992722156177,251.05190472589726 -2536.7774722156173,249.47930472589726  M-2553.189061072039,250.14148055048295 -2551.186161072039,256.697880550483 -2551.184689161014,256.7026721762091 -2550.174089161014,259.9744721762091 -2550.150716509286,260.0444367120183 -2548.995974284093,263.25532199628293 -2548.037283551414,266.0307716047181 -2547.3345122685428,268.7992877799139 -2546.815721031726,271.6401998223931 -2546.427675073614,274.5905528062243 -2546.4000906049387,274.7431967149933 -2546.0612906049387,276.2113967149933 -2546.025056040707,276.3428413194894 -2545.977871064981,276.47076397487905 -2545.9200715088173,276.5942542133735 -2545.298371508817,277.7885542133735 -2545.230729605604,277.9061627983681 -2545.153461848511,278.01768364865416 -2545.0671127517917,278.1223308647204 -2544.208612751792,279.0780308647204 -2544.0846432640496,279.2018265766918 -2543.9480021917084,279.3114761528107 -2542.8987021917083,280.0637761528107 -2542.785886548311,280.13773277743456 -2542.6672963728033,280.20202369432087 -2541.4734963728033,280.7861236943209 -2541.295731228858,280.8603204147534 -2540.003431228858,281.31132041475337 -2539.8462274360345,281.3573898020121 -2537.1506274360345,282.0009898020121 -2536.9744129611067,282.03286303984777 -2535.496312961107,282.2163630398478 -2535.294657001576,282.2286733060008 -2533.642257001576,282.2260733060008 -2533.4691313389944,282.21649987035073 -2531.7232313389945,282.02559987035073 -2531.5567438302696,281.9985416352176 -2529.7983438302695,281.6176416352176 -2529.621466636644,281.5686642716311 -2527.931466636644,280.9955642716311 -2527.730279664359,280.9118259363171 -2526.189479664359,280.1448259363171 -2526.0679416094176,280.07766134748886 -2525.952617617876,280.00031176593694 -2524.642117617876,279.03721176593695 -2524.5011782123975,278.920805045027 -2524.3742853100352,278.7892275696761 -2523.374885310035,277.6281275696761 -2523.2745527215066,277.49886338848563 -2523.1878052494067,277.36011637790904 -2523.1155321425026,277.21330883424014 -2523.058474272772,277.05994568233774 -2523.0172165407203,276.90159904863305 -2522.9921818795638,276.73989214525403 -2522.9836269197376,276.5764826304697 -2522.9916393581784,276.41304561602715 -2523.016137059339,276.2512564955725 -2523.0568688971643,276.0927737701824 -2523.1134173293817,275.93922204706143 -2523.185202677732,275.7921753856853 -2524.713202677732,273.0267753856853 -2524.78103688859,272.914950648545 -2525.9539368885894,271.146950648545 -2526.0397683386495,271.02942326076436 -2527.621892081706,269.0561336267201 -2528.1505110529824,268.2153123563904 -2528.718701529175,266.87705358965303 -2529.4272902973535,264.58203231902075 -2530.3462850904384,260.95322926767744 -2530.353870999962,260.9243952736274 -2532.209970999962,254.12489527362737 -2533.2623136038005,250.27203715771913 -2533.6347277843824,248.72349527410276  M-2551.6345955631623,256.3363171363593 -2547.925008990268,255.20308381520442  M-2547.96820832574,267.6166345726873 -2544.208624515097,266.6622866944349  M-2545.881290059307,277.3687898811184 -2542.4407184381494,275.5777797690145  M-2536.1393181131552,282.46225302842197 -2535.661447006496,278.6129817327876  M-2525.122515056296,271.8155097878039 -2528.354746523685,273.9597882312888  M-2529.8192269378733,261.7177648463986 -2533.579342720822,262.6700146039708  M-2531.9125972124116,253.9868622491078 -2535.6543575065357,255.00886039161776  "
       inkstitch:satin_column="true"
       transform="matrix(1.6201e-17 -0.264583 0.264583 1.6201e-17 -962.97 -589.821)" />
    <path
       id="path2666"
       style="stroke:#000000;stroke-width:1px;fill:none"
       d="M-2307.392077148999,243.1999983538415 -2307.441923919909,246.82880440922776 -2307.027392831325,250.35534581756548 -2306.629376776596,252.00441210771564 -2306.077267722648,253.6145778337595 -2305.368098614342,255.14212338817603 -2304.4932659796186,256.5708377891785 -2302.877459165375,258.5737986922631 -2301.104748838314,260.63268247344104 -2301.0322607408034,260.7232534629605 -2300.2247607408035,261.8099534629605 -2300.133577484125,261.94667237758773 -2299.449177484125,263.0953723775877 -2299.345127417689,263.30248048497 -2298.832527417689,264.53618048497 -2298.7829984670752,264.672302175285 -2298.7458563284677,264.812311793036 -2298.453656328468,266.153711793036 -2298.425824367957,266.32550261358017 -2298.416625475542,266.4992900827126 -2298.418825475542,268.73539008271257 -2298.4305172616746,268.92785608541675 -2298.4650474578507,269.1175598692798 -2299.005847457851,271.3299598692798 -2299.052845918086,271.4871560853262 -2299.115539943359,271.6387772078613 -2299.5987399433593,272.6575772078613 -2299.658334831145,272.7713248145916 -2299.7267723164828,272.8799819785877 -2300.3576723164824,273.7985819785877 -2300.445769179955,273.91518185544584 -2300.544038386466,274.02334724588434 -2301.3269383864663,274.81044724588435 -2301.4475055674006,274.9200173929596 -2301.5784912755043,275.01689260403623 -2302.5177912755044,275.6408926040362 -2302.653743414691,275.7219063310497 -2302.7969672967406,275.7892348370818 -2302.9460895739935,275.8422325213784 -2303.0996803401545,275.8803911988191 -2304.3766803401545,276.1319911988191 -2304.5086419476715,276.1523689627847 -2304.641835324043,276.1617840365281 -2304.7753513191888,276.1601721547287 -2306.551051319189,276.0652721547287 -2306.685272605233,276.0524666607647 -2306.8179594309086,276.0285179531762 -2308.5515594309086,275.64031795317624 -2308.69078900114,275.60254261729716 -2308.8260953566305,275.55250223968653 -2309.50799535663,275.26510223968654 -2309.67451574034,275.1833666874668 -2309.8305734443406,275.083088416093 -2310.299273444341,274.742388416093  M-2310.624122851001,243.1556016461585 -2310.6754228510013,246.8902016461585 -2310.664524284454,247.10107605393057 -2310.2263242844538,250.82897605393057 -2310.192262742711,251.0194892407965 -2309.753762742711,252.8362892407965 -2309.7114992635047,252.9813093415592 -2309.107499263505,254.74280934155922 -2309.044603262415,254.89915142870416 -2308.260803262415,256.5874514287041 -2308.1732101598013,256.750869030983 -2307.1952101598013,258.34806903098297 -2307.074793639509,258.5188542626432 -2305.3769936395092,260.6234542626432 -2305.3438511616855,260.663217526559 -2303.5921215259264,262.69773364632056 -2302.868310860663,263.671808011574 -2302.2854920700975,264.65001365845006 -2301.8732199148844,265.64224962779514 -2301.649146494206,266.6709015323079 -2301.6509837971084,268.5383529052615 -2302.1066425135223,270.4024419292879 -2302.4641004679665,271.1561219044282 -2302.939137869859,271.8477835899235 -2303.5033302983034,272.4150027244594 -2304.0392307570614,272.77101452714754 -2304.8039398675974,272.9216807857308 -2306.243557485349,272.8447422758898 -2307.704041545469,272.5177003330318 -2308.080818233547,272.3589004794557 -2308.3987265556593,272.127811583907  M-2310.9698363689263,244.78979581892477 -2307.0913815265235,244.84307186811785  M-2309.730227068883,253.9232488114583 -2306.061108836468,252.6651463917273  M-2305.080880554876,261.4640369148428 -2302.1414777668324,258.93319485109913  M-2301.9730258330183,267.3255920111145 -2298.0942069743187,267.32940820959186  M-2304.620666357431,272.5561223639457 -2303.870859173805,276.3617812411123  "
       inkstitch:satin_column="true"
       transform="matrix(1.6201e-17 -0.264583 0.264583 1.6201e-17 -962.97 -589.821)" />
  </g>
</g>
<metadata
   id="metadata42">
  <rdf:RDF>
    <cc:Work
       rdf:about="">
      <dc:title>8DE86A95-AC12-4336-9E75-66626BB6DEED.webp.pdf</dc:title>
    </cc:Work>
  </rdf:RDF>
  <inkstitch:min_stitch_len_mm>0.1</inkstitch:min_stitch_len_mm>
  <inkstitch:collapse_len_mm>3</inkstitch:collapse_len_mm>
  <inkstitch:inkstitch_svg_version>2</inkstitch:inkstitch_svg_version>
</metadata>
</svg>
