<?xml version="1.0" encoding="UTF-8" standalone="no"?>
<svg
   width="100mm"
   height="100mm"
   viewBox="-938 0 100 100"
   version="1.2"
   id="svg36"
   sodipodi:docname="dackel_aufnäher_verlauf.svg"
   inkscape:version="1.3.2 (091e20e, 2023-11-25)"
   xmlns:inkscape="http://www.inkscape.org/namespaces/inkscape"
   xmlns:sodipodi="http://sodipodi.sourceforge.net/DTD/sodipodi-0.dtd"
   xmlns:xlink="http://www.w3.org/1999/xlink"
   xmlns="http://www.w3.org/2000/svg"
   xmlns:svg="http://www.w3.org/2000/svg"
   xmlns:rdf="http://www.w3.org/1999/02/22-rdf-syntax-ns#"
   xmlns:cc="http://creativecommons.org/ns#"
   xmlns:dc="http://purl.org/dc/elements/1.1/"
   xmlns:inkstitch="http://inkstitch.org/namespace"><sodipodi:namedview
   id="namedview36"
   pagecolor="#ffffff"
   bordercolor="#000000"
   borderopacity="0.25"
   inkscape:showpageshadow="2"
   inkscape:pageopacity="0.0"
   inkscape:pagecheckerboard="0"
   inkscape:deskcolor="#d1d1d1"
   inkscape:zoom="1.5658539"
   inkscape:cx="106.65107"
   inkscape:cy="250.66196"
   inkscape:window-width="1680"
   inkscape:window-height="924"
   inkscape:window-x="0"
   inkscape:window-y="25"
   inkscape:window-maximized="0"
   inkscape:current-layer="svg36"
   inkscape:document-units="mm" />
<defs
   id="defs36">
  <linearGradient
     id="linearGradient128"
     inkscape:collect="always">
    <stop
       style="stop-color:#989191;stop-opacity:1"
       offset="0"
       id="stop129" />
    <stop
       style="stop-color:#8b5f4f;stop-opacity:1"
       offset="0.48256293"
       id="stop128" />
  </linearGradient>
  <linearGradient
     inkscape:collect="always"
     xlink:href="#linearGradient128"
     id="linearGradient129"
     x1="-915.127184526233"
     y1="57.827835"
     x2="-888.679004526233"
     y2="51.819931"
     gradientUnits="userSpaceOnUse" />
</defs><g
   id="g42"
   transform="matrix(6.12323e-17 1 -1 6.12323e-17 -838 962.97)">
  <path
     fill="none"
     stroke="#000000"
     stroke-width="5.75"
     stroke-linecap="round"
     stroke-linejoin="round"
     d="m -898.75617,84.687995 c 1.09545,-0.371572 2.22759,-0.627915 3.30138,-1.055457 0.9557,-0.38052 1.93137,-0.554849 2.95051,-0.669558 1.09079,-0.122773 1.34775,-1.133503 1.53048,-2.036705 0.18617,-0.920196 -0.12481,-2.52933 -0.9754,-3.080468 -2.28667,1.170893 -0.86815,1.141146 -3.8517,1.850276 -0.37627,0.08943 -3.17821,0.885151 -3.15457,0.862657 0.26617,-1.332906 0.60006,-2.82019 0.73702,-4.215964 0.42773,-4.359165 0.55927,-8.737816 0.6995,-13.13207 0.16511,-5.17372 0.0119,-10.313113 -0.4836,-15.457635 -0.35792,-3.716217 -0.84486,-7.411263 -1.82317,-11.000602 -0.42914,-1.574502 -1.08053,-2.984159 -0.71467,-3.808509 1.31426,-2.961273 4.97334,-3.323542 7.95249,-3.491269 2.38569,-0.29498 2.55118,-4.391848 0.95848,-6.069774 -0.36527,-0.05069 -0.72787,-0.02779 -1.10167,0.02265 0.23417,-0.248385 0.35459,-1.235575 0.20528,-1.521444 -0.359,-0.687406 -1.2426,-0.941192 -1.97268,-0.854976 -0.94658,0.111791 -1.5405,0.949967 -2.27544,1.463407 -1.04288,0.728551 -2.37978,0.894344 -3.71987,0.815808 -1.03685,-0.584274 -2.66162,-1.178962 -3.57676,-0.829972 -0.74021,-1.403194 -2.72449,-2.203691 -5.03715,-2.455747 l 0.009,-0.0823 c -0.92461,-1.069636 0.60151,-2.546761 0.72799,-3.943616 0.19648,-2.170301 0.53594,-4.280657 0.53212,-6.447532 -0.004,-1.9705353 0.28943,-4.4756339 -1.6374,-5.7021751 -1.56736,-0.4992627 -3.07286,-0.289212 -3.79475,-0.1768407 -5.48136,0.8532332 -4.82198,10.5631328 -10.37324,13.5772198 -4.45124,6.664821 2.42524,11.6723 8.16871,13.134506 3.51068,4.733919 2.62498,11.050224 3.27933,16.600784 0.58315,4.946764 -0.56297,11.090663 -1.38934,16.46391 -1.08283,7.040805 -2.85895,14.106441 -2.4234,21.233854 l 0.007,0.225982 c -0.21122,2.605572 -2.84449,4.123261 -4.97564,4.945434 -3.741,1.443229 -7.49389,2.77624 -11.25658,4.17055 -1.79965,0.666881 -6.34862,2.978386 -5.2296,4.002184 1.25847,1.151378 4.37629,-1.20354 6.4405,-2.008389 3.42282,-1.33458 6.78057,-2.794706 10.06259,-4.464081 2.27012,-1.154682 5.3512,-2.039272 7.89329,-2.30243 l 0.0241,-0.03603 c 2.83094,1.485473 7.09154,1.484924 10.10798,1.949521 4.53197,0.698022 15.3298,-0.514446 10.78142,-6.76754 -1.13093,0.117241 -2.17844,0.552324 -3.1714,0.843065 -1.24591,0.364802 -2.40593,0.502345 -3.53712,-0.500397 z"
     id="path13"
     sodipodi:nodetypes="cssscscssssccccsssccccsccsccssccsssssccscscc"
     style="display:inline;stroke:#fe4949;stroke-width:0.243841;stroke-dasharray:none;stroke-opacity:1" />
  <g
     id="g43"
     style="display:inline"
     transform="matrix(0.956241 0 0 0.956241 -41.0924 3.11931)">
    <path
       id="path36"
       style="fill:url(#linearGradient129);fill-rule:evenodd;stroke:none;stroke-width:0.862325;stroke-linecap:round;stroke-dasharray:none"
       d="m -910.55043,0.92192542 c -0.73106,0.006 -1.46723,0.0739 -1.90569,0.20154998 l -0.25498,0.0743 -0.0172,0.66569 c -0.0221,0.85816 -0.18434,1.38369 -0.55883,1.80915 -0.5889,0.66902 -1.44785,1.0339 -2.25659,0.95873 l -0.43442,-0.0404 -0.26136,0.55441 c -0.14378,0.30486 -0.64963,1.46734 -1.12406,2.58329 -0.47442,1.11596 -1.05806,2.4061596 -1.29698,2.8671296 -1.04571,2.01755 -2.1222,3.32267 -3.51661,4.2636 -0.5274,0.35588 -0.78313,0.71556 -1.21175,1.70463 -1.12769,2.60222 -0.5886,5.10205 1.58635,7.35634 0.91439,0.94775 1.89457,1.68413 3.248,2.44033 1.15412,0.64484 2.20922,1.07019 4.2324,1.70622 0.21431,0.0674 0.3074,0.16428 0.65464,0.68093 0.22267,0.3313 0.6014,1.00183 0.84157,1.49006 0.99213,2.01683 1.46749,3.98298 1.80497,7.46578 l 0.0566,0.88799 c 0.0221,0.25284 0.0821,1.37277 0.13339,2.48872 0.11722,2.55248 0.13552,2.81973 0.30324,4.40681 0.11261,1.06554 0.13776,1.69416 0.13903,3.48738 0.002,2.19561 -0.046,3.06313 -0.28985,5.29442 -0.28575,2.6143 -1.19955,8.5379 -2.24087,14.5265 -1.26701,7.2866 -1.54569,9.629 -1.60257,13.4688 -0.0482,3.2532 0.0547,4.1121 0.62332,5.205 0.48239,0.9272 1.30559,1.6676 2.49695,2.2454 1.62398,0.7877 3.04963,1.0949 7.19668,1.5509 1.27289,0.1399 2.62821,0.2973 3.01181,0.3495 0.38361,0.052 0.79726,0.1049 0.91932,0.1168 0.52411,0.051 3.07012,0.037 3.70931,-0.022 2.09251,-0.1899 3.90457,-0.6361 5.19728,-1.2796 0.64347,-0.3204 1.02881,-0.6043 1.42829,-1.0525 0.74677,-0.8378 0.79786,-1.8192 0.16089,-3.089 -0.43537,-0.868 -0.37965,-0.8272 -0.95296,-0.6996 -0.26551,0.059 -0.93061,0.2491 -1.47791,0.4223 -1.52242,0.4819 -1.9852,0.5818 -2.70697,0.5846 -1.0737,0 -1.87189,-0.336 -2.65354,-1.1302 -0.49525,-0.5033 -0.81511,-0.9744 -1.529,-2.2523 -0.85306,-1.527 -1.28821,-2.1457 -2.02961,-2.8851 -0.93983,-0.9373 -1.59306,-1.2716 -2.6603,-1.3615 -0.62763,-0.053 -0.79711,-0.1615 -0.79711,-0.5114 0,-0.4215 0.49174,-0.5374 1.44475,-0.3406 1.76486,0.3646 3.22202,1.699 4.64041,4.2496 0.31657,0.5693 0.38122,0.6518 0.41096,0.5245 0.0194,-0.083 0.17548,-0.7504 0.34672,-1.4827 0.6317,-2.7015 0.83118,-3.8069 0.98429,-5.4529 0.60351,-6.4883 0.90396,-17.9397 0.60968,-23.2385 -0.29364,-5.28733 -0.7387,-9.54495 -1.37068,-13.11326 -0.10924,-0.61678 -0.25801,-1.42896 -0.53378,-2.61313 -0.23972,-1.02936 -0.42839,-1.71118 -0.99092,-3.58084 -0.28314,-0.94109 -0.35537,-1.80705 -0.19098,-2.2895 0.27674,-0.81219 1.16489,-1.88905 2.0048,-2.43075 1.38256,-0.89167 3.00395,-1.31982 5.86801,-1.54963 1.22217,-0.0981 1.42836,-0.16717 1.83126,-0.61312 0.46176,-0.51112 0.67797,-1.22518 0.67527,-2.23067 -0.002,-0.918 -0.25352,-1.85242 -0.6415,-2.38801 -0.17997,-0.24844 -0.20385,-0.26025 -0.5253,-0.26025 -0.48789,0 -1.05995,0.16934 -2.42792,0.71875 -1.56054,0.62674 -2.02589,0.7489 -2.87769,0.75522 -1.02026,0.008 -1.49085,-0.1636 -2.81297,-1.02285 -0.82374,-0.53536 -1.88226,-1.08208 -2.44978,-1.26542 -0.37332,-0.1206 -1.14823,-0.27364 -1.18989,-0.23496 -0.009,0.009 0.0155,0.23337 0.055,0.49939 0.25177,1.69278 -0.91425,3.95861 -2.62099,5.09325 -1.11067,0.73837 -2.42599,1.12817 -4.89453,1.45039 -2.36833,0.30913 -4.08295,0.133 -6.50373,-0.66802 -1.5504,-0.51301 -3.8451,-1.45345 -3.97878,-1.63069 -0.20081,-0.26624 0.006,-0.71494 0.32879,-0.71494 0.085,0 0.81974,0.26819 1.63278,0.59605 2.56002,1.03232 4.12235,1.47125 5.78989,1.62664 0.82066,0.0765 1.18153,0.0583 2.69481,-0.13559 2.44452,-0.31318 3.73071,-0.73921 4.79996,-1.59004 1.01709,-0.80932 1.85767,-2.40321 1.85767,-3.52238 0,-1.73426 -1.75453,-2.98624 -4.78031,-3.41098 -1.69619,-0.2381 -3.05954,-0.18989 -5.58663,0.1975 -2.62638,0.40262 -4.04209,0.75066 -5.38299,1.3234 -0.72326,0.30892 -0.91302,0.3221 -1.08598,0.0752 -0.1272,-0.1816 -0.11782,-0.4443 0.0203,-0.56927 0.28251,-0.25568 1.7745,-0.81372 3.00861,-1.12529 0.77649,-0.19603 2.14102,-0.44411 4.01072,-0.72906 0.81354,-0.12399 1.43197,-0.17298 2.52163,-0.19983 l 1.44376,-0.0356 -0.037,-0.1975 c -0.0624,-0.33263 0.13479,-1.06852 0.53231,-1.98589 0.20841,-0.48097 0.40859,-0.98861 0.44485,-1.1281 0.0785,-0.30186 0.48895,-4.1260096 0.57849,-5.3896196 0.0346,-0.48823 0.0615,-1.44404 0.0599,-2.12407 l -0.003,-1.23643 -0.12393,0.47347 c -0.21081,0.80523 -0.68601,1.63428 -1.56879,2.73694 -0.39744,0.49644 -0.4418,0.53178 -0.68816,0.54974 -0.21467,0.0157 -0.28191,-0.007 -0.36429,-0.12503 -0.18363,-0.26216 -0.12225,-0.42064 0.45898,-1.18583 1.30319,-1.71564 1.55584,-2.54431 1.40667,-4.61327 -0.0349,-0.48371 -0.0637,-0.95837 -0.064,-1.05479 -9.6e-4,-0.30252 -0.34623,-0.60638 -0.8568,-0.75387 -0.41789,-0.12071998 -1.14392,-0.17687998 -1.87498,-0.17096998 z m -6.73562,11.96667958 c 0.16338,-6.3e-4 0.34532,0.1288 0.6006,0.40395 0.52954,0.57079 0.76382,1.03999 0.79993,1.60257 0.055,0.85679 -0.25357,1.48535 -0.9499,1.93541 -0.44942,0.29047 -0.63048,0.31081 -0.84636,0.0949 -0.26878,-0.26878 -0.17577,-0.5301 0.3057,-0.85889 0.4126,-0.28174 0.57788,-0.56026 0.58095,-0.97875 0.003,-0.40496 -0.13159,-0.67963 -0.57112,-1.16533 -0.3899,-0.43086 -0.44555,-0.67341 -0.2056,-0.89696 0.0965,-0.0899 0.18778,-0.13673 0.2858,-0.13694 z"
       sodipodi:nodetypes="scccscccsssssssssccsssssssssssssssssssssssssssssssssssssssssssssssssssssssssssssscccssssccssssscssssssssssss"
       inkstitch:angle="-10"
       inkstitch:fill_method="linear_gradient_fill" />
    <path
       style="fill:#8b5f4f;fill-rule:evenodd;stroke:none;stroke-width:0.862325;stroke-linecap:round;stroke-dasharray:none"
       d="m -897.19083,84.502586 c -0.1271,-0.1632 -0.2184,-0.3415 -0.20288,-0.3963 0.0155,-0.055 0.0758,-0.3422 0.1339,-0.6386 0.1517,-0.7737 0.45564,-2.0325 0.50191,-2.0788 0.0423,-0.042 1.2328,-0.3744 3.34403,-0.933 1.5268,-0.4039 1.84054,-0.5319 2.39127,-0.9755 0.52087,-0.4195 1.12744,-0.7881 1.21156,-0.7361 0.12973,0.08 0.45498,0.8171 0.54214,1.2283 0.11731,0.5534 0.11385,0.9927 -0.0122,1.5468 -0.18164,0.7987 -0.41557,1.2184 -0.7843,1.4075 -0.0872,0.045 -0.41531,0.1164 -0.72918,0.1593 -1.05882,0.1447 -1.77027,0.3192 -2.9801,0.7309 -1.1269,0.3836 -3.04092,0.9821 -3.1406,0.9821 -0.0245,0 -0.14846,-0.1335 -0.27556,-0.2966 z"
       id="path37"
       inkstitch:angle="30" />
    <path
       id="path38"
       style="fill:#8b5f4f;fill-rule:evenodd;stroke:none;stroke-width:0.862325;stroke-linecap:round;stroke-dasharray:none"
       d="m -914.99925,87.391286 -0.25792,0.4001 c -0.6324,0.981 -1.98779,2.071 -3.4692,2.7899 -0.92823,0.4505 -5.18898,2.0583 -13.00635,4.908 -0.23177,0.084 -0.58128,0.2243 -0.77672,0.3107 l -1.00332,0.449 c -1.38112,0.6803 -2.39761,1.3083 -3.07298,1.8987 -0.30081,0.263 -0.54287,0.5766 -0.54287,0.7034 0,0.087 0.19172,0.2048 0.41366,0.253 0.1848,0.04 0.26643,0.042 0.51229,0.011 0.42357,-0.053 0.97059,-0.2333 1.67196,-0.5508 1.28505,-0.5818 0.18179,-0.1163 2.53809,-1.2996 0.44442,-0.2232 1.5357,-0.6978 2.42497,-1.0547 3.32887,-1.3359 6.23249,-2.6377 9.25737,-4.1506 1.84993,-0.9252 3.93372,-1.6315 6.16119,-2.0882 l 0.99349,-0.2037 -0.39192,-0.3507 c -0.48954,-0.4379 -0.84242,-0.8934 -1.18522,-1.5305 z"
       sodipodi:nodetypes="ccssccssssssssccccc"
       inkstitch:angle="120" />
    <path
       style="fill:#8b5f4f;fill-rule:evenodd;stroke:none;stroke-width:0.862325;stroke-linecap:round;stroke-dasharray:none"
       d="m -896.08901,22.130746 c -0.31781,-0.0865 -0.77674,-0.30465 -1.00717,-0.47872 l -0.15118,-0.11421 0.40298,-0.0456 c 0.5522,-0.0625 1.46921,-0.36674 1.93091,-0.64071 0.21063,-0.12498 0.66716,-0.46822 1.01451,-0.76277 0.75696,-0.64189 1.25767,-0.91527 1.67637,-0.91527 0.61689,0 1.2626,0.31406 1.40256,0.68218 0.0374,0.0983 0.0332,0.30104 -0.0115,0.55769 l -0.0702,0.40321 -0.34008,0.0989 c -0.18704,0.0544 -0.8705,0.31317 -1.5188,0.57509 -1.71499,0.6929 -2.54703,0.85295 -3.32839,0.64023 z"
       id="path40"
       inkstitch:angle="30" />
  </g>
  <path
     id="path6391"
     style="fill:none;stroke:#000000;stroke-width:0.253005px"
     d="m -897.92775,63.198535 0.0635,-3.863388 -0.0577,-3.853268 -0.18115,-3.845678 -0.30665,-3.845678 -0.29702,-2.770406 -0.37876,-2.750167 -0.49386,-2.727395 -0.29956,-1.345987 -0.34105,-1.335867 -0.65301,-2.178374 -0.007,-0.0253 -0.10701,-0.470589 -0.007,-0.03796 -0.0551,-0.432638 -0.003,-0.03036 -2.6e-4,-0.03289 0.0109,-0.384568 0.004,-0.0506 0.0101,-0.04554 0.0921,-0.336497 0.0134,-0.04049 0.0179,-0.04048 0.27324,-0.526251 0.0266,-0.04301 0.32359,-0.46806 0.0314,-0.04049 0.36964,-0.412398 0.0341,-0.03542 0.41164,-0.364328 0.0349,-0.0253 0.44857,-0.318787 0.0339,-0.02024 0.48147,-0.273245 0.0316,-0.01771 0.50981,-0.232765 0.0286,-0.01265 0.53384,-0.197344 0.0359,-0.01265 1.12183,-0.298546 0.0375,-0.01012 1.16408,-0.197345 0.0258,-0.0025 1.17142,-0.123973 h 0.0154 l 1.10993,-0.0759 0.3451,-0.08096 0.28995,-0.139153 0.25325,-0.197344 0.22062,-0.255535 0.18646,-0.306136 0.14978,-0.356737 0.11057,-0.394688 0.069,-0.42505 0.0271,-0.442758 -0.0152,-0.452879 -0.057,-0.450349 -0.098,-0.437699 -0.13688,-0.417459 -0.17433,-0.384568 -0.20872,-0.344087 -0.14498,-0.177103 -0.33725,-0.01771 -0.526,0.04807 h -0.0395 l -0.0395,-0.0025 -0.0389,-0.0051 -0.0384,-0.01012 -0.037,-0.01265 -0.0357,-0.01771 -0.0339,-0.02024 -0.0319,-0.02277 -0.0293,-0.02783 -0.0266,-0.02783 -0.0238,-0.0329 -0.0208,-0.03289 -0.0172,-0.03542 -0.0136,-0.03795 -0.0101,-0.03796 -0.006,-0.03796 -0.003,-0.04049 9.8e-4,-0.03796 0.005,-0.04049 0.009,-0.03796 0.0124,-0.03795 0.016,-0.03543 0.12828,-0.255536 0.0769,-0.361797 0.0184,-0.366857 -0.0384,-0.194815 -0.0901,-0.136622 -0.14345,-0.141683 -0.17508,-0.121442 -0.19051,-0.08855 -0.47185,-0.116383 h -0.47236 l -0.26035,0.05566 -0.25098,0.106262 -0.24744,0.146743 -0.24642,0.182163 -0.51487,0.44276 -0.0101,0.01012 -0.53233,0.427578 -0.0432,0.0329 -0.4043,0.245415 -0.0418,0.02277 -0.42835,0.199874 -0.04,0.01518 -0.44909,0.151803 -0.037,0.01265 -0.46654,0.111323 -0.0476,0.0075 -0.97154,0.113852 -0.0509,0.0025 -0.99988,-0.0075 -0.0365,-0.0025 -0.0362,-0.0051 -0.0357,-0.0076 -0.0346,-0.01265 -0.0336,-0.01518 -0.84604,-0.414928 -0.92145,-0.323848 -0.43846,-0.09867 -0.41062,-0.04808 -0.3532,0.0076 -0.3327,0.07843 -0.0408,0.0076 -0.0413,0.0051 -0.0413,-0.0025 -0.041,-0.0051 -0.0402,-0.0075 -0.0392,-0.01265 -0.0377,-0.01771 -0.0357,-0.02024 -0.0334,-0.0253 -0.0309,-0.02783 -0.0279,-0.03036 -0.0248,-0.0329 -0.31221,-0.465529 -0.38862,-0.389628 -0.48627,-0.351678 -0.57559,-0.308665 -0.65478,-0.263125 -0.72257,-0.215055 -0.77875,-0.166984 -0.83594,-0.118912 -0.0387,-0.0051 -0.0375,-0.01265 -0.0365,-0.01518 -0.0349,-0.01771 -0.0328,-0.02024 -0.0309,-0.0253 -0.0283,-0.0253 -0.0256,-0.03036 -0.0226,-0.0329 -0.0195,-0.03289 -0.0162,-0.03543 -0.0125,-0.03796 -0.009,-0.03796 -0.005,-0.03542 -0.0635,-0.09108 -0.0226,-0.03543 -0.0187,-0.03542 -0.0936,-0.215054 -0.0147,-0.03796 -0.0106,-0.04048 -0.0479,-0.222645 -0.006,-0.03542 -0.003,-0.03796 -0.007,-0.227704 9.8e-4,-0.04302 0.005,-0.04302 0.0847,-0.47818 0.008,-0.03289 0.0101,-0.0329 0.17939,-0.498421 0.0111,-0.02783 0.45515,-1.027201 0.17635,-0.485771 0.0956,-0.478179 0.33877,-3.203045 0.13586,-1.591403 0.0533,-1.601522 0.0134,-1.5357413 -0.0245,-0.7716656 -0.0815,-0.7438351 -0.16446,-0.6982942 -0.11537,-0.3137264 -0.14573,-0.2985461 -0.17635,-0.2783056 -0.21049,-0.2555352 -0.24972,-0.2378248 -0.253,-0.1846938 -0.4921,-0.1290325 -0.53536,-0.093612 -0.51664,-0.048071 -0.48475,-0.012651 -0.87135,0.050601 -0.64592,0.086022 -0.4582,0.096142 -0.41847,0.1391529 -0.38988,0.1821636 -0.36433,0.2226445 -0.34281,0.2580653 -0.31778,0.2934859 -0.60266,0.7058843 -0.53991,0.8273269 -0.49665,0.9285288 -0.46755,1.0120204 -0.45541,1.067682 -0.93638,2.203675 -0.007,0.01518 -0.51461,1.082863 -0.0106,0.02277 -0.56977,1.039851 -0.0175,0.02783 -0.64288,0.97407 -0.0266,0.03542 -0.73422,0.885518 -0.0274,0.03036 -0.40708,0.402278 -0.0222,0.02024 -0.43669,0.371918 -0.0258,0.02024 -0.46831,0.336497 -0.0291,0.02024 -0.41771,0.250475 -0.32461,0.523721 -0.30639,0.581911 -0.24567,0.571792 -0.18824,0.554081 -0.13333,0.543961 -0.0812,0.531311 -0.0319,0.51613 0.0152,0.506011 0.0597,0.493359 0.10272,0.480711 0.14371,0.470589 0.18293,0.46047 0.22036,0.447818 0.25275,0.432639 0.60064,0.822267 0.0154,0.02024 0.73119,0.786846 0.8334,0.731185 0.91815,0.667934 0.98444,0.604682 1.03201,0.533841 1.06086,0.462999 1.07071,0.387098 1.07452,0.311197 0.0384,0.01265 0.037,0.01771 0.0352,0.02024 0.0329,0.02277 0.0304,0.02783 0.0274,0.03036 0.0243,0.0329 0.60822,0.905759 0.0192,0.03036 0.51386,0.941179 0.0154,0.03036 0.42808,0.969009 0.0117,0.03036 0.35117,0.994311 0.009,0.02783 0.28311,1.019611 0.006,0.02277 0.22341,1.03985 0.004,0.02024 0.17255,1.055032 0.002,0.01771 0.1303,1.067681 0.002,0.01771 0.16926,2.163193 7.6e-4,0.01265 0.10449,2.173314 0.10955,2.148013 0.18419,2.105003 0.0893,0.938649 9.8e-4,0.01771 0.0522,0.966479 5e-4,0.02024 0.004,1.99621 -5.1e-4,0.02277 -0.11056,2.061991 -9.8e-4,0.01771 -0.20063,2.105003 -0.002,0.01265 -0.26667,2.125244 -9.8e-4,0.0076 -0.30892,2.122713 -5.1e-4,0.0051 -0.64769,4.144225 -5.1e-4,0.0025 -0.4329,2.641374 -7.5e-4,0.0051 -0.46376,2.643903 -0.46021,2.643904 -0.42227,2.643903 -0.35092,2.641374 -0.24566,2.643904 -0.0729,1.318156 -0.0339,1.320687 0.009,1.318157 0.0562,1.330807 2.5e-4,0.0051 0.007,0.225175 -2.6e-4,0.03542 -0.004,0.03289 -0.0673,0.47565 -0.01,0.04807 -0.11967,0.450349 -0.0147,0.04555 -0.16799,0.427579 -0.0187,0.04049 -0.21176,0.402278 -0.021,0.03542 -0.25148,0.379507 -0.0223,0.03036 -0.28665,0.356737 -0.0329,0.03796 -0.66262,0.647693 -0.0405,0.03543 -0.7527,0.5642 -0.0349,0.02277 -0.80835,0.485771 -0.0288,0.01518 -0.82986,0.412398 -0.0238,0.01012 -0.81721,0.341557 -0.0144,0.0075 -5.62001,2.102473 -0.003,0.0025 -5.62962,2.061992 -0.77115,0.316256 -0.92904,0.43264 -0.98849,0.51866 -0.94422,0.561672 -0.80152,0.574321 -0.30252,0.263125 -0.22552,0.245415 -0.1305,0.197345 -0.0387,0.118912 0.004,0.03796 0.042,0.06072 0.15023,0.101201 0.19943,0.06831 0.24953,0.0253 0.30057,-0.02024 0.34434,-0.07084 0.3747,-0.111322 0.84049,-0.341557 0.89158,-0.435169 0.90804,-0.47565 0.004,-0.0025 0.88248,-0.450349 0.0195,-0.01012 0.81772,-0.364327 0.0142,-0.0051 2.55055,-1.024671 2.52068,-1.077802 2.49312,-1.138522 2.47059,-1.211895 0.005,-0.0025 0.88678,-0.419988 0.019,-0.0076 0.947,-0.389628 0.0174,-0.0075 0.99127,-0.356737 0.0162,-0.0051 1.01986,-0.318787 0.0162,-0.0051 1.03251,-0.275776 0.0165,-0.0051 1.02949,-0.230234 0.0175,-0.0051 1.0105,-0.179634 0.0195,-0.0051 0.8463,-0.108792 0.009,-0.0051 0.0349,-0.01771 0.0362,-0.01518 0.0377,-0.01012 0.0382,-0.0051 0.0387,-0.0025 h 0.0389 l 0.0387,0.0051 0.0379,0.0076 0.0372,0.01012 0.0357,0.01518 0.5346,0.255536 0.54801,0.220114 1.19368,0.364328 1.26932,0.275775 1.31715,0.204935 2.65959,0.301076 1.26832,0.134092 0.0101,0.0025 1.18128,0.154332 0.90272,0.106263 1.01025,0.05819 1.09551,0.0025 1.14763,-0.05313 1.16636,-0.113853 1.15219,-0.182164 1.10435,-0.250475 1.02266,-0.321316 0.91435,-0.399749 0.39444,-0.220114 0.35825,-0.242885 0.31323,-0.258065 0.2654,-0.270716 0.21581,-0.288426 0.16522,-0.301076 0.11436,-0.318786 0.0625,-0.341557 0.007,-0.369387 -0.0541,-0.399749 -0.1217,-0.435168 -0.19633,-0.47059 -0.27704,-0.50854 -0.22492,-0.333967 c -0.51059,-0.451058 -0.69703,-0.81207 -0.71501,-1.126303 -0.0251,-0.438002 0.27725,-0.785075 0.48529,-1.158334 l 0.30157,-0.06831 0.21025,-0.108792 0.17003,-0.154333 0.14446,-0.199874 0.12195,-0.250476 0.0994,-0.283365 0.15257,-0.640103 0.0405,-0.326377 -5e-4,-0.371917 -0.0435,-0.397218 -0.0871,-0.402279 -0.12852,-0.379507 -0.16623,-0.333967 -0.19532,-0.265655 -0.043,-0.03542 -0.43619,0.240355 -0.41796,0.278306 -0.50323,0.402278 -0.0382,0.02783 -0.26035,0.164453 -0.0283,0.01518 -0.0293,0.01518 -0.38811,0.164454 -0.0389,0.01265 -0.61075,0.189754 -0.0202,0.0051 -0.92448,0.235295 -1.72347,0.470589 h -5.1e-4 l -1.4272,0.389629 -0.0387,0.01012 -0.0392,0.0025 -0.0397,0.0025 -0.0395,-0.0025 -0.0389,-0.0076 -0.0382,-0.01012 -0.037,-0.01518 -0.0357,-0.01771 -0.0334,-0.02024 -0.0317,-0.02277 -0.0288,-0.02783 -0.0263,-0.03036 -0.023,-0.03036 -0.02,-0.03542 -0.0167,-0.03543 -0.0129,-0.03795 -0.01,-0.03796 -0.006,-0.04048 -0.002,-0.03796 0.002,-0.04048 0.006,-0.03795 0.41593,-2.079702 0.18191,-1.057561 0.13333,-1.042381 0.26895,-3.258707 0.18697,-3.271356 0.24162,-6.570544 m 2.59647,14.790908 0.45959,1.975743 m -2.91622,-47.828243 -1.40737,-1.70318 m 0.6621,-8.812725 0.41264,1.989784 m -7.82624,-4.438394 -0.73393,1.900752 m 0.14716,-8.69022 -1.94476,-0.129538 m -12.09786,-1.511934 1.89315,0.752918 m -4.33347,13.940583 -1.59842,1.200965 m 10.53921,16.757339 2.10794,-0.0506 m -3.37398,20.997428 2.05051,0.343556 m -13.43227,25.602196 0.57429,2.023434 m -0.41447,3.649271 -0.93809,-1.916185 m 3.69434,0.630412 -0.91432,-1.860017 m 18.87673,-0.405669 0.22465,-2.056072 m 9.42124,-27.129082 c -0.005,0.189324 -0.0105,0.37895 -0.0163,0.568857 -0.20949,6.853782 -0.57239,12.597327 -0.90589,14.337041 -0.0581,0.302595 -0.0652,0.550185 -0.016,0.550185 0.0492,0 0.67143,-0.163365 1.38268,-0.363037 0.86735,-0.243492 1.4609,-0.495258 1.80255,-0.764582 0.83933,-0.661684 1.82181,-1.112943 2.21058,-1.01536 1.07096,0.268794 1.98521,1.748671 2.09011,3.383235 0.0801,1.248075 -0.22982,2.451975 -0.83545,3.245374 l -0.43843,0.574397 0.55364,1.117296 c 0.522,1.053412 0.55365,1.180775 0.55365,2.227432 0,1.382142 -0.3048,2.054883 -1.38341,3.053494 -1.62519,1.504647 -4.40123,2.330709 -8.32565,2.477476 -1.60484,0.06002 -2.43603,0.01417 -4.7898,-0.264035 -5.39697,-0.637928 -6.28608,-0.796081 -8.04673,-1.431175 l -0.92399,-0.333283 -1.39772,0.269729 c -2.04336,0.394334 -4.10107,1.118839 -6.59003,2.32031 -2.76857,1.336448 -5.09411,2.374604 -7.84806,3.503437 -1.1865,0.486327 -2.84443,1.238309 -3.68431,1.671048 -2.52584,1.301416 -3.81677,1.569286 -4.9407,1.025206 -0.8083,-0.39129 -1.25129,-1.099665 -1.16522,-1.86331 0.0363,-0.322152 0.22053,-0.818902 0.40968,-1.104722 0.79077,-1.194943 3.62751,-2.806207 7.39009,-4.197532 11.17505,-4.132358 11.33846,-4.200745 12.51857,-5.239509 1.17604,-1.035195 1.18682,-1.074209 1.2157,-4.400493 0.0359,-4.130663 0.32625,-6.759513 1.48347,-13.430069 0.84162,-4.851373 1.7257,-10.442457 2.07465,-13.120543 0.34098,-2.616908 0.46907,-7.123182 0.2659,-9.354915 -0.079,-0.868567 -0.20457,-2.744296 -0.27886,-4.168284 -0.25465,-4.8809 -0.59735,-7.062538 -1.41965,-9.037825 -0.65188,-1.565874 -0.96618,-1.915729 -2.02789,-2.257261 -2.0917,-0.672842 -4.52726,-2.092783 -6.05051,-3.527423 -3.1181,-2.936707 -3.87366,-6.412795 -2.14255,-9.85708 0.5972,-1.188213 0.82976,-1.475349 1.61957,-1.999576 1.43532,-0.952715 2.36666,-2.396211 4.02245,-6.234476 1.34768,-3.124031 1.95104,-4.218506 2.89477,-5.2511211 1.37896,-1.5087961 2.71404,-2.0503283 5.11304,-2.0739843 2.15179,-0.021252 2.85856,0.1992668 3.83325,1.1958288 1.5883,1.623964 1.84534,4.0233635 1.14765,10.7128946 -0.23148,2.219488 -0.38626,2.90546 -0.94815,4.201935 l -0.20291,0.468211 0.86835,0.211259 c 1.07018,0.260394 2.50883,0.954285 3.19851,1.542699 0.38481,0.328325 0.69052,0.464391 1.19018,0.529743 0.3698,0.04838 1.12035,0.268843 1.66789,0.489919 0.87675,0.354004 1.09426,0.392739 1.82279,0.324731 1.0181,-0.09508 1.42,-0.282631 2.54274,-1.186543 1.44205,-1.161016 2.57334,-1.344647 4.05495,-0.658219 0.71292,0.330299 1.2672,0.942546 1.41609,1.56418 0.0512,0.213587 0.2945,0.592235 0.54079,0.841444 1.17577,1.189732 1.73045,3.518897 1.25691,5.277814 h 10e-6 c -0.23122,0.8588 -0.47303,1.327492 -0.98692,1.912769 -0.66449,0.756814 -1.22996,0.96395 -3.19589,1.170655 -1.97877,0.208046 -3.44662,0.563569 -4.23979,1.026897 -0.61945,0.361848 -1.3101,1.105885 -1.41162,1.520738 -0.0389,0.158887 0.18969,1.201547 0.50795,2.316996 1.93537,6.783118 2.8536,16.653329 2.56325,27.501127 m -21.55718,19.509225 2.32341,0.02454 m -3.19831,3.890687 1.54084,1.632795 m -21.91484,10.430538 2.16243,-1.106767 m -2.09337,-1.10328 2.16243,0.826997 m 0.34691,0.347098 -0.48503,2.300372 m 1.42891,-2.553605 1.03437,2.139235 m -2.11637,-5.155056 1.31063,1.839954 m 19.22451,-7.22699 0.43582,2.392493 m 4.92819,-2.093188 -0.69223,2.415491 m 18.21157,-2.530608 1.14948,2.001119 m 0.0937,-3.267308 1.95523,0.919117 m 0.0707,-3.635633 -2.1426,0.711905 m 2.07354,-3.3824 -1.88936,-0.945632 m 1.86634,-3.704703 -1.79728,1.195373 m -7.38641,-1.19717 2.20847,0.297535 m 0.89755,-24.997768 -2.21166,0.228438 m -2.50775,-17.655711 2.0243,-0.669375 m 6.26343,-6.398196 0.57394,2.208304 m 0.30087,-2.945004 1.72503,1.356512 m -1.42574,-2.461537 2.23148,0.182416 m -2.55378,-2.254352 1.90918,-1.175841 m -3.08328,-3.865868 -0.73829,2.116236 m -2.39263,-2.047165 0.82718,2.139233 m -6.4214,-0.78095 -0.69224,2.139209 m -7.11203,-6.375173 2.04731,0.596814 m 0.0476,-13.4888419 -1.68216,1.195348 m -2.34659,-3.2903064 -0.0246,2.3233968 m -5.43147,-0.5046947 1.47178,1.4486062 m -10.6113,13.031889 1.97825,0.827023 m 9.99292,12.594494 -2.05052,1.057233 m -1.12645,-3.589586 -0.78433,2.13926 m 21.60116,49.169524 -0.58282,-2.030822 m 4.61389,0.13136 -0.89939,-1.777538"
     sodipodi:nodetypes="cccccccccccccccccccccccccccccccccccccccccccccccccccccccccccccccccccccccccccccccccccccccccccccccccccccccccccccccccccccccccccccccccccccccccccccccccccccccccccccccccccccccccccccccccccccccccccccccccccccccccccccccccccccccccccccccccccccccccccccccccccccccccccccccccccccccccccccccccccccccccccccccccccccccccccccccccccccccccccccccccccccccccccccccccccccccccccccccccccccccccccccccccccccccccccccccccccccccccccccccccccccccccccccccccccccccscccccccccccccccccccccccccccccccccccccccccccccccccccccccccccccccccccccccccccccccccccccssssccsscsssscccssccssccssssssscsscsscsssccsssccsscscsssssccccccccccccccccccccccccccccccccccccccccccccccccccccccccccccccccccc"
     inkstitch:satin_column="True"
     inkstitch:pull_compensation_percent="20" />
  <path
     style="fill:#000000;fill-opacity:1;fill-rule:evenodd;stroke:none;stroke-width:0.159768;stroke-linecap:round;stroke-dasharray:none"
     d="m -916.52931,6.7058433 c -0.037,-0.01071 -0.0382,-0.012718 -0.0223,-0.037103 0.01,-0.014248 0.058,-0.091895 0.10823,-0.1726972 0.48041,-0.7717344 1.05263,-1.3992484 1.62986,-1.7873772 l 0.10316,-0.069327 v 0.1828524 c 0,0.2139111 -0.0137,0.3558268 -0.0538,0.5560637 -0.0591,0.2951629 -0.16966,0.5656835 -0.28526,0.6977787 -0.25211,0.2881058 -0.70548,0.5465301 -1.0966,0.6250757 -0.0996,0.019986 -0.32083,0.022759 -0.38326,0.00478 z"
     id="path41"
     inkstitch:angle="110"
     inkstitch:fill_method="auto_fill" />
  <path
     id="path79"
     style="fill:none;stroke:#000000;stroke-width:0.253005px"
     d="m -892.34746,84.843124 -0.55282,0.09108 -0.77673,0.209995 -1.52511,0.48324 -0.0298,0.0075 -0.91917,0.217584 -0.0488,0.0075 -0.44934,0.0506 -0.0483,0.0025 -0.44326,-0.0051 -0.0592,-0.0025 -0.4377,-0.06831 -0.0329,-0.0075 -0.0323,-0.0075 -0.43315,-0.144214 -0.0327,-0.01265 -0.0314,-0.01518 -0.42909,-0.227705 -0.0286,-0.01518 -0.0274,-0.02024 -0.42555,-0.323846 -0.041,-0.03633 -0.37068,-0.369843 -0.37899,-0.467326 -0.37156,-0.552411 -0.36158,-0.635726 -0.42582,-0.782849 -0.47293,-0.787882 -0.52856,-0.760079 -0.58731,-0.692702 -0.65508,-0.594006 -0.34044,-0.238963 -0.36251,-0.204707 -0.37914,-0.162631 -0.39757,-0.117421 -0.41851,-0.06866 -0.88554,-0.216218 m -0.0253,-0.490779 0.99194,-0.108439 0.52014,0.08536 0.4928,0.145503 0.46453,0.199268 0.43618,0.246351 0.41498,0.291234 0.7326,0.664341 0.6473,0.763443 0.56655,0.814727 0.49598,0.826239 0.4304,0.791298 0.34259,0.60233 0.33406,0.496649 0.32887,0.405542 0.10734,0.194966 0.76062,-0.259887 0.82884,-0.253005 0.81822,-0.253005 0.80607,-0.290956 0.005,-0.0025 0.72106,-0.247945 0.0329,-0.01012 0.73042,-0.184694 0.0274,-0.0075 0.74231,-0.134093 0.0202,-0.0025 0.73701,-0.09867 m -12.36999,-3.842034 0.15893,-0.968402 m 1.74836,1.986166 0.65922,-0.726985 m 1.01723,2.865562 0.84141,-0.505075 m 0.36212,2.584245 0.81429,-0.547706 m 0.99325,0.555322 -0.27422,1.705861 m 1.37476,-2.095945 0.21337,2.54174 m 1.59765,-3.071102 0.61736,2.639248"
     sodipodi:nodetypes="ccccccccccccccccccccccccccccccccccccccccccccccccccccccccccccccccccccccccccccccc"
     inkstitch:satin_column="True"
     inkstitch:pull_compensation_percent="10" />
  <g
     id="g44"
     style="display:inline"
     transform="matrix(0.95624108,0,0,0.95624108,-41.092399,3.119312)">
    <path
       id="path7748"
       style="fill:none;stroke:#000000;stroke-width:1px"
       d="m -2297.6664,208.63646 0.2914,-3.94531 0.031,-3.99042 -0.2218,-4.02539 -0.4737,-4.01674 -1.1845,-7.71154 -1.2359,-6.52934 -0.739,-2.97755 -0.8854,-2.92467 -1.0756,-2.9469 -1.4021,-4.81515 m 10.4897,41.5035 -0.039,-5.63248 -0.2328,-4.22761 -0.4923,-4.17306 -1.2015,-7.82286 -1.2633,-6.67366 -0.7806,-3.14525 -0.9354,-3.08973 -1.1376,-3.1171 -2.2265,-4.46826 m 8.6762,41.23372 -3.8683,-0.28569 m 3.6728,-6.28325 -3.873,0.21333 m 2.9386,-8.68166 -3.8339,0.58886 m 2.5516,-8.44867 -3.8111,0.72141 m 1.7248,-9.90087 -3.7124,1.1239"
       inkstitch:satin_column="true"
       transform="matrix(0,-0.264583,0.264583,0,-962.97,-589.821)"
       sodipodi:nodetypes="ccccccccccccccccccccccccccccccc"
       inkstitch:pull_compensation_percent="10" />
    <path
       id="path8388"
       style="fill:none;stroke:#000000;stroke-width:1px"
       d="m -2322.31,163.77328 -3.7287,10.29086 -1.5788,4.30582 -1.3616,4.32242 -1.0654,4.32355 -0.6953,4.31541 -0.2529,4.30016 0.2632,4.33812 0.4983,3.90935 0.6088,3.95598 0.8384,3.85245 1.1973,3.69138 0.7502,1.7111 0.8896,1.65658 1.0343,1.5733 1.1951,1.48408 1.3745,1.38983 1.5743,1.29003 1.7961,1.18314 2.0442,1.06889 1.6076,0.66395 1.5178,0.46879 1.422,0.28415 1.3293,0.11291 1.2422,-0.0452 1.1637,-0.19211 1.0951,-0.33102 1.1274,-0.50659 m -17.9455,-64.14161 -4.6837,9.84525 -1.6256,4.43318 -1.4148,4.49178 -1.1218,4.55185 -0.7423,4.60739 -0.2739,4.65604 0.2814,4.63768 0.5171,4.05705 0.6304,4.09582 0.8938,4.10675 1.2965,3.99742 0.8666,1.9765 1.0184,1.89642 1.1987,1.8235 1.3963,1.73392 1.6093,1.62717 1.8351,1.50377 2.0727,1.36526 2.3176,1.21191 1.88,0.77645 1.8182,0.56161 1.763,0.35225 1.7057,0.14489 1.644,-0.0598 1.5743,-0.25989 1.4959,-0.45218 m -21.274,-62.01255 3.5889,1.47137 m -7.6563,9.48803 3.6996,1.16535 m -5.8682,7.91039 3.8294,0.61698 m -4.3024,8.83124 3.8717,-0.23491 m -2.2815,11.94723 3.7901,-0.82486 m -1.2435,9.04219 3.5523,-1.55751 m 2.9473,10.05338 2.4585,-3.00019 m 5.3716,7.30496 1.1447,-3.70606"
       inkstitch:satin_column="true"
       transform="matrix(0,-0.264583,0.264583,0,-962.97,-589.821)"
       sodipodi:nodetypes="ccccccccccccccccccccccccccccccccccccccccccccccccccccccccccccccccccccccc"
       inkstitch:pull_compensation_percent="10" />
    <path
       id="path6557"
       style="fill:none;stroke:#000000;stroke-width:1px"
       d="m -2292.0958,170.6187 2.4235,2.44164 0.5561,0.61074 0.5831,0.43333 0.7502,0.33271 0.8529,0.21529 0.8593,0.0649 0.8066,-0.0912 1.0715,-0.3573 0.9813,-0.58015 1.0747,-0.88178 2.0802,-1.79947 m -13.5044,0.40885 1.2711,3.54447 0.07,0.0964 0.077,0.091 0.7418,0.8148 0.1105,0.11019 0.1206,0.099 0.8532,0.634 0.1494,0.0986 0.1594,0.0815 1.0406,0.4615 0.1279,0.0503 0.1317,0.0393 1.1215,0.2831 0.136,0.0282 0.1378,0.0164 1.1501,0.0869 0.1518,0.004 0.1516,-0.01 1.1267,-0.1274 0.1667,-0.0277 0.163,-0.045 1.3956,-0.4654 0.1593,-0.0627 0.1519,-0.0792 1.2362,-0.7308 0.104,-0.067 0.099,-0.0748 1.2157,-0.9975 0.087,-0.0772 2.0509,-2.19814 m -15.1103,1.46947 3.2207,-2.16157 m 6.19,5.51882 -1.2271,-3.67962"
       inkstitch:satin_column="true"
       transform="matrix(0,-0.264583,0.264583,0,-962.97,-589.821)"
       sodipodi:nodetypes="ccccccccccccccccccccccccccccccccccccccccccccccc"
       inkstitch:pull_compensation_percent="10" />
    <path
       id="path1235"
       style="fill:none;stroke:#000000;stroke-width:1px"
       d="m -2243.1003,178.63272 -0.3218,0.75167 -0.085,0.68291 0.079,0.84956 0.2529,0.95011 0.4089,0.97698 0.5324,0.93518 0.6128,0.82931 0.6178,0.64075 0.6339,0.43879 0.8035,0.35615 2.1288,0.5015 1.9735,0.0876 0.5797,-0.072 0.4518,-0.15323 m -11.6399,-9.04747 -0.4118,0.9618 -0.053,0.14175 -0.039,0.14608 -0.026,0.14914 -0.1346,1.084 -0.012,0.17439 0.01,0.17469 0.108,1.1592 0.018,0.13381 0.029,0.13184 0.316,1.1876 0.071,0.20845 0.4894,1.1692 0.086,0.17561 0.6285,1.1039 0.1047,0.16083 0.7328,0.9917 0.1363,0.16126 0.8027,0.8326 0.1167,0.10961 0.1269,0.0975 0.8915,0.6171 0.129,0.0806 0.136,0.0681 1.0807,0.479 0.1399,0.0544 0.1444,0.0412 2.4229,0.5708 0.1485,0.0277 0.1505,0.0137 2.2609,0.1003 0.1356,3.2e-4 0.1352,-0.0111 0.8783,-0.1091 0.1618,-0.0285 0.1581,-0.0448 0.608,-0.2062 m -13.0461,-12.07028 3.5657,1.52669 m -1.1441,8.31921 2.7924,-2.69214 m 6.5091,5.57082 -0.4781,-3.84924"
       inkstitch:satin_column="true"
       transform="matrix(0,-0.264583,0.264583,0,-962.97,-589.821)"
       inkstitch:pull_compensation_percent="10" />
    <path
       id="path440"
       style="fill:none;stroke:#000000;stroke-width:1px"
       d="m -2311.026,274.07029 -2.1087,-5.96588 -1.6886,-4.55875 -1.1893,-3.62224 -0.3867,-1.65974 -0.2097,-1.59495 -0.01,-1.58367 0.2106,-1.5933 0.4333,-1.6245 0.6602,-1.71548 1.9497,-3.78273 2.9086,-4.78334 m 2.4772,31.4074 -2.1167,-5.98872 -1.676,-4.52465 -1.1259,-3.42896 -0.3183,-1.36586 -0.1625,-1.23685 -0.01,-1.15953 0.154,-1.1659 0.3349,-1.2555 0.5352,-1.39052 1.8171,-3.52547 m -0.3037,16.09304 -3.6374,1.3473 m 1.5204,-8.2746 -3.8457,0.50547 m 5.4411,-7.36443 -3.4478,-1.77707"
       inkstitch:satin_column="true"
       transform="matrix(0,-0.264583,0.264583,0,-962.97,-589.821)"
       sodipodi:nodetypes="ccccccccccccccccccccccccccccc"
       inkstitch:pull_compensation_percent="10" />
    <path
       id="path6355"
       style="fill:none;stroke:#000000;stroke-width:1px"
       d="m -2543.8815,245.23447 2.2579,0.31653 6.5536,1.53734 m -12.804,0.52924 5.5696,1.09382 6.4962,1.52386 m -7.1364,-1.32018 0.7475,-3.80612"
       inkstitch:satin_column="true"
       transform="matrix(0,-0.264583,0.264583,0,-962.97,-589.821)"
       sodipodi:nodetypes="cccccccc"
       inkstitch:pull_compensation_percent="10" />
    <path
       id="path9507"
       style="fill:none;stroke:#000000;stroke-width:1px"
       d="m -2236.7323,210.06171 c -3.2551,1.1435 -6.5101,1.80821 -9.7651,1.99577 l -1.8836,-0.2323 -0.1504,-0.0258 -1.7588,-0.388 -0.1723,-0.0482 -1.5568,-0.5296 -0.1456,-0.0575 -1.4895,-0.6738 -0.1617,-0.0845 -2.8152,-1.679 -0.1284,-0.0851 -2.6596,-1.9518 -0.041,-0.0309 -3.2963,-3.67069 m 27.9786,5.77739 -3.6628,0.33936 -3.9031,0.21734 -3.8368,-0.0947 -1.7291,-0.21325 -1.5967,-0.35224 -1.3978,-0.4755 -1.3348,-0.60384 -2.6705,-1.59271 -2.5769,-1.89104 -4.1365,-2.50778 m 14.9311,7.13131 -0.096,3.87764 m -6.3208,-5.91215 -1.9868,3.33133"
       inkstitch:satin_column="true"
       transform="matrix(0,-0.264583,0.264583,0,-962.97,-589.821)"
       sodipodi:nodetypes="cccccccccccccccccccccccccccccc"
       inkstitch:pull_compensation_percent="10" />
    <path
       id="path8881"
       style="fill:none;stroke:#000000;stroke-width:1px"
       d="m -2568.7771,188.93899 0.9866,-1.3001 1.9612,-2.07427 2.2368,-1.80844 2.5245,-1.50568 2.8182,-1.16895 m -9.8876,12.93462 1.3441,-2.28929 1.4856,-2.00917 1.6786,-1.77533 1.89,-1.52796 2.1257,-1.26792 2.3918,-0.99205 2.6901,-0.69435 3.1138,-0.38024 m -13.2061,7.08943 -3.3449,-3.11097 m 5.3539,0.47972 -2.4386,-3.01635 m 5.825,1.14124 -1.9014,-4.40099"
       inkstitch:satin_column="true"
       transform="matrix(0,-0.264583,0.264583,0,-962.97,-589.821)"
       sodipodi:nodetypes="ccccccccccccccccccccc"
       inkstitch:pull_compensation_percent="10" />
  </g>
</g>
<metadata
   id="metadata42">
  <rdf:RDF>
    <cc:Work
       rdf:about="">
      <dc:title>8DE86A95-AC12-4336-9E75-66626BB6DEED.webp.pdf</dc:title>
    </cc:Work>
  </rdf:RDF>
  <inkstitch:min_stitch_len_mm>0.1</inkstitch:min_stitch_len_mm>
  <inkstitch:collapse_len_mm>3</inkstitch:collapse_len_mm>
  <inkstitch:inkstitch_svg_version>2</inkstitch:inkstitch_svg_version>
</metadata>
</svg>
